<?xml version="1.0" encoding="utf-8"?>
<!-- Generator: Adobe Illustrator 23.0.1, SVG Export Plug-In . SVG Version: 6.00 Build 0)  -->
<svg version="1.1" id="Calque_1" xmlns="http://www.w3.org/2000/svg" xmlns:xlink="http://www.w3.org/1999/xlink" x="0px" y="0px"
	 viewBox="0 0 200 200" style="enable-background:new 0 0 200 200;" xml:space="preserve">
<style type="text/css">
	.st0{fill:#00AAAE;}
	.st1{fill:none;stroke:#FFFFFF;stroke-miterlimit:10;}
	.st2{fill:none;stroke:#FFFFFF;stroke-width:0.6923;stroke-miterlimit:10;}
</style>
<g>
	<path class="st0" d="M125.21,112.91c-1.56,0-2.83,1.27-2.83,2.83v4.83c0,1.56,1.27,2.83,2.83,2.83c1.56,0,2.83-1.27,2.83-2.83
		v-4.83C128.04,114.18,126.77,112.91,125.21,112.91z"/>
	<path class="st0" d="M178.61,112.91c-1.56,0-2.83,1.27-2.83,2.83v4.83c0,1.56,1.27,2.83,2.83,2.83c1.56,0,2.83-1.27,2.83-2.83
		v-4.83C181.44,114.18,180.17,112.91,178.61,112.91z"/>
	<path class="st0" d="M160.36,118.1c-1.18-1.03-2.97-0.91-4,0.27c-1.08,1.24-2.71,1.95-4.46,1.95s-3.38-0.71-4.46-1.95
		c-1.03-1.18-2.82-1.3-3.99-0.27c-1.18,1.03-1.3,2.82-0.27,3.99c2.16,2.47,5.34,3.88,8.72,3.88c3.39,0,6.57-1.42,8.72-3.88
		C161.66,120.92,161.54,119.13,160.36,118.1z"/>
	<path class="st0" d="M183.16,80.68c-3.44-4.24-7.4-8.06-11.74-11.34c-1.91-1.44-3.9-2.8-5.97-4.07c0.5-4.53,1.76-11.5,4.94-18.13
		c0.78,0.21,1.6,0.33,2.44,0.33c5.62,0,10.13-5.08,9.44-10.66c-0.59-4.75-4.64-8.34-9.42-8.34c-5.62,0-10.12,5.08-9.43,10.66
		c0.23,1.89,1.02,3.58,2.17,4.95c-3.2,6.44-4.73,13.17-5.46,18.17c-5.32-2.77-11.06-5.05-17.11-6.81c0.73-3.81,2-8.5,4.17-13.05
		c0.78,0.21,1.6,0.33,2.44,0.33c2.91,0,5.7-1.36,7.5-3.66c1.56-2,2.25-4.49,1.94-7.01c-0.59-4.75-4.63-8.34-9.42-8.34
		c-5.62,0-10.12,5.08-9.43,10.66c0.23,1.89,1.02,3.59,2.17,4.96c-2.54,5.11-4.01,10.39-4.86,14.68c-3.75-0.87-7.6-1.54-11.53-2.01
		c0.1-0.31,0.21-0.61,0.3-0.92c2.05-6.75,1.54-13.86-1.44-20c-3.02-6.22-8.2-10.71-14.58-12.65C98.8,14.95,86.7,20.94,81.09,31.22
		c-5.47-6.6-13.44-10.68-21.9-10.68c-2.58,0-5.15,0.38-7.63,1.14c-14.75,4.48-22.84,20.98-18.04,36.8
		c1.98,6.52,5.86,12.07,11.09,15.97c-4.22,3.7-7.9,7.75-10.91,12.04c-4.5,6.41-7.53,13.4-8.98,20.58L6.78,112.7
		c-1.94,0.46-3.28,2.15-3.28,4.17c0,2.02,1.34,3.7,3.28,4.17l17.93,5.63c1.45,7.19,4.49,14.17,8.99,20.58
		c6.24,8.89,15.3,16.73,26.22,22.67c9.21,5.01,19.47,8.59,30.49,10.66c7.06,1.32,14.37,2,21.73,2c10.14,0,19.94-1.27,29.14-3.76
		c20.07-5.44,36.44-16.53,46.12-31.24c0.01-0.01,0.01-0.02,0.03-0.04C201.29,126.53,198.79,99.96,183.16,80.68z M169.81,35.6
		c0.63-0.81,1.54-1.32,2.55-1.45c0.16-0.02,0.32-0.03,0.48-0.03c1.93,0,3.56,1.45,3.8,3.37c0.26,2.1-1.24,4.02-3.34,4.28
		c-0.16,0.02-0.32,0.03-0.48,0.03c-1.93,0-3.56-1.45-3.8-3.37C168.9,37.42,169.18,36.41,169.81,35.6z M149.17,29.41
		c2.07-0.27,4.02,1.27,4.28,3.34c0.28,2.26-1.54,4.31-3.82,4.31c-1.93,0-3.56-1.45-3.8-3.37C145.57,31.6,147.14,29.67,149.17,29.41z
		 M23.86,120.46l-11.45-3.59l11.45-3.6c-0.03,0.4-0.05,0.81-0.07,1.21C23.7,116.47,23.72,118.47,23.86,120.46z M103.49,23.08
		c1.74,0,3.46,0.26,5.13,0.76c4.86,1.47,8.81,4.92,11.13,9.7c2.36,4.86,2.76,10.5,1.12,15.88c-0.2,0.68-0.44,1.35-0.71,2.01
		c-0.33-0.02-3.37-0.18-4.56-0.22c-3.94-0.12-7.88-0.04-11.81,0.24c-1.85,0.13-5.62,0.52-5.67,0.53c1.67-4.99,4.73-12.06,9.71-16.94
		c1.12-1.09,1.14-2.89,0.04-4.01c-1.09-1.12-2.89-1.14-4-0.04c-3.02,2.96-8.47,9.65-11.97,21.89c-1.2,0.21-2.4,0.43-3.59,0.68
		c0.16-2.42,0.03-4.87-0.36-7.26c-0.55-3.34-1.63-6.58-3.19-9.58C87.89,28.64,95.44,23.08,103.49,23.08z M38.94,56.82
		C35.04,44,41.44,30.66,53.2,27.09c10.35-3.14,21.14,2.52,26.22,11.68c2.69,4.84,3.81,10.57,3.08,16.07c0,0.03-0.01,0.07-0.01,0.1
		c-3.78,0.99-7.51,2.19-11.15,3.6c-2.09-6.49-6.06-15.93-12.89-22.61c-1.12-1.09-2.91-1.07-4,0.04c-1.09,1.12-1.07,2.91,0.04,4
		c6.16,6.02,9.75,14.84,11.61,20.76c-3.4,1.54-6.71,3.28-9.91,5.22c-1.4,0.85-6.92,4.84-7.04,4.77
		C44.3,67.53,40.71,62.65,38.94,56.82z M38.36,143.98c-4.17-5.93-7.17-12.61-8.37-19.88c0-0.03,0-0.06-0.01-0.09
		c-0.78-4.72-0.78-9.57,0-14.29c0.01-0.03,0.01-0.06,0.01-0.09C31.77,96.2,40.93,84.4,51.3,76.23c0.32-0.25,1.29-0.99,1.33-1.03
		c-0.02,0.04-0.73,1.46-1.05,2.13c-5.86,12.23-8.92,25.9-8.92,39.53c0,14.38,3.36,28.72,9.91,41.54c0.02,0.04,0.04,0.09,0.06,0.13
		C47.21,154.45,42.27,149.55,38.36,143.98z M63.22,165.26c-0.26-0.38-0.52-0.76-0.77-1.14c-2.37-3.58-4.47-7.34-6.27-11.24
		c-5.2-11.26-7.85-23.61-7.85-36.01c0-15.77,4.38-31.47,12.63-44.92c0.5-0.81,2.16-3.34,2.26-3.47c0.06-0.03,0.13-0.07,0.2-0.1
		c6.12-3.25,12.63-5.78,19.31-7.63c0.14-0.04,0.28-0.07,0.42-0.11c-1.42,1.82-2.77,3.69-4.05,5.61
		C69.17,81.12,63.87,99,63.87,116.87c0,18.88,5.88,37.62,16.85,52.99c0.27,0.38,2.01,2.72,2.43,3.25
		C76.07,171.18,69.4,168.56,63.22,165.26z M139.8,173.34c-8.72,2.36-18.02,3.56-27.66,3.56c-6.7,0-13.35-0.58-19.78-1.73
		c-6.31-6.76-11.51-14.56-15.31-23c-5.26-11.7-7.8-24.55-7.5-37.36c0.34-14.71,4.53-29.38,12.08-42.01
		c3.05-5.1,6.66-9.88,10.72-14.23c0.29-0.05,0.58-0.1,0.87-0.15c9.32-1.59,18.86-1.99,28.28-1.19c16.9,1.42,32.4,6.7,44.55,15.23
		c-5.24,0-10.22,1.83-14.18,5.17c-6.95-6.22-15.87-9.63-25.29-9.63c-12.54,0-24.37,6.1-31.64,16.32
		c-6.96,9.78-10.64,21.04-10.64,32.56c0,8.38,1.97,16.68,5.65,24.2c9.42,19.24,29.19,31.34,50.58,31.34c0.54,0,2.48-0.05,2.69-0.06
		C142.1,172.69,140.96,173.03,139.8,173.34z M182.69,144.4c-9.34,14.02-25.34,22.34-42.14,22.34c-19.25,0-37.01-10.85-45.49-28.16
		c-8.09-16.53-6.09-36.08,4.52-50.98c11.38-15.99,35.42-18.7,49.58-4.78c0.8,0.79,1.51,1.54,2.72,1.55
		c1.21,0.01,2.04-0.89,2.85-1.67c3.27-3.15,7.76-4.8,12.29-4.55c4.58,0.26,8.84,2.39,11.81,5.94c7.84,9.4,12.2,21.05,12.29,32.8
		C191.18,126.66,188.09,136.3,182.69,144.4z"/>
</g>
</svg>
