<?xml version="1.0" encoding="utf-8"?>
<!-- Generator: Adobe Illustrator 23.0.1, SVG Export Plug-In . SVG Version: 6.00 Build 0)  -->
<svg version="1.1" id="Calque_1" xmlns="http://www.w3.org/2000/svg" xmlns:xlink="http://www.w3.org/1999/xlink" x="0px" y="0px"
	 viewBox="0 0 200 200" style="enable-background:new 0 0 200 200;" xml:space="preserve">
<style type="text/css">
	.st0{fill:#00AAAE;}
	.st1{fill:none;stroke:#FFFFFF;stroke-miterlimit:10;}
	.st2{fill:none;stroke:#FFFFFF;stroke-width:0.6923;stroke-miterlimit:10;}
</style>
<g>
	<path class="st0" d="M139.32,113.51l-16.23,4.43c-1.41,0.39-2.46,1.59-2.64,3.04c-0.18,1.46,0.53,2.88,1.8,3.6l15.05,8.59
		c0.57,0.33,1.18,0.48,1.79,0.48c1.26,0,2.48-0.65,3.15-1.83c0.99-1.74,0.39-3.95-1.35-4.95l-7.45-4.26l7.78-2.13
		c1.93-0.53,3.07-2.52,2.54-4.45C143.24,114.12,141.25,112.98,139.32,113.51L139.32,113.51z M139.32,113.51"/>
	<path class="st0" d="M79.55,120.98c-0.18-1.45-1.23-2.65-2.64-3.04l-16.23-4.43c-1.93-0.53-3.93,0.61-4.45,2.54
		c-0.53,1.93,0.61,3.93,2.54,4.45l7.79,2.13l-7.45,4.26c-1.74,0.99-2.34,3.21-1.35,4.95c0.67,1.17,1.89,1.83,3.15,1.83
		c0.61,0,1.23-0.15,1.79-0.48l15.05-8.59C79.03,123.86,79.74,122.44,79.55,120.98L79.55,120.98z M79.55,120.98"/>
	<g>
		<path class="st0" d="M122.29,146.58h-43.5c-2,0-3.62,1.62-3.62,3.62c0,2,1.62,3.63,3.62,3.63h5.89v7.93
			c0,8.74,7.12,15.86,15.86,15.86c8.75,0,15.86-7.12,15.86-15.86v-7.93h5.89c2,0,3.63-1.62,3.63-3.63
			C125.91,148.21,124.29,146.58,122.29,146.58L122.29,146.58z M109.15,161.76c0,4.75-3.86,8.61-8.61,8.61
			c-4.75,0-8.61-3.86-8.61-8.61v-7.93h4.99v7.25c0,2,1.62,3.63,3.62,3.63s3.62-1.62,3.62-3.63v-7.25h4.98V161.76z M109.15,161.76"/>
		<path class="st0" d="M191.19,157.23c-5.54-13.92-18.1-22.33-23.01-25.2c8.19-2.13,14.25-9.58,14.25-18.42
			c0-3.85-1.17-7.61-3.33-10.76c1.23-5.68,1.86-11.51,1.86-17.37c0-44.87-36.5-81.37-81.37-81.37c-44.87,0-81.37,36.51-81.37,81.37
			c0,6.18,0.71,12.33,2.08,18.31c-1.74,2.87-2.74,6.23-2.74,9.82c0,8.85,6.07,16.3,14.25,18.42c-4.92,2.87-17.46,11.28-23.01,25.2
			c-6.83,17.13-0.21,35.52,0.07,36.29c0.36,0.97,1.11,1.73,2.06,2.12c0.43,0.17,0.89,0.26,1.34,0.26c0.55,0,1.1-0.13,1.61-0.38
			c0.74-0.37,18.19-9.17,25.01-26.3c1.22-3.06,2.01-6.16,2.48-9.19c2.36,4.25,5.2,8.27,8.48,11.97
			c12.72,14.32,30.99,22.53,50.13,22.53s37.41-8.21,50.13-22.53c3.28-3.7,6.12-7.71,8.48-11.97c0.47,3.03,1.26,6.13,2.48,9.19
			c6.83,17.14,24.27,25.93,25.01,26.3c0.51,0.25,1.06,0.38,1.61,0.38c0.46,0,0.91-0.09,1.34-0.26c0.96-0.38,1.71-1.15,2.06-2.12
			C191.4,192.75,198.02,174.36,191.19,157.23L191.19,157.23z M167.03,124.81v-7.62c1.06,0.2,2.12,0.4,3.22,0.57
			c0.19,0.03,0.38,0.04,0.56,0.04c1.34,0,2.6-0.75,3.22-1.97l1.15-2.25c0,0,0,0.01,0,0.02
			C175.18,118.84,171.76,123.28,167.03,124.81L167.03,124.81z M99.6,11.35c40.87,0,74.12,33.25,74.12,74.12
			c0,5.87-0.69,11.71-2.04,17.36c0,0.01,0,0.02-0.01,0.04c-0.53,2.19-2.87,7.28-2.87,7.28c-17.62-3.31-32.47-11.85-44.16-25.39
			c-9.22-10.68-12.92-20.66-12.95-20.75c-0.5-1.4-1.81-2.35-3.29-2.39c-1.5-0.04-2.85,0.81-3.44,2.18c-0.27,0.62-5.8,13.7-0.1,27.97
			c-10.66-1.54-20.61-7.11-29.65-16.63c-8.23-8.67-12.55-17.5-12.59-17.58c-0.81-1.69-2.81-2.51-4.62-1.79
			c-1.39,0.55-2.27,1.95-2.27,3.45c-0.03,22.92-13.64,31.94-18.6,34.46c-0.97,0.5-8.03,2.18-10.65,3.84
			c-0.65-3.97-0.98-7.99-0.98-12.04C25.47,44.6,58.73,11.35,99.6,11.35L99.6,11.35z M24.82,113.61c0-5.23,3.43-9.68,8.16-11.21
			v22.42C28.25,123.28,24.82,118.84,24.82,113.61L24.82,113.61z M32.18,166.54c-4,10.03-12.66,16.9-17.69,20.21
			c-1.37-5.86-2.94-16.81,1.06-26.84c3.99-10.03,12.66-16.9,17.69-20.21C34.6,145.57,36.17,156.51,32.18,166.54L32.18,166.54z
			 M144.71,167.18c-11.34,12.77-27.64,20.1-44.71,20.1c-17.07,0-33.36-7.33-44.71-20.1c-9.72-10.94-15.07-25.03-15.07-39.68v-27.3
			c2.44-1.24,6.41-3.65,10.34-7.71c4.29-4.43,9.21-11.56,11.33-22.19c2.08,2.94,4.7,6.3,7.88,9.67
			c12.04,12.75,26.29,19.49,41.21,19.49c1.32,0,2.54-0.72,3.18-1.88c0.64-1.16,0.59-2.58-0.12-3.69
			c-4.02-6.32-4.78-12.76-4.47-17.78c2.21,3.8,5.28,8.4,9.36,13.17c7.91,9.23,21.09,20.59,40.84,26.2v12.03
			C159.78,142.15,154.43,156.24,144.71,167.18L144.71,167.18z M185.51,186.76c-5.02-3.3-13.67-10.15-17.68-20.22
			c-3.99-10.03-2.43-20.97-1.06-26.83c5.03,3.31,13.69,10.18,17.69,20.21C188.45,169.94,186.88,180.9,185.51,186.76L185.51,186.76z
			 M185.51,186.76"/>
	</g>
</g>
</svg>
