<?xml version="1.0" encoding="utf-8"?>
<!-- Generator: Adobe Illustrator 23.0.1, SVG Export Plug-In . SVG Version: 6.00 Build 0)  -->
<svg version="1.1" id="Calque_1" xmlns="http://www.w3.org/2000/svg" xmlns:xlink="http://www.w3.org/1999/xlink" x="0px" y="0px"
	 viewBox="0 0 200 200" style="enable-background:new 0 0 200 200;" xml:space="preserve">
<style type="text/css">
	.st0{fill:#00AAAE;}
	.st1{fill:none;stroke:#FFFFFF;stroke-miterlimit:10;}
	.st2{fill:none;stroke:#FFFFFF;stroke-width:0.6923;stroke-miterlimit:10;}
</style>
<g>
	<path class="st0" d="M193.5,100c0-23.26-8.45-45.64-23.79-63.07V7.3c0-1.55-1.25-2.8-2.8-2.8h-2.47c-9.17,0-17.41,4.03-23.07,10.4
		C128.03,8.09,113.08,4.5,98,4.5c-8.86,0-17.59,1.21-26.03,3.6c-0.91-2.11-3.01-3.6-5.45-3.6H32.23c-3.27,0-5.94,2.66-5.94,5.93
		v26.5C10.94,54.37,2.5,76.72,2.5,100c0,15.07,3.41,29.49,10.14,42.86c6.2,12.32,15.17,23.33,26,31.94l-0.24,9.23
		c-0.08,2.98,1.03,5.81,3.11,7.94c2.08,2.14,4.88,3.32,7.86,3.32c2.99,0,5.78-1.18,7.86-3.32c1.23-1.27,2.12-2.77,2.62-4.41
		c12.03,5.26,24.84,7.93,38.14,7.93c17.85,0,35.05-4.88,50.08-14.17l-0.16,2.31c-0.21,3,0.85,5.99,2.91,8.19
		c2.05,2.2,4.96,3.46,7.97,3.46c6.01,0,10.9-4.89,10.9-10.9v-21.32C185.06,145.63,193.5,123.28,193.5,100L193.5,100z M164.11,10.1
		v69.69c0,1.54,1.25,2.8,2.8,2.8c1.54,0,2.8-1.25,2.8-2.8V45.77c11.78,15.56,18.2,34.55,18.2,54.23c0,19.69-6.42,38.67-18.2,54.23
		v-64c0-1.55-1.25-2.8-2.8-2.8c-1.55,0-2.8,1.25-2.8,2.8v28.36h-23.79c-0.63,0-1.14-0.51-1.14-1.14v-82.1
		C139.19,21.54,150.33,10.27,164.11,10.1L164.11,10.1z M57.49,73.57c8.11-3.05,14.05-10.55,14.87-19.5
		C80.16,49.71,88.99,47.4,98,47.4c13.27,0,25.86,4.92,35.59,13.87v56.19c0,3.71,3.02,6.73,6.73,6.73h4.39
		c-8.99,17.39-26.89,28.41-46.72,28.41c-14.79,0-28.96-6.27-38.91-17.21L57.49,73.57z M31.89,10.43c0-0.19,0.15-0.34,0.34-0.34h6.91
		V44.6c0,1.55,1.25,2.8,2.8,2.8c1.54,0,2.8-1.25,2.8-2.8V10.1h9.27V44.6c0,1.55,1.25,2.8,2.8,2.8c1.55,0,2.8-1.25,2.8-2.8V10.1h6.91
		c0.19,0,0.34,0.15,0.34,0.34v16.27c0,1.55,1.25,2.8,2.8,2.8c1.54,0,2.8-1.25,2.8-2.8V13.78C80.71,11.34,89.3,10.1,98,10.1
		c13.89,0,27.65,3.23,40,9.37c-2.8,4.64-4.42,10.08-4.42,15.89v18.6C123.43,46.08,111.01,41.8,98,41.8c-8.89,0-17.63,2.04-25.55,5.9
		V37.15c0-1.55-1.25-2.8-2.8-2.8c-1.54,0-2.8,1.25-2.8,2.8v14.82c0,9.64-7.84,17.48-17.48,17.48c-9.64,0-17.49-7.84-17.49-17.48
		V10.43z M8.1,100c0-19.69,6.42-38.67,18.2-54.23v6.2c0,9.87,6.23,18.31,14.97,21.6l-2.44,94.11C19.23,150.59,8.1,126.22,8.1,100
		L8.1,100z M53.23,188.07c-1.02,1.05-2.39,1.62-3.85,1.62c-1.46,0-2.83-0.58-3.85-1.62c-1.02-1.05-1.56-2.43-1.53-3.89L46.83,74.9
		c0.84,0.09,1.69,0.14,2.55,0.14c0.86,0,1.71-0.05,2.55-0.14l2.83,109.27C54.79,185.64,54.25,187.02,53.23,188.07L53.23,188.07z
		 M98,189.9c-13.19,0-25.87-2.79-37.72-8.28l-0.99-38.18C69.9,152.88,83.68,158.2,98,158.2c22.9,0,43.47-13.29,52.94-34H152
		l-3.44,50.16C133.63,184.53,116.17,189.9,98,189.9L98,189.9z M158.8,189.69c-1.49,0-2.86-0.6-3.88-1.68
		c-1.02-1.09-1.52-2.5-1.42-3.99l0.54-7.92c0-0.01,0-0.01,0-0.02l3.56-51.9h6.5v60.19C164.11,187.31,161.73,189.69,158.8,189.69
		L158.8,189.69z M158.8,189.69"/>
	<path class="st0" d="M114.62,97.11c1.34,0.77,3.05,0.31,3.82-1.03c0.68-1.19,1.95-1.92,3.32-1.92c1.37,0,2.64,0.74,3.32,1.92
		c0.52,0.9,1.46,1.4,2.43,1.4c0.47,0,0.95-0.12,1.39-0.37c1.34-0.77,1.8-2.48,1.03-3.82c-1.68-2.92-4.81-4.73-8.17-4.73
		c-3.36,0-6.49,1.81-8.17,4.73C112.82,94.63,113.28,96.34,114.62,97.11L114.62,97.11z M114.62,97.11"/>
	<path class="st0" d="M67.1,97.11c1.34,0.77,3.05,0.31,3.82-1.03c0.68-1.19,1.95-1.92,3.32-1.92c1.37,0,2.64,0.74,3.32,1.92
		c0.52,0.9,1.46,1.4,2.43,1.4c0.47,0,0.95-0.12,1.39-0.37c1.34-0.77,1.8-2.48,1.03-3.82c-1.68-2.92-4.81-4.73-8.17-4.73
		c-3.36,0-6.5,1.81-8.17,4.73C65.3,94.63,65.76,96.34,67.1,97.11L67.1,97.11z M67.1,97.11"/>
	<path class="st0" d="M98,111.86c5.08,0,9.21-4.13,9.21-9.21v-3.7c0-2.15-1.75-3.91-3.91-3.91H92.69c-2.15,0-3.91,1.75-3.91,3.91
		v3.7C88.79,107.73,92.92,111.86,98,111.86L98,111.86z M94.38,100.63h7.24v2.01c0,2-1.62,3.62-3.62,3.62c-2,0-3.62-1.62-3.62-3.62
		V100.63z M94.38,100.63"/>
	<path class="st0" d="M123.88,103.35h-4.24c-1.54,0-2.8,1.25-2.8,2.8c0,1.54,1.25,2.8,2.8,2.8h4.24c1.54,0,2.8-1.25,2.8-2.8
		C126.67,104.6,125.42,103.35,123.88,103.35L123.88,103.35z M123.88,103.35"/>
	<path class="st0" d="M76.36,103.35h-4.24c-1.54,0-2.8,1.25-2.8,2.8c0,1.54,1.25,2.8,2.8,2.8h4.24c1.54,0,2.8-1.25,2.8-2.8
		C79.16,104.6,77.9,103.35,76.36,103.35L76.36,103.35z M76.36,103.35"/>
</g>
</svg>
