<?xml version="1.0" encoding="utf-8"?>
<!-- Generator: Adobe Illustrator 23.0.1, SVG Export Plug-In . SVG Version: 6.00 Build 0)  -->
<svg version="1.1" id="Calque_1" xmlns="http://www.w3.org/2000/svg" xmlns:xlink="http://www.w3.org/1999/xlink" x="0px" y="0px"
	 viewBox="0 0 200 200" style="enable-background:new 0 0 200 200;" xml:space="preserve">
<style type="text/css">
	.st0{fill:#00AAAE;}
	.st1{fill:none;stroke:#FFFFFF;stroke-miterlimit:10;}
	.st2{fill:none;stroke:#FFFFFF;stroke-width:0.6923;stroke-miterlimit:10;}
</style>
<g>
	<g>
		<path class="st0" d="M193.04,95.03c-2.39-3.16-5.87-5.15-9.71-5.59l-12.74-22.07l-2.02-30.95c-0.23-3.52-2.26-6.56-5.42-8.12
			c-3.17-1.56-6.81-1.32-9.74,0.64l-23.44,15.66c-1.18-1.19-2.66-2.07-4.32-2.54c-2.7-0.76-5.6-0.31-7.97,1.24
			c-1.28-1.63-3.06-2.82-5.15-3.38L71.73,28.98c-3.41-0.91-6.93,0.03-9.43,2.53c-2.5,2.5-3.44,6.02-2.53,9.43l1.02,3.81l-18.5-12.3
			c-2.94-1.95-6.58-2.18-9.74-0.62c-3.16,1.57-5.18,4.61-5.4,8.13L25.8,61.23l-0.23-0.06c-3.41-0.91-6.93,0.03-9.43,2.52
			c-2.5,2.5-3.44,6.02-2.53,9.43l4.35,16.22c-4.35,0.12-8.35,2.17-11.01,5.69c-2.77,3.66-3.65,8.3-2.4,12.73
			c5.13,18.18,18.98,34.02,39.09,44.78c0.42,5.36,2.79,10.32,6.73,14.07c4.14,3.95,9.55,6.12,15.25,6.12h68.78
			c5.69,0,11.11-2.17,15.25-6.12c3.94-3.75,6.3-8.71,6.73-14.07c20.08-10.73,33.92-26.56,39.07-44.71
			C196.7,103.38,195.83,98.71,193.04,95.03L193.04,95.03z M165.24,69.73l11.32,19.6H157c0.66-0.53,1.09-1.35,1.09-2.27
			c0-1.61-1.3-2.91-2.91-2.91c-1.61,0-2.91,1.3-2.91,2.91c0,0.92,0.43,1.73,1.09,2.27h-3.09l3.12-11.29
			c0.84-3.04,0.2-6.19-1.74-8.65c-0.93-1.18-2.11-2.1-3.42-2.74l4.21-7.28c0.71-1.23,1.99-1.97,3.41-1.97c1.43,0,2.7,0.74,3.42,1.97
			l5.97,10.34C165.23,69.73,165.24,69.73,165.24,69.73L165.24,69.73z M156.63,33.77c1.19-0.79,2.66-0.89,3.94-0.26
			c1.28,0.63,2.1,1.86,2.19,3.28l1.26,19.22c-1.81-2.78-4.82-4.42-8.17-4.42c-3.53,0-6.69,1.82-8.45,4.88l-5.45,9.43
			c-0.14,0.03-0.28,0.06-0.42,0.1l-7.62,1.98l-1.14-17.18c-0.02-0.34-0.07-0.68-0.12-1.01L156.63,33.77z M132,74.49l0.02,0
			l10.97-2.85c0.29-0.08,0.58-0.12,0.88-0.13c1.23-0.04,2.43,0.52,3.22,1.51c0.46,0.58,1.16,1.81,0.7,3.49l-3.54,12.83h-5.46
			c0.66-0.53,1.09-1.35,1.09-2.27c0-1.61-1.3-2.91-2.91-2.91c-1.61,0-2.91,1.3-2.91,2.91c0,0.92,0.42,1.73,1.09,2.27h-25.35
			c-0.04-1.6-0.48-3.2-1.31-4.65l-2.05-3.56L132,74.49z M118.17,49.96c0,0,0.01-0.01,0.01-0.01l2.64-1.77
			c0.98-0.65,2.13-0.84,3.24-0.53c1.13,0.32,2.06,1.1,2.54,2.14c0.2,0.44,0.32,0.91,0.35,1.41l1.22,18.28L103.4,75.9l-6.69-11.58
			L118.17,49.96z M103.96,89.34H53.84c0.03-0.53,0.18-1.12,0.53-1.74l21.12-36.57c0.71-1.23,1.99-1.97,3.41-1.97
			c1.43,0,2.7,0.74,3.41,1.97l21.12,36.57C103.79,88.22,103.93,88.81,103.96,89.34L103.96,89.34z M66.41,35.62
			c1.01-1.01,2.43-1.39,3.81-1.02l40.79,10.93c0.7,0.19,1.31,0.54,1.79,1.02l-19,12.73l-6.44-11.16c-1.76-3.06-4.93-4.88-8.45-4.88
			c-3.53,0-6.69,1.82-8.45,4.88l-1.27,2.2l-1.05-0.7l-2.73-10.19C65.02,38.05,65.4,36.62,66.41,35.62L66.41,35.62z M32.95,40.32
			c0.09-1.42,0.9-2.65,2.18-3.28c1.28-0.63,2.75-0.54,3.93,0.25l27.19,18.08l-8.36,14.47l-26.38-7.07L32.95,40.32z M20.26,67.81
			c1.01-1.01,2.43-1.39,3.81-1.02l3.64,0.97c0.01,0,0.01,0,0.02,0.01l27.17,7.28l-5.57,9.64c-0.84,1.45-1.27,3.04-1.31,4.65H23.98
			l-4.75-17.72C18.87,70.24,19.25,68.82,20.26,67.81L20.26,67.81z M189.84,106.25c-4.73,16.68-17.64,31.29-36.42,41.27H72.85
			c-1.61,0-2.91,1.3-2.91,2.91c0,1.61,1.3,2.91,2.91,2.91h77.56c-1.25,7.64-8.05,13.58-16.01,13.58H65.62
			c-7.96,0-14.76-5.93-16.01-13.58h11.61c1.61,0,2.91-1.3,2.91-2.91c0-1.61-1.3-2.91-2.91-2.91H46.61
			c-18.81-10-31.74-24.63-36.45-41.33c-0.75-2.66-0.23-5.44,1.44-7.64c1.63-2.16,4.1-3.39,6.77-3.39h3.38c0,0,0.01,0,0.01,0
			c0,0,0.01,0,0.01,0h84.55c0.01,0,0.01,0,0.01,0c0,0,0.01,0,0.01,0h40.11c0,0,0.01,0,0.01,0c0,0,0.01,0,0.01,0h35.13
			c0,0,0,0,0.01,0c0,0,0,0,0.01,0h0.05c2.67,0,5.13,1.23,6.75,3.38C190.07,100.75,190.6,103.56,189.84,106.25L189.84,106.25z
			 M189.84,106.25"/>
	</g>
	<path class="st0" d="M141.8,59.34c0,1.61-1.3,2.91-2.91,2.91c-1.61,0-2.91-1.3-2.91-2.91c0-1.61,1.3-2.91,2.91-2.91
		C140.5,56.43,141.8,57.73,141.8,59.34L141.8,59.34z M141.8,59.34"/>
	<path class="st0" d="M148.78,48.28c0,1.61-1.3,2.91-2.91,2.91c-1.61,0-2.91-1.3-2.91-2.91c0-1.61,1.3-2.91,2.91-2.91
		C147.48,45.37,148.78,46.68,148.78,48.28L148.78,48.28z M148.78,48.28"/>
	<path class="st0" d="M159.64,42.85c0,1.61-1.3,2.91-2.91,2.91c-1.61,0-2.91-1.3-2.91-2.91c0-1.61,1.3-2.91,2.91-2.91
		C158.34,39.94,159.64,41.24,159.64,42.85L159.64,42.85z M159.64,42.85"/>
	<path class="st0" d="M73.15,40.14c0,1.61-1.3,2.91-2.91,2.91c-1.61,0-2.91-1.3-2.91-2.91c0-1.61,1.3-2.91,2.91-2.91
		C71.85,37.23,73.15,38.53,73.15,40.14L73.15,40.14z M73.15,40.14"/>
	<path class="st0" d="M97.97,49.45c0,1.61-1.3,2.91-2.91,2.91c-1.61,0-2.91-1.3-2.91-2.91c0-1.61,1.3-2.91,2.91-2.91
		C96.67,46.54,97.97,47.84,97.97,49.45L97.97,49.45z M97.97,49.45"/>
	<path class="st0" d="M111.55,70c0,1.61-1.3,2.91-2.91,2.91c-1.61,0-2.91-1.3-2.91-2.91c0-1.61,1.3-2.91,2.91-2.91
		C110.25,67.09,111.55,68.4,111.55,70L111.55,70z M111.55,70"/>
	<path class="st0" d="M123.18,66.12c0,1.61-1.3,2.91-2.91,2.91c-1.61,0-2.91-1.3-2.91-2.91c0-1.61,1.3-2.91,2.91-2.91
		C121.88,63.21,123.18,64.52,123.18,66.12L123.18,66.12z M123.18,66.12"/>
	<path class="st0" d="M114.65,61.08c0,1.61-1.3,2.91-2.91,2.91c-1.61,0-2.91-1.3-2.91-2.91c0-1.61,1.3-2.91,2.91-2.91
		C113.35,58.17,114.65,59.47,114.65,61.08L114.65,61.08z M114.65,61.08"/>
	<path class="st0" d="M53.78,63.03c0,1.61-1.3,2.91-2.91,2.91c-1.61,0-2.91-1.3-2.91-2.91c0-1.61,1.3-2.91,2.91-2.91
		C52.47,60.12,53.78,61.42,53.78,63.03L53.78,63.03z M53.78,63.03"/>
	<path class="st0" d="M42.12,58.8c0,1.61-1.3,2.91-2.91,2.91c-1.61,0-2.91-1.3-2.91-2.91c0-1.61,1.3-2.91,2.91-2.91
		C40.82,55.89,42.12,57.19,42.12,58.8L42.12,58.8z M42.12,58.8"/>
	<path class="st0" d="M42.08,48.33c0,1.61-1.3,2.91-2.91,2.91c-1.61,0-2.91-1.3-2.91-2.91c0-1.61,1.3-2.91,2.91-2.91
		C40.77,45.42,42.08,46.72,42.08,48.33L42.08,48.33z M42.08,48.33"/>
	<path class="st0" d="M53.73,54.11c0,1.61-1.3,2.91-2.91,2.91c-1.61,0-2.91-1.3-2.91-2.91c0-1.61,1.3-2.91,2.91-2.91
		C52.43,51.2,53.73,52.5,53.73,54.11L53.73,54.11z M53.73,54.11"/>
	<path class="st0" d="M48.71,83.19c0,1.61-1.3,2.91-2.91,2.91c-1.61,0-2.91-1.3-2.91-2.91c0-1.61,1.3-2.91,2.91-2.91
		C47.41,80.28,48.71,81.58,48.71,83.19L48.71,83.19z M48.71,83.19"/>
	<path class="st0" d="M40.96,75.43c0,1.61-1.3,2.91-2.91,2.91c-1.61,0-2.91-1.3-2.91-2.91c0-1.61,1.3-2.91,2.91-2.91
		C39.65,72.52,40.96,73.82,40.96,75.43L40.96,75.43z M40.96,75.43"/>
	<path class="st0" d="M167.01,80.86c0,1.61-1.3,2.91-2.91,2.91c-1.61,0-2.91-1.3-2.91-2.91c0-1.61,1.3-2.91,2.91-2.91
		C165.71,77.95,167.01,79.26,167.01,80.86L167.01,80.86z M167.01,80.86"/>
	<path class="st0" d="M159.64,71.55c0,1.61-1.3,2.91-2.91,2.91c-1.61,0-2.91-1.3-2.91-2.91c0-1.61,1.3-2.91,2.91-2.91
		C158.34,68.64,159.64,69.95,159.64,71.55L159.64,71.55z M159.64,71.55"/>
	<path class="st0" d="M120.47,84.74c0,1.61-1.3,2.91-2.91,2.91c-1.61,0-2.91-1.3-2.91-2.91c0-1.61,1.3-2.91,2.91-2.91
		C119.17,81.83,120.47,83.13,120.47,84.74L120.47,84.74z M120.47,84.74"/>
	<path class="st0" d="M132.1,80.47c0,1.61-1.3,2.91-2.91,2.91c-1.61,0-2.91-1.3-2.91-2.91c0-1.61,1.3-2.91,2.91-2.91
		C130.8,77.57,132.1,78.87,132.1,80.47L132.1,80.47z M132.1,80.47"/>
	<path class="st0" d="M71.99,76.98c0,1.61-1.3,2.91-2.91,2.91c-1.61,0-2.91-1.3-2.91-2.91c0-1.61,1.3-2.91,2.91-2.91
		C70.68,74.08,71.99,75.38,71.99,76.98L71.99,76.98z M71.99,76.98"/>
	<path class="st0" d="M81.29,62.25c0,1.61-1.3,2.91-2.91,2.91c-1.61,0-2.91-1.3-2.91-2.91c0-1.61,1.3-2.91,2.91-2.91
		C79.99,59.34,81.29,60.64,81.29,62.25L81.29,62.25z M81.29,62.25"/>
	<path class="st0" d="M83.62,84.74c0,1.61-1.3,2.91-2.91,2.91c-1.61,0-2.91-1.3-2.91-2.91c0-1.61,1.3-2.91,2.91-2.91
		C82.32,81.83,83.62,83.13,83.62,84.74L83.62,84.74z M83.62,84.74"/>
	<path class="st0" d="M87.5,73.11c0,1.61-1.3,2.91-2.91,2.91c-1.61,0-2.91-1.3-2.91-2.91c0-1.61,1.3-2.91,2.91-2.91
		C86.2,70.2,87.5,71.5,87.5,73.11L87.5,73.11z M87.5,73.11"/>
	<path class="st0" d="M95.26,84.74c0,1.61-1.3,2.91-2.91,2.91c-1.61,0-2.91-1.3-2.91-2.91c0-1.61,1.3-2.91,2.91-2.91
		C93.95,81.83,95.26,83.13,95.26,84.74L95.26,84.74z M95.26,84.74"/>
</g>
</svg>
