<?xml version="1.0" encoding="utf-8"?>
<!-- Generator: Adobe Illustrator 23.0.1, SVG Export Plug-In . SVG Version: 6.00 Build 0)  -->
<svg version="1.1" id="Calque_1" xmlns="http://www.w3.org/2000/svg" xmlns:xlink="http://www.w3.org/1999/xlink" x="0px" y="0px"
	 viewBox="0 0 200 200" style="enable-background:new 0 0 200 200;" xml:space="preserve">
<style type="text/css">
	.st0{fill:#00AAAE;}
	.st1{fill:none;stroke:#FFFFFF;stroke-miterlimit:10;}
	.st2{fill:none;stroke:#FFFFFF;stroke-width:0.6923;stroke-miterlimit:10;}
</style>
<g>
	<path class="st0" d="M106.63,28.02c-3.35-5.54-9.46-8.99-15.96-8.99c-3.38,0-6.69,0.93-9.59,2.68c-8.79,5.3-11.62,16.76-6.32,25.54
		c1.51,2.51,4.27,4.07,7.2,4.07c1.53,0,3.03-0.42,4.34-1.21c3.97-2.4,5.25-7.57,2.85-11.54c-0.51-0.85-0.24-1.96,0.61-2.46
		c0.28-0.17,0.59-0.26,0.92-0.26c0.64,0,1.21,0.32,1.54,0.86c1.51,2.51,4.27,4.06,7.2,4.06c1.53,0,3.03-0.42,4.34-1.21
		C107.74,37.16,109.02,31.98,106.63,28.02L106.63,28.02z M100.56,34.24c-0.35,0.21-0.73,0.32-1.13,0.32c-0.78,0-1.48-0.4-1.88-1.06
		c-1.44-2.39-4.07-3.87-6.87-3.87c-1.45,0-2.88,0.4-4.13,1.16c-3.78,2.28-5,7.22-2.72,11c0.63,1.04,0.29,2.38-0.74,3.01
		c-0.35,0.21-0.72,0.31-1.13,0.31c-0.78,0-1.48-0.4-1.88-1.06c-3.53-5.85-1.64-13.48,4.21-17.01c1.93-1.17,4.13-1.78,6.37-1.78
		c4.33,0,8.41,2.29,10.63,5.98C101.92,32.27,101.59,33.61,100.56,34.24L100.56,34.24z M100.56,34.24"/>
	<g>
		<path class="st0" d="M149.26,12.25c-1.41-1.74-3.42-2.83-5.66-3.06c-0.29-0.03-0.58-0.05-0.88-0.05c-4.31,0-7.9,3.24-8.35,7.53
			c-0.09,0.9-0.87,1.61-1.78,1.61c-0.06,0-0.13,0-0.19-0.01c-0.48-0.05-0.9-0.28-1.2-0.65c-0.31-0.38-0.44-0.84-0.4-1.32
			c0.23-2.23-0.41-4.42-1.83-6.17c-1.41-1.74-3.42-2.83-5.65-3.06c-0.29-0.03-0.59-0.05-0.88-0.05c-4.31,0-7.91,3.24-8.36,7.53
			c-0.51,4.94,0.93,9.78,4.06,13.65c3.13,3.86,7.58,6.27,12.51,6.79c0.64,0.07,1.3,0.1,1.94,0.1c9.55,0,17.51-7.16,18.49-16.67
			C151.33,16.19,150.68,14,149.26,12.25L149.26,12.25z M144.91,17.78c-0.66,6.33-5.95,11.1-12.31,11.1c-0.43,0-0.86-0.02-1.3-0.07
			c-3.28-0.34-6.24-1.95-8.33-4.52c-2.09-2.57-3.05-5.8-2.7-9.08c0.12-1.12,1.05-1.96,2.17-1.96c0.08,0,0.16,0,0.23,0.01
			c0.58,0.06,1.1,0.35,1.47,0.8c0.37,0.45,0.53,1.02,0.48,1.61c-0.22,2.12,0.4,4.21,1.75,5.87c1.35,1.66,3.26,2.7,5.38,2.92
			c0.28,0.03,0.56,0.04,0.84,0.04c4.12,0,7.54-3.08,7.97-7.18c0.13-1.2,1.19-2.08,2.41-1.95c0.58,0.06,1.1,0.34,1.47,0.8
			C144.8,16.62,144.97,17.19,144.91,17.78L144.91,17.78z M144.91,17.78"/>
		<path class="st0" d="M65.59,19.89c-1.99-8.44-9.44-14.33-18.11-14.33c-1.43,0-2.87,0.17-4.27,0.5c-2.19,0.52-4.04,1.85-5.22,3.76
			c-1.18,1.91-1.54,4.17-1.03,6.35c0.9,3.81,4.26,6.48,8.18,6.48c0.65,0,1.3-0.08,1.94-0.22c0.95-0.23,1.94,0.39,2.16,1.33
			c0.11,0.46,0.03,0.95-0.22,1.35c-0.26,0.41-0.65,0.7-1.11,0.8c-2.19,0.52-4.04,1.85-5.22,3.76c-1.18,1.91-1.55,4.17-1.03,6.35
			c0.9,3.82,4.26,6.48,8.17,6.48c0.65,0,1.3-0.08,1.94-0.22c4.83-1.14,8.93-4.1,11.55-8.33C65.92,29.72,66.73,24.72,65.59,19.89
			L65.59,19.89z M58.01,30.68c-1.75,2.82-4.47,4.79-7.69,5.55c-0.17,0.04-0.34,0.06-0.51,0.06c-1.02,0-1.89-0.7-2.12-1.69
			c-0.13-0.57-0.04-1.16,0.27-1.66c0.31-0.49,0.79-0.84,1.35-0.98c2.08-0.49,3.85-1.77,4.97-3.59c1.13-1.82,1.48-3.97,0.99-6.05
			c-0.86-3.63-4.07-6.17-7.8-6.17c-0.62,0-1.24,0.07-1.84,0.22c-0.17,0.04-0.34,0.06-0.51,0.06c-1.02,0-1.89-0.69-2.12-1.69
			c-0.14-0.57-0.04-1.16,0.26-1.66c0.31-0.5,0.79-0.85,1.36-0.98c0.94-0.22,1.9-0.34,2.85-0.34c5.77,0,10.73,3.93,12.06,9.55
			C60.29,24.53,59.75,27.86,58.01,30.68L58.01,30.68z M58.01,30.68"/>
		<path class="st0" d="M163.27,173.19c0-0.1-0.01-0.2-0.02-0.3c0-0.03-0.01-0.05-0.01-0.08c-0.01-0.09-0.03-0.18-0.05-0.26
			c0,0,0-0.02,0-0.02c-0.03-0.12-2.68-11.74-2.68-29v-37.85c0-17.22,2.56-28.95,2.59-29.06v-0.02c0.02-0.09,0.04-0.2,0.05-0.3
			c0-0.01,0.01-0.02,0.01-0.04c0.01-0.11,0.02-0.22,0.02-0.33v-18.1c0-1.71-1.39-3.11-3.11-3.11h-8.69
			c0.19-7.01-3.62-13.68-9.87-16.99c-1.21-0.64-2.56-0.98-3.93-0.98c-3.13,0-5.97,1.71-7.44,4.48c-2.17,4.1-0.59,9.19,3.5,11.36
			c0.76,0.4,1.1,1.31,0.84,2.13H57.1c-1.71,0-3.11,1.39-3.11,3.11v18.12c0,0,0,0.04,0,0.06c0,0.09,0.01,0.18,0.02,0.27
			c0,0.03,0.01,0.06,0.01,0.09c0.01,0.08,0.03,0.16,0.04,0.24c0,0.01,0,0.03,0,0.04c0.03,0.12,2.78,11.83,2.78,29.02v37.85
			c0,17.21-2.65,28.89-2.68,29c0,0.01,0,0.02,0,0.03c-0.02,0.08-0.03,0.16-0.04,0.24c0,0.03-0.01,0.06-0.01,0.09
			c-0.01,0.09-0.01,0.18-0.01,0.28c0,0.02,0,0.04,0,0.06v18.11c0,1.71,1.39,3.11,3.11,3.11h102.96c1.72,0,3.11-1.39,3.11-3.11
			v-18.11h0L163.27,173.19z M145.26,60.94h11.69v11.88h-11.69V60.94z M60.9,79.04h95.43c-0.81,4.94-2.03,14.39-2.03,26.63v37.85
			c0,12.22,1.26,21.65,2.1,26.59H60.97c0.84-4.94,2.1-14.37,2.1-26.59v-37.85C63.07,93.45,61.77,84,60.9,79.04L60.9,79.04z
			 M135.63,44.14c0.38-0.72,1.13-1.17,1.94-1.17c0.35,0,0.7,0.09,1.02,0.25c3.7,1.96,6.12,5.7,6.51,9.79h-4.41
			c-0.36-2.45-1.84-4.7-4.16-5.92C135.48,46.53,135.07,45.2,135.63,44.14L135.63,44.14z M128.15,60.94h10.89v11.88h-10.89V60.94z
			 M111.46,60.94h10.47v11.88h-10.47V60.94z M94.35,60.94h10.89v11.88H94.35V60.94z M77.24,60.94h10.89v11.88H77.24V60.94z
			 M60.22,60.94h10.8v11.88h-10.8V60.94z M71.12,188.22h-10.8v-11.89h10.8V188.22z M88.23,188.22H77.34v-11.89h10.89V188.22z
			 M105.34,188.22H94.45v-11.89h10.89V188.22z M122.03,188.22h-10.47v-11.89h10.47V188.22z M139.14,188.22h-10.89v-11.89h10.89
			V188.22z M157.05,188.22h-11.69v-11.89h11.69V188.22z M157.05,188.22"/>
	</g>
	<path class="st0" d="M140.28,105.6h-6.89c-1.72,0-3.11,1.39-3.11,3.11c0,1.72,1.39,3.11,3.11,3.11h3.78v24.96H80.57v-24.96h36.03
		c1.71,0,3.11-1.39,3.11-3.11c0-1.71-1.39-3.11-3.11-3.11H77.46c-1.71,0-3.11,1.39-3.11,3.11v31.18c0,1.72,1.39,3.11,3.11,3.11
		h62.82c1.71,0,3.11-1.39,3.11-3.11V108.7C143.38,106.99,141.99,105.6,140.28,105.6L140.28,105.6z M140.28,105.6"/>
</g>
</svg>
