<?xml version="1.0" encoding="utf-8"?>
<!-- Generator: Adobe Illustrator 26.1.0, SVG Export Plug-In . SVG Version: 6.00 Build 0)  -->
<svg version="1.1" id="Calque_1" xmlns="http://www.w3.org/2000/svg" xmlns:xlink="http://www.w3.org/1999/xlink" x="0px" y="0px"
	 viewBox="0 0 32 32" style="enable-background:new 0 0 32 32;" xml:space="preserve">
<style type="text/css">
	.st0{fill:#FFFFFF;}
	.st1{fill:#231F20;}
	.st2{fill:#00AAAE;}
	.st3{fill:#2F529F;}
</style>
<g>
	<path class="st1" d="M10.48,25.31c-0.73,0.52-1.75,0.34-2.29-0.41L0.51,14.03c-0.53-0.75-0.36-1.78,0.37-2.29
		c0.75-0.53,1.78-0.36,2.31,0.39l6.86,9.7l6.03-4.27c0.69-0.49,1.66-0.34,2.15,0.35c0.5,0.71,0.32,1.68-0.37,2.16L10.48,25.31z"/>
	<path class="st1" d="M18.91,19.12c-0.05-0.07-0.11-0.15-0.18-0.2c-0.02,0.53-0.25,1.02-0.73,1.35l-7.42,5.23
		c-0.3,0.21-0.64,0.32-1,0.32c0.24,0.02,0.48-0.01,0.72-0.08l0.02-0.02c0.14-0.03,0.26-0.09,0.39-0.18
		c0.11-0.08,0.25-0.15,0.36-0.22c0.06-0.05,0.66-0.43,0.73-0.48c-0.05,0.07-0.55,0.45-0.64,0.52l-0.07,0.04
		c-0.04,0.03-0.33,0.26-0.35,0.28c-0.09,0.06-0.15,0.11-0.21,0.15c-0.07,0.05-0.12,0.05-0.19,0.1c-0.1,0.04-0.18,0.06-0.28,0.1
		c-0.04-0.01-0.08,0.02-0.14,0.03c-0.04-0.01-0.06,0.01-0.1,0c0.26,0.01,0.52-0.04,0.74-0.14c0.02-0.01,0.04,0.01,0.06-0.01
		c0.12-0.05,0.25-0.11,0.38-0.2c0.12-0.05,0.25-0.14,0.38-0.23c0.13-0.09,0.62-0.41,0.76-0.47c-0.13,0.09-0.57,0.43-0.68,0.54
		c-0.02,0.02-0.07,0.05-0.09,0.06c-0.06,0.04-0.32,0.23-0.37,0.29c-0.08,0.06-0.15,0.11-0.23,0.17c-0.08,0.03-0.12,0.06-0.19,0.1
		c-0.1,0.04-0.18,0.06-0.28,0.1c-0.02,0.01-0.08,0.02-0.12,0.02c-0.04,0.03-0.08,0.03-0.1,0.04c0.25-0.01,0.53-0.08,0.77-0.19
		c0.02-0.02,0.02-0.02,0.04-0.03c0.14-0.07,0.27-0.12,0.4-0.22c0.14-0.07,0.25-0.14,0.38-0.24c0.21-0.11,0.6-0.39,0.81-0.5
		c-0.18,0.16-0.53,0.44-0.73,0.57c-0.02,0.02-0.07,0.05-0.09,0.06c-0.09,0.1-0.31,0.25-0.41,0.33c-0.09,0.06-0.15,0.1-0.24,0.17
		c-0.07,0.04-0.13,0.09-0.2,0.13c-0.1,0.04-0.18,0.07-0.26,0.09c-0.02,0.02-0.04,0.03-0.08,0.02c0.25-0.01,0.47-0.11,0.67-0.25
		l7.42-5.22C19.21,20.61,19.35,19.74,18.91,19.12 M18.16,18.06c-0.43-0.61-1.31-0.76-1.94-0.32l-6.19,4.36l-6.21-8.82l-0.74-1.06
		C2.61,11.56,1.67,11.41,1,11.88c-0.67,0.47-0.83,1.39-0.36,2.06L1.38,15l6.94,9.86c0.47,0.67,1.41,0.85,2.07,0.38l7.42-5.22
		C18.47,19.55,18.6,18.69,18.16,18.06 M18.71,18.48c0.17,0.11,0.35,0.27,0.47,0.44c0.54,0.78,0.34,1.86-0.44,2.41l-7.42,5.22
		c-0.37,0.26-0.82,0.35-1.23,0.32c-0.13,0-0.24-0.02-0.37-0.06c-0.09-0.04-0.16-0.05-0.24-0.12c-0.04-0.01-0.09-0.03-0.14-0.06
		c-0.18-0.13-0.4-0.3-0.55-0.51l-0.74-1.06L1.1,15.19l-0.75-1.06c-0.58-0.82-0.38-1.96,0.44-2.54c0.82-0.58,1.96-0.38,2.54,0.44
		l0.74,1.06l6.03,8.56l5.93-4.18c0.77-0.55,1.87-0.38,2.4,0.38C18.58,18.06,18.66,18.26,18.71,18.48"/>
	<path class="st1" d="M25.03,16.96c-0.38-0.2-0.51-0.65-0.36-1.06c0.17-0.4,2.28-6.25,2.28-6.25l1.75-3.42
		c0.41-0.79,1.41-1.11,2.2-0.71c0.77,0.39,1.09,1.4,0.68,2.19l-1.76,3.42c0,0-3.54,5.12-3.75,5.49
		C25.82,16.99,25.41,17.16,25.03,16.96"/>
	<path class="st1" d="M19.64,23.86c0-0.89,0.72-1.59,1.61-1.59c0.87,0,1.59,0.7,1.59,1.59c0,0.87-0.72,1.59-1.59,1.59
		C20.36,25.45,19.64,24.73,19.64,23.86"/>
	<path class="st1" d="M25.69,17.19c-0.25,0.1-0.53,0.09-0.77-0.04c-0.18-0.09-0.31-0.22-0.37-0.35c0.01,0.1,0.06,0.2,0.15,0.27
		c0.09,0.08,0.18,0.16,0.27,0.23c0.13,0.07,0.24,0.09,0.35,0.08c-0.09,0.05-0.25,0.04-0.36,0.01c-0.14-0.04-0.27-0.11-0.36-0.18
		c-0.08-0.04-0.14-0.1-0.21-0.17c0,0-0.01,0.03,0.01,0.04c0.01,0.1,0.06,0.19,0.15,0.27c0.05,0.09,0.14,0.17,0.23,0.25
		c0.11,0.05,0.21,0.11,0.33,0.11c-0.12,0.04-0.26,0-0.37-0.03c-0.12-0.03-0.25-0.09-0.36-0.19c-0.05-0.03-0.09-0.08-0.13-0.13
		c0.01,0.1,0.06,0.19,0.11,0.28c0.06,0.07,0.14,0.17,0.22,0.21c0.09,0.08,0.19,0.13,0.29,0.19c-0.09-0.01-0.22-0.01-0.35-0.08
		c-0.11-0.03-0.22-0.08-0.34-0.17c-0.01-0.04-0.07-0.06-0.07-0.1c0.04,0.18,0.12,0.33,0.31,0.42c0.28,0.15,0.61,0.02,0.82-0.26
		C25.25,17.85,25.31,17.75,25.69,17.19 M27.12,9.73c-2.11,5.81-2.28,6.27-2.3,6.3c-0.13,0.32-0.03,0.63,0.28,0.79
		c0.28,0.15,0.59,0.05,0.8-0.24c0.01-0.03,0.26-0.45,3.79-5.53l1.12-2.19l0.65-1.26c0.37-0.72,0.07-1.59-0.63-1.95
		c-0.72-0.37-1.58-0.1-1.95,0.63l-0.65,1.26L27.12,9.73z M26.12,10.85l0.01-0.03l0.64-1.26l1.13-2.19l0.65-1.26
		c0.46-0.9,1.55-1.25,2.45-0.79c0.88,0.45,1.22,1.54,0.76,2.44L31.13,9l-0.01,0.03l-1.79,3.47c-3.49,5.03-3.77,5.51-3.79,5.53
		c-0.3,0.46-0.83,0.61-1.27,0.38c-0.46-0.24-0.63-0.74-0.45-1.27C23.84,17.12,23.71,16.5,26.12,10.85"/>
	<path class="st1" d="M21.25,25.34c-0.82,0-1.46-0.64-1.46-1.44c0-0.79,0.64-1.44,1.46-1.44c0.79,0,1.44,0.65,1.44,1.44
		C22.69,24.69,22.04,25.34,21.25,25.34 M21.25,26.55c-0.37,0-0.72-0.12-0.97-0.37c0.1,0.08,0.25,0.12,0.37,0.15
		c0.15,0.05,0.32,0.05,0.47,0.02c-0.15,0-0.3-0.05-0.45-0.12c-0.12-0.05-0.25-0.15-0.37-0.22c-0.05-0.08-0.12-0.15-0.17-0.2
		c0.03,0.02,0.07,0.05,0.13,0.07c0.12,0.07,0.27,0.13,0.42,0.15c0.15,0.05,0.3,0.05,0.45,0.03c-0.15,0-0.3-0.05-0.42-0.1
		c-0.12-0.07-0.25-0.15-0.35-0.22c-0.1-0.07-0.17-0.15-0.22-0.22c0.05,0.03,0.1,0.05,0.15,0.08c0.15,0.08,0.27,0.12,0.42,0.15
		c0.15,0.03,0.3,0.05,0.42,0.03c-0.13,0-0.27-0.05-0.4-0.1c-0.12-0.05-0.25-0.12-0.35-0.2c-0.05-0.05-0.1-0.1-0.15-0.15
		c0.27,0.23,0.62,0.32,1.02,0.32c0.57,0,1.09-0.27,1.41-0.72c0.02,0.05,0.02,0.12,0.02,0.2C22.69,25.91,22.04,26.55,21.25,26.55
		 M22.99,23.9c0-0.97-0.77-1.74-1.74-1.74c-0.97,0-1.76,0.77-1.76,1.74c0,0.22,0.05,0.42,0.1,0.62c-0.05,0.17-0.1,0.37-0.1,0.59
		c0,0.17,0.03,0.32,0.08,0.47h-0.03c0.03,0.05,0.05,0.1,0.07,0.15c0.25,0.67,0.9,1.14,1.64,1.14c0.97,0,1.74-0.79,1.74-1.76
		c0-0.22-0.02-0.42-0.1-0.59C22.97,24.32,22.99,24.12,22.99,23.9"/>
</g>
</svg>
