<?xml version="1.0" encoding="UTF-8"?>
<svg id="Calque_1" data-name="Calque 1" xmlns="http://www.w3.org/2000/svg" viewBox="0 0 655 220.67">
  <defs>
    <style>
      .cls-1 {
        fill: #0db1af;
      }

      .cls-2 {
        fill: #215ca8;
      }
    </style>
  </defs>
  <g>
    <path class="cls-1" d="M84.5,26.6c-.25,1.11-.77,2.15-1.47,3.16.18,1.32.12,2.52-.12,3.63-.55,2.4-1.97,4.27-4.18,5.59-2.21,1.32-4.52,1.72-6.91,1.14l-22.86-5.38-12.9,54.81-1.6,6.79c-.65,2.67-2.09,4.73-4.36,6.15s-4.76,1.81-7.44,1.17-4.7-2.09-6.08-4.36c-1.35-2.27-1.72-4.73-1.11-7.4l1.6-6.79,12.9-54.81-22.98-5.41c-2.4-.55-4.27-1.94-5.62-4.09C.06,18.64-.3,16.37.25,13.97c.25-1.01.61-2,1.14-2.95.12-.06.18-.12.18-.18s.06-.09.18-.18c-.25-1.04-.22-2.18.09-3.47.61-2.58,1.97-4.52,4.09-5.84C8.02.05,10.33-.31,12.82.27l64.8,15.24c2.4.55,4.3,1.94,5.68,4.12s1.78,4.52,1.2,7.01v-.03ZM79.49,30.63c1.72-1.11,2.8-2.64,3.26-4.55.49-2.03.18-3.93-.86-5.68s-2.58-2.89-4.61-3.35L12.48,1.77c-2.03-.46-3.9-.18-5.62.86-1.72,1.08-2.83,2.64-3.32,4.76-.46,1.94-.15,3.78.89,5.53,1.04,1.75,2.58,2.86,4.61,3.35l24.64,5.81-1.6,6.79-13.3,56.6c-.49,2.12-.18,4.15.98,6.02s2.8,3.07,4.95,3.56c2.12.49,4.12.15,5.99-1.01s3.07-2.8,3.56-4.95l13.3-56.6,1.6-6.79,24.64,5.81c2.03.46,3.9.15,5.62-.95l.06.06ZM31.62,23.53l-22.98-5.41c-.92-.22-1.78-.55-2.52-1.04.55.52,1.11.89,1.63,1.11.43.31.95.52,1.57.74.65.22,1.2.37,1.66.46.46.12,1.14.28,2,.55.86.25,1.54.43,2,.55-.49,0-1.17-.09-2.06-.28-.89-.15-1.57-.25-2.06-.28l-1.97-.31-2.06-.61c-.18-.03-.31-.12-.37-.25.12.25.43.52.83.8.43.28.77.49,1.01.68s.71.4,1.38.58,1.17.34,1.44.4c.37.09,1.11.31,2.18.65s1.78.55,2.03.61c-.28-.06-.98-.18-2.12-.34-1.14-.18-1.87-.31-2.24-.4-.18-.03-.55-.09-1.04-.18-.52-.06-.86-.12-1.04-.18l-2.21-.52s.18.06.28.12.18.12.25.12c.15.22.4.4.74.55s.61.28.77.4c.18.03.65.18,1.35.4.74.22,1.17.4,1.35.52.18.03.92.28,2.18.68s2,.61,2.18.68c-.18-.03-.92-.18-2.24-.4s-2.06-.34-2.24-.37c-.18-.03-.61-.12-1.26-.22s-1.01-.18-1.14-.18c-.49,0-1.23-.15-2.24-.37-.43-.22-.86-.4-1.26-.58s-.8-.43-1.23-.74c.06.12.15.18.25.22.8.77,1.78,1.29,2.98,1.57l22.98,5.41,1.2-5.13h.06ZM33.03,94.57c-2.4,2.27-5.28,2.98-8.7,2.18-2.12-.49-3.81-1.47-5.01-2.92.12.31.43.74.89,1.23.52.61,1.11,1.14,1.69,1.57.74.55,1.41.95,2.06,1.2-.37-.09-.74-.18-1.11-.25-.37-.09-.77-.28-1.17-.58-.43-.22-.83-.4-1.11-.55-.31-.15-.68-.4-1.08-.68-.15-.12-.28-.25-.34-.37s-.18-.25-.34-.37c.15.52.49,1.04.95,1.54.22.25.49.52.74.83.28.31.55.58.89.86.74.55,1.47.98,2.18,1.23-.46-.09-.89-.22-1.26-.28s-.77-.28-1.17-.58c-.89-.4-1.6-.86-2.15-1.38-.34-.28-.52-.46-.58-.58.25.65.46,1.08.71,1.32.31.37.58.71.86,1.01s.55.58.89.86c.43.31.8.52,1.14.71s.74.37,1.17.55c-.49,0-.92-.09-1.32-.25-.4-.15-.83-.31-1.26-.52-.86-.49-1.54-.98-2-1.47,1.11,1.54,2.61,2.52,4.55,2.98,2.12.49,4.12.15,5.99-.98,1.87-1.17,3.07-2.8,3.56-4.95l.34-1.38-.03.03ZM77.83,37.6c1.72-1.04,2.8-2.61,3.29-4.64.15-.65.22-1.11.18-1.41-1.08.83-2.27,1.41-3.63,1.78s-2.77.37-4.24,0l-22.55-5.32-.28-.06,11.71,3.63-11.86-1.78,12.84,3.75-12.94-2.18,13.92,4.15-13.86-2.52,3.38,1.08,18.4,4.33c2.03.49,3.9.18,5.62-.86v.06Z"/>
    <path class="cls-1" d="M127.88,153.59c-.15.61-.34,1.17-.58,1.69-1.01,2.37-2.67,4.03-5.01,4.98-2.34.95-4.61.95-6.88,0-1.66-.71-2.95-1.81-3.93-3.32-.95-1.51-1.47-3.13-1.54-4.92l-.12-5.47c-.18-.8-.25-1.57-.25-2.27l-.25-9.56-33.98-14.59-.25.22-12.47,11.37c-1.32,1.2-2.86,1.94-4.61,2.27s-3.44.15-5.1-.55c-2.27-.98-3.87-2.64-4.82-5.01-.95-2.37-.98-4.7-.09-7.01-1.38-2.55-1.47-5.22-.28-8.02.52-1.23,1.26-2.24,2.24-3.07l60.5-54.81c1.35-1.2,2.89-1.94,4.61-2.27,1.75-.34,3.41-.18,4.98.49,1.75.74,3.13,1.84,4.15,3.32,1.01,1.47,1.57,3.1,1.63,4.89l.15,5.78c.22.92.34,1.63.31,2.15l1.78,81.7c0,.74-.09,1.38-.22,2l.03.03ZM111.32,144.22c0,3.1,1.51,5.28,4.46,6.54,1.81.8,3.69.8,5.53.06s3.23-2.09,4.03-3.99c.49-1.14.68-2.18.58-3.16l-1.84-81.58c-.09-1.47-.55-2.8-1.38-3.99-.83-1.17-1.94-2.09-3.35-2.67-1.23-.52-2.52-.68-3.9-.43-1.38.22-2.64.83-3.78,1.78l-60.59,54.94c-.8.68-1.41,1.47-1.78,2.34-.83,1.9-.86,3.84-.09,5.78.77,1.94,2.12,3.32,4.03,4.12,1.29.55,2.64.74,4.03.49,1.38-.25,2.61-.86,3.66-1.84l13.67-12.38,36.35,15.61.31,18.4h.09ZM53.68,131.71c1.32.55,2.67.74,4.12.52,1.44-.22,2.67-.83,3.72-1.81l10.45-9.59-8.02,6.45,9.06-9.25-8.63,6.82,8.6-8.85-8.17,6.39,7.99-8.17-10.51,9.71c-1.32,1.2-2.86,1.9-4.58,2.21-1.72.28-3.41.09-5.07-.61l-.65-.28.12.06.06.18.28.12c.18.06.28.15.37.22.06.09.18.15.37.25l.65.28.65.28c.46.09.86.18,1.2.28.34.09.71.18,1.2.28.12-.06.22-.06.31,0,1.04-.06,2.03-.28,2.89-.61-.25.09-.49.25-.71.4s-.46.31-.71.4c-.25.09-.52.15-.8.22s-.58.09-.92.15l-.12-.06c-.89.15-1.87.06-3.01-.22-.12.06-.31,0-.58-.09-.22,0-.52-.06-.98-.25l-.4-.15-.12-.06s0,.15.09.18l.25.12c.46.4.77.65.92.71l.52.22.77.34c.8.34,1.63.55,2.52.61.18.09.31.09.46.03.49,0,1.01,0,1.51-.06.49-.03.95-.25,1.41-.55-.58.37-1.04.65-1.41.8-.37.15-.89.28-1.57.4-.09-.03-.18,0-.31,0-.52,0-1.01,0-1.54-.03-.52,0-1.01-.06-1.47-.18-.25-.09-.46-.12-.58-.09l-.92-.4s-.15-.03-.15,0-.06.03-.15,0l-.12-.06-.25-.12.12.06c.12.15.28.28.46.37.18.06.34.18.46.37l.52.22c.12.15.43.34.86.52.86.37,1.75.58,2.64.68.09.03.15.03.22,0h.22c.52,0,1.04,0,1.6-.09.55-.06,1.04-.28,1.51-.58-.4.46-.86.71-1.41.8-.37.15-.89.28-1.57.4l-.18.09c-.98.09-2.03,0-3.13-.28-.12.06-.31,0-.58-.09-.18-.06-.37-.12-.55-.15-.18,0-.37-.09-.55-.15l-.12-.06c.31.25.83.49,1.51.8ZM109.36,132.88l-.15-5.81-32.29-13.86-1.17-.49,15.73,7.68-15.49-5.72,16.78,8.14-16.53-6.18,17.7,8.51-17.45-6.58.86.52,32.02,13.73v.03ZM110.03,77.61l.71,33.74-25.35-10.88,24.67-22.86h-.03ZM92.86,101.79l13.67-12.72.25-.22-9.06,7.1,9.16-9.06-8.66,6.82,8.6-8.85-8.17,6.39,6.67-6.88-16.75,15.58s4.3,1.84,4.3,1.84ZM108.93,108.7l-.34-19.02-14.04,12.87,14.38,6.18v-.03ZM116.15,158.54c1.81.77,3.69.8,5.53.06,1.87-.74,3.2-2.09,4.03-3.99.4-.95.65-2,.71-3.1l-.12-2.98c-1.17,1.97-2.8,3.35-4.92,4.09s-4.24.68-6.33-.25l-.65-.28.12.06.06.18.25.12c.18.06.31.15.43.25.12.09.25.18.43.28l.52.22.65.28c.46.09.89.22,1.26.31s.74.18,1.14.25c.12-.03.28-.03.46.03,1.14,0,2.06-.25,2.77-.68-.58.37-1.04.65-1.41.77-.25.09-.52.15-.8.22s-.52.09-.77.22l-.12-.06c-.98.09-2.03,0-3.13-.28-.12.06-.31,0-.58-.09-.22,0-.52-.06-.98-.28l-.4-.15-.12-.06.06.18.25.12c.46.4.77.65.92.71l.52.22.8.34c.8.34,1.63.55,2.52.61.18.06.34.09.46.03.52,0,1.01,0,1.51-.06s.95-.25,1.38-.55c-.55.37-1.04.65-1.41.77-.37.15-.89.28-1.57.43-.09-.03-.15,0-.18.06-.52,0-1.04-.03-1.6-.06-.55,0-1.08-.09-1.54-.18-.28-.12-.46-.15-.58-.09l-.92-.4s-.15-.03-.22,0h-.22l-.12-.06c.12.15.31.28.46.37s.34.18.46.37l.52.22c.22.22.52.37.86.52.86.37,1.75.58,2.64.68.09.03.15.03.22,0h.22c1.32.06,2.4-.15,3.23-.65-.61.46-1.14.71-1.57.74-.37.15-.89.28-1.57.4-.03.09-.09.12-.18.06-.89.12-1.94.03-3.13-.28-.12.03-.31,0-.58-.09-.18-.06-.34-.12-.49-.12s-.31-.06-.49-.12l-.28-.12c.31.25.83.49,1.51.8l.12.06Z"/>
  </g>
  <g>
    <path class="cls-2" d="M282.68,90.57c-.15.65-.31,1.23-.49,1.78-.18.55-.37,1.08-.58,1.6-.03.58-.09,1.14-.18,1.72-.09.55-.22,1.17-.37,1.81-.77,3.32-2.12,6.48-4.06,9.49s-4.46,5.5-7.62,7.5c-3.13,2-6.97,3.32-11.52,3.93-4.55.65-9.8.25-15.79-1.17l-22.55-5.32-4.12,17.58-1.6,6.79c-.61,2.58-2.06,4.58-4.33,5.99-2.27,1.41-4.76,1.81-7.44,1.17-2.12-.49-3.84-1.54-5.1-3.1-1.29-1.57-2.03-3.35-2.24-5.35-.09-.4-.12-.68-.12-.77v-.12c0-.4.03-.77.06-1.08,0-.34.09-.74.22-1.2l1.6-6.79,14.9-63.42,1.6-6.79c.61-2.67,2.06-4.7,4.27-6.08,2.21-1.38,4.67-1.75,7.34-1.11l32.14,7.56c5.99,1.41,10.88,3.41,14.66,5.99,3.78,2.58,6.61,5.5,8.54,8.73s3.07,6.64,3.44,10.23c.37,3.59.15,7.07-.61,10.39l-.03.03ZM212.44,134.54c-1.2.98-2.55,1.66-4.06,2.03s-3.07.37-4.76,0c-1.84-.43-3.35-1.23-4.55-2.4.06.12.12.18.18.18.03,0,.09.06.18.18.55.61,1.11,1.14,1.69,1.57.74.55,1.44.98,2.06,1.2-.37-.09-.74-.18-1.11-.25-.37-.09-.77-.28-1.17-.58-.43-.18-.8-.4-1.11-.55s-.68-.4-1.08-.68c-.15-.12-.31-.28-.43-.4s-.25-.25-.43-.4l.95,1.54c.34.28.61.55.89.86.28.31.55.61.89.86.74.55,1.47.98,2.18,1.26-.46-.09-.89-.22-1.26-.28s-.77-.22-1.2-.43c-.43-.28-.8-.55-1.14-.77s-.71-.49-1.14-.77c-.06-.12-.15-.22-.22-.28-.09-.06-.15-.15-.22-.28.25.65.46,1.08.71,1.35.58.83,1.17,1.44,1.75,1.87.74.55,1.54.98,2.34,1.29-.49,0-.92-.09-1.32-.25-.4-.15-.83-.31-1.26-.52-1.01-.61-1.75-1.2-2.24-1.69,1.14,1.81,2.77,2.98,4.89,3.47,2.21.52,4.27.22,6.11-.89,1.87-1.11,3.07-2.73,3.56-4.85l.34-1.38-.06-.03ZM268.33,107.28c6.48-3.29,10.66-9,12.57-17.15.74-3.13.92-6.39.61-9.71-.34-3.35-1.44-6.54-3.29-9.62s-4.58-5.84-8.14-8.27c-3.56-2.46-8.17-4.33-13.8-5.65l-32.14-7.56c-2.12-.49-4.09-.18-5.93.95-1.81,1.14-2.98,2.8-3.5,5.01l-1.6,6.79-14.9,63.42c-.49,2.12-.18,4.09.95,5.93,1.14,1.81,2.77,2.98,4.89,3.47,2.21.52,4.27.22,6.11-.89,1.87-1.11,3.07-2.73,3.56-4.85l4.52-19.23,1.6-6.79,24.21,5.68c9.71,2.27,17.76,1.78,24.24-1.54h.03ZM265.23,114.81c6.21-2.64,10.57-7.34,13.06-14.16-2.95,4.3-7.28,7.56-12.97,9.77-5.68,2.21-12.9,2.27-21.66.22l-20.89-4.92-1.41-.18,11.74,3.59-11.8-1.97,12.84,3.84-12.78-2.15,13.8,4.12-13.86-2.52,1.91.58,19.39,4.55c8.94,2.09,16.53,1.84,22.77-.8l-.12.03ZM260.9,73.98c1.41,1.08,2.49,2.27,3.23,3.69.74,1.38,1.2,2.86,1.38,4.42s.09,3.01-.22,4.39c-.34,1.47-.95,2.86-1.78,4.12-.83,1.26-1.87,2.34-3.16,3.2-1.29.86-2.77,1.44-4.49,1.72s-3.69.15-5.9-.37l-26.73-6.3,3.93-16.75,1.6-6.79,26.73,6.3c2.21.52,4.03,1.32,5.44,2.37h-.03ZM257.79,93.3c1.97-.92,3.44-2.18,4.39-3.84-.22-2.03-.98-3.93-2.3-5.72s-3.47-3.04-6.42-3.72l-25.07-5.9-3.2,13.58,25.07,5.9c3.04.71,5.56.61,7.53-.31ZM263.6,86.08c.61-2.58.28-5.13-.95-7.68-1.26-2.52-3.78-4.24-7.56-5.13l-22.86-5.38-1.97-.31,11.71,3.63-11.83-1.9,12.81,3.9-12.78-2.15,13.8,4.12-13.89-2.4.95.22,22.86,5.38c2.67.65,4.79,1.69,6.33,3.16s2.64,3.16,3.26,5.07l.12-.55v.03Z"/>
    <path class="cls-2" d="M337.22,120.99c2.77.06,5.04,1.04,6.91,2.98,1.84,1.94,2.77,4.27,2.7,7.04l-.15,6.97-.74,37.67-.15,7.1c-.12,5.78-1.17,11.03-3.16,15.73-2,4.7-4.76,8.73-8.27,12.08-3.53,3.35-7.74,5.9-12.6,7.65-4.89,1.75-10.26,2.58-16.13,2.46-5.9-.12-11.18-1.11-15.95-2.95s-8.85-4.55-12.29-8.14c-4.46-4.46-7.5-9.96-9.06-16.53-.09-.28-.15-.55-.18-.8-.03-.25-.12-.49-.22-.8l-.4-1.72c-.09-.28-.12-.58-.12-.86s-.03-.55-.12-.86h.15c-.15-1.14-.28-2.27-.37-3.41s-.09-2.27-.06-3.41l.12-7.1.74-37.67.12-6.97c.06-2.73,1.04-5.04,2.98-6.91,1.94-1.87,4.24-2.77,6.88-2.7,2.73.06,5.04,1.04,6.91,2.98,1.84,1.94,2.77,4.27,2.7,7.01l-.12,6.97-.8,39.94c-.12,5.78,1.57,10.39,5.07,13.83,3.5,3.44,8.33,5.22,14.47,5.35,6.18.12,11.06-1.47,14.69-4.76,3.63-3.29,5.5-7.84,5.59-13.61l.8-39.94.12-6.97c.06-2.77,1.01-5.04,2.92-6.91,1.87-1.84,4.21-2.77,6.94-2.7h.06ZM345.15,130.97c.03-2.18-.71-4.09-2.24-5.65s-3.44-2.43-5.72-2.46c-2.18-.03-4.09.71-5.65,2.24-1.6,1.54-2.4,3.38-2.46,5.56l-.15,6.97-.77,39.97c-.12,6.36-2.15,11.31-6.05,14.9-3.9,3.56-9.25,5.28-15.98,5.16-6.73-.12-11.98-2.06-15.76-5.78-3.78-3.72-5.59-8.76-5.47-15.12l.8-39.97.12-6.97c.03-2.18-.74-4.09-2.3-5.65-1.6-1.6-3.47-2.43-5.65-2.46s-4.06.68-5.59,2.15-2.34,3.38-2.4,5.65l-.12,6.97-.74,37.67c-.12,5.68.68,10.82,2.34,15.39,1.66,4.58,4.09,8.51,7.31,11.8,3.2,3.29,7.13,5.87,11.74,7.71,4.61,1.84,9.77,2.83,15.46,2.95,5.68.12,10.88-.68,15.55-2.34,4.67-1.66,8.7-4.09,12.01-7.22,3.35-3.16,5.96-7.01,7.84-11.52,1.91-4.52,2.89-9.62,3.01-15.3l.74-37.67.12-6.97.03-.03ZM305.73,218.97c5.01.09,9.65-.49,13.89-1.78,4.24-1.29,8.02-3.2,11.28-5.68,3.29-2.49,5.96-5.53,8.08-9.16,2.12-3.59,3.59-7.68,4.46-12.23-2.8,7.44-7.47,13.27-14.01,17.51-6.54,4.24-14.41,6.27-23.6,6.08-11.46-.22-20.71-3.72-27.68-10.51.46.49.95.95,1.44,1.38.52.43,1.01.89,1.47,1.38.74.58,1.51,1.14,2.24,1.69.74.52,1.51,1.04,2.24,1.54.74.49,1.54.92,2.34,1.32s1.63.74,2.46,1.04c3.38,1.47,6.91,2.43,10.6,2.77-3.59-.15-7.19-.95-10.75-2.34-3.59-1.2-6.82-2.92-9.71-5.16-1.32-.98-2.58-2.15-3.78-3.5l.15.15c.65.77,1.29,1.51,1.94,2.18s1.35,1.35,2.09,2.03c.74.58,1.51,1.17,2.3,1.75s1.6,1.14,2.46,1.63c1.78,1.08,3.56,1.91,5.35,2.52,3.56,1.38,7.4,2.24,11.46,2.49-4.18-.09-8.05-.77-11.61-2.09-3.69-1.2-7.19-3.07-10.57-5.62-1.38-1.17-2.8-2.49-4.18-3.93.18.18.28.34.28.43,1.38,1.54,2.83,3.04,4.3,4.49,1.78,1.35,3.5,2.52,5.19,3.5,1.6,1.17,3.47,2.06,5.65,2.67,3.96,1.51,8.05,2.27,12.32,2.37-4.27,0-8.42-.65-12.47-1.97-3.78-1.11-7.44-3.07-10.97-5.9,3.16,2.83,6.88,4.98,11.09,6.48,4.24,1.51,8.97,2.3,14.2,2.43l.06.03Z"/>
    <path class="cls-2" d="M437.48,138.04c.06.55.09,1.14.12,1.72v1.72c.15.55.31,1.14.43,1.75s.22,1.2.28,1.75c.46,3.87.06,7.5-1.17,10.88-1.23,3.38-3.13,6.39-5.75,8.97-2.61,2.61-5.9,4.76-9.83,6.45-3.96,1.69-8.39,2.83-13.27,3.41l-31.37,3.66c-1.41.15-2.77.03-4.06-.4s-2.43-1.04-3.38-1.91l-.8-.61c-.43-.52-.74-.92-.86-1.2-.22-.34-.46-.8-.71-1.35-.49-.8-.8-1.87-.95-3.16l-.8-6.91-7.4-63.42-.8-6.91c-.31-2.73.34-5.13,1.97-7.16,1.63-2.06,3.81-3.23,6.54-3.56l30.51-3.56c9.13-1.08,16.53.06,22.15,3.41,5.65,3.35,8.85,8.48,9.68,15.33.09.65.12,1.29.15,1.84v1.72c.15.55.28,1.11.4,1.66s.22,1.17.28,1.81c.68,5.84-.58,11.06-3.75,15.61,3.44,1.78,6.27,4.27,8.45,7.47,2.18,3.16,3.53,6.85,3.99,10.97l-.06.03ZM419.72,162.68c3.72-1.63,6.82-3.66,9.31-6.08s4.3-5.22,5.47-8.36c1.17-3.13,1.54-6.48,1.11-10.05-.61-5.16-2.49-9.43-5.65-12.84-3.16-3.38-7.34-5.53-12.51-6.45l-2.21-.46,1.87-1.23c3.38-2.21,5.84-5.04,7.44-8.54s2.15-7.34,1.66-11.58c-.74-6.3-3.78-11-9.09-14.1-5.32-3.1-12.29-4.15-20.86-3.16l-30.51,3.56c-2.27.28-4.06,1.23-5.38,2.92s-1.87,3.66-1.6,5.9l.8,6.91,7.4,63.33c.25,2.24,1.23,4.06,2.92,5.44,1.69,1.38,3.66,1.94,5.93,1.66l31.37-3.66c4.61-.52,8.79-1.63,12.51-3.23l.03.03ZM420.06,169.97c3.56-1.44,6.54-3.29,9.03-5.47,2.46-2.18,4.36-4.7,5.72-7.53s1.97-5.9,1.84-9.22c-1.57,5.35-4.89,9.77-9.96,13.33-5.07,3.56-11.46,5.78-19.2,6.7l-31.37,3.66c-1.69.18-3.41-.12-5.13-.98.83.61,1.84,1.01,3.01,1.17.09.09.22.12.31.12l2.18.22c.46-.06.86-.09,1.2-.12s.74-.03,1.23,0c.09,0,.37-.03.86-.09.46-.06.98-.09,1.51-.09s1.01-.03,1.51-.09.74-.09.86-.09c-.09,0-.34.03-.77.09s-.89.12-1.41.25-.98.22-1.38.31-.68.15-.77.15h-.43l-2.55.34c-.46.25-.89.31-1.29.15-.55.06-.95.06-1.14,0-.28,0-.55.03-.8,0-.25,0-.52-.06-.8-.12-.4-.15-.65-.25-.74-.25-.12-.09-.18-.15-.25-.15s-.12-.03-.25-.15c1.04.74,2.34,1.17,3.87,1.29h.15c.49,0,.89.03,1.23.06.34,0,.74.03,1.23.06.37-.03.74-.09,1.14-.12.37-.03.77-.03,1.14,0,.46-.06,1.29-.12,2.49-.22s2-.15,2.49-.22c-.46.15-1.23.31-2.3.49-1.08.18-1.84.28-2.34.34l-.55.06c-.18.12-.58.22-1.26.31-.68.06-1.08.12-1.26.15l-1.57.18c-.55.06-.98.06-1.29,0-.18,0-.68,0-1.44-.12-.09-.09-.22-.12-.31-.12s-.25,0-.43-.09c-.09-.09-.25-.12-.43-.09,1.44.71,2.83,1.04,4.15.98.09.09.22.12.31.09.4.06.77.06,1.14,0,.4-.03.83-.03,1.29,0,.37-.03.77-.09,1.14-.12s.8-.03,1.29,0c.65-.09,1.51-.15,2.49-.22,1.01-.06,1.87-.15,2.64-.25-.74.18-1.6.37-2.55.52-.95.15-1.75.34-2.4.49l-.58.06c-.46.06-.98.15-1.47.25-.52.09-.95.18-1.35.22l-1.57.18c-.58.06-1.04.06-1.44,0-.18,0-.68,0-1.44-.12-.09-.09-.22-.12-.31-.09-.09,0-.18,0-.31-.12h-.15c1.32.61,2.73.86,4.24.68l31.37-3.66c4.42-.52,8.42-1.51,11.98-2.98h-.03ZM410.96,102.34c.28,2.46-.28,4.79-1.69,7.01-1.41,2.21-3.9,3.53-7.5,3.96l-24,2.8-1.41-12.14-.8-6.91,24.03-2.8c3.1-.37,5.68.18,7.77,1.66s3.29,3.63,3.63,6.45l-.03-.03ZM379.25,114.07l22.34-2.61c2.15-.25,3.81-.86,4.95-1.84s1.9-2.15,2.3-3.41c-.71-1.17-1.72-2.06-3.04-2.73-1.32-.65-3.07-.86-5.22-.61l-22.31,2.61,1.01,8.6h-.03ZM406.6,97.54c-1.44-1.44-3.75-2-6.85-1.63l-18.37,2.15-3.1.49,16.78-1.11-16.28,2.77,17.88-1.23-17.42,2.89,18.9-1.35-18.25,2.98,1.14-.12,19.36-2.27c3.78-.43,6.73.4,8.88,2.55l-.12-1.14c-.22-1.87-1.08-3.56-2.52-5.01v.03ZM411.27,127.59c1.72.52,3.16,1.29,4.33,2.27,1.17,1.01,2.09,2.18,2.77,3.53.68,1.35,1.11,2.73,1.26,4.15s.06,2.89-.28,4.39c-.37,1.51-.98,2.92-1.94,4.24s-2.18,2.4-3.69,3.29c-1.51.89-3.41,1.47-5.65,1.75l-25.84,3.01-1.97-16.96-.83-7.07,25.84-3.01c2.27-.28,4.24-.15,5.99.37v.03ZM414.77,146.64c1.57-1.57,2.58-3.32,3.04-5.28-.86-1.72-2.21-3.13-3.99-4.24-1.81-1.14-4.3-1.51-7.5-1.14l-24.15,2.83,1.6,13.55,24.15-2.83c3.01-.37,5.32-1.32,6.88-2.89h-.03ZM417.97,137.76c-.12-1.14-.46-2.27-.98-3.47-.52-1.17-1.29-2.18-2.27-3.01s-2.27-1.47-3.81-1.9-3.35-.55-5.41-.31l-21.48,2.52-1.84.22,16.78-1.11-16.28,2.77,17.88-1.23-17.42,2.89,18.9-1.35-18.28,2.98,2.55-.15,19.79-2.3c2.83-.34,5.19-.12,7.16.68,1.94.77,3.53,1.9,4.76,3.38l-.06-.55.03-.03ZM423.5,118.93c2.46-3.53,3.69-7.65,3.72-12.32-1.41,4.36-3.87,7.99-7.47,10.91.61.22,1.23.43,1.87.65s1.26.46,1.87.8v-.03Z"/>
  </g>
  <g>
    <path class="cls-1" d="M534.02,91.89c2.46,1.04,4.18,2.8,5.19,5.25,1.01,2.49.98,4.98-.09,7.53l-2.7,6.42-25.66,60.96-2.7,6.42c-1.08,2.55-2.83,4.33-5.25,5.35-2.43,1.04-4.92,1.01-7.47-.06-2.52-1.08-4.3-2.83-5.32-5.32-1.01-2.49-.98-4.98.09-7.53l2.7-6.42,25.66-60.96,2.7-6.42c1.08-2.52,2.86-4.3,5.32-5.32,2.49-1.01,4.98-.98,7.53.09ZM507.04,176.54c-2.89,1.78-5.87,2-8.94.71-1.84-.77-3.26-1.94-4.24-3.47.18.49.37.83.52.98.43.71.89,1.29,1.38,1.81.28.31.55.61.89.83.31.25.61.46.92.71-.4-.06-.74-.18-1.08-.37-.34-.18-.68-.43-1.11-.71-.68-.37-1.29-.95-1.9-1.72-.28-.34-.52-.58-.74-.77.31.74.55,1.26.74,1.54.4.8.89,1.44,1.47,2,.52.74,1.17,1.26,1.97,1.6-.46-.09-.89-.25-1.2-.43s-.71-.43-1.11-.71c-.4-.28-.74-.55-1.01-.89-.28-.31-.58-.65-.95-1.01-.06-.12-.12-.22-.18-.31-.06-.06-.12-.18-.18-.31.12.68.28,1.14.46,1.44.25.4.46.8.68,1.14s.46.68.74,1.01c.52.74,1.2,1.29,2.09,1.66-1.04-.22-1.84-.61-2.43-1.17-.4-.28-.74-.55-1.01-.89-.28-.31-.61-.65-.95-1.01.89,1.81,2.3,3.13,4.21,3.93,2,.83,4.03.86,6.08,0,2.06-.83,3.5-2.27,4.33-4.27l.55-1.32h0ZM537.55,104.03c.89-2.09.89-4.15.03-6.15s-2.27-3.44-4.3-4.27c-2.03-.86-4.06-.86-6.15-.03s-3.56,2.24-4.39,4.24l-2.7,6.42-25.66,60.96c-.86,2-.83,4.06.06,6.11.89,2.06,2.3,3.53,4.33,4.36,2,.86,4.06.86,6.08,0,2.06-.83,3.5-2.27,4.33-4.27l25.66-60.96,2.7-6.42h0Z"/>
    <path class="cls-1" d="M610.49,195.16c-.18.74-.43,1.35-.71,1.81s-.61.89-.89,1.32c.28,1.23.31,2.46,0,3.66-.31,1.29-.77,2.27-1.35,2.98-.61.68-1.26,1.29-1.97,1.81-5.13,3.96-11.06,6.64-17.82,8.02s-13.46,1.29-20.09-.28c-6.08-1.41-11.61-3.93-16.59-7.47-4.98-3.56-9.06-7.99-12.29-13.33s-5.32-11.03-6.27-17.11-.74-12.17.71-18.25c.15-.65.31-1.23.49-1.78s.34-1.08.46-1.63.25-1.11.34-1.69c.09-.55.22-1.17.34-1.81,1.44-6.08,3.93-11.65,7.5-16.65,3.56-5.01,7.96-9.13,13.21-12.38,5.25-3.35,10.91-5.53,16.96-6.54,6.05-1.01,12.11-.8,18.19.61,6.08,1.44,11.46,3.72,16.07,6.85s8.17,6.85,10.66,11.12c1.57,2.52,2.03,5.01,1.44,7.5-.25,1.11-.74,2.15-1.47,3.16.18,1.32.15,2.52-.12,3.63-.55,2.4-1.94,4.24-4.09,5.53s-4.42,1.66-6.82,1.11c-1.29-.31-2.49-.92-3.59-1.87s-2.18-2.03-3.26-3.26c-1.54-1.72-3.41-3.47-5.62-5.28-2.21-1.78-5.19-3.13-9-4.03-3.5-.83-6.91-.98-10.17-.49-3.29.49-6.3,1.57-9.06,3.2-2.77,1.63-5.22,3.78-7.37,6.45s-3.81,5.75-5.04,9.28c-.49,3.69-.34,7.19.37,10.54.71,3.35,1.97,6.36,3.69,9.13,1.75,2.73,3.96,5.07,6.7,6.97,2.7,1.91,5.84,3.26,9.34,4.09,2.4.55,4.58.8,6.54.74s3.78-.34,5.44-.77c1.66-.43,3.2-1.01,4.58-1.69,1.38-.71,2.67-1.38,3.93-2.06,1.69-.95,3.29-1.75,4.79-2.37,1.51-.61,3.04-.74,4.61-.37,1.2.28,2.3.8,3.35,1.6,1.04.77,1.87,1.72,2.55,2.8.68,1.08,1.14,2.27,1.35,3.53.25,1.29.22,2.52-.06,3.72l.06-.03ZM606.19,198.48c.61-.52,1.14-1.08,1.54-1.6.43-.52.74-1.26.95-2.18.46-1.94.09-3.87-1.11-5.87-1.2-1.97-2.77-3.2-4.7-3.66-1.29-.31-2.58-.15-3.81.43-1.26.58-2.67,1.32-4.24,2.21-1.35.77-2.73,1.51-4.18,2.24-1.44.74-3.04,1.35-4.79,1.81-1.78.46-3.69.71-5.81.77-2.12.03-4.46-.25-7.04-.86-3.96-.92-7.47-2.55-10.48-4.89-3.01-2.3-5.44-5.1-7.31-8.33-1.87-3.23-3.07-6.82-3.59-10.82-.52-3.96-.28-8.08.71-12.35.92-3.99,2.49-7.62,4.61-10.91,2.15-3.32,4.73-6.02,7.74-8.14,3.26-2.27,6.79-3.72,10.6-4.39,3.81-.68,7.71-.52,11.68.4,4.06.95,7.22,2.4,9.49,4.3,2.27,1.94,4.27,3.78,5.99,5.56,1.11,1.14,2.09,2.12,2.95,2.92.89.8,1.87,1.32,2.98,1.6,1.94.46,3.75.18,5.47-.83,1.69-1.01,2.77-2.49,3.23-4.42s.09-3.96-1.04-6.08c-2.46-4.09-5.9-7.62-10.35-10.63-4.46-2.98-9.59-5.19-15.39-6.54-6.08-1.44-12.04-1.63-17.82-.61-5.81,1.01-11.12,3.04-15.95,6.02-4.85,3.01-9,6.91-12.47,11.74-3.47,4.82-5.93,10.26-7.34,16.35-1.44,6.18-1.69,12.2-.74,18.07.95,5.87,2.92,11.25,5.93,16.13,2.98,4.89,6.85,9.06,11.58,12.57,4.73,3.5,10.14,5.96,16.22,7.37,6.36,1.51,12.81,1.57,19.3.25,6.48-1.32,12.23-3.87,17.21-7.65v.03ZM604.6,205.33c.61-.52,1.14-1.08,1.54-1.6s.74-1.26.95-2.18c.18-.74.25-1.29.25-1.69l-.15.09c-5.13,3.96-11.06,6.64-17.82,8.02s-13.46,1.29-20.09-.28c-6.08-1.44-11.61-3.93-16.59-7.47-4.98-3.56-9.03-8.05-12.23-13.49-.18-.12-.31-.31-.46-.55,1.35,2.55,3.04,5.16,5.04,7.77,1.04,1.32,2.12,2.52,3.26,3.63,1.11,1.08,2.37,2.15,3.78,3.16-2.8-1.81-5.28-3.96-7.53-6.45-1.08-1.23-2.09-2.46-3.01-3.69-.92-1.26-1.78-2.55-2.52-3.87l.22.34c.8,1.54,1.66,3.04,2.58,4.52s1.97,2.86,3.1,4.21c1.14,1.32,2.37,2.61,3.63,3.81s2.61,2.34,4.03,3.32c-2.98-1.84-5.65-4.12-8.05-6.79-2.34-2.49-4.39-5.32-6.18-8.54.09.43.22.68.4.83,1.47,3.26,3.5,6.39,6.11,9.43,1.23,1.35,2.52,2.67,3.87,3.96,1.35,1.29,2.8,2.46,4.3,3.47-1.63-.95-3.16-2.03-4.58-3.23s-2.8-2.49-4.12-3.87c-.61-.71-1.17-1.41-1.72-2.06-.52-.65-1.08-1.38-1.66-2.21,2.98,4.7,6.79,8.7,11.43,11.95,4.64,3.29,9.86,5.59,15.67,6.97,6.36,1.51,12.81,1.57,19.3.25,6.48-1.35,12.23-3.93,17.24-7.71l.03-.06ZM606.84,153.56c1.94.46,3.75.18,5.47-.83,1.69-1.01,2.77-2.49,3.23-4.42.15-.65.22-1.17.22-1.57-2.27,1.81-4.85,2.4-7.71,1.72-1.29-.31-2.49-.89-3.59-1.78s-2.21-1.94-3.29-3.13c-1.54-1.72-3.44-3.44-5.65-5.19s-5.22-3.1-9-3.99c-6.64-1.57-12.81-.86-18.47,2.09l1.44-.52,2.37-.71c.49-.06.95-.15,1.38-.25s.86-.18,1.38-.25c1.23-.28,2.61-.37,4.15-.31.58-.06,1.08,0,1.44.06,1.66,0,3.5.25,5.53.74-.86-.12-1.69-.25-2.55-.4-.83-.15-1.66-.25-2.43-.25h-2.55c-.83,0-1.66.06-2.46.15-1.54.34-3.16.83-4.89,1.47-1.38.46-2.8,1.14-4.27,2.06l-.18.12c-.68.43-1.14.74-1.41.98.43-.18.86-.4,1.32-.65.43-.25.89-.46,1.32-.65.34-.12.65-.22.95-.28.31-.06.61-.18.95-.28.95-.37,1.84-.65,2.67-.83.74-.22,1.44-.37,2.15-.46.71-.06,1.38-.12,2.09-.15.4,0,.89,0,1.47-.09,1.84.03,3.69.18,5.59.43-1.41-.22-2.95-.31-4.64-.18-.8,0-1.54.06-2.24.15s-1.44.18-2.27.28c-1.41.25-2.83.71-4.24,1.35-1.29.46-2.61,1.14-3.96,2l-.18.09c-.25.15-.4.28-.52.4s-.31.25-.52.4c.22-.06.37-.09.49-.18.12-.06.28-.12.49-.18.22-.12.43-.25.65-.28.22-.06.43-.15.65-.28.52-.18.98-.37,1.38-.55.4-.22.86-.4,1.38-.55,1.23-.31,2.67-.58,4.3-.89l1.35-.12c1.87-.15,3.78-.12,5.68,0-.68.03-1.38.06-2.06.03s-1.35,0-2.06,0c-1.2.12-2.52.34-3.96.68-1.23.22-2.52.65-3.93,1.26-1.29.49-2.4,1.11-3.35,1.84h-.12c2.89-1.6,6.02-2.55,9.37-2.95,3.35-.4,6.73-.18,10.17.65,4.06.95,7.22,2.37,9.49,4.27,2.27,1.9,4.3,3.72,6.02,5.5,1.11,1.14,2.09,2.09,2.98,2.89s1.87,1.32,2.98,1.57v-.03Z"/>
    <path class="cls-1" d="M646.2,118.07c2.64.25,4.82,1.38,6.54,3.44s2.46,4.46,2.21,7.19l-.65,6.94-5.93,65.88-.65,6.94c-.25,2.73-1.38,4.98-3.38,6.7-2.03,1.72-4.39,2.46-7.13,2.21-2.73-.25-4.98-1.41-6.67-3.47-1.72-2.06-2.46-4.46-2.21-7.19l.61-6.94,5.93-65.88.65-6.94c.25-2.73,1.41-4.98,3.47-6.7s4.46-2.46,7.19-2.21v.03ZM653.26,128.58c.22-2.27-.4-4.21-1.81-5.87-1.41-1.66-3.23-2.58-5.38-2.77s-4.15.43-5.87,1.81c-1.75,1.41-2.7,3.2-2.92,5.38l-.61,6.94-5.96,65.88c-.18,2.18.43,4.12,1.9,5.81s3.29,2.64,5.44,2.86c2.18.18,4.12-.43,5.81-1.84s2.64-3.2,2.86-5.38l5.96-65.88.61-6.94h-.03ZM646.2,206.9c-2.24,2.55-5.01,3.69-8.3,3.38-2-.18-3.69-.86-5.1-2.03.34.43.61.68.8.8.61.52,1.26.95,1.87,1.32.37.22.74.4,1.11.52s.74.28,1.11.4c-.4.06-.77.03-1.14-.03-.37-.06-.8-.18-1.26-.34-.74-.15-1.54-.52-2.34-1.08-.37-.22-.68-.4-.95-.52.52.61.89,1.04,1.17,1.26.61.61,1.29,1.11,2.03,1.47.71.55,1.51.86,2.34.92-.49.06-.92.03-1.29-.06s-.8-.18-1.26-.34c-.46-.15-.89-.31-1.23-.55-.37-.22-.77-.46-1.23-.68l-.25-.25c-.09-.06-.18-.12-.28-.25.34.61.61,1.01.89,1.23.34.31.68.61.98.86.31.28.65.52.98.74.71.55,1.54.86,2.49.95-1.04.09-1.97-.03-2.67-.4-.46-.12-.89-.31-1.23-.55-.37-.22-.77-.46-1.23-.68,1.38,1.44,3.13,2.27,5.19,2.46,2.18.18,4.12-.43,5.81-1.84s2.64-3.2,2.86-5.38l.12-1.41v.06Z"/>
  </g>
</svg>