<svg xmlns="http://www.w3.org/2000/svg" viewBox="0 0 285.14 475"><defs><style>.cls-1{fill:#fff;}.cls-2{fill:#00aaae;}.cls-3{fill:#2f529f;}</style></defs><title>point-interrogation</title><g id="Back"><path class="cls-1" d="M182.26,320.13c-10.13,20.95-17.57,34.46-43.24,34.46-16.89,0-30.41-14.86-30.41-31.76C108.61,239.73,210,207.3,210,152.57c0-34.46-39.19-40.54-66.22-40.54C110,112,97.12,117.43,66,130.27a42.34,42.34,0,0,1-18.24,4.05c-18.92,0-34.46-14.19-34.46-33.78,0-48,93.24-60.81,128.38-60.81,68.24,0,148,29.05,148,108.78,0,37.84-16.89,64.19-42.57,89.19C218.75,265.41,200.5,283,182.26,320.13ZM101.18,428.92c0-24.33,19.6-43.24,42.57-43.24,24.32,0,43.92,18.92,43.92,43.24,0,23.65-19.6,43.24-43.92,43.24C120.77,472.16,101.18,452.57,101.18,428.92Z" transform="translate(-8.61 -2)"/></g><g id="Front"><path class="cls-2" d="M182.26,287.13c-10.13,20.95-17.57,34.46-43.24,34.46-16.89,0-30.41-14.86-30.41-31.76C108.61,206.73,210,174.3,210,119.57,210,85.11,170.78,79,143.75,79,110,79,97.12,84.43,66,97.27a42.34,42.34,0,0,1-18.24,4.05c-18.92,0-34.46-14.19-34.46-33.78,0-48,93.24-60.81,128.38-60.81,68.24,0,148,29.05,148,108.78,0,37.84-16.89,64.19-42.57,89.19C218.75,232.41,200.5,250,182.26,287.13ZM101.18,395.92c0-24.33,19.6-43.24,42.57-43.24,24.32,0,43.92,18.92,43.92,43.24,0,23.65-19.6,43.24-43.92,43.24C120.77,439.16,101.18,419.57,101.18,395.92Z" transform="translate(-8.61 -2)"/></g><g id="Border"><path class="cls-3" d="M293.07,132.41a135.77,135.77,0,0,1,.68,16.89c0,33.78-12.84,61.49-43.92,91.89l-.68.68c-28.38,27.7-45.27,43.92-62.84,80.41-6.08,12.16-11.49,23.65-22.3,30.41a48,48,0,0,1,27.7,43.24,47.06,47.06,0,0,1-3.38,16.89A40.85,40.85,0,0,1,191.72,429a48.16,48.16,0,0,1-48,48c-25.68,0-47.3-21.62-47.3-48a40.82,40.82,0,0,1,3.38-16.22,47,47,0,0,1-3.38-16.89,47.53,47.53,0,0,1,25-41.89c-10.13-6.08-16.89-17.57-16.89-31.08v-.68a2.37,2.37,0,0,1-.68-1.35h.68a85.51,85.51,0,0,1,2-18.92,38.28,38.28,0,0,1-2-12.16c0-47.3,31.08-79.05,59.46-106.08,16.22-16.22,31.08-31.08,37.84-46.62-8.11-13.51-27-20.27-58.11-20.27-31.76,0-43.92,4.73-73,16.22l-2.7,1.35a51.71,51.71,0,0,1-20.27,4.05c-21.62,0-39.19-16.22-39.19-37.16,0-6.76,2-12.16,4.05-16.89-2-5.41-4.05-10.81-4.05-16.89C8.61,13.49,114,2,141.72,2c70.27,0,152,29.73,152,113.51A135.8,135.8,0,0,1,293.07,132.41Zm-7.43-16.89c0-77-77-104.73-143.92-104.73C103.21,10.78,17.4,25,17.4,67.54c0,16.89,12.84,29.73,30.41,29.73a47.07,47.07,0,0,0,16.89-3.38l3.38-1.35C97.12,80.38,110,75,143.75,75,201.85,75,214,99.3,214,119.57c0,26.35-21.62,47.3-44.6,69.59-26.35,26.35-56.76,56.76-56.76,100.68,0,14.87,12.16,27.7,26.35,27.7,23,0,29.05-10.81,39.86-32.43,18.24-37.16,36.49-55.41,64.19-82.43l.68-.68C273.48,173.62,285.64,147.94,285.64,115.51ZM204.56,127c.68-2,.68-4.73.68-7.43,0-24.33-20.27-36.49-61.49-36.49-31.76,0-43.92,5.41-73,16.89l-2.7,1.35a51.74,51.74,0,0,1-20.27,4.05,39.41,39.41,0,0,1-17.57-4.06c1.35.68,2,1.35,3.38,2,3.38,2,6.76,2.7,10.13,3.38a51.15,51.15,0,0,0,10.13.68c2,0,4.05-.68,5.41-.68,5.4-.68,10.81-2.7,15.54-4.73v.68c-4.05,1.35-6.76,3.38-10.81,4.73a50.76,50.76,0,0,1-17.57,3.38c-6.08.68-12.16-.68-17.57-2.7l.68.68,4.06,2c2.7,2,6.08,2.7,9.46,3.38a51,51,0,0,0,10.13.68h5.41c5.4-.68,10.81-2.7,15.54-4.73,2.7,0,4.73-1.35,6.76-2-4.73,2-8.78,4.73-13.51,6.76-6.08,2.7-12.84,4.73-18.92,4.73-6.08.68-12.16-.68-17.57-2.7.68.68,1.35,1.35,2,1.35,2.7,2,6.08,2.7,9.46,3.38a52.16,52.16,0,0,0,10.13,1.35h5.41a58.47,58.47,0,0,0,15.54-4.05c4.73-2,8.78-4.05,13.51-6.08-5.41,3.38-10.81,6.76-16.22,9.46a53.87,53.87,0,0,1-20.94,6.08,55.63,55.63,0,0,1-17.57-2.7,23.65,23.65,0,0,0,9.46,4.05c2,0,4.05.68,6.08.68A47,47,0,0,0,64.69,127l3.38-1.35c29.05-12.16,41.89-17.57,75.68-17.57S195.1,116.19,204.56,127ZM143.75,356.73c-20.95,0-38.51,17.57-38.51,39.19s17.57,39.19,38.51,39.19c21.62,0,39.86-17.57,39.86-39.19S165.37,356.73,143.75,356.73ZM183.61,429c0-2-.68-4.05-.68-5.4-8.78,12.16-23,19.6-39.19,19.6-10.13,0-19.6-2.7-27-8.78.68.68.68,1.35,1.35,2,1.35,1.35,2.7,2,4.05,3.38a28.5,28.5,0,0,1,4.73,3.38c3.38,2,7.43,3.38,10.81,4.73a21.58,21.58,0,0,1-9.46-2,23.65,23.65,0,0,1-9.46-4.05c-2-.68-3.38-2-5.41-2.7,1.35,1.35,2,2.7,3.38,4.05l4.05,4.05a20.65,20.65,0,0,1,4.73,3.38,59.77,59.77,0,0,0,11.49,5.4,18.7,18.7,0,0,1-8.78-2,33.83,33.83,0,0,1-8.78-3.38,27.29,27.29,0,0,1-6.08-3.38,9.36,9.36,0,0,1,2,2.7l4.06,4.05c1.35,1.35,3.38,2.7,4.73,4.05a37.56,37.56,0,0,0,11.49,6.08,33.89,33.89,0,0,1-8.11-1.35c-2-1.35-4.73-2-7.43-3.38-.68,0-1.35-.68-2-1.35,6.76,6.76,15.54,10.13,25.68,10.13C165.37,468.22,183.61,450.65,183.61,429ZM285,159.43c-6.76,16.22-18.24,31.76-35.13,48.65l-.68.68c-28.38,27.7-45.27,43.92-62.84,80.41-10.14,19.59-18.24,37.16-47.3,37.16a29.56,29.56,0,0,1-16.89-5.4,9.31,9.31,0,0,0,2,2.7,18,18,0,0,0,4.06,3.38,32.92,32.92,0,0,1,4.73,2,22.2,22.2,0,0,0,11.49-.68c-4.05,2.7-9.46,3.38-14.19,2.7a14.18,14.18,0,0,1-7.43-2.7,3.51,3.51,0,0,1-2.7-1.35c.68,1.35,1.35,2.7,2.7,3.38l4.05,4.05c1.35.68,3.38,1.35,4.73,2a13.83,13.83,0,0,0,11.49-.68,19.43,19.43,0,0,1-13.51,3.38c-2.7-.68-5.41-1.35-7.43-2.7-.68-.68-2-1.35-2.7-2a9.31,9.31,0,0,0,2,2.7c.68,1.35,2.7,2.7,4.05,4.05a12.12,12.12,0,0,0,4.73,3.38,13.72,13.72,0,0,0,11.49-.68,17.8,17.8,0,0,1-13.51,3.38,33,33,0,0,0-4.73-2,25,25,0,0,0,9.46,4.73,52.57,52.57,0,0,1,10.81-1.35,32.91,32.91,0,0,1,8.11.68c12.84-4.05,18.92-14.19,27-31.08,18.24-37.16,36.49-55.41,64.19-81.76l.68-1.35C270.1,210.11,282.94,186.46,285,159.43Z" transform="translate(-8.61 -2)"/></g></svg>