<?xml version="1.0" encoding="iso-8859-1"?>
<!-- Generator: Adobe Illustrator 30.3.0, SVG Export Plug-In . SVG Version: 9.03 Build 0)  -->
<svg version="1.1" xmlns="http://www.w3.org/2000/svg" xmlns:xlink="http://www.w3.org/1999/xlink" x="0px" y="0px"
	 viewBox="0 0 300 300" style="enable-background:new 0 0 300 300;" xml:space="preserve">
<g id="Calque_1">
</g>
<g id="Calque_2">
	<g>
		<g>
			<g>
				<g>
					<g>
						<path style="fill:#1DB4B8;" d="M109.083,178.273c6.432-2.597,13.338-3.998,20.268-4.577
							c6.944-0.582,13.913-0.358,20.815,0.219c1.492,0.081,2.988,0.4,4.49,0.748c0.751,0.175,1.505,0.35,2.257,0.546
							c0.746,0.223,1.495,0.447,2.246,0.672c1.496,0.426,3.001,0.854,4.508,1.283c1.509,0.396,3.039,0.688,4.58,0.949
							c1.546,0.238,3.154,0.262,4.792,0.229c0.824-0.034,1.669-0.123,2.54-0.273c0.435-0.075,0.877-0.165,1.327-0.272
							c0.442-0.087,0.891-0.19,1.349-0.311c1.824-0.467,3.801-1.265,5.915-2.276c2.11-0.999,4.405-2.318,6.942-4
							c0.321-0.212,0.761-1.392,0.555-1.44c-7.505-1.917-14.689-3.814-21.927-5.59c-7.23-1.77-14.518-3.403-22.038-4.607
							c-8.083-1.288-16.421-2.3-24.909-2.161c-2.194,0.063-4.402,0.138-6.588,0.413l-3.299,0.355
							c-1.098,0.14-2.189,0.326-3.292,0.48c-2.691,0.331-5.741-0.042-6.394,5.47c-0.249,2.176,0.814,5.873,2.134,8.948
							C106.681,176.149,108.22,178.615,109.083,178.273z"/>
					</g>
				</g>
			</g>
			<g>
				<g>
					<g>
						<path style="fill:#1DB4B8;" d="M141,261.346c0.502,5.435-1.193,10.724-1.593,16.105c-0.345,4.635-7.922,9.431,12.248,15.189
							c0.319,0.091,1.575,0.141,1.541,0.068c-2.537-5.365-1.597-10.46,0.386-15.53c1.068-2.73,2.684-5.421,4.044-8.13
							c0.705-1.405,1.187-2.825,1.819-4.235c0.389-0.867,1.786-1.648-3.19-2.792C152.324,261.116,140.932,260.611,141,261.346z"/>
					</g>
				</g>
			</g>
		</g>
		<g>
			<g>
				<g>
					<g>
						<g>
							<g>
								<path style="fill:#1D1D1D;" d="M224.011,169.949c-1.828,14.567-3.657,29.137-5.486,43.711l-1.387,10.929
									c-0.472,3.651-0.87,7.269-1.697,10.72c-0.802,3.462-2.157,6.669-4.109,9.614c-1.931,2.948-4.331,5.619-6.909,8.142
									c-2.582,2.517-5.347,4.93-8.11,7.316c-2.771,2.38-5.595,4.7-8.461,6.965c-2.869,2.262-5.782,4.469-8.741,6.611
									c-2.964,2.146-5.944,4.244-9.014,6.143c-6.112,3.785-12.758,6.932-19.716,7.611c-3.464,0.37-6.929-0.115-10.168-1.233
									c-3.241-1.17-6.238-3.105-9.121-5.25c-9.919-7.683-19.82-16.313-29.425-25.392c-2.401-2.277-4.785-4.587-7.149-6.926
									c-2.368-2.345-4.715-4.674-6.82-7.141c-2.103-2.465-3.963-5.085-5.278-7.923c-1.306-2.825-2.045-5.926-2.473-9.13
									c-0.428-3.198-0.611-6.517-0.791-9.81c-0.166-3.296-0.273-6.592-0.351-9.88c-0.148-6.592-0.295-13.127-0.439-19.575
									c-0.367-12.899-0.941-25.43-1.818-37.321c-0.055-0.751-0.275-0.354-0.269,0.409c0.071,14.112,0.142,28.202,0.213,42.284
									c0.028,7.039-0.014,14.085,0.2,21.139c0.116,3.528,0.271,7.048,0.585,10.582c0.328,3.526,0.895,7.092,2.158,10.476
									c1.27,3.384,3.227,6.453,5.472,9.216c2.247,2.772,4.753,5.288,7.259,7.766c5.013,4.964,10.147,9.81,15.395,14.537
									c5.249,4.726,10.608,9.338,16.084,13.818c2.745,2.225,5.463,4.502,8.431,6.533c2.96,2.009,6.212,3.794,9.802,4.637
									c1.906,0.534,3.888,0.699,5.855,0.786c1.967-0.019,3.94-0.144,5.861-0.531c3.855-0.712,7.551-2.047,11.036-3.727
									c7.008-3.352,13.247-7.89,19.408-12.391c6.151-4.551,12.113-9.362,17.857-14.424c2.872-2.529,5.726-5.149,8.307-8.091
									c2.574-2.935,4.878-6.227,6.439-9.934c1.621-3.849,2.351-7.908,2.914-11.85l1.564-11.764l3.106-23.501
									c1.279-9.639,2.708-19.06,2.934-27.832C227.337,159.334,224.989,162.069,224.011,169.949z"/>
							</g>
						</g>
					</g>
					<g>
						<g>
							<g>
								<path style="fill:#1D1D1D;" d="M72.66,209.988c-0.832,1.832-1.915,3.351-3.441,4.065c-1.519,0.746-2.97,0.423-4.277-0.852
									c-1.301-1.238-2.309-3.169-3.376-4.969c-0.994-1.848-1.939-3.726-2.734-5.67c-1.618-3.875-2.824-7.922-3.61-12.047
									c-0.76-4.13-1.099-8.335-1.011-12.529c0.032-1.806,0.18-3.642,0.426-5.483c0.093-0.925,0.285-1.841,0.439-2.766
									c0.149-0.938,0.349-1.814,0.593-2.683c0.488-1.72,1.2-3.349,2.218-4.478c1.015-1.134,2.296-1.713,3.804-1.686
									c1.515,0.022,3.103,0.588,4.495,1.52c1.425,0.937,2.723,2.216,4.004,3.561c2.525,2.77,5.059,5.469,7.829,7.827
									c0.174,0.15,0.29-0.066,0.155-0.247l-3.712-5.012c-1.232-1.674-2.406-3.364-3.8-4.961c-1.377-1.593-2.967-3.114-4.956-4.086
									c-1.955-0.949-4.297-1.371-6.488-0.661c-1.077,0.37-2.058,0.993-2.848,1.789c-0.795,0.793-1.392,1.735-1.873,2.705
									c-0.948,1.952-1.458,4.048-1.785,6.109c-0.722,4.12-1.027,8.32-0.919,12.526c0.097,4.532,0.737,9.051,1.799,13.474
									c1.061,4.425,2.616,8.746,4.668,12.839l0.806,1.589l0.879,1.551c0.565,1.025,1.216,2.091,2.044,3.11
									c0.828,1.005,1.884,2.019,3.336,2.62c0.717,0.295,1.516,0.466,2.317,0.475c0.797,0.005,1.571-0.144,2.283-0.388
									c1.74-0.602,3.187-1.765,4.122-3.103c0.936-1.332,1.407-2.753,1.52-4.123C75.711,207.82,73.538,207.987,72.66,209.988z"/>
							</g>
						</g>
					</g>
					<g>
						<g>
							<g>
								<path style="fill:#1D1D1D;" d="M222.903,214.147c0.576,0.884,1.241,1.767,2.233,2.506c0.501,0.36,1.085,0.685,1.769,0.859
									c0.687,0.17,1.422,0.161,2.1,0.009c1.415-0.359,2.308-1.242,3.011-1.934c0.678-0.716,1.35-1.427,1.969-2.185
									c2.509-3.008,4.506-6.367,6.179-9.816c1.687-3.45,3.072-6.997,4.41-10.518c1.333-3.516,2.686-7.106,3.553-10.914
									c0.742-3.262,1.266-6.84,0.74-10.531c-0.111-0.919-0.328-1.835-0.582-2.739c-0.147-0.452-0.276-0.891-0.444-1.353
									c-0.183-0.472-0.394-0.936-0.652-1.39c-0.52-0.901-1.182-1.809-2.226-2.522c-1.012-0.727-2.568-1.063-3.799-0.758
									c-1.225,0.273-2.067,0.799-2.807,1.216c-0.765,0.435-1.507,0.905-2.23,1.392c-1.446,0.976-2.801,2.054-4.039,3.216
									c-2.479,2.321-4.491,4.981-5.845,7.799c-0.087,0.177,0.144,0.25,0.268,0.106c2.29-2.696,4.916-5.114,7.787-7.2
									c1.438-1.04,2.937-1.996,4.486-2.864c1.565-0.858,3.132-1.831,4.453-1.092c0.659,0.324,1.22,0.934,1.658,1.628
									c0.451,0.697,0.747,1.486,1.001,2.323c0.521,1.653,0.773,3.389,0.801,5.133c0.061,3.501-0.75,6.993-1.844,10.38
									c-1.192,3.646-2.707,7.252-4.185,10.831c-1.509,3.561-3.144,7.045-5.115,10.275c-1.021,1.674-2.14,3.271-3.369,4.758
									c-0.618,0.74-1.254,1.462-1.934,2.137c-0.675,0.719-1.338,1.294-1.788,1.44c-0.55,0.157-0.877,0.033-1.557-0.465
									c-0.645-0.501-1.347-1.256-2.213-1.955c-0.676-0.565-1.386-0.548-1.822-0.096
									C222.437,212.263,222.295,213.172,222.903,214.147z"/>
							</g>
						</g>
					</g>
					<g>
						<g>
							<g>
								<path style="fill:#1D1D1D;" d="M123.744,149.017c-4.991-3.175-11.059-4.648-16.944-3.704
									c-1.262,0.195-2.57,0.44-3.872,0.818c-1.29,0.379-2.612,0.924-3.731,1.615c-1.121,0.689-2.061,1.46-2.919,2.308
									c-0.866,0.849-1.641,1.786-2.693,2.87c-0.066,0.07,0.006,0.279,0.085,0.258c2.903-0.759,5.034-2.502,7.341-3.668
									c2.286-1.18,4.838-1.809,7.396-1.935c1.38-0.071,2.759,0.046,4.106,0.249c1.347,0.236,2.657,0.595,3.922,1.047
									c1.301,0.497,2.561,1.066,3.733,1.771c0.718,0.463,1.264,1.053,2.39,0.778C123.469,151.201,124.443,149.465,123.744,149.017
									z"/>
							</g>
						</g>
					</g>
					<g>
						<g>
							<g>
								<path style="fill:#1D1D1D;" d="M177.125,151.588c4.196-2.996,9.73-3.885,14.76-3.023c1.094,0.173,2.186,0.534,3.248,0.966
									c1.071,0.444,2.068,0.941,3.152,1.464c1.084,0.521,2.286,1.039,3.609,1.262c1.308,0.228,2.772,0.114,3.933-0.607
									c0.073-0.044,0.073-0.266,0.01-0.272c-2.41-0.132-4.702-1.624-7.076-2.862c-2.424-1.253-5.056-2.121-7.79-2.559
									c-1.474-0.239-2.973-0.329-4.484-0.33c-1.509,0.032-3.026,0.192-4.529,0.495c-1.551,0.344-3.07,0.864-4.546,1.514
									c-0.446,0.214-0.91,0.398-1.304,0.674c-0.388,0.283-0.685,0.696-0.797,1.294
									C175.144,150.55,176.584,151.973,177.125,151.588z"/>
							</g>
						</g>
					</g>
					<g>
						<g>
							<g>
								<path style="fill:#1D1D1D;" d="M210.64,138.462c-0.594-0.484-1.101-1.081-1.478-1.744l-1.458,2.222
									c0.818,0.061,1.695,0.739,1.961,1.521l2.43-1.562c-1.62-1.573-3.047-3.351-4.233-5.275l-1.474,2.215l1.697,0.26l-0.05-2.883
									c-0.691,0.136-1.31,0.227-1.78,0.19c-0.232-0.02-0.419-0.065-0.567-0.132c-0.083-0.044-0.09-0.043-0.121-0.073
									c-0.017-0.006-0.025-0.029-0.045-0.042c-0.009-0.007-0.015-0.022-0.024-0.032l-0.013-0.016l-0.007-0.008l-0.269,0.222
									c-0.283-0.548-0.575-1.149-0.717-1.503c-0.18-0.432-0.133-0.495,0.034-0.35c-0.156-0.19-0.44-0.52-0.795-1.057
									c-0.655,0.272-1.363,0.698-2.071,1.203l-0.531,0.373l-0.372,0.249c-0.174,0.112-0.34,0.21-0.495,0.287
									c-0.674,0.332-0.913,0.293-1.393,0.085l0.463,2.161c0.676-0.892,1.332-1.727,2.025-2.335c0.339-0.3,0.69-0.524,0.937-0.605
									c0.26-0.072,0.309-0.067,0.481,0.01l-0.395-2.263c-1.469,1.653-4.009,2.432-6.15,1.888l0.968,2.086
									c0.779-1.574,2.357-2.808,4.07-3.185l-1.238-2.621c-1.059,0.816-2.162,1.576-3.302,2.275
									c-0.57,0.35-1.149,0.684-1.737,1.003l-0.888,0.466l-0.448,0.224l-0.161,0.077l-0.113,0.041
									c-0.077,0.024-0.155,0.04-0.204,0.044l-0.041,0.002c-0.006,0.176-0.03,0.363-0.07,0.507
									c-0.069,0.297-0.209,0.396-0.149,0.348c0.006-0.002,0.036-0.019,0.084-0.038l0.03-0.009l0.015-0.003l0.007-0.001
									l0.004-0.001l-0.1,0.027l-0.003,0.001c0.01-0.002,0.073-0.009,0.185,0.015c0.112,0.023,0.269,0.075,0.464,0.171l0.151,0.079
									l0.002-0.003l0.015-0.023c0.024-0.038,0.109-0.133,0.212-0.247c0.194-0.209,0.397-0.412,0.617-0.597
									c0.872-0.748,1.932-1.289,3.041-1.547l-1.296-2.676c-2.194,1.732-4.808,2.951-7.545,3.518l1.64,2.312
									c1.32-2.169,3.079-4.081,5.132-5.576l-2.127-2.26c-1.97,2.364-4.601,4.197-7.501,5.226l2.102,1.675
									c0.216-1.925,1.618-3.79,3.407-4.531l-1.952-2.332c-0.899,1.366-2.076,2.563-3.43,3.501
									c-1.037,0.713-2.185,1.276-3.392,1.656l2.024,1.943c0.464-1.702,1.557-3.281,3.013-4.316l-2.33-2.207
									c-1.497,2.284-3.582,4.225-6.002,5.562l2.537,1.501c0.034-1.858,0.871-3.752,2.225-5.026l-2.827-1.966
									c-0.611,1.372-1.37,2.682-2.258,3.899c-0.222,0.304-0.453,0.602-0.689,0.894l-0.18,0.218l-0.115,0.128
									c-0.073,0.074-0.159,0.148-0.246,0.214c-0.087,0.061-0.176,0.122-0.247,0.152c-0.039,0.024-0.063,0.025-0.09,0.041
									c-0.009,0.002-0.015,0.002-0.022,0.005c-0.006,0.027-0.017-0.055,0.013,0.08c0.079,0.375,0.045,0.69,0.013,0.776
									c-0.036,0.105-0.024-0.005,0.182-0.135l0.838,0.908c0.225-1.677,1.142-3.308,2.457-4.372l-2.746-2.23
									c-0.678,1.328-1.486,2.591-2.409,3.763l-0.305,0.381l-0.004,0.012l-0.015,0.032c-0.013,0.025-0.035,0.061-0.077,0.087
									c-0.109,0.037-0.099-0.058-0.086-0.166l0.013-0.047c0.01-0.021-0.013,0.014,0.013-0.031c0.04-0.072,0.086-0.141,0.131-0.21
									c0.174-0.281,0.378-0.542,0.584-0.799c0.424-0.506,0.91-0.956,1.44-1.34l-2.29-1.908c-0.525,1.325-1.226,2.585-2.073,3.739
									l-0.324,0.427l-0.288,0.363l-0.197,0.268c-0.141,0.18-0.319,0.38-0.543,0.595c-0.11,0.102-0.256,0.213-0.414,0.209
									c-0.158-0.005-0.251-0.121-0.292-0.232c-0.079-0.231-0.043-0.499,0.015-0.8c0.032-0.151,0.084-0.307,0.149-0.471
									c0.033-0.082,0.07-0.165,0.112-0.249c0.042-0.086,0.074-0.149,0.184-0.317c0.373-0.566,0.824-1.081,1.339-1.529
									l-1.096-0.848c-0.855,2.638-2.449,5.047-4.562,6.905l0.051,0.02c-0.63-2.294-0.1-4.929,1.485-6.917
									c0.327-0.401-0.017-0.378-0.392,0.017c-1.719,1.911-2.469,4.564-2.007,7.064l0.262,1.419l1.146-0.85
									c2.435-1.807,4.33-4.29,5.429-7.088l1.046-2.662l-2.267,1.717c-0.677,0.513-1.274,1.121-1.776,1.796
									c-0.267,0.357-0.593,0.89-0.818,1.346c-0.228,0.478-0.409,0.956-0.549,1.426c-0.252,0.956-0.354,1.787-0.108,2.547
									c0.118,0.373,0.415,0.774,0.852,0.9c0.429,0.122,0.792-0.001,1.127-0.144l0.529-0.266c0.184-0.107,0.378-0.241,0.565-0.36
									c0.388-0.292,0.778-0.626,1.161-0.98c0.384-0.361,0.753-0.739,1.105-1.127c0.278-0.314,0.523-0.61,0.773-0.927
									c0.981-1.259,1.799-2.643,2.423-4.112l0.898-2.114l-1.889,1.288c-0.713,0.486-1.363,1.059-1.927,1.706
									c-0.278,0.326-0.546,0.663-0.78,1.021c-0.062,0.088-0.12,0.177-0.175,0.27l-0.213,0.356c-0.123,0.24-0.261,0.477-0.366,0.72
									c-0.427,0.959-0.744,1.975-0.763,2.816c-0.019,0.428-0.018,0.806,0.185,1.199c0.205,0.397,0.69,0.642,1.115,0.628
									c0.875,0.001,1.612-0.449,2.334-1.079c0.374-0.304,0.745-0.721,1.106-1.109l0.533-0.61l0.4-0.491
									c1.026-1.287,1.922-2.677,2.674-4.141l-0.96-0.779c-1.814,1.47-3.029,3.628-3.344,5.945l-0.034,0.248l0.144,0.202
									c0.185,0.26,0.475,0.496,0.806,0.6c0.332,0.111,0.651,0.092,0.922,0.039c0.552-0.111,0.969-0.363,1.356-0.641
									c0.373-0.269,0.733-0.67,0.972-0.979c0.263-0.327,0.519-0.659,0.765-0.999c0.985-1.359,1.826-2.823,2.503-4.361
									l-1.062-0.739c-1.818,1.745-2.894,4.208-2.936,6.738l-0.02,1.19l1.044-0.584c2.736-1.529,5.094-3.725,6.816-6.358
									l-1.047-0.992c-1.889,1.357-3.29,3.359-3.916,5.613l-0.377,1.358l1.357-0.418c3.301-1.017,6.224-3.192,8.15-6.091
									l1.55-2.333l-2.589,1.092c-0.974,0.411-1.856,1.017-2.595,1.762c-1.247,1.263-2.099,2.922-2.332,4.719l-0.188,1.449
									l1.397-0.486c3.336-1.16,6.348-3.224,8.641-5.93l-1.369-1.455c-2.342,1.68-4.348,3.825-5.872,6.283l-1.323,2.134
									l2.484-0.496c3.148-0.628,6.145-1.994,8.693-3.97l-1.019-2.104c-1.551,0.35-3.002,1.079-4.217,2.104
									c-0.306,0.254-0.591,0.533-0.864,0.824c-0.235,0.28-0.653,0.624-0.866,1.458c-0.103,0.433-0.033,0.994,0.24,1.429
									c0.282,0.481,0.801,0.771,1.175,0.86c0.768,0.177,1.257,0.044,1.749-0.089c0.121-0.037,0.24-0.082,0.359-0.13l0.302-0.14
									l0.484-0.237l0.958-0.493c0.635-0.337,1.261-0.691,1.877-1.062c1.232-0.741,2.426-1.548,3.574-2.417l-1.159-2.455
									c-2.591,0.571-4.841,2.299-6.063,4.68l-0.849,1.656l1.812,0.419c0.354,0.082,0.71,0.156,1.07,0.198
									c2.941,0.359,5.965-0.71,8.017-2.928l1.286-1.391l-1.705-1.008c-0.841-0.497-2.052-0.535-2.874-0.223
									c-0.847,0.292-1.446,0.741-1.967,1.182c-1.024,0.895-1.765,1.867-2.464,2.764l-1.161,1.49l1.672,0.897
									c0.628,0.337,1.418,0.572,2.214,0.539c0.8-0.024,1.49-0.284,2.035-0.56c0.281-0.138,0.533-0.288,0.766-0.434l0.248-0.156
									l0.104-0.057c0.028-0.013,0.065-0.028,0.083-0.027c-0.032,0.026-0.047,0.067-0.047,0.102
									c-0.001,0.032,0.007,0.06,0.018,0.083c0.059,0.101,0.083,0.13,0.105,0.159l0.074,0.099c0.051,0.065,0.098,0.131,0.156,0.193
									c0.116,0.123,0.23,0.253,0.369,0.363c0.256,0.231,0.597,0.423,0.854,0.543c0.544,0.251,1.109,0.369,1.624,0.415
									c1.032,0.078,1.885-0.085,2.626-0.214l-0.059-3.406l-1.199-0.197l-0.495-0.082l-3.703-0.613l1.949,3.251
									c1.315,2.193,2.88,4.218,4.669,5.949l2.966-1.907c-0.774-2.062-2.641-3.421-4.728-3.582l-3.38-0.26l1.724,2.783
									c0.839,1.353,2.038,2.423,3.366,3.071c0.031,0.01,0.086-0.013,0.116,0l0.092,0.06c0.208,0.248,0.514,0.53,0.812,0.718
									c1.236,0.759,2.253,0.493,2.65,0.204c0.422-0.316,0.357-0.62,0.152-0.852c-0.208-0.236-0.546-0.455-0.852-0.771
									c-0.153-0.158-0.302-0.34-0.413-0.53c-0.062-0.112-0.073-0.152-0.16-0.345c-0.085-0.203-0.187-0.397-0.325-0.551
									c-0.125-0.141-0.267-0.309-0.542-0.34C211.059,138.794,210.858,138.639,210.64,138.462z"/>
							</g>
						</g>
					</g>
					<g>
						<g>
							<g>
								<path style="fill:#1D1D1D;" d="M85.735,140.626c0.873-0.722,1.61-1.6,2.168-2.59l1.439-2.556l-2.892,0.33
									c-2.028,0.231-3.74,1.573-4.45,3.481l2.426,1.569c1.79-1.75,3.363-3.718,4.675-5.85l1.662-2.701l-3.13,0.482l-1.697,0.261
									l-0.058,2.883c0.576,0.109,1.213,0.229,1.938,0.248c0.717,0.018,1.568-0.076,2.378-0.501
									c0.935-0.502,1.507-1.352,1.739-2.274c0.113-0.472,0.148-1.002-0.005-1.577c-0.142-0.57-0.551-1.174-1.081-1.513
									l-1.298,2.583c0.204,0.085,0.437,0.202,0.698,0.39l0.202,0.15l0.287,0.226c0.277,0.229,0.557,0.452,0.84,0.666
									c1.151,0.895,2.22,1.241,3.224,1.24c0.507,0.011,1.008-0.116,1.499-0.262l0.735-0.282l0.38-0.154
									c0.13-0.052,0.28-0.108,0.26-0.129c0.182-0.236,0.374-0.469,0.624-0.712l-0.774-0.882l-0.452-0.512l-0.402-0.462
									l-0.21-0.242l-0.105-0.121l-0.779-0.423l-3.146-1.704l-0.787-0.426l-0.393-0.213c-0.028-0.014-0.075-0.044-0.089-0.045
									l-0.021,0.012L91.1,129.04l-0.336,0.185l-0.671,0.37c-0.096,0.06-0.094,0.07-0.145,0.107
									c-0.159,0.128-0.228,0.159-0.328,0.221l0,0l-0.168,0.456c-0.033,0.077-0.056,0.152-0.055,0.224l-0.009,0.109l-0.011,0.215
									c-0.019,0.306,0.068,0.543,0.164,0.796c0.049,0.119,0.107,0.254,0.166,0.347l0.178,0.232c0.524,0.63,0.96,0.796,1.396,1.039
									c0.418,0.187,0.828,0.335,1.226,0.451l0.658,0.169c0.312,0.078,0.632,0.114,0.947,0.172
									c1.259,0.202,2.498,0.253,3.548,0.174c1.077-0.069,2.039-0.182,3.187-0.302c-0.062-0.155-0.055-0.25-0.174-0.454
									l-0.292-0.548l-0.558-1.017c-0.358-0.651-0.771-1.293-1.349-1.926c-0.573-0.629-1.298-1.248-2.184-1.762
									c-0.446-0.257-0.925-0.475-1.386-0.652c-0.369-0.137-0.677-0.222-1.028-0.309l-1.245,2.619
									c1.137,0.888,2.321,1.716,3.546,2.479c0.612,0.382,1.235,0.747,1.867,1.096l0.955,0.51l0.483,0.246l0.31,0.148
									c0.124,0.052,0.249,0.101,0.376,0.141c0.517,0.145,1.026,0.296,1.869,0.112c0.41-0.093,0.996-0.411,1.318-0.949
									c0.312-0.484,0.394-1.114,0.284-1.598c-0.23-0.931-0.678-1.295-0.908-1.585c-0.275-0.303-0.565-0.594-0.875-0.859
									c-1.232-1.071-2.714-1.844-4.312-2.23l-1.304,2.674c2.556,2.047,5.584,3.488,8.792,4.179l3.478,0.749l-1.832-3.058
									c-1.516-2.531-3.535-4.757-5.912-6.514l-2.133,2.255c2.319,2.816,5.391,4.986,8.828,6.229l2.411,0.872l-0.305-2.542
									c-0.373-3.113-2.406-5.846-5.286-7.099l-4.846-2.108l2.888,4.435c1.095,1.681,2.508,3.138,4.134,4.296
									c1.324,0.938,2.798,1.689,4.374,2.198l2.783,0.898l-0.753-2.837c-0.644-2.425-2.112-4.614-4.169-6.137l-2.337,2.203
									c1.747,2.755,4.174,5.107,7.055,6.772l2.555,1.477l-0.013-2.972c-0.012-2.797-1.151-5.534-3.172-7.523l-2.833,1.96
									c0.686,1.613,1.548,3.154,2.567,4.59c0.255,0.359,0.52,0.71,0.793,1.056l0.207,0.257c0.065,0.08,0.193,0.229,0.291,0.331
									c0.211,0.22,0.432,0.417,0.67,0.599c0.491,0.355,1.003,0.688,1.826,0.866c0.402,0.081,0.919,0.121,1.506-0.066
									c0.583-0.177,1.106-0.601,1.41-1.036l0.406-0.581l-0.091-0.695c-0.343-2.623-1.693-5.044-3.746-6.714l-2.752,2.222
									c0.793,1.545,1.741,3.006,2.827,4.353l0.46,0.554c0.265,0.295,0.52,0.607,0.792,0.886c0.535,0.557,1.086,1.157,1.624,1.493
									c0.536,0.358,1.002,0.566,1.487,0.677c0.486,0.106,0.961,0.122,1.443-0.005c0.477-0.109,1.013-0.455,1.32-0.857
									c0.301-0.403,0.44-0.748,0.514-1.246c0.056-0.221,0.021-0.534,0.033-0.797c-0.058-0.314-0.077-0.607-0.167-0.937
									c-0.138-0.639-0.373-1.319-0.665-1.994c-0.149-0.337-0.334-0.673-0.508-1.005c-0.082-0.154-0.216-0.356-0.293-0.481
									c-0.061-0.1-0.129-0.195-0.197-0.29c-0.264-0.386-0.564-0.745-0.874-1.093c-0.63-0.688-1.348-1.293-2.132-1.799
									l-4.479-2.889l2.186,4.789c0.709,1.554,1.628,2.992,2.71,4.273l0.413,0.473l0.213,0.23l0.266,0.279
									c0.455,0.476,0.942,0.933,1.425,1.341c0.481,0.398,0.968,0.787,1.416,1.036c0.457,0.255,0.842,0.361,1.2,0.439
									c0.343,0.053,0.724,0.073,1.164-0.142c0.438-0.223,0.717-0.64,0.842-1.036c0.253-0.792,0.152-1.723-0.186-2.764
									c-0.161-0.508-0.394-1.022-0.659-1.517c-0.137-0.248-0.281-0.49-0.446-0.723c-0.151-0.236-0.347-0.477-0.461-0.613
									c-0.541-0.638-1.169-1.191-1.855-1.643l-2.181-1.433l1.086,2.277c1.314,2.756,3.411,4.993,5.842,6.433L127.24,135
									l0.004-0.047c0.205-2.395-0.904-4.669-2.548-5.92c-0.333-0.253-0.322,0.064-0.039,0.344c1.337,1.393,1.993,3.49,1.674,5.41
									l1.41-0.565c-2.194-1.552-3.948-3.752-4.976-6.248l-1.224,0.942c0.556,0.407,1.055,0.897,1.478,1.449
									c0.327,0.431,0.506,0.759,0.686,1.197c0.148,0.42,0.314,0.868,0.272,1.333c-0.019,0.224-0.145,0.471-0.379,0.518
									c-0.229,0.046-0.442-0.084-0.621-0.21c-0.364-0.266-0.716-0.561-1.05-0.883c-0.165-0.16-0.33-0.329-0.495-0.509
									c-0.233-0.26-0.481-0.552-0.709-0.837c-0.917-1.156-1.685-2.432-2.271-3.787l-0.994,0.824
									c0.614,0.414,1.18,0.905,1.673,1.464c0.243,0.283,0.478,0.573,0.683,0.885c0.054,0.076,0.106,0.154,0.153,0.234l0.098,0.158
									c0.062,0.112,0.128,0.222,0.184,0.337c0.23,0.458,0.411,0.946,0.515,1.454c0.051,0.25,0.116,0.518,0.028,0.767
									c-0.085,0.257-0.373,0.387-0.627,0.339c-0.523-0.071-0.934-0.441-1.282-0.815c-0.182-0.185-0.358-0.376-0.53-0.571
									l-0.255-0.296l-0.359-0.442c-0.973-1.222-1.821-2.542-2.531-3.933l-0.961,0.776c1.554,1.262,2.608,3.153,2.864,5.138
									l0.111-0.45c-0.111,0.12-0.165,0.165-0.443,0.117c-0.253-0.045-0.562-0.215-0.83-0.415
									c-0.514-0.378-0.978-1.085-1.454-1.712c-0.922-1.291-1.705-2.682-2.331-4.139l-1.064,0.736
									c1.544,1.503,2.457,3.661,2.464,5.81l1.025-0.603c-2.523-1.447-4.689-3.52-6.243-5.973l-1.048,0.988
									c1.595,1.177,2.775,2.925,3.27,4.837l0.981-0.937c-2.936-0.953-5.531-2.961-7.184-5.557l-1.041,1.237
									c0.792,0.355,1.517,0.878,2.109,1.531c0.92,1.002,1.518,2.295,1.662,3.616l1.209-0.958
									c-3.001-1.111-5.693-3.049-7.691-5.523l-1.37,1.449c2.088,1.572,3.859,3.562,5.174,5.806l1.164-1.632
									c-2.796-0.629-5.441-1.92-7.646-3.724l-1.023,2.097c1.157,0.292,2.248,0.877,3.137,1.669
									c0.225,0.196,0.431,0.41,0.628,0.631c0.104,0.118,0.192,0.221,0.227,0.278c0.02,0.03,0.031,0.057,0.031,0.057
									c-0.035,0.018,0.148-0.066,0.195-0.079c0.08-0.028,0.145-0.046,0.202-0.058c0.112-0.023,0.177-0.017,0.187-0.015
									l-0.003-0.001v0c-0.2-0.055-0.053-0.015-0.097-0.027l0.007,0.001l0.015,0.003l0.03,0.009
									c0.047,0.018,0.079,0.037,0.085,0.039c0.061,0.048-0.078-0.05-0.147-0.346c-0.017-0.07-0.041-0.161-0.046-0.239
									c-0.011-0.094-0.009-0.029-0.014-0.048l-0.073-0.007c-0.066-0.009-0.157-0.03-0.246-0.061l-0.13-0.051l-0.169-0.085
									l-0.447-0.233l-0.884-0.484c-0.585-0.33-1.161-0.676-1.728-1.037c-1.133-0.721-2.227-1.502-3.276-2.338l-1.163,2.447
									c0.218,0.056,0.471,0.135,0.652,0.202c0.092,0.038,0.151,0.067,0.204,0.097c0.111,0.063,0.209,0.136,0.294,0.216
									c0.085,0.08,0.156,0.167,0.213,0.257c0.029,0.045,0.053,0.091,0.074,0.137c0.023,0.047,0.058,0.105-0.038,0.089
									l-0.175,0.002c-0.27-0.005-0.509-0.044-0.716-0.101l-0.257-0.069c-0.14-0.031-0.256-0.082-0.385-0.121
									c-0.132-0.039-0.247-0.085-0.354-0.134c-0.114-0.046-0.225-0.093-0.299-0.143c-0.095-0.048-0.171-0.094-0.192-0.123
									c-0.007-0.01-0.072-0.04-0.037-0.027c-0.062,0.091-0.229,0.241-0.382,0.323c-0.107,0.052-0.111,0.07-0.142,0.093
									c-0.03,0.022-0.067,0.04-0.109,0.053c-0.023,0.012-0.13,0.021-0.098,0.017c0.02-0.002,0.037,0,0.049,0.003l0.002,0.001
									l0.847,0.077l-0.004-0.006l-0.008-0.011l-0.015-0.023c-0.013-0.017,0.002-0.014,0.001-0.021l0.018-0.03
									c0.191,0.042,0.348,0.118,0.464,0.207c0.072,0.055,0.13,0.116,0.171,0.176c-0.055,0.039-0.182,0.04-0.258,0.009
									c-0.085-0.031-0.148-0.092-0.201-0.144l-0.042-0.041l-0.462-0.352c-0.397-0.288-0.883-0.574-1.448-0.792l-1.25,2.604
									c0.111-0.152,0.079-0.044-0.139,0.01c-0.082,0.029-0.285,0.042-0.316,0.042c0,0-0.003,0.023-0.011,0.047
									c-0.033,0.123-0.141,0.237-0.157,0.225c-0.301,0.188-1.164,0.159-2.241-0.087l-0.068,3.406l1.172-0.167l0.527-0.075
									l-1.748-2.642c-1.214,1.915-2.672,3.64-4.236,5.177l2.961,1.914c0.217-0.67,0.967-1.299,1.678-1.427l-1.648-2.525
									c-0.442,0.914-1.081,1.737-1.882,2.422c-0.252,0.041-0.392,0.198-0.509,0.342c-0.128,0.158-0.222,0.357-0.307,0.564
									c-0.07,0.18-0.11,0.266-0.198,0.397c-0.71,0.971-1.741,1.085-1.479,1.76c0.127,0.301,0.683,0.7,1.623,0.636
									c0.46-0.037,1.001-0.196,1.535-0.564c0.256-0.171,0.548-0.467,0.718-0.675c0.044-0.037,0.08-0.051,0.14-0.05
									C85.078,141.119,85.418,140.889,85.735,140.626z"/>
							</g>
						</g>
					</g>
					<g>
						<g>
							<g>
								<path style="fill:#1D1D1D;" d="M67.48,209.586c-1.06-0.531-2.155-0.532-3.123-0.277c-0.486,0.13-0.962,0.346-1.388,0.636
									c-0.401,0.272-0.755,0.594-1.058,0.936c-1.207,1.411-1.668,2.923-2.078,4.386c-0.767,2.98-0.69,6.179,0.322,9.131
									c0.24,0.684,0.539,1.366,0.971,2.047c0.442,0.669,1.028,1.383,1.98,1.877c0.932,0.512,2.233,0.582,3.219,0.2
									c0.995-0.365,1.683-0.972,2.217-1.588c1.023-1.221,1.585-2.714,1.583-4.167c0.005-1.445-0.577-2.839-1.643-3.691
									c-0.065-0.054-0.275,0.02-0.26,0.08c0.667,2.25-0.124,5.05-1.944,6.607c-0.446,0.366-0.953,0.59-1.427,0.574
									c-0.482-0.01-0.93-0.252-1.313-0.642c-0.78-0.816-1.161-2.014-1.402-3.265c-0.505-2.684-0.09-5.476,0.989-7.829
									c0.274-0.598,0.59-1.126,0.937-1.513c0.358-0.386,0.716-0.614,1.034-0.655c0.217-0.043,0.425,0.019,0.584-0.008
									c0.167-0.009,0.279-0.163,0.687-0.401c0.318-0.19,0.93-0.51,1.296-0.969C68.042,210.621,68.075,209.893,67.48,209.586z"/>
							</g>
						</g>
					</g>
					<g>
						<g>
							<g>
								<path style="fill:#1D1D1D;" d="M153.528,190.821c-3.465,0.765-7.045,1.039-10.596,0.829
									c-1.775-0.106-3.543-0.337-5.286-0.685c-1.715-0.374-3.603-0.745-4.717-1.479c-1.131-0.721-1.67-1.968-1.722-3.533
									c-0.059-1.555,0.321-3.264,0.806-4.952c1.075-3.463,2.144-7.119,2.978-10.734c1.463-6.252,2.896-13.025,3.33-19.815
									c0.462-6.774-0.082-13.544-2.188-19.377c-0.065-0.184-0.279-0.073-0.264,0.117c1.261,14.023-0.26,28.214-4.081,41.797
									c-0.521,1.828-1.073,3.646-1.676,5.447c-0.599,1.8-1.244,3.703-1.51,5.744c-0.131,1.023-0.175,2.094,0.003,3.202
									c0.173,1.1,0.608,2.254,1.374,3.2c0.748,0.951,1.817,1.65,2.826,2.06c1.027,0.433,1.987,0.671,2.939,0.925
									c3.981,1.03,8.125,1.418,12.252,1.268c2.524-0.103,5.092-0.251,7.095-1.636
									C156.652,192.094,155.363,190.396,153.528,190.821z"/>
							</g>
						</g>
					</g>
					<g>
						<g>
							<g>
								<path style="fill:#1D1D1D;" d="M188.168,219.32c-5.239,4.728-11.725,8.039-18.554,9.957
									c-6.854,1.903-14.049,2.445-21.15,1.762c-6.137-0.549-12.516-2.365-18.659-4.467c-3.07-1.078-6.118-2.148-9.135-3.207
									c-1.506-0.515-3.061-1.057-4.651-1.333c-1.579-0.284-3.208-0.274-4.554,0.215c-0.169,0.056-0.07,0.275,0.096,0.268
									c1.557-0.089,3.173,0.339,4.745,0.962c1.573,0.624,3.143,1.43,4.757,2.146c3.211,1.454,6.484,2.767,9.827,3.886
									c6.678,2.24,13.633,3.781,20.755,4.21c7.658,0.453,15.481-0.4,22.852-2.932c3.828-1.286,7.494-3.083,10.928-5.27
									c2.096-1.346,4.232-2.713,5.263-4.899C191.511,218.927,189.536,218.042,188.168,219.32z"/>
							</g>
						</g>
					</g>
				</g>
				<g>
					<g>
						<g>
							<g>
								<g>
									<path style="fill:#1D1D1D;" d="M99.809,47.924c-0.755,2.161-1.522,4.259-2.219,6.443c-0.392,1.213-0.76,2.433-1.111,3.658
										c-0.705,2.449-1.339,4.919-1.901,7.405c-1.123,4.972-1.958,10.01-2.496,15.08l2.924,0.281
										c0.687-8.127,0.245-16.346-1.31-24.355l-2.883,0.177c-0.645,9.383-2.415,18.693-5.261,27.664l2.837,0.253
										c-0.846-6.55-1.692-13.105-2.539-19.661l-2.924,0.16c-0.084,3.98-0.168,7.963-0.252,11.946l-0.039,1.575l-0.285-1.634
										l-1.01-5.696l-2.999,0.336c0.469,10.495,0.938,20.999,1.407,31.504l3.069-0.304c-1.436-9.448-3.761-18.769-6.935-27.794
										l-3.039,0.708c1.578,13.279,3.158,26.568,4.738,39.859l3.148-0.452c-0.462-2.741-0.976-5.476-1.541-8.201
										c-1.359-6.544-3.024-13.11-5.011-19.65l-3.149,0.706c1.843,12.992,3.719,26.224,5.612,39.569l3.391-0.755
										c-2.149-7.159-4.308-14.352-6.47-21.556l-3.486,0.867c2.337,11.889,4.681,23.811,7.013,35.673l3.346-1.099
										c-3.401-7.14-5.942-14.662-7.577-22.329l-3.205,0.539c0.605,4.204,1.208,8.391,1.808,12.559l0.457,3.121l0.225,1.528
										l0.07,0.35l0.343,1.822c0.202,1.15,0.402,2.292,0.602,3.429c-0.225-0.448-0.521-1.07-0.904-1.913
										c-0.078-0.195-0.154-0.387-0.23-0.579c-0.725-0.819-1.482-1.9-2.283-3.307c-0.017,1.663,0.088,3.63,0.339,5.972
										c0.422,2.496,0.843,4.98,1.261,7.453c0.358,2.009,0.713,4.009,1.068,5.999c0.68,3.649,1.353,7.263,2.019,10.843
										l-0.572,0.203c-1.636-2.501-2.634-5.368-2.934-8.318c-0.086-1.161-0.318-0.545-0.224,0.654
										c0.259,2.822,1.161,5.571,2.616,7.987l1.738-0.616c-0.916-6.093-1.831-12.183-2.745-18.26
										c-0.24-1.583-0.48-3.166-0.719-4.746l1.619,4.202l0.097,0.253c0.776,1.319,1.558,2.68,2.344,4.075l0.06-4.902
										c-1.263-9.372-2.526-18.742-3.788-28.107l-1.303,0.219c1.622,7.904,4.192,15.609,7.639,22.902l1.199-0.393
										c-2.328-11.891-4.656-23.782-6.985-35.679l-1.241,0.309c2.166,7.18,4.332,14.362,6.5,21.547l1.296-0.289
										c-1.883-13.177-3.767-26.363-5.653-39.563l-1.455,0.326c2.741,9.026,4.89,18.237,6.428,27.559l1.642-0.236
										c-0.455-3.923-0.911-7.851-1.367-11.78c-1.083-9.367-2.165-18.734-3.247-28.093l-1.888,0.44
										c3.091,8.885,5.344,18.056,6.722,27.348l2.185-0.216c-0.43-10.505-0.86-21.009-1.289-31.509l-2.477,0.278l3.468,19.67
										c0.581,0.865,1.163,1.655,1.747,2.372c0.464-0.797,0.941-1.523,1.43-2.177l0.534-23.14l0.081-3.346l-2.965,0.162
										l2.47,19.67l3.05,0.272c2.948-9.188,4.796-18.73,5.494-28.363l-3.306,0.203c1.142,6.015,1.632,12.153,1.463,18.269
										c-0.048,1.746-0.152,3.487-0.307,5.215l3.517,0.338c0.61-5.41,1.565-10.715,2.746-15.856
										c0.59-2.571,1.237-5.101,1.924-7.588c0.175-0.621,0.349-1.24,0.523-1.857l0.067-0.231c0.009-0.035,0.003-0.025,0.005-0.041
										l0.004-0.062l0.015-0.148c0.013-0.111,0.032-0.247,0.062-0.414c0.028-0.128,0.073-0.499,0.108-0.329
										c0.235,0.317,0.468,0.631,0.699,0.942c1.432,2.154,2.817,3.21,3.621,3.66c0.831,0.438,1.124,0.3,0.969-0.23
										c-0.155-0.53-0.749-1.463-1.511-2.83c-0.19-0.342-0.389-0.713-0.591-1.113c-0.099-0.202-0.201-0.41-0.307-0.624
										c-0.15-0.321-0.303-0.652-0.462-0.992c-0.213-0.418-0.382-0.945-0.583-1.45c-0.186-0.57-0.362-1.173-0.556-1.865
										c-0.391-1.429-0.8-2.924-1.227-4.484c-0.07,0.148-0.141,0.299-0.212,0.451l-0.11,0.243l-0.132,0.367
										C100.175,46.899,99.994,47.407,99.809,47.924z"/>
								</g>
							</g>
						</g>
						<g>
							<g>
								<g>
									<path style="fill:#1D1D1D;" d="M195.926,70.065c0.049-2.882,0.265-5.761,0.647-8.619l-2.903,0.271
										c2.417,7.246,4.439,14.626,6.054,22.096l2.9-0.536c-0.478-3.077-0.604-6.211-0.382-9.321
										c0.058-0.777,0.135-1.553,0.232-2.326l0.131-0.939l0.038-0.227c0.056-0.276,0.126-0.664,0.221-0.844l0.269,0.684
										l0.125,0.348l0.556,1.671c0.772,2.401,1.447,4.835,2.022,7.291c1.149,4.914,1.899,9.922,2.233,14.957l2.832-0.561
										c-0.985-2.928-1.446-6.039-1.379-9.138c0.021-0.775,0.069-1.548,0.148-2.319l0.134-1.07l0.055-0.324
										c0.031-0.157,0.068-0.312,0.112-0.466l0.071-0.229l0.04-0.113c0.014-0.023,0.025-0.117,0.042-0.045
										c0.086,0.201,0.165,0.404,0.24,0.609l0.106,0.309l0.34,1.091c0.619,2.082,1.118,4.201,1.493,6.341
										c0.752,4.281,1.011,8.649,0.759,12.986l2.921,0.181c0.521-7.815,1.944-15.577,4.231-23.075l-2.847-0.098
										c2.006,8.724,2.129,17.891,0.354,26.67l2.952,0.328c0.2-8.531,1.574-17.043,4.072-25.209l-2.951-0.397
										c0.299,10.693-0.096,21.416-1.183,32.067l3.056,0.235c0.468-8.824,1.763-17.612,3.864-26.203l-3.06-0.395
										c-0.209,11.589-0.418,23.188-0.627,34.788l3.132,0.239c1.577-11.55,4.025-22.992,7.317-34.185l-3.103-0.606
										c-0.806,7.999-1.612,16.004-2.419,24.01c-0.716,7.061-1.438,14.19-2.167,21.377l3.182,0.458
										c2.072-10.92,4.169-21.974,6.283-33.121l-3.3-0.598c-2.793,15.785-5.619,31.755-8.456,47.792l3.499,0.701
										c2.679-11.815,5.366-23.666,8.051-35.506l-3.56-0.623c-1.713,13.812-3.697,27.573-5.92,41.205l3.34,0.686
										c1.846-7.809,3.685-15.585,5.513-23.319l-3.049-0.575c-1.815,14.321-4.769,28.346-8.706,41.855l1.977,0.649
										c2.599-7.97,5.163-15.836,7.698-23.608l-1.071-0.362c-2.656,8.748-4.075,17.664-4.337,26.43l-0.27-0.05
										c1.554-5.614,3.088-11.154,4.603-16.627c0.404-1.477-0.047-0.77-0.505,0.714c-1.616,5.233-3.231,10.464-4.842,15.68
										l1.793,0.33c0.499-8.847,2.146-17.629,4.878-26.043l-1.562-0.528c-2.696,7.831-5.391,15.659-8.081,23.475l1.435,0.471
										c4.215-13.755,7.293-27.848,9.196-42.088l-1.322-0.249l-5.636,23.289l1.267,0.26c2.293-13.72,4.3-27.487,6.021-41.293
										l-1.243-0.217c-2.68,11.833-5.36,23.668-8.042,35.508l1.267,0.254c2.8-15.924,5.6-31.854,8.404-47.801l-1.38-0.25
										c-2.09,11.034-4.181,22.073-6.274,33.123l1.502,0.216c1.553-15.109,3.108-30.235,4.665-45.379l-1.681-0.328l-0.959,3.336
										c-2.874,10.238-5.045,20.672-6.513,31.199l1.9,0.145c0.238-11.598,0.476-23.196,0.714-34.786l-2.095-0.27
										c-2.162,8.743-3.505,17.689-4.006,26.682l2.299,0.176c1.128-10.762,1.557-21.599,1.285-32.418l-2.477-0.333
										c-2.595,8.401-4.034,17.158-4.265,25.954l2.688,0.299c1.88-9.174,1.78-18.745-0.295-27.89l-1.204-5.305l-1.599,5.208
										c-0.689,2.244-1.304,4.511-1.844,6.796c-1.312,5.56-2.174,11.229-2.572,16.933l3.047,0.189
										c0.277-4.569,0.015-9.168-0.766-13.679c-0.39-2.255-0.91-4.488-1.557-6.685l-0.252-0.821l-0.181-0.575
										c-0.076-0.25-0.159-0.496-0.244-0.739l-1.055-2.85l-2.244-5.464c-0.221,0.537-0.459,1.272-0.687,1.9l-0.654,1.863
										l-0.631,1.879c-0.203,0.647-0.372,1.383-0.56,2.071c-0.167,0.704-0.276,1.426-0.417,2.14
										c-0.041,0.207-0.054,0.31-0.065,0.41l-0.041,0.321l-0.081,0.641c-0.09,0.857-0.146,1.718-0.171,2.579
										c-0.082,3.446,0.42,6.911,1.516,10.196l3.211-0.635c-0.332-5.205-1.093-10.383-2.266-15.466
										c-0.587-2.542-1.277-5.06-2.068-7.546l-0.661-2.003l-1.275-3.466l-2.678-6.683l-1.236,4.275l-0.498,1.752
										c-0.165,0.588-0.308,1.25-0.463,1.872c-0.165,0.612-0.267,1.319-0.399,1.982l-0.186,1.011l-0.09,0.625
										c-0.208,1.45-0.347,2.908-0.416,4.366c-0.129,2.916,0.024,5.833,0.453,8.694l3.542-0.655
										c-1.645-7.74-3.728-15.263-6.235-22.41l-3.276,0.306c-0.698,5.917-0.633,11.779,0.148,17.357
										c0.074,0.562,0.166,1.089,0.24,1.531l1.627-1.014c-1.732-0.953-2.644-2.211-3.211-2.988
										c-0.563-0.802-0.833-1.209-1.036-1.075c-0.177,0.123-0.282,0.801,0.051,1.934c0.336,1.109,1.156,2.716,2.973,4.055
										l1.959,1.444l-0.093-2.607C195.983,77.124,195.856,73.879,195.926,70.065z"/>
								</g>
							</g>
						</g>
						<g>
							<g>
								<g>
									<path style="fill:#1D1D1D;" d="M224.592,97.356c0.933-2.736,1.722-5.522,2.349-8.344c0.157-0.705,0.308-1.412,0.443-2.122
										l0.2-1.065l0.095-0.534c0.035-0.194,0.056-0.303,0.102-0.634c0.153-1.279,0.011-2.567-0.445-3.492
										c-0.437-0.922-1.169-1.61-2.178-1.796l-0.371-0.061c-0.105,0.013-0.174,0.094-0.263,0.138l-0.505,0.315l-0.505,0.315
										c-0.085,0.068-0.167,0.071-0.254,0.192l-0.265,0.402l-1.716,2.611l-2.336,3.557l-4.676,7.113l2.595,1.268l4.43-13.083
										c1.452-4.386,2.808-9.055,2.672-13.992l-2.83-0.517c-2.744,6.597-5.489,13.198-8.235,19.8l2.851,0.921
										c1.783-7.492,2.623-15.214,2.488-22.924l-3.037-0.349l-0.82,3.155l-0.318,1.197l0.106-1.368l0.309-4.338
										c0.135-1.897,0.271-3.805,0.407-5.725l-3.182-0.311c-0.42,3.245-0.844,6.521-1.271,9.821l-0.324,2.479l-0.125,0.943
										l-0.019,0.1l-0.067,0.304c-0.025,0.097-0.044,0.147-0.058,0.155l-0.028-0.429l-0.185-1.436l-0.663-4.492
										c-0.654-4.135-1.478-8.341-2.944-12.413l-3.486,0.737c0.786,10.087,2.496,20.056,5.073,29.57l2.693-0.757
										c-3.348-10.221-6.791-20.165-10.358-29.637l0.045-0.015c1.343,2.699,3.397,4.912,5.765,6.405
										c0.525,0.327,0.39-0.045-0.097-0.416c-2.113-1.649-3.801-3.857-4.855-6.325l-1.706,0.589
										c3.072,10.023,6.14,20.034,9.206,30.039l1.345-0.378c-2.379-9.596-3.948-19.392-4.688-29.254l-1.226,0.259
										c1.373,3.848,2.172,7.895,2.819,11.968c0.72,4.888,1.441,9.778,2.162,14.67l1.267,4.177l1.197-4.065
										c0.961-7.428,1.923-14.861,2.886-22.303l-1.542-0.151c-0.529,7.126-1.058,14.259-1.588,21.399l-0.176,2.391
										c0.139,1.892,0.303,3.682,0.499,5.346c0.706-1.516,1.403-2.904,2.09-4.143c1.477-5.701,2.953-11.401,4.429-17.098
										l-2.183-0.251c0.083,7.487-0.782,14.976-2.561,22.23l2.459,0.794l8.368-19.745l-2.829-0.517l0,0.418
										c0.023,4.254-1.24,8.504-2.676,12.738l-4.432,12.828l2.947,1.44l7.5-11.238l0.087-0.129l0.005-0.005l0.01-0.01l0.018-0.015
										c0.011-0.008,0.02-0.013,0.027-0.014c0.025,0.018,0.02,0.061,0.012,0.073c-0.004,0.007-0.01,0.012-0.01,0.012l-0.242,1.339
										c-0.19,0.975-0.381,1.945-0.594,2.904c-0.834,3.841-1.834,7.534-2.784,11.123c-0.767,2.828-0.544,3.861,0.305,3.405
										C222.03,102.648,223.464,100.648,224.592,97.356z"/>
								</g>
							</g>
						</g>
						<g>
							<g>
								<g>
									<path style="fill:#1D1D1D;" d="M212.799,73.019c-1.62-6.465-3.692-12.815-6.203-18.99l-2.793,0.767
										c0.891,5.839,1.768,11.65,2.151,17.47l2.887-0.407c-0.912-4.233-2.076-8.413-3.484-12.511
										c-0.354-1.024-0.722-2.043-1.102-3.057l-0.585-1.516l-1.025-2.494c-1.541-3.594-3.038-6.569-4.673-10.056l-0.38,4.888
										l-0.182,2.406l-0.147,2.507l-0.089,2.607l-0.026,1.942c-0.002,0.971,0.008,1.943,0.029,2.914
										c0.091,3.885,0.395,7.766,0.911,11.619l3.009-0.783c-2.669-6.826-5.34-13.657-8.011-20.488
										c-0.103-0.264-0.207-0.528-0.311-0.795l-3.055,0.831c1.156,7.35,2.289,14.927,2.908,22.612l3.264-0.956
										c-4.177-8.138-7.065-17.063-8.577-26.111l-3.394,0.774c2.448,7.758,5.106,15.603,9.274,22.422l1.839-0.602
										c-1.334-6.735-3.465-13.076-6.223-18.744c-0.2-0.415-0.329-0.114-0.175,0.322c2.153,6.052,3.717,12.315,4.668,18.666
										l1.43-0.468c-3.813-6.966-6.192-14.639-8.531-22.289l-1.246,0.284c1.469,9.344,4.447,18.445,8.804,26.859l1.261-0.369
										c-0.644-7.636-1.799-15.211-2.942-22.775l-1.531,0.416c1.093,2.85,2.187,5.702,3.281,8.556
										c1.628,4.264,3.255,8.528,4.882,12.789l1.913-0.498c-0.473-3.765-0.736-7.553-0.79-11.342
										c-0.012-0.947-0.012-1.894-0.002-2.841l0.025-1.048l0.027-0.49c0.041-0.633,0.096-1.207,0.166-1.688
										c0.232,0.53,0.433,1.019,0.606,1.465l0.958,2.563c1.094,3,2.055,6.046,2.878,9.128c0.529,1.981,1.001,3.977,1.416,5.984
										l3.037-0.428c-0.345-5.989-1.194-11.893-2.028-17.743l-3.242,0.891c0.617,1.564,1.204,3.138,1.763,4.722
										c1.963,5.563,3.319,11.139,5.342,16.113c0.796,1.969,1.565,2.425,2.024,1.775
										C213.257,77.177,213.399,75.409,212.799,73.019z"/>
								</g>
							</g>
						</g>
						<g>
							<g>
								<g>
									<path style="fill:#1D1D1D;" d="M146.694,43.764l-7.999,7.18l-0.792,0.717l0.511-0.894l6.356-10.996l-2.322-1.735
										c-6.318,6.675-13.182,12.839-20.501,18.407l2.056,2.021c5.811-7.912,10.863-16.387,15.059-25.271l-2.384-1.653
										c-7.794,7.99-15.908,15.679-24.312,23.038l2.26,1.925c4.115-6.545,7.567-13.514,10.283-20.763l-2.822-1.15
										c-4.829,10.519-9.662,21.047-14.495,31.575l2.944,0.952c1.629-8.762,2.638-17.648,3.012-26.562l-3.117-0.432
										c-2.118,8.856-4.238,17.719-6.358,26.582l3.13,0.541c0.118-1.121,0.229-2.244,0.321-3.368
										c0.561-6.764,0.614-13.66,0.127-20.594l-3.212-0.169c-0.456,2.491-0.914,4.992-1.373,7.502l-0.136,0.606l-0.097,0.372
										l0.006-0.656c-0.033-1.254-0.066-2.512-0.099-3.772l-3.523-0.105c-0.964,9.736-2.401,19.472-4.288,29.114l3.583,0.231
										c-0.497-7.374-0.994-14.745-1.489-22.09l-3.5-0.125c-1.194,9.012-1.994,18.035-2.397,26.989l3.07-0.148
										c-1.372-8.245-2.735-16.431-4.085-24.545c-0.569-0.591-1.121-1.414-1.654-2.539c-0.424,1.203-0.795,2.708-1.105,4.594
										c-0.101,2.804-0.201,5.598-0.3,8.38c-0.042,1.276-0.083,2.549-0.125,3.82c-0.023,0.963-0.047,1.923-0.07,2.882
										c-0.067,3.614-0.133,7.199-0.199,10.753l0.307-0.049c-2.588-5.99-4.592-12.104-6.055-18.248
										c-0.249-1.043-0.362-0.448-0.159,0.623c1.204,6.152,2.965,12.187,5.245,18l1.699-0.27
										c0.291-5.974,0.582-11.946,0.873-17.907c0.084-1.748,0.168-3.497,0.252-5.242l0.786,4.899
										c0.799,5.065,1.598,10.129,2.396,15.19l1.34-0.065c0.492-8.96,1.346-17.899,2.557-26.789l-1.269-0.045l1.444,22.093
										l1.251,0.081c1.905-9.704,3.341-19.502,4.301-29.352l-1.306-0.039c0.174,4.974,0.348,9.949,0.522,14.928l0.858,5.339
										l1.61-5.006c1.151-6.323,2.303-12.65,3.456-18.979l-1.476-0.077c0.553,7.832,0.393,15.718-0.48,23.53l1.602,0.277
										c1.242-5.126,2.486-10.257,3.73-15.391c0.904-3.725,1.808-7.45,2.711-11.171l-1.797-0.249
										c-0.398,8.795-1.424,17.557-3.063,26.194l1.933,0.625c4.883-10.53,9.764-21.058,14.645-31.583l-2.208-0.899
										c-2.678,7.064-6.075,13.851-10.116,20.221l1.971,1.678c8.487-7.372,16.685-15.077,24.569-23.095l-2.389-1.657l-0.033,0.068
										c-4.142,8.667-9.112,16.935-14.823,24.652l2.252,2.213c7.468-5.641,14.479-11.89,20.945-18.664l-2.704-2.02l-5.137,8.787
										c-2.144,3.675-4.28,7.337-6.4,10.972c0.412,0.426,0.854,0.822,1.309,1.199c0.468,0.374,0.922,0.766,1.394,1.117
										c2.325-2.093,4.635-4.174,6.93-6.24c0.815-0.743,1.627-1.484,2.435-2.222c0.56-0.522,1.119-1.042,1.675-1.56
										c2.218-2.079,4.375-4.156,6.45-6.234l-2.126-1.512c-0.303,0.862-0.654,1.705-1.063,2.519
										c-0.947,1.879-1.758,3.089-2.144,3.866c-0.396,0.77-0.37,1.121,0.077,1.066c0.443-0.056,1.307-0.53,2.381-1.549
										c1.064-1.017,2.333-2.602,3.338-4.824l-2.332-1.658C148.16,42.471,147.443,43.093,146.694,43.764z"/>
								</g>
							</g>
						</g>
						<g>
							<g>
								<g>
									<path style="fill:#1D1D1D;" d="M212.48,77.855c-0.265-2.181-0.635-4.349-1.114-6.492c-0.12-0.536-0.244-1.071-0.379-1.603
										l-0.119-0.48l-0.192-0.701l-0.386-1.399c-0.556-1.818-1.111-3.521-1.7-5.328c-0.238,0.217-0.607,0.818-0.905,1.257
										l-0.892,1.359c-0.578,0.878-1.151,1.873-1.621,3.068c-0.235,0.587-0.444,1.24-0.594,1.815l-0.061,0.222l-0.033,0.149
										l-0.066,0.297c-0.046,0.198-0.077,0.399-0.115,0.598c-0.139,0.8-0.216,1.612-0.228,2.426l2.877-0.325
										c-1.159-4.716-1.519-9.683-2.111-14.702c-0.592-5.004-1.432-10.195-3.681-15.003l-2.803,0.589
										c-0.235,8.997,0.249,18.017,1.453,26.945l2.996-0.518c-1.631-7.866-3.263-15.733-4.896-23.603
										c-0.206-0.971-0.394-1.994-0.723-3.074c-0.336-1.078-0.8-2.196-1.646-3.221c-0.108-0.122-0.21-0.248-0.326-0.362
										l-0.171-0.174l-0.258-0.228c-0.346-0.31-0.736-0.573-1.128-0.792c-0.793-0.424-1.62-0.651-2.383-0.664
										c-0.383-0.01-0.747,0.031-1.135,0.055c-0.176,0.031-0.435-0.006-0.557,0.084l-0.071,0.568l-0.285,2.271
										c0.002,0.434,0.043,0.957,0.065,1.367l0.045,0.759l0.102,1.518l0.242,3.034c0.182,2.021,0.404,4.038,0.657,6.051
										c0.714,5.607,1.7,11.303,2.996,17.014l3.122-1.081c-4.785-10.443-9.671-21.17-14.661-31.785l-3.402,1.115
										c2.02,9.963,4.864,19.717,8.464,28.873l2.405-0.883c-4.089-9.644-8.295-18.906-12.649-27.493
										c-0.246-0.485-0.348-0.139-0.146,0.371c3.647,9.29,7.289,18.566,10.928,27.837l1.348-0.495
										c-3.353-9.349-6.013-18.944-7.962-28.686l-1.192,0.391c4.901,10.577,9.805,21.158,14.717,31.759l1.338-0.463
										c-1.987-8.676-3.265-17.524-3.806-26.43l-0.106-1.997l-0.02-0.604l-0.01-0.298c0.087-0.022,0.2-0.014,0.298-0.011
										c0.408,0.032,0.787,0.213,1.093,0.459c0.081,0.066,0.141,0.118,0.233,0.212c0.117,0.117,0.227,0.241,0.331,0.37
										c0.205,0.256,0.383,0.543,0.545,0.856c0.643,1.247,0.902,2.78,1.224,4.362l0.945,4.716l3.764,18.863l2.378-0.411
										c-1.115-8.791-1.518-17.662-1.217-26.502l-2.799,0.588l0.185,0.444c1.883,4.297,2.626,9.072,3.155,13.916
										c0.538,4.851,0.865,9.854,2.04,14.848l3.359-0.379c0.017-0.659,0.087-1.319,0.208-1.969
										c0.033-0.162,0.06-0.325,0.101-0.486c0.037-0.159,0.083-0.362,0.084-0.346c0.029-0.1,0.024-0.064,0.034-0.089
										c0.028-0.041,0.059-0.051,0.062,0c0.002,0.058-0.006,0.064-0.006,0.064c0.122,0.494,0.244,0.985,0.365,1.474
										c0.148,0.632,0.294,1.261,0.441,1.887c0.537,2.511,1.062,4.963,1.58,7.385c0.508,2.403,1.156,3.102,1.727,2.446
										C212.389,82.808,212.83,80.764,212.48,77.855z"/>
								</g>
							</g>
						</g>
						<g>
							<g>
								<g>
									<path style="fill:#1D1D1D;" d="M138.076,52.143c-2.129-2.831-4.336-5.604-6.618-8.316l-2.436,1.729
										c5.953,10.024,12.62,19.626,19.962,28.684c3.67,4.516,7.474,8.995,11.823,13.012c4.339,4,9.277,7.541,14.878,9.805
										l1.551-2.42l-18.122-17.121l-9.062-8.563l-2.265-2.141c-0.764-0.712-1.479-1.424-2.329-2.166
										c-0.839-0.726-1.772-1.433-2.911-1.971c-1.125-0.532-2.606-0.826-4.012-0.45l-2.125,0.568l1.345,1.731
										c5.424,6.979,11.995,13.047,19.342,17.947c3.675,2.448,7.541,4.613,11.564,6.44c2.018,0.898,4.06,1.744,6.142,2.486
										c1.069,0.353,2.026,0.746,3.208,1.061c1.147,0.302,2.341,0.504,3.622,0.479c0.319-0.003,0.646-0.031,0.976-0.075
										c0.17-0.015,0.317-0.054,0.517-0.092c0.241-0.039,0.471-0.116,0.695-0.202c0.932-0.286,1.719-0.821,2.252-1.458
										c0.306-0.305,0.483-0.656,0.736-1.002l0.356-0.538c-0.087-0.145-0.28-0.271-0.415-0.408l-1.785-1.61l-0.893-0.805
										c-0.166-0.157-0.257-0.214-0.369-0.299l-0.327-0.243l-1.308-0.972l-2.619-1.939c-3.496-2.58-7.009-5.139-10.535-7.678
										c-7.054-5.077-14.168-10.073-21.339-14.985l-1.998,2.126c5.659,7.23,12.534,13.485,20.226,18.488
										c3.855,2.487,7.915,4.659,12.127,6.482c2.099,0.929,4.253,1.73,6.427,2.467c1.054,0.359,2.237,0.809,3.735,0.85
										c0.74,0.014,1.6-0.133,2.354-0.549c0.719-0.39,1.404-1.032,1.81-1.841c0.388-0.816,0.463-1.65,0.43-2.402
										c-0.06-0.741-0.222-1.426-0.45-2.053c-0.447-1.265-1.117-2.346-1.898-3.353c-0.385-0.5-0.841-0.98-1.301-1.413
										l-1.277-1.149c-0.841-0.778-1.73-1.501-2.602-2.243c-3.518-2.936-7.275-5.578-11.185-7.962
										c-3.915-2.377-7.991-4.493-12.215-6.27c-1.059-0.437-2.111-0.891-3.188-1.283l-1.607-0.609l-2.648-0.876
										c-1.736-0.612-3.612-1.104-5.45-1.63l-5.668-1.569l3.581,3.667l3.584,3.516c0.283,0.289,0.636,0.591,0.965,0.888
										c0.322,0.298,0.671,0.596,1.051,0.891l1.6,1.286c0.833,0.638,1.702,1.227,2.552,1.843c3.47,2.36,7.199,4.332,11.096,5.881
										c7.789,3.097,16.27,4.513,24.664,3.93c1-0.03,2.239-0.166,3.348-0.5c1.125-0.344,2.276-0.81,3.322-1.787
										c0.514-0.48,0.994-1.147,1.226-1.943c0.229-0.794,0.235-1.609,0.02-2.382c-0.472-1.573-1.565-2.492-2.489-3.17
										c-0.976-0.691-1.859-1.133-2.769-1.673c-0.918-0.499-1.833-1.005-2.772-1.463c-1.862-0.95-3.788-1.766-5.727-2.543
										c-7.79-3.033-16.128-4.62-24.502-4.662c-4.179,0.017-8.622,0.452-12.633,2.601c-1.009,0.539-1.899,1.166-2.829,1.951
										c-0.122,0.109-0.247,0.233-0.371,0.366c-0.128,0.135-0.302,0.351-0.427,0.539c-0.265,0.395-0.453,0.837-0.528,1.3
										c-0.163,0.933,0.179,1.895,0.799,2.62c0.532,0.629,0.991,0.932,1.44,1.265l0.683,0.5l0.722,0.438
										c0.959,0.592,1.99,1.046,3.031,1.438c4.216,1.527,8.646,1.524,12.825,1.058c4.214-0.509,8.23-1.512,12.222-2.652
										c3.985-1.164,7.893-2.585,11.701-4.238c1.904-0.828,3.778-1.722,5.627-2.665c0.925-0.471,1.84-0.962,2.749-1.463
										l1.355-0.766c0.444-0.256,0.899-0.498,1.422-0.855c0.506-0.353,1.067-0.792,1.534-1.5c0.477-0.72,0.713-1.677,0.539-2.619
										c-0.087-0.472-0.283-0.918-0.551-1.317c-0.134-0.18-0.279-0.345-0.427-0.51c-0.15-0.136-0.304-0.269-0.46-0.397
										c-0.626-0.461-1.253-0.715-1.864-0.905c-1.214-0.366-2.442-0.456-3.636-0.344l-3.091,0.316
										c-4.115,0.483-8.203,1.191-12.24,2.117c-11.803,2.709-23.317,7.294-33.91,13.689l1.187,2.953
										c8.555-1.913,16.902-4.989,24.722-9.166c3.903-2.098,7.697-4.434,11.295-7.064c1.79-1.271,3.65-2.721,5.258-4.447
										c1.6-1.719,3.091-3.816,3.656-6.446c0.035-0.163,0.079-0.322,0.093-0.491l0.076-0.662c0.067-0.545-0.02-1.028-0.043-1.536
										c-0.026-0.502-0.089-1.008-0.154-1.514c-0.039-0.243-0.044-0.528-0.111-0.737l-0.731,0.029
										c-0.493,0.025-0.955,0.016-1.504,0.104l-1.51,0.19c-0.556,0.071-1.113,0.133-1.666,0.229
										c-2.217,0.336-4.428,0.735-6.621,1.225c-4.387,0.971-8.715,2.247-12.941,3.817c-4.226,1.57-8.351,3.433-12.333,5.576
										c-1.992,1.07-3.942,2.221-5.861,3.423c-0.957,0.605-1.893,1.244-2.84,1.866l-2.906,2.071
										c-0.873,0.664-1.646,1.427-2.188,2.182c-0.543,0.759-0.852,1.492-0.985,2.185c-0.112,0.687-0.092,1.378,0.135,2.047
										l0.164,0.53c0.065,0.171,0.076,0.444,0.276,0.359l0.938-0.02l1.877-0.039c0.228,0.073,0.851-0.221,1.323-0.374
										c0.495-0.168,1.014-0.387,1.528-0.594l1.919-0.782l1.561-0.703c4.154-1.892,8.149-4.146,11.901-6.757
										c3.756-2.603,7.29-5.531,10.546-8.746c0.822-0.796,1.591-1.644,2.389-2.464c0.761-0.854,1.529-1.703,2.27-2.576
										l1.087-1.329l0.543-0.665c0.196-0.29,0.422-0.728,0.632-1.085l1.282-2.256l0.32-0.564c0.112-0.094-0.061-0.188-0.103-0.281
										l-0.212-0.281l-0.413-0.544c-0.147-0.173-0.331-0.32-0.494-0.481c-0.716-0.59-1.705-0.949-2.804-0.965l-0.827,0.028
										c-0.132,0.009-0.288,0.041-0.389,0.054l-0.27,0.044c-0.346,0.073-0.685,0.157-1.006,0.259
										c-0.645,0.204-1.246,0.458-1.825,0.749c-0.284,0.141-0.583,0.311-0.838,0.46l-0.725,0.433
										c-1.934,1.153-3.858,2.324-5.757,3.534c-3.805,2.408-7.545,4.916-11.211,7.526c-7.327,5.225-14.365,10.842-21.065,16.812
										l2.479,2.51c6.489-7.111,14.672-12.663,22.238-19.108c3.782-3.227,7.448-6.709,10.517-10.759
										c0.802-0.982,1.482-2.062,2.168-3.136l0.517-0.803l0.129-0.201l0.16-0.329l0.323-0.675l1.29-2.69l0.642-1.344l0.603-1.496
										l1.2-2.979l0.299-0.742l0.149-0.371l-0.336,0.192l-1.365,0.795l-2.718,1.583l-1.358,0.796l-1.405,0.867l-2.43,1.578
										c-1.038,0.662-2.032,1.386-3.047,2.077c-2.013,1.407-3.992,2.855-5.931,4.346c-3.885,2.973-7.635,6.087-11.284,9.282
										c-7.3,6.392-14.2,13.099-21.021,19.754l1.722,1.402c9.352-15.285,18.533-30.38,27.502-45.235l-0.694-0.529
										c-13.135,14.755-23.704,31.127-31.549,48.093c-0.966,2.071-0.231,1.083,0.794-0.994
										c8.353-16.798,19.067-32.414,31.698-46.232l-1.334-1.017c-9.339,14.987-18.673,29.966-27.995,44.926l1.144,0.932
										c7.029-6.743,14.06-13.474,21.421-19.816c3.68-3.17,7.442-6.242,11.318-9.159c0.964-0.736,1.94-1.456,2.929-2.157
										c0.981-0.713,1.968-1.417,2.974-2.093c0.998-0.687,1.998-1.373,3.021-2.022c0.661-0.429,1.284-0.841,1.949-1.237
										c0.551-0.278,1.73-1.294,1.024-0.092c-0.283,0.708-0.547,1.41-0.99,2.183l-0.598,1.134
										c-0.258,0.436-0.634,0.984-0.945,1.471c-0.329,0.499-0.645,1.008-0.985,1.5l-1.1,1.424
										c-2.95,3.789-6.494,7.106-10.194,10.225c-7.399,6.241-15.555,11.757-22.228,19.037l0.894,0.905
										c6.598-5.86,13.51-11.368,20.696-16.493c3.591-2.565,7.258-5.023,10.985-7.387c1.864-1.181,3.74-2.344,5.638-3.47
										c0.963-0.576,1.853-1.144,2.828-1.49c0.472-0.179,1.007-0.322,1.44-0.377c0.356-0.046,0.724-0.044,1.069,0.063
										c0.345,0.103,0.652,0.33,0.843,0.636c-0.186,0.317-0.468,0.64-0.698,0.96l-0.363,0.481l-0.181,0.24l-0.251,0.31
										l-1.042,1.274c-1.393,1.695-2.887,3.304-4.417,4.877c-3.095,3.112-6.466,5.947-10.049,8.48
										c-3.586,2.529-7.382,4.766-11.354,6.632c-1.004,0.441-1.991,0.924-3.01,1.331l-1.153,0.466
										c-0.327,0.138-0.662,0.255-0.996,0.375l-1,0.359l-0.125,0.045c-0.034-0.001-0.032-0.073-0.05-0.106
										c-0.031-0.084-0.044-0.171-0.056-0.259c-0.024-0.176-0.011-0.355,0.027-0.528c0.167-0.699,0.669-1.255,1.192-1.719
										c0.395-0.364,1.48-1.085,2.338-1.711c0.885-0.653,1.824-1.227,2.733-1.844c1.844-1.198,3.734-2.322,5.653-3.397
										c3.845-2.135,7.844-3.992,11.95-5.568c4.106-1.576,8.321-2.87,12.605-3.866c1.071-0.249,2.143-0.495,3.225-0.691
										c1.078-0.219,2.159-0.417,3.247-0.578l1.629-0.257l1.409-0.177l0.508-0.064c0.156-0.003,0.402-0.123,0.357,0.131
										c0.053,0.338,0.058,0.682,0.032,1.022c-0.025,0.126-0.028,0.4-0.093,0.648c-0.064,0.245-0.097,0.497-0.183,0.738
										c-0.149,0.488-0.347,0.963-0.574,1.428c-0.463,0.929-1.079,1.796-1.77,2.605c-1.392,1.622-3.051,3.022-4.832,4.304
										c-3.536,2.617-7.256,4.987-11.128,7.078c-7.732,4.207-16.06,7.307-24.649,9.232l0.555,1.381
										c10.978-6.637,23.115-11.357,35.694-13.919c3.148-0.626,6.319-1.131,9.506-1.513l2.395-0.241
										c0.833-0.099,1.501-0.142,2.24-0.043c0.72,0.082,1.427,0.288,1.983,0.6c0.548,0.344,0.82,0.707,0.753,1.172
										c-0.007,0.458-0.392,0.907-0.975,1.321c-0.571,0.402-1.326,0.79-2.009,1.19c-1.398,0.786-2.815,1.537-4.251,2.249
										c-2.874,1.422-5.811,2.721-8.814,3.848c-2.989,1.125-6.028,2.122-9.115,2.942c-3.087,0.814-6.209,1.542-9.339,1.95
										c-3.129,0.389-6.304,0.477-9.343-0.09c-1.514-0.292-2.985-0.751-4.352-1.412c-0.691-0.317-1.335-0.718-1.961-1.139
										l-0.905-0.673c-0.275-0.228-0.495-0.459-0.568-0.594c-0.102-0.164-0.152-0.367-0.102-0.557
										c0.061-0.207,0.134-0.313,0.337-0.524c0.208-0.22,0.528-0.448,0.824-0.677c0.289-0.239,0.62-0.424,0.928-0.638
										c1.281-0.793,2.704-1.368,4.182-1.786c2.974-0.809,6.141-0.984,9.305-0.888c6.344,0.17,12.669,1.251,18.699,3.233
										c3.015,0.989,5.959,2.192,8.8,3.601c1.424,0.697,2.813,1.465,4.18,2.266c1.351,0.753,2.596,1.688,2.777,2.667
										c0.084,0.508-0.009,0.965-0.36,1.383c-0.334,0.43-0.923,0.79-1.552,1.066c-0.637,0.278-1.349,0.464-2.066,0.579
										c-0.689,0.119-1.518,0.124-2.296,0.177c-3.148,0.176-6.317,0.078-9.445-0.35c-6.266-0.782-12.377-2.717-18.003-5.569
										c-2.8-1.454-5.493-3.113-8.015-5.006c-0.319-0.232-0.616-0.491-0.925-0.735l-0.435-0.352
										c-0.225-0.174-0.428-0.369-0.634-0.557c-0.205-0.189-0.414-0.371-0.599-0.573l-0.284-0.294l-0.141-0.146l-0.07-0.073
										l-0.035-0.036l0.052,0.015c0.383,0.112,0.766,0.209,1.137,0.329c0.381,0.122,0.686,0.211,1.241,0.41l0.744,0.26
										l1.559,0.595c1.045,0.382,2.065,0.826,3.092,1.251c4.097,1.733,8.052,3.795,11.848,6.11
										c3.791,2.321,7.434,4.892,10.841,7.747c0.844,0.722,1.706,1.424,2.52,2.18l1.237,1.116
										c0.366,0.349,0.697,0.696,1.006,1.097c0.61,0.786,1.145,1.667,1.453,2.559c0.162,0.444,0.254,0.885,0.29,1.29
										c0.012,0.394-0.034,0.742-0.153,0.99c-0.135,0.234-0.317,0.426-0.613,0.596c-0.266,0.15-0.587,0.217-0.989,0.213
										c-0.81-0.012-1.804-0.327-2.865-0.708c-2.096-0.716-4.174-1.492-6.198-2.392c-4.063-1.767-7.979-3.872-11.699-6.28
										c-7.419-4.846-14.047-10.901-19.488-17.88l-1.946,2.071c4.47,3.077,8.921,6.181,13.345,9.322
										c5.961,4.23,11.883,8.516,17.76,12.862l4.4,3.27l1.166,0.875l0.172,0.13c0.064,0.044,0.128,0.089,0.078,0.112
										c-0.038,0.058-0.091,0.105-0.148,0.143c-0.057,0.038-0.123,0.06-0.188,0.078l-0.09,0.016
										c-0.081,0.017-0.161,0.035-0.251,0.041c-0.174,0.02-0.348,0.041-0.535,0.041c-0.735,0.026-1.536-0.073-2.332-0.254
										c-0.399-0.087-0.797-0.199-1.191-0.323l-1.263-0.436c-0.847-0.296-1.698-0.579-2.528-0.92
										c-13.413-5.121-25.336-14.046-34.124-25.366l-0.878,2.588c0.573-0.141,1.203-0.058,1.928,0.273
										c0.717,0.34,1.457,0.874,2.175,1.503c0.707,0.616,1.47,1.372,2.224,2.078l2.261,2.145l9.045,8.579l18.089,17.159
										l1.83-2.856c-2.066-0.844-4.057-1.883-5.963-3.076c-4.362-2.727-8.232-6.236-11.79-10.019
										c-3.553-3.79-6.853-7.866-10.057-11.939c-6.377-8.176-12.144-16.612-17.328-25.116l-2.693,1.911
										c5.055,5.861,9.699,11.868,13.94,17.946c2.996,4.294,4.884,7.084,5.992,8.429c1.099,1.35,1.408,1.261,0.99-0.055
										C149.12,69.572,145.406,61.94,138.076,52.143z"/>
								</g>
							</g>
						</g>
						<g>
							<g>
								<g>
									<path style="fill:#1D1D1D;" d="M159.232,34.248c-4.835,3.648-9.799,7.127-14.879,10.429
										c-2.54,1.651-5.111,3.256-7.708,4.817c-1.307,0.765-2.607,1.619-3.796,2.104c-1.213,0.508-2.322,0.575-3.239,0.124
										c-0.894-0.474-1.141-1.04-0.94-2.257c0.11-0.59,0.339-1.246,0.599-1.969l0.769-2.132c1.044-2.836,2.158-5.647,3.352-8.423
										c2.38-5.557,5.058-10.985,8.004-16.264l-2.333-1.865c-5.856,5.229-10.373,11.556-14.856,17.663l-13.468,18.411l2.606,1.823
										l2.381-3.536c9.331-13.826,19.821-28.196,30.245-42.396l-3.044-1.887c-4.443,8.79-8.769,17.637-12.302,26.541
										c-3.537,8.891-6.268,17.85-7.646,26.506c-0.089,0.516,0.199,0.308,0.337-0.202c2.369-9.052,5.693-17.841,9.476-26.415
										c3.785-8.58,8.028-16.956,12.298-25.325l-1.071-0.664c-11.175,15.101-22.074,30.419-32.687,46.03l1.364,0.954
										c1.027-1.387,2.056-2.777,3.085-4.167l12.054-16.231c4.014-5.386,8.109-10.707,13.064-15.051l-1.909-1.526
										c-3.881,6.816-7.31,13.892-10.252,21.173c-0.522,1.288-1.028,2.583-1.515,3.884l-0.722,1.956
										c-0.232,0.64-0.494,1.325-0.691,2.119c-0.19,0.785-0.327,1.71-0.125,2.727c0.185,1.012,0.824,2.015,1.61,2.633
										c0.791,0.632,1.687,0.986,2.59,1.154c0.901,0.167,1.877,0.11,2.69-0.086c1.678-0.388,3.015-1.191,4.212-1.88l3.579-2.121
										c2.375-1.432,4.729-2.901,7.061-4.404c5.737-3.691,11.335-7.413,15.664-11.831C166.48,31.15,163.606,30.923,159.232,34.248
										z"/>
								</g>
							</g>
						</g>
					</g>
					<g>
						<g>
							<g>
								<path style="fill:#1D1D1D;" d="M166.561,54.567l-1.699,0.179l0.071,2.997c8.017,0.51,16.089,0.125,24.02-1.147l-0.127-2.935
									c-9.268-0.659-18.571-0.83-27.86-0.511l0.144,2.918c10.798-0.701,21.525-2.508,31.962-5.386l-0.607-2.842
									c-10.488,1.601-20.982,3.202-31.477,4.804l0.746,2.811c12.894-4.956,25.921-9.954,38.158-16.746l-1.14-2.723
									c-8.446,2.471-16.899,4.945-25.353,7.419l-1.403,0.404l1.365-0.703c7.575-3.94,15.156-7.883,22.739-11.826l-1.323-2.804
									C179.193,35.071,163.597,41.671,148,48.272l1.445,2.806c10.541-6.467,21.192-13.013,30.866-21.008
									c3.819-3.161,7.505-6.563,10.942-10.267l-2.024-2.446c-15.325,9.486-30.998,19.188-46.84,28.994l1.985,2.817
									c6.812-5.386,13.691-10.83,20.236-16.759c6.538-5.922,12.75-12.354,18.028-19.57l-2.653-2.433
									c-12.379,10.843-24.756,21.685-37.002,32.411c-0.039,0.007-0.146-0.017-0.107-0.055l0.064-0.113
									c0.042-0.073,0.101-0.171,0.21-0.332l0.037-0.055l0.223-0.299l0.497-0.668l1.005-1.327c0.671-0.883,1.362-1.75,2.055-2.614
									c2.78-3.45,5.73-6.744,8.81-9.889c1.545-1.569,3.124-3.092,4.735-4.587c1.615-1.495,3.268-2.983,4.87-4.547
									c3.193-3.106,6.244-6.642,7.985-10.922l1.493-3.671l-3.091,2.428c-16.886,13.261-31.523,28.285-43.554,44.019l-0.993-0.779
									c0.431-0.63,0.847-1.238,1.263-1.845c0.8-1.172,0.177-0.7-0.676,0.459l-0.867,1.178l1.541,1.209
									c13.074-15.935,28.004-30.33,44.374-42.805l-1.15-0.895c-1.698,4.01-4.686,7.37-7.92,10.412
									c-1.616,1.534-3.305,3.012-4.973,4.53c-1.668,1.522-3.303,3.083-4.895,4.684c-3.19,3.199-6.203,6.571-9.054,10.072
									c-0.71,0.877-1.412,1.762-2.101,2.657c-0.719,0.942-1.261,1.643-2.242,3.004c-0.45,0.609-0.884,1.218-1.289,1.824
									l-0.622,0.91l-0.155,0.227c-0.058,0.08-0.106,0.153-0.107,0.191l-0.087,0.287l-0.175,0.575l-0.088,0.288
									c-0.005,0.049-0.05,0.093-0.023,0.146l0.161,0.169c0.436,0.459,1.059,0.63,1.613,0.612c1.125-0.048,2.195-0.563,3.298-1.4
									c0.566-0.42,1.148-0.962,1.72-1.455l1.306-1.143l5.072-4.438l10.146-8.874l20.304-17.74l-0.927-0.85
									c-5.129,7.013-11.191,13.312-17.636,19.166c-6.451,5.86-13.292,11.295-20.147,16.727l0.775,1.1
									c15.592-9.662,31.198-19.333,46.825-29.017l-0.973-1.176c-9.087,9.804-20.168,17.546-31.521,24.694
									c-3.26,2.054-6.55,4.065-9.842,6.072l0.822,1.597c15.614-6.56,31.226-13.118,46.829-19.673l-0.908-1.925
									c-11.697,6.052-23.392,12.104-35.083,18.153c-0.852,0.874-1.648,1.731-2.386,2.57c1.112,0.094,2.172,0.216,3.178,0.366
									l38.962-11.307l-1.065-2.542c-6.969,3.829-14.242,7.116-21.638,10.136c-5.352,2.193-10.771,4.254-16.199,6.325l0.782,2.945
									l31.49-4.719l-0.677-3.172c-10.238,2.793-20.762,4.534-31.348,5.185l0.169,3.426c2.654-0.081,5.308-0.122,7.963-0.123
									c6.592-0.001,13.133,0.272,19.553,0.739l-0.155-3.593c-7.886,1.249-15.733,1.621-23.306,1.361l0.072,3.056
									c3.083-0.441,6.137-0.769,9.156-1.005c3.214-0.244,5.29-0.418,6.36-0.666c1.07-0.24,1.133-0.551,0.309-0.875
									C179.395,54.592,174.142,53.839,166.561,54.567z"/>
							</g>
						</g>
					</g>
				</g>
			</g>
			<g>
				<g>
					<g>
						<g>
							<path style="fill:#1D1D1D;" d="M96.46,249.76c-0.663,0.812-1.626,1.278-2.474,1.85c-0.37,0.25-0.935,0.236-1.264,0.583
								c-0.334,0.351-0.435,1.067-0.027,2.867c0.013,0.057,0.119,0.248,0.13,0.235c0.748-0.952,1.695-1.403,2.765-1.803
								c0.573-0.214,1.201-0.376,1.802-0.602c0.311-0.117,0.598-0.27,0.898-0.411c0.185-0.084,0.488-0.046,0.022-0.81
								C97.942,251.069,96.546,249.655,96.46,249.76z"/>
						</g>
					</g>
				</g>
				<g>
					<g>
						<g>
							<path style="fill:#1D1D1D;" d="M106.366,256.149c-0.814,0.762-1.85,1.21-2.756,1.844c-0.781,0.546-2.395,0.145-1.063,3.58
								c0.021,0.054,0.154,0.229,0.161,0.215c0.575-1.025,1.496-1.55,2.529-1.932c0.556-0.206,1.168-0.333,1.754-0.497
								c0.304-0.085,0.585-0.202,0.881-0.298c0.182-0.059,0.463,0.029,0.09-0.784C107.668,257.635,106.476,256.046,106.366,256.149z
								"/>
						</g>
					</g>
				</g>
				<g>
					<g>
						<g>
							<path style="fill:#1D1D1D;" d="M87.751,238.049c-0.954,0.895-2.136,1.483-3.185,2.253c-0.904,0.663-2.681,0.411-1.4,3.91
								c0.02,0.055,0.158,0.226,0.167,0.211c0.703-1.149,1.762-1.805,2.938-2.322c0.633-0.278,1.323-0.479,1.986-0.716
								c0.344-0.123,0.665-0.277,1.001-0.41c0.207-0.082,0.515-0.02,0.148-0.841C89.115,239.485,87.88,237.928,87.751,238.049z"/>
						</g>
					</g>
				</g>
				<g>
					<g>
						<g>
							<path style="fill:#1D1D1D;" d="M81.798,227.556c-0.976,0.392-2.039,0.486-3.025,0.872c-0.419,0.164-0.996,0.069-1.379,0.396
								c-0.378,0.323-0.556,1.068-0.029,2.818c0.017,0.055,0.128,0.244,0.135,0.232c0.542-0.876,1.443-1.182,2.383-1.239
								c0.509-0.032,1.044,0.048,1.552,0.108c0.269,0.02,0.511,0.039,0.771,0.059c0.159,0.016,0.349,0.212,0.277-0.675
								C82.428,229.425,81.935,227.502,81.798,227.556z"/>
						</g>
					</g>
				</g>
				<g>
					<g>
						<g>
							<path style="fill:#1D1D1D;" d="M198.2,253.047c1.433,0.906,2.578,2.176,3.805,3.324c1.087,1.016,1.271,2.998,4.851,1.625
								c0.057-0.021,0.211-0.177,0.191-0.19c-1.512-0.914-2.603-2.155-3.664-3.513c-0.546-0.737-1.119-1.51-1.679-2.267
								c-0.301-0.387-0.632-0.742-0.954-1.111c-0.195-0.228-0.288-0.592-1.03-0.055C199.135,251.287,198.009,252.927,198.2,253.047z
								"/>
						</g>
					</g>
				</g>
				<g>
					<g>
						<g>
							<path style="fill:#1D1D1D;" d="M203.665,245.22c1.304,1.146,2.332,2.558,3.523,3.814c1.027,1.082,1.291,3.183,4.843,1.729
								c0.056-0.023,0.206-0.183,0.186-0.194c-1.513-0.854-2.579-2.12-3.525-3.522c-0.509-0.755-0.949-1.576-1.421-2.366
								c-0.245-0.41-0.518-0.792-0.772-1.193c-0.156-0.247-0.181-0.611-0.994-0.19C204.864,243.63,203.488,245.065,203.665,245.22z"
								/>
						</g>
					</g>
				</g>
				<g>
					<g>
						<g>
							<path style="fill:#1D1D1D;" d="M210.179,237.973c1.374,1.139,2.48,2.552,3.745,3.804c1.09,1.079,1.454,3.204,4.987,1.667
								c0.056-0.024,0.201-0.189,0.18-0.2c-1.572-0.839-2.711-2.103-3.733-3.508c-0.55-0.756-1.033-1.581-1.548-2.373
								c-0.267-0.411-0.561-0.794-0.837-1.196c-0.17-0.247-0.211-0.616-1.016-0.175C211.321,236.34,209.993,237.819,210.179,237.973
								z"/>
						</g>
					</g>
				</g>
				<g>
					<g>
						<g>
							<path style="fill:#1D1D1D;" d="M211.896,229.189c1.454,0.506,2.747,1.361,4.137,2.01c1.197,0.56,2.035,2.337,4.663-0.385
								c0.042-0.043,0.124-0.246,0.103-0.248c-1.548-0.161-2.833-0.869-4.053-1.748c-0.657-0.473-1.273-1.033-1.909-1.552
								c-0.329-0.269-0.675-0.503-1.01-0.761c-0.206-0.159-0.333-0.475-0.909,0.226
								C212.463,227.286,211.699,229.121,211.896,229.189z"/>
						</g>
					</g>
				</g>
				<g>
					<g>
						<g>
							<path style="fill:#1D1D1D;" d="M165.392,279.256c0.79,1.11,1.318,2.379,2.11,3.495c0.649,0.926,0.593,2.866,3.984,1.302
								c0.053-0.025,0.211-0.177,0.196-0.184c-1.184-0.579-1.881-1.627-2.349-2.788c-0.254-0.627-0.405-1.31-0.57-1.966
								c-0.098-0.342-0.189-0.661-0.284-0.995c-0.054-0.207,0.056-0.491-0.803-0.229
								C166.995,278.096,165.282,279.102,165.392,279.256z"/>
						</g>
					</g>
				</g>
				<g>
					<g>
						<g>
							<path style="fill:#1D1D1D;" d="M150.31,285.341c0.415,1.293,0.363,2.668,0.442,4.002c0.034,0.58-0.26,1.203-0.128,1.806
								c0.133,0.608,0.695,1.199,2.447,1.882c0.055,0.022,0.275,0.024,0.269,0.005c-0.426-1.422-0.336-2.763-0.155-4.183
								c0.097-0.762,0.262-1.543,0.354-2.332c0.047-0.409,0.05-0.814,0.069-1.225c0.014-0.251,0.193-0.54-0.71-0.579
								C152.184,284.689,150.255,285.172,150.31,285.341z"/>
						</g>
					</g>
				</g>
				<g>
					<g>
						<g>
							<path style="fill:#1D1D1D;" d="M141.803,282.594c-0.873,1.4-1.922,2.69-2.637,4.197c-0.304,0.641-0.893,1.235-1.028,2
								c-0.133,0.755,0.196,1.676,1.776,2.71c0.05,0.032,0.265,0.077,0.263,0.057c-0.135-1.505,0.481-2.878,1.363-4.032
								c0.477-0.626,1.067-1.17,1.639-1.692c0.297-0.27,0.565-0.554,0.866-0.81c0.183-0.162,0.504-0.196-0.064-0.902
								C143.535,283.561,141.925,282.398,141.803,282.594z"/>
						</g>
					</g>
				</g>
				<g>
					<g>
						<g>
							<path style="fill:#1D1D1D;" d="M129.095,277.609c-0.933,0.801-2.036,1.376-2.949,2.216c-0.388,0.357-1.02,0.54-1.311,1.047
								c-0.287,0.501-0.228,1.323,0.882,2.794c0.035,0.046,0.211,0.178,0.214,0.162c0.266-1.138,1.103-1.877,2.076-2.373
								c0.526-0.27,1.119-0.439,1.682-0.611c0.292-0.089,0.56-0.204,0.846-0.288c0.177-0.055,0.442,0.05,0.091-0.772
								C130.352,279.133,129.226,277.496,129.095,277.609z"/>
						</g>
					</g>
				</g>
				<g>
					<g>
						<g>
							<path style="fill:#1D1D1D;" d="M119.442,269.098c-0.504,0.931-1.316,1.633-1.948,2.471c-0.544,0.722-2.17,0.796,0.189,3.612
								c0.037,0.044,0.217,0.17,0.22,0.155c0.197-1.109,0.877-1.85,1.709-2.49c0.448-0.345,0.972-0.632,1.46-0.946
								c0.253-0.163,0.475-0.349,0.718-0.519c0.15-0.105,0.438-0.102-0.173-0.751C121.134,270.115,119.51,268.972,119.442,269.098z"
								/>
						</g>
					</g>
				</g>
				<g>
					<g>
						<g>
							<path style="fill:#1D1D1D;" d="M173.728,274.018c1.491,1.102,2.732,2.495,4.122,3.717c1.197,1.053,1.737,3.199,5.217,1.494
								c0.055-0.027,0.19-0.2,0.167-0.211c-1.67-0.789-2.932-2.03-4.086-3.416c-0.622-0.747-1.18-1.565-1.767-2.351
								c-0.305-0.407-0.635-0.785-0.948-1.182c-0.193-0.245-0.265-0.618-1.05-0.137
								C174.763,272.312,173.527,273.869,173.728,274.018z"/>
						</g>
					</g>
				</g>
				<g>
					<g>
						<g>
							<path style="fill:#1D1D1D;" d="M187.688,265.897c1.273,0.963,2.331,2.173,3.579,3.175c1.05,0.847,1.624,2.844,4.717,0.645
								c0.049-0.035,0.166-0.22,0.145-0.226c-1.499-0.434-2.632-1.414-3.606-2.564c-0.526-0.62-0.975-1.321-1.438-1.993
								c-0.253-0.345-0.494-0.673-0.743-1.012c-0.15-0.211-0.17-0.547-0.933-0.054C188.806,264.256,187.513,265.765,187.688,265.897
								z"/>
						</g>
					</g>
				</g>
			</g>
		</g>
	</g>
</g>
</svg>
