<?xml version="1.0" encoding="UTF-8"?><svg id="Calque_2" xmlns="http://www.w3.org/2000/svg" viewBox="0 0 300 300"><defs><style>.cls-1{fill:#1d1d1d;}.cls-2{fill:#1db4b8;}</style></defs><path class="cls-2" d="M109.08,178.27c6.43-2.6,13.34-4,20.27-4.58,6.94-.58,13.91-.36,20.82.22,1.49.08,2.99.4,4.49.75.75.17,1.5.35,2.26.55.75.22,1.49.45,2.25.67,1.5.43,3,.85,4.51,1.28,1.51.4,3.04.69,4.58.95,1.55.24,3.15.26,4.79.23.82-.03,1.67-.12,2.54-.27.44-.07.88-.17,1.33-.27.44-.09.89-.19,1.35-.31,1.82-.47,3.8-1.27,5.92-2.28,2.11-1,4.4-2.32,6.94-4,.32-.21.76-1.39.56-1.44-7.51-1.92-14.69-3.81-21.93-5.59-7.23-1.77-14.52-3.4-22.04-4.61-8.08-1.29-16.42-2.3-24.91-2.16-2.19.06-4.4.14-6.59.41l-3.3.36c-1.1.14-2.19.33-3.29.48-2.69.33-5.74-.04-6.39,5.47-.25,2.18.81,5.87,2.13,8.95,1.32,3.07,2.86,5.54,3.73,5.2Z"/><path class="cls-2" d="M141,261.35c.5,5.43-1.19,10.72-1.59,16.11-.34,4.64-7.92,9.43,12.25,15.19.32.09,1.58.14,1.54.07-2.54-5.36-1.6-10.46.39-15.53,1.07-2.73,2.68-5.42,4.04-8.13.71-1.4,1.19-2.83,1.82-4.23.39-.87,1.79-1.65-3.19-2.79-3.93-.9-15.32-1.41-15.26-.68Z"/><path class="cls-1" d="M224.01,169.95c-1.83,14.57-3.66,29.14-5.49,43.71l-1.39,10.93c-.47,3.65-.87,7.27-1.7,10.72-.8,3.46-2.16,6.67-4.11,9.61-1.93,2.95-4.33,5.62-6.91,8.14-2.58,2.52-5.35,4.93-8.11,7.32-2.77,2.38-5.59,4.7-8.46,6.96-2.87,2.26-5.78,4.47-8.74,6.61-2.96,2.15-5.94,4.24-9.01,6.14-6.11,3.79-12.76,6.93-19.72,7.61-3.46.37-6.93-.12-10.17-1.23-3.24-1.17-6.24-3.11-9.12-5.25-9.92-7.68-19.82-16.31-29.42-25.39-2.4-2.28-4.78-4.59-7.15-6.93-2.37-2.34-4.72-4.67-6.82-7.14-2.1-2.46-3.96-5.09-5.28-7.92-1.31-2.82-2.05-5.93-2.47-9.13-.43-3.2-.61-6.52-.79-9.81-.17-3.3-.27-6.59-.35-9.88-.15-6.59-.29-13.13-.44-19.58-.37-12.9-.94-25.43-1.82-37.32-.06-.75-.28-.35-.27.41.07,14.11.14,28.2.21,42.28.03,7.04-.01,14.08.2,21.14.12,3.53.27,7.05.59,10.58.33,3.53.9,7.09,2.16,10.48,1.27,3.38,3.23,6.45,5.47,9.22,2.25,2.77,4.75,5.29,7.26,7.77,5.01,4.96,10.15,9.81,15.4,14.54,5.25,4.73,10.61,9.34,16.08,13.82,2.75,2.23,5.46,4.5,8.43,6.53,2.96,2.01,6.21,3.79,9.8,4.64,1.91.53,3.89.7,5.85.79,1.97-.02,3.94-.14,5.86-.53,3.86-.71,7.55-2.05,11.04-3.73,7.01-3.35,13.25-7.89,19.41-12.39,6.15-4.55,12.11-9.36,17.86-14.42,2.87-2.53,5.73-5.15,8.31-8.09,2.57-2.94,4.88-6.23,6.44-9.93,1.62-3.85,2.35-7.91,2.91-11.85l1.56-11.76,3.11-23.5c1.28-9.64,2.71-19.06,2.93-27.83.18-6.93-2.17-4.2-3.15,3.68Z"/><path class="cls-1" d="M72.66,209.99c-.83,1.83-1.92,3.35-3.44,4.06-1.52.75-2.97.42-4.28-.85-1.3-1.24-2.31-3.17-3.38-4.97-.99-1.85-1.94-3.73-2.73-5.67-1.62-3.88-2.82-7.92-3.61-12.05-.76-4.13-1.1-8.33-1.01-12.53.03-1.81.18-3.64.43-5.48.09-.93.29-1.84.44-2.77.15-.94.35-1.81.59-2.68.49-1.72,1.2-3.35,2.22-4.48,1.01-1.13,2.3-1.71,3.8-1.69,1.51.02,3.1.59,4.5,1.52,1.42.94,2.72,2.22,4,3.56,2.52,2.77,5.06,5.47,7.83,7.83.17.15.29-.07.16-.25l-3.71-5.01c-1.23-1.67-2.41-3.36-3.8-4.96-1.38-1.59-2.97-3.11-4.96-4.09-1.96-.95-4.3-1.37-6.49-.66-1.08.37-2.06.99-2.85,1.79-.8.79-1.39,1.74-1.87,2.71-.95,1.95-1.46,4.05-1.79,6.11-.72,4.12-1.03,8.32-.92,12.53.1,4.53.74,9.05,1.8,13.47,1.06,4.43,2.62,8.75,4.67,12.84l.81,1.59.88,1.55c.57,1.03,1.22,2.09,2.04,3.11.83,1.01,1.88,2.02,3.34,2.62.72.29,1.52.47,2.32.47.8,0,1.57-.14,2.28-.39,1.74-.6,3.19-1.76,4.12-3.1.94-1.33,1.41-2.75,1.52-4.12.14-2.18-2.03-2.02-2.91-.02Z"/><path class="cls-1" d="M222.9,214.15c.58.88,1.24,1.77,2.23,2.51.5.36,1.09.68,1.77.86.69.17,1.42.16,2.1,0,1.42-.36,2.31-1.24,3.01-1.93.68-.72,1.35-1.43,1.97-2.19,2.51-3.01,4.51-6.37,6.18-9.82,1.69-3.45,3.07-7,4.41-10.52,1.33-3.52,2.69-7.11,3.55-10.91.74-3.26,1.27-6.84.74-10.53-.11-.92-.33-1.84-.58-2.74-.15-.45-.28-.89-.44-1.35-.18-.47-.39-.94-.65-1.39-.52-.9-1.18-1.81-2.23-2.52-1.01-.73-2.57-1.06-3.8-.76-1.23.27-2.07.8-2.81,1.22-.77.43-1.51.91-2.23,1.39-1.45.98-2.8,2.05-4.04,3.22-2.48,2.32-4.49,4.98-5.84,7.8-.09.18.14.25.27.11,2.29-2.7,4.92-5.11,7.79-7.2,1.44-1.04,2.94-2,4.49-2.86,1.56-.86,3.13-1.83,4.45-1.09.66.32,1.22.93,1.66,1.63.45.7.75,1.49,1,2.32.52,1.65.77,3.39.8,5.13.06,3.5-.75,6.99-1.84,10.38-1.19,3.65-2.71,7.25-4.19,10.83-1.51,3.56-3.14,7.04-5.11,10.27-1.02,1.67-2.14,3.27-3.37,4.76-.62.74-1.25,1.46-1.93,2.14-.68.72-1.34,1.29-1.79,1.44-.55.16-.88.03-1.56-.46-.65-.5-1.35-1.26-2.21-1.96-.68-.57-1.39-.55-1.82-.1-.43.44-.57,1.35.03,2.33Z"/><path class="cls-1" d="M123.74,149.02c-4.99-3.17-11.06-4.65-16.94-3.7-1.26.19-2.57.44-3.87.82-1.29.38-2.61.92-3.73,1.61-1.12.69-2.06,1.46-2.92,2.31-.87.85-1.64,1.79-2.69,2.87-.07.07,0,.28.08.26,2.9-.76,5.03-2.5,7.34-3.67,2.29-1.18,4.84-1.81,7.4-1.93,1.38-.07,2.76.05,4.11.25,1.35.24,2.66.6,3.92,1.05,1.3.5,2.56,1.07,3.73,1.77.72.46,1.26,1.05,2.39.78.91-.22,1.89-1.96,1.19-2.41Z"/><path class="cls-1" d="M177.13,151.59c4.2-3,9.73-3.89,14.76-3.02,1.09.17,2.19.53,3.25.97,1.07.44,2.07.94,3.15,1.46,1.08.52,2.29,1.04,3.61,1.26,1.31.23,2.77.11,3.93-.61.07-.04.07-.27,0-.27-2.41-.13-4.7-1.62-7.08-2.86-2.42-1.25-5.06-2.12-7.79-2.56-1.47-.24-2.97-.33-4.48-.33-1.51.03-3.03.19-4.53.5-1.55.34-3.07.86-4.55,1.51-.45.21-.91.4-1.3.67-.39.28-.68.7-.8,1.29-.17.95,1.27,2.37,1.81,1.99Z"/><path class="cls-1" d="M210.64,138.46c-.59-.48-1.1-1.08-1.48-1.74l-1.46,2.22c.82.06,1.69.74,1.96,1.52l2.43-1.56c-1.62-1.57-3.05-3.35-4.23-5.28l-1.47,2.22,1.7.26-.05-2.88c-1.09.23-2.02.27-2.41.03-.02-.02-.05-.03-.07-.05,0-.01-.02-.03-.04-.04l-.02-.03h-.01s0-.02,0-.02l-.27.22c-.28-.55-.57-1.15-.72-1.5-.18-.43-.13-.5.03-.35-.16-.19-.44-.52-.79-1.06-.66.27-1.36.7-2.07,1.2l-.53.37-.37.25c-.17.11-.34.21-.5.29-.67.33-.91.29-1.39.08l.46,2.16c.68-.89,1.33-1.73,2.02-2.33.34-.3.69-.52.94-.6.26-.07.31-.07.48,0l-.4-2.26c-1.47,1.65-4.01,2.43-6.15,1.89l.97,2.09c.78-1.57,2.36-2.81,4.07-3.18l-1.24-2.62c-1.06.82-2.16,1.58-3.3,2.28-.57.35-1.15.68-1.74,1l-.89.47-.45.22-.16.08-.11.04c-.08.02-.16.04-.2.04h-.04c0,.18-.03.36-.07.51-.07.3-.21.4-.15.35,0,0,.04-.02.08-.04h.03s.01-.01.01-.01h0s0,0,0,0l-.1.03h0s.07,0,.19.02c.11.02.27.07.46.17l.15.08h0s.01-.03.01-.03c.02-.04.11-.13.21-.25.19-.21.4-.41.62-.6.87-.75,1.93-1.29,3.04-1.55l-1.3-2.68c-2.19,1.73-4.81,2.95-7.54,3.52l1.64,2.31c1.32-2.17,3.08-4.08,5.13-5.58l-2.13-2.26c-1.97,2.36-4.6,4.2-7.5,5.23l2.1,1.67c.22-1.92,1.62-3.79,3.41-4.53l-1.95-2.33c-.9,1.37-2.08,2.56-3.43,3.5-1.04.71-2.18,1.28-3.39,1.66l2.02,1.94c.46-1.7,1.56-3.28,3.01-4.32l-2.33-2.21c-1.5,2.28-3.58,4.23-6,5.56l2.54,1.5c.03-1.86.87-3.75,2.22-5.03l-2.83-1.97c-.61,1.37-1.37,2.68-2.26,3.9-.22.3-.45.6-.69.89l-.18.22-.11.13c-.07.07-.16.15-.25.21-.09.06-.18.12-.25.15-.04.02-.06.03-.09.04,0,0-.02,0-.02,0,0,.03-.02-.05.01.08.08.37.04.69.01.78-.04.11-.02,0,.18-.14l.84.91c.23-1.68,1.14-3.31,2.46-4.37l-2.75-2.23c-.68,1.33-1.49,2.59-2.41,3.76l-.31.38h0s-.01.04-.01.04c-.01.02-.03.06-.08.09-.11.04-.1-.06-.09-.17v-.05s0,.01.03-.03c.04-.07.09-.14.13-.21.17-.28.38-.54.58-.8.42-.51.91-.96,1.44-1.34l-2.29-1.91c-.52,1.33-1.23,2.59-2.07,3.74l-.32.43-.29.36-.2.27c-.14.18-.32.38-.54.6-.11.1-.26.21-.41.21-.16,0-.25-.12-.29-.23-.08-.23-.04-.5.01-.8.03-.15.08-.31.15-.47.03-.08.07-.17.11-.25.04-.09.07-.15.18-.32.37-.57.82-1.08,1.34-1.53l-1.1-.85c-.86,2.64-2.45,5.05-4.56,6.9l.05.02c-.63-2.29-.1-4.93,1.49-6.92.33-.4-.02-.38-.39.02-1.72,1.91-2.47,4.56-2.01,7.06l.26,1.42,1.15-.85c2.43-1.81,4.33-4.29,5.43-7.09l1.05-2.66-2.27,1.72c-.68.51-1.27,1.12-1.78,1.8-.27.36-.59.89-.82,1.35-.23.48-.41.96-.55,1.43-.25.96-.35,1.79-.11,2.55.12.37.42.77.85.9.43.12.79,0,1.13-.14l.53-.27c.18-.11.38-.24.57-.36.39-.29.78-.63,1.16-.98.38-.36.75-.74,1.1-1.13.28-.31.52-.61.77-.93.98-1.26,1.8-2.64,2.42-4.11l.9-2.11-1.89,1.29c-.71.49-1.36,1.06-1.93,1.71-.28.33-.55.66-.78,1.02-.06.09-.12.18-.17.27l-.21.36c-.12.24-.26.48-.37.72-.43.96-.74,1.97-.76,2.82-.02.43-.02.81.18,1.2.2.4.69.64,1.11.63.88,0,1.61-.45,2.33-1.08.37-.3.74-.72,1.11-1.11l.53-.61.4-.49c1.03-1.29,1.92-2.68,2.67-4.14l-.96-.78c-1.81,1.47-3.03,3.63-3.34,5.94l-.03.25.14.2c.19.26.47.5.81.6.33.11.65.09.92.04.55-.11.97-.36,1.36-.64.37-.27.73-.67.97-.98.26-.33.52-.66.77-1,.98-1.36,1.83-2.82,2.5-4.36l-1.06-.74c-1.82,1.75-2.89,4.21-2.94,6.74l-.02,1.19,1.04-.58c2.74-1.53,5.09-3.73,6.82-6.36l-1.05-.99c-1.89,1.36-3.29,3.36-3.92,5.61l-.38,1.36,1.36-.42c3.3-1.02,6.22-3.19,8.15-6.09l1.55-2.33-2.59,1.09c-.97.41-1.86,1.02-2.6,1.76-1.25,1.26-2.1,2.92-2.33,4.72l-.19,1.45,1.4-.49c3.34-1.16,6.35-3.22,8.64-5.93l-1.37-1.46c-2.34,1.68-4.35,3.82-5.87,6.28l-1.32,2.13,2.48-.5c3.15-.63,6.14-1.99,8.69-3.97l-1.02-2.1c-1.55.35-3,1.08-4.22,2.1-.31.25-.59.53-.86.82-.23.28-.65.62-.87,1.46-.1.43-.03.99.24,1.43.28.48.8.77,1.18.86.77.18,1.26.04,1.75-.09.12-.04.24-.08.36-.13l.3-.14.48-.24.96-.49c.63-.34,1.26-.69,1.88-1.06,1.23-.74,2.43-1.55,3.57-2.42l-1.16-2.45c-2.59.57-4.84,2.3-6.06,4.68l-.85,1.66,1.81.42c.35.08.71.16,1.07.2,2.94.36,5.97-.71,8.02-2.93l1.29-1.39-1.7-1.01c-.84-.5-2.05-.53-2.87-.22-.85.29-1.45.74-1.97,1.18-1.02.89-1.76,1.87-2.46,2.76l-1.16,1.49,1.67.9c.63.34,1.42.57,2.21.54.8-.02,1.49-.28,2.04-.56.28-.14.53-.29.77-.43l.25-.16.1-.06s.06-.03.08-.03c-.03.03-.05.07-.05.1,0,.03,0,.06.02.08l.06.1.03.04.06.08.13.16c.09.11.19.21.29.31.21.2.45.37.71.52.87.48,1.77.58,2.52.57.76-.01,1.42-.13,2-.24l-.06-3.41-1.2-.2-.49-.08-3.7-.61,1.95,3.25c1.31,2.19,2.88,4.22,4.67,5.95l2.97-1.91c-.77-2.06-2.64-3.42-4.73-3.58l-3.38-.26,1.72,2.78c.84,1.35,2.04,2.42,3.37,3.07.03,0,.09-.01.12,0l.09.06c.21.25.51.53.81.72,1.24.76,2.25.49,2.65.2.42-.32.36-.62.15-.85-.21-.24-.55-.45-.85-.77-.15-.16-.3-.34-.41-.53-.06-.11-.07-.15-.16-.34-.09-.2-.19-.4-.32-.55-.13-.14-.27-.31-.54-.34-.21-.16-.42-.31-.63-.49Z"/><path class="cls-1" d="M85.74,140.63c.87-.72,1.61-1.6,2.17-2.59l1.44-2.56-2.89.33c-2.03.23-3.74,1.57-4.45,3.48l2.43,1.57c1.79-1.75,3.36-3.72,4.67-5.85l1.66-2.7-3.13.48-1.7.26-.06,2.88c.58.11,1.22.23,1.96.25.73.02,1.59-.08,2.41-.53.93-.52,1.47-1.36,1.7-2.28.11-.47.14-1-.02-1.57-.14-.57-.55-1.16-1.08-1.5l-1.3,2.58c.2.09.44.2.7.39l.2.15.29.23c.28.23.56.45.84.67,1.15.9,2.22,1.24,3.22,1.24.51.01,1.01-.12,1.5-.26l.73-.28.38-.15c.13-.05.28-.11.26-.13.18-.24.37-.47.62-.71l-.77-.88-.45-.51-.4-.46-.21-.24-.11-.12-.78-.42-3.15-1.7-.79-.43-.39-.21s-.08-.04-.09-.05h-.02s-.04.03-.04.03l-.34.18-.67.37c-.1.06-.09.07-.15.11-.16.13-.23.16-.33.22h0s-.17.46-.17.46c-.03.08-.06.15-.06.22v.11s-.02.22-.02.22c-.02.31.07.54.16.8.05.12.11.25.17.35l.18.23c.52.63.96.8,1.4,1.04.42.19.83.33,1.23.45l.66.17c.31.08.63.11.95.17,1.26.2,2.5.25,3.55.17,1.08-.07,2.04-.18,3.19-.3-.06-.15-.05-.25-.17-.45l-.29-.55-.56-1.02c-.36-.65-.77-1.29-1.35-1.93-.57-.63-1.3-1.25-2.18-1.76-.45-.26-.93-.48-1.39-.65-.37-.14-.68-.22-1.03-.31l-1.24,2.62c1.14.89,2.32,1.72,3.55,2.48.61.38,1.24.75,1.87,1.1l.95.51.48.25.31.15c.12.05.25.1.38.14.52.15,1.03.3,1.87.11.41-.09,1-.41,1.32-.95.31-.48.39-1.11.28-1.6-.23-.93-.68-1.29-.91-1.58-.28-.3-.56-.59-.87-.86-1.23-1.07-2.71-1.84-4.31-2.23l-1.3,2.67c2.56,2.05,5.58,3.49,8.79,4.18l3.48.75-1.83-3.06c-1.52-2.53-3.53-4.76-5.91-6.51l-2.13,2.26c2.32,2.82,5.39,4.99,8.83,6.23l2.41.87-.3-2.54c-.37-3.11-2.41-5.85-5.29-7.1l-4.85-2.11,2.89,4.43c1.09,1.68,2.51,3.14,4.13,4.3,1.32.94,2.8,1.69,4.37,2.2l2.78.9-.75-2.84c-.64-2.42-2.11-4.61-4.17-6.14l-2.34,2.2c1.75,2.76,4.17,5.11,7.06,6.77l2.56,1.48v-2.97c-.02-2.8-1.16-5.53-3.18-7.52l-2.83,1.96c.69,1.61,1.55,3.15,2.57,4.59.25.36.52.71.79,1.06l.21.26c.06.08.19.23.29.33.21.22.43.42.67.6.49.35,1,.69,1.83.87.4.08.92.12,1.51-.07.58-.18,1.11-.6,1.41-1.04l.41-.58-.09-.7c-.34-2.62-1.69-5.04-3.75-6.71l-2.75,2.22c.79,1.54,1.74,3.01,2.83,4.35l.46.55c.26.29.52.61.79.89.53.56,1.09,1.16,1.62,1.49.54.36,1,.57,1.49.68.49.11.96.12,1.44,0,.48-.11,1.01-.45,1.32-.86.3-.4.44-.75.51-1.25.06-.22.02-.53.03-.8-.06-.31-.08-.61-.17-.94-.14-.64-.37-1.32-.67-1.99-.15-.34-.33-.67-.51-1-.08-.15-.22-.36-.29-.48-.06-.1-.13-.19-.2-.29-.26-.39-.56-.74-.87-1.09-.63-.69-1.35-1.29-2.13-1.8l-4.48-2.89,2.19,4.79c.71,1.55,1.63,2.99,2.71,4.27l.41.47.21.23.27.28c.46.48.94.93,1.42,1.34.48.4.97.79,1.42,1.04.46.25.84.36,1.2.44.34.05.72.07,1.16-.14.44-.22.72-.64.84-1.04.25-.79.15-1.72-.19-2.76-.16-.51-.39-1.02-.66-1.52-.14-.25-.28-.49-.45-.72-.15-.24-.35-.48-.46-.61-.54-.64-1.17-1.19-1.86-1.64l-2.18-1.43,1.09,2.28c1.31,2.76,3.41,4.99,5.84,6.43l.05.03v-.05c.21-2.39-.9-4.67-2.54-5.92-.33-.25-.32.06-.04.34,1.34,1.39,1.99,3.49,1.67,5.41l1.41-.57c-2.19-1.55-3.95-3.75-4.98-6.25l-1.22.94c.56.41,1.05.9,1.48,1.45.33.43.51.76.69,1.2.15.42.31.87.27,1.33-.02.22-.14.47-.38.52-.23.05-.44-.08-.62-.21-.36-.27-.72-.56-1.05-.88-.17-.16-.33-.33-.5-.51-.23-.26-.48-.55-.71-.84-.92-1.16-1.69-2.43-2.27-3.79l-.99.82c.61.41,1.18.9,1.67,1.46.24.28.48.57.68.89.05.08.11.15.15.23l.1.16c.06.11.13.22.18.34.23.46.41.95.51,1.45.05.25.12.52.03.77-.08.26-.37.39-.63.34-.52-.07-.93-.44-1.28-.81-.18-.18-.36-.38-.53-.57l-.25-.3-.36-.44c-.97-1.22-1.82-2.54-2.53-3.93l-.96.78c1.55,1.26,2.61,3.15,2.86,5.14l.11-.45c-.11.12-.16.16-.44.12-.25-.05-.56-.21-.83-.41-.51-.38-.98-1.08-1.45-1.71-.92-1.29-1.71-2.68-2.33-4.14l-1.06.74c1.54,1.5,2.46,3.66,2.46,5.81l1.02-.6c-2.52-1.45-4.69-3.52-6.24-5.97l-1.05.99c1.59,1.18,2.78,2.92,3.27,4.84l.98-.94c-2.94-.95-5.53-2.96-7.18-5.56l-1.04,1.24c.79.35,1.52.88,2.11,1.53.92,1,1.52,2.3,1.66,3.62l1.21-.96c-3-1.11-5.69-3.05-7.69-5.52l-1.37,1.45c2.09,1.57,3.86,3.56,5.17,5.81l1.16-1.63c-2.8-.63-5.44-1.92-7.65-3.72l-1.02,2.1c1.16.29,2.25.88,3.14,1.67.22.2.43.41.63.63.1.12.19.22.23.28.02.03.03.06.03.06-.03.02.15-.07.2-.08.08-.03.14-.05.2-.06.11-.02.18-.02.19-.01h0c-.2-.06-.05-.02-.1-.03h0s.01,0,.01,0h.03s.08.05.08.05c.06.05-.08-.05-.15-.35-.02-.07-.04-.16-.05-.24-.01-.09,0-.03-.01-.05h-.07c-.07-.02-.16-.04-.25-.07l-.13-.05-.17-.09-.45-.23-.88-.48c-.59-.33-1.16-.68-1.73-1.04-1.13-.72-2.23-1.5-3.28-2.34l-1.16,2.45c.22.06.47.13.65.2.09.04.15.07.2.1.11.06.21.14.29.22.08.08.16.17.21.26.03.04.05.09.07.14.02.05.06.1-.04.09h-.18c-.27,0-.51-.04-.72-.1l-.26-.07c-.14-.03-.26-.08-.39-.12-.13-.04-.25-.09-.35-.13-.11-.05-.23-.09-.3-.14-.09-.05-.17-.09-.19-.12,0,0-.07-.04-.04-.03-.06.09-.23.24-.38.32-.11.05-.11.07-.14.09-.03.02-.07.04-.11.05-.02.01-.13.02-.1.02.02,0,.04,0,.05,0h0s.85.08.85.08h0s0-.02,0-.02l-.02-.02s0-.01,0-.02l.02-.03c.19.04.35.12.46.21.07.06.13.12.17.18-.05.04-.18.04-.26,0-.08-.03-.15-.09-.2-.14l-.04-.04-.46-.35c-.4-.29-.88-.57-1.45-.79l-1.25,2.6c.11-.15.08-.05-.13,0-.09.03-.27.04-.32.04v.04c-.04.12-.16.24-.16.23-.29.19-1.16.16-2.25-.08l-.07,3.41,1.17-.17.53-.07-1.75-2.64c-1.21,1.92-2.67,3.64-4.24,5.18l2.96,1.91c.22-.67.97-1.3,1.68-1.43l-1.65-2.53c-.44.91-1.08,1.74-1.88,2.42-.25.04-.39.2-.51.34-.13.16-.22.36-.31.56-.07.18-.11.27-.2.4-.71.97-1.74,1.08-1.48,1.76.13.3.68.7,1.62.64.46-.04,1-.2,1.53-.56.26-.17.55-.47.72-.67.04-.04.08-.05.14-.05.31-.17.65-.4.97-.67Z"/><path class="cls-1" d="M67.48,209.59c-1.06-.53-2.15-.53-3.12-.28-.49.13-.96.35-1.39.64-.4.27-.75.59-1.06.94-1.21,1.41-1.67,2.92-2.08,4.39-.77,2.98-.69,6.18.32,9.13.24.68.54,1.37.97,2.05.44.67,1.03,1.38,1.98,1.88.93.51,2.23.58,3.22.2.99-.37,1.68-.97,2.22-1.59,1.02-1.22,1.59-2.71,1.58-4.17,0-1.44-.58-2.84-1.64-3.69-.07-.05-.28.02-.26.08.67,2.25-.12,5.05-1.94,6.61-.45.37-.95.59-1.43.57-.48,0-.93-.25-1.31-.64-.78-.82-1.16-2.01-1.4-3.26-.51-2.68-.09-5.48.99-7.83.27-.6.59-1.13.94-1.51.36-.39.72-.61,1.03-.65.22-.04.43.02.58,0,.17,0,.28-.16.69-.4.32-.19.93-.51,1.3-.97.38-.44.41-1.16-.18-1.47Z"/><path class="cls-1" d="M153.53,190.82c-3.47.76-7.05,1.04-10.6.83-1.78-.11-3.54-.34-5.29-.69-1.71-.37-3.6-.75-4.72-1.48-1.13-.72-1.67-1.97-1.72-3.53-.06-1.56.32-3.26.81-4.95,1.07-3.46,2.14-7.12,2.98-10.73,1.46-6.25,2.9-13.03,3.33-19.82.46-6.77-.08-13.54-2.19-19.38-.06-.18-.28-.07-.26.12,1.26,14.02-.26,28.21-4.08,41.8-.52,1.83-1.07,3.65-1.68,5.45-.6,1.8-1.24,3.7-1.51,5.74-.13,1.02-.17,2.09,0,3.2.17,1.1.61,2.25,1.37,3.2.75.95,1.82,1.65,2.83,2.06,1.03.43,1.99.67,2.94.93,3.98,1.03,8.13,1.42,12.25,1.27,2.52-.1,5.09-.25,7.09-1.64,1.56-1.1.27-2.8-1.56-2.38Z"/><path class="cls-1" d="M188.17,219.32c-5.24,4.73-11.72,8.04-18.55,9.96-6.85,1.9-14.05,2.44-21.15,1.76-6.14-.55-12.52-2.37-18.66-4.47-3.07-1.08-6.12-2.15-9.14-3.21-1.51-.51-3.06-1.06-4.65-1.33-1.58-.28-3.21-.27-4.55.22-.17.06-.07.28.1.27,1.56-.09,3.17.34,4.74.96,1.57.62,3.14,1.43,4.76,2.15,3.21,1.45,6.48,2.77,9.83,3.89,6.68,2.24,13.63,3.78,20.76,4.21,7.66.45,15.48-.4,22.85-2.93,3.83-1.29,7.49-3.08,10.93-5.27,2.1-1.35,4.23-2.71,5.26-4.9.82-1.69-1.15-2.58-2.52-1.3Z"/><path class="cls-1" d="M229.19,212.64c.18-.13.57-.19.95-.09.19.04.36.12.51.22.18.12.35.27.51.45.64.71,1.08,1.94,1.36,3.16.56,2.44.37,5.05-.43,7.38-.29.9-1.01,1.75-1.43,1.84-.2.05-.28.03-.48-.05-.2-.08-.53-.3-.86-.61-.68-.66-1.33-1.46-1.98-2.36-.65-.92-1.32-1.96-1.99-3.33-.04-.09-.27-.09-.27,0-.23,3.03.86,5.96,3.09,7.92.58.47,1.35.88,2.22.89.87.02,1.7-.4,2.27-.93,1.16-1.08,1.71-2.52,2.13-3.85.88-2.94,1-6.18.09-9.26-.24-.81-.58-1.65-1.15-2.46-.28-.4-.63-.79-1.04-1.14-.39-.34-.95-.67-1.48-.86-.66-.25-1.38-.39-2.11-.26-.71.13-1.44.6-1.68,1.36-.18.61.33,1.1.81,1.43.5.32.87.63.95.59Z"/><path class="cls-1" d="M99.81,47.92c-.76,2.16-1.52,4.26-2.22,6.44-.39,1.21-.76,2.43-1.11,3.66-.71,2.45-1.34,4.92-1.9,7.41-1.12,4.97-1.96,10.01-2.5,15.08l2.92.28c.69-8.13.24-16.35-1.31-24.35l-2.88.18c-.65,9.38-2.42,18.69-5.26,27.66l2.84.25c-.85-6.55-1.69-13.11-2.54-19.66l-2.92.16c-.08,3.98-.17,7.96-.25,11.95l-.04,1.57-.28-1.63-1.01-5.7-3,.34c.47,10.5.94,21,1.41,31.5l3.07-.3c-1.44-9.45-3.76-18.77-6.94-27.79l-3.04.71c1.58,13.28,3.16,26.57,4.74,39.86l3.15-.45c-.46-2.74-.98-5.48-1.54-8.2-1.36-6.54-3.02-13.11-5.01-19.65l-3.15.71c1.84,12.99,3.72,26.22,5.61,39.57l3.39-.75c-2.15-7.16-4.31-14.35-6.47-21.56l-3.49.87c2.34,11.89,4.68,23.81,7.01,35.67l3.35-1.1c-3.4-7.14-5.94-14.66-7.58-22.33l-3.21.54c.61,4.2,1.21,8.39,1.81,12.56l.46,3.12.23,1.53.07.35.34,1.82c.2,1.15.4,2.29.6,3.43-.23-.45-.52-1.07-.9-1.91-.08-.2-.15-.39-.23-.58-.73-.82-1.48-1.9-2.28-3.31-.02,1.66.09,3.63.34,5.97.42,2.5.84,4.98,1.26,7.45.36,2.01.71,4.01,1.07,6,.68,3.65,1.35,7.26,2.02,10.84l-.57.2c-1.64-2.5-2.63-5.37-2.93-8.32-.09-1.16-.32-.55-.22.65.26,2.82,1.16,5.57,2.62,7.99l1.74-.62c-.92-6.09-1.83-12.18-2.74-18.26-.24-1.58-.48-3.17-.72-4.75l1.62,4.2.1.25c.78,1.32,1.56,2.68,2.34,4.07l.06-4.9c-1.26-9.37-2.53-18.74-3.79-28.11l-1.3.22c1.62,7.9,4.19,15.61,7.64,22.9l1.2-.39c-2.33-11.89-4.66-23.78-6.99-35.68l-1.24.31c2.17,7.18,4.33,14.36,6.5,21.55l1.3-.29c-1.88-13.18-3.77-26.36-5.65-39.56l-1.46.33c2.74,9.03,4.89,18.24,6.43,27.56l1.64-.24c-.46-3.92-.91-7.85-1.37-11.78-1.08-9.37-2.17-18.73-3.25-28.09l-1.89.44c3.09,8.88,5.34,18.06,6.72,27.35l2.19-.22c-.43-10.51-.86-21.01-1.29-31.51l-2.48.28,3.47,19.67c.58.86,1.16,1.66,1.75,2.37.46-.8.94-1.52,1.43-2.18l.53-23.14.08-3.35-2.97.16,2.47,19.67,3.05.27c2.95-9.19,4.8-18.73,5.49-28.36l-3.31.2c1.14,6.02,1.63,12.15,1.46,18.27-.05,1.75-.15,3.49-.31,5.22l3.52.34c.61-5.41,1.56-10.72,2.75-15.86.59-2.57,1.24-5.1,1.92-7.59.17-.62.35-1.24.52-1.86l.07-.23s0-.03,0-.04v-.06s.02-.15.02-.15c.01-.11.03-.25.06-.41.03-.13.07-.5.11-.33.23.32.47.63.7.94,1.43,2.15,2.82,3.21,3.62,3.66.83.44,1.12.3.97-.23-.15-.53-.75-1.46-1.51-2.83-.19-.34-.39-.71-.59-1.11-.1-.2-.2-.41-.31-.62-.15-.32-.3-.65-.46-.99-.21-.42-.38-.95-.58-1.45-.19-.57-.36-1.17-.56-1.87-.39-1.43-.8-2.92-1.23-4.48-.07.15-.14.3-.21.45l-.11.24-.13.37c-.18.5-.36,1.01-.54,1.52Z"/><path class="cls-1" d="M195.93,70.06c.05-2.88.27-5.76.65-8.62l-2.9.27c2.42,7.25,4.44,14.63,6.05,22.1l2.9-.54c-.48-3.08-.6-6.21-.38-9.32.06-.78.14-1.55.23-2.33l.13-.94.04-.23c.06-.28.13-.66.22-.84l.27.68.12.35.56,1.67c.77,2.4,1.45,4.83,2.02,7.29,1.15,4.91,1.9,9.92,2.23,14.96l2.83-.56c-.99-2.93-1.45-6.04-1.38-9.14.02-.77.07-1.55.15-2.32l.13-1.07.06-.32c.03-.16.07-.31.11-.47l.07-.23.04-.11s.03-.12.04-.05c.09.2.17.4.24.61l.11.31.34,1.09c.62,2.08,1.12,4.2,1.49,6.34.75,4.28,1.01,8.65.76,12.99l2.92.18c.52-7.82,1.94-15.58,4.23-23.07l-2.85-.1c2.01,8.72,2.13,17.89.35,26.67l2.95.33c.2-8.53,1.57-17.04,4.07-25.21l-2.95-.4c.3,10.69-.1,21.42-1.18,32.07l3.06.23c.47-8.82,1.76-17.61,3.86-26.2l-3.06-.39c-.21,11.59-.42,23.19-.63,34.79l3.13.24c1.58-11.55,4.03-22.99,7.32-34.19l-3.1-.61c-.81,8-1.61,16-2.42,24.01-.72,7.06-1.44,14.19-2.17,21.38l3.18.46c2.07-10.92,4.17-21.97,6.28-33.12l-3.3-.6c-2.79,15.78-5.62,31.76-8.46,47.79l3.5.7c2.68-11.81,5.37-23.67,8.05-35.51l-3.56-.62c-1.71,13.81-3.7,27.57-5.92,41.2l3.34.69c1.85-7.81,3.69-15.59,5.51-23.32l-3.05-.57c-1.82,14.32-4.77,28.35-8.71,41.86l1.98.65c2.6-7.97,5.16-15.84,7.7-23.61l-1.07-.36c-2.66,8.75-4.08,17.66-4.34,26.43l-.27-.05c1.55-5.61,3.09-11.15,4.6-16.63.4-1.48-.05-.77-.51.71-1.62,5.23-3.23,10.46-4.84,15.68l1.79.33c.5-8.85,2.15-17.63,4.88-26.04l-1.56-.53c-2.7,7.83-5.39,15.66-8.08,23.48l1.43.47c4.22-13.75,7.29-27.85,9.2-42.09l-1.32-.25-5.64,23.29,1.27.26c2.29-13.72,4.3-27.49,6.02-41.29l-1.24-.22c-2.68,11.83-5.36,23.67-8.04,35.51l1.27.25c2.8-15.92,5.6-31.85,8.4-47.8l-1.38-.25c-2.09,11.03-4.18,22.07-6.27,33.12l1.5.22c1.55-15.11,3.11-30.23,4.67-45.38l-1.68-.33-.96,3.34c-2.87,10.24-5.04,20.67-6.51,31.2l1.9.15c.24-11.6.48-23.2.71-34.79l-2.1-.27c-2.16,8.74-3.5,17.69-4.01,26.68l2.3.18c1.13-10.76,1.56-21.6,1.28-32.42l-2.48-.33c-2.59,8.4-4.03,17.16-4.27,25.95l2.69.3c1.88-9.17,1.78-18.75-.3-27.89l-1.2-5.3-1.6,5.21c-.69,2.24-1.3,4.51-1.84,6.8-1.31,5.56-2.17,11.23-2.57,16.93l3.05.19c.28-4.57.01-9.17-.77-13.68-.39-2.26-.91-4.49-1.56-6.68l-.25-.82-.18-.58c-.08-.25-.16-.5-.24-.74l-1.06-2.85-2.24-5.46c-.22.54-.46,1.27-.69,1.9l-.65,1.86-.63,1.88c-.2.65-.37,1.38-.56,2.07-.17.7-.28,1.43-.42,2.14-.04.21-.05.31-.07.41l-.04.32-.08.64c-.09.86-.15,1.72-.17,2.58-.08,3.45.42,6.91,1.52,10.2l3.21-.64c-.33-5.21-1.09-10.38-2.27-15.47-.59-2.54-1.28-5.06-2.07-7.55l-.66-2-1.28-3.47-2.68-6.68-1.24,4.28-.5,1.75c-.16.59-.31,1.25-.46,1.87-.17.61-.27,1.32-.4,1.98l-.19,1.01-.09.63c-.21,1.45-.35,2.91-.42,4.37-.13,2.92.02,5.83.45,8.69l3.54-.66c-1.65-7.74-3.73-15.26-6.24-22.41l-3.28.31c-.7,5.92-.63,11.78.15,17.36.07.56.17,1.09.24,1.53l1.63-1.01c-1.73-.95-2.64-2.21-3.21-2.99-.56-.8-.83-1.21-1.04-1.07-.18.12-.28.8.05,1.93.34,1.11,1.16,2.72,2.97,4.06l1.96,1.44-.09-2.61c-.09-2.53-.22-5.78-.15-9.59Z"/><path class="cls-1" d="M224.59,97.36c.93-2.74,1.72-5.52,2.35-8.34.16-.71.31-1.41.44-2.12l.2-1.07.09-.53c.03-.19.06-.3.1-.63.15-1.28.01-2.57-.45-3.49-.44-.92-1.17-1.61-2.18-1.8l-.37-.06c-.11.01-.17.09-.26.14l-.51.31-.51.31c-.08.07-.17.07-.25.19l-.26.4-1.72,2.61-2.34,3.56-4.68,7.11,2.59,1.27,4.43-13.08c1.45-4.39,2.81-9.06,2.67-13.99l-2.83-.52c-2.74,6.6-5.49,13.2-8.24,19.8l2.85.92c1.78-7.49,2.62-15.21,2.49-22.92l-3.04-.35-.82,3.16-.32,1.2.11-1.37.31-4.34c.14-1.9.27-3.8.41-5.72l-3.18-.31c-.42,3.25-.84,6.52-1.27,9.82l-.32,2.48-.13.94-.02.1-.07.3c-.03.1-.04.15-.06.15l-.03-.43-.19-1.44-.66-4.49c-.65-4.13-1.48-8.34-2.94-12.41l-3.49.74c.79,10.09,2.5,20.06,5.07,29.57l2.69-.76c-3.35-10.22-6.79-20.17-10.36-29.64l.04-.02c1.34,2.7,3.4,4.91,5.77,6.41.53.33.39-.04-.1-.42-2.11-1.65-3.8-3.86-4.86-6.33l-1.71.59c3.07,10.02,6.14,20.03,9.21,30.04l1.34-.38c-2.38-9.6-3.95-19.39-4.69-29.25l-1.23.26c1.37,3.85,2.17,7.89,2.82,11.97.72,4.89,1.44,9.78,2.16,14.67l1.27,4.18,1.2-4.06c.96-7.43,1.92-14.86,2.89-22.3l-1.54-.15c-.53,7.13-1.06,14.26-1.59,21.4l-.18,2.39c.14,1.89.3,3.68.5,5.35.71-1.52,1.4-2.9,2.09-4.14,1.48-5.7,2.95-11.4,4.43-17.1l-2.18-.25c.08,7.49-.78,14.98-2.56,22.23l2.46.79,8.37-19.75-2.83-.52v.42c.02,4.25-1.24,8.5-2.68,12.74l-4.43,12.83,2.95,1.44,7.5-11.24.09-.13h0s.01-.02.01-.02l.02-.02s.02-.01.03-.01c.02.02.02.06.01.07,0,0-.01.01-.01.01l-.24,1.34c-.19.98-.38,1.95-.59,2.9-.83,3.84-1.83,7.53-2.78,11.12-.77,2.83-.54,3.86.31,3.41.83-.46,2.27-2.46,3.4-5.75Z"/><path class="cls-1" d="M212.8,73.02c-1.62-6.46-3.69-12.82-6.2-18.99l-2.79.77c.89,5.84,1.77,11.65,2.15,17.47l2.89-.41c-.91-4.23-2.08-8.41-3.48-12.51-.35-1.02-.72-2.04-1.1-3.06l-.58-1.52-1.02-2.49c-1.54-3.59-3.04-6.57-4.67-10.06l-.38,4.89-.18,2.41-.15,2.51-.09,2.61-.03,1.94c0,.97,0,1.94.03,2.91.09,3.88.39,7.77.91,11.62l3.01-.78c-2.67-6.83-5.34-13.66-8.01-20.49-.1-.26-.21-.53-.31-.79l-3.05.83c1.16,7.35,2.29,14.93,2.91,22.61l3.26-.96c-4.18-8.14-7.07-17.06-8.58-26.11l-3.39.77c2.45,7.76,5.11,15.6,9.27,22.42l1.84-.6c-1.33-6.73-3.47-13.08-6.22-18.74-.2-.42-.33-.11-.17.32,2.15,6.05,3.72,12.31,4.67,18.67l1.43-.47c-3.81-6.97-6.19-14.64-8.53-22.29l-1.25.28c1.47,9.34,4.45,18.45,8.8,26.86l1.26-.37c-.64-7.64-1.8-15.21-2.94-22.78l-1.53.42c1.09,2.85,2.19,5.7,3.28,8.56,1.63,4.26,3.26,8.53,4.88,12.79l1.91-.5c-.47-3.76-.74-7.55-.79-11.34-.01-.95-.01-1.89,0-2.84l.03-1.05.03-.49c.04-.63.1-1.21.17-1.69.23.53.43,1.02.61,1.47l.96,2.56c1.09,3,2.05,6.05,2.88,9.13.53,1.98,1,3.98,1.42,5.98l3.04-.43c-.34-5.99-1.19-11.89-2.03-17.74l-3.24.89c.62,1.56,1.2,3.14,1.76,4.72,1.96,5.56,3.32,11.14,5.34,16.11.8,1.97,1.57,2.42,2.02,1.77.45-.65.59-2.42,0-4.81Z"/><path class="cls-1" d="M146.69,43.76l-8,7.18-.79.72.51-.89,6.36-11-2.32-1.73c-6.32,6.68-13.18,12.84-20.5,18.41l2.06,2.02c5.81-7.91,10.86-16.39,15.06-25.27l-2.38-1.65c-7.79,7.99-15.91,15.68-24.31,23.04l2.26,1.92c4.11-6.55,7.57-13.51,10.28-20.76l-2.82-1.15c-4.83,10.52-9.66,21.05-14.5,31.58l2.94.95c1.63-8.76,2.64-17.65,3.01-26.56l-3.12-.43c-2.12,8.86-4.24,17.72-6.36,26.58l3.13.54c.12-1.12.23-2.24.32-3.37.56-6.76.61-13.66.13-20.59l-3.21-.17c-.46,2.49-.91,4.99-1.37,7.5l-.14.61-.1.37v-.66c-.03-1.25-.06-2.51-.09-3.77l-3.52-.11c-.96,9.74-2.4,19.47-4.29,29.11l3.58.23c-.5-7.37-.99-14.75-1.49-22.09l-3.5-.12c-1.19,9.01-1.99,18.03-2.4,26.99l3.07-.15c-1.37-8.24-2.73-16.43-4.08-24.54-.57-.59-1.12-1.41-1.65-2.54-.42,1.2-.8,2.71-1.1,4.59-.1,2.8-.2,5.6-.3,8.38-.04,1.28-.08,2.55-.12,3.82-.02.96-.05,1.92-.07,2.88-.07,3.61-.13,7.2-.2,10.75l.31-.05c-2.59-5.99-4.59-12.1-6.05-18.25-.25-1.04-.36-.45-.16.62,1.2,6.15,2.96,12.19,5.24,18l1.7-.27c.29-5.97.58-11.95.87-17.91.08-1.75.17-3.5.25-5.24l.79,4.9c.8,5.06,1.6,10.13,2.4,15.19l1.34-.06c.49-8.96,1.35-17.9,2.56-26.79l-1.27-.05,1.44,22.09,1.25.08c1.9-9.7,3.34-19.5,4.3-29.35l-1.31-.04c.17,4.97.35,9.95.52,14.93l.86,5.34,1.61-5.01c1.15-6.32,2.3-12.65,3.46-18.98l-1.48-.08c.55,7.83.39,15.72-.48,23.53l1.6.28c1.24-5.13,2.49-10.26,3.73-15.39.9-3.73,1.81-7.45,2.71-11.17l-1.8-.25c-.4,8.79-1.42,17.56-3.06,26.19l1.93.62c4.88-10.53,9.76-21.06,14.64-31.58l-2.21-.9c-2.68,7.06-6.08,13.85-10.12,20.22l1.97,1.68c8.49-7.37,16.68-15.08,24.57-23.09l-2.39-1.66-.03.07c-4.14,8.67-9.11,16.94-14.82,24.65l2.25,2.21c7.47-5.64,14.48-11.89,20.95-18.66l-2.7-2.02-5.14,8.79c-2.14,3.67-4.28,7.34-6.4,10.97.41.43.85.82,1.31,1.2.47.37.92.77,1.39,1.12,2.32-2.09,4.64-4.17,6.93-6.24.81-.74,1.63-1.48,2.44-2.22.56-.52,1.12-1.04,1.68-1.56,2.22-2.08,4.37-4.16,6.45-6.23l-2.13-1.51c-.3.86-.65,1.71-1.06,2.52-.95,1.88-1.76,3.09-2.14,3.87-.4.77-.37,1.12.08,1.07.44-.06,1.31-.53,2.38-1.55,1.06-1.02,2.33-2.6,3.34-4.82l-2.33-1.66c-.66.56-1.38,1.18-2.13,1.85Z"/><path class="cls-1" d="M212.48,77.86c-.26-2.18-.63-4.35-1.11-6.49-.12-.54-.24-1.07-.38-1.6l-.12-.48-.19-.7-.39-1.4c-.56-1.82-1.11-3.52-1.7-5.33-.24.22-.61.82-.91,1.26l-.89,1.36c-.58.88-1.15,1.87-1.62,3.07-.24.59-.44,1.24-.59,1.81l-.06.22-.03.15-.07.3c-.05.2-.08.4-.12.6-.14.8-.22,1.61-.23,2.43l2.88-.32c-1.16-4.72-1.52-9.68-2.11-14.7-.59-5-1.43-10.2-3.68-15l-2.8.59c-.23,9,.25,18.02,1.45,26.94l3-.52c-1.63-7.87-3.26-15.73-4.9-23.6-.21-.97-.39-1.99-.72-3.07-.34-1.08-.8-2.2-1.65-3.22-.11-.12-.21-.25-.33-.36l-.17-.17-.26-.23c-.35-.31-.74-.57-1.13-.79-.79-.42-1.62-.65-2.38-.66-.38,0-.75.03-1.13.05-.18.03-.43,0-.56.08l-.07.57-.29,2.27c0,.43.04.96.07,1.37l.04.76.1,1.52.24,3.03c.18,2.02.4,4.04.66,6.05.71,5.61,1.7,11.3,3,17.01l3.12-1.08c-4.79-10.44-9.67-21.17-14.66-31.79l-3.4,1.11c2.02,9.96,4.86,19.72,8.46,28.87l2.4-.88c-4.09-9.64-8.3-18.91-12.65-27.49-.25-.48-.35-.14-.15.37,3.65,9.29,7.29,18.57,10.93,27.84l1.35-.49c-3.35-9.35-6.01-18.94-7.96-28.69l-1.19.39c4.9,10.58,9.8,21.16,14.72,31.76l1.34-.46c-1.99-8.68-3.27-17.52-3.81-26.43l-.11-2-.02-.6v-.3c.08-.02.19-.01.29-.01.41.03.79.21,1.09.46.08.07.14.12.23.21.12.12.23.24.33.37.2.26.38.54.54.86.64,1.25.9,2.78,1.22,4.36l.94,4.72,3.76,18.86,2.38-.41c-1.11-8.79-1.52-17.66-1.22-26.5l-2.8.59.19.44c1.88,4.3,2.63,9.07,3.16,13.92.54,4.85.86,9.85,2.04,14.85l3.36-.38c.02-.66.09-1.32.21-1.97.03-.16.06-.33.1-.49.04-.16.08-.36.08-.35.03-.1.02-.06.03-.09.03-.04.06-.05.06,0,0,.06,0,.06,0,.06.12.49.24.98.37,1.47.15.63.29,1.26.44,1.89.54,2.51,1.06,4.96,1.58,7.39.51,2.4,1.16,3.1,1.73,2.45.55-.65,1-2.69.65-5.6Z"/><path class="cls-1" d="M138.08,52.14c-2.13-2.83-4.34-5.6-6.62-8.32l-2.44,1.73c5.95,10.02,12.62,19.63,19.96,28.68,3.67,4.52,7.47,8.99,11.82,13.01,4.34,4,9.28,7.54,14.88,9.8l1.55-2.42-18.12-17.12-9.06-8.56-2.27-2.14c-.76-.71-1.48-1.42-2.33-2.17-.84-.73-1.77-1.43-2.91-1.97-1.13-.53-2.61-.83-4.01-.45l-2.12.57,1.34,1.73c5.42,6.98,12,13.05,19.34,17.95,3.67,2.45,7.54,4.61,11.56,6.44,2.02.9,4.06,1.74,6.14,2.49,1.07.35,2.03.75,3.21,1.06,1.15.3,2.34.5,3.62.48.32,0,.65-.03.98-.07.17-.01.32-.05.52-.09.24-.04.47-.12.7-.2.93-.29,1.72-.82,2.25-1.46.31-.31.48-.66.74-1l.36-.54c-.09-.14-.28-.27-.42-.41l-1.79-1.61-.89-.81c-.17-.16-.26-.21-.37-.3l-.33-.24-1.31-.97-2.62-1.94c-3.5-2.58-7.01-5.14-10.54-7.68-7.05-5.08-14.17-10.07-21.34-14.98l-2,2.13c5.66,7.23,12.53,13.49,20.23,18.49,3.86,2.49,7.91,4.66,12.13,6.48,2.1.93,4.25,1.73,6.43,2.47,1.05.36,2.24.81,3.73.85.74.01,1.6-.13,2.35-.55.72-.39,1.4-1.03,1.81-1.84.39-.82.46-1.65.43-2.4-.06-.74-.22-1.43-.45-2.05-.45-1.27-1.12-2.35-1.9-3.35-.39-.5-.84-.98-1.3-1.41l-1.28-1.15c-.84-.78-1.73-1.5-2.6-2.24-3.52-2.94-7.27-5.58-11.18-7.96-3.91-2.38-7.99-4.49-12.21-6.27-1.06-.44-2.11-.89-3.19-1.28l-1.61-.61-2.65-.88c-1.74-.61-3.61-1.1-5.45-1.63l-5.67-1.57,3.58,3.67,3.58,3.52c.28.29.64.59.96.89.32.3.67.6,1.05.89l1.6,1.29c.83.64,1.7,1.23,2.55,1.84,3.47,2.36,7.2,4.33,11.1,5.88,7.79,3.1,16.27,4.51,24.66,3.93,1-.03,2.24-.17,3.35-.5,1.12-.34,2.28-.81,3.32-1.79.51-.48.99-1.15,1.23-1.94.23-.79.23-1.61.02-2.38-.47-1.57-1.56-2.49-2.49-3.17-.98-.69-1.86-1.13-2.77-1.67-.92-.5-1.83-1-2.77-1.46-1.86-.95-3.79-1.77-5.73-2.54-7.79-3.03-16.13-4.62-24.5-4.66-4.18.02-8.62.45-12.63,2.6-1.01.54-1.9,1.17-2.83,1.95-.12.11-.25.23-.37.37-.13.13-.3.35-.43.54-.26.39-.45.84-.53,1.3-.16.93.18,1.9.8,2.62.53.63.99.93,1.44,1.27l.68.5.72.44c.96.59,1.99,1.05,3.03,1.44,4.22,1.53,8.65,1.52,12.83,1.06,4.21-.51,8.23-1.51,12.22-2.65,3.98-1.16,7.89-2.58,11.7-4.24,1.9-.83,3.78-1.72,5.63-2.67.92-.47,1.84-.96,2.75-1.46l1.36-.77c.44-.26.9-.5,1.42-.86.51-.35,1.07-.79,1.53-1.5.48-.72.71-1.68.54-2.62-.09-.47-.28-.92-.55-1.32-.13-.18-.28-.35-.43-.51-.15-.14-.3-.27-.46-.4-.63-.46-1.25-.71-1.86-.9-1.21-.37-2.44-.46-3.64-.34l-3.09.32c-4.11.48-8.2,1.19-12.24,2.12-11.8,2.71-23.32,7.29-33.91,13.69l1.19,2.95c8.56-1.91,16.9-4.99,24.72-9.17,3.9-2.1,7.7-4.43,11.29-7.06,1.79-1.27,3.65-2.72,5.26-4.45,1.6-1.72,3.09-3.82,3.66-6.45.03-.16.08-.32.09-.49l.08-.66c.07-.54-.02-1.03-.04-1.54-.03-.5-.09-1.01-.15-1.51-.04-.24-.04-.53-.11-.74l-.73.03c-.49.03-.96.02-1.5.1l-1.51.19c-.56.07-1.11.13-1.67.23-2.22.34-4.43.73-6.62,1.22-4.39.97-8.71,2.25-12.94,3.82-4.23,1.57-8.35,3.43-12.33,5.58-1.99,1.07-3.94,2.22-5.86,3.42-.96.61-1.89,1.24-2.84,1.87l-2.91,2.07c-.87.66-1.65,1.43-2.19,2.18-.54.76-.85,1.49-.99,2.18-.11.69-.09,1.38.14,2.05l.16.53c.07.17.08.44.28.36l.94-.02,1.88-.04c.23.07.85-.22,1.32-.37.5-.17,1.01-.39,1.53-.59l1.92-.78,1.56-.7c4.15-1.89,8.15-4.15,11.9-6.76,3.76-2.6,7.29-5.53,10.55-8.75.82-.8,1.59-1.64,2.39-2.46.76-.85,1.53-1.7,2.27-2.58l1.09-1.33.54-.66c.2-.29.42-.73.63-1.09l1.28-2.26.32-.56c.11-.09-.06-.19-.1-.28l-.21-.28-.41-.54c-.15-.17-.33-.32-.49-.48-.72-.59-1.7-.95-2.8-.96l-.83.03c-.13,0-.29.04-.39.05l-.27.04c-.35.07-.68.16-1.01.26-.65.2-1.25.46-1.82.75-.28.14-.58.31-.84.46l-.72.43c-1.93,1.15-3.86,2.32-5.76,3.53-3.8,2.41-7.55,4.92-11.21,7.53-7.33,5.23-14.36,10.84-21.06,16.81l2.48,2.51c6.49-7.11,14.67-12.66,22.24-19.11,3.78-3.23,7.45-6.71,10.52-10.76.8-.98,1.48-2.06,2.17-3.14l.52-.8.13-.2.16-.33.32-.67,1.29-2.69.64-1.34.6-1.5,1.2-2.98.3-.74.15-.37-.34.19-1.36.79-2.72,1.58-1.36.8-1.41.87-2.43,1.58c-1.04.66-2.03,1.39-3.05,2.08-2.01,1.41-3.99,2.85-5.93,4.35-3.88,2.97-7.63,6.09-11.28,9.28-7.3,6.39-14.2,13.1-21.02,19.75l1.72,1.4c9.35-15.29,18.53-30.38,27.5-45.23l-.69-.53c-13.14,14.75-23.7,31.13-31.55,48.09-.97,2.07-.23,1.08.79-.99,8.35-16.8,19.07-32.41,31.7-46.23l-1.33-1.02c-9.34,14.99-18.67,29.97-27.99,44.93l1.14.93c7.03-6.74,14.06-13.47,21.42-19.82,3.68-3.17,7.44-6.24,11.32-9.16.96-.74,1.94-1.46,2.93-2.16.98-.71,1.97-1.42,2.97-2.09,1-.69,2-1.37,3.02-2.02.66-.43,1.28-.84,1.95-1.24.55-.28,1.73-1.29,1.02-.09-.28.71-.55,1.41-.99,2.18l-.6,1.13c-.26.44-.63.98-.95,1.47-.33.5-.65,1.01-.99,1.5l-1.1,1.42c-2.95,3.79-6.49,7.11-10.19,10.23-7.4,6.24-15.55,11.76-22.23,19.04l.89.91c6.6-5.86,13.51-11.37,20.7-16.49,3.59-2.56,7.26-5.02,10.98-7.39,1.86-1.18,3.74-2.34,5.64-3.47.96-.58,1.85-1.14,2.83-1.49.47-.18,1.01-.32,1.44-.38.36-.05.72-.04,1.07.06.34.1.65.33.84.64-.19.32-.47.64-.7.96l-.36.48-.18.24-.25.31-1.04,1.27c-1.39,1.7-2.89,3.3-4.42,4.88-3.09,3.11-6.47,5.95-10.05,8.48-3.59,2.53-7.38,4.77-11.35,6.63-1,.44-1.99.92-3.01,1.33l-1.15.47c-.33.14-.66.26-1,.37l-1,.36-.12.04s-.03-.07-.05-.11c-.03-.08-.04-.17-.06-.26-.02-.18-.01-.36.03-.53.17-.7.67-1.26,1.19-1.72.39-.36,1.48-1.08,2.34-1.71.89-.65,1.82-1.23,2.73-1.84,1.84-1.2,3.73-2.32,5.65-3.4,3.84-2.14,7.84-3.99,11.95-5.57,4.11-1.58,8.32-2.87,12.6-3.87,1.07-.25,2.14-.5,3.23-.69,1.08-.22,2.16-.42,3.25-.58l1.63-.26,1.41-.18.51-.06c.16,0,.4-.12.36.13.05.34.06.68.03,1.02-.02.13-.03.4-.09.65-.06.25-.1.5-.18.74-.15.49-.35.96-.57,1.43-.46.93-1.08,1.8-1.77,2.61-1.39,1.62-3.05,3.02-4.83,4.3-3.54,2.62-7.26,4.99-11.13,7.08-7.73,4.21-16.06,7.31-24.65,9.23l.56,1.38c10.98-6.64,23.11-11.36,35.69-13.92,3.15-.63,6.32-1.13,9.51-1.51l2.4-.24c.83-.1,1.5-.14,2.24-.04.72.08,1.43.29,1.98.6.55.34.82.71.75,1.17,0,.46-.39.91-.97,1.32-.57.4-1.33.79-2.01,1.19-1.4.79-2.81,1.54-4.25,2.25-2.87,1.42-5.81,2.72-8.81,3.85-2.99,1.12-6.03,2.12-9.11,2.94-3.09.81-6.21,1.54-9.34,1.95-3.13.39-6.3.48-9.34-.09-1.51-.29-2.99-.75-4.35-1.41-.69-.32-1.33-.72-1.96-1.14l-.9-.67c-.27-.23-.49-.46-.57-.59-.1-.16-.15-.37-.1-.56.06-.21.13-.31.34-.52.21-.22.53-.45.82-.68.29-.24.62-.42.93-.64,1.28-.79,2.7-1.37,4.18-1.79,2.97-.81,6.14-.98,9.3-.89,6.34.17,12.67,1.25,18.7,3.23,3.02.99,5.96,2.19,8.8,3.6,1.42.7,2.81,1.46,4.18,2.27,1.35.75,2.6,1.69,2.78,2.67.08.51,0,.97-.36,1.38-.33.43-.92.79-1.55,1.07-.64.28-1.35.46-2.07.58-.69.12-1.52.12-2.3.18-3.15.18-6.32.08-9.45-.35-6.27-.78-12.38-2.72-18-5.57-2.8-1.45-5.49-3.11-8.01-5.01-.32-.23-.62-.49-.93-.73l-.43-.35c-.22-.17-.43-.37-.63-.56-.21-.19-.41-.37-.6-.57l-.28-.29-.14-.15-.07-.07-.03-.04h.05c.38.13.77.22,1.14.34.38.12.69.21,1.24.41l.74.26,1.56.59c1.04.38,2.06.83,3.09,1.25,4.1,1.73,8.05,3.8,11.85,6.11,3.79,2.32,7.43,4.89,10.84,7.75.84.72,1.71,1.42,2.52,2.18l1.24,1.12c.37.35.7.7,1.01,1.1.61.79,1.14,1.67,1.45,2.56.16.44.25.88.29,1.29.01.39-.03.74-.15.99-.13.23-.32.43-.61.6-.27.15-.59.22-.99.21-.81-.01-1.8-.33-2.87-.71-2.1-.72-4.17-1.49-6.2-2.39-4.06-1.77-7.98-3.87-11.7-6.28-7.42-4.85-14.05-10.9-19.49-17.88l-1.95,2.07c4.47,3.08,8.92,6.18,13.35,9.32,5.96,4.23,11.88,8.52,17.76,12.86l4.4,3.27,1.17.88.17.13c.06.04.13.09.08.11-.04.06-.09.11-.15.14-.06.04-.12.06-.19.08l-.09.02c-.08.02-.16.04-.25.04-.17.02-.35.04-.53.04-.74.03-1.54-.07-2.33-.25-.4-.09-.8-.2-1.19-.32l-1.26-.44c-.85-.3-1.7-.58-2.53-.92-13.41-5.12-25.34-14.05-34.12-25.37l-.88,2.59c.57-.14,1.2-.06,1.93.27.72.34,1.46.87,2.18,1.5.71.62,1.47,1.37,2.22,2.08l2.26,2.14,9.05,8.58,18.09,17.16,1.83-2.86c-2.07-.84-4.06-1.88-5.96-3.08-4.36-2.73-8.23-6.24-11.79-10.02-3.55-3.79-6.85-7.87-10.06-11.94-6.38-8.18-12.14-16.61-17.33-25.12l-2.69,1.91c5.05,5.86,9.7,11.87,13.94,17.95,3,4.29,4.88,7.08,5.99,8.43,1.1,1.35,1.41,1.26.99-.05-.85-2.61-4.56-10.24-11.89-20.04Z"/><path class="cls-1" d="M159.23,34.25c-4.83,3.65-9.8,7.13-14.88,10.43-2.54,1.65-5.11,3.26-7.71,4.82-1.31.77-2.61,1.62-3.8,2.1-1.21.51-2.32.58-3.24.12-.89-.47-1.14-1.04-.94-2.26.11-.59.34-1.25.6-1.97l.77-2.13c1.04-2.84,2.16-5.65,3.35-8.42,2.38-5.56,5.06-10.99,8-16.26l-2.33-1.87c-5.86,5.23-10.37,11.56-14.86,17.66l-13.47,18.41,2.61,1.82,2.38-3.54c9.33-13.83,19.82-28.2,30.24-42.4l-3.04-1.89c-4.44,8.79-8.77,17.64-12.3,26.54-3.54,8.89-6.27,17.85-7.65,26.51-.09.52.2.31.34-.2,2.37-9.05,5.69-17.84,9.48-26.42,3.79-8.58,8.03-16.96,12.3-25.33l-1.07-.66c-11.17,15.1-22.07,30.42-32.69,46.03l1.36.95c1.03-1.39,2.06-2.78,3.09-4.17l12.05-16.23c4.01-5.39,8.11-10.71,13.06-15.05l-1.91-1.53c-3.88,6.82-7.31,13.89-10.25,21.17-.52,1.29-1.03,2.58-1.51,3.88l-.72,1.96c-.23.64-.49,1.32-.69,2.12-.19.79-.33,1.71-.12,2.73.18,1.01.82,2.02,1.61,2.63.79.63,1.69.99,2.59,1.15.9.17,1.88.11,2.69-.09,1.68-.39,3.01-1.19,4.21-1.88l3.58-2.12c2.38-1.43,4.73-2.9,7.06-4.4,5.74-3.69,11.33-7.41,15.66-11.83,3.39-3.52.52-3.74-3.86-.42Z"/><path class="cls-1" d="M166.56,54.57l-1.7.18.07,3c8.02.51,16.09.12,24.02-1.15l-.13-2.94c-9.27-.66-18.57-.83-27.86-.51l.14,2.92c10.8-.7,21.53-2.51,31.96-5.39l-.61-2.84c-10.49,1.6-20.98,3.2-31.48,4.8l.75,2.81c12.89-4.96,25.92-9.95,38.16-16.75l-1.14-2.72c-8.45,2.47-16.9,4.94-25.35,7.42l-1.4.4,1.37-.7c7.57-3.94,15.16-7.88,22.74-11.83l-1.32-2.8c-15.58,6.6-31.18,13.2-46.78,19.8l1.45,2.81c10.54-6.47,21.19-13.01,30.87-21.01,3.82-3.16,7.51-6.56,10.94-10.27l-2.02-2.45c-15.32,9.49-31,19.19-46.84,28.99l1.99,2.82c6.81-5.39,13.69-10.83,20.24-16.76,6.54-5.92,12.75-12.35,18.03-19.57l-2.65-2.43c-12.38,10.84-24.76,21.68-37,32.41-.04,0-.15-.02-.11-.05l.06-.11c.04-.07.1-.17.21-.33l.04-.06.22-.3.5-.67,1-1.33c.67-.88,1.36-1.75,2.05-2.61,2.78-3.45,5.73-6.74,8.81-9.89,1.54-1.57,3.12-3.09,4.74-4.59,1.61-1.49,3.27-2.98,4.87-4.55,3.19-3.11,6.24-6.64,7.98-10.92l1.49-3.67-3.09,2.43c-16.89,13.26-31.52,28.28-43.55,44.02l-.99-.78c.43-.63.85-1.24,1.26-1.84.8-1.17.18-.7-.68.46l-.87,1.18,1.54,1.21c13.07-15.94,28-30.33,44.37-42.81l-1.15-.9c-1.7,4.01-4.69,7.37-7.92,10.41-1.62,1.53-3.3,3.01-4.97,4.53-1.67,1.52-3.3,3.08-4.9,4.68-3.19,3.2-6.2,6.57-9.05,10.07-.71.88-1.41,1.76-2.1,2.66-.72.94-1.26,1.64-2.24,3-.45.61-.88,1.22-1.29,1.82l-.62.91-.16.23c-.06.08-.11.15-.11.19l-.09.29-.18.58-.09.29s-.05.09-.02.15l.16.17c.44.46,1.06.63,1.61.61,1.12-.05,2.2-.56,3.3-1.4.57-.42,1.15-.96,1.72-1.46l1.31-1.14,5.07-4.44,10.15-8.87,20.3-17.74-.93-.85c-5.13,7.01-11.19,13.31-17.64,19.17-6.45,5.86-13.29,11.29-20.15,16.73l.78,1.1c15.59-9.66,31.2-19.33,46.83-29.02l-.97-1.18c-9.09,9.8-20.17,17.55-31.52,24.69-3.26,2.05-6.55,4.06-9.84,6.07l.82,1.6c15.61-6.56,31.23-13.12,46.83-19.67l-.91-1.93c-11.7,6.05-23.39,12.1-35.08,18.15-.85.87-1.65,1.73-2.39,2.57,1.11.09,2.17.22,3.18.37l38.96-11.31-1.06-2.54c-6.97,3.83-14.24,7.12-21.64,10.14-5.35,2.19-10.77,4.25-16.2,6.33l.78,2.94,31.49-4.72-.68-3.17c-10.24,2.79-20.76,4.53-31.35,5.18l.17,3.43c2.65-.08,5.31-.12,7.96-.12,6.59,0,13.13.27,19.55.74l-.15-3.59c-7.89,1.25-15.73,1.62-23.31,1.36l.07,3.06c3.08-.44,6.14-.77,9.16-1,3.21-.24,5.29-.42,6.36-.67,1.07-.24,1.13-.55.31-.87-1.63-.63-6.89-1.38-14.47-.65Z"/><path class="cls-1" d="M96.46,249.76c-.66.81-1.63,1.28-2.47,1.85-.37.25-.94.24-1.26.58-.33.35-.43,1.07-.03,2.87.01.06.12.25.13.24.75-.95,1.7-1.4,2.77-1.8.57-.21,1.2-.38,1.8-.6.31-.12.6-.27.9-.41.18-.08.49-.05.02-.81-.37-.6-1.77-2.02-1.85-1.91Z"/><path class="cls-1" d="M106.37,256.15c-.81.76-1.85,1.21-2.76,1.84-.78.55-2.4.14-1.06,3.58.02.05.15.23.16.21.58-1.02,1.5-1.55,2.53-1.93.56-.21,1.17-.33,1.75-.5.3-.09.58-.2.88-.3.18-.06.46.03.09-.78-.29-.64-1.49-2.23-1.6-2.13Z"/><path class="cls-1" d="M87.75,238.05c-.95.9-2.14,1.48-3.19,2.25-.9.66-2.68.41-1.4,3.91.02.06.16.23.17.21.7-1.15,1.76-1.8,2.94-2.32.63-.28,1.32-.48,1.99-.72.34-.12.66-.28,1-.41.21-.08.52-.02.15-.84-.29-.65-1.53-2.21-1.65-2.08Z"/><path class="cls-1" d="M81.8,227.56c-.98.39-2.04.49-3.02.87-.42.16-1,.07-1.38.4-.38.32-.56,1.07-.03,2.82.02.06.13.24.14.23.54-.88,1.44-1.18,2.38-1.24.51-.03,1.04.05,1.55.11.27.02.51.04.77.06.16.02.35.21.28-.68-.05-.7-.55-2.62-.68-2.57Z"/><path class="cls-1" d="M198.2,253.05c1.43.91,2.58,2.18,3.8,3.32,1.09,1.02,1.27,3,4.85,1.63.06-.02.21-.18.19-.19-1.51-.91-2.6-2.16-3.66-3.51-.55-.74-1.12-1.51-1.68-2.27-.3-.39-.63-.74-.95-1.11-.2-.23-.29-.59-1.03-.05-.58.43-1.71,2.07-1.52,2.19Z"/><path class="cls-1" d="M203.66,245.22c1.3,1.15,2.33,2.56,3.52,3.81,1.03,1.08,1.29,3.18,4.84,1.73.06-.02.21-.18.19-.19-1.51-.85-2.58-2.12-3.52-3.52-.51-.76-.95-1.58-1.42-2.37-.24-.41-.52-.79-.77-1.19-.16-.25-.18-.61-.99-.19-.64.33-2.02,1.77-1.84,1.92Z"/><path class="cls-1" d="M210.18,237.97c1.37,1.14,2.48,2.55,3.75,3.8,1.09,1.08,1.45,3.2,4.99,1.67.06-.02.2-.19.18-.2-1.57-.84-2.71-2.1-3.73-3.51-.55-.76-1.03-1.58-1.55-2.37-.27-.41-.56-.79-.84-1.2-.17-.25-.21-.62-1.02-.18-.64.35-1.96,1.83-1.78,1.98Z"/><path class="cls-1" d="M211.9,229.19c1.45.51,2.75,1.36,4.14,2.01,1.2.56,2.04,2.34,4.66-.38.04-.04.12-.25.1-.25-1.55-.16-2.83-.87-4.05-1.75-.66-.47-1.27-1.03-1.91-1.55-.33-.27-.68-.5-1.01-.76-.21-.16-.33-.47-.91.23-.46.55-1.22,2.39-1.02,2.46Z"/><path class="cls-1" d="M165.39,279.26c.79,1.11,1.32,2.38,2.11,3.5.65.93.59,2.87,3.98,1.3.05-.03.21-.18.2-.18-1.18-.58-1.88-1.63-2.35-2.79-.25-.63-.41-1.31-.57-1.97-.1-.34-.19-.66-.28-1-.05-.21.06-.49-.8-.23-.68.21-2.39,1.21-2.28,1.37Z"/><path class="cls-1" d="M150.31,285.34c.42,1.29.36,2.67.44,4,.03.58-.26,1.2-.13,1.81.13.61.69,1.2,2.45,1.88.06.02.27.02.27,0-.43-1.42-.34-2.76-.15-4.18.1-.76.26-1.54.35-2.33.05-.41.05-.81.07-1.23.01-.25.19-.54-.71-.58-.71-.03-2.64.45-2.59.62Z"/><path class="cls-1" d="M141.8,282.59c-.87,1.4-1.92,2.69-2.64,4.2-.3.64-.89,1.24-1.03,2-.13.76.2,1.68,1.78,2.71.05.03.26.08.26.06-.14-1.5.48-2.88,1.36-4.03.48-.63,1.07-1.17,1.64-1.69.3-.27.57-.55.87-.81.18-.16.5-.2-.06-.9-.45-.56-2.06-1.72-2.18-1.53Z"/><path class="cls-1" d="M129.09,277.61c-.93.8-2.04,1.38-2.95,2.22-.39.36-1.02.54-1.31,1.05-.29.5-.23,1.32.88,2.79.04.05.21.18.21.16.27-1.14,1.1-1.88,2.08-2.37.53-.27,1.12-.44,1.68-.61.29-.09.56-.2.85-.29.18-.05.44.05.09-.77-.27-.65-1.4-2.29-1.53-2.18Z"/><path class="cls-1" d="M119.44,269.1c-.5.93-1.32,1.63-1.95,2.47-.54.72-2.17.8.19,3.61.04.04.22.17.22.15.2-1.11.88-1.85,1.71-2.49.45-.34.97-.63,1.46-.95.25-.16.48-.35.72-.52.15-.1.44-.1-.17-.75-.48-.51-2.11-1.66-2.18-1.53Z"/><path class="cls-1" d="M173.73,274.02c1.49,1.1,2.73,2.49,4.12,3.72,1.2,1.05,1.74,3.2,5.22,1.49.06-.03.19-.2.17-.21-1.67-.79-2.93-2.03-4.09-3.42-.62-.75-1.18-1.57-1.77-2.35-.3-.41-.64-.78-.95-1.18-.19-.24-.26-.62-1.05-.14-.62.38-1.86,1.94-1.65,2.09Z"/><path class="cls-1" d="M187.69,265.9c1.27.96,2.33,2.17,3.58,3.17,1.05.85,1.62,2.84,4.72.65.05-.03.17-.22.15-.23-1.5-.43-2.63-1.41-3.61-2.56-.53-.62-.98-1.32-1.44-1.99-.25-.34-.49-.67-.74-1.01-.15-.21-.17-.55-.93-.05-.6.39-1.9,1.9-1.72,2.03Z"/></svg>