<?xml version="1.0" encoding="UTF-8"?>
<svg id="Calque_2" data-name="Calque 2" xmlns="http://www.w3.org/2000/svg" viewBox="0 0 300 300">
  <defs>
    <style>
      .cls-1 {
        fill: #1d1d1d;
      }

      .cls-2 {
        fill: #1db4b8;
      }

      .cls-3 {
        fill: #00abaf;
      }
    </style>
  </defs>
  <g>
    <path class="cls-2" d="M149.24,268.82c-2.44-4.63-2.73-9.97-3.77-14.98-.45-2.19.69-4.78-.32-6.95-1.01-2.2-4.17-4.01-13.35-5.4-.29-.04-1.38.1-1.34.17,3.06,5.18,3.37,10.38,3.17,16.04-.11,3.03-.58,6.22-.72,9.4-.07,1.65.07,3.25.13,4.89.02,1-.76,2.32,3.69,1.65,3.51-.54,12.82-4.21,12.5-4.81Z"/>
    <circle class="cls-3" cx="118.08" cy="110.77" r="7.08"/>
    <circle class="cls-3" cx="138.08" cy="103.77" r="7.08"/>
    <circle class="cls-3" cx="159.08" cy="100.77" r="7.08"/>
    <circle class="cls-3" cx="181.08" cy="101.77" r="7.08"/>
    <circle class="cls-3" cx="200.08" cy="103.77" r="7.08"/>
    <circle class="cls-3" cx="96.08" cy="110.77" r="7.08"/>
    <circle class="cls-3" cx="75.08" cy="111.77" r="7.08"/>
  </g>
  <g>
    <path class="cls-1" d="M203.35,190.91l-2.74,17.94-1.39,8.95c-.49,2.94-1.09,5.83-2.12,8.51-2.08,5.36-5.94,9.89-10.42,13.77-4.45,3.94-9.41,7.43-14.03,11.52-2.29,2.02-4.55,4.3-6.5,6.59-1.96,2.27-3.99,4.18-6.46,5.66-4.89,3-10.72,4.39-16.56,4.79-2.93.2-5.87.17-8.69-.29-2.82-.47-5.51-1.39-7.81-2.93-4.67-3.1-7.98-8.41-12.7-12.59-7.91-7.23-17.63-12.37-24.34-20.61-6.81-8.16-11.17-18.35-13.86-28.8-2.72-10.49-3.95-21.32-5.26-31.85-1.28-10.53-2.4-20.8-3.53-30.58-.07-.62-.29-.29-.27.34.4,11.64,1.16,23.25,2.3,34.82,1.14,11.54,2.6,23.18,6.24,34.31,1.82,5.55,4.17,10.95,7.23,15.96,3.04,5.01,6.82,9.61,11.26,13.47,4.42,3.87,9.27,7.14,13.81,10.71,2.27,1.79,4.47,3.65,6.48,5.69,2.02,2.02,3.84,4.29,5.85,6.46,2.15,2.32,4.58,4.59,7.57,6.06,2.96,1.48,6.21,2.19,9.42,2.45,3.23.26,6.43.12,9.61-.26,3.19-.39,6.35-1.1,9.4-2.23,1.52-.58,3.01-1.25,4.44-2.04,1.42-.81,2.79-1.73,4.07-2.77,2.6-2.11,4.51-4.71,6.66-6.84,4.28-4.38,9.38-8,14.31-11.96,2.56-2.06,5.09-4.22,7.41-6.66,2.32-2.43,4.42-5.16,6-8.22,1.64-3.05,2.56-6.41,3.22-9.67.65-3.28,1.1-6.48,1.64-9.7,1.28-7.91,2.72-15.63,2.94-22.87.17-5.73-2.2-3.58-3.18,2.88Z"/>
    <path class="cls-1" d="M207.39,185.25c.28.74.64,1.53,1.26,2.26.63.73,1.43,1.32,2.46,1.61,1.01.32,2.34.09,3.19-.5.87-.58,1.38-1.28,1.82-1.9,1.58-2.43,2.98-4.91,4.09-7.55,1.09-2.64,2.01-5.37,2.6-8.17.58-2.8.99-5.65,1.04-8.51.15-4.91-.23-10.3-1.95-15.28l-.71-1.83-.18-.45-.36-.73-.72-1.42-.7-1.35-.34-.64c-.21.11-.45.34-.66.49-.87.7-1.68,1.34-2.37,2.09-.39.41-.52.61-.72.9-.19.27-.35.54-.52.82-.32.56-.58,1.14-.8,1.72-.42,1.17-.62,2.38-.58,3.53,0,.15.24.16.28.03.39-1.18.97-2.3,1.68-3.33.67-1,1.73-2.1,2.2-2.48.16-.13.32-.26.49-.39l.13-.09s.05.08.07.12l.13.29.54,1.21c.41,1.18.92,2.43,1.22,3.69,1.44,5.02,1.78,10.33,1.23,15.52-.64,5.59-2.38,11.02-5.08,15.85-.36.62-.7,1.25-1.08,1.86l-1.18,1.79c-.39.61-.79,1.1-1.12,1.37-.36.27-.48.25-.67.22-.27-.06-.67-.39-.97-.74-.35-.4-.75-.97-1.4-1.59-1-.99-2.88-.03-2.33,1.58Z"/>
    <path class="cls-1" d="M70.61,186.79c-.1.08-.81-.47-1.26-.92-.48-.49-.89-1.06-1.24-1.68-.7-1.26-1.17-2.7-1.56-4.19-.77-3.03-1.55-6.08-1.91-9.1-.16-1.3-.17-2.65-.05-3.98.12-1.34.31-2.69.81-3.51.22-.4.57-.73.93-.93.36-.19.72-.26,1.18-.13.46.14.96.54,1.42,1.04.46.5.9,1.07,1.36,1.63.06.07.2,0,.18-.09-.22-.76-.49-1.52-.9-2.26-.4-.72-1.03-1.46-1.94-1.76-.9-.31-1.89-.07-2.59.42-.73.48-1.24,1.23-1.54,1.98-.31.77-.44,1.56-.54,2.32-.09.77-.15,1.54-.16,2.32-.03,1.55.09,3.1.28,4.63.22,1.65.52,3.28.84,4.9.34,1.61.63,3.22,1.11,4.87.5,1.69,1.21,3.44,2.49,4.95.4.45.81.92,1.33,1.23.13.08.22.15.47.26.21.09.42.14.63.16.41.03.88,0,1.38-.4.41-.35.34-.81.16-.93-.17-.15-.4-.14-.61-.18-.05,0-.1-.02-.15-.03l.04.02s.03.02,0-.01c-.01-.02-.08-.12-.11-.26-.04-.12-.04-.44-.05-.36Z"/>
    <path class="cls-1" d="M142.43,179.01c-2.74,3.29-6.85,5.44-11.12,6.15-2.14.36-4.34.37-6.46,0-1.06-.18-2.1-.45-3.1-.81-.52-.14-.98-.41-1.48-.61-.5-.2-.96-.46-1.29-.69-.29-.21-.47-.39-.59-.61-.13-.22-.22-.52-.27-.89-.11-.74-.03-1.71.03-2.79.12-2.11.22-4.25.21-6.37-.02-4.25-.5-8.45-2.22-12.27-.05-.12-.28-.06-.27.06.14,4.49.12,8.96.01,13.43-.08,2.24-.15,4.49-.23,6.73,0,1.15.07,2.49.89,3.67.41.58.95,1,1.47,1.33.53.34,1.05.58,1.59.83,4.6,2.18,10,2.59,15,1.28,2.6-.68,5.09-1.84,7.31-3.44.66-.52,1.38-.97,1.91-1.6.27-.31.53-.62.72-.98.18-.37.31-.77.37-1.19.19-1.33-1.79-2.11-2.48-1.24Z"/>
    <path class="cls-1" d="M120.25,231.14c5.35.39,10.79.51,16.23-.14,5.42-.65,10.89-2.24,15.63-5.3,2.38-1.51,4.46-3.43,6.32-5.43,1.87-2.01,3.55-4.1,5.23-6.18,3.36-4.17,6.6-8.44,9.7-12.81l-2.4-2.11c-2,1.83-4.16,3.47-6.44,4.94-4.24,2.71-9.07,4.84-14.16,6.33-5.09,1.51-10.41,2.43-15.76,2.97-10.7,1.07-21.45.73-31.36,1.43-.31.02-.18.26.14.29,11.53,1.06,23.19,1.81,34.75.36,5.77-.72,11.49-2.03,16.97-4.07,5.48-2.04,10.72-4.84,15.34-8.53.77-.59,1.48-1.25,2.23-1.87l-1.37-1.21c-3.39,4.65-6.94,9.18-10.63,13.59-1.85,2.2-3.69,4.39-5.71,6.31-2.01,1.93-4.24,3.52-6.68,4.76-5.52,2.76-11.85,3.66-18.15,3.7-3.9.03-7.7-.44-11.32.13-2.86.45-1.85,2.58,1.44,2.83Z"/>
    <path class="cls-1" d="M96.62,149.94c.64-.31,1.54-.28,2.26.06.74.34,1.23.93,1.37,1.63.16.71-.02,1.57-.44,2.21-.45.66-.94.97-1.84,1.16-.77.16-1.62.07-2.31-.19-.7-.27-1.2-.66-1.65-1.15-.43-.5-.79-.95-1.04-1.7-.22-.76-.42-1.85.23-3.23.04-.09-.09-.27-.16-.22-1.32.85-1.95,2.25-2,3.6-.05,1.4.59,2.66,1.48,3.57.9.93,2.13,1.49,3.37,1.7,1.26.19,2.51.15,3.79-.3,1.43-.52,2.57-1.75,3.09-3.18.54-1.42.54-3.2-.38-4.71-.95-1.55-2.59-2.45-4.32-2.69-.54-.06-1.1-.13-1.63.03-.52.14-1.01.48-1.23,1.1-.17.49.15,1.09.51,1.57.38.48.72.83.88.77Z"/>
    <path class="cls-1" d="M166.06,139.95c.64-.31,1.54-.28,2.26.06.74.34,1.23.93,1.37,1.63.16.71-.02,1.57-.44,2.21-.45.66-.94.97-1.84,1.16-.77.16-1.62.07-2.31-.19-.7-.27-1.2-.66-1.65-1.15-.43-.5-.79-.95-1.04-1.7-.22-.76-.42-1.85.23-3.23.04-.09-.09-.27-.16-.22-1.32.85-1.95,2.25-2,3.6-.05,1.4.59,2.66,1.48,3.57.9.93,2.13,1.49,3.37,1.7,1.26.19,2.51.15,3.79-.3,1.43-.52,2.57-1.75,3.09-3.18.54-1.42.54-3.2-.38-4.71-.95-1.55-2.59-2.45-4.32-2.69-.54-.06-1.1-.13-1.63.03-.52.14-1.01.48-1.23,1.1-.17.49.15,1.09.51,1.57.38.48.72.83.88.77Z"/>
    <path class="cls-1" d="M105.68,136.37c-2.83-2.54-6.29-4.28-9.96-5.12-3.67-.83-7.59-.72-11.22.53-1.56.51-3.14,1.2-4.63,2.17-1.49.95-2.88,2.28-3.83,3.83-.95,1.54-1.47,3.23-1.62,4.87-.15,1.64.06,3.25.59,4.84.03.1.26.11.28.02.57-3.28,1.36-6.56,3.33-9.11,1.96-2.52,5.04-4.07,8.17-4.69,3.4-.69,6.95-.24,10.09.97,1.63.63,3.17,1.45,4.53,2.49.42.32.79.68,1.2.97.43.27.88.49,1.54.51,1.06.04,2.31-1.56,1.52-2.29Z"/>
    <path class="cls-1" d="M148.64,131.68c1.91-3.28,4.13-6.26,7.32-7.65,3.18-1.46,6.99-1.75,10.7-1.74,3.22.04,6.57.81,9.74,1.71,3.2.92,6.19,1.9,9.82,2.69.12.02.23-.18.14-.24-3.07-2.42-6.6-4.05-10.24-5.09-3.65-1.04-7.44-1.52-11.26-1.54-2.05,0-4.13.09-6.22.46-2.08.38-4.19,1.06-6.1,2.25-1.99,1.24-3.57,2.95-4.92,4.68-.83,1.07-1.73,2.06-1.57,3.51.13,1.15,2.06,1.85,2.58.96Z"/>
  </g>
  <g>
    <path class="cls-1" d="M199.03,118.35l1.81,7.84c.6,2.62,1.15,5.22,1.83,7.91.69,2.68,1.54,5.42,2.87,8.04,1.33,2.57,3.11,5.24,6.06,6.97,1.47.87,3.19,1.31,4.77,1.45,1.6.14,3.09.02,4.49-.13,2.78-.32,5.31-.79,7.36-.44,1.02.17,1.87.52,2.69,1.1.82.57,1.57,1.39,2.27,2.32.69.94,1.33,2,1.93,3.13.62,1.12,1.19,2.27,1.71,3.44,1.82,4.02,3.07,8.46,3.69,13.03.64,4.57.68,9.25.24,13.85-.44,4.61-1.34,9.15-2.51,13.59-1.18,4.44-2.6,8.79-4.14,13.18-.09.28.26.36.42.12,6.02-8.75,9.56-18.98,10.21-29.45.63-10.46-1.67-21.09-6.74-30.42-.69-1.26-1.46-2.52-2.42-3.71-.96-1.18-2.13-2.29-3.59-3.08-1.46-.78-3.1-1.17-4.66-1.27-1.56-.1-3.05.02-4.46.16-2.81.29-5.46.65-7.54-.01-2.02-.6-3.65-2.3-4.88-4.43-2.6-4.47-3.44-10.07-4.6-15.77-.68-3.49-1.09-6.96-3.1-9.78-1.59-2.23-4.35-.49-3.69,2.34Z"/>
    <path class="cls-1" d="M216.05,180.89c.36,3.25.74,6.59,1.53,9.93.77,3.32,2.04,6.72,3.97,9.67,1.89,2.95,4.14,5.47,6.24,7.9,2.13,2.44,4.02,4.79,5.61,7.42,2.76,4.54,4.33,10.04,5.44,15.45,1.1,5.48,1.84,10.82,3.42,16.65.05.19.4.17.42,0,.99-6.39.77-12.83-.51-19.05-1.29-6.21-3.68-12.22-7.23-17.61-1.9-2.93-4.17-5.52-6.21-8.14-2.04-2.61-3.86-5.25-4.97-8.08-1.17-2.95-1.81-6.16-2.14-9.49-.2-2.06-.03-4.12-1.55-5.92-1.2-1.42-4.21-.51-4.02,1.26Z"/>
    <path class="cls-1" d="M206.53,187.61c-.32,3.69-.63,7.45-.64,11.26.01,3.81.3,7.71,1.29,11.54.97,3.85,2.67,7.45,4.54,10.73,1.88,3.31,3.92,6.38,5.71,9.48.77,1.33,1.47,2.71,2.11,4.12.29.71.6,1.42.84,2.15l.38,1.09.32,1.11c.86,2.97,1.32,6.08,1.55,9.18.24,3.11.25,6.22.17,9.36-.08,3.14-.22,6.32-.37,9.69,0,.22.34.28.42.09,2.93-6.79,4.07-14.16,3.37-21.37-.33-3.61-1.14-7.17-2.44-10.58-1.28-3.42-3.05-6.59-4.83-9.69-1.92-3.33-3.87-6.6-5.36-9.97-1.5-3.37-2.43-6.81-2.75-10.42-.35-3.73-.23-7.54.17-11.38.25-2.37.84-4.67-.28-6.98-.89-1.83-4.02-1.41-4.2.58Z"/>
    <path class="cls-1" d="M201.91,200.17c-1.05,6.31-.9,12.81.63,19.03,1.53,6.29,4.48,11.82,6.7,17.25.96,2.34,1.69,4.81,2.11,7.27.44,2.48.49,4.89.31,7.39-.32,4.98-1.41,10.25-.67,15.87.02.18.37.23.42.08,1.79-5.56,3.8-11.23,4.1-17.27.15-3.02-.25-6.05-.99-8.95-.73-2.91-1.79-5.7-2.87-8.44-1.18-2.95-2.38-5.84-3.35-8.75-.97-2.91-1.65-5.81-1.98-8.78-.35-3.07-.38-6.16-.04-9.19.22-1.89.82-3.58-.16-5.53-.76-1.56-3.88-1.72-4.2.02Z"/>
    <path class="cls-1" d="M217.48,139.63c-.79-.87-1.65-1.41-2.39-1.84-.74-.42-1.4-.76-1.92-1.09-.53-.33-.86-.61-1.23-1.04-.36-.41-.68-.92-.98-1.48-.59-1.12-1.13-2.54-1.67-3.91-.54-1.38-1.04-2.76-1.54-4.15-.86-2.4-1.21-5.13-2.1-7.65-.9-2.53-2.33-4.86-5.51-6.78-.1-.06-.43.04-.4.12,1.85,5.64,3.25,11.24,4.92,16.93.45,1.53.9,3.06,1.38,4.59.48,1.51.99,3.17,2.06,4.82.54.84,1.33,1.7,2.17,2.33.82.63,1.57,1.07,2.15,1.49.36.26.6.55.85.66.26.13.53.04,1.23-.16.53-.15,1.53-.51,2.26-1.03.74-.51,1.17-1.32.73-1.82Z"/>
    <path class="cls-1" d="M219.96,136.87c-2.61-2-4.82-4.06-6.17-6.66-1.41-2.61-2.35-5.78-3.5-8.91-.97-2.69-1.59-5.81-3.07-8.62-1.44-2.78-3.86-5.28-7.64-5.82-.12-.02-.37.22-.31.28,2.09,2.26,3.67,5.01,4.91,7.89,1.25,2.89,2.16,5.93,3.06,9.02.98,3.29,1.72,6.83,3.71,10.22,1.03,1.76,2.37,3.26,3.68,4.63.81.85,1.44,1.84,3.07,1.43,1.29-.33,2.97-2.92,2.27-3.46Z"/>
    <path class="cls-1" d="M160.63,60.8c.8-.59,2.25-.8,3.44-.41,1.31.39,2.63,1.31,3.91,2.47,2.62,2.42,5.11,5.18,7.33,8.05,4.49,5.71,7.79,12.4,12.09,18.84,1.85,2.76,3.87,5.66,6.32,8.32,2.43,2.66,5.34,5.12,8.74,6.8,1.71.84,3.47,1.46,5.38,1.83,1.91.35,3.84.33,5.67-.03,1.83-.37,3.56-1.15,4.91-2.29,1.35-1.14,2.2-2.69,2.35-4.16.03-.18-.31-.29-.4-.16-.36.64-.88,1.18-1.45,1.69-.59.48-1.27.87-2,1.19-1.48.6-3.15.88-4.83.84-3.37-.04-6.69-1.38-9.63-3.2-2.95-1.85-5.53-4.3-7.78-7.01-2.26-2.71-4.18-5.71-6-8.81-1.96-3.34-3.77-6.8-5.79-10.21-2.01-3.42-4.28-6.76-6.83-9.87-1.32-1.62-2.71-3.16-4.19-4.66-1.5-1.5-3.26-3.13-5.72-4.15-.73-.3-1.59-.57-2.45-.68-.86-.12-1.72-.1-2.56.07-1.65.31-3.32,1.4-3.91,3.07-.23.65-.09,1.19.2,1.55.28.37.72.59,1.16.74.44.15.87.23,1.22.29.35.05.61.06.82-.1Z"/>
    <path class="cls-1" d="M168.5,58.17c-1.35-.63-2.57-1.7-3.7-3.01-1.13-1.31-2.17-2.82-3.29-4.39-1.12-1.56-2.33-3.19-3.88-4.68-.77-.75-1.64-1.44-2.6-2.05-.96-.62-2.04-1.1-3.14-1.43-1.89-.57-3.96-.89-6.1-.63-2.12.24-4.33,1.09-6,2.68-1.63,1.55-2.6,3.66-2.64,5.73-.06,2.06.94,4.09,2.64,4.96.1.06.42-.08.39-.15-.58-1.33-.59-2.99-.07-4.5.51-1.51,1.53-2.88,2.86-3.78,2.68-1.83,6.49-1.72,9.24-.11,1.48.89,2.73,2.15,3.8,3.62,1.09,1.46,2.03,3.12,3.09,4.81,1.1,1.75,2.34,3.56,4.02,5.25.53.51,1.03,1.08,1.7,1.42.33.17.68.3,1.06.35.39.03.82-.03,1.25-.19.7-.26,1.18-1.18,1.43-2.05.24-.88.3-1.7-.06-1.85Z"/>
    <path class="cls-1" d="M162.87,51.64c-1.43-1.53-2.86-3.28-5.1-4.6-1.11-.65-2.49-1.11-3.91-1.18-1.45-.05-2.76.27-3.91.75-1.99.8-4.22,1.94-5.44,3.96-.6.98-.92,2.15-.74,3.34.18,1.18.86,2.37,2.16,3.22.08.05.42.06.42.02-.23-1.64.36-3.42,1.47-4.76,1.1-1.35,2.7-2.26,4.33-2.53,1.8-.31,3.04.48,4.16,1.67.58.63,1.16,1.33,1.7,2.14.33.5.43,1.18,1.84.78,1.12-.32,3.41-2.38,3.02-2.81Z"/>
    <path class="cls-1" d="M167.4,57.66c-1.18-1.23-2.37-2.44-3.65-3.56-.65-.57-1.29-1.08-2.03-1.61-.75-.52-1.61-1.02-2.69-1.35-.91-.28-2.05-.55-3.31-.39-1.23.16-2.43.78-3.14,1.59-.74.81-1.04,1.75-.95,2.73.1.98.62,2.01,1.6,3.15.06.07.38.2.38.16.25-1.44.81-2.78,1.75-3.51.94-.74,2.08-.6,3.1.11,1.09.74,2.12,2.03,3.01,3.2.46.62.93,1.22,1.33,1.86.25.4.25.95,1.57.41,1.05-.42,3.36-2.44,3.03-2.79Z"/>
    <path class="cls-1" d="M187.41,51c-3.32-5.35-7.54-10.25-12.86-13.9-5.29-3.66-11.78-5.84-18.37-5.69-2.83.09-5.81.43-8.7,1.41-2.92.95-5.68,2.59-7.9,4.71-2.21,2.15-3.89,4.82-4.61,7.68-.77,2.83-.46,5.85.82,8.17.08.15.42.08.42-.06-.2-5.33,2.73-10.7,7.08-14.05,4.35-3.45,10.16-4.68,15.62-4,2.95.37,5.83,1.24,8.47,2.55,2.64,1.28,5.04,3.03,7.21,5,2.23,2.06,4.25,4.36,5.95,6.9,1.06,1.57,1.72,3.26,3.75,4.07,1.61.66,4.04-1.3,3.14-2.79Z"/>
    <path class="cls-1" d="M153.11,45.82c4-.92,8.32-.61,12.5.42,4.18,1.03,8.3,2.76,12.19,4.76,1.9,1.01,3.62,2.12,4.96,3.52,1.37,1.41,2.51,3.15,3.58,5.06,1.07,1.9,2.08,3.96,3.29,6.04,1.22,2.08,2.62,4.06,4.19,5.9,2.67,3.17,5.92,6.15,9.49,8.58,3.54,2.44,7.19,4.45,10.5,6.58,1.67,1.06,3.24,2.16,4.67,3.32,1.45,1.17,2.79,2.47,4,3.88,2.42,2.8,4.41,6.07,4.94,10.33.04.27.39.21.43-.05.4-2.44.13-4.91-.62-7.15-.72-2.25-1.91-4.27-3.27-6.1-1.38-1.83-2.99-3.44-4.74-4.88-1.75-1.4-3.6-2.65-5.47-3.82-3.74-2.34-7.57-4.41-10.94-7.03-3.36-2.6-6.28-5.79-8.58-9.35-2.52-3.78-3.99-8.31-7.01-12.47-.76-1.03-1.63-2.02-2.6-2.91-.97-.89-2.02-1.65-3.09-2.33-2.15-1.36-4.3-2.42-6.51-3.46-4.6-2.11-9.54-3.77-14.85-4.28-1.63-.16-3.28-.26-4.88-.05-.8.1-1.58.3-2.32.58-.73.33-1.44.66-2.05,1.21-.97.84-.91,1.9-.38,2.68.55.8,1.47,1.25,2.55,1.03Z"/>
    <path class="cls-1" d="M223.94,134.99c-.77-8.14-1.73-16.26-2.99-24.35-.64-4.04-1.34-8.07-2.14-12.09-.8-4.02-1.73-8.12-3.22-12.13-1.25-3.45-3.01-7-5.22-10.18-2.19-3.2-4.74-6.12-7.4-8.75-2.67-2.63-5.43-4.98-8.22-7.17-2.8-2.2-5.62-4.22-8.58-6.34-.19-.13-.42.14-.29.32,4.68,6.64,10.66,11.75,15.93,17.39,2.64,2.81,5.08,5.79,7.06,9.03,2,3.23,3.33,6.8,4.32,10.5,1.05,3.98,1.7,8.12,2.35,12.27.63,4.14,1.15,8.29,1.61,12.45.47,4.31.91,8.62,1.2,12.94.19,2.66.05,5.28,1.59,7.56,1.21,1.81,4.22.78,4.02-1.44Z"/>
    <path class="cls-1" d="M161.57,51.5c9.18.97,17.98,5.67,24.02,12.67,1.5,1.77,2.85,3.62,4.01,5.65,1.18,2.02,2.22,4.18,3.26,6.38,1.05,2.21,2.09,4.47,3.28,6.72,1.17,2.24,2.58,4.5,4.13,6.55,2.65,3.52,5.55,6.81,7.8,10.3,1.1,1.76,2.05,3.51,2.7,5.4.67,1.89,1.18,3.88,1.55,5.97.77,4.16,1.23,8.61,2.37,12.93.59,2.16,1.37,4.27,2.39,6.19,1.06,1.91,2.4,3.6,3.94,4.87.19.17.42-.12.3-.32-2.39-3.7-3.39-8.27-3.97-12.87-.59-4.62-.81-9.39-1.89-14.11-.52-2.35-1.3-4.7-2.42-6.88-1.11-2.18-2.48-4.19-3.92-6.1-2.89-3.82-6.04-7.31-8.28-11.3-2.47-4.3-4.2-9.07-6.53-13.76-2.28-4.71-5.5-9.23-9.5-12.81-4.13-3.77-9.03-6.69-14.34-8.59-3.23-1.18-6.66-2.21-9.85-1.1-1.25.44-1.6,1.45-1.36,2.37.25.93,1.06,1.73,2.29,1.84Z"/>
    <path class="cls-1" d="M165.38,57.46c5.21,1.45,10.06,4.21,14.06,7.85,2.01,1.83,3.78,3.84,5.37,6.09,1.6,2.23,3.11,4.68,4.71,7.08,5.44,8.29,10.02,18.81,19.75,23.54.15.07.39-.18.3-.3-6.72-8.8-12.62-18.06-18.33-27.55-1.54-2.55-3.07-5.18-4.96-7.68-1.88-2.5-4.06-4.79-6.48-6.81-2.52-2.09-5.32-3.85-8.29-5.31-1.81-.89-3.65-1.9-5.75-1.08-1.64.66-1.75,3.81-.38,4.16Z"/>
    <path class="cls-1" d="M156.67,31.86c-1.73-1.4-3.66-2.58-5.79-3.41-2.13-.83-4.52-1.26-6.94-1-2.44.26-4.55,1.1-6.54,2.21-1.97,1.13-3.73,2.6-5.21,4.3-1.27,1.47-2.47,3.1-3.41,4.95-.94,1.84-1.6,3.9-1.73,6.02-.15,2.12.26,4.13,1.08,5.88.83,1.75,2.07,3.24,3.74,4.53.11.08.43-.04.4-.14-1.14-3.63-2.02-7.32-1.36-10.88.63-3.55,2.62-6.84,5.35-9.12,1.46-1.25,3.15-2.19,4.91-2.76.87-.31,1.78-.51,2.62-.59.85-.06,1.67-.03,2.5.12,1.7.31,3.38,1.03,4.87,2.08.94.66,1.53,1.56,3.22,1.26,1.36-.21,3.26-2.65,2.29-3.46Z"/>
    <path class="cls-1" d="M70.54,120.7c1.46-2.68,2.93-5.47,3.95-8.59,1.02-3.08,1.49-6.64.74-10.06-.74-3.37-2.22-6.12-2.99-8.7-.39-1.29-.62-2.49-.63-3.75-.02-1.26.14-2.53.46-3.79.55-2.18,1.72-4.31,3.2-6.21,1.47-1.9,3.28-3.52,5.2-4.95,1.95-1.4,3.99-2.63,6.2-3.66,2.21-1.07,4.6-1.9,7.52-2.5.19-.04.2-.39.03-.42-1.56-.37-3.14-.48-4.7-.43-1.56.06-3.08.36-4.55.77-2.93.86-5.61,2.32-7.98,4.15-1.18.93-2.27,1.96-3.29,3.07-.99,1.13-1.91,2.33-2.7,3.61-1.58,2.56-2.75,5.45-3.14,8.57-.21,1.67-.16,3.41.14,5.1.31,1.68.84,3.25,1.35,4.74.51,1.49,1.02,2.91,1.34,4.28.32,1.37.43,2.66.32,3.99-.21,2.74-1.24,5.49-2.67,8.16-.88,1.65-2.1,3.08-1.81,5.29.22,1.75,3.18,2.79,3.98,1.34Z"/>
    <path class="cls-1" d="M82.23,66.82c.68-2.25,1.47-4.34,2.65-5.97,1.13-1.62,2.82-2.77,4.86-3.88,4.13-2.22,8.44-4.06,12.84-5.1,1.9-.43,3.9-.63,5.89-.58,1.97.03,3.94.29,5.87.62,1.94.32,3.82.75,5.81,1.15,1.98.43,4.07.88,6.5,1.48.16.04.36-.24.26-.33-3.72-3.48-8.38-5.39-13.11-6.21-4.76-.83-9.66-.41-14.32.76-2.52.62-4.99,1.44-7.39,2.4-1.2.48-2.39.98-3.56,1.53-1.17.53-2.37,1.12-3.57,1.86-1.23.76-2.48,1.76-3.5,2.96-1.02,1.18-1.82,2.49-2.49,3.78-.82,1.59-1.7,3.08-.85,4.88.67,1.42,3.75,1.87,4.12.65Z"/>
    <path class="cls-1" d="M86.77,69.18c.91-2.7,2.73-5.11,5-6.89,2.28-1.79,4.97-2.93,7.77-3.38,2.48-.41,5.28.18,8.23.16,2.97,0,5.93-.7,8.79-3.27.09-.08.07-.42-.01-.42-3.17.18-6.31.11-9.45-.09-3.15-.16-6.4-.42-9.75.19-3.6.64-7.11,2.21-10.03,4.65-1.51,1.27-2.83,2.78-3.94,4.47-.66,1.02-1.56,2.07-.62,3.56.73,1.14,3.8,1.69,4.01,1.01Z"/>
    <path class="cls-1" d="M86.25,69.1c.9-1.35,2.52-2.27,4.36-2.78,1.86-.52,3.84-.68,5.95-.78,1.84-.1,3.94.37,6.1-.07,1.07-.22,2.15-.66,3.05-1.49.9-.82,1.6-2.03,1.79-3.63.01-.1-.15-.4-.19-.37-1.57,1.13-3.59,1.66-5.63,1.84-2.06.19-4.17.05-6.36-.02-2.39-.06-4.88-.07-7.47.64-1.33.37-2.66.99-3.92,1.86-.74.53-1.75,1.05-1.13,2.53.24.57,1.07,1.2,1.84,1.66.78.46,1.49.78,1.6.6Z"/>
    <path class="cls-1" d="M100.21,49.77c3.54-2.16,7.84-2.77,11.92-2.69,1.79.04,3.6.75,5.42.99,1.86.25,3.75-.01,6.7-1.62.09-.05.22-.37.16-.38-4.45-1.37-8.71-2.43-13.3-2.79-2.46-.18-5-.2-7.54.2-1.31.21-2.61.55-3.89.98-.79.23-1.71.32-1.7,1.85.02,1.2,1.78,3.74,2.23,3.47Z"/>
    <path class="cls-1" d="M93.99,51.38c3.28-4.82,8.57-8.1,14.05-9.26,2.4-.53,5.01-.14,7.49.05,2.54.21,4.97.09,8.7-.89.12-.03.26-.34.18-.38-2.99-1.36-6.07-2.18-9.2-2.54-3.13-.36-6.31-.25-9.47.42-3.38.72-6.7,2.03-9.69,3.96-1.55,1-2.97,2.19-4.31,3.47-.8.79-1.83,1.47-1.31,3.09.41,1.26,3.15,2.71,3.57,2.08Z"/>
    <path class="cls-1" d="M71.76,90.97c.76-3.48,3.02-6.47,5.54-8.91,1.11-1.08,2.67-1.69,3.89-2.67,1.26-1,2.17-2.42,2.89-5.58.02-.1-.11-.41-.16-.39-3.58,2.01-6.86,3.98-9.97,6.59-1.65,1.41-3.27,2.96-4.62,4.79-.7.95-1.3,1.97-1.83,3.05-.35.64-.9,1.27.22,2.25.89.76,3.94,1.3,4.04.86Z"/>
    <path class="cls-1" d="M73.59,97.08c-.06-2.66,1.18-5.19,2.6-7.37.63-.97,1.75-1.59,2.43-2.54.71-.97.95-2.32.6-5.36-.01-.1-.21-.37-.24-.34-2.27,2.33-4.4,4.34-6.39,6.82-1.06,1.33-2.1,2.77-2.89,4.39-.41.84-.71,1.73-.98,2.65-.18.55-.58,1.13.74,1.71,1.04.44,4.13.37,4.12.04Z"/>
    <path class="cls-1" d="M64.74,169.93c-.98-2.15-1.82-4.36-2.51-6.64-.66-2.29-1.23-4.62-1.65-6.99-.85-4.74-1.27-9.59-1.5-14.49-.23-4.88-.32-9.86-.42-14.79-.08-4.92-.08-9.82.21-14.66.24-4.17.87-8.44,1.87-12.62,1.01-4.18,2.43-8.28,4.15-12.18,1.76-3.88,3.81-7.56,6.22-10.99,1.22-1.72,2.39-3.4,3.88-4.82,1.47-1.39,3.32-2.69,5.85-2.77.32-.02.26-.38-.06-.44-1.47-.31-2.98-.11-4.28.33-1.3.45-2.45,1.12-3.48,1.88-1.03.75-1.98,1.62-2.81,2.5-.86.87-1.67,1.79-2.45,2.73-3.11,3.77-5.5,8.05-7.35,12.51-3.74,8.95-5.08,18.66-5.53,28.25-.24,5.18-.25,10.36-.26,15.5,0,5.14-.02,10.32.29,15.54.31,5.41,1.02,10.87,2.39,16.26.83,3.29,1.74,6.68,4.32,8.86,2.02,1.68,4.24-.75,3.13-2.97Z"/>
    <path class="cls-1" d="M68.1,163.57c-4.49-12.69-5.87-26.37-5.08-39.77.34-5.8,1.68-11.87,2.86-17.83,1.18-5.99,2.18-11.9,1.79-18.15-.02-.2-.36-.24-.42-.07-4.45,12.65-7.35,25.63-8.2,39.03-.45,7.21-.34,14.49.55,21.72.25,1.87.48,3.75.87,5.6l.53,2.79c.2.93.43,1.84.64,2.77.49,2.28.9,4.58,2.84,6.12,1.52,1.2,4.19-.52,3.6-2.22Z"/>
    <path class="cls-1" d="M69.72,157.79c.33-5.46.45-10.92.27-16.39-.09-2.73-.26-5.47-.51-8.19-.25-2.72-.64-5.46-1.01-8.08-.31-2.26-.47-4.57-.42-6.82.04-2.24.33-4.45.67-6.71.66-4.51,1.48-9.24.43-14.31-.03-.16-.38-.21-.42-.08-1.44,4.97-3.12,9.95-3.94,15.17-.41,2.6-.55,5.29-.42,7.93.11,2.64.41,5.24.67,7.81.58,5.51.67,11.02.46,16.5-.11,2.84-.25,5.67-.52,8.5-.17,1.74-.64,3.4.57,5.08.96,1.34,4.07,1.09,4.16-.4Z"/>
    <path class="cls-1" d="M212.12,186.72c.18,4.31-.46,8.6-.99,12.86-.12.92-.36,1.85-.6,2.8-.23.99-.45,1.67-.52,1.97,0,.12.01.24.05.41.05.15.04.42-.11.7-.15.28-.45.55-.86.64-.22.06-.39,0-.67,0-.28,0-.59-.04-.93-.14-.09-.03-.41.21-.38.29.22.74.8,1.39,1.47,1.73.67.37,1.45.46,2.16.27,1.45-.35,2.46-1.65,2.85-2.8.43-1.19.53-2.25.76-3.28.22-1.04.44-2.09.67-3.14.49-2.26,1.07-4.53,1.52-6.82.23-1.19.39-2.39.56-3.59.11-.74.48-1.47-.87-2.14-1.07-.53-4.14-.32-4.12.26Z"/>
    <path class="cls-1" d="M213.73,185.72c.88,5.73,1.07,11.46.63,16.96-.18,2.39-1.08,4.77-1.56,7.14-.12.62-.19,1.18-.22,1.59-.04.44.03.71.04,1.06-.02.38-.27.84-.76,1.07-.25.13-.52.13-.84.15-.33.02-.68-.05-1.04-.15-.1-.03-.37.27-.32.37.38.89,1.5,1.54,2.49,1.59,1.02.11,2-.35,2.65-1.09.65-.72.96-1.51,1.21-2.23.24-.73.39-1.4.6-2.1.73-2.77,1.25-5.59,1.63-8.45.39-3.08.68-6.19.76-9.29.05-1.61,0-3.2-.02-4.79-.01-.98.24-1.96-1.21-2.67-1.14-.56-4.16.08-4.04.85Z"/>
    <path class="cls-1" d="M203.47,187.23c-.75,7.31-1.26,14.84-.08,22.39.58,3.77,1.65,7.48,2.98,10.97,1.31,3.51,2.86,6.87,4.37,10.17,1.3,2.84,2.51,5.8,3.54,8.8,1.02,2.98,1.83,6.02,2.43,9.05.32,1.52.54,3.03.77,4.53.17,1.5.37,3.01.44,4.52.22,3.04.14,6.1-.25,9.49-.02.22.32.3.41.12.88-1.66,1.53-3.42,2.02-5.19.46-1.79.71-3.6.84-5.41.09-1.81.05-3.61-.11-5.4-.19-1.78-.45-3.55-.83-5.29-1.47-7-4.54-13.44-7.21-19.87-1.45-3.47-2.78-6.95-3.74-10.48-.98-3.53-1.49-7.09-1.62-10.72-.16-3.75.03-7.54.45-11.33.26-2.34.88-4.57-.2-6.87-.85-1.82-3.99-1.5-4.21.49Z"/>
  </g>
  <g>
    <path class="cls-1" d="M200.24,118.08c1.21,5.24,2.31,10.44,3.58,15.72.67,2.63,1.51,5.28,2.78,7.78,1.27,2.46,2.97,4.93,5.6,6.46,1.31.77,2.82,1.16,4.27,1.28,1.46.12,2.87.01,4.24-.14,2.71-.31,5.32-.84,7.71-.46,2.37.34,4.3,1.86,5.8,3.91.75,1.01,1.42,2.12,2.04,3.28.63,1.15,1.22,2.32,1.76,3.52,3.78,8.25,5.24,18.15,4.19,27.6-1,9.51-4.37,18.47-8.59,26.24-.13.25.08.23.24,0,6.09-8.49,9.71-18.63,10.34-28.99.62-10.36-1.74-20.89-6.85-30.03-.69-1.23-1.46-2.45-2.39-3.57-.93-1.11-2.04-2.14-3.38-2.84-1.35-.7-2.85-1.05-4.32-1.12-1.47-.08-2.91.06-4.3.22-2.77.32-5.51.78-7.94.1-2.4-.65-4.28-2.59-5.63-4.83-2.86-4.73-3.74-10.47-4.97-16.1-.73-3.48-1.32-6.91-2.63-9.88-1.03-2.35-2.19-.97-1.55,1.86Z"/>
    <path class="cls-1" d="M217.29,180.78c.32,3.24.69,6.52,1.46,9.76.76,3.23,1.98,6.46,3.84,9.28,1.83,2.83,4.05,5.29,6.17,7.72,2.15,2.43,4.13,4.87,5.77,7.58,2.85,4.66,4.73,10.27,5.77,15.9,1.04,5.66,1.25,11.31,1.39,16.76,0,.17.18.12.21-.05,2.3-12.46-.38-25.58-7.53-36.07-1.92-2.84-4.22-5.35-6.34-7.93-2.12-2.57-4.1-5.23-5.36-8.19-1.33-3.07-2.04-6.41-2.46-9.8-.25-2.09-.28-4.17-1.08-6.04-.63-1.47-2-.69-1.83,1.06Z"/>
    <path class="cls-1" d="M207.76,187.74c-.35,3.68-.66,7.39-.67,11.14.01,3.74.31,7.54,1.28,11.23.95,3.7,2.6,7.17,4.47,10.4,1.86,3.25,3.91,6.32,5.74,9.46.79,1.35,1.52,2.76,2.19,4.2.31.73.65,1.46.91,2.21l.42,1.13.36,1.15c.95,3.08,1.47,6.32,1.65,9.56.4,6.5-.65,12.87-2.2,18.84-.05.19.14.17.22,0,3.05-6.55,4.27-13.84,3.57-20.96-.33-3.56-1.15-7.08-2.46-10.42-1.29-3.36-3.08-6.47-4.9-9.53-1.97-3.29-4-6.52-5.61-9.92-1.62-3.4-2.69-6.97-3.1-10.67-.46-3.84-.38-7.74-.06-11.64.2-2.4.61-4.74.21-6.99-.31-1.77-1.82-1.18-2.01.81Z"/>
    <path class="cls-1" d="M203.13,200.4c-1.08,6.12-.92,12.46.6,18.5,1.51,6.08,4.45,11.53,6.72,17.05,1.97,4.76,3.25,10.08,2.67,15.32-.47,5.26-2.07,10.45-2.69,15.5-.02.16.16.14.21,0,1.98-5.47,4.04-11.06,4.34-16.99.15-2.96-.26-5.93-1.03-8.77-.75-2.86-1.84-5.6-2.97-8.3-1.23-2.91-2.51-5.78-3.58-8.69-1.07-2.91-1.87-5.89-2.29-8.93-.45-3.15-.55-6.34-.27-9.49.17-1.95.61-3.78.35-5.63-.2-1.47-1.72-1.22-2.05.45Z"/>
    <path class="cls-1" d="M216.53,140.44c-1.3-1.42-2.85-1.95-4-2.71-1.16-.69-1.96-1.7-2.64-2.94-.67-1.23-1.22-2.64-1.78-4.02-.56-1.39-1.09-2.79-1.59-4.19-.88-2.43-1.49-5.12-2.28-7.71-.8-2.6-1.78-5.1-3.51-7.27-.05-.07-.2,0-.18.08,1.43,5.68,2.92,11.27,4.79,16.83.5,1.5,1.02,2.99,1.58,4.47.55,1.47,1.13,3.02,2.15,4.45.52.73,1.2,1.44,1.96,1.97.74.54,1.48.94,2.12,1.35.4.25.73.53,1.05.74.32.22.63.36,1.09.47.35.09.84-.03,1.16-.32.32-.28.45-.79.1-1.19Z"/>
    <path class="cls-1" d="M219.17,137.83c-2.58-2.05-4.95-4.23-6.45-7.01-1.53-2.77-2.51-5.95-3.67-9.07-.98-2.69-1.82-5.69-3.17-8.47-1.32-2.77-3.22-5.34-5.81-6.76-.08-.05-.18.08-.13.15,1.96,2.45,3.47,5.25,4.73,8.15,1.26,2.91,2.25,5.93,3.25,8.98,1.09,3.26,2.04,6.67,4.03,9.77,1.03,1.6,2.32,2.99,3.65,4.26.81.79,1.55,1.62,2.72,1.76.92.11,1.57-1.21.87-1.77Z"/>
    <path class="cls-1" d="M159.93,59.77c1.22-.83,2.99-1.01,4.5-.53,1.58.48,3.02,1.53,4.35,2.74,2.69,2.49,5.21,5.26,7.49,8.18,4.6,5.81,7.97,12.53,12.21,18.87,1.83,2.72,3.85,5.51,6.26,8.05,2.39,2.54,5.2,4.87,8.4,6.5,1.6.82,3.27,1.45,5.03,1.87,1.76.4,3.56.48,5.29.28,1.73-.21,3.4-.76,4.81-1.64,1.4-.89,2.46-2.17,2.99-3.52.07-.17-.12-.18-.22-.03-.44.7-1.03,1.29-1.67,1.82-.66.51-1.41.91-2.2,1.24-1.6.6-3.35.86-5.09.79-3.5-.09-6.89-1.49-9.89-3.35-3-1.89-5.63-4.36-7.94-7.08-2.32-2.72-4.3-5.72-6.17-8.8-2.02-3.32-3.91-6.74-5.98-10.07-2.06-3.35-4.37-6.58-6.95-9.58-1.33-1.56-2.73-3.06-4.2-4.51-1.48-1.44-3.15-2.91-5.31-3.76-1.31-.53-2.86-.77-4.26-.49-1.4.25-2.77,1.03-3.45,2.25-.27.47-.28.86-.19,1.09.09.24.29.34.53.36.49.02,1.02-.23,1.66-.65Z"/>
    <path class="cls-1" d="M167.92,59.27c-1.53-.75-2.85-1.95-4.03-3.33-1.19-1.37-2.25-2.9-3.37-4.44-1.12-1.53-2.31-3.09-3.77-4.48-1.45-1.37-3.23-2.57-5.24-3.16-1.71-.52-3.59-.75-5.49-.48-1.89.26-3.79,1.03-5.26,2.38-1.45,1.33-2.41,3.1-2.69,4.91-.3,1.8.15,3.64,1.16,4.83.06.08.2-.02.18-.1-1.09-3.15.44-7.03,3.28-8.92,2.86-1.94,6.83-1.92,9.85-.33,1.62.89,3.01,2.17,4.2,3.64,1.2,1.46,2.24,3.09,3.35,4.72,1.16,1.69,2.4,3.39,3.99,4.9.98.89,2.05,1.89,3.46,1.8,1.06-.04,1.18-1.58.39-1.94Z"/>
    <path class="cls-1" d="M161.9,52.43c-1.34-1.53-2.73-3.17-4.72-4.3-.98-.56-2.15-.93-3.35-.98-1.21-.03-2.35.25-3.38.68-1.78.73-3.62,1.89-4.76,3.61-1.15,1.68-1.49,3.95-.35,5.63.03.05.19.04.2,0,0-1.79.71-3.59,1.88-5.01,1.16-1.42,2.78-2.46,4.53-2.88,1.9-.51,3.68.15,5.08,1.37.73.63,1.42,1.36,2.05,2.17.39.5.66,1.08,1.52,1.14.68.05,1.68-1,1.32-1.42Z"/>
    <path class="cls-1" d="M166.44,58.46c-1.08-1.21-2.23-2.36-3.47-3.4-1.25-1.01-2.51-2.07-4.32-2.65-.77-.23-1.68-.4-2.63-.25-.94.16-1.84.64-2.45,1.27-1.23,1.3-1.5,2.89-.88,4.54.02.05.17.1.18.06.46-1.38,1.1-2.74,2.17-3.57.52-.42,1.16-.65,1.8-.65.65,0,1.29.2,1.9.51,1.3.7,2.46,1.84,3.52,2.94.55.58,1.09,1.17,1.58,1.8.3.39.48.85,1.25.79.61-.04,1.64-1.05,1.34-1.39Z"/>
    <path class="cls-1" d="M186.34,51.64c-3.19-5.25-7.32-10.02-12.48-13.51-5.13-3.51-11.36-5.54-17.66-5.4-2.7.08-5.53.47-8.24,1.44-2.73.93-5.29,2.49-7.41,4.46-2.11,1.99-3.79,4.4-4.74,7.01-1,2.58-1.16,5.36-.63,7.74.03.15.19.08.2-.07.03-5.59,3.12-10.99,7.58-14.43,4.46-3.53,10.37-4.87,16-4.3,3.04.32,6.02,1.12,8.78,2.38,2.77,1.24,5.31,2.96,7.61,4.93,2.37,2.06,4.51,4.41,6.33,6.98,1.13,1.58,2,3.25,3.42,4.46,1.12.97,2.09-.24,1.24-1.69Z"/>
    <path class="cls-1" d="M152.85,44.6c4.25-.94,8.75-.59,13.05.47,4.31,1.06,8.49,2.81,12.47,4.84,1.96,1.03,3.81,2.2,5.28,3.73,1.5,1.52,2.7,3.36,3.8,5.3,1.1,1.94,2.11,3.99,3.3,6.01,1.19,2.01,2.55,3.94,4.07,5.72,2.59,3.08,5.77,5.91,9.28,8.23,3.48,2.35,7.16,4.33,10.54,6.56,3.39,2.21,6.41,4.75,8.66,7.91,2.26,3.1,3.73,6.78,3.55,10.71,0,.25.17.16.21-.09.42-2.28.22-4.63-.48-6.79-.66-2.17-1.78-4.15-3.09-5.95-1.32-1.8-2.89-3.39-4.6-4.81-1.72-1.39-3.54-2.63-5.4-3.79-3.71-2.33-7.57-4.39-11.01-7.01-3.43-2.61-6.43-5.81-8.82-9.4-2.62-3.83-4.19-8.35-7.17-12.29-1.47-1.97-3.42-3.64-5.5-4.9-2.09-1.27-4.24-2.29-6.43-3.27-4.55-2-9.39-3.55-14.48-3.97-3.1-.25-6.34-.16-8.9,1.22-1,.55-1.13,1.09-.74,1.41.4.35,1.26.39,2.4.16Z"/>
    <path class="cls-1" d="M222.7,135.08c-.7-8.11-1.67-16.2-2.96-24.25-.65-4.02-1.37-8.03-2.19-12.03-.81-3.99-1.74-8.02-3.2-11.93-1.22-3.37-2.97-6.74-5.15-9.81-2.17-3.08-4.69-5.92-7.3-8.56-5.25-5.3-10.65-9.9-15.24-14.85-.15-.15-.22.02-.1.2,4.42,6.63,10.34,11.81,15.62,17.47,2.65,2.83,5.13,5.81,7.16,9.08,2.06,3.26,3.46,6.87,4.52,10.6,1.13,4.02,1.86,8.15,2.59,12.29.72,4.14,1.34,8.29,1.88,12.45.56,4.31,1.06,8.64,1.43,12.97.23,2.67.29,5.29,1.11,7.63.64,1.86,2.01.93,1.83-1.26Z"/>
    <path class="cls-1" d="M161.71,50.27c9.49,1.07,18.53,5.89,24.8,13.1,1.56,1.81,2.97,3.74,4.17,5.82,1.22,2.07,2.28,4.26,3.34,6.47,2.09,4.41,4.22,9.02,7.31,13.04,2.6,3.45,5.56,6.7,7.94,10.29,1.17,1.81,2.21,3.67,2.91,5.68.72,2,1.24,4.1,1.61,6.25.73,4.3,1.04,8.74,1.87,13.04.42,2.15,1,4.25,1.77,6.22.81,1.96,1.86,3.75,3.11,5.27.15.2.22,0,.1-.22-2.39-3.92-3.32-8.59-3.85-13.22-.55-4.65-.74-9.4-1.81-14.05-.52-2.32-1.28-4.62-2.38-6.75-1.1-2.13-2.46-4.11-3.9-5.99-2.89-3.77-6.1-7.24-8.44-11.28-2.56-4.34-4.38-9.1-6.75-13.68-2.33-4.6-5.51-8.91-9.46-12.34-4.06-3.59-8.85-6.38-14-8.15-3.15-1.1-6.43-1.91-9.47-1.52-2.38.32-1.38,1.81,1.15,2.03Z"/>
    <path class="cls-1" d="M165.74,56.27c5.36,1.56,10.36,4.38,14.52,8.12,2.08,1.88,3.94,3.96,5.58,6.25,1.65,2.28,3.18,4.72,4.77,7.12,5.44,8.28,10.89,18.23,18.16,24.59.11.1.2-.05.12-.17-6.37-9.03-12.34-18.24-18.25-27.61-1.59-2.52-3.18-5.08-5.09-7.46-1.9-2.38-4.08-4.55-6.48-6.45-2.5-1.96-5.24-3.62-8.13-4.96-1.77-.82-3.58-1.62-5.43-1.48-1.46.11-1.21,1.67.23,2.05Z"/>
    <path class="cls-1" d="M155.86,32.8c-1.61-1.35-3.43-2.46-5.42-3.23-1.98-.77-4.18-1.15-6.36-.9-4.35.56-8.12,2.97-10.9,6.14-2.38,2.73-4.34,6.35-4.68,10.28-.19,1.95.06,3.86.56,5.59.5,1.74,1.27,3.32,2.22,4.77.06.09.2,0,.18-.09-.93-3.68-1.76-7.45-1.08-11.14.65-3.67,2.61-7.07,5.37-9.55,1.47-1.35,3.19-2.41,5.03-3.12,1.84-.75,3.74-1.05,5.61-.81,1.94.25,3.82.99,5.5,2.06,1.05.66,1.87,1.51,3.13,1.79,1,.24,1.73-1.05.85-1.81Z"/>
    <path class="cls-1" d="M69.46,120.08c1.47-2.64,2.92-5.36,3.89-8.34.97-2.95,1.39-6.26.68-9.43-.7-3.14-2.16-5.85-3.01-8.58-.9-2.7-.91-5.51-.22-8.26.6-2.35,1.78-4.66,3.31-6.72,1.53-2.06,3.45-3.85,5.55-5.34,4.25-2.94,9.17-4.59,14.36-4.37.17,0,.13-.17-.03-.21-1.46-.39-2.97-.54-4.46-.53-1.5.02-2.97.29-4.4.66-2.85.79-5.49,2.2-7.8,3.99-1.15.91-2.22,1.92-3.21,3.01-.96,1.11-1.85,2.29-2.6,3.55-1.51,2.52-2.6,5.35-2.92,8.34-.18,1.61-.09,3.26.23,4.86.33,1.59.88,3.1,1.43,4.57,1.13,2.92,2.18,5.74,2,8.64-.13,3.01-1.19,5.96-2.58,8.75-.86,1.73-1.94,3.3-2.29,5.15-.28,1.46,1.27,1.67,2.07.24Z"/>
    <path class="cls-1" d="M81.05,66.43c.72-2.27,1.55-4.47,2.86-6.29,1.27-1.83,3.16-3.11,5.23-4.25,4.18-2.29,8.57-4.23,13.14-5.3,3.95-.93,8.3-.98,12.38-.11,4.12.83,7.89,2.37,11.55,4.47.12.06.19-.09.09-.18-3.41-3.47-7.96-5.45-12.59-6.24-4.66-.82-9.48-.33-14.03.93-2.46.67-4.86,1.55-7.19,2.57-1.16.51-2.32,1.05-3.45,1.62-1.13.57-2.28,1.17-3.39,1.9-1.14.75-2.25,1.68-3.15,2.79-.91,1.1-1.62,2.31-2.22,3.55-.74,1.52-1.41,3.01-1.25,4.58.13,1.24,1.64,1.19,2.03-.04Z"/>
    <path class="cls-1" d="M85.61,68.74c2.11-5.81,7.67-10.19,13.72-11.12,2.64-.44,5.58-.1,8.53,0,2.97.11,5.91-.11,8.65-1.21.09-.03.05-.2-.03-.2-3.15-.03-6.28-.18-9.42-.38-3.13-.17-6.35-.34-9.55.36-3.44.73-6.7,2.41-9.34,4.82-1.37,1.25-2.57,2.71-3.54,4.31-.58.98-1.25,1.98-.98,3.17.2.92,1.69,1,1.95.24Z"/>
    <path class="cls-1" d="M85.28,68.33c1.15-1.56,2.99-2.59,4.96-3.18,1.99-.6,4.1-.82,6.26-.92,1.87-.1,3.94.1,6.01-.22,2.04-.29,4.17-1.22,5.24-3.11.03-.06-.06-.19-.11-.17-1.77.98-3.84,1.43-5.91,1.61-2.08.19-4.2.13-6.35.17-2.33.06-4.71.26-7.05,1.05-1.21.41-2.38,1.02-3.46,1.83-.63.51-1.38,1.02-1.29,2,.07.74,1.42,1.32,1.7.92Z"/>
    <path class="cls-1" d="M99.63,48.68c3.78-2.14,8.21-2.98,12.53-2.9,1.88.03,3.83.5,5.74.88,1.93.38,3.83.64,6.08.33.07-.01.12-.16.06-.19-4.15-1.69-8.45-2.68-12.92-2.8-2.4-.06-4.83.12-7.22.65-1.24.28-2.46.65-3.64,1.12-.74.26-1.51.49-1.82,1.37-.24.69.69,1.82,1.19,1.54Z"/>
    <path class="cls-1" d="M92.99,50.64c3.53-4.93,8.91-8.54,14.76-9.8,2.53-.56,5.32-.45,7.99-.12,2.7.33,5.27.81,8.17,1.06.09,0,.14-.15.06-.19-5.56-2.92-11.99-3.62-18.05-2.13-3.25.82-6.37,2.26-9.14,4.23-1.43,1.02-2.76,2.2-3.99,3.47-.74.79-1.57,1.52-1.61,2.69-.04.9,1.34,1.44,1.8.78Z"/>
    <path class="cls-1" d="M70.56,90.63c.94-3.64,3.13-6.89,5.81-9.5,1.16-1.14,2.66-2.03,4.05-2.99,1.4-.97,2.69-2.02,3.84-3.76.04-.06-.04-.2-.09-.17-3.59,1.57-6.86,3.62-9.7,6.31-1.52,1.45-2.92,3.07-4.07,4.88-.59.94-1.12,1.93-1.56,2.97-.29.62-.64,1.24-.21,2,.35.59,1.79.74,1.92.26Z"/>
    <path class="cls-1" d="M72.35,97c.08-2.86,1.2-5.62,2.74-8,.67-1.04,1.66-1.92,2.5-2.88.85-.97,1.54-2.04,1.94-3.81.01-.06-.09-.18-.12-.15-2.39,1.9-4.48,3.99-6.2,6.49-.92,1.35-1.74,2.79-2.34,4.36-.31.81-.55,1.65-.72,2.51-.13.52-.33,1.06.27,1.57.47.4,1.92.28,1.93-.09Z"/>
    <path class="cls-1" d="M63.6,170.45c-.99-2.21-1.84-4.48-2.54-6.81-.67-2.34-1.25-4.71-1.67-7.12-.86-4.81-1.3-9.71-1.55-14.63-.25-4.92-.35-9.88-.48-14.82-.1-4.94-.11-9.87.18-14.77.25-4.22.82-8.56,1.78-12.85.97-4.29,2.4-8.51,4.23-12.51,1.87-3.97,4.14-7.72,6.85-11.01,1.37-1.64,2.74-3.23,4.41-4.46,1.64-1.21,3.64-2.15,5.87-1.91.28.02.18-.16-.1-.22-1.31-.3-2.66-.14-3.87.25-1.21.4-2.31,1.02-3.31,1.73-1,.71-1.92,1.53-2.76,2.39-.86.85-1.66,1.75-2.44,2.66-3.1,3.69-5.48,7.91-7.32,12.32-3.71,8.86-4.97,18.52-5.3,28.07-.18,5.16-.11,10.31-.03,15.45.08,5.14.16,10.29.55,15.46.39,5.35,1.15,10.72,2.56,15.98.86,3.22,1.9,6.41,3.79,8.83,1.48,1.9,2.28.28,1.14-2.04Z"/>
    <path class="cls-1" d="M66.92,163.97c-4.42-12.87-6.01-26.66-5.21-40.24.34-5.86,1.43-12.05,2.74-18.09,1.3-6.05,2.8-11.93,3.77-17.59.03-.18-.15-.15-.21.01-4.8,12.4-7.63,25.42-8.24,38.74-.32,7.17,0,14.37,1.04,21.5.29,1.84.55,3.7.97,5.52l.57,2.75c.21.91.46,1.81.69,2.72.53,2.24,1.11,4.44,2.35,6.19.98,1.38,2.1.22,1.52-1.52Z"/>
    <path class="cls-1" d="M68.48,157.69c.78-10.78.4-21.73-1.32-32.38-.32-2.28-.54-4.63-.55-6.98-.01-2.34.25-4.69.66-7.02.81-4.67,2.11-9.29,2.43-13.82.01-.14-.16-.13-.21,0-1.64,4.89-3.38,9.81-4.18,14.97-.41,2.57-.53,5.21-.36,7.81.14,2.6.49,5.18.81,7.75.71,5.51,1,11.05.97,16.58-.02,2.87-.11,5.73-.3,8.59-.13,1.76-.4,3.46.09,5.09.39,1.29,1.86.89,1.97-.58Z"/>
    <path class="cls-1" d="M213.36,186.74c.06,4.35-.4,8.69-.93,13-.12.93-.3,1.88-.49,2.85-.19.98-.36,1.85-.64,2.46-.27.58-.66,1.07-1.17,1.32-.22.13-.62.17-1.04.01-.41-.14-.9-.51-1.06-1.2-.02-.09-.18-.09-.2,0-.16.84.28,1.6.81,2.01.51.45,1.3.65,1.94.49,1.31-.28,2.15-1.36,2.53-2.42.39-1.09.49-2.15.68-3.18.17-1.04.35-2.09.52-3.14.37-2.26.74-4.53,1.02-6.81.14-1.18.24-2.37.34-3.56.06-.73.24-1.45-.39-2.11-.49-.52-1.93-.3-1.92.28Z"/>
    <path class="cls-1" d="M214.97,185.58c.75,5.75,1.15,11.53.7,17.2-.18,2.45-.84,4.98-1.46,7.44-.3,1.27-.53,2.35-1.06,3.02-.16.18-.24.3-.46.41-.21.1-.48.16-.76.16-.29,0-.59-.06-.89-.24-.3-.18-.56-.51-.65-.93-.03-.11-.19-.08-.2.05-.05.53.19,1.09.57,1.44.36.35.78.54,1.22.64.44.09.9.09,1.35-.07.45-.17.77-.42,1.06-.72,1.11-1.25,1.3-2.72,1.72-4.05.72-2.73,1.16-5.53,1.42-8.36.26-3.04.35-6.11.26-9.16-.04-1.58-.15-3.15-.24-4.73-.06-.97,0-1.93-.72-2.72-.57-.62-1.96-.17-1.86.61Z"/>
    <path class="cls-1" d="M204.71,187.38c-.81,7.25-1.28,14.68-.1,22.04,1.15,7.41,4.3,14.22,7.32,20.79,1.31,2.85,2.58,5.81,3.69,8.85,1.09,3.03,1.98,6.16,2.54,9.32,1.18,6.32,1.03,12.64-1,18.48-.06.19.13.18.22,0,.89-1.57,1.55-3.26,2.07-4.97.48-1.73.76-3.49.91-5.26.11-1.77.08-3.54-.05-5.3-.17-1.76-.42-3.5-.8-5.22-1.46-6.92-4.57-13.29-7.35-19.68-1.51-3.45-2.93-6.92-4-10.49-1.08-3.56-1.71-7.21-1.93-10.91-.25-3.83-.12-7.69.23-11.54.22-2.37.64-4.66.28-6.88-.28-1.75-1.8-1.21-2.03.76Z"/>
  </g>
</svg>