<?xml version="1.0" encoding="UTF-8"?>
<svg id="Calque_2" data-name="Calque 2" xmlns="http://www.w3.org/2000/svg" viewBox="0 0 300 300">
  <defs>
    <style>
      .cls-1 {
        fill: #1d1d1d;
      }

      .cls-2 {
        fill: #1db4b8;
      }

      .cls-3 {
        fill: #00abaf;
      }
    </style>
  </defs>
  <g>
    <path class="cls-2" d="M176.52,160.3c-10.54,1.98-20.88,3.15-30.51,1.91-9.52-1.19-18.51-4.95-24.39-10.97-1.26-1.24-2.59-3.05-4.18-5.11-.82-1.04-1.68-2.14-2.72-3.29-1.05-1.15-2.25-2.34-3.72-3.5-1.5-1.15-3.3-2.24-5.37-3.03-.53-.19-1.06-.37-1.59-.53-.55-.15-1.1-.26-1.66-.38-1.12-.23-2.29-.33-3.35-.34-2.17-.03-4.08.3-5.68.68-1.62.39-2.95.85-4.08,1.27l-1.56.59-1.49.6c-.99.41-1.99.82-3,1.26-2.01.87-4.04,1.83-6.15,2.93-4.21,2.2-8.67,4.99-13.95,8.72-.34.24-.36,1.35-.05,1.36,5.66.22,11.23-.05,16.68-.86,2.72-.4,5.42-.93,8.08-1.58,1.33-.33,2.65-.69,3.96-1.08,1.3-.39,2.51-.78,3.65-1.07,1.14-.29,2.23-.49,3.21-.51.99-.04,1.85.11,2.73.41,1.73.58,3.38,1.92,4.94,3.64,1.58,1.73,3.05,3.78,4.74,5.94.42.54.87,1.09,1.33,1.63l1.45,1.63,1.54,1.55c.52.51,1.08.98,1.62,1.47,9.54,8.27,21.97,12.56,34.22,13.83,6.35.68,12.63.5,18.72.23,3.75-.17,7.5.46,10.04-4.4,2.01-3.84-.61-13.55-3.47-13.02Z"/>
    <circle class="cls-3" cx="108.08" cy="102.34" r="7.08"/>
    <circle class="cls-3" cx="112.08" cy="80.34" r="7.08"/>
    <circle class="cls-3" cx="119.08" cy="60.34" r="7.08"/>
  </g>
  <g>
    <g>
      <path class="cls-1" d="M185.96,140.49c-.03,7.91-.24,15.82-1.01,23.65-.78,7.83-2.07,15.61-4.31,23.11-2.25,7.48-5.39,14.72-9.58,21.28-4.21,6.54-9.48,12.41-15.75,16.93-6.28,4.53-13.56,7.54-21.11,9.45-7.56,1.93-15.42,2.71-23.28,3.07-3.92.17-7.92.23-11.82.18-3.86-.07-7.58-.61-10.52-2.66-2.98-2.04-5.33-5.12-7.47-8.39-1.06-1.64-2.17-3.25-3.11-4.97l-1.47-2.54-1.34-2.61c-6.13-12.03-9.88-25.72-11.57-39.81-1.68-14.11-1.37-28.62.36-42.83,1.76-14.21,4.91-28.15,9.29-41.31,4.3-13.2,9.78-25.6,15.78-37.07.37-.73-.04-.48-.46.24-7.97,13.11-14.29,27.17-19,41.71-2.35,7.27-4.29,14.68-5.79,22.17-1.48,7.49-2.53,15.07-3.14,22.69-.61,7.61-.8,15.27-.44,22.91.35,7.64,1.22,15.27,2.76,22.78,3.05,15,8.64,29.68,17.61,42.32,1.22,1.7,2.56,3.35,4.12,4.83,1.55,1.47,3.36,2.76,5.41,3.58,2.03.84,4.18,1.22,6.29,1.41,2.12.18,4.2.18,6.27.17,8.26-.01,16.58-.36,24.81-1.69,8.21-1.33,16.39-3.66,23.81-7.71,7.43-4.04,13.85-9.81,18.96-16.48,5.32-6.93,9.31-14.79,12.18-23,2.86-8.23,4.53-16.78,5.54-25.36,1.24-10.56,1.59-20.96.7-30.41-.74-7.47-2.71-4.19-2.71,4.37Z"/>
      <path class="cls-1" d="M190.9,185.27c3.71.38,7.34-.81,10.29-2.76,2.96-1.94,5.39-4.73,6.93-7.89,1.57-3.14,2.4-6.55,2.79-9.93.38-3.41.39-6.72.14-10.15-.15-1.5-.4-3.16-1.27-4.79-.44-.8-1.04-1.57-1.79-2.19-.74-.62-1.59-1.07-2.47-1.37-1.77-.61-3.63-.64-5.4-.22-1.74.43-3.29,1.26-4.61,2.23-1.33.98-2.45,2.08-3.47,3.22-1.02,1.15-1.94,2.36-2.73,3.63-1.58,2.53-2.63,5.28-3.04,8.01-.03.17.21.2.28.05,1.31-2.78,3-5.39,4.98-7.76,2.01-2.32,4.22-4.61,6.84-6.05,1.32-.71,2.75-1.16,4.2-1.14,1.44,0,2.89.44,3.94,1.33,1.06.88,1.64,2.23,1.9,3.68.27,1.45.27,3.01.28,4.57,0,3.36-.27,6.7-1.05,9.89-.77,3.16-2.09,6.21-4.05,8.62-2.04,2.49-4.8,4.47-7.8,5.29-.92.25-1.85.36-2.73.46-.44.06-.88.09-1.32.18-.44.04-.89.2-1.36.3-.74.2-1.16.81-1.11,1.42.04.59.6,1.3,1.61,1.38Z"/>
      <g>
        <path class="cls-1" d="M130.3,52.87c-1.48-1.6-2.54-3.63-3.26-5.8-.69-2.19-1.06-4.53-1.13-6.9-.07-2.38.07-4.77.65-6.85.58-2.06,1.67-3.87,3.19-5.39,1.31-1.28,3.02-2.26,4.82-2.76,1.81-.54,3.64-.6,5.5-.39,1.86.22,3.73.7,5.67,1.37,1.95.67,3.98,1.52,6.27,2.81.15.08.41-.14.33-.27-2.99-4.58-7.92-7.37-13.12-7.77-5.25-.37-10.48,2.08-13.81,6.25-.9,1.13-1.66,2.38-2.23,3.74-.56,1.35-.94,2.75-1.19,4.16-.48,2.81-.59,5.56-.38,8.41.25,2.93.94,5.9,2.24,8.74.78,1.71,1.7,3.62,3.87,3.93.85.11,1.67-.53,2.2-1.27.53-.76.78-1.57.39-1.99Z"/>
        <path class="cls-1" d="M123.89,51.37c-.85.06-1.86-.25-2.73-.84-.88-.59-1.55-1.38-2.08-2.42-1.05-2.05-1.36-4.77-1.36-7.46,0-5.36,1.55-10.75,4.84-14.6.36-.39.74-.84,1.13-1.15l.58-.49.67-.44c.42-.32.96-.52,1.43-.79.52-.21,1.02-.44,1.56-.62,2.14-.72,4.41-1.04,6.62-1.03,2.22.02,4.39.37,6.63,1.03,2.25.66,4.57,1.63,7.18,2.78.17.07.39-.19.28-.31-1.92-2.28-4.29-4.22-6.97-5.5-2.68-1.29-5.67-1.88-8.6-1.74-2.93.13-5.82.85-8.47,2.16-1.32.68-2.58,1.5-3.72,2.54-1.08,1.03-2.05,2.17-2.9,3.39-1.84,2.64-3.06,5.67-3.82,8.78-.75,3.13-.99,6.34-.79,9.59.13,1.7.43,3.48,1.13,5.24.35.88.8,1.75,1.36,2.57.58.85,1.3,1.62,2.1,2.27.99.8,2.1,1.51,3.39,1.8,1.26.3,2.7.12,3.73-.76.81-.72.58-1.77.16-2.57-.45-.81-.91-1.45-1.33-1.42Z"/>
        <path class="cls-1" d="M117.27,51.84c-4.56-.83-8.62-4.5-10.28-8.91-1.72-4.38-.89-9.56,1.62-13.64,1.1-1.75,2.6-3.33,4.36-4.5,1.74-1.2,3.75-2.05,5.8-2.72,2.07-.66,4.21-1.14,6.46-1.58,2.26-.45,4.61-.83,7.29-1.26.17-.03.23-.37.08-.41-5.38-1.72-11.11-1.68-16.31.12-1.29.47-2.55,1.04-3.76,1.71-1.19.7-2.33,1.51-3.38,2.42-1.03.93-1.99,1.95-2.84,3.06-.83,1.12-1.59,2.31-2.21,3.57-1.33,2.73-2.15,5.77-2.16,8.92-.06,3.15.82,6.38,2.39,9.16,1.65,2.9,4.05,5.39,7,7.14.45.28.9.55,1.38.77.46.25.95.44,1.46.57.49.15,1.01.21,1.53.17.52-.02,1.04-.15,1.54-.43.8-.42,1.06-1.43,1.01-2.34-.07-.92-.39-1.73-.99-1.82Z"/>
        <path class="cls-1" d="M100.17,50.28c-1.44.19-3.05-.22-4.42-1.09-1.38-.86-2.54-2.13-3.25-3.55-1.48-2.99-1.44-6.73-.49-10.2.41-1.51,1.12-2.98,1.99-4.27.87-1.29,1.88-2.38,2.95-3.28,1.04-.89,2.2-1.65,3.58-2.39,1.39-.71,3.02-1.47,5.37-1.69.15-.02.27-.33.15-.39-2.16-1.04-4.52-1.15-6.62-.69-2.11.45-4.08,1.49-5.63,2.91-1.57,1.41-2.8,3.12-3.75,4.95-.96,1.83-1.67,3.76-2.15,5.8-.51,2.19-.74,4.49-.48,6.85.26,2.34,1.04,4.76,2.55,6.83,1.55,2.12,3.72,3.8,6.35,4.75.8.3,1.65.55,2.51.56.86-.02,1.72-.29,2.35-1.09.5-.63.37-1.66.07-2.52-.32-.87-.71-1.54-1.09-1.5Z"/>
        <path class="cls-1" d="M108.18,50.16c-1.55.18-3.27-.3-4.73-1.26-1.47-.95-2.69-2.33-3.42-3.88-1.53-3.24-1.42-7.26-.33-10.97.47-1.61,1.27-3.18,2.22-4.55.96-1.37,2.07-2.52,3.24-3.47,1.13-.93,2.39-1.73,3.9-2.5,1.51-.74,3.27-1.52,5.81-1.71.16-.01.3-.35.17-.42-2.3-1.16-4.83-1.33-7.1-.87-2.28.44-4.42,1.52-6.11,3.02-1.72,1.48-3.07,3.3-4.13,5.24-1.06,1.95-1.87,4.01-2.42,6.19-.59,2.34-.88,4.82-.65,7.35.23,2.52,1.02,5.14,2.61,7.4,1.62,2.31,3.93,4.16,6.73,5.23.86.33,1.77.62,2.69.65.92,0,1.86-.28,2.55-1.12.55-.67.43-1.78.12-2.7-.32-.94-.73-1.67-1.14-1.64Z"/>
        <path class="cls-1" d="M95.53,52.79c-3.17.03-6.38-1.93-8.3-4.67-1.96-2.75-2.6-6.22-1.54-9.13.44-1.27,1.3-2.45,2.37-3.43,1.08-.98,2.33-1.78,3.62-2.48,1.3-.71,2.62-1.34,4.09-2,1.47-.66,3.11-1.38,5.29-2,.14-.04.21-.38.1-.41-4.23-1.26-8.55-.41-12.09,1.55-1.78.99-3.39,2.29-4.71,3.89-1.31,1.59-2.33,3.51-2.8,5.62-1.03,4.59.55,9.53,3.69,13.09,1.64,1.86,3.74,3.36,6.17,4.32.77.23,1.5.62,2.31.62.4.02.79,0,1.18-.12.39-.15.76-.38,1.1-.72.54-.54.58-1.57.41-2.47-.17-.9-.49-1.66-.91-1.65Z"/>
        <path class="cls-1" d="M86.23,53.14c-4.36-.25-8.36,1.51-11.41,4.11-1.53,1.3-2.88,2.92-3.88,4.63-1.01,1.7-1.77,3.52-2.33,5.36-2.24,7.42-1.56,14.85-2.03,21.67-.23,3.42-.74,6.73-1.9,9.73-1.16,2.96-3.02,5.66-5.35,7.88-2.32,2.22-5.14,3.91-8.15,4.93-2.92,1.04-6.46,1.16-10.26,2.15-1.63.44-3.38,1.06-5.03,2.19-1.65,1.15-3,2.83-3.78,4.75-.8,1.95-.91,4.11-.64,5.99.26,1.9.82,3.6,1.43,5.19,1.22,3.19,2.69,6.05,3.6,8.82.94,2.63,1.01,5.37.52,8.11-1.09,5.44-4.69,10.36-9.93,12.45-5.22,2.16-11.6,2.14-17.22-.68-.36-.17-.42.21-.09.45,2.96,2.29,6.56,3.54,10.16,3.87,3.61.34,7.31-.28,10.56-1.88,1.63-.79,3.14-1.84,4.45-3.08,1.31-1.25,2.42-2.68,3.33-4.22,1.81-3.08,2.83-6.64,2.81-10.23,0-1.79-.27-3.6-.78-5.31-.51-1.7-1.19-3.3-1.88-4.87-1.35-3.12-2.9-6.19-3.33-9.31-.2-1.55-.06-3.06.59-4.37.65-1.33,1.71-2.38,3.02-3.11,2.7-1.44,6.1-1.7,9.52-2.27,7.67-1.09,14.83-5.87,18.8-12.73,2.03-3.44,3.1-7.34,3.61-11.14.53-3.82.6-7.58.75-11.22.16-3.75.44-7.43,1.33-10.83.87-3.38,2.41-6.53,4.72-8.62,1.46-1.31,3.2-2.24,4.9-2.85.85-.3,1.69-.57,2.54-.74.43-.13.84-.15,1.28-.27.42-.03.88-.15,1.33-.17.74-.1,1.29-.23,1.72-.54.42-.3.67-.72.65-1.21-.02-.48-.29-1.1-.91-1.61-.61-.51-1.57-.94-2.74-1.01Z"/>
        <path class="cls-1" d="M90.64,48.35c-3.82-2.07-8.21-2.37-12.21-1.41-2.01.49-3.94,1.31-5.68,2.48-1.73,1.17-3.2,2.6-4.45,4.21-2.49,3.22-3.97,7.03-4.64,10.91-.33,1.94-.46,3.92-.38,5.88.08,1.94.3,3.78.47,5.54.33,3.51.4,6.8-1.1,9.23-.3.66-.8,1.19-1.24,1.75-.54.49-1.03,1.03-1.69,1.43-1.22.89-2.72,1.56-4.29,2.14-3.17,1.16-6.71,1.92-10.3,3.04-1.8.57-3.63,1.21-5.42,2.11-1.78.86-3.57,2.03-5.08,3.5-2.59,2.53-4.44,5.79-5.35,9.36-.92,3.55-.82,7.52.51,11.12,1.3,3.54,3.34,6.38,4.85,9.08,1.55,2.7,2.81,5.54,3.69,8.42.87,2.88,1.32,5.82,1.11,8.67-.08,1.41-.36,2.86-.79,4.14-.41,1.28-1.06,2.54-1.91,3.67-.83,1.14-1.82,2.22-2.97,3.11-1.14.89-2.38,1.72-3.76,2.26-1.37.55-2.84.97-4.4,1.01-1.54.03-3.17-.2-4.71-.86-.4-.15-.42.24-.04.46,1.69,1.09,3.69,1.67,5.65,1.72,1.96.07,3.87-.32,5.63-1,3.53-1.35,6.48-3.88,8.46-7.04,1-1.6,1.6-3.41,1.98-5.18.38-1.79.52-3.62.44-5.43-.18-3.62-1.1-7.14-2.46-10.42-.68-1.64-1.45-3.24-2.31-4.8-.86-1.56-1.8-3.03-2.68-4.5-.88-1.47-1.68-2.95-2.27-4.49-.58-1.53-.91-3.12-.96-4.75-.1-3.25.84-6.53,2.62-9.23.89-1.35,1.98-2.56,3.24-3.54.61-.51,1.34-.9,2.02-1.33.72-.38,1.46-.75,2.22-1.07,3.31-1.38,6.95-2.15,10.63-3.14,1.84-.51,3.71-1.03,5.56-1.84,1.83-.79,3.7-1.77,5.26-3.29,1.55-1.49,2.85-3.33,3.53-5.42.71-2.07.87-4.21.85-6.21-.06-4.02-.77-7.67-.41-11.02.32-3.54,1.42-7,3.29-9.85.94-1.42,2.09-2.66,3.39-3.67,1.28-1,2.71-1.71,4.28-2.15,1.93-.51,3.94-.57,5.79-.32,1.87.23,3.58.65,5.4,1.27,1.41.5,2.54.29,2.91-.66.17-.46.14-1.12-.22-1.84-.19-.35-.45-.71-.78-1.08-.35-.34-.79-.67-1.29-.97Z"/>
        <path class="cls-1" d="M82.73,44.37c-2.4-2.57-5.62-3.82-8.74-4.25-1.58-.21-3.16-.22-4.74-.02-.79.11-1.57.25-2.34.46-.76.21-1.49.49-2.23.74-5.83,2.36-10.26,7.23-12.57,12.88-1.15,2.84-1.77,5.93-1.7,9.06.05.78.11,1.56.2,2.34.15.77.28,1.56.47,2.31.39,1.47.87,2.83,1.29,4.12.87,2.56,1.48,4.96.98,6.77-.46,1.82-1.93,3.17-4.1,3.93-1.84.65-4.02.85-6.17.65-2.28-.2-4.71-.7-7.38-.98-2.65-.26-5.65-.34-8.64.74-1.54.49-2.89,1.39-4.12,2.34-1.16,1.04-2.24,2.18-3,3.49-1.64,2.56-2.42,5.54-2.42,8.49,0,2.95,1.05,5.92,2.9,8.12,1.86,2.13,3.9,3.21,5.3,4.94.68.83,1.17,1.92,1.32,3.13.07.61.05,1.25-.15,1.91-.19.65-.59,1.32-1.18,1.84-.3.27.02.48.4.25.85-.54,1.46-1.39,1.79-2.23.33-.85.44-1.71.42-2.53-.03-.82-.2-1.62-.48-2.39-.3-.79-.71-1.44-1.13-2.04-1.76-2.38-3.87-3.91-4.77-6.11-1.03-2.17-1.14-4.74-.64-7.15.58-2.39,1.76-4.7,3.57-6.36,1.77-1.72,4.09-2.64,6.6-2.82,2.5-.2,5.09.18,7.73.55,1.32.19,2.66.37,4.05.47,1.4.09,2.82.06,4.23-.14,1.41-.2,2.82-.55,4.18-1.15,1.35-.59,2.66-1.48,3.68-2.68,1.12-1.29,1.82-2.95,2.02-4.63.23-1.69-.01-3.31-.35-4.81-.68-2.99-1.87-5.66-2.18-8.21-.79-5.14,1.1-10.52,4.4-14.45.4-.54.91-.98,1.36-1.46.47-.47,1-.87,1.49-1.31,1.06-.77,2.15-1.5,3.34-2.01l.88-.39c.3-.12.61-.2.91-.3.61-.21,1.21-.36,1.82-.46,1.22-.2,2.49-.23,3.72-.08,1.52.19,2.91.7,4.14,1.26,1.24.58,2.28,1.17,3.57,1.89.97.59,2.09.63,2.77-.06.33-.34.54-.87.52-1.55-.06-.64-.34-1.45-.99-2.13Z"/>
        <path class="cls-1" d="M52.54,111.8c-3.87,4.02-6.46,9.11-7.54,14.47-.32,1.33-.44,2.7-.6,4.06-.06,1.37-.13,2.74-.01,4.11.19,2.73.65,5.49,1.65,8.09.19.67.53,1.28.8,1.93l.43.95c.16.31.34.61.51.91.67,1.23,1.43,2.4,2.24,3.45,1.59,2.13,3.22,4.02,4.45,5.96,2.4,3.81,3.3,8.45,2.76,13.02-.22,1.97-.77,3.94-1.53,5.83-.76,1.9-1.79,3.71-3.04,5.34-1.26,1.64-2.66,3.08-4.34,4.42-1.67,1.33-3.5,2.58-5.39,3.86-1.89,1.28-3.84,2.61-5.68,4.14-1.84,1.51-3.61,3.3-4.96,5.28-1.36,1.98-2.37,4.19-2.79,6.45-.21,1.13-.24,2.26-.15,3.33.13,1.08.42,2.08.85,2.98.1.22.43.06.41-.16-.31-2.1.15-4.32,1.08-6.37.95-2.05,2.35-3.94,3.99-5.6,3.28-3.33,7.57-5.69,11.63-8.47,2.03-1.39,4.05-2.88,5.82-4.7,1.79-1.8,3.31-3.85,4.54-6.07,2.42-4.45,3.7-9.57,3.44-14.74-.15-2.78-.78-5.57-1.93-8.16-1.14-2.64-2.86-4.87-4.42-6.97-.79-1.05-1.54-2.08-2.21-3.12-.34-.52-.61-1.05-.9-1.59-.29-.53-.58-1.05-.79-1.63-.21-.57-.49-1.1-.66-1.68l-.52-1.73c-.24-1.18-.51-2.36-.59-3.57-.24-2.49-.12-5.01.33-7.46.48-2.45,1.31-4.82,2.45-6.99l.54-.99c.19-.32.42-.62.62-.93l.6-.93c.22-.29.44-.58.64-.88.2-.3.4-.6.58-.91.21-.29.4-.58.59-.9.18-.31.35-.64.5-.98.17-.32.34-.65.49-1.01.46-1.12.1-2.18-.7-2.68-.78-.49-2.09-.42-3.17.65Z"/>
        <path class="cls-1" d="M59.27,180.38c-2.84,7.94-8.44,14.72-15.02,19.91-2.86,2.26-6.39,3.91-9.73,5.69-3.37,1.8-6.52,3.77-9.55,7.21-.1.11.03.43.14.39,8.41-2.5,16.19-6.28,23.12-11.63,3.71-2.88,7.18-6.18,10.12-9.98.74-1,1.51-1.99,2.15-3.06l1-1.59c.32-.54.61-1.1.92-1.64.78-1.32,1.66-2.65.9-4.4-.61-1.37-3.69-1.94-4.07-.9Z"/>
        <path class="cls-1" d="M60.5,186.04c-1.61,6.71-5.55,12.71-10.32,17.62-2.08,2.14-4.81,3.8-7.27,5.66-2.49,1.88-4.7,4.01-6.56,7.66-.06.12.11.42.19.37,6.49-3.27,12.38-7.22,17.56-12.29,2.77-2.73,5.33-5.75,7.44-9.14.53-.88,1.08-1.77,1.52-2.71l.7-1.39c.22-.47.42-.95.63-1.43.54-1.16,1.22-2.31.22-3.75-.8-1.12-3.89-1.47-4.11-.59Z"/>
        <path class="cls-1" d="M61.1,190.9c-.09,4.79-1.59,9.48-4.19,13.56-2.58,4.14-6.06,7.84-9.43,11.85-2.89,3.41-6.43,7.2-8.37,11.96-.98,2.35-1.54,4.94-1.33,7.48.19,2.52,1.18,4.95,2.93,6.59.1.1.43-.03.4-.15-.61-2.18-.73-4.55-.31-6.87.4-2.32,1.2-4.61,2.31-6.75,2.18-4.33,5.43-8.01,8.83-11.64,3.64-3.92,7.56-7.84,10.42-12.86,1.49-2.6,2.55-5.46,3.25-8.41.42-1.79.96-3.67-.36-5.35-1.07-1.29-4.12-.66-4.13.57Z"/>
        <path class="cls-1" d="M62.64,198.19c.47,2.09.17,4.43-.64,6.67-.81,2.25-2.07,4.36-3.61,6.35-3.06,4.04-7.18,7.75-10.03,12.91-2.43,4.35-4.32,9.6-4.18,14.94.06,2.65.63,5.27,1.77,7.57,1.13,2.29,2.83,4.24,5,5.48.13.08.41-.14.34-.25-2.52-4.17-3.64-9.22-3.33-14.16.3-4.95,2.03-9.79,4.94-13.75,3.15-4.33,7.54-7.75,11-12.69,1.75-2.56,3.16-5.48,3.78-8.82.18-1.02.35-2.07.23-3.11-.12-1.03-.53-2.04-1.42-2.75-.72-.57-1.74-.38-2.55.04-.83.44-1.41,1.02-1.3,1.57Z"/>
        <path class="cls-1" d="M64.65,205.26c.13,2.34-.59,4.76-1.71,7.06-1.13,2.31-2.7,4.49-4.4,6.62-1.72,2.12-3.63,4.27-5.38,6.62-1.75,2.35-3.42,4.94-4.48,7.94-.93,2.55-1.5,5.51-1.26,8.46.23,2.95,1.16,5.82,2.57,8.28,2.88,4.9,7.36,8.2,12.5,9.18.16.03.34-.27.22-.36-4.15-3.27-7.91-7.18-10.09-11.9-1.05-2.35-1.65-4.9-1.55-7.42.1-2.52.89-4.97,2.15-7.2,1.33-2.42,3.13-4.62,5.04-6.76,1.9-2.14,3.99-4.25,5.87-6.68,1.94-2.51,3.71-5.31,4.82-8.62.33-1.02.66-2.06.71-3.13.04-1.06-.18-2.15-.94-3.04-.6-.71-1.64-.73-2.52-.45-.89.29-1.58.79-1.55,1.41Z"/>
        <path class="cls-1" d="M72.44,218.77c-1,1.67-2.03,3.33-3.08,4.97l-3.2,4.97c-1.07,1.72-2.1,3.55-2.89,5.59-.39,1.02-.71,2.08-.93,3.19-.23,1.14-.32,2.3-.28,3.46.09,1.99.39,4.11,1.4,6.17,1.02,2.03,2.67,3.95,5.22,4.83,2.42.78,4.95.35,6.75-.98.9-.67,1.59-1.59,1.9-2.59.31-1,.2-2.04-.31-2.81-.06-.09-.4-.14-.41-.08-.12,1.28-1.28,2.48-2.8,2.97-1.5.51-3.29.39-4.63-.41-1.38-.82-2.4-2.25-2.93-3.84-.54-1.6-.62-3.36-.34-5.02.3-1.79,1.06-3.54,2.01-5.17.95-1.64,2.11-3.2,3.31-4.81l3.72-5.08c.77-1.04,1.75-1.91,1.23-3.62-.41-1.35-3.22-2.66-3.76-1.76Z"/>
        <path class="cls-1" d="M77.77,227.45c-2.47,4.07-5.2,8.38-6.34,13.58-.15.64-.25,1.3-.34,1.96-.07.68-.13,1.37-.12,2.06,0,1.37.14,2.74.47,4.07.64,2.66,1.88,5.26,3.97,7.33,1.76,1.78,4.23,3.24,7.03,3.61,2.76.37,5.66-.29,7.94-1.94,2.32-1.61,3.78-4.36,3.83-6.88.12-2.53-1.09-4.94-3.01-5.98-.12-.07-.41.11-.37.2.87,1.67.99,3.82.36,5.73-.62,1.91-2.03,3.53-3.89,4.4-1.83.89-4.02,1.08-5.91.44-1.9-.63-3.49-2.02-4.53-3.78-1.14-1.88-1.7-4.11-1.71-6.29-.05-2.16.56-4.3,1.4-6.37.88-2.14,2.08-4.21,3.44-6.24.84-1.25,1.95-2.31,1.58-4.22-.29-1.51-3.13-2.8-3.81-1.69Z"/>
        <path class="cls-1" d="M83.26,232.79c-1.77,1.58-3,3.57-3.62,5.77-.62,2.18-.6,4.68.39,6.9.8,1.85,1.95,3.92,3.91,4.94.96.5,2.09.71,3.19.42,1.09-.29,2.15-1.09,2.78-2.47.04-.09.02-.43-.02-.42-1.4.4-3.05,0-4.29-.91-1.26-.91-2.13-2.33-2.35-3.76-.25-1.56.27-3.13,1.07-4.31.41-.62.86-1.17,1.39-1.58.36-.25.79-.2.28-1.5-.2-.53-.73-1.42-1.3-2.12-.56-.7-1.19-1.18-1.44-.97Z"/>
        <path class="cls-1" d="M138.93,52.74c.57-5.25,3.16-10.32,6.97-14.04,1.91-1.86,4.13-3.39,6.55-4.43,2.41-1.05,5.04-1.61,7.71-1.71,5.33-.2,10.77,1.46,15.17,4.52,2.2,1.53,4.15,3.41,5.69,5.57,1.58,2.15,2.86,4.83,4.74,7.41.95,1.29,2.06,2.59,3.51,3.67,1.42,1.09,3.24,1.84,5.04,2.12,1.8.26,3.5.12,5.02-.08,1.54-.2,2.95-.46,4.25-.56,4.94-.5,10.01,2.25,12.78,6.47,1.39,2.11,2.19,4.48,2.22,6.96.05,2.54-.55,5.27-1.1,8.2-.55,2.9-1.02,6.26-.39,9.61.29,1.67.87,3.38,1.84,4.97.49.79,1.1,1.53,1.79,2.19.71.64,1.49,1.22,2.32,1.64,2.88,1.49,5.72,1.67,8.08,2.14,1.19.22,2.28.48,3.21.87.23.1.44.21.67.31l.6.39c.44.22.73.61,1.11.89,1.29,1.39,2.12,3.33,2.32,5.55.24,2.2-.02,4.57-.66,6.83-.29,1.14-.74,2.24-1.21,3.31-.27.53-.51,1.03-.81,1.57-.31.54-.62,1.08-.97,1.62-1.33,2.16-2.86,4.31-4.37,6.57-1.51,2.26-3,4.67-4.2,7.34-.58,1.35-1.11,2.74-1.47,4.21-.21.72-.32,1.48-.45,2.23-.11.76-.13,1.57-.18,2.34-.05,3.15.75,6.22,2.1,8.91,1.35,2.7,3.26,5.06,5.53,6.96,2.27,1.89,4.94,3.32,7.82,4.03,2.87.72,5.93.68,8.71-.21,2.79-.88,5.17-2.57,6.97-4.61,1.81-2.04,3.08-4.43,3.82-6.89.73-2.47.92-5.04.5-7.43-.41-2.38-1.46-4.56-3-6.13-.35-.42-.48.03-.2.48,1.39,2.05,2.03,4.58,1.96,7.14-.07,2.56-.82,5.14-2.08,7.43-1.26,2.29-3.07,4.29-5.26,5.66-2.19,1.38-4.75,2.07-7.35,1.94-5.22-.22-10.13-3.51-13.02-7.95-1.46-2.22-2.43-4.77-2.7-7.4-.29-2.61.22-5.27,1.17-7.8,1.93-5.07,5.5-9.45,8.52-14.26,3.16-4.74,5.19-10.67,4.46-16.62-.21-1.48-.55-2.98-1.25-4.36-.67-1.38-1.59-2.71-2.82-3.69-.29-.27-.6-.52-.94-.71l-1-.62c-.7-.35-1.42-.66-2.14-.87-1.45-.46-2.89-.7-4.28-.93-2.76-.45-5.39-1.01-7.06-2.71-1.71-1.67-2.45-4.26-2.57-6.85-.15-2.81.53-5.67,1.12-8.69.58-3,1.14-6.25.5-9.61-.31-1.66-.9-3.23-1.65-4.72-.78-1.48-1.77-2.82-2.88-4.06-1.14-1.21-2.44-2.27-3.84-3.18-1.42-.88-2.96-1.57-4.58-2.07-1.63-.46-3.34-.68-5.05-.67-1.68.05-3.26.31-4.72.5-1.47.2-2.85.32-4.09.19-1.23-.13-2.3-.54-3.29-1.22-1.99-1.37-3.48-3.84-4.98-6.43-1.45-2.6-3.33-5.52-5.72-7.79-4.91-4.78-11.46-7.79-18.33-8.33-3.43-.28-6.95.06-10.3,1.1-3.36,1.04-6.49,2.78-9.13,5.04-3.25,2.78-5.94,6.19-7.55,10.01-.85,1.88-1.35,3.89-1.64,5.87-.2,2-.22,3.98.22,5.85.08.37.16.7.25,1,.12.3.24.56.36.78.24.45.49.77.73.97.49.39.96.31,1.37-.1.41-.41.72-1.14.94-2.09.14-.48.25-1.02.32-1.61.1-.59.22-1.24.25-1.95Z"/>
        <path class="cls-1" d="M146.19,59.56c-.23-4.81,1.59-9.72,4.67-13.52,3.08-3.82,7.4-6.54,12.09-7.4,2.02-.39,4.2-.34,6.34.03,2.14.38,4.24,1.05,6.26,1.86,2.03.81,4,1.74,6.03,2.74,2.03,1.01,4.14,2.07,6.51,3.34.15.08.41-.16.31-.28-3.19-4.59-7.72-7.88-12.73-9.8-5-1.91-10.63-2.45-16-.99-5.77,1.58-10.89,5.39-14.31,10.44-1.77,2.63-3.06,5.61-3.8,8.77-.16.98-.48,1.95-.43,2.93.01.49.06.97.2,1.44.17.47.42.92.78,1.33.57.66,1.6.73,2.49.49.89-.24,1.63-.74,1.59-1.38Z"/>
        <path class="cls-1" d="M151.92,62.48c.99-3.79,3.22-7.28,6.14-9.94,2.93-2.67,6.53-4.53,10.33-5.33,3.32-.73,6.96-.15,10.38.58,3.49.75,6.82,1.46,11.4,1.82.15.01.33-.28.23-.35-3.6-2.67-7.64-4.44-11.87-5.37-4.23-.91-8.68-.96-13,.13-4.64,1.19-9.01,3.65-12.48,7.14-1.8,1.81-3.32,3.92-4.56,6.21-.72,1.4-1.67,2.84-.69,4.57.75,1.32,3.88,1.51,4.12.54Z"/>
        <path class="cls-1" d="M159.45,65.34c2.56.73,5.07.61,7.37.32,2.32-.3,4.49-.83,6.61-1.34,4.19-1.01,8.34-2.13,11.98-1.68,1.79.23,3.39.88,4.63,2.04,1.27,1.11,2.13,2.64,2.7,4.45,1.15,3.66,1.15,8.03,1.98,12.54.42,2.26,1.06,4.63,2.31,6.85.63,1.11,1.38,2.17,2.27,3.08.89.91,1.85,1.7,2.86,2.4,4.07,2.72,8.44,3.95,12.4,5.44,3.94,1.44,7.73,3.14,9.48,5.99.44.7.81,1.47.99,2.29.25.8.29,1.64.3,2.5-.07,1.73-.59,3.56-1.36,5.4-1.33,3.19-3.39,6.35-5.18,10-1.81,3.74-2.96,7.83-3.43,12.01-.94,8.35.87,17.15,5.43,24.37l.86,1.34c.31.44.64.85.96,1.28.33.42.63.85.98,1.25l1.07,1.18c1.4,1.57,3.03,3.04,5,4.22.99.58,2.07,1.08,3.23,1.39,1.16.32,2.39.44,3.58.39,2.39-.14,4.56-1.03,6.33-2.26,1.78-1.23,3.21-2.8,4.28-4.53,1.08-1.75,1.73-3.61,2.15-5.46.83-3.72.71-7.34.47-10.89-.03-.45-.4-.26-.44.19-.42,4.11-.93,8.15-2.51,11.74-.79,1.79-1.83,3.4-3.23,4.72-1.37,1.34-3.04,2.35-4.82,2.89-1.79.51-3.68.47-5.41-.23-1.74-.68-3.31-1.92-4.72-3.31-.72-.69-1.34-1.49-2.02-2.24-.64-.78-1.22-1.6-1.81-2.42-1.09-1.69-2.11-3.44-2.89-5.3-1.61-3.7-2.62-7.68-2.89-11.71-.27-4.03.12-8.11,1.22-11.98.27-.97.64-1.91.96-2.86.42-.92.78-1.84,1.24-2.75.92-1.82,1.96-3.61,2.96-5.46,1-1.85,1.99-3.76,2.72-5.83.72-2.07,1.23-4.34,1.01-6.69-.1-.62-.14-1.26-.33-1.87l-.25-.92-.34-.89c-.5-1.17-1.19-2.26-2.02-3.22-1.66-1.93-3.79-3.23-5.89-4.28-4.24-2.06-8.62-3.23-12.47-5.1-1.91-.93-3.69-2.01-5.06-3.4-.68-.7-1.31-1.41-1.74-2.27l-.36-.62c-.11-.21-.19-.45-.29-.67-.19-.45-.39-.89-.52-1.39-1.24-3.85-1.17-8.31-1.92-13.01-.41-2.43-1.06-5.05-2.62-7.45-1.56-2.39-4.01-4.26-6.75-5.12-1.36-.45-2.75-.66-4.08-.72-1.34-.06-2.65,0-3.9.15-2.52.28-4.88.82-7.16,1.33-2.81.63-5.49,1.18-7.93,1.48-2.46.29-4.52.37-6.64-.07-.41-.11-.8-.16-1.14-.19-.33-.04-.64-.03-.9.04-.53.13-.9.45-.99.96-.08.5.06,1.25.68,1.99.58.77,1.64,1.51,3.01,1.9Z"/>
        <path class="cls-1" d="M156.61,72.17c3.44,4.91,9.25,7.9,15.3,7.64,2.97-.17,5.53-.97,7.87-1.31,1.16-.17,2.26-.24,3.25-.12.98.13,1.88.45,2.71.95,1.65.99,2.94,2.85,3.91,4.95.99,2.12,1.65,4.47,2.29,6.96.67,2.58,1.5,5.22,2.82,7.79.66,1.28,1.47,2.55,2.52,3.71,1.04,1.16,2.34,2.19,3.85,2.9,1.28.61,2.73.99,4.07,1.1,1.34.13,2.61.1,3.8.04,2.37-.12,4.6-.3,6.09.14.73.21,1.22.56,1.64,1,.38.43.64,1.03.76,1.79.13.75.09,1.63-.06,2.5-.16.84-.48,1.78-.89,2.76-.8,1.96-2.01,4.11-2.73,6.68-.74,2.52-.88,5.13-.59,7.58.3,2.46,1.1,4.78,2.24,6.78,1.17,2,2.7,3.66,4.42,4.84.21.15.41-.16.26-.36-2.87-3.58-4.28-8.39-3.95-13.07.14-2.36.77-4.62,1.77-6.8,1-2.19,2.31-4.39,3.01-6.99.32-1.3.48-2.66.32-4.04-.15-1.37-.61-2.78-1.54-3.94-.93-1.13-2.22-1.95-3.59-2.32-1.36-.39-2.72-.43-4.01-.4-2.57.06-5.02.42-7.23.05-2.18-.35-4-1.61-5.34-3.42-1.44-1.95-2.37-4.37-3.1-6.84-.37-1.26-.65-2.48-.97-3.84-.33-1.33-.69-2.68-1.14-4.02-.91-2.66-2.11-5.41-4.35-7.7-1.11-1.13-2.52-2.09-4.09-2.67-1.56-.61-3.25-.8-4.79-.74-3.22.11-5.96.98-8.41,1.18-2.36.25-4.62-.2-6.71-1.23-1.28-.64-2.38-1.52-3.42-2.39-1.04-.88-2.03-1.73-3.27-2.57-.95-.67-2.06-.64-2.75.01-.69.63-.94,2.02,0,3.37Z"/>
        <path class="cls-1" d="M152.96,62.31c.28,4.07,1.33,8.04,3.08,11.71,1.74,3.66,4.34,6.99,7.48,9.55,5.3,4.46,12,9.12,19.55,6.1.12-.05.2-.38.1-.41-3.48-.92-6.85-2.08-10.01-3.65-3.15-1.56-6.09-3.56-8.46-6.07-2.57-2.67-4.31-5.97-5.36-9.37-.54-1.77-.92-3.56-1.08-5.37-.08-1.13.17-2.17-1.2-3.15-1.1-.8-4.16-.5-4.1.65Z"/>
        <path class="cls-1" d="M161.3,83.34c.03,3.32.62,6.71,2.31,9.84.85,1.55,2.01,3.03,3.52,4.15.75.56,1.58,1.03,2.44,1.41.86.36,1.72.61,2.54.8,1.66.37,3.11.55,4.47.86,1.38.31,2.74.7,4.08,1.16,2.67.93,5.24,2.15,7.64,3.65,1.03.65,2.04,1.36,3,2.17.96.8,1.93,1.67,2.58,2.47.33.41.59.8.77,1.18.17.36.31.78.46,1.35.15.56.29,1.24.51,2.01.11.39.24.79.41,1.22.18.41.38.82.59,1.22.88,1.59,2.19,2.88,3.58,3.75,1.4.88,2.88,1.39,4.32,1.66,2.9.53,5.65.16,8.26-.77.16-.06.14-.41,0-.42-2.82-.31-5.61-.8-8.1-1.9-2.49-1.06-4.56-2.91-5.31-5.41-.4-1.26-.56-2.78-1.3-4.3-.74-1.5-1.87-2.65-2.98-3.65-2.23-1.98-4.65-3.75-7.26-5.24-2.81-1.61-5.8-2.92-8.94-3.87-1.55-.48-3.23-.83-4.68-1.16-1.47-.34-2.71-.73-3.65-1.4-2.02-1.33-3.28-3.78-3.77-6.5-.28-1.71-.06-3.32-1.32-5-.49-.67-1.51-.99-2.42-.88-.89.1-1.73.67-1.72,1.58Z"/>
        <path class="cls-1" d="M168.36,98.71c1.3,1.29,2.35,2.84,3.1,4.53.76,1.68,1.12,3.47,1.45,5.54.17,1.03.34,2.11.59,3.22.24,1.11.64,2.27,1.06,3.38.88,2.22,2.22,4.21,3.77,5.97,1.33,1.53,2.87,2.96,4.59,4.21,1.71,1.28,3.69,2.24,5.76,2.83,2.06.61,4.29.64,6.32.15,2.03-.49,3.86-1.73,5.05-3.42.08-.1-.07-.42-.16-.39-1.73.65-3.62.92-5.51.89-1.9-.02-3.79-.48-5.58-1.14-1.8-.66-3.47-1.67-4.96-2.86-.77-.57-1.42-1.27-2.1-1.94-.61-.73-1.23-1.45-1.72-2.26-1.1-1.7-1.88-3.58-2.27-5.49-.39-1.95-.46-4.08-.82-6.39-.36-2.44-1.25-4.95-2.52-7.17-.76-1.36-1.56-2.88-3.5-2.91-.77,0-1.56.67-2.09,1.41-.53.74-.81,1.52-.46,1.86Z"/>
        <path class="cls-1" d="M181.71,124.9c1.12,3.95,2.99,7.67,5.73,10.81,2.73,3.12,6.43,5.62,10.79,6.44,1.86.35,3.81.51,5.78.31,1.97-.19,3.95-.74,5.7-1.74,1.74-.99,3.25-2.47,4.07-4.26.83-1.78.94-3.86.08-5.6-.05-.11-.39-.17-.41-.09-.64,3.1-3.2,5.76-6.29,7.04-3.09,1.32-6.72,1.43-9.76.23-3.34-1.31-5.97-3.92-7.76-6.9-.94-1.55-1.72-3.18-2.24-4.9-.3-1.08-.28-2.13-1.81-2.81-1.24-.56-4.18.34-3.88,1.46Z"/>
        <path class="cls-1" d="M185.15,133.1c1.31,2.78,2.65,5.64,4.5,8.34,1.86,2.69,4.25,5.21,7.59,6.73,1.43.64,2.96,1.16,4.58,1.4,1.61.25,3.33.22,4.96-.28,1.61-.49,3.15-1.49,4.06-2.95.92-1.43,1.11-3.29.26-4.8-.05-.09-.38-.2-.4-.14-.29,1.13-1.01,2.17-2,2.93-.99.77-2.24,1.27-3.53,1.49-2.6.44-5.41-.2-7.47-1.68-2.33-1.67-3.93-4.09-5.18-6.68-.65-1.35-1.26-2.73-1.78-4.18-.32-.9-.35-1.88-1.94-2.16-1.26-.22-3.99,1.21-3.63,1.98Z"/>
        <path class="cls-1" d="M185.99,132.96c-.87,4.06-1.09,8.23-.58,12.34.52,4.1,1.76,8.14,3.81,11.79.87,1.56,1.83,3.22,3.14,4.78,1.3,1.54,3.03,3.02,5.19,3.76,2.22.8,4.73.58,6.58-.57.92-.56,1.69-1.37,2.13-2.29.44-.92.52-1.96.19-2.82-.04-.11-.36-.22-.39-.16-.43,1.25-1.74,2.28-3.3,2.63-.77.19-1.59.23-2.39.12-.79-.1-1.57-.39-2.31-.78-1.48-.78-2.74-2.01-3.77-3.41-1.03-1.4-1.88-3-2.55-4.63-1.47-3.54-2.05-7.36-1.99-11.07.03-1.93.2-3.83.59-5.69.24-1.16.81-2.13-.23-3.5-.83-1.11-3.86-1.63-4.12-.49Z"/>
        <path class="cls-1" d="M151.29,32.67c4.37-4.62,9.74-8.37,15.7-9.85,5.89-1.44,12.56-.5,17.29,3.04,2.41,1.71,4.03,4.17,5.57,7.06,1.55,2.85,2.95,6.08,5.38,9.01,1.21,1.45,2.74,2.79,4.48,3.74,1.73.94,3.56,1.52,5.31,1.91,3.51.78,6.83.99,9.69,1.89,5.78,1.74,10.77,6.13,13.39,11.56,1.32,2.64,1.85,5.83,2.96,9.27.57,1.71,1.26,3.51,2.51,5.19.59.85,1.37,1.61,2.22,2.28.86.65,1.84,1.2,2.8,1.54,1.93.72,3.72.94,5.25,1.27.78.14,1.43.37,2.12.58.66.26,1.34.51,1.96.87,2.56,1.33,4.72,3.47,6.25,5.96,1.5,2.51,2.38,5.4,2.29,8.24-.06,2.9-.94,6.06-1.74,9.34-.67,2.85-1.44,5.91-1.2,9.42.15,1.75.63,3.58,1.54,5.24.52.78,1.01,1.58,1.67,2.27.64.69,1.35,1.27,2.07,1.78,2.9,2.02,5.89,2.91,8.07,4.32,2.25,1.36,4.21,3.23,5.78,5.42,3.15,4.37,4.6,10.04,3.93,15.33-.15,1.33-.5,2.61-.91,3.86-.46,1.27-1.05,2.56-1.71,3.88-1.32,2.64-2.89,5.34-4.1,8.47-.61,1.55-1.09,3.27-1.29,5.09-.19,1.81-.09,3.78.52,5.58.55,1.84,1.56,3.45,2.65,4.8,1.11,1.34,2.31,2.47,3.49,3.48,1.18,1.02,2.33,1.96,3.38,2.9.53.47.97.98,1.47,1.46l.73.73.64.81c1.8,2.1,3.19,4.53,4.3,7.07,1.16,2.54,1.88,5.26,2.35,8.01.51,2.76.55,5.57.4,8.36l-.19,2.09c-.1.69-.24,1.38-.36,2.07-.06.34-.12.69-.19,1.04l-.27,1.01c-.19.67-.34,1.37-.57,2.03-.49,1.31-.93,2.66-1.59,3.91-.56,1.31-1.33,2.48-2.07,3.71-.37.62.11.55.56-.04,2.17-2.62,3.76-5.66,4.91-8.81,1.13-3.16,1.86-6.46,2-9.8.17-3.33-.1-6.67-.8-9.92-.76-3.24-1.96-6.37-3.6-9.27-.44-.71-.84-1.44-1.31-2.12l-1.5-2c-1.1-1.25-2.22-2.51-3.44-3.59-2.4-2.18-4.91-4.15-6.47-6.69-1.59-2.51-1.78-5.6-.95-8.51.81-2.94,2.38-5.73,3.85-8.58.75-1.43,1.48-2.89,2.14-4.4l.46-1.16c.14-.39.26-.8.39-1.2.28-.8.45-1.62.61-2.44.65-3.3.53-6.72-.23-9.97-.75-3.25-2.11-6.37-4.02-9.13-1.94-2.73-4.43-5.1-7.36-6.81-2.91-1.71-6.04-2.64-8.29-4.52-.55-.47-1.05-.97-1.44-1.56-.19-.3-.42-.57-.58-.89l-.45-.96c-.49-1.32-.65-2.79-.59-4.28.05-1.5.33-3.03.67-4.56.34-1.54.76-3.08,1.15-4.66.77-3.13,1.56-6.49,1.16-10.02-.44-3.73-1.96-7.29-4.32-10.19-1.17-1.45-2.53-2.76-4.06-3.86-1.54-1.09-3.24-1.95-5.05-2.54-1.83-.63-3.62-.82-5.17-1.22-.78-.2-1.5-.43-2.14-.75-.63-.31-1.19-.72-1.7-1.2-2.02-1.98-2.85-5.27-3.71-8.62-.43-1.68-.91-3.46-1.64-5.21-.71-1.74-1.64-3.38-2.71-4.91-2.16-3.06-4.94-5.68-8.18-7.61-1.62-.97-3.34-1.76-5.14-2.37-1.81-.62-3.64-.95-5.38-1.26-3.47-.58-6.75-1.06-9.22-2.52-2.53-1.49-4.31-4.17-5.9-7.29-1.63-3.08-3.13-6.64-5.93-9.73-1.38-1.52-2.99-2.84-4.75-3.88-1.76-1.03-3.64-1.82-5.56-2.38-3.86-1.13-7.92-1.27-11.85-.69-4.9.79-9.35,2.8-13.1,5.47-3.74,2.68-6.74,6-8.84,9.59-1.65,2.85-1.26,4.2-.08,4.09,1.21-.1,3.23-1.59,5.6-4.09Z"/>
        <path class="cls-1" d="M207.84,147.41c.19,3.5.65,7.05,1.77,10.51,1.11,3.45,2.96,6.8,5.65,9.43,1.16,1.13,2.41,2.29,3.89,3.24,1.46.97,3.17,1.71,4.88,2.02,3.46.63,6.74-.28,9.29-3.11.08-.09.03-.43-.06-.41-3.12.47-6.27.55-9.17-.32-2.89-.85-5.37-2.78-7.15-5.18-1.95-2.6-3.01-5.69-3.51-8.83-.27-1.63-.43-3.28-.44-4.94,0-1.03.32-2.01-1.05-2.94-1.08-.74-4.15-.45-4.11.52Z"/>
        <path class="cls-1" d="M223.47,172.05c-.38,3.89.56,7.74,2.24,11.01.82,1.66,1.81,3.2,2.92,4.63,1.1,1.44,2.32,2.78,3.64,4,1.3,1.23,2.73,2.38,4.18,3.38,1.44,1.01,2.92,1.95,4.41,2.81,2.98,1.75,5.99,3.29,8.9,4.87,2.49,1.37,4.96,2.92,7.2,4.69,2.24,1.71,4.17,3.72,5.94,5.85,1.71,2.16,3.25,4.4,4.46,6.83,1.26,2.43,2.18,5.09,2.65,8.32.04.21.38.22.42.03.44-1.74.55-3.53.45-5.27-.11-1.75-.54-3.43-1.08-5.04-1.14-3.21-2.97-6.07-5.12-8.6-1.08-1.26-2.27-2.43-3.52-3.53-1.27-1.08-2.6-2.06-3.95-3-2.72-1.85-5.56-3.48-8.38-5.09-6.05-3.46-12.03-6.99-15.9-12.18-1.01-1.33-1.91-2.72-2.64-4.17-.71-1.45-1.24-2.96-1.52-4.46-.09-.46-.15-.93-.17-1.38-.02-.23-.04-.45-.07-.67-.01-.22-.02-.44-.04-.66-.02-.22-.06-.44-.11-.66-.03-.22-.07-.43-.13-.65-.06-.22-.14-.45-.25-.68-.08-.23-.18-.46-.31-.71-.4-.77-1.36-1.27-2.28-1.27-.9-.01-1.81.54-1.94,1.6Z"/>
        <path class="cls-1" d="M237.68,172.34c.61,1.92,1.63,3.62,2.78,5.11,1.15,1.5,2.46,2.79,3.81,3.96,1.35,1.17,2.75,2.23,4.16,3.24,1.39.99,2.79,1.96,4.2,2.92,2.83,1.91,5.7,3.74,8.64,5.48,2.91,1.76,6.01,3.36,8.82,4.95,2.42,1.39,4.69,3.04,6.4,5.03,1.69,1.99,2.96,4.35,3.82,6.89.91,2.54,1.41,5.24,1.85,8.02.39,2.79.67,5.68.89,8.83.02.2.36.24.42.07.55-1.63.95-3.28,1.24-4.95.24-1.67.41-3.35.39-5.04-.03-3.35-.59-6.72-1.86-9.84-1.21-3.14-3.24-6-5.77-8.25-2.53-2.25-5.42-3.94-8.22-5.58-6.03-3.47-11.73-7.38-17.2-11.57-2.83-2.16-5.53-4.33-7.4-6.87-.56-.78-.96-1.6-1.42-2.33-.46-.74-.94-1.38-1.81-2.05-.65-.53-1.73-.64-2.57-.29-.83.33-1.5,1.23-1.14,2.28Z"/>
        <path class="cls-1" d="M243.39,169.53c1.8,3.28,4.4,5.88,7.14,8.05,2.76,2.17,5.75,3.9,8.65,5.52,2.9,1.62,5.76,3.16,8.33,4.92,2.59,1.75,4.81,3.79,6.76,6.17,1.66,2.04,3.03,4.44,4.11,6.97,1.05,2.56,1.82,5.24,2.43,7.94.6,2.71,1.08,5.43,1.44,8.21.39,2.87.78,5.73,1.18,8.68.03.2.38.22.42.04,1.78-6.43,1.72-13.12.24-19.43-1.47-6.32-4.51-12.31-9-17.18l-.91-.98-.98-.91c-.65-.61-1.32-1.22-2.02-1.77-1.39-1.11-2.85-2.12-4.31-3.08-2.94-1.91-5.93-3.6-8.7-5.43-2.86-1.87-5.54-3.91-7.6-6.33-.64-.74-1.13-1.55-1.7-2.25-.58-.7-1.2-1.32-2.2-1.82-.77-.4-1.83-.24-2.57.29-.74.51-1.19,1.48-.69,2.37Z"/>
        <path class="cls-1" d="M248.08,163.87c4.58,5.9,10.62,9.87,16.09,13.91,2.75,2.02,5.43,4.05,7.78,6.32,2.34,2.26,4.38,4.75,6.09,7.51,2.92,4.78,4.56,10.64,5.36,16.41.42,2.9.75,5.8,1.01,8.73.25,2.94.53,5.9.92,9.08.03.2.38.22.42.04,3.65-13.28,1.39-27.59-6.31-38.99-2.09-3.05-4.65-5.82-7.39-8.25-2.73-2.45-5.61-4.67-8.4-6.86-2.88-2.28-5.72-4.51-8.11-7.04-1.49-1.57-2.51-3.26-4.68-4.04-.88-.31-1.89.05-2.52.72-.63.66-.87,1.65-.27,2.47Z"/>
        <path class="cls-1" d="M229.72,173.68c.83,3.75,2.53,7.19,4.73,10.17,2.2,2.99,4.86,5.56,7.8,7.73,5.87,4.33,12.51,7.04,18.91,9.56,2.77,1.09,5.52,2.27,7.97,3.73,2.48,1.46,4.51,3.19,6.13,5.3,3.28,4.26,5.12,9.94,8.13,15.44.1.17.43.07.41-.12-.35-3.36-.89-6.73-1.9-10-1.01-3.25-2.54-6.43-4.85-9.04-2.3-2.64-5.29-4.49-8.3-5.99-3.04-1.49-6.13-2.69-9.14-4.02-6.48-2.83-12.79-6.16-17.52-10.88-2.44-2.44-4.52-5.21-5.84-8.24-.42-.93-.66-1.89-1.03-2.77-.33-.9-.81-1.72-1.61-2.53-.64-.64-1.7-.78-2.56-.47-.85.3-1.55,1.12-1.31,2.14Z"/>
        <path class="cls-1" d="M214.16,168.88c2.99,9.95,7.2,19.64,13.28,28.26,3.04,4.3,6.55,8.31,10.58,11.79,1,.87,2.07,1.67,3.11,2.51,1.09.77,2.18,1.53,3.29,2.28,2.25,1.44,4.54,2.68,6.79,3.9,3.87,2.08,7.7,4.28,10.86,7.11,3.15,2.81,5.61,6.24,6.38,9.98.42,1.88.44,3.83.06,5.63-.38,1.81-1.19,3.49-2.47,4.77-1.3,1.32-3.13,2.29-5.15,2.74-2.02.44-4.35.3-6.53-.96-.28-.15-.42.19-.18.41,1.08,1.03,2.42,1.74,3.79,2.12,1.38.38,2.8.46,4.16.3,2.72-.34,5.31-1.59,7.15-3.64,1.81-2.05,2.79-4.65,3.06-7.25.28-2.61-.12-5.23-1.03-7.66-1.87-4.88-5.65-8.62-9.7-11.52-4.09-2.93-8.55-5.11-12.69-7.62-8.91-5.33-15.88-13.28-20.85-22.26-2.6-4.65-4.78-9.54-6.54-14.59-1.05-3.13-1.72-6.25-3.79-8.77-1.67-1.99-4.37-.25-3.58,2.48Z"/>
        <path class="cls-1" d="M227.55,198.89c2.23,4.85,5.14,9.35,8.65,13.36,1.76,2,3.67,3.87,5.74,5.56,2.06,1.7,4.31,3.21,6.51,4.53,3.78,2.31,7.49,4.96,10.38,7.73,1.48,1.41,2.82,2.87,4.14,4.45,1.32,1.59,2.6,3.33,3.74,5.74.08.15.42.12.42-.03.12-2.8-.69-5.45-1.91-7.73-1.23-2.29-2.86-4.28-4.71-6.02-3.73-3.44-8.12-5.83-12.04-8.61-4.23-2.95-7.76-6.69-10.65-10.8-1.49-2.14-2.83-4.36-3.95-6.69-.68-1.45-1.02-2.95-2.81-3.76-1.44-.65-4.11.92-3.51,2.26Z"/>
        <path class="cls-1" d="M210.82,162.79c-1.08,9.05.26,18.2,3.29,26.66,3.07,8.47,7.84,16.21,13.59,23.01,4.96,5.9,10.65,11.57,15.42,17.38,2.39,2.9,4.56,5.87,6.48,8.97,1.91,3.11,3.59,6.36,4.87,10.08.09.24.43.12.42-.12-.11-4.46-1.38-8.73-3.27-12.56-1.89-3.85-4.36-7.34-7.07-10.55-5.42-6.44-11.63-12.02-16.41-18.73-5.22-7.15-9.18-15.19-11.17-23.61-1.04-4.36-1.61-8.81-1.53-13.23.04-2.74.6-5.28-.36-7.91-.73-2.11-3.91-1.9-4.24.6Z"/>
        <path class="cls-1" d="M232.55,217.21c-.43,3.31-.32,6.66.39,9.91.71,3.24,2.03,6.38,4.04,9.1,1.7,2.33,3.56,4.73,5.75,6.44,1.09.86,2.25,1.54,3.58,2,1.33.47,2.83.72,4.71.83.12,0,.36-.24.29-.3-2.25-2.12-4.56-3.91-6.69-5.86-2.12-1.93-4.05-4.04-5.32-6.46-1.4-2.6-2.06-5.52-2.2-8.35-.07-1.47-.05-2.93.17-4.35.14-.89.59-1.63-.6-2.67-.94-.85-3.99-1.24-4.12-.3Z"/>
        <path class="cls-1" d="M203.23,178.5c-.44,4.86-.69,9.81-.4,14.81.28,4.99,1.2,10.06,3.14,14.83,1.92,4.8,4.89,9.03,8.16,12.8,1.65,1.88,3.36,3.7,5.16,5.33l5.35,5c3.05,2.84,6.2,5.79,9.4,8.77,3.18,3.03,6.51,5.87,9.12,8.89,2.59,3.01,4.57,6.37,5.17,10.03.57,3.67-.21,7.83-2.57,11.6-.15.24.17.41.38.22,3.82-3.49,5.7-8.75,4.96-13.72-.74-4.97-3.62-9.15-6.85-12.54-1.63-1.72-3.36-3.29-5.07-4.85l-5.12-4.69-5.1-4.73c-1.66-1.6-3.32-3.21-4.98-4.82-3.63-3.42-7.01-7.03-9.73-11.02-1.36-1.99-2.56-4.07-3.5-6.23-.93-2.17-1.65-4.41-2.14-6.72-1.03-4.79-1.22-9.79-.91-14.81.19-3.1.82-6.09-.23-9.05-.82-2.35-3.99-1.75-4.23.9Z"/>
        <path class="cls-1" d="M196.38,184.4c-1.28,4.56-2.51,9.33-2.71,14.36-.19,5.03.69,10.03,2.34,14.7,1.65,4.68,4.08,9.05,7.01,12.98,2.92,3.94,6.32,7.47,9.96,10.65,6.28,5.53,13.45,10.44,18.68,16.4,2.59,2.92,4.68,6.21,6.17,9.76,1.47,3.55,2.36,7.42,1.86,11.72-.02.28.34.3.43.04.95-2.3,1.36-4.78,1.32-7.19-.03-2.42-.53-4.77-1.29-6.99-1.52-4.45-4.19-8.44-7.4-11.72-3.18-3.33-6.78-6.16-10.31-8.96-3.55-2.79-7-5.62-10.09-8.82-3.35-3.42-6.31-7.19-8.63-11.29-2.32-4.08-3.99-8.5-4.79-13.01-.42-2.34-.61-4.7-.54-7.04.07-2.33.43-4.67.97-7.01.67-2.89,1.84-5.62,1.33-8.67-.39-2.41-3.61-2.4-4.31.07Z"/>
        <path class="cls-1" d="M200.02,181.99c-.76,5.5-1.04,11.09-.51,16.68.48,5.58,1.82,11.15,4.15,16.35,1.2,2.58,2.64,5.08,4.31,7.38,1.67,2.3,3.53,4.43,5.47,6.41,3.89,3.98,8.08,7.47,12,11.05,3.37,3.07,6.57,6.49,9.17,10.28,2.6,3.78,4.52,7.93,5.26,12.23.4,2.11.44,4.63,1.09,7.32.67,2.73,2.06,5.22,3.87,7.14,1.82,1.92,4.06,3.3,6.39,4,.58.18,1.17.3,1.75.4.6.08,1.19.06,1.74-.05.55-.12,1.06-.34,1.4-.64.31-.3.51-.74.44-1.15-.03-.2-.32-.26-.34-.14-.04.15-.13.28-.24.38-.12.11-.19.14-.38.2-.34.11-.85.13-1.33.06-.24-.04-.48-.09-.7-.16l-.81-.32c-.54-.24-1.07-.51-1.58-.81-2.04-1.21-3.79-2.97-5.03-5.03-1.27-2.08-1.88-4.4-2.08-6.92-.12-1.26-.2-2.56-.35-3.89-.17-1.33-.43-2.65-.77-3.95-1.42-5.19-4.29-9.8-7.61-13.88-3.33-4.1-7.21-7.68-11.03-11.2-4.12-3.79-8.18-7.58-11.49-11.86-3.32-4.26-5.67-9.07-7-14.24-1.43-5.33-1.88-10.92-1.57-16.48.19-3.44.91-6.69.1-9.99-.63-2.63-3.84-2.19-4.3.82Z"/>
        <path class="cls-1" d="M193.07,185.64c-3.11,9.77-4.01,20.28-2.17,30.43,1.8,10.16,6.48,19.81,13.45,27.5,1.52,1.64,3.11,3.27,4.85,4.78.87.76,1.77,1.5,2.68,2.22.89.67,1.78,1.35,2.68,2.03,1.74,1.32,3.27,2.6,4.48,4.09,1.24,1.5,2.3,3.24,3.27,5.11,1.96,3.74,3.6,7.98,6.27,11.8,1.35,1.89,3.08,3.65,5.17,4.62,2.04.98,4.41,1.08,6,.2.2-.1.04-.43-.15-.41-1.82.25-3.89-.57-5.46-1.94-1.6-1.4-2.8-3.34-3.81-5.4-2.05-4.17-3.53-8.75-6.01-12.97-1.23-2.11-2.78-4.11-4.64-5.75-1.84-1.64-3.84-2.99-5.69-4.4-1.83-1.43-3.58-2.96-5.2-4.62-1.61-1.68-3.1-3.46-4.47-5.33-2.95-4.04-5.23-8.54-6.86-13.22-1.62-4.69-2.51-9.59-2.78-14.51-.25-5.1.14-10.23,1.22-15.2.68-3.08,1.83-5.86,1.5-8.98-.23-2.49-3.44-2.73-4.34-.05Z"/>
        <path class="cls-1" d="M61.59,162.76c.04-2.85-.51-5.58-1.26-8.11-.74-2.54-1.68-4.92-2.53-7.25-.87-2.33-1.61-4.57-2.16-6.9-.56-2.31-.93-4.66-1.12-7-.15-2.02-.04-4.11.29-6.17.3-2.06.82-4.08,1.37-6.07.58-2.01,1.16-4,1.75-6,.57-2.06,1.15-4.19,1.73-6.67.04-.16-.25-.36-.34-.25-6.87,7.69-9.27,17.96-8.33,27.83.25,2.67.69,5.32,1.33,7.93.63,2.63,1.48,5.15,2.23,7.59.78,2.53,1.52,4.99,1.78,7.38.16,1.5-.12,2.76,1.13,4.15.49.56,1.51.87,2.41.82.9-.04,1.72-.5,1.74-1.28Z"/>
        <path class="cls-1" d="M61.24,161.46c1.42-9.43.57-18.74-.18-27.68-.33-3.87-.14-7.97-.28-11.92-.14-3.98-.64-7.73-2.41-12.04-.06-.14-.4-.16-.42-.04-1.46,8.94-.85,17.67-.51,26.41.19,4.7.26,9.38,0,13.95-.08,1.18-.11,2.37-.25,3.53l-.17,1.74c-.07.58-.18,1.15-.26,1.72-.19,1.43-.8,2.68.32,4.2.88,1.22,3.96,1.43,4.15.13Z"/>
        <path class="cls-1" d="M59.68,155.49c.3-10,1.85-19.92,3.69-29.74.79-4.24,2.24-8.64,3.14-13.08.9-4.46,1.24-8.97-.19-13.71-.05-.15-.39-.18-.42-.06-2.14,9.55-4.57,18.89-6.7,28.46-1.15,5.15-2.26,10.32-3.14,15.55-.45,2.71-.81,5.44-1.14,8.17-.22,1.68-.66,3.32.61,4.9,1.01,1.25,4.1.86,4.15-.48Z"/>
        <path class="cls-1" d="M58.82,150.64c-.85-7.3-.27-14.69.78-21.93.45-3.13,1.57-6.35,2.17-9.61.61-3.28.69-6.62-.88-10.44-.05-.12-.39-.19-.41-.09-1.72,7.15-3.54,14.11-4.89,21.34-.73,3.89-1.37,7.82-1.72,11.8-.18,2.06-.25,4.14-.27,6.22-.04,1.28-.28,2.57,1.16,3.58,1.14.8,4.17.1,4.06-.87Z"/>
        <path class="cls-1" d="M62.16,125.58c.55-3.45,1.59-6.79,2.19-10.23.52-2.93,2.97-6.14-2.17-9.61-.08-.05-.42-.07-.42-.03.36,3.36-.29,6.6-1.3,9.76-.54,1.71-1.26,3.37-1.92,5.04-.33.87-.65,1.73-.98,2.6-.21.53-.68.98.53,1.78.96.63,3.99,1.16,4.06.69Z"/>
        <path class="cls-1" d="M61.22,118.9c.11-2.29,1.04-4.42,1.83-6.52.35-.92,1.2-1.67,1.45-2.67.26-1.01-.07-2.27-1.93-4.56-.06-.07-.36-.23-.37-.2-.57,2.48-1.7,4.5-2.93,6.64-.66,1.15-1.4,2.31-2.02,3.54-.32.64-.57,1.3-.83,1.97-.17.4-.59.78.7,1.36,1.02.45,4.08.74,4.09.44Z"/>
        <path class="cls-1" d="M58.25,143.74c-.33-5.63.29-11.27.94-16.85.28-2.41,1.12-4.91,1.36-7.46.24-2.55-.14-5.17-2.31-8.07-.07-.09-.41-.13-.41-.05-.5,5.6-1.55,10.97-2.57,16.48-.54,2.96-1.13,5.94-1.56,8.96-.22,1.56-.35,3.13-.49,4.71-.1.97-.44,1.93.94,2.77,1.08.66,4.15.28,4.11-.47Z"/>
        <path class="cls-1" d="M66.53,110.04c3.23-4.85,4.63-10.28,5.9-15.37.64-2.56,1.23-5.06,1.96-7.48.73-2.44,1.56-4.87,2.42-7.3.74-2.1,1.67-4.24,2.58-6.41.91-2.16,1.8-4.26,2.71-6.25.91-1.99,1.82-3.85,2.84-5.79,1.02-1.93,2.1-3.93,3.54-6.16.09-.14-.12-.42-.25-.34-4.81,2.77-7.98,7.26-10.09,11.9-1.08,2.33-1.97,4.7-2.9,7.02-.93,2.34-1.87,4.69-2.8,7.04-.99,2.55-1.95,5.14-2.78,7.79-.84,2.63-1.57,5.25-2.38,7.77-.84,2.61-1.74,5.14-2.95,7.39-.77,1.41-1.79,2.41-1.55,4.33.09.77.78,1.58,1.58,2.01.79.44,1.72.47,2.18-.17Z"/>
        <path class="cls-1" d="M72.35,87.26l.84-2.97.44-1.48c.13-.41.24-.7.37-.94.14-.19.21-.29.32-.35.04-.02.08-.04.13-.07l.24-.1c.38-.16.81-.33,1.19-.59.77-.49,1.36-1.24,1.64-2.12.16-.43.23-.89.28-1.36.03-.26.03-.42.03-.6v-.43c.02-.08.01-.06.11-.31.12-.28.23-.55.39-.86.29-.6.63-1.25.98-1.88.69-1.27,1.44-2.55,2.19-3.83,3.08-5.25,8.48-10.01,7.05-17.87-.02-.12-.33-.27-.37-.19-3.13,6.17-6.96,11.78-10.79,17.57-.69,1.04-1.37,2.09-2.04,3.18-.34.54-.67,1.11-.99,1.69-.16.34-.32.6-.47,1-.19.4-.26.95-.33,1.46,0,.11,0,.15-.01.16v.08s-.03.16-.03.16c0,.13-.03.14-.05.19-.03.08-.08.15-.13.2-.12.12-.25.13-.43.14h-.06s-.22.1-.22.1c-.15.06-.31.12-.5.22-.35.16-.72.42-1.05.69-.65.57-1.14,1.25-1.45,1.86-.19.33-.29.61-.42.92l-.3.78-.52,1.35c-.43,1.1-1.12,2.11-.12,3.5.78,1.1,3.84,1.62,4.09.69Z"/>
        <path class="cls-1" d="M73,81.46c-.01-4.32,1.45-8.51,3.3-12.35.81-1.68,2.21-3.12,3.16-4.8.96-1.7,1.45-3.65.88-6.97-.02-.11-.28-.32-.31-.27-2.73,3.79-5.35,7.36-7.62,11.4-1.21,2.17-2.36,4.44-3.21,6.86-.44,1.25-.77,2.55-1.04,3.86-.19.8-.59,1.61.73,2.4,1.04.61,4.13.44,4.13-.12Z"/>
        <path class="cls-1" d="M242.82,240.73c-2.53-3.22-5.28-6.27-8.24-9.1-1.48-1.41-3.02-2.79-4.57-4.08-1.55-1.3-3.08-2.53-4.51-3.81-1.43-1.28-2.75-2.58-3.89-4.01-1.15-1.42-2.16-2.99-3.08-4.63-1.84-3.29-3.28-6.9-4.74-10.59-1.26-3.19-2.44-6.44-3.06-9.69-.61-3.23-.68-6.59-.48-9.99.38-6.78,1.73-13.76,1.1-20.77-.02-.22-.38-.22-.43-.02-2,7.39-4.23,14.87-4.52,22.71-.14,3.89.28,7.88,1.4,11.65.54,1.88,1.18,3.72,1.84,5.52.67,1.8,1.34,3.61,2.01,5.41,1.49,3.89,3.15,7.82,5.58,11.45,1.19,1.82,2.64,3.53,4.16,5.06,1.52,1.54,3.11,2.93,4.65,4.3,3.2,2.78,6.13,5.64,8.81,8.82,1.65,1.95,2.91,4.08,5.37,5.11,1.94.85,4-1.57,2.63-3.35Z"/>
        <path class="cls-1" d="M239.09,233.74c-2.01-2.85-4.49-5.02-6.75-7.11-2.3-2.08-4.28-4.13-6.04-6.51-3.52-4.71-6-10.19-7.81-15.89-1.56-4.94-2.19-10.48-3.07-15.91-.89-5.45-2.06-10.76-4.79-15.84-.09-.16-.43-.08-.42.08.34,6.03.9,11.99,1.73,17.92.84,5.93,1.98,11.85,3.86,17.66,2.02,6.23,4.89,12.36,9.22,17.62,2.23,2.78,4.86,5.01,6.96,7.33.65.72,1.19,1.47,1.81,2.1.61.64,1.28,1.15,2.3,1.49.78.28,1.81-.02,2.5-.62.69-.59,1.04-1.56.49-2.34Z"/>
        <path class="cls-1" d="M234.23,228.58c-4.01-6.34-6.99-13.27-9.72-20.24-1.18-3.01-1.88-6.42-3.09-9.6-1.21-3.19-2.95-6.14-6.37-8.51-.11-.07-.43.05-.39.15,2.49,7,4.57,13.97,6.96,21,1.29,3.78,2.6,7.58,4.13,11.3.8,1.93,1.68,3.82,2.58,5.71.54,1.17.88,2.44,2.63,2.74,1.38.23,3.81-1.7,3.27-2.55Z"/>
        <path class="cls-1" d="M236.19,227.73c-1.57-4.76-2.94-9.6-5.02-14.19-.89-1.97-1.48-4.27-2.75-6.2-1.26-1.92-3.2-3.44-6.59-3.63-.11,0-.38.2-.33.25,3.13,3.5,5.2,7.74,6.67,12.17.79,2.39,1.34,4.85,1.85,7.3.26,1.27.57,2.52.79,3.79.15.78,0,1.61,1.5,1.94,1.19.26,4.09-.77,3.87-1.42Z"/>
        <path class="cls-1" d="M207.86,181.09c-.15-.38-.1-1.06.19-1.76.27-.68.79-1.47,1.38-2.35.59-.86,1.29-2.01,1.74-3.13.47-1.12.8-2.23,1.06-3.3.45-1.83,1.3-3.76,1.35-5.79.05-2.01-.73-4.12-3.47-5.81-.09-.05-.43-.03-.42.02.73,3.92.04,7.93-1.38,11.59-.38.97-.85,1.87-1.41,2.63-.54.75-1.26,1.47-2.01,2.41-.77.95-1.57,2.24-1.98,3.84-.13.49-.28,1.03-.19,1.57.09.54.43,1.09,1.22,1.34.63.21,1.61-.14,2.44-.5.82-.38,1.52-.68,1.49-.76Z"/>
        <path class="cls-1" d="M57.39,169.39c0,3.76-.82,7.52-2.25,11-1.43,3.49-3.46,6.7-5.92,9.52-2.12,2.46-5.07,4.33-7.82,6.26-2.8,1.95-5.38,4.03-7.91,7.56-.08.11.06.43.16.39,7.57-2.83,14.34-7.11,19.68-13.19,2.85-3.28,5.24-7.03,6.9-11.17.86-2.14,1.47-4.39,1.91-6.68.25-1.4.74-2.83-.61-4.13-1.05-1-4.13-.54-4.12.44Z"/>
        <path class="cls-1" d="M64.27,186.87c-.85-2.39-.92-4.95-1.12-7.44-.09-1.08.34-2.25.12-3.38-.22-1.14-1.09-2.23-3.78-3.48-.09-.04-.42-.04-.42,0,.63,2.65.52,5.16.34,7.81-.1,1.42-.28,2.88-.33,4.35-.03.76.02,1.51.05,2.28.01.47-.22,1,1.19,1.06,1.12.04,4.05-.88,3.94-1.19Z"/>
        <path class="cls-1" d="M195.81,146.76c-.79-.19-1.52-.72-2.11-1.41-.6-.69-1.05-1.5-1.49-2.36-.39-.76-.27-1.78-.73-2.61-.47-.84-1.57-1.56-4.48-1.9-.09-.01-.42.08-.4.11,1.27,2.08,1.68,4.3,2.52,6.68.46,1.28,1,2.64,1.93,3.88.48.64,1.08,1.2,1.74,1.74.4.31.79.9,1.69-.22.68-.89,1.5-3.86,1.33-3.89Z"/>
        <path class="cls-1" d="M194.75,145.29c-1.13,1.1-2.61,1.71-3.88,2.61-1.1.77-3.48.08-1.29,5.31.03.08.24.35.25.33.76-1.5,2.07-2.24,3.54-2.75.79-.28,1.68-.43,2.52-.64.44-.11.84-.27,1.26-.4.26-.08.68.07.08-1.17-.47-.98-2.32-3.43-2.48-3.29Z"/>
        <path class="cls-1" d="M190.56,144.41c-.04,1.46-.74,2.77-1.16,4.13-.18.59-.85,1.06-.87,1.73-.02.68.6,1.56,2.94,3.16.07.05.39.17.39.14-.18-1.68.44-2.97,1.28-4.29.45-.71,1.03-1.39,1.53-2.12.26-.38.45-.77.68-1.16.14-.24.55-.43-.74-.92-1.02-.38-4.05-.88-4.06-.68Z"/>
        <path class="cls-1" d="M212.95,133.91c-1.83,2.82-3.05,5.96-3.55,9.25-.5,3.28-.25,6.74.95,9.93.99,2.7,2.33,5.68,4.7,7.73,2.3,2.03,5.69,2.99,8.79,1.17.1-.06.18-.39.11-.4-2.58-.54-4.99-2-6.82-3.97-1.84-1.97-3.1-4.47-3.62-7.06-.56-2.8-.2-5.69.7-8.25.47-1.33,1.04-2.61,1.78-3.75.49-.71,1.16-1.15.54-2.57-.49-1.15-3.04-2.86-3.58-2.07Z"/>
        <path class="cls-1" d="M136.76,53.83c-2.15-2.37-3.81-4.86-3.94-7.31-.09-1.25.13-2.72.46-4.14.34-1.4.81-2.61,1.51-3.61.61-.89,1.54-1.62,2.54-2.18,1.02-.57,2.1-.97,3.2-1.37,2.26-.8,4.59-1.72,8.12-3.88.11-.07.17-.44.07-.45-3.44-.5-6.9-.4-10.16.68-3.23,1.09-6.23,3.18-8.08,6.36-.97,1.7-1.56,3.52-1.99,5.32-.43,1.81-.67,3.93-.21,6.05.44,2.18,1.45,4.06,2.47,5.74.63,1.03,1.06,2.18,2.83,1.99,1.4-.14,3.74-2.56,3.16-3.2Z"/>
        <path class="cls-1" d="M101.01,22.71c-2.29,1.9-4.76,3.84-6.85,6.4-2.1,2.56-3.61,5.62-4.3,8.87-.58,2.78-1.23,5.91-.29,9.03.46,1.52,1.35,2.99,2.7,3.96,1.32.98,3.16,1.38,4.82.68.1-.04.27-.37.22-.39-1.04-.43-1.95-1.27-2.63-2.32-.68-1.05-1.12-2.29-1.36-3.58-.45-2.58-.09-5.32.84-7.75,1.03-2.66,2.76-4.85,4.84-6.58,1.08-.92,2.23-1.79,3.48-2.61.77-.5,1.72-.74,1.53-2.42-.15-1.33-2.36-3.8-2.99-3.28Z"/>
      </g>
      <path class="cls-1" d="M81.62,124.44c.39-1.16,1.48-2.19,2.74-2.65,1.27-.48,2.64-.36,3.63.35,1.01.7,1.71,2,1.85,3.3.15,1.32-.26,2.57-1.15,3.36-.77.7-1.97,1.06-3.13.97-1.17-.09-2.18-.56-2.9-1.27-.76-.79-1.16-1.52-1.2-2.79.02-1.23.37-2.73,1.47-4.22.07-.1-.07-.28-.16-.22-1.78.96-2.97,2.67-3.29,4.57-.16.95-.02,1.97.38,2.85.4.88,1.01,1.59,1.75,2.18,1.5,1.16,3.44,1.55,5.26,1.28,1.81-.26,3.65-1.25,4.68-2.97,1.11-1.83,1.2-4.13.48-6.11-.36-1-.93-1.95-1.74-2.74-.79-.79-1.84-1.4-2.98-1.67-2.37-.57-4.83.14-6.67,1.62-.57.46-1.13.98-1.49,1.62-.36.64-.52,1.4-.25,2.14.22.59.87.79,1.48.8.62,0,1.12-.11,1.24-.4Z"/>
      <path class="cls-1" d="M137.26,134.45c.39-1.16,1.48-2.19,2.74-2.65,1.27-.48,2.64-.36,3.63.35,1.01.7,1.71,2,1.85,3.3.15,1.32-.26,2.57-1.15,3.36-.77.7-1.97,1.06-3.13.97-1.17-.09-2.18-.56-2.9-1.27-.76-.79-1.16-1.52-1.2-2.79.02-1.23.37-2.73,1.47-4.22.07-.1-.07-.28-.16-.22-1.78.96-2.97,2.67-3.29,4.57-.16.95-.02,1.97.38,2.85.4.88,1.01,1.59,1.75,2.18,1.5,1.16,3.44,1.55,5.26,1.28,1.81-.26,3.65-1.25,4.68-2.97,1.11-1.83,1.2-4.13.48-6.11-.36-1-.93-1.95-1.74-2.74-.79-.79-1.84-1.4-2.98-1.67-2.37-.57-4.83.14-6.67,1.62-.57.46-1.12.98-1.49,1.62-.36.64-.52,1.4-.25,2.14.22.59.87.79,1.48.8.62,0,1.12-.11,1.24-.4Z"/>
      <path class="cls-1" d="M100.86,176.36c-2.91-.35-5.75-.95-8.04-2.35-2.24-1.37-3.98-3.72-4.09-6.11-.14-2.39,1.47-4.78,3.25-7.18,1.8-2.49,3.48-5.1,4.98-7.8,2.58-4.64,5.14-9.8,6.64-15.24.75-2.71,1.25-5.48,1.37-8.2.11-2.72-.13-5.39-.82-7.89-.04-.16-.27-.1-.28.06-.52,11.48-4.3,22.74-10.48,32.45-.84,1.31-1.7,2.59-2.63,3.83-.89,1.25-1.91,2.46-2.82,3.85-.9,1.38-1.73,2.96-2.01,4.8-.29,1.85.11,3.79.94,5.41.86,1.69,2.13,3.1,3.61,4.21,1.51,1.12,3.17,1.85,4.85,2.41,2.06.67,4.1,1.2,6.01.54,1.51-.53,1.1-2.6-.48-2.79Z"/>
      <path class="cls-1" d="M129.53,189.21c-3.87,2.58-8.22,4.44-12.76,5.54-4.53,1.13-9.22,1.57-13.87,1.31-4.02-.2-8.2-1.27-12.21-2.51-1-.32-2-.66-3-.94-.96-.31-1.9-.63-2.79-1.02-.9-.39-1.77-.82-2.58-1.41-.82-.59-1.55-1.41-2.05-2.52-.07-.14-.29-.06-.27.09.12,1.41.8,2.69,1.66,3.63.86.96,1.89,1.67,2.93,2.28,1.05.59,2.16,1.08,3.26,1.46l1.64.62c.55.19,1.12.35,1.67.53,4.47,1.4,9.13,2.21,13.86,2.34l1.91.05,1.91-.06c1.28,0,2.55-.18,3.83-.27,2.54-.32,5.09-.74,7.56-1.47,2.59-.69,5.09-1.7,7.53-2.84.74-.37,1.5-.7,2.18-1.13.65-.47,1.23-1.03,1.6-1.79.59-1.21-1-2.59-2.03-1.91Z"/>
      <path class="cls-1" d="M141.26,195.53c-1.91-2.05-3.71-4.21-5.57-6.31-1.61-1.81-3.06-4.21-5.66-4.94-.04-.01-.1.06-.07.09,1.95,1.88,3.7,3.9,5.41,6,.92,1.13,1.81,2.28,2.72,3.42.47.59.95,1.17,1.42,1.76.29.36.52.76,1.07.84.43.06.94-.59.68-.86Z"/>
      <path class="cls-1" d="M144.67,202.73c.38-2.2.6-4.44.41-6.68-.14-1.88-.14-4.29-2.11-5.49-.03-.02-.11.02-.1.05.87,1.88,1.24,3.95,1.25,6.02,0,1.12-.11,2.23-.28,3.31-.09.56-.18,1.13-.31,1.68-.07.34-.24.65.05,1.04.23.3,1.04.37,1.09.07Z"/>
      <path class="cls-1" d="M166.23,145.77c-2.26-.27-4.44-1.04-6.49-2.02-.89-.42-1.74-1.05-2.62-1.57-.89-.52-1.83-.94-3.03-1.01-.04,0-.08.08-.06.09,1.86,1.33,3.73,2.57,5.77,3.62,1.1.56,2.23,1.08,3.4,1.49.61.21,1.23.39,1.86.54.38.1.76.25,1.16-.05.31-.24.29-1.06,0-1.09Z"/>
      <path class="cls-1" d="M167.52,138.43c-1.67.3-3.38.34-5.08.37-1.48.03-3.08-.54-4.58.79-.02.02-.02.11,0,.11,1.68-.06,3.32.03,5,.09.9.04,1.81.08,2.72.08.47,0,.94-.02,1.41-.04.29-.01.59.04.79-.35.16-.31-.05-1.09-.27-1.05Z"/>
      <path class="cls-1" d="M123.59,121.49c3.49,0,6.8-.57,9.98-.76,3.16-.2,6.29.06,9.37.71,2.66.57,5.3,1.79,7.88,2.94,2.62,1.13,5.19,2.18,8.44,2.56.1.01.21-.19.14-.24-5.26-3.84-11.1-6.63-17.47-8-1.71-.35-3.46-.63-5.22-.76-1.77-.13-3.55-.13-5.28-.05-1.79.08-3.54.23-5.24.24-1.06,0-2.02-.21-2.97.64-.77.67-.61,2.7.37,2.72Z"/>
      <path class="cls-1" d="M100.75,115.78c-4.35-3.69-9.88-5.47-15.32-5.79-4.66-.31-10.12-.86-13.77,3.3-.06.07,0,.28.07.27,4.86-1.17,9.86-1.73,14.73-.99,2.6.4,5.11,1.23,7.35,2.4,1.16.61,2.27,1.28,3.25,2.08.6.52,1.02,1.13,2.13.97.91-.12,2.16-1.71,1.56-2.24Z"/>
    </g>
    <path class="cls-1" d="M74.44,75.42l.12.06.03.02,1.22.58h0s0-.01,0-.01l.02-.04.04-.09.08-.17.17-.34.35-.69.73-1.36c.47-.89,1.08-1.82,1.65-2.74l3.44-5.47c.48-.74,1.07-1.45,1.64-2.17.56-.76,1.15-1.33,1.66-2.1,1.01-1.49,1.73-3.44,1.06-6.65-.02-.1-.28-.32-.31-.28-1.22,1.73-2.62,3.32-3.97,4.97l-1.01,1.26-.92,1.3c-.62.86-1.29,1.71-1.92,2.56-1.35,1.81-2.82,3.54-4.24,5.31-.73.88-1.42,1.96-2.14,2.96-.22.31-.5.59-.62.94-.06.18-.07.37-.02.59.02.14.1.12.05.6,0,.21-.01.47.06.87.06.38.33,1,.78,1.31.25.22.69.42,1.06.43.38.02.65-.09.81-.19.34-.22.44-.44.51-.65.06-.21.08-.44.04-.71-.03-.25-.24-.61-.47-.67-.21-.07-.35.01-.41.11-.08.09-.11.2-.14.32l-.02.08s0,0,0,0h0s0-.03.01-.04c.02-.02,0,0-.06-.02-.06-.04-.02-.03,0,.03.02.01-.04.06.05-.04,0,0,0,0,.04,0,.09-.01.27.01.6.15Z"/>
    <path class="cls-1" d="M80.85,65.37c.16-1.71,1.21-3.16,2.15-4.52.42-.6,1.27-.88,1.63-1.54.38-.68.26-1.78-.72-4.51-.03-.09-.24-.35-.26-.32-1.18,1.87-2.56,3.13-4.07,4.63-.8.8-1.66,1.63-2.4,2.59-.38.5-.68,1.05-.99,1.6-.2.33-.64.64.61,1.27.99.48,4.02,1.01,4.04.8Z"/>
  </g>
</svg>