<?xml version="1.0" encoding="UTF-8"?><svg id="Calque_2" xmlns="http://www.w3.org/2000/svg" viewBox="0 0 300 300"><defs><style>.cls-1{fill:#1d1d1d;}.cls-2{fill:#1db4b8;}</style></defs><path class="cls-2" d="M199.57,193.35c-2.56.81-5.26,1.3-8.06,1.54-2.82.17-5.72.07-8.67-.25-2.96-.38-5.95-.93-8.97-1.68-3.02-.77-6.05-1.65-9.1-2.67-3.06-1.02-6.12-2.11-9.24-3.27l-9.44-3.5-9.47-3.47-4.74-1.71c-1.56-.56-3.2-1.15-4.98-1.73-3.08-.98-6.57-2.1-10.77-2.53-2.08-.22-4.38-.21-6.51.04-2.14.24-4.16.68-6.02,1.21-3.73,1.06-6.85,2.41-9.55,3.55-2.73,1.18-4.8,2.03-7.14,2.9-4.64,1.69-9.4,3.19-14.69,5-5.32,1.78-11.18,3.84-18.55,6.19-.47.15-.78,1.35-.4,1.46,6.88,2.14,13.92,3.07,20.86,2.91,6.94-.16,13.79-1.42,20.26-3.8,3.27-1.17,6.23-2.64,9.11-3.82,2.86-1.19,5.65-2.14,8.29-2.41,5.13-.62,10.56,1.86,16.62,4.41,6.44,2.71,12.82,5.55,19.2,8.43,6.38,2.87,12.93,5.85,19.99,8.25,3.65,1.26,7.46,2.31,11.44,3.09,3.97.78,8.11,1.33,12.41,1.4,2.63.06,5.35.2,7.91-.52,1.27-.3,2.49-.92,3.57-1.77.54-.43,1.06-.9,1.52-1.49.46-.61.87-1.29,1.22-2.06,1.13-2.43.13-6.06-1.39-8.98-1.54-2.92-3.4-5.2-4.72-4.71Z"/><path class="cls-1" d="M205.57,176.36l-2.05,23.56c-.73,7.85-1.17,15.74-3.1,23.18-.98,3.71-2.34,7.28-4.32,10.54-1.96,3.3-4.26,6.46-6.68,9.51-2.42,3.06-4.97,6.02-7.65,8.86-1.34,1.42-2.7,2.81-4.11,4.13l-4.32,4.03-8.66,8.07c-2.87,2.69-5.8,5.37-8.64,8.13-2.84,2.74-5.67,5.45-8.63,7.95-2.97,2.47-6.07,4.8-9.45,6.45-3.33,1.72-7,2.48-10.77,2.61-3.76.12-7.57-.39-11.18-1.49-1.81-.55-3.57-1.24-5.24-2.08-1.67-.86-3.3-1.86-4.85-2.95-3.11-2.18-5.82-4.88-8.29-7.83-4.26-5.09-7.86-11.05-12.27-16.64-2.23-2.83-4.56-5.42-6.77-8.15-2.23-2.72-4.4-5.5-6.49-8.34-4.16-5.69-8.1-11.65-10.97-18-.34-.8-.71-1.59-1-2.4-.31-.81-.61-1.61-.86-2.43-.5-1.64-.89-3.33-1.22-5.04-.65-3.44-1.04-6.96-1.33-10.49-.3-3.54-.44-7.08-.68-10.68-.22-3.6-.58-7.16-.97-10.7-.82-7.08-1.87-14.03-2.84-20.88-1.99-13.69-3.49-27.05-4.57-39.83-.07-.81-.28-.38-.26.44.18,7.59.59,15.18,1.22,22.74.63,7.56,1.5,15.09,2.43,22.6.92,7.51,1.88,15,2.43,22.52.29,3.75.41,7.53.65,11.32.25,3.78.57,7.57,1.17,11.34.58,3.75,1.46,7.54,2.98,11.07,1.48,3.53,3.3,6.89,5.29,10.14,3.99,6.49,8.59,12.55,13.41,18.42,2.4,2.95,4.96,5.75,7.23,8.73,2.3,2.98,4.42,6.11,6.61,9.21,2.19,3.1,4.47,6.19,7.09,9.03,2.6,2.84,5.6,5.37,8.9,7.41,3.53,2.25,7.51,3.83,11.6,4.71,4.1.89,8.35,1.12,12.54.53,4.21-.54,8.27-2.27,11.76-4.53,3.55-2.24,6.73-4.93,9.8-7.68,3.05-2.77,5.98-5.66,8.95-8.42l9.02-8.32,9.03-8.32c3.05-2.85,5.86-5.87,8.58-8.98,2.81-3.24,5.49-6.59,7.97-10.13,1.23-1.78,2.41-3.6,3.48-5.53,1.07-1.94,1.96-3.97,2.69-6.04,1.47-4.15,2.32-8.44,2.93-12.7.6-4.27.97-8.51,1.37-12.73.98-10.4,2.12-20.57,2.07-29.99-.04-7.44-2.3-4.39-3.03,4.1Z"/><path class="cls-1" d="M209.7,207.96c4.53-.48,8.5-2.86,11.5-5.94,3.04-3.14,5.02-7.03,6.43-10.95,2.83-7.89,3.56-16.12,6.8-23.21.69-1.54,1.52-2.94,2.51-4.46.97-1.53,2.03-3.16,2.74-5.17.67-1.99.95-4.29.13-6.6-.41-1.13-1.14-2.21-2.08-2.99-.93-.81-2.02-1.32-3.11-1.62-2.18-.6-4.49-.37-6.42.41-1.93.76-3.51,1.92-4.9,3.12-2.71,2.43-5.08,4.97-7.19,7.65-.13.17.09.28.25.15l4.59-3.62c1.54-1.19,3.05-2.42,4.63-3.46,1.57-1.02,3.28-1.88,5.07-2.14,1.78-.26,3.69.05,5.12,1.06,1.45.98,2.16,2.74,2.12,4.54-.02,1.81-.68,3.57-1.61,5.21-.92,1.65-2.07,3.24-3.03,5.01-.98,1.75-1.76,3.59-2.45,5.46-1.47,4.03-2.42,8.18-3.49,12.22-1.07,4.04-2.29,8.01-4.18,11.56-.98,1.84-2.12,3.56-3.49,5.03-1.37,1.49-2.96,2.75-4.69,3.7-1.07.58-2.19.97-3.27,1.33-1.09.35-2.13.67-3.22,1.12-.86.32-1.21.98-1,1.56.2.58,1.03,1.14,2.26,1.04Z"/><path class="cls-1" d="M158.31,169.37c-.27,1.17-1.25,2.24-2.37,2.61-.58.2-1.29.27-2.07.28-.76,0-1.45-.06-2.01-.27-1.16-.42-2.16-1.43-2.64-2.63-.49-1.2-.46-2.47.12-3.62.48-1,1.43-1.83,2.47-2.26,1.03-.42,2.17-.45,3.3-.2,1.13.26,2.17.74,3.18,1.54,1.01.81,2.02,1.89,2.85,3.45.05.1.27.06.27-.04-.07-1.89-.8-3.67-2-5.02-1.21-1.36-2.89-2.22-4.65-2.46-3.59-.58-7.32,1.93-8.2,5.6-.5,2,.03,4.18,1.24,5.85.6.84,1.4,1.58,2.35,2.11.95.55,2.09.82,3.09.89,1.03.07,2.03.09,3.18-.16,1.16-.25,2.3-.86,3.17-1.67.54-.5,1.05-1.06,1.35-1.73.3-.66.38-1.42.06-2.11-.26-.56-.93-.69-1.52-.66-.59.05-1.09.2-1.17.5Z"/><path class="cls-1" d="M89.24,168.76c-.27,1.17-1.25,2.24-2.37,2.61-.58.2-1.29.27-2.07.28-.76,0-1.45-.06-2.01-.27-1.16-.42-2.16-1.43-2.64-2.63-.49-1.2-.46-2.47.12-3.62.48-1,1.43-1.83,2.47-2.26,1.03-.42,2.17-.45,3.3-.2,1.13.26,2.17.74,3.18,1.54,1.01.81,2.02,1.89,2.85,3.45.05.1.27.06.27-.04-.07-1.89-.8-3.67-2-5.02-1.21-1.36-2.89-2.22-4.65-2.46-3.59-.58-7.32,1.93-8.2,5.6-.5,2,.03,4.18,1.24,5.85.6.84,1.4,1.58,2.35,2.11.95.55,2.09.82,3.09.89,1.03.07,2.03.09,3.18-.16,1.16-.25,2.3-.86,3.17-1.67.54-.5,1.05-1.06,1.35-1.73.3-.66.38-1.42.06-2.11-.26-.56-.93-.69-1.52-.66-.59.05-1.09.2-1.17.5Z"/><path class="cls-1" d="M111.68,221.11c-2.54-.84-4.96-1.84-6.82-3.42-1.81-1.53-3.07-3.82-2.97-5.97.05-1.05.45-2.07,1.1-3.12.65-1.04,1.51-2.09,2.34-3.28,1.74-2.46,2.72-5.41,3.16-8.25.4-2.46.59-4.98.71-7.47.13-2.49.2-5.02.12-7.53-.15-5.02-.92-9.96-2.97-14.27-.06-.14-.28-.05-.26.09.58,5.22.83,10.45.83,15.69,0,2.62-.07,5.24-.2,7.85-.14,2.6-.42,5.19-1.16,7.62-.39,1.31-.92,2.55-1.62,3.68-.67,1.13-1.59,2.17-2.48,3.34-.88,1.17-1.79,2.52-2.21,4.19-.42,1.67-.23,3.44.33,4.99.58,1.62,1.54,3.05,2.72,4.25,1.2,1.2,2.56,2.11,3.97,2.88,1.72.93,3.42,1.77,5.25,1.47,1.45-.24,1.54-2.3.16-2.76Z"/><path class="cls-1" d="M162.41,243.45c.72-2.8,1.53-5.57,2.36-8.35.2-.71.48-1.59.39-2.7-.12-1.18-.71-2.06-1.09-2.65-.79-1.23-1.59-2.44-2.42-3.64-2.82-4.12-5.29-9.55-11.01-10.99-.09-.02-.24.14-.19.2,3.84,4.02,7.03,8.54,9.92,13.29l1.14,1.93c.37.65.79,1.32.89,1.78.1.42.02.88-.19,1.51l-.75,2.07c-.51,1.47-1.02,2.94-1.53,4.42-.32.9-.8,1.74-.19,2.81.48.84,2.47,1.1,2.67.35Z"/><path class="cls-1" d="M105.89,255.66c4.95,2.29,10.48,2.96,15.78,2.4,5.31-.55,10.49-2.34,15.05-5.05,4.58-2.69,8.61-6.19,12.14-10.06.88-.97,1.74-1.96,2.56-2.98.41-.51.83-1.01,1.22-1.54l.95-1.25c.35-.48.69-.96,1.03-1.43l2.02-2.87,1.01-1.45.25-.36.06-.09s.07-.08.01-.06l-.21.05-.85.19-6.89,1.56c-.63.13-1.27.27-1.91.4-.54.11-1.08.23-1.62.32-1.09.19-2.19.38-3.3.57-1.11.16-2.23.31-3.35.47-1.13.13-2.26.26-3.4.39-4.55.46-9.18.71-13.77.83-9.2.24-18.24-.05-26.76.15-.27,0-.17.25.09.29,9.79,1.59,19.67,2.24,29.52,1.91,4.93-.16,9.85-.57,14.75-1.22l3.67-.54,3.66-.64,3.03-.6.95-.2.45-.1.22-.05s.1-.03.09,0l-.08.1c-.44.6-.86,1.16-1.27,1.67-.11.13-.64.82-1.03,1.28-.42.5-.83,1.01-1.27,1.5-1.72,1.98-3.54,3.85-5.49,5.58-3.88,3.45-8.27,6.34-13.04,8.14-4.93,1.85-10.3,2.6-15.44,1.9-3.18-.5-5.99-1.57-8.91-2.2-1.16-.26-1.83.13-1.86.78-.02.32.13.72.45,1.12.31.41.8.82,1.48,1.11Z"/><path class="cls-1" d="M132.53,159.9c2.82-3.13,6.9-5.04,11.15-5.89,4.28-.87,8.72-.78,13.1-.1,3.8.56,7.75,1.89,11.79,2.84,4.03.94,8.27,1.46,12.21.36.12-.03.1-.26-.01-.28-8.65-1.06-16.87-4.36-25.74-5.64-4.79-.67-9.76-.66-14.61.62-2.5.67-4.95,1.72-7.18,3.19-1.33.93-2.8,1.86-3.07,3.57-.23,1.3,1.67,2.15,2.38,1.33Z"/><path class="cls-1" d="M100.52,158.12c-3.58-1.8-7.12-3.69-10.65-5.6-1.77-.96-3.51-1.92-5.38-2.78-1.86-.87-3.83-1.66-5.94-2.13-3.62-.83-7.69-.93-11.38-.02-3.7.9-6.97,2.65-9.41,5.39-.08.09.05.28.14.24,3.52-1.5,7.1-2.81,10.81-3.47,3.7-.68,7.53-.55,11.01.71,3.75,1.35,7.25,3.68,10.81,5.76l5.54,3.23c1.14.66,2.16,1.47,3.63,1.25,1.17-.17,1.78-2.09.81-2.58Z"/><path class="cls-1" d="M145.65,69.98c-3.83-5.59-6.63-12.19-11.51-17.67-2.42-2.71-5.35-5.13-8.88-6.59-3.53-1.48-7.52-1.71-11.19-.91-3.18.66-6.31,2.04-9.05,4.09-1.36,1.04-2.62,2.24-3.71,3.6-1.08,1.35-1.96,2.85-2.66,4.41-2.84,6.26-2.23,13.6,1.08,18.35.1.15.28,0,.23-.17-1.01-3.06-1.38-6.35-1.13-9.58.29-3.23,1.23-6.42,2.85-9.23,3.2-5.64,9.52-9.35,15.94-9.46,3.45-.07,6.81,1,9.61,2.97,2.82,1.94,5.14,4.6,7.1,7.47,2.05,2.99,3.77,6.27,5.58,9.57,1.11,2.03,2.13,4.16,4.06,5.41,1.53.97,2.69-.8,1.67-2.28Z"/><path class="cls-1" d="M141.12,61.06c-4.02-1.92-7.89-3.93-11.95-5.95-1.04-.49-2.14-.95-3.31-1.3-1.18-.33-2.41-.56-3.64-.59-2.46-.11-4.91.37-7.14,1.28-1.93.78-3.83,1.83-5.54,3.2-1.71,1.38-3.19,3.05-4.32,4.91-2.27,3.71-3.05,8.07-1.95,11.85.03.12.26.1.28,0,.54-4.11,1.93-8.16,4.37-11.51,2.4-3.36,5.96-5.86,9.93-6.78,2.12-.49,4.33-.53,6.37.01,2.04.5,3.95,1.61,5.96,2.72l6.27,3.44c1.29.71,2.47,1.56,4.04,1.37,1.24-.15,1.73-2.13.65-2.65Z"/><path class="cls-1" d="M144.29,62.96c-6.34-5.2-15.28-6.61-22.93-3.88-3.27,1.14-6.69,2.84-9.34,5.39-2.64,2.52-4.45,5.86-4.37,9.36,0,.11.22.17.26.09,3.01-6.37,8.99-11.46,15.87-13.03,3.68-.85,7.56-.6,11.05.51,1.81.57,3.54,1.36,5.09,2.39.94.68,1.67,1.45,3.01,1.52,1.1.04,2.23-1.6,1.36-2.35Z"/><path class="cls-1" d="M146.88,69.64c-2.68-2.6-6.22-3.88-9.71-4.23-3.54-.34-7,.31-10.21,1.29-2.77.88-5.69,1.6-8.47,3.01-1.37.7-2.68,1.62-3.72,2.77-1.04,1.15-1.79,2.56-2.01,4.09-.02.1.17.22.22.16,1.85-2.31,4.52-3.96,7.32-5.18,2.82-1.2,5.8-2.21,8.79-2.89,3.22-.71,6.53-.86,9.5-.04,1.54.41,3,1.03,4.22,1.91.77.56,1.23,1.25,2.44,1.28.98.06,2.36-1.39,1.63-2.16Z"/><path class="cls-1" d="M123.09,77.88c2.84-2.41,7-3.12,10.82-2.54,1.93.31,3.8.95,5.5,1.88,1.71.95,3.29,2.18,4.69,3.6,2.82,2.84,4.98,6.36,6.73,10.08,1.76,3.72,3.11,7.7,4.58,11.69,1.26,3.44,2.56,7.07,4.35,10.61.89,1.77,1.95,3.5,3.09,5.15,1.16,1.64,2.46,3.19,3.84,4.64,5.56,5.77,13.06,9.49,20.04,9.77.22.01.18-.23-.03-.29-7.65-2.16-14.63-6.74-19.78-12.85-2.58-3.06-4.69-6.49-6.3-10.17-1.64-3.67-2.91-7.52-4.25-11.38-1.44-4.16-2.99-8.36-5.2-12.29-2.19-3.92-5.08-7.65-8.96-10.31-4.05-2.81-9.18-4.01-14.16-3.26-1.54.22-3.06.68-4.42,1.38-1.37.69-2.5,1.79-3.19,3.05-.51,1.05-.16,1.66.45,1.85.64.21,1.4-.03,2.18-.64Z"/><path class="cls-1" d="M137.2,72.39c1.68.08,3.44.81,5.08,1.79.82.49,1.62,1.09,2.44,1.63.76.63,1.57,1.19,2.28,1.87,2.94,2.63,5.48,5.74,7.62,9.12,4.35,6.77,7.36,14.36,10.63,21.94,1.43,3.27,2.94,6.7,4.93,10.01,1.97,3.31,4.55,6.45,7.62,8.91,6.16,4.94,13.66,7.3,20.45,7.45.22,0,.17-.24-.03-.29-7.51-1.97-14.89-5.13-20.52-10.49-2.82-2.65-5.04-5.87-6.87-9.3-1.84-3.44-3.32-7.08-4.8-10.75-1.61-3.95-3.22-7.92-5.09-11.8-1.86-3.88-3.97-7.7-6.6-11.22-2.68-3.68-6.04-6.94-9.9-9.54-1.21-.8-2.5-1.55-3.94-2-1.42-.45-3.05-.53-4.43.03-1.09.48-1.13,1.25-.77,1.74.38.51,1.04.86,1.92.89Z"/><path class="cls-1" d="M205.63,134.6c-7.81-2.82-15.59-6.01-21.82-11.21-3.11-2.59-5.69-5.66-7.65-9.21-2-3.53-3.55-7.41-5.41-11.24-3.17-6.6-6.98-13.53-11.74-19.65-4.74-6.12-10.43-11.4-16.63-14.62-.19-.1-.26.14-.1.28,12.15,10.42,21.63,23.77,27.89,38.55,1.74,3.98,3.47,8.07,6.07,11.78,1.32,1.83,2.8,3.55,4.42,5.11,1.64,1.54,3.4,2.96,5.24,4.24,3.84,2.64,7.99,4.69,12.18,6.53,2.58,1.12,5.07,2.31,7.72,2.34,2.09.03,1.96-2.13-.16-2.89Z"/><path class="cls-1" d="M198.55,109.25c-6.9-2.58-13.15-6.85-18.22-12.2-2.52-2.69-4.74-5.67-6.58-8.86-1.85-3.19-3.31-6.63-4.71-10.13-1.39-3.5-2.72-7.1-4.3-10.62-1.55-3.52-3.29-6.96-5.16-10.32-1.89-3.35-3.92-6.63-6.12-9.79-2.19-3.14-4.5-6.3-7.38-9.08-2.45-2.38-5.52-4.48-8.92-5.68-3.39-1.23-6.95-1.78-10.47-2.01-3.52-.22-7.12-.19-10.68.31-3.56.49-7.12,1.36-10.46,2.9-1.68.72-3.26,1.7-4.77,2.74-1.46,1.12-2.87,2.32-4.03,3.76-2.39,2.8-3.93,6.21-4.62,9.62-.72,3.42-.68,6.84-.26,10.07.42,3.24,1.25,6.31,2.26,9.22.13.37.3.12.23-.26-.74-3.53-1.25-7.1-1.28-10.67-.01-1.78.09-3.57.35-5.32.28-1.75.72-3.47,1.35-5.12.63-1.65,1.45-3.22,2.52-4.62,1.01-1.44,2.27-2.7,3.63-3.83,1.35-1.14,2.9-2.04,4.46-2.87,1.61-.75,3.25-1.46,4.98-1.94,3.42-1.05,7.02-1.51,10.6-1.68,3.59-.12,7.23.05,10.75.68,3.52.63,6.92,1.85,9.77,3.94,2.87,2.07,5.25,4.8,7.41,7.69,4.64,6.29,8.64,13.06,11.93,20.14,1.66,3.54,3.08,7.15,4.46,10.84,1.39,3.68,2.8,7.42,4.59,11.04,1.87,3.75,4.2,7.32,6.95,10.52,2.76,3.19,5.87,6.08,9.31,8.54,4.2,3.03,8.81,5.55,13.49,6.19,1.85.22,2.51-.27,2.24-.97-.27-.71-1.45-1.53-3.3-2.24Z"/><path class="cls-1" d="M98.66,34.07c-2.43-.61-5.11-.27-7.32.78-2.23,1.03-4.03,2.62-5.58,4.31-1.55,1.72-2.85,3.59-3.97,5.59-1.13,2.02-1.95,4.26-2.35,6.59-.33,2.01-.44,4.2.04,6.4.47,2.23,1.51,4.17,2.51,5.85,2.03,3.39,4.41,6.51,7.68,8.72.1.07.27-.09.21-.18-2.24-3.52-4.35-7.11-6.35-10.74-.99-1.8-1.77-3.65-1.94-5.62-.19-1.97.09-3.97.7-5.87.65-2.05,1.72-3.93,2.98-5.71,1.25-1.77,2.71-3.37,4.33-4.66,1.67-1.32,3.54-2.33,5.43-2.48.58,0,1.14-.02,1.7.05.28.02.56-.05.85-.07.29-.02.6-.09.94-.22.53-.21.93-.79,1.01-1.37.08-.58-.21-1.18-.87-1.35Z"/><path class="cls-1" d="M92.89,33.78c-.65-.18-1.35-.14-2.03-.22-.68-.03-1.37.05-2.05.1-1.35.24-2.69.58-3.89,1.21-2.45,1.17-4.41,2.98-6.07,4.9-1.68,1.96-3.01,4.02-4.29,6.21-1.25,2.24-2.2,4.74-2.51,7.4-.29,2.3-.08,4.73.5,7.01.58,2.28,1.47,4.46,2.66,6.48,2.36,4.01,6.11,7.16,10.27,7.97.13.03.21-.19.11-.26-3.76-2.46-6.86-5.99-8.89-10.04-1-2.03-1.8-4.18-2.18-6.39-.4-2.2-.27-4.43.37-6.56.68-2.31,1.86-4.37,3.3-6.39,1.4-2.01,2.94-3.89,4.71-5.39.9-.8,1.9-1.42,2.91-1.97,1.03-.47,2.09-.86,3.18-.96.33-.08.67-.03,1-.04.33,0,.65-.03.98,0,.33,0,.65-.02.99-.09.33-.02.68-.1,1.05-.24.58-.22.95-.83.97-1.42.03-.59-.34-1.18-1.06-1.33Z"/><path class="cls-1" d="M86.05,33.31c-2.56-.93-5.6-1.31-8.4-.34-2.82.93-4.96,3-6.56,5.16-1.61,2.2-2.75,4.61-3.7,7.03l-.68,1.81c-.21.57-.44,1.23-.64,1.9-.38,1.33-.61,2.69-.7,4.06-.32,4.68.71,9.79,3.17,14,2.43,4.22,6.01,7.44,10.1,9.09.13.05.24-.15.14-.24-3.51-3.26-6.67-6.93-8.74-11.21-2.07-4.23-2.95-9.15-1.93-13.69.26-1.23.71-2.35,1.21-3.59.48-1.2,1-2.37,1.57-3.5,1.15-2.25,2.55-4.36,4.31-5.91,1.81-1.63,3.99-2.48,6.25-2.28,1.42.13,2.65.72,4.27.44,1.3-.2,1.76-2.17.33-2.74Z"/><path class="cls-1" d="M75.29,73.65c-3.64-1.21-6.63-4.19-8.41-7.71-.9-1.77-1.53-3.65-1.87-5.63-.37-2.03-.59-4.02-.43-5.96.12-1.67.61-3.38,1.24-5.13.33-.88.66-1.77.99-2.67.33-.89.69-1.82.97-2.85.28-1.02.48-2.15.39-3.34-.04-.59-.17-1.2-.37-1.76-.21-.58-.56-1.2-.99-1.62-.85-.87-1.95-1.34-3.01-1.34-1.07-.04-2.02.62-2.13,1.37-.02.09.16.22.21.18.38-.44,1.14-.55,1.91-.24.76.3,1.45.92,1.8,1.65.33.75.4,1.73.28,2.65-.12.94-.42,1.89-.75,2.84-.69,1.91-1.45,3.84-2.04,5.84-.61,2-1,4.14-.99,6.29,0,1.16.08,2.31.22,3.44.13,1.12.3,2.26.59,3.4.55,2.27,1.45,4.48,2.72,6.49,1.3,2.1,3.04,3.96,5.13,5.44,1.25.91,2.68,1.8,4.28,1.36,1.22-.35,1.21-2.43.28-2.7Z"/><path class="cls-1" d="M73.95,74.68c-3.5.04-6.99-1.58-9.55-4.06-2.59-2.47-4.21-5.86-4.94-9.41-.31-1.54-.4-3.18-.32-4.83.04-.82.11-1.65.22-2.48.1-.79.25-1.51.45-2.32.2-.79.44-1.63.62-2.56.18-.92.29-1.94.16-2.94-.12-1-.5-1.95-1.03-2.7-.53-.81-1.55-1.33-2.13-.72-.07.07-.05.25-.01.24.11-.04.23-.02.33.02.08.03.17.1.27.22.21.25.34.53.45.96.23.81.3,1.65.19,2.5-.21,1.72-1.02,3.46-1.45,5.37-.22.96-.32,1.94-.4,2.88-.08.96-.1,1.92-.08,2.89.05,1.93.29,3.87.77,5.77.52,2.05,1.31,4.05,2.43,5.9,1.12,1.86,2.58,3.53,4.3,4.9,1.78,1.43,3.88,2.5,6.14,3.15,1.37.4,2.87.77,4.13-.15.96-.72.33-2.69-.55-2.65Z"/><path class="cls-1" d="M70.41,77.66c-.46.35-1.24.51-2.1.48-.88-.04-1.75-.23-2.69-.56-1.88-.63-3.68-1.51-5.35-2.6-3.28-2.17-6.31-5.15-7.36-8.6-.46-1.47-.33-3.04-.03-4.88l.22-1.38c.06-.34.16-.69.29-1.07.26-.74.66-1.54,1.06-2.42.4-.88.82-1.86,1.04-2.97.12-.55.16-1.14.14-1.73-.04-.63-.14-1.08-.27-1.59-.26-1-.77-2.14-1.74-2.72-.47-.27-.99-.37-1.44-.3-.46.07-.79.33-.92.66-.03.08.1.25.14.23.2-.13.42-.16.73-.06.3.09.6.31.79.57.44.6.57,1.53.62,2.51.13,1.8-.87,3.55-1.76,5.39-.44.93-.87,1.92-1.05,3.02-.16,1.04-.31,2.01-.41,3.06-.1,1.04-.12,2.13.05,3.22.18,1.08.5,2.13.96,3.12.98,2.13,2.44,3.97,4.07,5.57,1.63,1.61,3.48,3,5.48,4.16,1.04.6,2.13,1.11,3.25,1.56,1.08.44,2.36.86,3.7,1.01.83.09,1.72.14,2.62-.12.88-.25,1.77-.91,2.07-1.84.22-.75-.3-1.22-.84-1.46-.55-.24-1.04-.39-1.27-.23Z"/><path class="cls-1" d="M52.72,62.32c-.38-1.42-.55-3.05-1.58-4.72-.51-.82-1.28-1.53-2.09-2-.81-.47-1.66-.78-2.55-.95-1.49-.3-3.24-.48-4.8.21-.76.34-1.44.91-1.83,1.68-.38.76-.46,1.72-.04,2.66.03.06.22.17.23.14.47-1.11,1.57-1.97,2.81-2.33,1.24-.37,2.61-.3,3.77.19.62.26,1.19.63,1.58,1.07.38.45.61.93.76,1.5.15.59.27,1.27.33,2.01.04.46-.1.96.84,1.23.75.21,2.67-.31,2.57-.7Z"/><path class="cls-1" d="M51.93,66.37c-1.01-1.6-2.32-2.95-3.89-3.96-1.56-1.01-3.4-1.67-5.32-1.74-1.61-.08-3.46-.06-5.02.77-1.54.78-2.71,2.45-2.17,4.56.02.07.2.19.22.16.73-1.21,1.94-2.16,3.29-2.67,1.36-.52,2.88-.62,4.26-.31,1.5.34,2.82,1.18,3.84,2.2.53.53,1.01,1.09,1.38,1.71.22.4.24.83,1.2.77.78-.03,2.49-1.03,2.21-1.49Z"/><path class="cls-1" d="M52.55,66.99c-3.52-.94-7.27-1.08-10.77,0-1.48.46-3.18.88-4.54,1.9-1.34,1-2.3,2.62-1.83,4.78.01.07.19.2.22.16,1.62-2.6,4.58-4.22,7.59-4.71,1.63-.27,3.29-.19,4.85.08.81.15,1.61.3,2.36.57.48.14.84.51,1.54-.2.57-.55,1.09-2.47.59-2.6Z"/><path class="cls-1" d="M65.49,84.13c-3.39-.68-6.9-.1-9.94,1.42-1.51.78-2.9,1.82-4.07,3.09-1.17,1.26-2.06,2.71-2.79,4.18-2.77,5.92-3.68,12.24-4.39,18.38-.6,5.31-1.37,10.86-2.59,16.12-1.21,5.3-2.76,10.18-4.96,15.13-.07.16.15.25.25.12,4.05-4.7,6.15-10.53,7.44-16.31,1.3-5.83,1.74-11.76,2.64-17.58.48-3.13,1.1-6.23,2.02-9.21.95-2.95,2.09-5.89,3.92-8.1,1.85-2.26,4.59-3.73,7.47-4.12,1.81-.24,3.41.08,5.2-.33.71-.14,1.16-.71,1.17-1.31.01-.59-.44-1.3-1.37-1.47Z"/><path class="cls-1" d="M56.35,98.15c-2.26,3.73-3.72,7.82-4.78,11.91-1.06,4.1-1.76,8.23-2.48,12.29-.62,3.5-1.63,7.13-2.59,10.62-.97,3.52-1.84,6.85-2.37,10.68-.01.12.2.2.25.11,2.2-3.5,3.66-7.31,4.77-11.17,1.11-3.86,1.88-7.79,2.69-11.7.87-4.21,1.83-8.39,3.2-12.34.38-1.01.7-2.05,1.15-3.02l.63-1.47c.22-.48.49-.94.74-1.41.58-1.18,1.45-2.08,1.32-3.56-.09-1.19-1.92-1.99-2.54-.95Z"/><path class="cls-1" d="M51.43,115.73c.72,5.76-.13,11.66-1.68,17.22-.68,2.41-1.88,4.8-2.92,7.16-.26.59-.5,1.19-.75,1.78-.12.3-.23.6-.33.91-.12.3-.23.6-.32.91-.38,1.27-.72,2.54-1.02,4.09-.02.1.16.23.21.17,2.04-2.33,3.48-4.89,4.74-7.53,1.24-2.64,2.28-5.37,3.13-8.19.91-3.03,1.64-6.14,2.03-9.32.2-1.65.29-3.32.31-4.99.05-1.02.14-2.07-.79-2.89-.75-.64-2.7-.09-2.61.67Z"/><path class="cls-1" d="M57.9,77.41c-4.86,1.86-9.11,5.25-12.05,9.51-2.97,4.24-4.72,9.13-5.84,14.01-1,4.24-1.64,8.75-2.76,12.73-.56,2-1.25,3.88-2.15,5.69-.91,1.8-1.99,3.55-3.6,5.2-.1.11.05.28.17.22,2.34-1.13,4.14-3,5.46-5.05,1.33-2.06,2.2-4.35,2.8-6.66.61-2.31.99-4.65,1.42-6.96.41-2.31.92-4.57,1.59-6.8,1.44-4.77,3.66-9.33,6.95-12.81,1.68-1.82,3.64-3.34,5.8-4.48,1.34-.71,2.72-1.07,3.73-2.34.83-.99-.17-2.78-1.53-2.28Z"/><path class="cls-1" d="M49.6,75.04c-3.88,2.1-6.7,5.52-8.7,9.17-2.01,3.7-3.17,7.67-4.18,11.53-.87,3.34-2.02,6.76-3.16,10.02-1.16,3.3-2.2,6.33-3.25,9.95-.03.12.16.23.23.15,2.65-3.05,4.34-6.64,5.65-10.26,1.32-3.64,2.24-7.37,3.38-11,1.22-3.91,2.74-7.7,5.04-10.84,1.18-1.63,2.53-3.11,4.08-4.25.97-.71,1.99-1.08,2.58-2.32.5-.99-.56-2.7-1.67-2.15Z"/><path class="cls-1" d="M50.17,69.36c-1.52.81-2.85,1.64-4.24,2.48l-2.06,1.27-1.03.65-.52.34c-.18.12-.35.23-.61.45-2.59,2.25-4.63,4.95-6.3,7.78-1.45,2.43-3.04,4.96-4.24,7.57-1.21,2.63-1.99,5.25-2.02,8.42,0,.1.2.19.25.12,3.15-5.42,5.41-11.11,8.88-16.08.93-1.33,1.96-2.56,3.07-3.69.57-.55,1.14-1.09,1.75-1.57l.45-.37.39-.23,1.04-.59c1.47-.82,2.96-1.65,4.45-2.42.92-.46,1.91-.77,2.24-1.87.1-.24-.03-.45-.02-.75-.02-.29-.03-.61-.14-.88-.09-.27-.39-.48-.64-.58-.22-.11-.51-.13-.71-.02Z"/><path class="cls-1" d="M51.47,67.81c-3.28-.74-6.84-.49-9.97.74-1.57.6-3.05,1.41-4.4,2.39-1.34.98-2.61,2.09-3.66,3.46-1.78,2.24-3.45,4.85-4.35,7.65-.91,2.8-1.07,5.67.02,8.53.03.09.26.11.27.03.52-2.92,1.19-5.79,2.27-8.49,1.07-2.69,2.59-5.25,4.6-7.21,2.23-2.08,5.03-3.55,7.87-4.11,1.48-.29,2.96-.35,4.42-.18.45.08.88.21,1.32.21.44.05.88,0,1.4-.34.84-.52,1.15-2.48.22-2.68Z"/><path class="cls-1" d="M200.3,99.27c-4.37-12.43-6.59-25.76-11.95-38.3-2.62-6.27-6.25-12.2-10.75-17.36-4.49-5.17-9.85-9.57-15.74-13.06-5.09-2.98-10.75-5.45-16.78-6.96-3.01-.78-6.1-1.3-9.22-1.59-3.12-.29-6.26-.36-9.38-.13-6.23.4-12.34,1.87-17.83,4.24-1.36.63-2.71,1.23-3.99,1.96-1.28.7-2.55,1.44-3.71,2.32-1.15.88-2.2,1.88-2.98,3.03-.78,1.14-1.24,2.43-1.25,3.66-.01.31.24.18.3-.1.26-1.34,1.05-2.58,2.11-3.61,1.06-1.04,2.35-1.89,3.71-2.63,2.78-1.43,5.71-2.68,8.72-3.65,6.02-1.92,12.35-2.96,18.68-2.91,3.17.01,6.33.25,9.46.75,3.12.52,6.21,1.27,9.21,2.27,6.02,1.98,11.66,5.03,16.77,8.79,5.47,4.1,10.24,9.09,14.03,14.72,1.91,2.81,3.53,5.8,4.93,8.9,1.4,3.1,2.62,6.28,3.67,9.54,2.19,6.75,3.85,13.71,5.7,20.68,1.13,4.28,2.19,8.57,4.39,12.05,1.74,2.73,3.1.71,1.89-2.62Z"/><path class="cls-1" d="M193.04,91.2c-4.04-17.16-13.41-32.95-26.4-44.87-5.58-5.12-12.09-10.16-19.31-13.73-7.18-3.59-15.05-5.65-22.21-5.28-.22,0-.15.25.06.29,16.25,2.76,31.25,11.35,42.68,23.23,6.17,6.41,11.28,13.79,15.16,21.71.96,2.07,2.02,4.1,2.78,6.26l1.24,3.19c.38,1.08.67,2.18,1.01,3.27.9,2.67,1.22,5.38,2.67,7.66,1.14,1.81,2.9.61,2.32-1.73Z"/><path class="cls-1" d="M204.33,161.89c4.39,5.25,6.49,12.23,6.41,18.99-.01,1.47-.22,2.95-.53,4.48-.31,1.54-.68,3.15-.87,4.83-.18,1.68-.17,3.47.33,5.15.5,1.67,1.58,3.18,3.02,3.9.09.05.26-.1.21-.17-.86-1.28-1.31-2.85-1.4-4.48-.11-1.64.1-3.32.37-4.99.28-1.68.65-3.36.91-5.1.28-1.74.38-3.51.38-5.28,0-3.82-.63-7.67-1.91-11.35-.66-1.91-1.56-3.73-2.59-5.49-.62-1.08-1.19-2.23-2.58-2.54-1.08-.24-2.34,1.37-1.76,2.05Z"/><path class="cls-1" d="M204.02,157.22c2.11,2.26,4.09,4.59,5.62,7.12.38.64.74,1.26,1.04,1.95l.89,2.08.89,2.09.87,2.17c2.02,4.98,3.15,11.13,8.36,14.45.08.05.27-.07.23-.14-2.72-5.35-4.86-10.9-6.85-16.57-1.15-3.01-2.08-6.29-3.94-9.16-.92-1.49-1.95-2.88-2.99-4.23-.64-.83-1.14-1.75-2.42-1.86-1.01-.09-2.27,1.48-1.7,2.09Z"/><path class="cls-1" d="M205.11,156.05c1.26,1.41,2.84,2.43,4.48,3.09,1.64.68,3.35,1.06,5.05,1.25,3.44.37,6.7-.03,9.79-.13,1.33-.04,2.69.03,3.99.25,1.29.2,2.5.58,3.69,1.01,1.18.46,2.31.95,3.43,1.57,1.14.6,2.28,1.35,3.52,2.51.08.07.28-.02.25-.11-.56-1.67-1.62-3.08-2.87-4.13-1.26-1.06-2.7-1.82-4.2-2.38-3.04-1.12-6.28-1.13-9.37-1.1-3.34.05-6.63.14-9.58-.68-1.52-.41-2.96-1-4.1-1.87-.72-.56-1.09-1.21-2.27-1.3-.47-.04-1.1.24-1.51.65-.42.4-.61.98-.28,1.38Z"/><path class="cls-1" d="M207.04,157.55c2.63,3.94,5.45,7.86,9.18,11,1.59,1.34,3.29,2.9,5.36,3.83,2.04.93,4.46,1.17,6.64-.16.07-.04.09-.26.03-.27-4.3-.45-8.22-2.86-11.24-5.96-1.65-1.68-3.04-3.58-4.31-5.53-.66-1.01-1.32-2.03-1.9-3.08-.37-.64-.55-1.38-1.65-1.49-.88-.09-2.46,1.13-2.09,1.67Z"/><path class="cls-1" d="M204.71,151.83c.37,1.12,1.11,2.06,1.92,2.72.81.67,1.69,1.13,2.56,1.5.88.36,1.77.62,2.67.82.86.18,1.71.33,2.58.43,1.48.19,3.08.6,4.68.48,1.59-.12,3.17-.79,4.3-2.71.04-.06,0-.28-.05-.26-3.07.83-6.31.67-9.38-.05-1.68-.39-3.25-.95-4.46-1.8-.62-.43-1.13-.91-1.36-1.39-.17-.33-.02-.55-.94-.65-.37-.05-1.05-.01-1.61.14-.56.15-1,.46-.91.77Z"/><path class="cls-1" d="M205.42,149.29c1.5,1.24,3.28,1.78,4.88,2.08,1.62.3,3.17.4,4.6.55,1.22.12,2.44.66,3.7.86,1.27.21,2.6.07,4.47-1.05.06-.04.13-.24.09-.25-2.95-.76-5.75-1.56-8.73-2.06-1.57-.28-3.11-.6-4.41-1.11-.67-.26-1.27-.55-1.74-.92-.3-.25-.37-.58-1.21-.18-.7.3-2.08,1.72-1.65,2.1Z"/><path class="cls-1" d="M208.63,143.16c.44.98,1.12,1.83,1.89,2.45.77.64,1.6,1.1,2.44,1.46,1.66.73,3.45,1.08,5.03,1.28,1.36.19,2.67.72,3.85,1,.6.15,1.17.22,1.86.23.69.02,1.53-.02,2.69.09.07,0,.24-.14.21-.17-1.26-1.39-2.86-2.09-4.39-2.57-1.55-.48-3.1-.77-4.62-1.12-1.57-.36-3.08-.99-4.21-1.82-.58-.43-1.06-.89-1.34-1.38-.16-.34-.09-.61-1.01-.63-.76-.05-2.65.57-2.4,1.16Z"/><path class="cls-1" d="M207.5,137.97c2.33.85,4.63,1,6.71,1.27,2.11.24,3.94.68,5.74,1.49,1.55.7,2.88,1.94,4.25,3.02,1.38,1.12,2.84,2.03,5.28,2.76.08.02.26-.11.22-.16-2.55-3.56-5.74-6.43-9.7-8.27-1.06-.5-2.19-.88-3.33-1.19-1.14-.3-2.27-.52-3.35-.73-1.12-.22-2.2-.43-3.16-.76-.61-.21-1.03-.59-1.88,0-.7.45-1.42,2.3-.76,2.57Z"/><path class="cls-1" d="M204.59,126.51c.76.6,1.6,1.03,2.41,1.51.84.4,1.67.83,2.53,1.15,1.7.7,3.43,1.23,5.13,1.71,3.4.99,6.77,1.78,9.73,3.16,1.3.55,2.44,1.41,3.5,2.31.48.51,1,.97,1.44,1.51.44.54.84,1.11,1.24,1.69,1.57,2.36,2.87,5.01,5.03,7.63.07.08.28,0,.26-.09-.73-3.37-1.78-6.73-3.77-9.63-1.99-2.9-5.02-4.98-8.21-6.31-3.43-1.5-7-2.44-10.31-3.68-1.71-.65-3.39-1.29-4.86-2.2-.92-.56-1.59-1.26-2.87-1.17-1.05.08-2.11,1.76-1.24,2.39Z"/><path class="cls-1" d="M212.61,116.08c3.95,1.24,7.82,2.65,11.35,4.57,3.53,1.91,6.68,4.4,8.93,7.55,1.95,2.73,3,6.23,3.69,9.69.7,3.5,1.15,6.96,2.21,10.69.04.12.26.11.27,0,.58-4.1.52-8.23-.31-12.23-.83-3.99-2.47-7.88-5.1-11.14-2.81-3.52-6.56-6.21-10.5-8.26-2.05-1.07-4.16-1.97-6.27-2.82-1.3-.52-2.52-1.18-3.97-.74-1.15.35-1.37,2.37-.3,2.7Z"/><path class="cls-1" d="M144.44,23.35c4.18-1.13,8.51-1.7,12.84-2.04,2.17-.19,4.35-.19,6.52-.22,2.18.07,4.36.11,6.53.33,8.68.71,17.28,2.76,25.2,6.25,3.95,1.77,7.64,4,11.04,6.68,3.4,2.67,6.51,5.73,9.45,8.96,5.84,6.52,11.23,13.54,15.96,20.91,4.07,6.36,7.68,13.33,10.44,20.7,2.78,7.37,4.66,15.15,5.47,23,.81,7.84.54,15.73-.87,23.25-.72,3.76-1.61,7.45-3.04,10.89-.73,1.71-1.57,3.37-2.62,4.9-.25.39-.54.76-.82,1.13-.14.19-.29.36-.44.54l-.4.48-.32.38s-.05.06-.07.09l.06.12.12.23.23.42.3.6c.2.41.33.11.17-.32l-.34-.9.7-.69c.79-.79,1.52-1.63,2.16-2.53,1.31-1.78,2.35-3.72,3.22-5.71.86-2,1.57-4.04,2.12-6.12.29-1.04.58-2.07.8-3.12.25-1.04.47-2.09.65-3.15,1.53-8.45,1.48-17.13.18-25.58-1.31-8.46-3.9-16.7-7.4-24.5-3.5-7.81-7.89-15.22-12.85-22.22-2.67-3.77-5.5-7.43-8.45-10.99-2.96-3.56-6.08-7.01-9.53-10.15-3.45-3.14-7.25-5.98-11.41-8.21-4.15-2.23-8.54-3.93-13.03-5.26-4.66-1.37-9.43-2.34-14.24-2.92-4.82-.55-9.69-.73-14.55-.52-5.96.26-11.92,1.02-16.84,3.4-1.93.95-2.27,1.75-1.58,2.14.7.42,2.37.36,4.63-.24Z"/><path class="cls-1" d="M196.12,35.17c4.77,2.13,9.15,5.16,13.03,8.73,3.89,3.58,7.3,7.68,10.28,12.08,6,8.82,10.34,18.69,14.7,28.58,3.73,8.5,7.56,17.75,8.04,27.17.51,9.42-2.09,18.86-3.14,27.72-.03.28.22.21.3-.06,1.52-4.97,3.07-9.97,4.11-15.1,1.05-5.12,1.53-10.43.9-15.67-.6-5.24-2.13-10.29-3.98-15.18-1.86-4.89-3.97-9.64-6.01-14.44-4.45-10.3-9.19-20.68-16.23-29.75-3.64-4.68-7.89-8.95-12.76-12.48-2.97-2.17-6.14-4.18-9.55-4.62-2.68-.32-2.25,1.94.3,3.03Z"/><path class="cls-1" d="M190.24,42.07c13.54,11.01,24.34,25.24,32.07,40.86,3.34,6.75,5.98,14.37,8.24,21.95,2.28,7.59,4.19,15.13,6.6,22.13.08.22.29.08.25-.15-1.99-16.98-6.91-33.44-14.73-48.69-4.22-8.2-9.25-16.01-15.1-23.19-1.54-1.84-3.05-3.72-4.73-5.44l-2.46-2.64c-.84-.86-1.72-1.68-2.58-2.52-2.08-2.11-4.21-4.12-6.79-5.15-2.04-.8-2.56,1.35-.75,2.84Z"/><path class="cls-1" d="M185.93,50.91c11.49,8.36,20.76,19.61,27.49,32.1,2.91,5.4,5.2,11.55,7.23,17.66,2.04,6.12,3.85,12.18,6.26,17.83.08.18.29.06.25-.13-2-13.86-6.39-27.2-13.19-39.47-3.67-6.6-8-12.85-13.03-18.54-1.32-1.46-2.62-2.94-4.06-4.29l-2.11-2.07c-.72-.67-1.47-1.31-2.21-1.97-1.78-1.65-3.59-3.25-5.84-3.85-1.77-.47-2.31,1.61-.78,2.74Z"/><path class="cls-1" d="M199.05,77.6c5.83,5.38,10.36,12.06,13.81,19.18,1.49,3.08,2.55,6.58,3.71,9.97,1.17,3.4,2.47,6.69,4.71,9.72.07.1.28.01.26-.09-1.6-7.74-3.91-15.21-7.3-22.36-1.83-3.84-3.93-7.58-6.41-11.1-.65-.9-1.29-1.82-2.01-2.67-.69-.88-1.4-1.74-2.14-2.57-.88-1.05-1.71-2.16-3.2-2.37-1.17-.17-2.21,1.59-1.43,2.31Z"/><path class="cls-1" d="M196.91,81.41c3.75,5.13,6.72,10.79,9.37,16.55,1.15,2.49,1.98,5.31,3.1,7.96,1.12,2.66,2.54,5.16,4.98,7.18.08.06.28-.04.25-.12-2.2-5.85-4.29-11.65-6.73-17.41-1.31-3.1-2.69-6.19-4.24-9.21-.81-1.56-1.68-3.09-2.57-4.6-.54-.94-.96-1.95-2.23-2.24-1-.23-2.43,1.2-1.93,1.89Z"/><path class="cls-1" d="M88.72,65.44c2.87.71,5.3,2.99,6.92,5.68,1.65,2.72,2.39,5.88,2.62,9.18.24,3.3.03,6.68-.08,10.15-.14,3.47-.05,7.03.34,10.52.33,3.01.79,6.13,1.5,9.24.72,3.1,1.59,6.23,3.05,9.22,1.44,2.96,3.59,5.78,6.42,7.47,2.76,1.71,6.18,2.25,8.75,1.21.16-.06.06-.28-.1-.27-3,.23-6.08-1.1-8.42-3.19-2.37-2.09-4.01-4.95-5.2-7.95-2.31-6.07-3.53-12.6-3.82-19.13-.17-3.52.08-7.02.3-10.61.2-3.57.33-7.27-.36-10.99-.71-3.9-2.54-7.66-5.52-10.55-.91-.89-1.95-1.69-3.1-2.24-1.13-.57-2.44-.77-3.63-.56-.96.22-1.2.86-1.06,1.46.15.63.64,1.12,1.39,1.34Z"/><path class="cls-1" d="M106.57,65.06c2.31.73,4.26,2.6,5.6,4.83,1.38,2.25,2.12,4.81,2.48,7.54.37,2.72.42,5.55.58,8.44.14,2.89.48,5.9,1.23,8.79,1.27,4.96,3.36,10.17,6.64,14.51,3.24,4.33,7.68,7.69,12.44,8.86.15.04.21-.19.09-.27-9.08-5.78-15.67-15.56-17.33-26.24-.95-5.72,0-11.7-1.39-17.9-.77-3.22-2.26-6.32-4.72-8.82-.75-.76-1.58-1.49-2.54-1.98-.94-.51-2.02-.74-3.06-.55-.83.17-1.09.8-1.03,1.41.07.63.41,1.14,1.02,1.36Z"/><path class="cls-1" d="M122.1,62.08c5.68,2.4,10.05,7.52,12.51,13.27,2.48,5.79,3.06,12.31,2.68,18.71-.32,5.55-1.78,11.38-2.97,17.23-1.2,5.83-2.05,11.85-1.09,17.38.03.17.26.12.28-.05,1.42-12.5,5.96-24.54,6.34-37.5.09-3.47-.09-6.98-.76-10.45-.63-3.46-1.83-6.88-3.55-10.02-1.8-3.25-4.19-6.23-7.17-8.6-1.8-1.46-3.82-2.83-6.09-2.76-1.76.08-1.66,2.22-.17,2.79Z"/><path class="cls-1" d="M141.25,65.75c2.19,2.23,3.86,4.99,4.98,7.98.57,1.49,1,3.04,1.31,4.62.32,1.58.53,3.18.62,4.79.38,6.46-.99,12.99-2.66,19.42-1.44,5.55-3.63,11.42-4.73,17.58-.55,3.07-.82,6.21-.59,9.25.21,3.03.98,5.97,2.27,8.45.08.16.28.03.25-.13-1.25-6.18-.57-12.67.81-18.89,1.38-6.26,3.49-12.35,5.13-18.67.88-3.4,1.65-6.86,2.06-10.4.44-3.53.47-7.18-.04-10.77-.53-3.72-1.65-7.42-3.54-10.8-1.13-2.06-2.5-4.14-4.65-4.97-1.68-.62-2.4,1.41-1.22,2.53Z"/><path class="cls-1" d="M157.25,73.83c-.05,10.77-.18,21.61.96,32.42.24,2.33.48,4.74.78,7.18.32,2.45.75,5.07,1.96,7.56.62,1.23,1.41,2.41,2.46,3.37,1.08,1,2.35,1.65,3.67,1.97,1.31.33,2.68.3,3.87-.11,1.19-.39,2.13-1.25,2.55-2.18.06-.11-.14-.24-.22-.17-1.52,1.48-4.25,1.45-6.32.34-2.14-1.05-3.54-3.23-4.36-5.56-.83-2.35-1.16-4.89-1.47-7.45-.31-2.55-.56-5.11-.71-7.69-.36-5.54-.36-11.1-.24-16.65.06-2.88.13-5.76.25-8.63.07-1.77.34-3.5-.51-5.11-.67-1.27-2.67-.77-2.67.69Z"/><path class="cls-1" d="M202.66,129.92c-3.98.38-8.02.52-11.68-.51-1.82-.51-3.5-1.32-4.9-2.48-1.41-1.15-2.46-2.66-3.24-4.37-1.54-3.43-2.04-7.5-2.53-11.5-.46-4.01-.67-8.08-.9-12.17-.38-7.02-.38-14.74-2.14-22.23-.86-3.72-2.15-7.36-4-10.58-1.82-3.23-4.24-6-6.99-7.94-.17-.13-.27.1-.14.26,2.51,2.88,4.51,6.23,5.99,9.8,1.5,3.57,2.51,7.34,3.21,11.17,1.41,7.67,1.47,15.54,1.82,23.44.19,4.26.44,8.54,1.04,12.81.29,2.14.69,4.31,1.4,6.45.71,2.13,1.77,4.26,3.39,6.02,1.67,1.82,3.84,3.15,6.11,3.97,2.28.81,4.63,1.16,6.94,1.32,2.84.18,5.62.21,7.98-.91,1.86-.9.78-2.76-1.37-2.54Z"/><path class="cls-1" d="M204.02,159.33c2.04-5.35,4.15-10.72,5.76-16.32,1.6-5.59,2.7-11.42,2.58-17.37-.1-5.09-.87-10.68-3.28-15.65-1.19-2.47-2.8-4.74-4.76-6.52-1.95-1.78-4.25-3.06-6.62-3.58-.15-.04-.21.19-.09.27,4.53,2.76,7.91,7.26,9.88,12.25,2,5,2.74,10.49,2.39,15.87-.39,5.83-1.93,11.51-3.89,17.02-1.02,2.86-2.12,5.7-3.3,8.52-.73,1.73-1.63,3.36-1.44,5.27.15,1.5,2.21,1.7,2.76.25Z"/><path class="cls-1" d="M217.56,180.27c-2.34.32-4.86-.78-6.76-2.51-.96-.86-1.79-1.89-2.43-3-.63-1.09-1.11-2.39-1.46-3.67-1.38-5.23-.8-11.11-1.19-16.96-.25-5.03-.46-10.44-1.36-15.69-.89-5.24-2.5-10.31-5.32-14.43-.09-.13-.28,0-.24.14,3.07,10.64,4.47,21.67,4.58,32.76.04,2.98-.1,5.98.03,9.06.14,3.06.57,6.25,1.89,9.26,1.44,3.15,3.88,5.83,7.15,7.38,1,.48,2.08.86,3.19.94,1.1.11,2.24-.14,3.12-.76.69-.53.64-1.21.31-1.72-.35-.54-.88-.83-1.5-.78Z"/><path class="cls-1" d="M58.72,112.55c-.29-2.24-.33-4.51-.11-6.78.2-2.26.6-4.52,1.21-6.72,1.19-4.42,3.06-8.65,5.3-12.69.96-1.74,2.1-3.46,3.32-5.16,1.22-1.72,2.44-3.39,3.76-4.69.66-.65,1.35-1.2,2.08-1.63.39-.21.71-.39,1.1-.52.39-.13.8-.24,1.23-.29.87-.12,1.8-.09,2.73.17.93.26,1.88.82,2.61,1.82.1.12.29,0,.24-.14-.43-1.39-1.5-2.44-2.66-3.01-1.17-.59-2.45-.8-3.7-.72-2.61.2-4.63,1.82-6.2,3.51-1.58,1.75-2.82,3.65-4.11,5.54-1.28,1.89-2.46,3.87-3.58,5.88-2.38,4.35-4.43,8.96-5.6,13.9-.6,2.55-.99,5.19-1.06,7.85-.06,1.63-.18,3.29.88,4.63.82,1.04,2.72.23,2.57-.96Z"/><path class="cls-1" d="M62.3,70.62c-3.06,1.79-5.52,4.42-7.29,7.33-.91,1.45-1.67,2.97-2.31,4.54-.65,1.56-1.19,3.15-1.63,4.77-.89,3.24-1.41,6.52-1.69,9.85-.27,3.32-.21,6.7.27,10.04.44,2.87,1.09,5.85,2.26,8.72,1.13,2.89,2.82,5.64,4.93,7.96,2.13,2.3,4.71,4.19,7.53,5.28,2.79,1.14,5.82,1.36,8.41.75.16-.03.1-.26-.06-.28-1.47-.09-2.94-.39-4.36-.83-1.42-.45-2.78-1.1-4.09-1.85-2.59-1.54-4.87-3.61-6.72-6.01-3.75-4.81-5.49-10.93-5.77-17.01-.14-3.29.1-6.59.65-9.84.54-3.26,1.37-6.42,2.59-9.41,1.26-3.08,2.93-6,5.19-8.24,1.41-1.4,2.97-2.27,4.15-3.83.48-.62.42-1.34.01-1.78-.4-.44-1.22-.62-2.06-.15Z"/><path class="cls-1" d="M53.85,66.74c-9.99,6.87-16.31,18.3-17.51,30.23-.55,5.12-.52,10.73.76,16.03,1.25,5.28,3.74,10.19,7.42,13.53.11.11.28-.06.21-.19-5.36-9.52-7.66-20.93-5.61-31.71,1.1-5.78,3.54-11.25,6.94-15.92,1.77-2.42,3.78-4.65,6.04-6.55,1.44-1.14,2.92-2.04,3.86-3.63.74-1.3-.73-2.72-2.12-1.79Z"/><path class="cls-1" d="M175.13,29.2c-3.76-2.2-7.95-3.27-12.06-3.91-4.14-.61-8.22-.83-12.34-.98-8.2-.24-16.67.28-24.64,3.15-3.42,1.23-6.83,2.91-10.03,4.92-3.21,2.01-6.21,4.32-9.07,6.69-5.73,4.77-10.76,9.65-16.05,14.08-.17.15.03.29.22.19,7.14-3.68,12.99-8.98,19.08-13.78,3.05-2.4,6.17-4.72,9.53-6.61,3.35-1.9,6.92-3.37,10.66-4.28,8.07-2.03,16.5-1.89,24.81-1.2,4.31.36,8.59.84,12.55,2.11,2.46.78,4.52,1.96,6.88,2.47.93.22,1.57-.15,1.71-.76.14-.59-.22-1.51-1.25-2.09Z"/><path class="cls-1" d="M211.78,74.78c-.74-9.06-2.64-18.25-7.12-26.42-2.19-4.09-5.14-7.81-8.61-10.94-3.5-3.1-7.5-5.57-11.72-7.47-3.62-1.63-7.56-3.05-11.77-3.75-4.21-.73-8.66-.55-12.8.38-4.16.92-8.05,2.53-11.55,4.48-3.51,1.95-6.64,4.24-9.45,6.7-.18.16.03.29.23.18,3.77-2.09,7.54-4.13,11.46-5.8,3.91-1.69,7.99-3,12.18-3.62,2.1-.29,4.21-.38,6.32-.29,2.11.11,4.2.45,6.25.97,4.11,1.03,8.06,2.72,11.75,4.82,3.97,2.28,7.58,5.15,10.48,8.61,2.89,3.47,5.16,7.43,6.79,11.65,1.73,4.36,2.84,8.97,3.51,13.63.42,2.88.44,5.71,1.46,8.29.81,2.05,2.74,1.08,2.59-1.4Z"/><path class="cls-1" d="M251.87,116.54c.96-3.93,1.91-7.91,2.5-11.98.32-2.03.5-4.09.62-6.17.05-2.08.08-4.17-.17-6.26-.22-2.09-.6-4.18-1.25-6.21-.61-2.03-1.48-4-2.54-5.85-2.11-3.71-5.03-6.85-8.23-9.52-2.76-2.3-5.8-4.41-8.99-6.32-3.19-1.91-6.51-3.61-9.79-5.22-6.61-3.21-12.95-6-19.01-9.2-.19-.1-.26.14-.1.27,6.04,5.19,13.13,8.58,19.99,12.08,6.87,3.46,13.69,7.25,19.02,12.72,2.83,2.94,5.18,6.34,6.49,10.13.68,1.88,1.16,3.84,1.4,5.83.28,1.99.34,4.01.27,6.02-.14,4.19-.87,8.38-1.85,12.53-.6,2.56-1.47,5-1.22,7.53.19,2,2.32,1.72,2.86-.41Z"/><path class="cls-1" d="M222.58,72.54c2.7,3.09,6.33,5.02,9.96,6.28,3.65,1.28,7.43,1.97,11.1,2.55,3.66.6,7.26,1.21,10.64,2.33,3.37,1.1,6.46,2.8,8.75,5.29,1.98,2.15,3.38,4.99,4.38,8.03,1,3.06,1.68,6.27,2.12,9.49.87,6.47.75,12.87.63,19.21,0,.2.24.17.29-.02,1.94-7.03,2.33-14.39,1.2-21.52-.59-3.56-1.49-7.07-2.91-10.43-1.42-3.34-3.54-6.56-6.56-8.82-3.21-2.47-7.05-3.87-10.84-4.85-3.8-.99-7.68-1.55-11.35-2.35-3.81-.84-7.56-1.96-10.71-3.89-1.95-1.22-3.37-2.69-5.25-3.79-.75-.44-1.47-.3-1.82.21-.34.48-.36,1.44.39,2.26Z"/><path class="cls-1" d="M231.36,147.8c3.65-10.15,7.66-20.45,8.88-31.52.52-4.73.86-9.92-.05-14.96-.87-5.01-3.12-9.83-6.76-12.76-.11-.09-.27.08-.2.19,2.63,4.33,4.17,9.32,4.78,14.39.62,5.08.36,10.26-.52,15.32-.95,5.47-2.63,10.77-4.53,15.99-.99,2.71-2.02,5.41-3.1,8.09-.67,1.65-1.5,3.21-1.24,5.02.2,1.43,2.26,1.61,2.75.24Z"/><path class="cls-1" d="M219.14,122.4c2.94-8.94,4.61-18.35,4.42-27.8-.08-4.06-.18-8.45-1.09-12.67-.89-4.2-2.58-8.22-5.49-11.13-.09-.09-.28.04-.23.15,3.38,8.12,4.72,17.01,4.38,25.81-.18,4.75-.89,9.45-1.97,14.03-.29,1.19-.55,2.38-.9,3.54-.32,1.18-.66,2.34-1.06,3.49-.45,1.43-1.16,2.72-.76,4.29.31,1.25,2.32,1.5,2.71.28Z"/><path class="cls-1" d="M198.7,88.22c1.18-10.07,1.49-20.24.2-30.38-.32-2.19-.68-4.49-1.35-6.8-.67-2.3-1.64-4.6-3.11-6.63-1.45-2.01-3.37-3.69-5.55-4.7-2.16-1.02-4.61-1.25-6.61-.6-.13.04-.09.26.03.28,2.21.14,4.39,1.03,6.25,2.38,1.86,1.35,3.43,3.13,4.6,5.13,2.37,4.04,3.21,8.82,3.58,13.55.38,5.14.33,10.3-.03,15.42-.18,2.65-.42,5.3-.77,7.93-.22,1.62-.63,3.17.03,4.74.53,1.25,2.56,1.04,2.73-.32Z"/><path class="cls-1" d="M181.33,80.94c1.67-2.03,2.49-4.51,2.85-6.89.36-2.4.33-4.77.12-7.09-.43-4.58-1.26-9.12-2.59-13.52-1.11-3.79-2.42-7.87-4.4-11.58-1.99-3.68-4.72-6.94-8.29-8.79-.11-.06-.25.12-.18.21,5.44,6.57,9.12,14.52,11.07,22.84,1.03,4.47,1.59,9.13,1.58,13.59-.05,2.29-.33,4.56-1.15,6.49-.51,1.22-1.27,2.01-1.42,3.43-.07.57.26,1.18.75,1.51.48.32,1.2.36,1.64-.2Z"/><path class="cls-1" d="M163.88,73.52c3.02-5.01,3.71-11.07,2.66-16.63-1.02-5.57-3.78-10.88-7.86-14.84-3.43-3.44-7.81-6.51-12.61-8.23-4.78-1.75-9.91-2.19-14.37-.84-.14.04-.09.27.05.28,5.07.26,10.12,1.34,14.78,3.36,4.65,2.01,8.9,5.02,12.07,8.94,3.39,4.19,5.23,9.53,5.4,14.77.08,2.72-.28,5.42-1.19,7.91-.15.38-.33.74-.49,1.1l-.23.55c-.09.17-.18.35-.26.53-.16.35-.29.72-.37,1.11-.12.37-.2.76-.22,1.2-.08,1.39,1.77,2.19,2.64.81Z"/><path class="cls-1" d="M147.93,68.96c-.35-3.62-1.43-7.15-3.16-10.34-1.74-3.18-4.16-6.03-7.15-8.15-2.54-1.83-5.56-3.55-8.86-4.18-3.26-.64-6.78-.11-9.16,2.08-.08.07,0,.28.09.26,6.16-1.47,13.04.5,17.72,4.76,2.54,2.29,4.41,5.21,5.61,8.32.62,1.61,1.1,3.27,1.34,4.95.13,1.05.05,2.04.96,2.95.74.73,2.71.36,2.62-.65Z"/><path class="cls-1" d="M132.34,63.65c-1.95-3.12-4.74-5.57-7.84-7.31-3.1-1.75-6.55-2.86-10.04-3.33-5.96-.88-12.97-1.31-17.88,2.87-.08.07,0,.28.08.26,6.29-1.26,12.78-1.89,18.96-.46,3.29.76,6.39,2.22,8.98,4.18,1.34,1.02,2.56,2.16,3.54,3.46.59.83.95,1.68,2.14,2.06.98.3,2.6-.85,2.07-1.74Z"/><path class="cls-1" d="M91.15,59.18c-3.06.75-6.16,1.45-9.23,2.43-3.07.98-6.11,2.22-8.9,4.04-2.38,1.54-4.96,3.39-6.72,5.96-1.76,2.51-2.55,5.86-1.2,8.59.04.08.26.08.27,0,.25-2.83,1.53-5.57,3.37-7.82,1.84-2.26,4.22-4.09,6.81-5.43,2.81-1.45,5.87-2.36,8.96-3.06,1.61-.37,3.22-.71,4.86-1,1.01-.17,2.04-.17,2.76-1.22.57-.83-.16-2.71-.99-2.51Z"/><path class="cls-1" d="M126,26.57c3.56-5.82,8.68-10.69,14.59-14.14,5.92-3.45,12.64-5.48,19.44-5.78,5.89-.3,12.15,1.06,17.92,3.25,5.81,2.19,11.14,5.1,16.48,8.01.17.09.26-.13.12-.26-5.04-4.81-11.06-8.42-17.55-10.7-6.48-2.27-13.47-3.22-20.4-2.5-7.46.78-14.73,3.47-21,7.71-3.25,2.2-6.22,4.84-8.84,7.82-1.55,1.85-3.21,3.68-3.53,6.02-.29,1.81,1.85,2.12,2.77.56Z"/><path class="cls-1" d="M201.56,35.66c6.72-1.08,13.72.84,19.49,4.37,2.52,1.53,4.75,3.76,6.87,5.95,2.14,2.21,4.21,4.35,7.04,6.34.09.06.27-.07.22-.15-3.31-6.3-8.24-11.47-14.31-15.1-3.27-1.94-6.85-3.45-10.66-4.25-.99-.19-1.98-.4-2.99-.47l-1.52-.14c-.51-.03-1.02-.02-1.53-.03-1.25-.06-2.53-.1-3.5.91-.75.79,0,2.7.87,2.57Z"/><path class="cls-1" d="M54.49,108.32c-.37-5.79-.37-11.62.74-17.19.56-2.78,1.39-5.48,2.61-7.98,1.22-2.48,2.83-4.79,4.79-6.67,3.39-3.32,8.32-5.24,13.21-5.98,4.96-.75,9.84-.51,14.98.28.17.02.2-.21.05-.27-5.3-2.64-11.33-3.23-16.98-2.15-5.64,1.09-11.05,3.91-14.88,8.42-4.12,4.83-6.29,11.05-7.22,17.21-.49,3.21-.67,6.45-.71,9.66-.02,1.97-.18,3.92.8,5.63.77,1.35,2.72.62,2.61-.95Z"/><path class="cls-1" d="M57.11,98.07c-.87-3.61.25-7.53,2.13-10.93,1.9-3.43,4.57-6.51,7.45-9.25,1.24-1.16,2.65-2.17,4.16-2.92,1.49-.75,3.11-1.24,4.76-1.57,1.66-.33,3.34-.5,5.07-.59,1.74-.1,3.52-.11,5.49-.1.13,0,.18-.22.07-.26-3.86-1.75-8.16-2.12-12.17-1.21-2,.46-3.95,1.27-5.68,2.38-1.74,1.1-3.31,2.44-4.77,3.84-3.14,3.03-6.07,6.41-8.08,10.52-1.02,2.13-1.72,4.49-1.91,6.98-.1,1.5-.19,3.15,1.03,4.25.92.84,2.7-.24,2.46-1.14Z"/><path class="cls-1" d="M41.95,103.39c-.53-5.84.25-11.82,2.3-17.3,2.04-5.47,5.41-10.46,9.85-14.14,3.82-3.21,8.91-5.27,13.99-6.29,5.14-1.04,10.22-1.15,15.57-.84.17,0,.18-.23.02-.28-5.71-2.14-11.91-2.28-17.69-.93-5.78,1.37-11.24,4.2-15.61,8.37-4.69,4.48-8.09,10.28-10,16.52-.99,3.24-1.57,6.61-1.79,10-.1,2.08-.31,4.19.78,5.96.82,1.38,2.73.49,2.57-1.06Z"/><path class="cls-1" d="M46.22,101.43c.08-4.52.36-9.01,1.34-13.3.96-4.28,2.71-8.32,5.53-11.47,2.42-2.75,5.99-4.59,9.58-6.24,3.61-1.66,7.34-3.27,10.46-5.94.1-.08-.02-.28-.13-.24-4.17,1.37-8.4,2.63-12.44,4.48-4.02,1.82-7.89,4.36-10.69,8.01-3.04,3.9-4.76,8.66-5.72,13.41-.5,2.47-.79,4.97-1.02,7.44-.14,1.52-.43,3.01.4,4.4.66,1.09,2.66.68,2.68-.54Z"/><path class="cls-1" d="M53.54,74.16c-1.73,2.03-2.72,4.43-3.42,6.75-.7,2.35-1.17,4.63-1.65,6.96-.93,4.64-1.55,9.38-1.57,14.18-.03,4.11.02,8.62,1.25,12.9,1.17,4.25,3.55,8.22,7.08,10.35.11.07.26-.1.19-.2-2.55-3.53-4.32-7.65-5.23-11.96-.9-4.31-1.13-8.77-.79-13.2.35-4.77,1.28-9.48,2.5-14.09.62-2.4,1.27-4.75,2.3-6.77.66-1.26,1.5-2.12,1.72-3.58.1-.58-.22-1.2-.71-1.53-.48-.33-1.21-.36-1.68.19Z"/><path class="cls-1" d="M51.32,68.46c-1.91.23-3.81.6-5.66,1.25-1.84.65-3.64,1.59-5.16,2.91-1.3,1.11-2.78,2.42-3.53,4.17-.75,1.71-.7,3.77.89,5.39.05.05.27.06.27.01-.04-1.64.38-3.28,1.2-4.71.81-1.43,2.01-2.63,3.39-3.5,1.49-.94,3.19-1.49,4.89-1.8.44-.09.88-.16,1.32-.21.44-.07.89-.1,1.33-.12.55-.05,1.09.17,1.52-.76.35-.73.08-2.7-.45-2.63Z"/><path class="cls-1" d="M47.09,66.43c-4.41,1.57-8.29,4.52-10.77,8.47-1.06,1.68-2.25,3.56-2.66,5.69-.43,2.09,0,4.43,1.9,5.97.06.05.28,0,.27-.05-.8-3.88.59-8.06,3.09-11.11,1.35-1.66,3.04-3,4.83-4.01.47-.25.92-.53,1.41-.73.48-.23.95-.44,1.46-.59.61-.24,1.25-.17,1.55-1.2.25-.82-.45-2.67-1.07-2.45Z"/><path class="cls-1" d="M52.46,69.36c-3.25,2.58-6.41,5.29-9.41,8.17-2.98,2.9-5.87,5.88-8.41,9.3-2.15,2.92-4.45,6.35-5.29,10.35-.42,1.97-.46,4.03,0,5.93.46,1.9,1.45,3.62,2.86,4.76.09.07.27-.06.23-.15-1.58-3.34-1.57-7.4-.46-11.03,1.1-3.67,3.26-6.95,5.77-9.89,2.74-3.16,5.85-6.04,9.04-8.75,1.66-1.4,3.33-2.78,5.07-4.08,1.07-.8,2.23-1.42,2.66-2.84.34-1.13-1.17-2.48-2.06-1.78Z"/><path class="cls-1" d="M111.86,62.87c1.39-.07,2.88.6,4.18,1.63,1.32,1.04,2.42,2.36,3.44,3.84,2.04,2.92,3.58,6.18,4.62,9.59.9,2.95,1.17,6.24,1.35,9.45.19,3.23.39,6.36,1.33,9.79.03.11.26.12.27.02.67-3.63.98-7.28.77-10.91-.18-3.63-.8-7.24-1.93-10.75-.27-.95-.66-1.87-.99-2.81-.4-.91-.76-1.84-1.23-2.73-.87-1.81-1.93-3.5-3.13-5.17-1.3-1.7-2.89-3.3-5.03-4.4-.66-.33-1.36-.65-2.13-.74-.75-.1-1.54.04-2.16.55-.49.41-.46,1.09-.25,1.64.22.57.54.98.9.98Z"/><path class="cls-1" d="M114.93,61.02c3.96,1.12,7.39,3.91,9.84,7.34,2.48,3.45,4.07,7.48,4.85,11.7.71,3.65.55,7.68.5,11.65-.05,3.98.06,8.01,1.4,11.83.04.12.27.09.27-.03.26-4.31.66-8.61.78-12.94.12-4.33-.05-8.71-.98-13.04-1.02-4.67-3-9.21-6.14-13.02-1.63-1.97-3.61-3.69-5.87-5.05-1.39-.78-2.85-1.68-4.49-1.16-1.25.37-1.17,2.45-.15,2.72Z"/><path class="cls-1" d="M133.76,61.42c5.08,7.87,7.61,17.25,8.01,26.58.18,4.04-.4,8.33-1.04,12.51-.64,4.2-1.31,8.29-1.24,12.62,0,.14.23.17.27.04,3.31-8.82,4.83-18.12,4.35-27.53-.27-5.06-1.09-10.12-2.62-15.01-.42-1.26-.81-2.54-1.34-3.76l-.76-1.85c-.27-.61-.57-1.2-.86-1.81-.67-1.5-1.36-3-2.86-3.78-1.18-.61-2.57.93-1.9,1.98Z"/><path class="cls-1" d="M147.16,52.52c2.64,4.82,4.14,10.25,4.87,15.77.74,5.54.77,11.17.56,16.82-.17,4.87-.87,10.1-.99,15.32-.12,5.21.4,10.49,2.52,14.94.07.14.28.05.26-.1-1.28-10.82.24-21.71.74-32.72.26-5.95.24-11.97-.72-17.97-.5-3.11-1.28-6.19-2.35-9.19-.69-1.82-1.28-3.73-2.93-4.83-1.26-.87-2.68.69-1.96,1.96Z"/><path class="cls-1" d="M171.52,111.83c-1.13-3.76-.41-8.01.37-12.23.84-4.27,1.39-8.8,1.24-13.24-.09-3.84-.3-7.99-1.4-11.95-.55-1.98-1.38-3.94-2.62-5.58-1.23-1.64-2.92-2.93-4.75-3.37-.11-.03-.22.17-.14.24,1.5,1.2,2.68,2.85,3.54,4.66.87,1.81,1.46,3.78,1.89,5.78.88,4.01,1.21,8.15,1.04,12.26-.1,2.21-.34,4.42-.74,6.59-.39,2.17-.94,4.33-1.39,6.58-.47,2.33-.84,4.75-.78,7.29.02,1.54.09,3.23,1.37,4.31,1,.82,2.69-.4,2.37-1.33Z"/><path class="cls-1" d="M168.89,116.45c-2.73-2.96-4.05-7.14-4.35-11.31-.31-4.19.38-8.49,1.14-12.82.65-3.73,1.8-7.77,1.92-11.98.06-2.09-.13-4.22-.74-6.19-.59-1.97-1.65-3.78-3.07-5.1-.09-.08-.27.05-.23.15,1.64,3.74,1.92,8.03,1.55,12.19-.36,4.19-1.37,8.31-2.19,12.52-.89,4.52-1.65,9.26-.99,14.11.34,2.49,1.05,4.99,2.24,7.32.71,1.42,1.55,2.92,3.18,3.34,1.27.31,2.25-1.52,1.54-2.24Z"/><path class="cls-1" d="M200.18,125.47c-4.25-4.98-6.49-11.51-7.8-18.1-1.33-6.63-1.83-13.53-3.3-20.41-.62-2.96-1.39-6.04-2.5-9.08-1.13-3.02-2.59-5.99-4.4-8.68-1.82-2.69-3.97-5.13-6.4-7.09-2.43-1.96-5.1-3.46-7.85-4.33-.17-.06-.22.18-.08.27,5.41,3.56,9.98,8.44,13.29,14.04,1.64,2.81,3,5.79,3.98,8.9,1,3.1,1.65,6.32,2.16,9.57,1.11,7,1.42,14.19,3.12,21.32.87,3.69,2.13,7.34,3.95,10.79,1.11,2.1,2.35,4.24,4.45,5.25,1.64.77,2.53-1.18,1.39-2.45Z"/><path class="cls-1" d="M197.19,127.67c-3.75-4.07-6-9.4-7.41-14.9-1.44-5.53-2.11-11.27-3.01-17.08-.78-4.99-1.51-10.49-3.56-15.63-1.02-2.56-2.38-5-4.14-7.03-1.75-2.03-3.88-3.64-6.19-4.52-.14-.06-.23.16-.12.25,4.2,3.44,6.99,8.41,8.72,13.63,1.75,5.25,2.59,10.78,3.26,16.33.73,6.01,1.39,12.1,3.15,18.08.91,3.09,2.16,6.14,3.84,9,1.07,1.71,2.1,3.55,4.04,4.24,1.47.56,2.41-1.34,1.42-2.38Z"/><path class="cls-1" d="M196.35,131.66c-2.42-.75-4.47-2.67-5.99-4.97-1.56-2.31-2.6-4.95-3.44-7.73-1.7-5.53-2.48-11.35-3.11-17.22-.56-5.06-.67-10.58-1.63-16-.95-5.39-2.87-10.74-6.36-14.44-.11-.12-.28.04-.22.18,2.34,5.08,3.69,10.63,4.43,16.24.78,5.62,1.1,11.3,1.66,17.03.29,3.08.66,6.18,1.22,9.26.51,3.09,1.33,6.13,2.35,9.17,1.15,3.13,2.79,6.19,5.35,8.72.79.76,1.64,1.51,2.64,2,.97.51,2.09.75,3.15.56.85-.17,1.12-.8,1.04-1.41-.08-.64-.45-1.14-1.08-1.37Z"/><path class="cls-1" d="M208.74,135.86c-1.98-1.92-3.45-4.37-4.53-6.99-1.08-2.63-1.74-5.46-2.15-8.33-.8-5.76-.58-11.75-1.17-17.85-.46-5.25-1.54-11-3.96-16.11-2.39-5.1-6.09-9.54-10.64-11.88-.14-.08-.25.13-.15.24,3.96,4.01,7.09,8.85,9.21,14.11,1.07,2.62,1.85,5.36,2.4,8.13.55,2.78.78,5.61.91,8.47.26,6.15-.13,12.43,1.11,18.79.64,3.27,1.7,6.53,3.43,9.54,1.03,1.83,2.28,3.7,4.28,4.35,1.57.48,2.3-1.51,1.26-2.48Z"/><path class="cls-1" d="M208.11,139.35c2.59-10.96,4.31-22.39,3-33.82-.55-4.89-1.4-10.19-3.36-15.08-1.93-4.87-5.02-9.29-9.13-11.81-.13-.08-.26.11-.17.22,3.34,4.08,5.85,8.84,7.55,13.86,1.71,5.02,2.64,10.31,2.91,15.62.29,5.74-.22,11.47-1.16,17.11-.49,2.93-1.07,5.84-1.78,8.72-.45,1.77-1.07,3.45-.64,5.26.35,1.44,2.41,1.4,2.77-.1Z"/><path class="cls-1" d="M204.56,162.73c-.93-4.58-.64-9.4.12-14.15.75-4.77,1.95-9.51,2.83-14.41.75-4.21,1.63-8.83,1.28-13.51-.17-2.32-.67-4.64-1.6-6.72-.93-2.08-2.29-3.9-4-5.16-.1-.08-.27.08-.21.19,2.41,3.85,3.4,8.52,3.45,13.13.06,4.64-.71,9.28-1.75,13.85-1.12,4.95-2.52,9.87-3.29,15.03-.4,2.67-.6,5.4-.53,8.17.08,1.69.03,3.44,1.23,4.75.91,1.02,2.74.03,2.48-1.17Z"/><path class="cls-1" d="M202.18,149.89c2.34-6.44,3.84-13.23,3.9-20.12.02-2.95.12-6.16-.5-9.25-.61-3.07-1.94-6.01-4.46-7.99-.08-.06-.27.05-.24.13,2.44,5.84,3.23,12.3,2.72,18.61-.27,3.41-.96,6.76-1.9,10-.25.84-.48,1.68-.77,2.51-.27.83-.55,1.65-.88,2.46-.37,1.01-.98,1.88-.5,3.11.37.98,2.32,1.43,2.64.54Z"/><path class="cls-1" d="M223.31,149.37c3.37-12.75,9.16-25.04,11.27-38.59.9-5.79,1.43-12.21.26-18.44-.58-3.1-1.59-6.12-3.1-8.77-1.5-2.65-3.47-4.93-5.77-6.51-.14-.1-.26.1-.16.23,3.94,4.84,6.15,10.99,6.92,17.24.78,6.27.26,12.68-1.09,18.88-1.48,6.71-3.85,13.17-6.24,19.66-1.24,3.36-2.47,6.75-3.65,10.17-.71,2.11-1.58,4.15-1.24,6.32.25,1.7,2.36,1.53,2.81-.18Z"/><path class="cls-1" d="M224.92,134.97c1.57-6.95,3.19-13.93,4.31-21.05,1.11-7.11,1.71-14.37,1.19-21.65-.44-6.24-1.48-13.02-4.11-19.2-1.3-3.08-3-5.99-5.07-8.47-2.07-2.48-4.51-4.52-7.15-5.88-.16-.09-.25.14-.12.26,4.93,4.53,8.53,10.45,10.8,16.79,2.28,6.36,3.32,13.15,3.37,19.92.05,7.32-1.02,14.6-2.5,21.76-.77,3.72-1.62,7.43-2.56,11.13-.58,2.28-1.33,4.46-.97,6.72.29,1.79,2.39,1.54,2.81-.34Z"/><path class="cls-1" d="M221.09,139.01c4.59-12.39,7.13-25.58,7.05-38.84-.05-5.7-.27-11.85-1.46-17.78-1.15-5.89-3.43-11.71-7.32-15.65-.12-.12-.28.05-.2.2,2.86,5.44,4.48,11.51,5.44,17.64,1.01,6.13,1.32,12.37,1.06,18.59-.14,3.35-.46,6.69-.97,10-.47,3.31-1.16,6.59-1.95,9.83-.81,3.36-1.82,6.67-2.94,9.93-.37,1-.78,1.96-1.06,2.95-.31.98-.52,1.96-.45,3.01.11,1.67,2.18,1.81,2.8.12Z"/><path class="cls-1" d="M209.82,121.75c3.45,1.26,6.87,2.61,10.28,3.97,3.44,1.36,6.64,2.68,8.92,5.12,1.01,1.03,1.89,2.31,2.69,3.67.8,1.35,1.51,2.76,2.16,4.17,1.24,2.75,2.41,5.35,3.94,8.77.05.1.27.07.27-.03.1-3.77-.9-7.35-2.4-10.62-.76-1.64-1.66-3.2-2.66-4.7-1.01-1.5-2.16-2.94-3.55-4.19-1.51-1.36-3.25-2.4-5.01-3.28-1.77-.88-3.51-1.64-5.24-2.43-1.81-.8-3.62-1.59-5.43-2.39-1.11-.49-2.14-1.14-3.48-.72-1.06.33-1.42,2.32-.49,2.66Z"/><path class="cls-1" d="M209.18,132.09s-.11-.03-.14-.06l-.77,1.03c2.47.27,4.91,1.19,7.29,2.3,2.39,1.14,4.8,2.36,7.06,3.65,2.01,1.16,3.82,2.79,5.53,4.3.85.77,1.68,1.52,2.61,2.25.91.75,1.9,1.51,3.12,2.38.08.05.28-.04.24-.12-1.09-2.67-2.81-4.93-4.84-6.76-2.01-1.86-4.26-3.4-6.57-4.83-2.52-1.51-4.97-2.99-7.64-4.32-1.39-.68-2.86-1.26-4.41-1.71-.64-.2-1.3-.42-1.96-.32l-1.3.21-.26.42c-.5.81-.34,1.66.1,2.16.29.32.65.35.92.23.27-.12.47-.36.68-.57l.16-.14.09-.07s.03-.02.05-.03c.04-.02.1-.02.05-.02Z"/><path class="cls-1" d="M208.61,140.77c3.59.54,6.98,1.96,10.18,3.61,1.39.71,2.66,1.83,4.07,2.64,1.43.82,3.02,1.32,5.36,1,.07-.01.2-.19.16-.22-3.1-2.06-6.05-4.13-9.26-6.01-1.72-1.01-3.5-1.98-5.36-2.78-.97-.41-1.96-.77-2.97-1.09-.61-.21-1.21-.56-1.94.19-.57.59-.72,2.59-.24,2.66Z"/><path class="cls-1" d="M204.22,144.23c1.38,1.71,3.16,2.92,4.99,3.78,1.83.87,3.75,1.43,5.62,1.82,1.61.34,3.22.93,4.8,1.19,1.61.27,3.1.15,5.33-.68.07-.03.15-.23.1-.25-3.6-1.36-7.16-1.78-10.56-2.85-1.8-.56-3.51-1.36-4.93-2.36-.74-.52-1.41-1.07-1.95-1.7-.33-.41-.44-.86-1.41-.74-.8.09-2.38,1.28-1.99,1.78Z"/><path class="cls-1" d="M205.64,143.4c2.07,1.1,4.27,1.38,6.26,1.57,2,.18,3.9.26,5.59.63,1.47.31,2.81,1.22,4.16,1.96,1.38.76,2.81,1.31,5.22,1.6.08,0,.24-.14.2-.18-2.76-2.92-6.09-5.06-10.01-5.96-2.07-.47-4.15-.69-6.01-1.1-.97-.21-1.88-.44-2.66-.82-.49-.25-.78-.62-1.64-.13-.71.38-1.72,2.09-1.12,2.43Z"/><path class="cls-1" d="M207.89,118.07c1.86,1.05,3.8,1.96,5.79,2.72,1.99.77,4.1,1.3,6,1.84,1.93.55,3.63,1.23,5.18,2.3,1.55,1.05,2.93,2.37,4.15,3.85,2.11,2.58,3.52,5.96,4.96,9.25.72,1.67,1.51,3.28,2.21,4.83.7,1.57,1.39,3.13,1.65,5.15.02.13.24.14.27.03.6-2.19.27-4.36-.27-6.31-.56-1.96-1.29-3.79-2.05-5.64-1.55-3.66-3.43-7.26-6.18-10.33-1.47-1.65-3.22-3.11-5.23-4.2-2.01-1.14-4.19-1.74-6.17-2.39-2.05-.65-4-1.42-5.86-2.4-1.15-.61-2.12-1.4-3.58-1.26-1.16.09-1.9,1.99-.88,2.57Z"/><path class="cls-1" d="M185.98,82.6c2.83,3.83,4.51,8.48,5.62,13.25,1.14,4.79,1.75,9.73,2.66,14.73.79,4.29,1.55,9.02,3.49,13.4.96,2.17,2.23,4.24,3.83,5.93,1.59,1.69,3.52,2.99,5.58,3.63.13.04.22-.17.13-.25-3.64-2.89-6.17-7.06-7.81-11.49-1.66-4.45-2.54-9.17-3.2-13.93-.72-5.14-1.25-10.37-2.56-15.56-.68-2.69-1.6-5.35-2.83-7.91-.78-1.55-1.49-3.21-3.16-3.92-1.28-.57-2.5,1.13-1.74,2.12Z"/><path class="cls-1" d="M195.89,103.41c2.67,4.51,4.91,9.22,6.56,14.03.71,2.08,1,4.4,1.45,6.61.45,2.23,1.09,4.33,2.66,6.68.05.07.27.06.27-.01.03-5.27-.94-10.3-2.46-15.24-.82-2.65-1.76-5.28-2.83-7.84-.55-1.33-1.17-2.62-1.77-3.92-.37-.8-.58-1.66-1.73-1.92-.91-.21-2.51,1-2.15,1.61Z"/><path class="cls-1" d="M181.47,121.14c-1.72-1.84-2.87-4.26-3.53-6.82-.68-2.56-.85-5.27-.82-8.02.03-2.76.25-5.56.34-8.43.08-2.88,0-5.78-.28-8.66-.5-4.94-1.25-10.29-3.06-15.25-1.76-4.96-4.57-9.5-8.42-12.48-.12-.09-.27.08-.19.2,2.94,4.47,5.21,9.38,6.8,14.5,1.56,5.13,2.44,10.47,2.63,15.83.1,2.9-.04,5.76-.29,8.68-.23,2.91-.5,5.88-.4,8.93.1,3.16.68,6.4,2,9.45.42.93.87,1.87,1.48,2.67.61.8,1.39,1.46,2.35,1.79.77.25,1.33-.14,1.6-.69.27-.56.24-1.21-.21-1.71Z"/><path class="cls-1" d="M162.02,108.4c-1.19-8.69.15-17.6.32-26.67.07-3.9.27-8.17-.49-12.34-.73-4.13-2.53-8.19-5.69-10.64-.1-.08-.27.07-.22.17,2.03,3.67,3.17,7.82,3.69,12.03.53,4.22.48,8.51.19,12.79-.3,4.62-.89,9.24-1.2,13.93-.16,2.43-.21,4.89-.17,7.36.04,1.52-.07,3.05.99,4.3.82.97,2.73.21,2.56-.94Z"/><path class="cls-1" d="M167.4,111.46c-.31-3.93.1-7.93.7-11.94.59-4.01,1.37-8.05,1.75-12.23.33-3.58.71-7.53-.02-11.41-.36-1.93-1.01-3.81-2.01-5.45-1-1.64-2.36-3.01-3.98-3.86-.1-.06-.25.11-.2.19,2.27,3.01,3.51,6.77,3.96,10.58.46,3.83.2,7.73-.38,11.58-.63,4.16-1.64,8.28-2.35,12.53-.37,2.2-.63,4.44-.77,6.72-.07,1.39-.29,2.82.7,4.01.76.93,2.71.3,2.62-.74Z"/><path class="cls-1" d="M181.97,99.46c-4.32-3.17-7.94-7.28-11.08-11.74-3.15-4.47-5.83-9.28-8.46-14.17-2.64-4.89-5.26-9.85-8.34-14.6-3.09-4.74-6.64-9.28-11.09-13.02-3.81-3.19-8.29-5.94-13.35-7.58-5.03-1.63-10.77-2-16-.24-5.23,1.73-9.56,5.41-12.23,9.77-2.69,4.35-3.72,9.47-2.87,13.84.04.27.27.13.28-.14-.07-10.26,8.13-20.19,18.44-21.85,5.13-.89,10.47.12,15.22,2.28,4.77,2.16,9.04,5.4,12.58,9.27,3.84,4.19,6.94,9.01,9.74,14,2.81,4.99,5.32,10.18,8.12,15.28,2.91,5.28,6.15,10.48,10.21,15.15,2.49,2.84,5.19,5.62,8.54,6.81,1.32.47,1.97.1,2.01-.58.05-.7-.55-1.6-1.69-2.47Z"/><path class="cls-1" d="M165.87,79.38c-4.79-6.01-10.17-11.55-16.04-16.52-2.94-2.48-6-4.82-9.19-6.98-1.6-1.08-3.21-2.11-4.87-3.11-1.67-.99-3.41-1.94-5.29-2.69-3.24-1.32-6.98-1.95-10.67-1.59-3.69.33-7.37,1.61-10.44,3.78-3.08,2.16-5.44,5.16-6.8,8.41-1.37,3.24-1.74,6.72-1.1,9.76.04.19.26.11.28-.08.37-6.96,4.45-13.82,10.71-17.14,3.1-1.68,6.66-2.53,10.17-2.43,1.76.05,3.51.33,5.18.86,1.67.53,3.28,1.3,4.84,2.17,6.71,3.93,12.9,8.79,18.52,14.12,2.91,2.78,5.69,5.7,8.27,8.77,1.59,1.9,2.94,3.89,4.98,5.13,1.63.98,2.76-.81,1.46-2.46Z"/><path class="cls-1" d="M171.1,84.91c-4.62-9.79-9.34-19.68-15.7-28.68-1.56-2.26-3.3-4.41-5.07-6.53-1.84-2.07-3.71-4.1-5.77-5.97-4.09-3.74-8.78-7-14.08-9.05-4.53-1.79-9.73-2.68-14.92-2.07-2.59.32-5.19.99-7.61,2.15-2.43,1.13-4.63,2.77-6.47,4.69-3.69,3.9-5.7,8.9-6.53,13.71-.84,4.84-.5,9.61.53,13.9.06.27.28.12.27-.16-.31-5.09.09-10.27,1.54-15.15,1.44-4.85,4.08-9.44,8.08-12.53,3.95-3.15,9.13-4.51,14.17-4.41,5.08.08,10.05,1.7,14.47,4.23,4.78,2.73,8.95,6.44,12.63,10.56,3.68,4.13,6.89,8.66,9.73,13.42,2.97,4.92,5.58,10.08,8.04,15.31,1.51,3.23,2.77,6.5,4.91,9.05,1.69,2.02,3.04.18,1.79-2.47Z"/><path class="cls-1" d="M98.47,35.96c-2.82,2.02-5.75,4.05-8.34,6.61-2.59,2.53-4.8,5.72-5.81,9.4-.44,1.58-.73,3.3-.69,5.09.06,1.79.51,3.61,1.32,5.17,1.64,3.15,4.3,5.2,7.46,6.05.1.03.23-.15.17-.22-2.38-2.26-4.64-4.71-5.8-7.68-1.19-2.95-.9-6.3.38-9.19,1.36-3.16,3.75-5.7,6.45-7.82,1.4-1.11,2.88-2.15,4.41-3.13.95-.61,1.99-1.04,2.35-2.34.28-1.03-1.13-2.47-1.89-1.93Z"/><path class="cls-1" d="M64.6,74.06c-2.83-.84-5.5-2.42-7.13-4.66-1.67-2.21-2-5.08-1.68-8.05.24-2.56,1.36-5.26,1.78-8.27.21-1.5.22-3.08-.16-4.58-.18-.73-.51-1.7-1.28-2.22-.39-.27-.83-.31-1.17-.21-.35.1-.56.41-.45.62.01.03.06.08.1.12.03.03,0,0,0,0,0-.01.01.01.02.05.01.03,0,0,.02,0,.03-.02.1-.02.18,0,.17.05.27.1.4.31.25.4.29,1.14.3,1.88,0,1.47-.2,2.96-.5,4.44-.59,2.96-1.56,5.92-1.8,9.14-.13,1.72-.05,3.53.47,5.3.53,1.77,1.5,3.43,2.76,4.78,1.3,1.42,2.88,2.5,4.52,3.39,1,.54,2.02,1.16,3.24.62.95-.44,1.13-2.46.38-2.66Z"/><path class="cls-1" d="M69.14,71.72c-2.6-1.19-4.61-3.72-5.62-6.53-1.02-2.83-1.15-6-.82-9.13.14-1.36.45-2.74.81-4.16.36-1.43.76-2.95.91-4.58.07-.81.07-1.65-.04-2.48-.1-.82-.32-1.71-.78-2.51-.44-.8-1.18-1.51-2.01-1.74-.81-.26-1.71-.06-2.05.49-.04.06.03.27.07.26.38-.14.98.02,1.42.41.44.36.75.98.91,1.66.31,1.39.19,2.99-.05,4.5-.25,1.54-.66,3.07-.99,4.65-.34,1.58-.62,3.19-.77,4.83-.33,3.5-.14,7.28,1.47,10.75.81,1.78,2,3.42,3.5,4.81.9.84,1.95,1.74,3.33,1.38,1.06-.3,1.36-2.33.71-2.6Z"/><path class="cls-1" d="M76.62,67.62c-1.11-.82-1.98-2.47-2.71-4.07-.72-1.61-1.24-3.32-1.56-5.06-.64-3.48-.47-7.1.48-10.46.4-1.45,1.09-2.88,1.88-4.2.8-1.32,1.8-2.52,2.84-3.63,1.06-1.11,2.17-2.11,3.38-3.07,1.22-.93,2.55-1.84,4.22-2.69.11-.06.06-.28-.05-.27-2,.07-3.9.64-5.57,1.56-1.68.9-3.13,2.13-4.4,3.5-2.53,2.77-4.18,6.24-5.08,9.88-.95,3.94-1.01,8.13-.08,12.16.49,2.1,1.27,4.1,2.28,6.06.33.61.67,1.25,1.19,1.78.51.53,1.21.95,2.03.95.66,0,1.05-.57,1.23-1.13.17-.57.21-1.1-.08-1.32Z"/><path class="cls-1" d="M84.07,69.12c-2.6-2.15-4.43-5.25-5.26-8.55-.84-3.32-.69-6.82.49-9.99,1.01-2.77,3.04-5.39,4.98-7.87,1.98-2.5,3.89-4.84,5.79-7.84.06-.1-.08-.27-.17-.21-3.18,1.94-5.85,4.46-8.11,7.28-2.22,2.83-4.23,5.91-5.32,9.5-1.17,3.86-1.1,8.12.19,12.04.67,2.03,1.68,3.97,2.99,5.72.81,1.04,1.61,2.22,3.11,2.27,1.14.05,2-1.82,1.33-2.36Z"/><path class="cls-1" d="M87.74,66.27c-1.19-3.19-2.19-6.4-2.56-9.64-.37-3.21-.09-6.48,1.14-9.29,1.06-2.44,3.22-4.43,5.47-6.16,1.12-.88,2.31-1.74,3.44-2.65,1.15-.88,2.24-1.83,3.85-2.61.1-.05.07-.27-.03-.27-1.93-.01-3.63.67-5.14,1.42-1.52.77-2.95,1.67-4.29,2.71-2.68,2.06-4.96,4.81-6.14,8.14-1.27,3.55-1.42,7.43-.91,11.11.26,1.91.72,3.78,1.2,5.6.3,1.12.45,2.27,1.61,2.95.92.54,2.68-.45,2.36-1.32Z"/><path class="cls-1" d="M91.95,68.9c-2.92-5.24-3.21-11.85-.7-17.15,1.07-2.34,2.94-4.42,4.69-6.59,1.75-2.17,3.42-4.52,4.1-7.6.02-.1-.16-.23-.22-.17-2.08,2.28-4.26,4.48-6.27,6.85-2.01,2.37-3.87,4.94-5.13,7.91-1.36,3.19-1.95,6.77-1.64,10.3.15,1.83.56,3.64,1.13,5.4.36,1.07.62,2.23,1.89,2.69.98.36,2.53-.96,2.14-1.64Z"/><path class="cls-1" d="M194.67,83.24c-.33-11.63-2.91-23.25-8.06-33.75-2.24-4.5-4.68-9.32-8.24-13.45-1.79-2.04-3.89-3.86-6.27-5.08-1.19-.61-2.44-1.04-3.69-1.3-1.26-.24-2.51-.26-3.69-.08-.15.02-.12.25.01.28,2.54.47,4.97,1.63,7.1,3.23,2.14,1.59,4,3.57,5.65,5.7,1.65,2.14,3.11,4.44,4.45,6.81,1.34,2.37,2.54,4.81,3.58,7.33,1.14,2.7,2.1,5.48,2.87,8.3.78,2.81,1.42,5.67,1.87,8.54.47,2.98.84,5.97.97,8.98.08,1.85-.08,3.65.8,5.31.71,1.32,2.69.77,2.65-.82Z"/><path class="cls-1" d="M194.23,80.85c1.16-10.58.07-21.45-3.68-31.47-.82-2.15-1.68-4.37-2.72-6.56-1.05-2.17-2.18-4.37-3.7-6.37-1.48-1.99-3.33-3.8-5.49-5-1.08-.59-2.23-1.03-3.39-1.24-1.17-.2-2.32-.18-3.38.07-.13.03-.11.26.02.28,2.29.3,4.46,1.42,6.31,2.94,1.85,1.54,3.41,3.45,4.75,5.5,2.63,4.16,4.66,8.73,6.08,13.47,1.55,5.11,2.35,10.4,2.54,15.68.08,2.74.07,5.47-.18,8.19-.16,1.68-.54,3.26.12,4.88.54,1.29,2.57,1.08,2.73-.37Z"/><path class="cls-1" d="M195.43,88.88c.36-2.73.41-5.44.42-8.09l.02-7.93c-.01-5.3-.14-10.64-.8-15.97-.56-4.58-1.25-9.57-3.01-14.22-1.72-4.62-4.6-8.88-8.55-11.2-.12-.07-.26.11-.17.22,3.13,3.84,5.39,8.37,6.9,13.13,1.52,4.77,2.31,9.75,2.66,14.77.38,5.41.21,10.85.02,16.3-.11,2.83-.14,5.69-.34,8.43-.13,1.7-.51,3.26.11,4.88.46,1.3,2.52,1.21,2.74-.31Z"/><path class="cls-1" d="M178.16,72.58c.09-3.37.14-6.78-.16-10.22-.28-3.43-.96-6.92-2.31-10.21-.7-1.63-1.55-3.23-2.58-4.68-1.02-1.45-2.16-2.78-3.33-4.04-2.35-2.48-4.78-4.86-7.45-7.05-4.53-3.79-10.2-7.31-16.4-8.82-6.14-1.6-12.73-1.2-17.72,1.41-.16.08-.03.28.13.25,6.17-1.19,12.68-.77,18.69,1.18,3.02.95,5.9,2.32,8.58,3.99,2.68,1.67,5.15,3.69,7.47,5.88,2.47,2.37,4.92,4.88,6.94,7.54,2.03,2.66,3.36,5.68,4.08,8.91.77,3.34.97,6.83.9,10.35-.04,2.17-.35,4.3.45,6.32.63,1.6,2.64,1.01,2.69-.82Z"/><path class="cls-1" d="M154.21,85.17c.25-8.27-1.63-16.55-5.33-23.94-1.87-3.68-4.19-7.14-6.94-10.25-2.75-3.07-5.87-5.97-9.81-7.86-1.69-.8-3.57-1.39-5.48-1.67-1.91-.29-3.83-.32-5.71-.23-3.77.18-7.63.9-11.2,2.46-3.55,1.55-6.78,4.03-8.84,7.17-1.05,1.54-1.79,3.25-2.23,4.95-.43,1.71-.5,3.45-.24,5.03.03.2.26.12.28-.07.3-3.6,2.04-7.07,4.57-9.77,2.52-2.73,5.85-4.66,9.41-5.83,3.56-1.17,7.38-1.65,11.14-1.57,1.87.06,3.72.33,5.45.94,1.73.61,3.36,1.52,4.87,2.62,1.62,1.19,3.12,2.56,4.49,4.06l1.04,1.12.97,1.17c.67.77,1.24,1.61,1.84,2.42,2.36,3.3,4.18,6.94,5.58,10.72,1.46,3.91,2.36,8.02,2.71,12.15.2,2.56.03,5.01.73,7.36.58,1.88,2.61,1.31,2.72-.97Z"/><path class="cls-1" d="M136.53,27.37c-7.08-1.96-14.63-2.3-21.8-.6-3.07.73-6.42,1.58-9.38,3.22-2.94,1.61-5.46,4.03-6.46,7.21-.03.1.15.24.21.17,4.74-4.69,11.16-7.57,17.75-8.57,3.56-.55,7.18-.52,10.7-.06.91.13,1.82.23,2.72.43l1.34.26c.44.1.88.23,1.32.35,1.1.27,2.05.82,3.29.26.99-.44,1.29-2.42.31-2.68Z"/><path class="cls-1" d="M218.58,90.67c-1.94-9.74-5.64-19.17-11.23-27.43-2.4-3.54-5.07-7.34-8.37-10.48-3.28-3.14-7.17-5.59-11.4-6.35-.13-.03-.2.19-.1.26,7.88,4.84,14.35,11.82,19.06,19.79,2.54,4.3,4.53,8.9,6.05,13.6.38,1.23.79,2.44,1.09,3.68l.49,1.85c.15.62.27,1.25.4,1.87.35,1.54.38,3.08,1.51,4.32.9.99,2.77.2,2.49-1.13Z"/><path class="cls-1" d="M219.84,100.68c-2.03-6.81-4.7-13.47-8.47-19.54-1.62-2.6-3.28-5.48-5.44-7.92-2.15-2.43-4.81-4.4-8.07-5.03-.1-.02-.22.17-.15.23,5.15,4.18,9.28,9.52,12.41,15.37,1.69,3.16,3.05,6.47,4.19,9.83.59,1.74,1.17,3.49,1.62,5.26.3,1.09.36,2.2,1.48,2.96.89.6,2.72-.23,2.44-1.16Z"/><path class="cls-1" d="M222.43,104.2c-1.18-9.89-2.08-20.06-5.49-29.76-1.45-4.15-3.2-8.63-5.93-12.5-2.68-3.86-6.44-7.04-10.68-8.06-.13-.03-.21.18-.11.25,3.84,2.67,7.03,6.27,9.52,10.28,2.5,4.02,4.32,8.44,5.61,13.01,1.39,4.93,2.15,10.01,2.69,15.12.28,2.65.54,5.3.74,7.97.12,1.64.06,3.27,1.08,4.66.81,1.09,2.73.38,2.57-.96Z"/><path class="cls-1" d="M205.45,109.86c-.38-5.01-.9-10.03-2.15-14.93-.54-2.1-.91-4.43-1.81-6.55-.89-2.12-2.31-4.02-4.77-5.06-.08-.03-.26.09-.23.14,2.42,4.03,3.89,8.55,4.7,13.17.44,2.49.65,5.02.77,7.53.06,1.3.13,2.6.13,3.89.01.8-.19,1.58.72,2.26.72.54,2.69.23,2.64-.45Z"/><path class="cls-1" d="M217.5,118.63c.69-7.93-.36-16.03-3.41-23.41-1.31-3.16-2.8-6.58-5.01-9.49-2.19-2.9-5.11-5.25-8.59-5.98-.11-.02-.22.17-.14.24,5.74,4.47,9.87,10.88,12.13,17.8,1.23,3.74,1.87,7.63,2.07,11.5.03,1,.11,2,.07,3.01l-.02,1.5c-.02.5-.07,1-.11,1.49-.07,1.23-.44,2.38.32,3.58.6.96,2.61.86,2.69-.23Z"/><path class="cls-1" d="M222.07,73.68c-.23-2.5-.77-4.8-1.39-7.09-.63-2.28-1.36-4.52-2.19-6.73-.84-2.21-1.75-4.39-2.94-6.54-.28-.53-.66-1.09-.99-1.59-.34-.5-.7-.98-1.06-1.46-.73-.95-1.49-1.87-2.28-2.76-2.72-3.07-5.68-6.21-8.87-8.99-1.62-1.39-3.4-2.69-5.37-3.56-1.96-.88-4.14-1.28-6.1-.92-.12.02-.13.25-.02.28,2.03.46,3.97,1.44,5.74,2.66,1.79,1.22,3.43,2.68,5.05,4.18,3.24,3.01,6.43,6.1,9.08,9.58.71.93,1.4,1.9,1.99,2.89.58.95,1.06,2.03,1.53,3.09.91,2.16,1.67,4.39,2.34,6.65.69,2.34,1.32,4.7,1.71,7.05.24,1.47.21,2.82,1.11,4.02.35.48,1.02.68,1.6.56.57-.11,1.08-.6,1.04-1.3Z"/></svg>