<?xml version="1.0" encoding="UTF-8"?>
<svg id="Calque_2" data-name="Calque 2" xmlns="http://www.w3.org/2000/svg" viewBox="0 0 300 300">
  <defs>
    <style>
      .cls-1 {
        fill: #1d1d1d;
      }

      .cls-2 {
        fill: #1db4b8;
      }
    </style>
  </defs>
  <path class="cls-2" d="M168.32,74.64c-3.32,6.61-8.14,12.31-11.68,18.82-1.51,2.79-4.6,5.06-5.45,8.41-.85,3.33.54,7.73,8.15,14.26.24.21,1.34.64,1.34.54.27-7.26,3.81-13.18,8.39-18.37,2.47-2.81,5.44-5.28,8.23-7.79,1.45-1.3,2.73-2.7,4.15-3.99.87-.81,2.52-1.04-.87-4.49-2.68-2.73-11.8-8.3-12.26-7.39Z"/>
  <path class="cls-2" d="M98.75,86.75c6.14,5.17,10.79,11.77,16.33,17.54,4.74,4.94,5.47,15.43,23.52,6.44.29-.14,1.08-1.02.98-1.06-7.2-3.53-12.08-9.37-16.27-15.91-2.26-3.52-4.14-7.39-6.19-11.08-1.06-1.92-2.27-3.68-3.38-5.55-.68-1.15-.65-2.92-4.92-.54-3.37,1.88-10.91,9.46-10.07,10.16Z"/>
  <path class="cls-2" d="M206.7,160.71c-5.57,1.93-11.54,1.63-17.3,2.31-2.5.3-5.33-1.1-7.88-.16-2.56.95-4.85,4.24-6.71,13.99-.06.31.05,1.48.13,1.44,5.7-3.08,11.44-3.07,17.5-2.32,3.25.41,6.6,1.26,9.96,1.81,1.74.29,3.45.35,5.19.53,1.06.12,2.31,1.15,2.3-3.66-.02-3.8-2.44-14.21-3.18-13.96Z"/>
  <path class="cls-2" d="M87.77,177.63c6.4-1.03,12.84.28,19.21.65,2.77.16,5.57,2.07,8.51,1.63,2.96-.43,6.07-3.21,10.03-12.39.13-.29.23-1.46.14-1.44-6.82,1.85-13.06.74-19.53-1.1-3.48-.99-6.98-2.41-10.55-3.51-1.85-.57-3.71-.92-5.58-1.37-1.15-.29-2.33-1.5-3.18,3.25-.66,3.76.1,14.42.95,14.28Z"/>
  <g>
    <g>
      <g>
        <path class="cls-1" d="M160.55,135.7c-4.44-.67-8.77-.86-13.12-.55-1.86.14-3.91.05-5.87.53-.98.25-1.93.64-2.78,1.3-.42.33-.82.73-1.14,1.21-.16.25-.3.51-.37.79-.05.13-.04.29-.03.4.06.12.17.12.26.26.05.05.27.12.26.09v-.05s-.03.05-.04.07c-.02.02-.04.04-.06.05.02.02-.17-.17-.09-.09h0s.02.03.02.03l.04.03s.02.02.03.02h0s.06-.09.13-.14c.14-.11.34-.22.54-.32.41-.2.87-.38,1.34-.53.94-.3,1.92-.52,2.9-.69,1.98-.33,4-.44,6.02-.42,2.18.02,4.34.26,6.46.57,1.09.17,2.18.33,3.23.57.66.15,1.22.5,1.99-.3.62-.63.9-2.73.28-2.83Z"/>
        <path class="cls-1" d="M137.88,151.12c.38-3.66.57-7.3.49-11-.05-1.85-.16-3.71-.5-5.62-.17-.95-.39-1.92-.79-2.93-.23-.51-.45-1.02-.86-1.55-.38-.51-.97-1.08-1.77-1.37-2.2-.8-4.38-.71-6.32-.55-1.95.18-3.72.36-5.59.44-3.71.19-7.45.17-11.24.18-6.34.02-13.36-.3-20.19,1.35-.85.18-1.69.47-2.52.71-.78.27-1.84.51-2.92,1.51-.54.51-.9,1.25-1.04,1.84-.15.61-.16,1.13-.16,1.57,0,.85.04,1.67.1,2.5.23,3.3.88,6.49,1.99,9.4.07.18.31.07.29-.11-.29-3.49-.34-7-.15-10.5.06-.87.05-1.8.3-2.37.2-.55.79-.89,1.59-1.14.81-.25,1.67-.46,2.5-.69.85-.18,1.7-.37,2.56-.53,6.89-1.22,13.96-.97,21.07-.85,3.22.05,6.46.08,9.71-.07,3.27-.11,6.53-.74,8.94.26.2.04.77.95.99,1.98.43,1.68.56,3.6.61,5.5.05,1.91-.02,3.85-.16,5.78-.17,2.39-.63,4.67.04,6.91.51,1.79,2.78,1.41,3.02-.65Z"/>
        <path class="cls-1" d="M61.61,126.93c.83-.46,2.11-.81,3.26-1.06,1.12-.23,2.65-.43,2.71-.17.29.16.64.52,1.16,1.02.5.47,1,.95,1.55,1.38,1.06.89,2.24,1.67,3.46,2.32,2.1,1.15,4.26,2.27,6.23,3.15,1.99.88,3.96,1.57,6.84,1.76.09,0,.23-.19.17-.23-2.02-1.63-4.19-3.05-6.48-4.13-2.27-1.1-4.57-2.02-6.51-3.42-1.06-.73-2.01-1.59-2.88-2.52l-.65-.71c-.23-.26-.5-.55-.82-.83-.33-.28-.73-.57-1.24-.77-.25-.1-.52-.18-.84-.22-.3-.04-.49-.04-.71-.05-1.65,0-3.03.24-4.53.55-.89.2-1.96.28-2.44,1.67-.22.62.28,1.16.76,1.56.49.4.78.83.96.71Z"/>
        <path class="cls-1" d="M80.07,169.23c-1-.13-2.1-.96-2.81-2.03-.37-.55-.62-1.09-.81-1.76-.19-.67-.31-1.38-.39-2.13-.16-1.49-.14-3.1-.26-4.81-.11-1.73-.45-3.48-1-5.14-1.07-3.37-3.12-6.32-5.34-8.83-2.22-2.52-4.64-4.73-6.74-7.04-1.8-1.99-3.43-4.25-4.44-6.68-.5-1.22-.84-2.47-.99-3.72-.04-.31-.04-.63-.07-.94,0-.26,0-.52.04-.77.06-.5.23-.96.37-1.16.14-.19.14-.2.3-.25.06-.01.14-.01.3.04.15.06.36.19.57.34.88.65,1.79,1.91,3.08,2.92,2.53,1.94,5.37,2.58,8.1,2.9.17.02.2-.23.05-.3-2.82-1.25-5.59-2.59-7.47-4.83-.48-.56-.95-1.21-1.5-1.82-.55-.6-1.19-1.24-2.13-1.59-.94-.36-2.1-.15-2.86.52-.76.67-1.1,1.56-1.29,2.4-.2.85-.16,1.73-.09,2.53.08.81.22,1.62.44,2.41.43,1.57,1.07,3.07,1.88,4.46,1.6,2.79,3.72,5.22,5.88,7.5,2.32,2.46,4.67,4.84,6.47,7.51,1.82,2.64,2.94,5.63,3.22,8.72.15,1.59.08,3.3.16,5.14.11,1.84.3,3.86,1.4,5.84.65,1.15,1.5,2.23,2.67,2.95,1.12.73,2.7,1.05,3.96.48.99-.47.9-1.27.57-1.8-.36-.56-.78-.97-1.28-1.05Z"/>
        <path class="cls-1" d="M162.88,149.6c-.31-1.51-.41-3.2-.45-4.85-.02-1.67.04-3.34.21-5,.16-1.65.42-3.3.82-4.85.21-.76.46-1.51.77-2.13.15-.32.32-.57.48-.78.17-.19.26-.24.32-.26,1.58-.54,3.56-.47,5.62-.25,2.09.24,4.32.42,6.47.54,4.33.21,8.62.19,12.87.22,6.63.04,13.62.61,20.14,2.21.86.18,1.56.41,1.73.53.08.05.09,0,.18.18.08.15.15.46.21.85.24,1.54.33,3.24.45,4.92.24,3.35.51,6.75,1.33,9.89.05.2.3.11.3-.09.08-3.65.43-7.37.51-11.11.01-.94.03-1.88-.02-2.83-.03-.48-.06-.95-.12-1.45-.07-.5-.18-1.06-.49-1.59-.31-.55-.82-.95-1.3-1.2-.49-.25-.98-.4-1.44-.53-.91-.23-1.82-.47-2.74-.68-7.35-1.6-14.87-1.69-22.29-1.86-3.67-.09-7.33-.21-10.94-.54-1.82-.16-3.56-.41-5.46-.64-1.89-.19-3.95-.31-6.1.38-.55.2-1.08.54-1.42.9-.37.35-.63.71-.86,1.07-.69,1.12-1.08,2.21-1.4,3.29-.32,1.08-.55,2.16-.73,3.23-.37,2.15-.57,4.29-.65,6.45-.05,1.33-.1,2.65.05,3.96.16,1.3.49,2.59,1.34,3.74.34.45.76.68,1.12.68.35,0,.65-.19.89-.43.47-.49.8-1.07.62-1.99Z"/>
        <path class="cls-1" d="M238.63,122.28l-3.81.05c-.65.01-1.29.02-2,.07-.19.02-.36.03-.59.07-.2.02-.52.1-.74.19-.49.18-.89.42-1.23.67-.34.25-.62.5-.87.73l-.67.59c-.43.4-.91.74-1.37,1.1-.95.68-1.92,1.3-2.97,1.84-1.79.94-4.11,1.42-6.25,2.7-2.13,1.27-3.82,3.37-3.85,6.12,0,.09.19.23.23.18,1.46-1.82,3.3-3.31,5.43-4.33,2.11-1.05,4.46-1.77,6.72-2.93,1.22-.61,2.39-1.35,3.52-2.14l1.58-1.21c.22-.16.43-.28.6-.35.19-.07.25-.07.42-.06.47-.01,1.18,0,1.81.04.65.03,1.32.07,1.99.12.82.06,1.64.32,2.4-.61.6-.74.33-2.85-.33-2.83Z"/>
        <path class="cls-1" d="M220.46,172.39c2.24-.43,3.82-1.87,4.89-3.46.53-.79.96-1.76,1.2-2.64.25-.89.39-1.79.48-2.65.18-1.74.16-3.37.29-4.9.11-1.51.41-2.96.9-4.38.94-2.83,2.7-5.31,4.8-7.63,2.1-2.33,4.5-4.48,6.78-6.97,1.94-2.15,3.92-4.52,5.31-7.46.69-1.46,1.21-3.07,1.43-4.75.06-.42.08-.85.11-1.27.02-.48,0-.96-.08-1.44-.14-.95-.43-1.96-1.18-2.94-.37-.48-.9-.94-1.54-1.23-.64-.29-1.3-.41-1.98-.35-.68.06-1.3.29-1.79.58-.49.29-.86.63-1.18.97-1.25,1.36-1.77,2.67-2.52,3.66-1.51,2.12-3.75,3.97-5.67,5.99-.12.13.06.3.21.22,2.71-1.51,5.65-3.1,7.72-5.75.5-.64.92-1.27,1.4-1.83.47-.55.99-1.03,1.52-1.24.51-.21,1.1-.1,1.51.24.42.35.71.98.85,1.65.16.68.13,1.37.06,2.11-.08.73-.21,1.46-.42,2.17-.41,1.42-1.03,2.79-1.83,4.07-1.58,2.58-3.68,4.81-5.92,6.95-2.41,2.32-4.97,4.59-7.14,7.37-2.19,2.75-3.79,6.16-4.35,9.75-.3,1.88-.31,3.67-.48,5.3-.16,1.62-.48,3.16-1.17,4.2-.44.68-1.05,1.23-1.61,1.66-.28.22-.55.41-.81.6-.27.2-.54.4-.88.61-.52.33-1.01.91-.97,1.56.03.31.2.67.55.92.35.25.89.39,1.49.28Z"/>
        <path class="cls-1" d="M150.11,180.73c-1.73.77-3.7,1.01-5.57.75-1.87-.28-3.6-1.1-4.93-2.4-1.33-1.29-2.29-3-2.6-4.77-.34-1.75.03-3.61.71-5.55.58-1.66,1.44-3.46,2.22-5.26.79-1.8,1.58-3.64,2.25-5.5.66-1.86,1.25-3.78,1.5-5.78.24-1.99.11-4.06-.65-5.85-.05-.11-.29-.08-.29.03-.19,3.99-1.88,7.89-3.39,11.76-.77,1.94-1.57,3.87-2.39,5.79-.8,1.92-1.73,3.82-2.32,5.97-.31,1.16-.51,2.38-.48,3.65.04,1.26.31,2.51.77,3.69.92,2.35,2.58,4.43,4.8,5.82,2.3,1.44,5.06,2.01,7.74,1.84,1.63-.09,3.39-.36,4.31-1.83.35-.59.13-1.27-.27-1.76-.41-.5-.95-.79-1.41-.59Z"/>
        <path class="cls-1" d="M216.11,122.06c-.68-.85-1.35-1.71-2-2.59l-.97-1.31-1.09-1.51c-.58-.79-1.12-1.63-1.73-2.37-.63-.73-1.29-1.3-2.06-1.73-.78-.44-1.71-.71-2.61-.78-.9-.07-1.81.02-2.72.25-.91.22-1.86.62-2.74.99l-1.04.42c-.23.09-.47.17-.7.25-.94.33-1.88.64-2.83.91-1.91.55-3.83,1.03-5.78,1.41-3.38.71-7.08.02-10.6.45-3.59.4-7.05,1.92-11.83,6.86-.15.16-.24.87-.12.87,4.51.09,8.82.18,13.16.09,4.33-.07,8.67-.31,13.06-.89,2.37-.3,4.74-.72,7.13-1.23l1.79-.41.44-.12.11-.03h.04s.08,0,.08,0c.11,0,.2,0,.28.02.32.05.56.13.71.38.15.27.12.6.11.78,0,.07-.05.05,0,.18l.43.77.85,1.56c.69,1.28.89,2.87,3.96,2.27,2.43-.48,7.43-4.59,6.69-5.51Z"/>
        <path class="cls-1" d="M180.37,204.48c-.71,1.92-1.85,3.64-3.51,4.65-.8.54-1.74.86-2.69,1.11-.98.19-1.99.26-3.01.2-1.02-.08-2.04-.28-2.97-.6-.84-.27-1.85-.89-2.94-1.41-1.09-.53-2.29-1.06-3.69-1.31-1.37-.28-3.03-.09-4.27.39-1.09.39-2.04.88-2.91,1.23-.88.37-1.67.58-2.26.54-.31-.01-.53-.08-.85-.21-.32-.14-.73-.37-1.25-.64-.5-.27-1.21-.56-1.89-.71-.68-.16-1.37-.21-2.02-.18-2.63.14-4.61,1.18-6.38,2.14-1.81,1.01-3.49,2.21-4.98,3.69-.09.09.04.3.15.25,2.07-.81,4.15-1.57,6.24-2.31,2.07-.73,4.17-1.47,6.13-1.12.97.14,1.79.71,2.92,1.22,1.15.54,2.59.52,3.73.16,1.17-.34,2.19-.86,3.18-1.28.99-.42,1.95-.73,2.88-.71,1.01,0,2.04.34,3.05.81,1.02.47,2.01,1.08,3.11,1.68,2.47,1.21,5.08,1.64,7.8,1.37,2.81-.25,5.64-1.72,7.55-3.96.54-.71,1.15-1.39,1.46-2.18.38-.77.5-1.6.3-2.45-.31-1.33-2.53-1.38-2.87-.38Z"/>
        <path class="cls-1" d="M90.66,125.21c.6-.98,1.21-1.94,1.84-2.9l.9-1.38c.12-.15.25-.46.5-.33l.28.2.14.08.07.04s0,0,.06.03l.25.08c1.43.48,2.94.76,4.29.92,1.37.17,2.62.23,3.83.28,2.44.1,4.75.08,6.95.08,1.89,0,3.74.31,5.45.71,1.74.4,3.16.86,4.68,1.2,1.52.35,3.01.48,4.96.47,1.95.02,4.47-.11,8.06.7.23.05.85-.3.76-.43-1.56-2.38-3.57-4.2-5.7-5.53-2.13-1.35-4.37-2.29-6.65-3-4.62-1.4-9.27-1.67-13.71-2.1-2.38-.22-4.74-.5-6.87-.97-1.04-.24-2-.53-2.77-.89-.42-.21-.55-.26-1.73-.96-.93-.68-1.97-1.14-2.84-1.37-.47-.14-.87-.21-1.33-.24-.46-.03-1,.04-1.49.17-.98.28-1.75.72-2.57,1.4-.82.67-1.5,1.65-2.22,2.57l-1.09,1.4-.62.7c-1.01,1.14-2.48,1.94-.9,4.67,1.25,2.16,6.84,5.44,7.48,4.38Z"/>
        <path class="cls-1" d="M111.3,140.01c.5-.33.98-.59,1.4-.72.43-.13.73-.14,1.08-.04.8.25,1.62.95,2.07,1.8.47.86.6,1.82.39,2.72-.21.91-.78,1.76-1.5,2.32-1.51,1.03-2.33.5-3.78-.95-.34-.36-.68-.73-1.03-1.1-.33-.35-.61-.66-.87-1-.26-.34-.49-.71-.58-1.3-.08-.55,0-1.31.59-1.99.07-.09-.04-.3-.14-.25-1.95.87-2.22,3.04-1.71,4.42.24.72.61,1.33,1,1.88.39.55.81,1.08,1.3,1.57.49.49,1.05.94,1.71,1.28.66.34,1.43.53,2.21.5,1.56-.1,2.9-.89,3.92-1.98,1.09-1.18,1.8-2.76,1.83-4.48.03-1.71-.61-3.42-1.78-4.74-.61-.69-1.36-1.27-2.26-1.67-.91-.44-2.2-.55-3.18-.33-1.23.26-2.29.63-2.48,1.86-.15.98,1.27,2.57,1.81,2.21Z"/>
        <path class="cls-1" d="M184.75,141.31c.88.02,1.83.52,2.47,1.26.65.74.94,1.68.81,2.52-.08.42-.19.63-.43.86-.25.24-.75.52-1.24.73-.99.42-2.08.58-3.07.45-.87-.12-1.59-.54-2.13-1.17-.55-.63-.86-1.39-.98-2.06-.05-.36-.08-.65-.04-1.02.04-.37.13-.79.31-1.23.36-.86.92-1.96,2.42-2.72.1-.05.09-.28,0-.29-1.77-.12-3.26.81-4.19,1.98-.46.6-.81,1.3-.97,2.05-.17.76-.12,1.52.04,2.25.35,1.45,1.24,2.7,2.43,3.57,1.21.89,2.71,1.29,4.18,1.28,1.6-.02,3.15-.42,4.61-1.27.37-.23.75-.53,1.09-.92.34-.39.6-.87.77-1.33.34-.95.38-1.88.24-2.83-.33-1.95-1.54-3.61-3.17-4.66-.51-.32-1.04-.64-1.64-.75-.59-.11-1.23-.02-1.75.45-.41.38-.41,1.09-.29,1.71.13.63.31,1.12.53,1.14Z"/>
      </g>
      <g>
        <path class="cls-1" d="M136.68,91.11c-2.36-2.48-4.03-5.6-5.17-8.92-1.14-3.33-1.81-6.85-2.24-10.4-.42-3.55-.63-7.17-.76-10.78-.13-3.61-.14-7.21.04-10.8.29-6.18,1.52-12.7,3.54-18.8,1-3.06,2.13-5.98,4.01-8.27.93-1.13,2.09-2.07,3.46-2.69,1.35-.62,2.95-.91,4.59-.54.21.04.19-.16-.01-.25-1.86-.8-3.94-.62-5.67.07-1.75.69-3.25,1.91-4.38,3.33-2.28,2.87-3.44,6.28-4.5,9.61-2.08,6.73-2.94,13.77-3.17,20.81-.13,3.8-.09,7.59.06,11.38.14,3.79.4,7.6,1.02,11.4.31,1.97.77,3.93,1.34,5.87.57,1.94,1.31,3.85,2.26,5.68,1.14,2.24,2.57,4.47,4.74,5.52,1.68.81,2.13-1,.85-2.24Z"/>
        <path class="cls-1" d="M143.03,91.85c-2.24-12.62-2.95-25.49-2.68-38.31.11-5.53.75-11.41,1.25-17.21.24-2.91.43-5.74.84-8.46.42-2.71,1.03-5.35,2.39-7.85.08-.16-.11-.22-.22-.08-2.21,2.51-3.29,5.64-3.95,8.7-.65,3.08-.9,6.18-1.22,9.26-.6,6.17-.99,12.36-1.16,18.59-.16,6.71-.12,13.44.33,20.15.21,3.48.58,6.96.97,10.43.26,2.13.39,4.25,1.43,6.03.81,1.4,2.32.46,2.02-1.24Z"/>
        <path class="cls-1" d="M145.77,89.37c2.6-2.36,4.41-5.31,5.91-8.28,1.49-2.98,2.68-6.06,3.79-9.19,2.1-6.28,3.4-12.83,3.9-19.43.4-5.68.44-11.85-.56-17.82-.99-5.95-3.06-11.67-6.36-16-.1-.14-.24.01-.18.17,2.43,5.69,4.02,11.74,4.83,17.89.78,6.15.73,12.41-.03,18.58-.81,6.65-2.65,13.14-5.16,19.29-.72,1.56-1.36,3.17-2.15,4.69-.77,1.52-1.61,2.99-2.57,4.35-1.2,1.69-2.58,2.98-3.52,4.66-.39.65-.26,1.24.18,1.52.43.27,1.22.22,1.93-.42Z"/>
        <path class="cls-1" d="M165.33,64.36c1.16-1.68,2.13-3.48,2.94-5.34.84-1.85,1.46-3.78,2-5.72.53-1.95.88-3.93,1.17-5.91.24-1.99.42-3.99.44-5.99.09-3.45.13-7.11-.42-10.74-.31-1.82-.83-3.67-1.83-5.26-.97-1.58-2.52-2.87-4.15-3.08-.1-.02-.16.16-.09.21,1.42.87,2.43,2.42,3.06,4.09.64,1.69.96,3.52,1.17,5.36.39,3.7.47,7.45.17,11.16-.16,2-.46,3.98-.86,5.93-.43,1.94-.95,3.86-1.63,5.7-.72,1.9-1.54,3.76-2.56,5.49-.32.53-.7,1.01-.97,1.54-.28.53-.52,1.05-.54,1.73-.05,1.07,1.46,1.77,2.1.83Z"/>
        <path class="cls-1" d="M131.86,85.06c-1.06-1.08-1.96-2.32-2.91-3.5-.84-1.26-1.77-2.48-2.49-3.82-1.58-2.6-2.82-5.41-3.88-8.27-1.07-2.86-1.78-5.84-2.37-8.83-.49-3.01-.81-6.05-.83-9.1-.09-5.26,1.03-10.85,2.62-16.05.85-2.56,1.93-4.98,3.53-6.96,1.61-1.96,3.73-3.62,6.55-4.1.18-.03.11-.22-.07-.23-1.68-.1-3.31.35-4.72,1.1-1.42.75-2.63,1.79-3.65,2.99-2.02,2.41-3.18,5.31-4.05,8.2-1.72,5.81-2.35,11.9-2.14,17.99.18,3.28.57,6.55,1.26,9.77.74,3.21,1.66,6.39,2.95,9.45,1.35,3.16,2.97,6.22,4.92,9.08.6.88,1.23,1.73,1.88,2.52.66.79,1.48,1.41,2.36,1.88,1.42.72,2.14-.93,1.04-2.12Z"/>
        <path class="cls-1" d="M114.04,72.92c-3.52-2.45-6.03-6.3-7.53-10.4-1.5-4.15-2.07-8.63-2.16-13.11-.08-3.88.49-7.98,1.43-11.84.97-3.89,2.2-7.45,4-11.14.05-.12-.11-.21-.2-.12-3.24,3.35-5.04,7.64-6.03,11.97-1,4.35-1.27,8.83-1.15,13.3.16,4.81.87,9.72,2.88,14.29,1.04,2.36,2.43,4.59,4.18,6.56,1.06,1.21,2.22,2.44,3.84,2.63,1.26.13,1.65-1.54.73-2.16Z"/>
        <path class="cls-1" d="M104.57,72.31c-3.18-1.46-5.95-3.81-8.09-6.61-2.15-2.8-3.68-6.06-4.51-9.48-.73-2.96-.71-6.26-.44-9.43.26-3.2.67-6.29.72-9.68,0-.11-.18-.14-.22-.05-1.46,3.38-2.3,6.94-2.57,10.54-.27,3.6.03,7.26,1.02,10.79,1.06,3.8,2.91,7.43,5.52,10.5,1.35,1.59,2.92,3.01,4.63,4.25,1.06.74,2.11,1.57,3.48,1.37,1.05-.14,1.31-1.83.47-2.2Z"/>
        <path class="cls-1" d="M100.66,73.92c-5.14-1.22-9.94-3.94-13.08-7.97-1.36-1.74-2.23-3.96-2.94-6.12-.71-2.19-1.33-4.28-2.39-6.79-.04-.08-.22-.08-.22,0-.29,2.78.09,5.51.93,8.07.84,2.56,2.14,4.97,3.87,7.09,1.87,2.28,4.18,4.21,6.76,5.68,1.33.77,2.74,1.4,4.17,1.96.88.34,1.72.79,2.72.29.78-.39.88-2.06.19-2.22Z"/>
        <path class="cls-1" d="M78.64,124.45c-1.87.17-3.75.11-5.5-.32-1.73-.42-3.36-1.23-4.53-2.37-1.04-1.02-1.64-2.52-2.1-3.92-.22-.68-.44-1.36-.7-2.17-.25-.77-.55-1.62-.83-2.73-.02-.07-.19-.13-.21-.07-.77,2.02-.63,4.13-.03,6,.61,1.88,1.66,3.63,3.2,4.99,1.65,1.44,3.72,2.39,5.85,2.87,1.1.25,2.23.37,3.34.44.68.04,1.37.21,1.92-.56.43-.6.09-2.22-.41-2.17Z"/>
        <path class="cls-1" d="M78.31,114.31c-2.15.6-4.44.7-6.47.07-2.02-.6-3.77-1.98-4.84-3.73-.95-1.54-1-3.42-.83-5.34.15-1.93.43-4.05-.24-6.41-.02-.07-.2-.11-.22-.05-.63,2.23-1.38,4.48-1.58,6.88-.1,1.19-.04,2.42.26,3.62.31,1.19.84,2.33,1.57,3.34,1.54,2.18,3.99,3.81,6.7,4.38,1.4.31,2.83.35,4.23.25.85-.06,1.75-.06,2.3-.95.42-.71-.3-2.21-.87-2.04Z"/>
        <path class="cls-1" d="M80.77,101.44c-.41.68-1.55,1.07-2.7,1.02-1.13-.07-2.43-.43-3.52-1.01-2.24-1.15-4.08-3.1-5.17-5.36-.97-1.97-1.13-4.36-1.01-6.64.12-2.32.35-4.52.52-7.3,0-.09-.16-.16-.2-.09-1.48,2.47-2.24,5.23-2.35,8.01-.12,2.77.47,5.62,1.88,8.11,1.52,2.65,3.86,4.97,6.9,6.14,1.53.59,3.35.97,5.25.47.58-.15,1.19-.38,1.69-.8.5-.42.84-1.05.78-1.71-.07-.53-.57-.78-1.04-.89-.48-.1-.91-.12-1.02.05Z"/>
        <path class="cls-1" d="M88.03,87.47c-2.92,1.24-6.43,1.05-9.26-.41-2.85-1.43-4.95-4.15-6.05-7.19-.48-1.31-.72-2.76-.73-4.2-.02-1.44.19-2.9.49-4.35.62-2.91,1.61-5.79,1.94-9.01.01-.1-.17-.16-.21-.08-1.69,3-3.2,6.16-3.88,9.59-.71,3.41-.31,7.08,1.14,10.32.78,1.75,1.85,3.39,3.25,4.78,1.38,1.4,3.12,2.49,5,3.17,1.96.7,4.09.95,6.2.71,1.28-.13,2.64-.35,3.4-1.48.57-.89-.56-2.17-1.29-1.83Z"/>
        <path class="cls-1" d="M95.58,75.93c-1.22.63-2.73.8-4.2.6-1.48-.2-2.96-.75-4.41-1.44-1.44-.7-2.97-1.49-4.36-2.28-1.39-.8-2.67-1.69-3.67-2.78-.86-.94-1.52-2.11-1.8-3.31-.28-1.21-.22-2.46.1-3.7.65-2.51,2.11-4.95,3.33-7.83.04-.09-.11-.2-.18-.14-1.23,1.13-2.36,2.37-3.29,3.75-.93,1.38-1.69,2.92-2,4.6-.33,1.67-.14,3.46.53,5.04.67,1.58,1.73,2.96,3,4.1,1.36,1.22,2.91,2.17,4.43,3.05,1.51.87,3.03,1.77,4.73,2.49,1.75.74,3.76,1.25,5.85,1.11,1.25-.06,2.7-.32,3.35-1.54.24-.48.02-.99-.33-1.34-.35-.35-.77-.55-1.09-.39Z"/>
        <path class="cls-1" d="M223.35,128.44c1.9-.64,3.79-1.41,5.55-2.5,1.75-1.08,3.37-2.47,4.59-4.23,1.02-1.49,2.08-3.24,2.34-5.21.28-1.93-.38-4.1-2.25-5.06-.06-.03-.22.05-.21.09.71,1.54.8,3.39.39,5.1-.4,1.72-1.28,3.32-2.45,4.61-1.28,1.4-2.9,2.42-4.61,3.16-.89.39-1.79.74-2.73,1-.58.16-1.18.16-1.5,1-.26.67.35,2.2.88,2.03Z"/>
        <path class="cls-1" d="M220.67,116.57c2.38,1.08,4.97.68,7.04-.33,2.08-1.02,3.71-2.53,5.19-3.99.63-.63,1.42-1.32,2.06-2.28.63-.96,1.03-2.07,1.14-3.13.23-2.16-.48-4.07-2.11-5.53-.05-.05-.23,0-.22.05.41,1.91.67,3.86.27,5.68-.2.91-.59,1.74-1.16,2.44-.58.7-1.33,1.34-2.07,1.99-1.58,1.37-3.34,2.55-5.11,2.98-.92.22-1.85.27-2.67.08-.53-.13-.82-.43-1.58-.03-.31.15-.68.58-.88,1.01-.2.43-.21.92.11,1.06Z"/>
        <path class="cls-1" d="M215.97,103.47c2.84,1.49,6.16,2.32,9.48,1.83,3.31-.51,6.42-2.4,8.26-5.29,1.62-2.45,2.39-5.63,2.13-8.54-.24-2.93-1.35-5.55-3.35-7.54-.06-.06-.23.02-.21.09.88,2.73,1.57,5.52,1.59,8.33,0,1.4-.18,2.8-.6,4.1-.43,1.3-1.12,2.51-2.04,3.49-1.99,2.14-4.92,3.23-7.7,3.06-1.45-.07-2.9-.4-4.25-.98-.84-.35-1.52-.9-2.6-.68-.87.15-1.5,1.69-.71,2.12Z"/>
        <path class="cls-1" d="M218.78,93.22c2.91,1.08,6.02.08,8.14-1.64,2.17-1.73,3.62-3.96,4.81-6.24,1.02-1.98,2.08-4.17,2.49-6.51.43-2.32.14-4.78-1.36-6.71-.05-.06-.23-.03-.22.04.48,4.6-.77,9.35-3.25,13.25-1.32,2.1-3.02,4-5.03,4.98-1.01.5-2.12.75-3.14.65-.66-.07-1.07-.36-1.9.05-.33.15-.69.59-.85,1.05-.16.45-.1.96.29,1.1Z"/>
        <path class="cls-1" d="M215.87,85.92c2.12-1.6,4.51-2.97,6.75-4.75,1.12-.89,2.2-1.89,3.12-3.08.92-1.18,1.66-2.55,2.11-4.01.79-2.5.95-5.38.32-7.94-.63-2.57-1.95-4.78-4.09-6.32-.07-.05-.22.05-.19.11,1.11,2.36,2.04,4.79,2.47,7.31.43,2.5.27,5.13-.85,7.34-1.17,2.41-3.31,4.13-5.61,5.59-1.2.77-2.44,1.51-3.72,2.27-.78.47-1.65.82-1.9,1.91-.19.85,1.03,1.98,1.59,1.56Z"/>
        <path class="cls-1" d="M213.71,84.26c.35-.18.6-.38.85-.63l.47-.52.87-.98c.58-.65,1.15-1.32,1.72-1.99,1.13-1.35,2.23-2.75,3.22-4.25,1.98-2.97,3.54-6.49,3.72-10.27.2-3.22-.43-6.79-2.16-9.72-1.69-2.92-4.46-5.17-7.55-5.58-.1-.01-.17.16-.09.21,2.69,1.73,4.91,4.24,6.31,7.15,1.41,2.9,1.94,6.23,1.31,9.36-.65,3.39-2.5,6.41-4.68,9.1-1.13,1.4-2.35,2.76-3.63,4.07-.39.41-.81.78-1.16,1.21-.08.11-.17.22-.24.33,0,.04-.02.1-.04.16-.01.06-.02.13,0,.19,0-.02.07.19.09.31.03.13.04.24.03.32-.01.13-.03.12-.02.11.02-.04.1-.08-.05.01-.21.11-.47.19-.62.39-.16.17-.21.6.25.93.46.32,1.05.27,1.41.08Z"/>
        <path class="cls-1" d="M207.42,79.17c2.27-2.53,4.31-5.29,5.87-8.37,1.57-3.05,2.63-6.44,2.89-9.93.22-2.97.14-6.32-1.09-9.35-.61-1.5-1.51-2.9-2.65-3.97-1.15-1.07-2.56-1.81-4.03-1.98-.09-.01-.17.16-.1.2,2.5,1.63,4.3,4.35,5.19,7.27.92,2.94,1.03,6.12.49,9.15-.57,3.28-1.96,6.35-3.75,9.11-.93,1.43-1.95,2.81-3.09,4.08-.7.79-1.51,1.42-1.65,2.61-.11.95,1.28,1.86,1.91,1.17Z"/>
        <path class="cls-1" d="M198.04,71.34c5.42-4.23,8.86-10.77,9.19-17.64.15-2.93-.03-6.17-1.15-9.11-1.08-2.92-3.17-5.5-5.96-6.47-.09-.03-.2.12-.14.18,4.23,4.29,6.03,10.8,5.11,16.74-.48,3.22-1.78,6.26-3.59,8.87-.94,1.35-2,2.61-3.21,3.69-.76.66-1.58,1.12-1.91,2.22-.26.89.89,2.09,1.66,1.51Z"/>
        <path class="cls-1" d="M181.15,63.86c4.39-6.51,6.25-14.72,4.66-22.48-.67-3.31-1.77-6.87-3.82-9.86-1.01-1.49-2.25-2.82-3.67-3.84-1.4-1.02-3.03-1.73-4.66-1.87-.1,0-.16.17-.07.21,3.01,1.67,5.48,4.41,7.26,7.43,1.78,3.05,2.9,6.49,3.27,10,.41,3.78-.09,7.61-1.27,11.15-.6,1.84-1.39,3.61-2.36,5.26-.61,1.02-1.36,1.86-1.41,3.14-.04,1.03,1.46,1.75,2.09.86Z"/>
        <path class="cls-1" d="M195.42,75.48c.94-1.08,1.19-2.16,1.52-3.07.33-.94.62-1.89.91-2.85.57-1.91,1.05-3.84,1.45-5.79.8-3.9,1.27-7.88,1.32-11.87.02-1.72.04-3.5-.03-5.31-.08-1.81-.24-3.69-.75-5.53-.5-1.83-1.37-3.64-2.68-5-1.28-1.36-3.05-2.26-4.7-2.19-.1,0-.13.19-.05.22,1.56.61,2.89,1.9,3.83,3.4.95,1.51,1.53,3.27,1.88,5.06.35,1.8.48,3.65.53,5.51.05,1.86,0,3.72-.12,5.58-.28,4-1.03,7.95-2.1,11.78-.55,1.99-1.18,3.95-1.91,5.87-.22.55-.44,1.09-.65,1.62-.19.47-.25.8-.27,1.24,0,.35-.08.93.19,1.35.14.21.37.37.69.38.31.01.68-.13.94-.42Z"/>
        <path class="cls-1" d="M94.76,79.45c-2.62,1.83-5.6,3.23-8.51,2.91-2.91-.3-5.57-2.21-7.37-4.64-1.59-2.11-2.3-4.94-2.73-7.72-.45-2.81-.68-5.63-1.54-8.63-.03-.1-.21-.09-.23,0-.49,3.26-.61,6.56-.08,9.8.51,3.22,1.76,6.43,3.97,9.01,1.19,1.38,2.62,2.58,4.3,3.43.85.41,1.74.74,2.69.96.94.2,1.93.27,2.9.21,2.02-.12,3.91-.8,5.63-1.63,1.06-.51,2.14-.97,2.57-2.14.33-.93-.9-2.06-1.61-1.57Z"/>
        <path class="cls-1" d="M99.85,72.94c-2.61.55-5.4.3-7.93-.62-2.55-.89-4.86-2.42-6.73-4.35-1.61-1.68-2.82-3.91-3.49-6.07-.35-1.09-.57-2.18-.73-3.35-.15-1.17-.25-2.4-.09-3.87,0-.09-.16-.17-.2-.09-1.65,2.71-1.58,5.91-.65,8.62.96,2.74,2.65,5.12,4.72,7.14,2.25,2.15,5,3.88,8.09,4.79,1.6.47,3.27.71,4.97.72,1.03.03,2.12.06,2.88-.84.58-.7-.14-2.23-.81-2.08Z"/>
        <path class="cls-1" d="M103.85,74.34c-3.41-.25-6.71-1.81-9.31-4.08-2.62-2.28-4.56-5.29-5.59-8.59-.9-2.86-.93-6.13-.58-9.24.35-3.15.94-6.13,1.43-9.51.01-.11-.16-.17-.21-.08-1.9,3.19-2.97,6.74-3.31,10.34-.34,3.6.05,7.3,1.34,10.76,1.39,3.72,3.83,7.11,7.11,9.54,1.7,1.26,3.61,2.25,5.66,2.92,1.25.38,2.56.84,3.79.17.94-.5.56-2.18-.32-2.23Z"/>
        <path class="cls-1" d="M105.48,73.13c-.57-.02-1.22-.35-1.75-.93-.54-.58-1-1.37-1.45-2.22-.9-1.71-1.69-3.48-2.35-5.29-1.31-3.63-2.12-7.42-2.22-11.23-.11-3.29.64-6.73,1.75-9.94,1.12-3.24,2.45-6.21,3.97-9.49.05-.11-.11-.21-.19-.13-2.87,2.8-4.81,6.29-6.01,9.97-1.22,3.69-1.66,7.62-1.44,11.52.24,4.21,1.2,8.37,2.73,12.32.4,1.02.83,2.03,1.31,3.02.47.97.96,2.02,1.76,3.04.48.61,1.13,1.26,1.95,1.61.79.36,1.81.41,2.58-.09.61-.41.45-1.01.18-1.4-.29-.41-.55-.74-.81-.75Z"/>
        <path class="cls-1" d="M102.39,73.38c-.46-.22-.93-.73-1.31-1.34-.39-.63-.71-1.33-1-2.1-.59-1.55-1.14-3.12-1.57-4.72-.9-3.2-1.49-6.48-1.83-9.78-.3-2.85-.13-5.91-.09-8.92.04-3.02-.04-5.98-.91-8.99-.03-.1-.21-.09-.23,0-.92,6.55-1.26,13.09-.61,19.69.35,3.55.92,7.1,1.89,10.57.24.9.52,1.79.83,2.68.28.87.63,1.82,1.12,2.74.31.57.65,1.17,1.18,1.65.52.48,1.28.83,2.04.7.61-.11.78-.66.78-1.15-.01-.5-.08-.91-.3-1.03Z"/>
        <path class="cls-1" d="M104.38,74.86c-2.99,1.18-6.34,1.46-9.52.88-3.19-.57-6.2-1.98-8.68-4.02-2.16-1.76-3.79-4.28-4.81-6.89-1.02-2.66-1.63-5.32-2.09-8.54-.02-.1-.2-.12-.23-.03-.95,3.43-.53,7,.79,10.14,1.34,3.14,3.61,5.83,6.37,7.87,2.97,2.21,6.54,3.68,10.31,4.12,1.95.23,3.95.16,5.9-.18,1.19-.22,2.45-.38,3.18-1.48.57-.84-.45-2.2-1.23-1.88Z"/>
        <path class="cls-1" d="M101.37,74.81c-2.53,1.3-5.28,2.2-8.07,2.49-2.77.29-5.6-.04-8.08-1.09-2.16-.92-4.04-2.68-5.58-4.54-1.56-1.91-2.86-3.83-4.56-6.19-.06-.08-.23-.02-.22.06.46,3.01,1.83,5.75,3.73,7.98,1.91,2.23,4.36,4.02,7.19,5.05,3.04,1.1,6.37,1.34,9.58.88,1.67-.24,3.29-.67,4.88-1.21.96-.34,1.99-.58,2.48-1.64.38-.83-.67-2.14-1.34-1.79Z"/>
        <path class="cls-1" d="M95.37,81.04c-2.56,1.71-5.56,2.82-8.56,2.83-2.97.03-5.9-1.14-8-3.18-1.88-1.74-2.69-4.36-3.12-7.06-.44-2.71-.65-5.59-1.79-8.42-.04-.09-.22-.07-.23.02-.17,3.16-.37,6.37.18,9.57.29,1.59.77,3.17,1.58,4.61.79,1.45,1.9,2.73,3.2,3.77,2.78,2.27,6.58,3.37,10.24,2.96,1.9-.18,3.74-.73,5.47-1.47,1.06-.45,2.17-.88,2.61-2.05.34-.92-.91-2.05-1.58-1.59Z"/>
        <path class="cls-1" d="M93.23,83.88c-2.98,1.26-6.28,1.77-9.5,1.55-3.18-.2-6.25-1.41-7.55-4.01-1.21-2.25-1.13-5.37-1.32-8.38-.14-3.03-.37-5.8-.75-8.98-.01-.1-.2-.12-.22-.03-1.01,3.31-1.11,6.69-.99,9.99.06,1.65.15,3.31.46,4.98.32,1.66.87,3.36,1.98,4.8,1.19,1.56,2.93,2.62,4.73,3.22,1.81.62,3.7.84,5.56.88,1.94.04,3.88-.18,5.78-.61,1.16-.25,2.37-.48,3.08-1.56.54-.85-.48-2.19-1.26-1.86Z"/>
        <path class="cls-1" d="M96.61,78.41c-1.4.2-2.62.63-3.77.95-1.15.33-2.21.53-3.34.53-2.23.03-4.45-.63-6.36-1.76-1.66-.99-2.96-2.63-4.12-4.28-1.18-1.67-2.32-3.3-4.1-5.1-.06-.06-.23,0-.21.07.62,2.42,1.62,4.68,3.03,6.68,1.4,2,3.22,3.74,5.43,4.93,2.36,1.28,5.12,2,7.94,1.78,1.48-.1,2.84-.53,4.07-.78.78-.16,1.43-.11,2-.88.48-.59.26-2.25-.55-2.15Z"/>
        <path class="cls-1" d="M209.4,79.22c1.86.5,3.79.15,5.39-.61,1.62-.76,2.99-1.94,4.02-3.38,2.02-2.91,2.62-6.4,2.54-9.67-.09-2.83-.35-5.88-1.54-8.71-.59-1.39-1.45-2.72-2.5-3.71-1.04-1-2.16-1.69-3.36-2.65-.08-.06-.23.05-.19.13.74,1.48,1.75,2.64,2.56,3.84.81,1.2,1.45,2.52,1.91,3.9.92,2.76,1.28,5.76,1.07,8.65-.12,1.56-.46,3.08-1.04,4.47-.58,1.4-1.41,2.62-2.47,3.53-1.1.95-2.45,1.61-3.77,1.73-.85.08-1.45-.18-2.39.26-.38.16-.72.63-.82,1.1-.1.46.07,1,.58,1.13Z"/>
        <path class="cls-1" d="M210.03,79.07c2.61-1.43,4.9-3.4,6.7-5.76.9-1.19,1.68-2.51,2.21-3.97.54-1.47.72-3.06.71-4.53-.03-2.53-.11-5.19-.78-7.75-.68-2.53-2-4.91-4.25-6.34-.07-.05-.22.06-.19.12,1.24,2.31,2.12,4.81,2.65,7.39.5,2.56.76,5.26.49,7.8-.28,2.73-1.83,5.06-3.75,6.97-.99.99-2.07,1.88-3.25,2.61-.73.45-1.51.68-1.88,1.67-.31.78.6,2.17,1.34,1.78Z"/>
        <path class="cls-1" d="M217.25,88.04c1.58.38,3.11.06,4.41-.44,1.31-.53,2.45-1.24,3.52-2.07,2.12-1.66,3.83-3.87,4.83-6.41.88-2.16,1.47-4.75,1.04-7.24-.39-2.45-1.97-4.82-4.35-5.38-.07-.02-.19.12-.15.16,1.54,1.59,2.42,3.84,2.6,6.12.18,2.29-.35,4.6-1.46,6.59-1.2,2.14-3.02,3.88-5.08,5.01-1.07.6-2.18,1.05-3.22,1.12-.32.02-.61-.02-.88,0-.28.01-.53.09-.92.34-.3.19-.63.65-.75,1.12-.13.46,0,.97.43,1.08Z"/>
        <path class="cls-1" d="M218.64,91.31c1.33.08,2.64-.18,3.79-.66,1.16-.46,2.19-1.11,3.14-1.84,1.88-1.47,3.44-3.16,4.75-5.16,1.09-1.7,2.25-3.79,2.31-6.13.03-1.14-.2-2.3-.76-3.28-.55-.97-1.46-1.74-2.54-1.97-.07-.02-.2.11-.17.15,1.25,1.41,1.69,3.55,1.42,5.52-.27,1.99-1.25,3.85-2.53,5.43-1.4,1.69-3.12,3.2-4.93,4.19-.94.51-1.91.89-2.86,1-.6.06-1.06-.12-1.68.52-.53.5-.72,2.13.05,2.22Z"/>
        <path class="cls-1" d="M217.49,98.41c4.85.85,10.05-1.04,13.08-4.96,1.29-1.64,2.52-3.61,2.95-5.8.44-2.16,0-4.53-1.73-6.02-.05-.05-.23.01-.22.06,1.03,3.92-.33,8.44-3.23,11.24-1.56,1.51-3.56,2.49-5.6,2.86-1.06.2-2.13.27-3.17.16-.65-.09-1.2-.33-1.93.24-.6.46-.84,2.08-.15,2.21Z"/>
        <path class="cls-1" d="M203.24,76.44c5.07-2.87,8.99-7.64,10.7-13.22.73-2.38,1.38-5.04,1.21-7.7-.15-2.63-1.15-5.24-3.25-6.81-.06-.05-.22.04-.2.11,2.04,4.68,1.89,10.27-.09,14.97-1.07,2.54-2.69,4.8-4.64,6.65-1.01.96-2.08,1.83-3.25,2.56-.73.44-1.49.69-1.84,1.67-.29.79.64,2.16,1.36,1.77Z"/>
        <path class="cls-1" d="M215.1,83c4.49-1.93,8.26-5.58,9.99-10.22.73-1.97,1.41-4.2,1.27-6.47-.11-2.23-1.09-4.47-3.13-5.57-.06-.03-.22.06-.2.11,1.94,3.71,1.68,8.45-.23,12.16-1.03,2.01-2.55,3.72-4.3,5.04-.91.68-1.86,1.29-2.88,1.76-.64.28-1.28.38-1.61,1.27-.27.72.45,2.2,1.09,1.93Z"/>
        <path class="cls-1" d="M202.21,74.99c2.44-1.64,4.98-3.33,7.1-5.63,1.06-1.14,1.99-2.46,2.67-3.91.69-1.45,1.12-3.01,1.32-4.57.35-2.69.32-5.6-.34-8.27-.33-1.34-.81-2.61-1.46-3.78-.33-.58-.7-1.14-1.12-1.66-.41-.55-1.09-1.08-1.61-.66-.06.05-.09.2-.05.19.08-.02.17,0,.24.05.04.02.11.1.18.2.14.21.24.47.36.82.23.66.45,1.32.66,1.98.41,1.33.76,2.67,1,4.03.49,2.7.59,5.51-.09,8.11-.37,1.39-.96,2.71-1.77,3.86-.82,1.16-1.8,2.18-2.91,3.09-1.14.95-2.37,1.82-3.68,2.61-.8.49-1.68.83-2.02,1.9-.27.85.85,2.08,1.52,1.64Z"/>
        <path class="cls-1" d="M203.39,73.76c3.21-4.43,5.27-9.65,5.81-15.08.23-2.32.46-4.87,0-7.34-.44-2.45-1.59-4.79-3.74-6.16-.07-.04-.22.06-.19.12,2.23,4.36,2.68,9.54,1.78,14.35-.47,2.61-1.39,5.11-2.58,7.41-.62,1.19-1.27,2.36-2.07,3.43-.46.68-1.09,1.17-.97,2.21.1.83,1.51,1.67,1.95,1.05Z"/>
        <path class="cls-1" d="M206.36,71.1c2.91-3.92,4.71-8.61,5.05-13.46.14-2.07.29-4.36-.23-6.54-.5-2.16-1.72-4.2-3.85-5.18-.06-.03-.21.08-.19.13,2.27,3.65,2.87,8.24,2.15,12.48-.37,2.3-1.16,4.5-2.21,6.52-.55,1.04-1.12,2.06-1.83,2.98-.41.59-.98.99-.81,1.96.13.77,1.51,1.67,1.91,1.12Z"/>
        <path class="cls-1" d="M83.33,94.14c-.79.67-1.87,1.01-2.97,1.02-1.1,0-2.18-.34-3.18-.95-1.99-1.22-3.54-3.29-4.64-5.49-.95-1.93-1.34-4.22-1.64-6.44-.31-2.25-.58-4.41-1.41-6.95-.03-.08-.21-.1-.22-.02-1.01,5.26-.41,10.66,2.06,15.44.68,1.27,1.48,2.5,2.48,3.6,1,1.1,2.22,2.08,3.69,2.72,1.54.66,3.34.83,5.06.41,1.03-.24,2.21-.69,2.44-1.88.08-.47-.26-.9-.66-1.19-.4-.29-.81-.43-1.02-.27Z"/>
        <path class="cls-1" d="M84.84,90.16c-1.68.73-3.64.8-5.42.32-1.79-.48-3.4-1.5-4.62-2.87-1.07-1.2-1.67-2.86-2.22-4.44-.55-1.62-1.14-3.15-2.34-5.12-.04-.06-.22-.06-.22,0-.12,2.15.18,4.25.82,6.23.65,1.97,1.67,3.86,3.17,5.42,1.6,1.68,3.74,2.93,6.13,3.41,1.23.25,2.52.27,3.8.1.77-.12,1.63-.16,1.99-1.12.27-.73-.67-2.12-1.08-1.93Z"/>
        <path class="cls-1" d="M80.59,99.71c-.7.39-1.63.45-2.51.21-.88-.23-1.7-.76-2.45-1.46-1.47-1.41-2.7-3.37-3.72-5.27-.87-1.67-1.35-3.63-1.74-5.47-.4-1.88-.8-3.57-1.53-5.92-.02-.08-.2-.11-.22-.04-.62,2.33-.55,4.69-.11,6.92.47,2.23,1.27,4.38,2.32,6.41.57,1.1,1.18,2.16,1.88,3.2.71,1.04,1.54,2.06,2.64,2.91,1.14.88,2.62,1.48,4.22,1.51.49,0,1,0,1.47-.18.47-.17.88-.5,1.06-1.03.14-.43-.14-.91-.46-1.27-.34-.36-.67-.61-.85-.51Z"/>
        <path class="cls-1" d="M217.82,102.11c2.1.42,4.28.61,6.5.21,2.2-.37,4.43-1.56,5.85-3.42,1.22-1.56,2.22-3.22,2.89-4.97.65-1.76.86-3.69-.05-5.68-.03-.06-.21-.09-.22-.04-.39,1.87-1,3.69-1.78,5.42-.79,1.73-1.68,3.47-3,4.65-1.43,1.28-3.32,1.78-5.19,1.78-.97,0-1.96-.08-2.92-.29-.6-.14-1.12-.42-1.84.14-.58.45-.83,2.07-.24,2.2Z"/>
        <path class="cls-1" d="M221.56,111.98c4.57-1.01,8.6-4.03,10.72-8.2.9-1.77,1.79-3.78,1.92-5.9.14-2.1-.51-4.28-2.32-5.58-.06-.04-.23.03-.21.08,1.28,3.72.55,8.08-1.65,11.31-1.18,1.75-2.81,3.15-4.6,4.1-.93.5-1.89.91-2.88,1.17-.62.15-1.22.12-1.67.92-.37.65.03,2.24.68,2.11Z"/>
        <path class="cls-1" d="M81.2,106.89c-1.92.33-3.95,0-5.75-.79-1.81-.8-3.38-2.06-4.58-3.6-1.06-1.35-1.65-3.1-2.24-4.79-.58-1.72-1.21-3.34-2.51-5.3-.04-.06-.22-.05-.22.01,0,2.22.34,4.36,1,6.42.66,2.05,1.65,4.01,3.06,5.72,1.52,1.84,3.5,3.37,5.82,4.26,1.2.46,2.48.74,3.79.84.79.05,1.65.2,2.24-.64.45-.65-.12-2.22-.61-2.13Z"/>
        <path class="cls-1" d="M198.29,69.75c1.49-2.63,3.05-5.29,4.2-8.22,1.17-2.92,1.79-6.11,1.81-9.27.01-2.71-.11-5.68-1.04-8.42-.88-2.73-2.59-5.2-5.1-6.45-.08-.04-.21.09-.17.15,3.33,4.56,4.8,10.45,4.24,16.06-.3,3.04-1.26,5.92-2.66,8.59-.72,1.39-1.5,2.76-2.36,4.1-.53.83-1.19,1.56-1.02,2.7.13.9,1.69,1.48,2.1.77Z"/>
        <path class="cls-1" d="M145.53,89.3c4.38-11.59,6.54-23.93,6.98-36.25.19-5.31.35-11.01-.1-16.59-.44-5.58-1.49-11.03-3.57-15.74-.06-.15-.23-.04-.21.11,1.9,11.55,2.6,23.26,1.73,34.95-.46,6.29-1.45,12.53-2.94,18.61-.41,1.57-.77,3.16-1.26,4.7l-.69,2.33c-.24.77-.53,1.53-.79,2.3-.63,1.9-1.52,3.62-1.49,5.56.02,1.54,1.76,1.6,2.34.02Z"/>
        <path class="cls-1" d="M120.98,74.82c-3.6-2.72-5.97-6.96-7.17-11.41-1.22-4.48-1.42-9.26-1.15-13.96.25-4.05,1.3-8.27,3.06-11.98.88-1.86,1.93-3.62,3.12-5.26,1.2-1.64,2.54-3.18,4.17-4.62.1-.09-.03-.24-.15-.18-2.25,1.02-4.17,2.58-5.74,4.37-1.57,1.8-2.81,3.85-3.76,6.02-1.88,4.35-2.61,9.08-2.82,13.78-.22,5.05.09,10.26,1.82,15.22.9,2.57,2.21,5.01,3.93,7.19,1.05,1.33,2.22,2.68,3.9,2.98,1.31.2,1.72-1.47.78-2.16Z"/>
        <path class="cls-1" d="M191.41,70.81c2.86-3.43,4.23-7.71,4.71-11.94.46-4.26.11-8.45-.51-12.58-.29-1.79-.64-3.67-1.27-5.55-.62-1.87-1.59-3.76-3.01-5.3-1.42-1.54-3.23-2.6-5.05-3.16-1.83-.57-3.68-.68-5.45-.42-.11.02-.11.21,0,.23,1.88.43,3.72,1.02,5.4,1.9,1.68.88,3.18,2.08,4.29,3.61,1.12,1.52,1.86,3.31,2.38,5.15.51,1.85.79,3.77.98,5.71.41,4.18.42,8.42-.51,12.36-.48,2.04-1.21,4-2.25,5.74-.66,1.08-1.47,1.89-1.71,3.2-.22,1.04,1.19,1.99,2.01,1.05Z"/>
      </g>
    </g>
    <g>
      <path class="cls-1" d="M141.41,204.07c1.98-1.29,4.46-2.12,6.57-3.99.88-.78,2.18-1.46,2.76-2.77.56-1.23.28-3.19-2.42-4.6-.08-.04-.44-.1-.43-.08.22.96-.05,1.99-.62,2.82-.57.84-1.41,1.5-2.33,1.97-1.01.52-2.16.78-3.3,1.04-.6.16-1.18.31-1.78.47-.38.09-.88-.08-.54,1.35.27,1.13,1.83,3.96,2.1,3.78Z"/>
      <path class="cls-1" d="M140.39,203.67c-.24-1.23-.25-2.38-.03-3.27.11-.44.27-.8.46-1.09.18-.29.4-.51.72-.81.55-.52,1.72-.62,2.69-1.51.48-.44.92-1.09,1.05-2.03.12-.92-.1-2.13-1.07-3.3-.06-.07-.36-.26-.37-.24-.15.97-1.04,1.83-2.06,2.48-1.03.67-2.26,1.19-3.48,2.18-.65.53-1.28,1.23-1.76,2-.48.77-.82,1.61-1.06,2.43-.25.86-.34,1.68-.44,2.48-.06.48-.4.98,1.06,1.24,1.15.21,4.35-.24,4.29-.57Z"/>
      <path class="cls-1" d="M136.09,203.23c-.5-.66-.58-1.7-.29-2.71.29-1.03.85-1.92,1.58-2.76.66-.76,1.82-1.06,2.66-1.85.85-.81,1.48-2.2,1.32-5.35,0-.1-.18-.41-.21-.38-2.27,2.04-4.92,3.27-7.29,5.58-1.27,1.29-2.4,2.86-2.95,4.86-.28,1.03-.33,2.17-.17,3.36.1.69.08,1.66,1.65,1.49.61-.07,1.54-.62,2.33-1.16.78-.54,1.43-1.01,1.37-1.09Z"/>
      <path class="cls-1" d="M131.31,205.63c-.43-1.17-.45-2.5-.18-3.73.27-1.24.82-2.37,1.49-3.38.6-.9,1.74-1.34,2.48-2.11.8-.8,1.17-2.06,1.8-5.24.02-.1-.09-.44-.13-.42-1.59.84-2.99,1.72-4.31,2.73-1.31,1.01-2.55,2.14-3.61,3.53-1.14,1.49-2.11,3.23-2.61,5.18-.26,1.01-.35,2.07-.36,3.15,0,.64-.24,1.43,1.3,1.6,1.2.11,4.23-1.05,4.12-1.32Z"/>
      <path class="cls-1" d="M123.86,207.08c-.55-.75-.63-1.97-.3-3.13.31-1.15,1.01-2.24,1.85-3.4.37-.5.88-.93,1.41-1.39.27-.23.53-.47.79-.73.25-.26.52-.56.66-.79.33-.5.47-1,.5-1.73.03-.37.03-.8.21-1.34.19-.53.55-1.13,1.15-1.71.08-.08.12-.43.05-.44-1.21-.16-2.43.4-3.17,1-.77.6-1.34,1.25-1.9,1.86-1.05,1.18-2.25,2.27-3.39,3.57-.62.7-1.23,1.45-1.77,2.32-.55.88-.99,1.85-1.28,2.92-.29,1.11-.36,2.33-.18,3.61.09.75.13,1.79,1.72,1.66.62-.06,1.55-.62,2.33-1.17.77-.55,1.41-1.04,1.34-1.13Z"/>
      <path class="cls-1" d="M159.72,200.9c-.89-.09-1.74-.51-2.45-1.09-.72-.58-1.32-1.28-1.84-2.01-.47-.65-.37-1.58-.8-2.21-.12-.16-.24-.32-.46-.47-.21-.15-.43-.14-.75-.25-.31-.07-.71-.26-1.12-.56-.41-.3-.8-.72-1.24-1.29-.06-.07-.4-.24-.42-.2-.4.71-.41,1.64-.23,2.41.04.19.09.37.14.54l.16.46c.09.3.21.6.31.9.42,1.19.92,2.35,1.56,3.51.68,1.24,1.51,2.51,2.65,3.58.59.56,1.28,1,2,1.43.43.26.87.78,1.63-.51.57-1.02,1.06-4.22.86-4.24Z"/>
      <path class="cls-1" d="M165.57,198.75c-.67.2-1.52-.04-2.25-.56-.75-.53-1.34-1.22-1.89-2.04-1.03-1.52.28-4.15-5.9-4.54-.1,0-.43.11-.41.14,1.53,2.17,2.06,4.65,3.41,7.19.75,1.38,1.73,2.78,3.22,3.84.77.55,1.7.95,2.73,1.2.6.15,1.4.52,1.76-.98.14-.59-.02-1.66-.21-2.59-.19-.93-.37-1.71-.46-1.68Z"/>
      <path class="cls-1" d="M173.06,198.74c-1.96-1.52-3.49-3.5-5.28-5.21-1.54-1.47-1.89-4.63-7.34-1.8-.09.04-.32.31-.29.33,2.29,1.04,3.88,2.79,5.29,4.76.76,1.06,1.41,2.24,2.11,3.36.36.58.77,1.12,1.15,1.69.23.35.26.9,1.51.12.99-.62,3.12-3.04,2.86-3.25Z"/>
      <path class="cls-1" d="M178.63,200.84c-.5-3.21-1.95-5.96-4.04-7.92-1.72-1.63-3.03-4.75-7.6-.69-.07.06-.24.38-.21.39,2.38.44,4.29,1.78,5.46,3.59.61.96.92,2.08,1.01,3.05.05.5.09.96.03,1.39-.05.28-.39.47,1.04.64,1.14.16,4.37.06,4.31-.44Z"/>
      <path class="cls-1" d="M187.09,199.69c-.55-3.54-2.04-6.88-4.68-9.23-1.11-.98-2.26-2.33-3.9-2.77-1.58-.44-3.67.16-4.79,3.05-.03.09-.02.45,0,.44,1.18-.39,2.5-.25,3.64.27,1.15.51,2.14,1.39,2.86,2.42.78,1.11,1.19,2.42,1.36,3.63.08.63.18,1.22.13,1.8,0,.38-.37.68,1.09.92,1.16.21,4.37,0,4.29-.53Z"/>
      <path class="cls-1" d="M189.18,203.4c.78-1.98.74-3.86.54-5.5-.23-1.65-.61-3.11-1.22-4.57-.51-1.22-.76-2.76-1.75-3.85-.96-1.07-2.69-1.64-5.5-.37-.09.04-.33.3-.3.32,2.3,1.17,3.65,3.57,4.1,6.02.25,1.32.23,2.75,0,3.84-.12.57-.26,1.05-.48,1.38-.16.24-.52.14.66.98.46.34,1.37.95,2.21,1.37.84.43,1.64.64,1.75.37Z"/>
      <path class="cls-1" d="M126.51,222.3c-.93-1.14-1.47-2.64-1.67-4.19-.21-1.56-.12-3.16.1-4.77.19-1.41,1.06-2.76,1.35-4.28.29-1.53.02-3.31-2-5.91-.06-.08-.4-.21-.41-.16-.75,3.66-2.18,6.94-3.01,10.71-.44,2.03-.74,4.19-.52,6.45.12,1.17.42,2.33.84,3.49.26.69.35,1.61,1.91,1.31,1.2-.25,3.63-2.41,3.41-2.67Z"/>
      <path class="cls-1" d="M130.91,227.51c-1.5-3.22-1.87-6.83-2.03-10.32-.07-1.53.47-3.12.4-4.7-.06-1.61-.75-3.22-3.22-5.42-.08-.07-.43-.13-.43-.07-.07,3.88-.51,7.47-.7,11.3-.1,2.05-.18,4.16,0,6.27.09,1.1.28,2.18.49,3.27.11.67.01,1.44,1.55,1.48,1.21.02,4.13-1.39,3.94-1.81Z"/>
      <path class="cls-1" d="M121.76,227.18c-.85-1.16-1.33-2.63-1.52-4.15-.19-1.53-.1-3.09.09-4.66.16-1.38.98-2.72,1.19-4.22.21-1.51-.17-3.25-2.36-5.65-.07-.08-.41-.18-.42-.13-.47,3.57-1.71,6.78-2.48,10.41-.4,1.96-.71,4.03-.55,6.2.08,1.12.34,2.25.69,3.37.22.67.25,1.56,1.81,1.32,1.2-.21,3.75-2.22,3.54-2.49Z"/>
      <path class="cls-1" d="M132.49,232.19c-1.34-1-1.96-2.65-2.53-4.15-.26-.67.03-1.51-.31-2.16-.34-.68-1.35-1.18-4.26-2.02-.09-.03-.45-.01-.44.02.84,2.09,1.08,3.96,1.46,6.08.21,1.13.42,2.34.84,3.51.22.61.52,1.17.83,1.75.18.35.21.92,1.45.14.97-.62,3.11-3.05,2.95-3.16Z"/>
      <path class="cls-1" d="M191.85,222.96c.69-3.84,1.32-7.75.92-11.68-.17-1.67.01-3.58-.66-5.28-.66-1.68-2.19-3.14-5.42-3.28-.1,0-.42.16-.39.2,2.09,2.72,2.78,6.22,2.58,9.57-.11,1.82-.53,3.6-1.04,5.3-.26.88-.49,1.75-.82,2.59-.19.53-.68.93.58,1.77,1,.67,4.16,1.35,4.25.8Z"/>
      <path class="cls-1" d="M195.44,226.33c1.33-3.79,2.47-7.7,2.49-11.76,0-1.72.36-3.66-.18-5.47-.53-1.78-1.97-3.41-5.2-3.75-.1-.01-.43.14-.4.17,1.94,2.87,2.35,6.5,1.78,9.85-.3,1.82-.95,3.56-1.68,5.18-.38.84-.73,1.68-1.18,2.46-.26.5-.82.81.3,1.85.88.83,3.89,2,4.07,1.46Z"/>
      <path class="cls-1" d="M185.96,235.43c1.04-2.85,2.28-5.66,2.77-8.69.21-1.29.86-2.66.69-4.09-.16-1.4-1.16-2.83-4.15-3.67-.09-.03-.45.02-.43.06,1.05,2.49.76,5.23-.15,7.69-.49,1.33-1.23,2.57-1.96,3.74-.38.61-.72,1.22-1.13,1.8-.25.36-.76.56.37,1.52.89.77,3.85,2.05,4,1.65Z"/>
      <path class="cls-1" d="M181.6,239.76c1.78-1.13,3.17-2.63,4.17-4.28,1.01-1.64,1.66-3.51,1.87-5.37.19-1.57.65-3.29.25-4.86-.4-1.56-1.64-2.88-4.75-3.44-.1-.02-.44.08-.42.12,1.47,2.66,1.78,5.75.86,8.38-.48,1.38-1.4,2.57-2.37,3.38-.5.43-.99.79-1.51,1.02-.35.14-.71-.05-.35,1.36.26,1.14,1.69,4.03,2.24,3.71Z"/>
      <path class="cls-1" d="M127.1,243.01c-2.06-2.23-2.99-5.28-3.5-8.21-.21-1.14.11-2.38.06-3.56-.04-1.2-.44-2.34-2.01-3.94l-.97-.04c.5.26,1.09.5,1.77.72.1.03.45-.04.43-.08-.12-.29-.22-.59-.32-.89l-2.75-.12c-.09,3.22-.23,6.23.02,9.43.16,1.89.39,3.85.98,5.77.31.99.72,1.95,1.2,2.89.27.58.38,1.34,1.84.89,1.14-.37,3.5-2.59,3.25-2.87Z"/>
      <path class="cls-1" d="M137.42,243.36c-1-2.33-1.35-4.86-2-7.29-.57-2.12.84-4.94-5.29-5.64-.1-.01-.44.09-.42.12,1.36,2.23,1.79,4.63,2,7.15.11,1.35.09,2.75.16,4.14.03.72.13,1.42.2,2.13.04.44-.2.96,1.28.89,1.17-.05,4.2-1.16,4.07-1.48Z"/>
      <path class="cls-1" d="M145.23,243.85c-1.38-3.06-2.05-6.37-2.95-9.59-.79-2.82.46-6.36-5.79-7.85-.1-.02-.44.07-.42.11,1.48,3.07,2.1,6.26,2.58,9.58.25,1.79.4,3.62.65,5.43.13.94.33,1.86.5,2.79.1.57-.06,1.24,1.46,1.23,1.2,0,4.16-1.3,3.98-1.71Z"/>
      <path class="cls-1" d="M150.67,249.57c-.31-3.32-.21-6.68-.68-10-.2-1.42.04-3.04-.48-4.5-.51-1.45-1.79-2.73-4.93-3.24-.1-.02-.44.1-.42.13,1.57,2.74,2.02,5.82,1.97,8.91-.02,1.67-.26,3.34-.48,4.98-.11.85-.17,1.7-.3,2.54-.07.52-.44,1.02.99,1.47,1.14.36,4.36.16,4.32-.3Z"/>
      <path class="cls-1" d="M157.28,252.58c-.18-3.9-.14-7.82-.87-11.69-.31-1.65-.23-3.55-.94-5.22-.7-1.66-2.19-3.08-5.43-3.4-.1-.01-.42.14-.4.18,2.04,2.96,2.85,6.49,2.99,10.01.08,1.91-.1,3.82-.31,5.69-.11.97-.18,1.93-.32,2.89-.08.59-.47,1.14.95,1.71,1.12.45,4.35.37,4.33-.17Z"/>
      <path class="cls-1" d="M164.39,251.15c-1.38-2.97-1.89-6.25-2.43-9.44-.24-1.39.07-2.93-.27-4.37-.34-1.45-1.35-2.8-4.27-4.19-.09-.04-.45-.02-.44.03.85,3.36,1,6.6,1.17,10.01.09,1.83.13,3.7.33,5.57.1.97.29,1.92.47,2.88.1.59-.04,1.28,1.48,1.26,1.2-.02,4.14-1.36,3.96-1.75Z"/>
      <path class="cls-1" d="M171.56,248.65c-1.09-2.78-1.51-5.75-2.2-8.63-.6-2.52.8-5.71-5.36-6.99-.1-.02-.44.07-.42.1,1.36,2.71,1.81,5.55,2.06,8.51.14,1.59.14,3.22.25,4.84.05.84.17,1.66.26,2.49.05.51-.17,1.1,1.33,1.12,1.18.02,4.23-1.07,4.08-1.44Z"/>
      <path class="cls-1" d="M178.19,249.49c-1.29-2.84-2-5.9-3.05-8.84-.91-2.53-.02-6.11-6.35-6.5-.1,0-.43.13-.4.17,1.79,2.53,2.65,5.39,3.23,8.37.32,1.6.48,3.26.72,4.89.12.85.31,1.67.45,2.51.09.52-.1,1.12,1.4,1.07,1.19-.04,4.17-1.29,3.99-1.67Z"/>
      <path class="cls-1" d="M184.76,247.95c-1.2-2.91-1.85-6-2.9-8.97-.9-2.54-.09-6.21-6.42-6.45-.1,0-.42.15-.4.18,1.85,2.47,2.73,5.32,3.3,8.29.3,1.6.45,3.25.64,4.87.1.84.26,1.66.37,2.5.07.51-.14,1.1,1.36,1.11,1.19,0,4.21-1.13,4.05-1.53Z"/>
      <path class="cls-1" d="M190.48,250.83c-.29-4.12-.56-8.29-1.77-12.28-.52-1.7-.72-3.7-1.71-5.36-.98-1.64-2.74-2.91-6.03-2.7-.1,0-.39.22-.36.25,2.6,2.64,3.98,6.2,4.52,9.81.29,1.95.28,3.94.19,5.87-.05,1-.06,1.99-.17,2.97-.05.61-.43,1.18,1,1.73,1.13.44,4.36.28,4.32-.3Z"/>
      <path class="cls-1" d="M195.1,245.94c-.17-3.93-.08-7.88-.74-11.79-.28-1.67-.15-3.57-.81-5.28-.65-1.69-2.09-3.16-5.33-3.63-.1-.01-.43.13-.4.17,1.94,3.08,2.66,6.67,2.74,10.25.05,1.94-.16,3.87-.39,5.77-.12.99-.19,1.96-.34,2.93-.08.6-.48,1.16.94,1.74,1.12.46,4.35.38,4.33-.16Z"/>
      <path class="cls-1" d="M169.76,215.84c-.36-.15-.43-.22-.68-.34-.12-.06-.28-.12-.52-.21l-.44-.14-.28-.08s0,.02,0,.02c.08.09.05.15-.27.14-.16,0-.42-.03-.83-.11l-.78-.15-1.29-.29,2.74,3.79c.7.98,1.2,1.64,1.33,2.08.09.22.12.45.17.61h.13s.02,0,.02,0h0s1.05.52,1.05.52h.02s.05.04.05.04c.07.04.11.07.15.1.16.16.05.07.08.04.02-.12.13-.45.7-1.07.24-.25.13-.14.15-.17l-.04-.04-.16-.17c-.21-.23-.41-.47-.61-.71-.79-.97-1.5-2.02-2.1-3.12l-3.58,1.96c.72,1.3,1.39,2.64,1.99,4l.44,1.03c.14.33.32.75.34.85.03.09.04.18.05.24v.08s0,.01,0,.01h0s.07,0,.07,0h.15c.41.06.72.18.85.27.13.09.06.1,0-.11l1.9-.32-5.18-5.99-3.49,2.01c.21.74.23,1.57.03,2.32l3.32-1.14c-.84-.67-1.55-1.54-2.02-2.51l-4,.91-.06,2.88-.03,1.3c.64.05,1.09.15,1.29.23.22.07.31.22.23.1.08.12.04.13.05.01.01-.12.1-.33.26-.57.15-.23.37-.46.55-.63.12-.11.09-.08.09-.09h0s-.28-.52-.28-.52l-.71-1.26-1.42-2.51-4.02,1.5c.33,1.73.3,3.54-.09,5.25l4.15-.43-3.51-8.53-4.26,1.23.51,2.67c.46,2.57.68,5.13.22,7.47l4.46-.36c-1.38-4.18-3.08-8.34-5.16-12.35l-4.64,1.85c.25.94.44,1.9.57,2.86.07.48.12.97.15,1.45l.04.73.02.63h0s.24.02.24.02l.42.04c.25.03.47.07.63.12.35.09.54.22.59.27.03.03.02.03,0-.02.02.05.02.08.02.05,0-.04.03-.22.17-.45.14-.23.38-.49.6-.69l.08-.07.04-.03h.01c.62-.52.17-.15.31-.27h0s0-.02,0-.02l-.07-.13-.2-.37c-.25-.5-.49-1.01-.7-1.58-.78-2.39-1.68-5.51-2.39-7.76-.72,1.94-1.43,3.87-2.14,5.8l-.54,1.47-.31.83-.08.21s-.05.06-.02.11l.27.21.07.05.03.03h.02c-.14-.34,1.29,3.17.68,1.68h0s0,.02,0,.02h0s0-.06,0-.03v.04s0,0,.02-.04c.05-.07.2-.19.43-.3.22-.11.51-.19.77-.25.12-.03.25-.05.33-.06.09,0,.02,0,.04,0-.16-1.6-.35-3.33-.56-4.96l-3.48-.63c-.43,1.4-.95,2.77-1.54,4.12l2.42.78c-.1-1.75-.23-3.48-.41-5.18l-.12-1.14-.69.67c-1.79,1.73-2.77,4.01-2.88,6.12-.02.28.32.24.4,0,.61-1.85,1.84-3.54,3.44-4.7l-1.86-1.07c-.09,1.71-.17,3.42-.26,5.13l2,.64c.8-1.37,1.5-2.8,2.09-4.28l-1.93-.35.26,5.08c.03.3.07.59.26.97.1.18.25.41.52.59.28.19.63.26.94.21.16-.02.32-.08.45-.15.08-.04.07-.04.11-.07.05-.05.09-.1.12-.16.07-.12.11-.25.16-.37l.58-1.54c.19.58.45,1.29.77,1.9l.25.46c.04.08.31.45.73.71.21.13.53.26.9.23.37-.02.7-.18.94-.44.47-.54.45-1,.48-1.34,0-2.31-.32-4.51-.9-6.7l-1.66.66c2,3.8,3.68,7.76,5.04,11.84l1.95-.16c.72-3.91-.01-7.76-.67-11.38l-2.24.65.94,2.37,2.52,6.41,1.54,3.92,1.01-4.19c.53-2.19.61-4.49.21-6.73l-2.76,1.03,1.37,2.54.69,1.27.17.32.09.16c.03.06.1.17.15.25.22.34.46.65.92.98.23.16.55.34,1.03.41.47.09,1.11-.07,1.48-.34.43-.28.73-.73.85-1.06.13-.34.16-.6.19-.81l.07-1.55.12-2.88-3.38.77c.71,1.5,1.75,2.83,3.05,3.89l2.23,1.83.77-2.86c.39-1.44.39-2.96,0-4.41l-3.33,1.92,2.24,2.71,2.59,3.11.93,1.11,1.41-.4c.59-.17,1.25-.64,1.6-1.19.37-.55.49-1.06.55-1.48.1-.85-.02-1.44-.17-2.03-.2-.67-.34-.95-.49-1.34l-.46-1.12c-.63-1.48-1.32-2.94-2.08-4.37l-4.1,2.24c.87,1.67,1.93,3.25,3.16,4.69l.32.36c.16.17.38.39.75.64.36.24,1.01.55,1.82.51.75,0,1.6-.43,2.05-.95.45-.45.7-1.18.62-.98h.01s.02,0,.02,0c.04.03,0,.03-.12-.21-.05-.1-.11-.22-.14-.32-.04-.1-.02-.17.21-.38.02-.05.43-.14.68-.29.27-.14.51-.35.68-.58.37-.5.31-1.02.15-1.24-.36-.46-.82-.22-1.22-.23-.15,0-.06,0-.04,0,.06.03.02,0,.02,0-.05-.02-.24-.29-.3-.68l-.02-.14-.02-.25c-.12-.26-.23-.62-.39-.86-.34-.41-.76-.83-1.17-1.09-.43-.31-.8-.43-1.15-.58-.22-.09-.45-.18-.69-.28Z"/>
      <path class="cls-1" d="M86.16,214.38l10.09-12.83c-.21-1.01-.4-2.05-.57-3.09-1.03-.24-2.07-.47-3.12-.69l-14.41,9.8,3.24,3.36c4.48-6.11,9.62-11.74,15.31-16.76l4.84-4.27-6.46.13c-2.07.04-4.04.69-5.7,1.52-1.67.84-3.11,1.84-4.46,2.79-2.68,1.91-5.16,3.68-7.65,4.09l1.91,4.22c5.95-4.79,11.91-9.58,17.87-14.37l-2.46-4.14c-4.58,1.9-9.17,3.8-13.76,5.7l2.22,1.44c-.44.28-.41.05.08.24.11.04.29.11.41.19.09.04.17.09.25.14l.12.08s0,0,0,0c.01-.01.04-.05.09-.1.11-.1.28-.23.48-.35.23-.13.3-.16.74-.34l4.32-1.76,8.64-3.53-.82-4.82c-5.05-.28-10.14.01-15.13.87l1.93,4.54,1.16-.82,1.01-.67,1.19-.75c1.62-.99,3.36-1.93,5.5-2.9-.21-1.09-.24-1.64-.22-2.06,0-.21.03-.36.06-.5,0-.05.06-.15.03-.16-.04,0-.07.01-.11,0-.14-.03-.3-.13-.52-.45-.23-.32-.52-.84-1-1.96-2.67.43-4.09.3-5.43.04-.35-.05-.65-.16-.97-.23l-.48-.13-.25-.08-.1-.04c-.28-.09-.55-.2-.83-.31l-2.57,4.39c1,.8,2.09,1.47,3.24,2.01.57.27,1.16.51,1.76.72l.58.19c.24.08.48.13.73.19.48.11.97.26,1.45.31,1.93.33,3.73.29,5.29.08l2.38-.35c.78-.13,1.8-.26,2.33-.43l-3.28-4.61c-.57-.77-1.16-1.55-1.79-2.33l-.97-1.16c-.31-.38-.71-.82-.83-.96-1.5-1.68-3.1-3.28-4.79-4.78-.3-.26-.6-.52-.9-.78l-3.49,3.82c3.93,3.83,8.44,7.16,13.39,9.81l3.25-4.04c-3.73-4.45-7.49-8.95-11.28-13.48l-3.19,4.31c2.99,1.31,5.99,2.63,9,3.95l3.3-4.37c-3.51-4.37-7.04-8.76-10.58-13.17l-4.21,4.01c1.9,1.72,4.25,2.9,6.77,3.39l6.83,1.34-3.82-5.84c-2.03-3.11-4.54-5.89-7.42-8.24l-4.2,4.06c1.11,1.46,2.64,2.46,4.27,2.99,1.64.53,3.46.61,5.21.08l5.01-1.52-3.9-3.46c-2.03-1.8-4.06-3.6-6.09-5.39l-3-2.65c-.33-.29-.61-.64-.68-.77-.01-.02,0-.02-.02-.03h0s-.1.04-.1.04c-.07.03-.15.05-.23.08-.29.09-.53.13-.71.14-.36.02-.36-.09-.09.09l-2.86,1.4c2.98,1.82,5.95,3.63,8.91,5.43l3.41-3.89c-4.14-4.78-8.84-8.99-13.91-12.51l-2.47,3.44c3.17,2.04,6.75,3.3,10.37,3.7l1.3-3.02c-2.38-1.65-4.73-3.28-7.08-4.91l-1.76-1.2c-.58-.4-1.21-.8-1.7-1.17-1.02-.76-1.87-1.75-1.6-2.59l-.89.41c3.41.89,6.68,2.34,9.66,4.26l-.12.18c-3.32-1.75-6.42-3.91-9.21-6.41-.66-.6-.62-.01,0,.65,2.52,2.66,5.38,4.98,8.47,6.91l1.7-2.41c-2.97-2.26-6.31-4-9.83-5.16l-1.23-.4-.48,1.18c-.22.55-.29,1.19-.2,1.76.09.57.3,1.06.54,1.47.49.83,1.09,1.41,1.7,1.93.64.53,1.17.9,1.75,1.35l1.7,1.29,6.79,5.17.94-2.18c-3.19-.47-6.29-1.68-8.96-3.51l-1.36,1.89c4.81,3.55,9.19,7.68,13.03,12.25l1.41-1.6-8.83-5.55-.83-.52-.59.81c-.33.45-.5,1.07-.46,1.61.03.54.2,1,.4,1.39.4.78.93,1.35,1.48,1.87l3.04,2.72,6.05,5.42.39-1.75c-1.81.56-4.05-.17-5.18-1.68l-1.47,1.42c2.56,2.09,4.8,4.58,6.62,7.34l1.06-1.59c-1.8-.35-3.52-1.21-4.88-2.44l-1.51,1.44c3.54,4.38,7.08,8.75,10.62,13.13l1.27-1.69-9.02-3.92-1.3,1.76c3.77,4.49,7.53,8.97,11.3,13.47l1.49-1.85c-4.57-2.45-8.79-5.56-12.48-9.2l-1.75,1.92c1.73,1.5,3.37,3.11,4.9,4.81l.56.64.31.36.59.73c.38.49.75.98,1.09,1.48l.09.14s.09.1,0,.1l-.34.05c-.23.02-.46.04-.68.04-.92.02-1.82-.12-2.65-.4-1.39-.45-2.84-1.24-4.03-2.19l-1.49,2.55c.35.14.7.28,1.06.4l.31.1.24.08c.32.1.65.16.97.22.86.14,1.72.13,2.52,0l.35-.07h.04s-.03,0-.04,0l-.09.04-.18.08-.72.33c-.47.22-.93.46-1.37.7-.4.22-.79.45-1.17.68l-.65.42-1.27.88,1.28,3.02c4.69-.77,9.46-1,14.18-.7l-.6-3.51-8.67,3.46-4.33,1.73c-.3.12-.89.36-1.31.61-.45.26-.88.56-1.31.96-.42.41-.87.89-1.17,1.73-.14.42-.24.93-.17,1.46.06.54.26,1.01.51,1.41l.87,1.39,1.58-.64,13.8-5.59-2.19-3.68-17.99,14.22,1.91,4.21,1.08-.24c1.84-.47,3.46-1.29,4.91-2.16,1.45-.88,2.75-1.82,4.01-2.68,2.49-1.74,4.87-3.11,7.11-3.1l-1.75-4.47c-5.98,5.21-11.41,11.07-16.16,17.43l3.74,3.88c.24-.14.42-.23.53-.27.02,0,.03,0,.04,0,.02,0-.04.09-.14.19-.2.2-.23.2-.12.13-.55.75-.98,1.44-1.41,2.25-.44.81-.87,1.76-1.52,3.16,0,.02-.01.03-.02.04l-.97,2.2,1.6.62c1.25.48,2.33.3,3.08,0,.76-.31,1.25-.78,1.52-1.19.54-.86.3-1.39-.03-1.54-.36-.18-.87-.11-1.41-.19-.53-.05-1.22-.3-1.37-.64l.71,3.21c1.33-1.34,2.97-3.22,4.67-5.38Z"/>
      <path class="cls-1" d="M215.77,216.89l-.07-.2s-.08-.2,0-.1c.19.22.42.42.68.6.17.12.34.23.54.34,1.06.6,2.29,1.18,3.48,1.66l8.07,3.21-5.26-6.89-5.15-6.75-.7-.91,1.02.46,3.31,1.51,5.64,2.58-2.49-5.69c-.81-1.84-2.26-3.22-3.63-4.15-1.39-.96-2.78-1.61-4.06-2.24-1.27-.62-2.46-1.22-3.38-1.9-.93-.68-1.53-1.37-1.81-2.18l-3.24,2.95c2.71,1.28,5.55,2.3,8.45,3.04l1.09.27c.38.09.86.19,1.4.23.55.04,1.2.05,1.99-.21.79-.23,1.65-.89,2.11-1.65.55-.83.66-2.05.44-2.84-.21-.82-.56-1.36-.9-1.83-.71-.91-1.45-1.49-2.3-2.01-.2-.12-.48-.26-.64-.34l-.49-.22-.98-.45-1.96-.89-3.92-1.79-7.83-3.58-1.04,4.64,8.24.32,3.49.13,1.75.07c.59.03,1.17.04,1.63-.02.96-.1,1.6-.33,2.09-.55.51-.24.82-.41,1.17-.68.33-.28.75-.67.97-1.47.11-.38.14-.79.1-1.1-.03-.32-.12-.57-.2-.79-.18-.43-.39-.72-.7-1.12-.3-.39-.74-.86-1.46-1.36-.7-.51-1.92-.96-2.96-1.42l-3.23-1.39-4.27-1.83,1.03,3.75c.07-.04.1-.12.16-.16.08-.02.08-.1.19-.12.04-.02.08-.04.12-.06h.01s.09-.02.09-.02l.19-.02.37-.05c.26-.02.48-.09.77-.08l.88.02,1.77.04c.61.02,1.05-.03,1.59-.05.5-.03.83-.11,1.25-.16.38-.06.62-.14.93-.21,1.06-.31,1.74-.6,2.4-1.04.64-.45,1.28-1.03,1.65-2.08.11-.37.18-.84.14-1.27-.04-.43-.16-.78-.29-1.07-.27-.57-.61-.95-.95-1.24-.34-.3-.78-.65-1.45-1.01-.68-.36-1.63-.76-3.03-.96l-7.09-1.23,2.51.43.63.11.32.05h.08s0,0,0,0c0-.01,0-.02,0-.04.02-.1.13-.16.22-.19.05-.02.09-.03.15-.04l.36-.06.71-.12,2.8-.49v-5.05c-5.16-.91-10.4-1.42-15.64-1.51l-.27,5.15c4.82.41,9.69-1.09,13.43-4.15.29-.24.57-.49.86-.74l-2.52-4.37c-4.13,1.26-8.31,2.54-12.52,3.82l2.22,4.69c4.57-3,9.19-6.03,13.85-9.08l-2.93-4.58c-3.28,1.99-6.94,3.41-10.74,4.13l2.53,4.73c3.62-3.59,7.26-7.2,10.91-10.81l-3.44-4.59c-2.86,1.54-5.72,3.09-8.58,4.64l2.43,1.94c-.17.1-.14.02.12.04.25.01.71.13,1.24.4.39.2.24.13.28.12l.06-.08c.05-.07.14-.16.24-.26l2.02-2,4.05-4.02c2.69-2.69,5.38-5.38,8.06-8.06l-3.51-4.56c-3.89,2.33-7.78,4.65-11.65,6.96l3.71,3.91c3.02-4.74,6.62-9.09,10.66-12.93l-2.62-4c-2.8,1.37-5.28,3.3-7.26,5.64l3.35,2.74c2.31-3.34,4.59-6.67,6.82-9.98l-2.13-2.5c-1.92,1.12-3.94,2.05-6.02,2.79l1.13,2.39c2.82-2.17,5.5-4.47,8.01-6.87l1.28-1.22-1.67-.02c-2.62-.03-5.15.71-7.24,2.03l.2.26c1.81-2.3,4.29-4.09,7.11-5.11l.34,1.12c-1.82.84-3.61,1.67-5.38,2.49-.8.37-.24.56.59.26,1.7-.62,3.4-1.23,5.1-1.85l-.9-2.94c-3.1.85-5.92,2.58-8.06,4.94l1.73,2.25c1.91-1.04,4.15-1.53,6.32-1.39l-.77-2.42c-2.62,2.23-5.34,4.34-8.16,6.3l1.08,2.28c2.3-.69,4.52-1.6,6.64-2.72l-1.55-1.82c-2.38,3.25-4.77,6.5-7.15,9.74l1.78,1.46c1.74-1.95,3.88-3.55,6.26-4.65l-1.21-1.84c-4.38,3.98-8.26,8.51-11.49,13.46l1.41,1.49,11.7-6.86-1.25-1.62-8.09,8.04-4.05,4.01-2.03,2.01c-.38.39-.76.81-1.05,1.4-.15.3-.27.65-.3,1.07-.04.42.08.92.32,1.3l.53.82.84-.46,8.57-4.66-1.25-1.67-10.87,10.85-2.55,2.54,3.54-.69c4.23-.83,8.32-2.41,12.01-4.67l-1.23-1.93c-4.61,3.03-9.22,6.06-13.84,9.09l1.04,2.19c4.18-1.26,8.35-2.52,12.53-3.78l-1.27-2.2c-3,2.76-7.25,4.18-11.29,3.78l-.15,2.77c1.11.03,2.22.07,3.33.14,3.91.23,7.81.7,11.65,1.41v-2.96s-10.23,2.36-10.23,2.36l-2.58.6-1.29.3c-.25.11-.46.25-.69.42-.42.34-.9.83-.98,1.68,0,.1-.01.2,0,.31v.15s.1.04.14.06l.55.24,1.16.52c1.6.76,3.63,1.44,5.44,1.76l2.08.4,1.65.33c.26.05.52.14.73.31.22.15.31.5.09.73-.67.59-1.63.49-2.4.44-.4-.03-.79-.06-1.17-.01-.09.01-.19.02-.28.06-.07.02-.04,0-.2.07l-.54.25c-.36.15-.69.44-1.02.67-.31.26-.57.58-.84.89l-1.63,1.85,2.43,1.07,1.75.77,1.15.51,1.09.51c.34.17.69.3.99.49.14.1.27.28.18.47-.09.18-.33.23-.52.24-.81-.03-1.56-.1-2.25-.15l-7.12-.34-.96,4.29,14.9,6.95c.44.21.8.49,1.08.78.13.14.2.27.21.28l.36-.15c.15-.05.3-.08.38-.1.11-.02.23-.02.26-.03.03,0,.06,0,.1,0,.02,0,0,0,.02,0h.02s-.05-.01-.07-.02c-.02-.01-.04-.02-.05-.03-.04-.02-.09-.05-.13-.08-.04-.03-.08-.07-.11-.1l-.02-.03.2.18h0s0,0-.02-.03c-.04-.06-.13-.24-.2-.54l-.05-.24-.02-.13s0-.01,0-.02h-.04c-.09,0-.3-.02-.56-.08l-.98-.24c-2.69-.69-5.31-1.65-7.82-2.85l-5.47-2.62,1.99,5.79c.68,1.97,2.14,3.51,3.53,4.51,1.41,1.03,2.81,1.71,4.1,2.36,1.29.64,2.47,1.24,3.41,1.9.94.66,1.56,1.34,1.87,2.08l3.56-3.51-12.51-5.8c-.7.61-1.38,1.24-2.05,1.89-.5.79-1.02,1.56-1.58,2.32l.46.61c3.65,4.88,7.27,9.72,10.83,14.48l3.44-4.51c-.5-.2-.99-.42-1.47-.65-.24-.12-.48-.23-.72-.35l-.36-.18-.41-.22c-.5-.27-1.02-.61-1.52-.94-.5-.31-1.01-.69-1.52-1.09-1.02-.77-2.08-1.75-3.31-3.06-.96.58-1.47.89-1.82,1.08-.35.19-.52.25-.69.25h-.06s-.08.07-.12.11c-.08.09-.17.18-.24.27-.15.18-.29.38-.42.59-.25.42-.42.89-.5,1.44.4.97.79,1.93,1.19,2.89,1.16,2.76,2.07,4.4,2.74,5.18.68.79,1.13.76,1.48.44.34-.33.59-.92.79-1.42.19-.51.35-.91.36-1.34.05-.08.07-.15,0-.33Z"/>
      <path class="cls-1" d="M84.61,222.92c-.56.71-1.21,1.35-1.91,1.92-.17.14-.35.28-.54.42-.21.15-.32.22-.35.24,0,0-.01,0,0,0l.13.28c.08.17.14.32.18.45.09.26.11.44.11.55,0,.1-.02.12,0,.06-.05.11-.05.09-.03.07.08-.1.47-.3,1.01-.37.12-.01.28-.04.42-.04.11,0,.04,0,.06-.01l.02-.09c.02-.09.05-.16.1-.27l.26-.65c.35-.86.74-1.7,1.16-2.53.72-1.45,2.04-2.61,2.87-4.06.85-1.47,1.2-3.23.52-6.54-.02-.11-.28-.35-.31-.3-2.49,3.38-4.93,6.44-7.08,10.01-.28.48-.57.96-.84,1.46-.14.24-.28.49-.41.74-.13.27-.26.45-.42.86-.14.37-.25.74-.31,1.18-.06.44-.09.94.11,1.61.09.32.27.7.55,1.06.28.35.68.67,1.09.85.82.42,1.84.36,2.44.18.65-.19,1.07-.43,1.41-.63.3-.18.54-.32.81-.49.52-.33,1.03-.69,1.54-1.06.61-.44,1.44-.76.82-2.21-.51-1.14-3.12-3.05-3.4-2.69Z"/>
      <path class="cls-1" d="M87.63,235.85c-.88-1.4-1.15-3.23-.94-5.04.21-1.83.83-3.59,1.69-5.29,1.52-3.07,5.65-4.66,3.71-11.2-.03-.1-.32-.32-.35-.27-2.18,3.7-5.15,6.72-7.4,10.66-1.2,2.14-2.19,4.52-2.5,7.2-.15,1.38-.06,2.83.24,4.29.19.87.23,1.97,1.89,1.96.64,0,1.6-.52,2.38-1.06.78-.54,1.4-1.08,1.28-1.26Z"/>
      <path class="cls-1" d="M90.9,246.02c-.31-.26-.58-.94-.6-1.86-.04-.92.11-1.93.31-3.09.38-2.26.9-4.49,1.44-6.71.47-1.94,1.5-3.79,2.02-5.59.26-.92.4-1.83.35-2.93-.04-1.1-.26-2.4-.54-4.18-.02-.11-.29-.34-.33-.28-1.54,2.12-2.51,4.33-3.36,6.53-.83,2.21-1.54,4.4-2.28,6.61-.79,2.4-1.61,4.77-2.25,7.29-.31,1.38-.53,2.92-.22,4.78.1.57.21,1.2.58,1.74.35.52.99.93,1.88.8.71-.1,1.44-.91,2.02-1.66.58-.77,1.05-1.38.99-1.45Z"/>
      <path class="cls-1" d="M97.11,252.9s-.21-.07-.34-.24c-.14-.18-.24-.38-.32-.73-.16-.65-.11-1.68-.02-2.81.16-2.19.52-4.35.91-6.5.35-1.86,1.32-3.68,1.71-5.62.4-1.95.19-4.04-1.68-6.97-.06-.09-.4-.21-.41-.15-1.11,4.49-2.55,8.65-3.74,13.09-.64,2.39-1.27,4.79-1.66,7.33-.17,1.36-.27,3.17.79,5.14.32.57.68,1.18,1.28,1.57.58.39,1.43.54,2.23.02.64-.41.83-1.5.94-2.44.06-.47.12-.9.18-1.21.06-.31.13-.5.12-.49Z"/>
      <path class="cls-1" d="M105.37,260.04v.02s.01-.05.01-.05l.08-.15s-.04,0-.08-.04c-.09-.08-.23-.27-.35-.53-.24-.54-.39-1.2-.44-2.01-.15-1.76-.15-3.53-.14-5.29.02-1.53.64-3.1.62-4.69,0-1.61-.66-3.26-3.11-5.46-.08-.07-.43-.13-.43-.08-.08,3.81-.65,7.34-1.08,11.08-.11,1-.23,2.02-.32,3.04-.04.51-.09,1.03-.12,1.54l-.04.78c0,.3,0,.6.03.91.12,1.27.37,2.59,1.43,4.1.35.46.74.98,1.38,1.26.61.27,1.42.25,2.02-.4.48-.52.51-1.61.5-2.56,0-.47,0-.91.02-1.23,0-.08.01-.15.02-.21,0-.07.02-.12,0-.08,0,.03,0,.01,0,.03Z"/>
      <path class="cls-1" d="M117.8,265.63c-1.18-.19-2.37-1.3-3-2.67-.64-1.34-.84-3.04-.88-4.83-.04-1.57.63-3.29.55-5.21-.04-.96-.28-1.96-.9-2.92-.62-.95-1.64-1.86-3.18-2.43-.1-.04-.45.04-.43.08.64,1.7.7,3.64.57,5.56-.13,1.93-.46,3.91-.55,6.02-.04,1.14-.04,2.32.15,3.54.17,1.21.56,2.52,1.19,3.69.66,1.23,1.61,2.36,2.87,3.29.38.29.77.62,1.25.73.46.12,1.02.01,1.57-.6.44-.48.67-1.54.79-2.48.11-.94.17-1.75.02-1.77Z"/>
      <path class="cls-1" d="M226.68,229.47c-1.92-2.66-3.14-5.73-4.49-8.69-.59-1.28-.71-2.86-1.45-4.15-.75-1.3-2.12-2.31-5.31-2.68-.1-.01-.43.12-.41.16,1.83,2.85,2.88,5.88,3.86,9.06.53,1.71.98,3.48,1.55,5.21.3.9.66,1.76,1.01,2.64.21.54.19,1.23,1.67.91,1.17-.25,3.82-2.11,3.56-2.46Z"/>
      <path class="cls-1" d="M228.23,236.05c-1.72-3.57-3.31-7.22-5.62-10.48-.99-1.39-1.73-3.17-3.1-4.4-1.36-1.22-3.34-1.88-6.41-.76-.1.04-.32.31-.28.34,3.14,1.78,5.41,4.66,7.02,7.83.87,1.71,1.5,3.54,2.07,5.35.29.94.62,1.85.87,2.78.16.58.02,1.24,1.55,1.2,1.21-.02,4.15-1.37,3.91-1.86Z"/>
      <path class="cls-1" d="M224.82,248.9c-.77-4.81-2.65-9.27-5.42-12.96-2.32-3.14-4.16-7.75-10.66-5.88-.1.03-.33.31-.28.34,3.53,2.21,6.38,5.21,8.3,8.72,1.03,1.88,1.71,3.92,2.12,5.89.21,1.02.4,2.02.46,3.01.02.63-.26,1.2,1.2,1.62,1.17.36,4.37-.04,4.27-.73Z"/>
      <path class="cls-1" d="M218.79,255.8c-.16-4.89-.73-9.71-2.08-14.26-1.14-3.88-.92-8.95-7.67-10.24-.11-.02-.43.14-.39.19,2.37,3.76,3.8,7.9,4.52,12.18.39,2.3.49,4.63.46,6.88-.02,1.17-.01,2.32-.13,3.45-.05.71-.45,1.35.97,2.02,1.12.54,4.35.46,4.33-.22Z"/>
      <path class="cls-1" d="M211.31,266.29c.67-4.77.43-9.56-.74-13.99-.98-3.77-.74-8.7-7.44-9.73-.11-.02-.42.15-.39.19,2.32,3.52,3.69,7.45,4.21,11.5.28,2.17.21,4.36-.06,6.41-.14,1.06-.26,2.1-.54,3.1-.14.63-.64,1.11.66,1.97,1.02.69,4.2,1.22,4.29.54Z"/>
      <path class="cls-1" d="M204.22,267.59c-.59-3.3-.66-6.66-1.21-9.98-.46-2.81.88-6.57-5.38-7.9-.1-.02-.44.08-.42.12,1.49,2.88,1.93,6.01,1.98,9.19.03,1.71-.13,3.44-.25,5.16-.04.89-.08,1.76-.12,2.65-.03.54-.36,1.1,1.11,1.44,1.16.27,4.36-.21,4.28-.66Z"/>
      <path class="cls-1" d="M190.83,273.53c.76-3.49,1.78-6.94,2.08-10.54.13-1.53.7-3.19.47-4.84-.23-1.63-1.27-3.25-4.3-4.31-.1-.03-.45.03-.43.07,1.14,3.09.98,6.39.21,9.52-.41,1.69-1.07,3.32-1.73,4.91-.35.82-.64,1.65-1.01,2.44-.22.5-.73.88.5,1.75.97.7,4.11,1.48,4.21,1Z"/>
      <path class="cls-1" d="M162.32,276.09c-.07-2.63.41-5.23.45-7.86.04-2.23,2.05-4.94-3.83-6.83-.09-.03-.45,0-.44.03.91,2.42.77,4.89.26,7.34-.27,1.32-.72,2.63-1.11,3.92-.2.67-.35,1.35-.54,2.02-.12.41-.52.79.88,1.27,1.11.38,4.34.47,4.33.11Z"/>
      <path class="cls-1" d="M142.2,275.48c-.7-2.99-.4-6.1-.12-9.11.12-1.31.83-2.61.89-3.99.06-1.39-.52-2.87-2.89-5.03-.08-.07-.42-.15-.42-.11-.18,3.33-.92,6.33-1.62,9.53-.38,1.72-.8,3.47-1.04,5.27-.12.93-.16,1.87-.2,2.81-.03.58-.32,1.21,1.16,1.49,1.17.22,4.33-.48,4.24-.87Z"/>
      <path class="cls-1" d="M132.9,274.97c-.49-3.27-.18-6.59-.06-9.88.05-1.42.65-2.9.56-4.4-.09-1.51-.87-3.04-3.58-4.79-.09-.06-.44-.08-.44-.03.39,3.38-.02,6.58-.57,9.88-.29,1.77-.69,3.56-.97,5.37-.14.94-.21,1.88-.3,2.82-.06.58-.4,1.18,1.06,1.58,1.15.32,4.36-.12,4.29-.56Z"/>
      <path class="cls-1" d="M123.31,273.06c-.82-3.17-.74-6.47-.74-9.7,0-1.41.56-2.87.46-4.34-.1-1.48-.88-2.98-3.54-4.8-.08-.06-.44-.09-.44-.04.31,3.43-.07,6.64-.48,10-.22,1.8-.51,3.64-.65,5.5-.07.96-.06,1.92-.06,2.89,0,.59-.27,1.24,1.22,1.5,1.18.2,4.32-.58,4.21-1Z"/>
      <path class="cls-1" d="M155.59,279.63c-1.26-1.29-2.16-2.95-2.75-4.74-.6-1.79-.93-3.68-1.15-5.61-.41-3.41,1.84-7.15-3.71-10.99-.09-.06-.45-.06-.44,0,.54,4.14.15,8.18.31,12.47.09,2.31.3,4.7.99,7.08.36,1.23.88,2.43,1.5,3.61.38.71.61,1.64,2.17,1.23,1.2-.34,3.4-2.73,3.08-3.04Z"/>
      <path class="cls-1" d="M169.59,278.33c-.83-3.01-.84-6.17-1.01-9.26-.07-1.34.4-2.78.19-4.18-.21-1.41-1.11-2.79-3.93-4.28-.09-.05-.45-.05-.44,0,.64,3.19.48,6.25.23,9.44-.13,1.71-.36,3.45-.46,5.21-.05.91-.02,1.81-.02,2.72,0,.56-.27,1.17,1.22,1.38,1.18.16,4.31-.64,4.2-1.04Z"/>
      <path class="cls-1" d="M177.65,277.62c.16-2.78.71-5.53.65-8.34-.02-1.2.41-2.53.07-3.79-.34-1.25-1.46-2.41-4.5-2.93-.1-.02-.44.06-.43.09,1.24,2.28,1.31,4.84.88,7.31-.23,1.34-.68,2.64-1.12,3.91-.22.66-.4,1.32-.63,1.96-.14.4-.57.73.78,1.32,1.07.47,4.28.85,4.3.46Z"/>
      <path class="cls-1" d="M184.31,277.53c.59-3.2,1.32-6.4,1.22-9.69-.04-1.4.32-2.97-.13-4.43-.45-1.44-1.74-2.74-4.86-3.04-.1,0-.43.11-.41.15,1.58,2.41,1.86,5.35,1.43,8.13-.23,1.5-.73,2.96-1.26,4.34-.28.72-.51,1.43-.82,2.12-.18.43-.66.74.61,1.52,1,.62,4.15,1.36,4.23.91Z"/>
      <path class="cls-1" d="M198.67,206.74c-1.14-1.15-1.72-2.7-2.55-4.05-.74-1.21.3-3.48-5.43-1.86-.09.03-.4.21-.38.22,1.5,1.03,2.15,2.47,2.62,4.09.26.87.4,1.83.62,2.75.12.48.29.92.43,1.38.09.28-.06.74,1.25.11,1.03-.5,3.59-2.47,3.44-2.62Z"/>
      <path class="cls-1" d="M201.64,202.86c-1.52-.95-2.4-2.6-3.24-4.1-.38-.67-.25-1.59-.72-2.23-.48-.66-1.58-1.03-4.6-1.29-.1,0-.44.08-.42.11,1.25,1.91,1.83,3.77,2.54,5.84.38,1.1.75,2.29,1.31,3.41.29.58.65,1.11,1.02,1.66.22.34.29.89,1.46.01.92-.7,2.85-3.3,2.66-3.41Z"/>
      <path class="cls-1" d="M204.33,200.23c-1.29-2.07-2.02-4.42-3.08-6.62-.91-1.89-.12-4.94-6.21-4.15-.1.01-.41.18-.38.21,1.76,1.74,2.63,3.9,3.25,6.2.33,1.24.52,2.55.78,3.83.13.66.32,1.3.47,1.95.09.4-.07.92,1.37.62,1.14-.24,3.98-1.77,3.81-2.05Z"/>
      <path class="cls-1" d="M210.07,192.14c-2.22-1.38-3.84-3.49-5.43-5.5-.7-.88-.96-2.13-1.76-2.99-.8-.87-2.15-1.36-5.27-1.12-.1,0-.41.18-.38.21,1.97,2.14,3.28,4.45,4.71,6.91.77,1.32,1.52,2.7,2.43,4,.47.67,1,1.29,1.54,1.92.32.39.5,1,1.71.12.95-.69,2.74-3.39,2.46-3.56Z"/>
      <path class="cls-1" d="M214.42,186.8c-2.4-1.54-4.32-3.68-6.36-5.64-.88-.85-1.44-2.13-2.48-2.9-1.04-.78-2.57-1.06-5.55-.05-.09.03-.35.28-.31.3,2.5,1.61,4.31,3.72,6.08,6.02.95,1.23,1.84,2.56,2.82,3.82.51.65,1.06,1.25,1.61,1.87.33.38.49.99,1.71.13.96-.68,2.8-3.34,2.48-3.55Z"/>
      <path class="cls-1" d="M220.6,183.23c-.68-1.19-1.67-1.86-2.46-2.31-.81-.45-1.54-.73-2.19-1-1.18-.48-2.24-1.03-3.33-1.59-.95-.48-1.65-1.48-2.67-1.9-1.04-.43-2.41-.29-5.14,1.21-.09.05-.3.33-.27.35,2.59,1.1,4.63,2.61,6.86,4.2.6.43,1.21.86,1.82,1.3.62.44,1.3.85,1.77,1.21.5.37.89.72.89.94,0,.03-.03.07-.03.09,0,0-.02.02,0,0l.06-.06.12-.1c.2-.11-.06-.04.73-.35.53-.19,1.6-.46,2.47-.81.88-.34,1.55-.87,1.36-1.19Z"/>
      <path class="cls-1" d="M113.18,213.75c1-2.81,2.7-5.28,4.21-7.82.33-.55.78-1.05,1.22-1.56.44-.51.87-1.06,1.11-1.58.25-.54.31-1.09.23-1.88-.07-.79-.3-1.86-.15-3.51,0-.1-.15-.42-.2-.39-1.67,1.2-2.48,2.65-3.34,3.9-.82,1.26-1.71,2.43-2.67,3.61-1.02,1.27-2.14,2.5-3.17,3.8-.53.68-1,1.39-1.5,2.09-.3.43-.87.75.25,1.76.88.79,3.9,1.96,4.03,1.58Z"/>
      <path class="cls-1" d="M104.23,211.66c1.04-.43,1.91-1.07,2.58-1.72.68-.65,1.2-1.3,1.68-1.92.95-1.27,1.63-2.22,2.43-3.25.68-.88,1.82-1.44,2.46-2.42.65-.99.79-2.41-.21-5.37-.03-.09-.28-.35-.3-.32-1.59,2.43-3.5,4.24-5.53,6.22-1.1,1.05-2.23,2.22-3.2,2.91-.5.37-.94.64-1.29.69-.11.01-.23-.05-.25.04-.03.09.03.36.13,1.07.08.57.26,1.65.53,2.55.26.91.67,1.62.97,1.51Z"/>
      <path class="cls-1" d="M101.99,210.07c.28-1.05,1.08-2,2.13-2.85,1.05-.86,2.32-1.64,3.62-2.58,1.1-.81,2.71-1.34,3.79-2.72.53-.67.9-1.57.85-2.6-.04-.53-.15-1.06-.43-1.61-.29-.56-.71-1.11-1.27-1.61-.07-.06-.41-.17-.42-.14-.04,1.28-.77,2.52-1.79,3.47-1.03.97-2.31,1.7-3.67,2.39-1.46.75-3.08,1.4-4.67,2.52-.81.59-1.59,1.31-2.28,2.21-.45.5-1.09,1.08.02,2.14.89.8,4.05,1.59,4.11,1.37Z"/>
      <path class="cls-1" d="M94.03,208.98c2.45-1.2,5.02-2.18,7.24-3.8.94-.69,2.26-1.12,3.04-2.14.77-1.01.97-2.62-.63-5.24-.05-.08-.33-.3-.35-.27-.83,2.28-2.75,3.82-4.88,4.75-1.15.51-2.41.79-3.62,1.04-.63.13-1.22.29-1.84.39-.38.07-.84-.17-.66,1.29.14,1.16,1.34,4.15,1.69,3.98Z"/>
      <path class="cls-1" d="M90.8,204.23c.78.14,1.5,0,2.01-.19.53-.19.92-.42,1.25-.63.33-.22.61-.43.86-.62l.62-.47c.79-.57,1.62-1.07,2.42-1.61.7-.47,1.71-.51,2.36-1.12.66-.62.94-1.83.49-4.83-.01-.1-.18-.41-.2-.39-1.54,1.64-3.33,2.49-5.32,3.32-1.06.44-2.21.82-3.31,1.32-.24.09-.43.16-.59.18-.08.01-.14,0-.18,0-.02,0-.04-.05-.03-.01.08.15.15.35.2.47.27.72.16,1.04.18.95v-.03c-.06.16-.14.34-.22.52-.2.42-.42.87-.59,1.31-.36.86-.4,1.74.05,1.82Z"/>
      <path class="cls-1" d="M93.65,197.06c.52-1.1,1.65-1.69,2.58-2.35.42-.3,1.13-.14,1.47-.57.36-.44.35-1.47-.12-4.41-.01-.09-.15-.42-.17-.4-1.1,1.31-2.34,1.82-3.82,2.37-.79.29-1.68.54-2.51.93-.43.2-.82.47-1.22.73-.25.15-.73.16.27,1.21.8.82,3.47,2.64,3.53,2.51Z"/>
      <path class="cls-1" d="M213.06,225.56c-2-4.04-3.23-8.39-4.61-12.66-.6-1.85-.71-3.97-1.46-5.87-.76-1.91-2.17-3.59-5.43-4.72-.1-.04-.44.08-.42.13,1.83,4.11,2.87,8.35,3.84,12.71.52,2.35.95,4.74,1.51,7.1.29,1.23.65,2.43.99,3.64.2.75.16,1.59,1.74,1.66,1.25.05,4.12-1.45,3.85-2Z"/>
      <path class="cls-1" d="M210.23,205.12c-1.48-1.85-2.27-4.12-3.2-6.26-.4-.93-.32-2.12-.87-3.04-.56-.93-1.75-1.6-4.83-1.81-.1,0-.44.1-.42.13,1.45,2.15,2.1,4.41,2.69,6.85.32,1.31.56,2.68.92,4.03.19.7.45,1.36.69,2.04.14.42.06.99,1.47.54,1.11-.36,3.73-2.25,3.54-2.49Z"/>
      <path class="cls-1" d="M218.89,230.41c-.94-.56-1.73-1.82-2.42-3.3-.72-1.47-1.33-2.99-1.95-4.49-.54-1.31-.57-2.88-1.21-4.22-.65-1.35-1.92-2.46-5.06-3.2-.1-.02-.44.08-.42.12,1.54,3.12,2.4,6.28,3.32,9.58.5,1.78.94,3.59,1.58,5.41.35.96.85,1.94,1.54,2.96.4.6.82,1.5,2.22.74.55-.3,1.18-1.19,1.67-2,.48-.82.86-1.52.74-1.59Z"/>
      <path class="cls-1" d="M197.08,250.06c-1.6-5.41-2.38-11.02-3.29-16.58-.39-2.4-.27-5.04-.81-7.55-.54-2.51-1.75-4.89-4.86-6.93-.1-.06-.45,0-.43.08,1.34,5.41,1.89,10.82,2.37,16.35.26,2.98.43,5.98.73,8.97.16,1.55.39,3.09.61,4.64.13.95-.01,1.96,1.58,2.44,1.26.38,4.31-.7,4.1-1.43Z"/>
      <path class="cls-1" d="M199.34,267.28c-.61-2.65-.66-5.38-1.13-8.05-.4-2.28,1.07-5.37-5.07-6.25-.1-.01-.44.08-.42.11,1.35,2.31,1.68,4.86,1.67,7.45,0,1.4-.18,2.82-.3,4.22-.06.73-.07,1.44-.12,2.17-.03.45-.35.92,1.12,1.11,1.16.16,4.34-.4,4.26-.76Z"/>
      <path class="cls-1" d="M208.76,256.03c-1.46-3.22-2.34-6.66-3.57-9.97-1.06-2.85-.35-6.82-6.79-7.47-.1-.01-.43.14-.4.18,1.95,2.89,2.97,6.11,3.73,9.46.41,1.8.67,3.66.99,5.49.17.95.4,1.88.59,2.82.12.58-.04,1.25,1.48,1.24,1.2,0,4.16-1.3,3.97-1.74Z"/>
      <path class="cls-1" d="M210.5,246.85c-2.74-3.44-4.88-7.3-7.23-11.01-2.04-3.22-2.47-7.89-9.28-8.1-.11,0-.4.2-.36.24,2.84,3.3,4.89,7,6.82,10.87,1.04,2.08,1.98,4.23,3,6.34.53,1.09,1.13,2.15,1.69,3.22.35.66.46,1.48,2.01,1.19,1.22-.23,3.72-2.29,3.35-2.75Z"/>
      <path class="cls-1" d="M212.32,239.11c-2.31-3.61-4.08-7.53-6.17-11.27-1.8-3.22-2.08-7.9-8.84-8.07-.11,0-.4.2-.37.24,2.73,3.18,4.59,6.83,6.2,10.65.87,2.06,1.61,4.19,2.4,6.29.41,1.09.88,2.14,1.31,3.22.27.66.27,1.45,1.83,1.31,1.23-.11,3.94-1.89,3.63-2.37Z"/>
      <path class="cls-1" d="M211.3,224.31c-1.71-2.92-2.85-6.13-4.33-9.17-1.27-2.62-.9-6.51-7.32-6.41-.1,0-.41.18-.38.21,2.16,2.55,3.43,5.53,4.45,8.65.55,1.68.95,3.44,1.43,5.16.24.89.55,1.76.81,2.64.16.54.06,1.2,1.57,1.03,1.19-.14,4.01-1.71,3.78-2.11Z"/>
      <path class="cls-1" d="M205.51,221.01c-1.57-2.29-2.59-4.89-3.94-7.32-1.16-2.09-.7-5.46-6.87-4.58-.1.01-.4.2-.37.23,2.01,1.92,3.16,4.31,4.06,6.86.48,1.38.83,2.83,1.24,4.24.21.73.48,1.44.71,2.16.14.45.03,1.02,1.48.68,1.14-.27,3.89-1.97,3.68-2.28Z"/>
      <path class="cls-1" d="M110.49,233.5c.93-3.36,2.52-6.49,3.85-9.71,1.15-2.8,4.35-5.04.25-10.04-.06-.08-.4-.21-.41-.16-.67,3.44-2.15,6.45-3.86,9.44-.92,1.61-1.96,3.18-2.92,4.79-.5.83-.93,1.7-1.4,2.55-.29.52-.84.94.33,1.92.92.77,4.03,1.67,4.16,1.21Z"/>
      <path class="cls-1" d="M99.94,230.03c1.81-2.68,3.89-5.18,5.43-8.05.66-1.23,1.78-2.36,2.18-3.82.39-1.44.05-3.19-2.3-5.3-.07-.07-.42-.16-.42-.12-.16,2.99-1.52,5.66-3.32,7.96-.97,1.25-2.13,2.36-3.26,3.43-.59.56-1.13,1.14-1.73,1.67-.36.34-.95.46-.1,1.7.66.98,3.27,2.89,3.52,2.52Z"/>
      <path class="cls-1" d="M93.83,218.13c1.06-1.5,2.58-2.57,3.83-3.9,1.08-1.14,3.8-1.05.56-6.1-.05-.08-.32-.31-.33-.29-.59,1.84-1.9,3-3.44,3.96-.83.52-1.77.93-2.65,1.4-.46.24-.87.52-1.32.78-.27.16-.75.11.11,1.29.68.93,3.1,3.06,3.24,2.86Z"/>
      <path class="cls-1" d="M88.77,213.67c.25-1.22,1.13-2.16,1.73-3.2.26-.46.99-.66,1.1-1.23.12-.58-.38-1.52-2.43-3.65-.06-.07-.36-.27-.36-.25-.09,1.55-.89,2.5-1.94,3.43-.56.5-1.25.95-1.86,1.46-.32.27-.58.57-.87.85-.18.17-.62.25.61.99.98.58,3.99,1.75,4.02,1.6Z"/>
      <path class="cls-1" d="M123.38,249.33c.54-3.84,2.16-7.43,3.84-10.89.73-1.5,2.03-2.8,2.76-4.38.75-1.59.93-3.49-.32-6.6-.04-.1-.34-.3-.36-.25-1.84,3.67-4,6.89-6.1,10.36-1.13,1.86-2.29,3.76-3.27,5.77-.5,1.04-.93,2.12-1.34,3.21-.26.66-.78,1.29.49,2.19,1.01.7,4.22,1.09,4.29.59Z"/>
      <path class="cls-1" d="M127.2,258.93c.41-3.82,1.5-7.52,2.29-11.27.69-3.25,3.5-6.42-1.42-10.81-.08-.07-.43-.13-.43-.08-.07,3.81-1.04,7.37-2.25,10.94-.65,1.92-1.44,3.82-2.13,5.74-.36,1-.66,2.01-.99,3.01-.21.62-.69,1.18.62,1.99,1.03.64,4.25.99,4.31.47Z"/>
      <path class="cls-1" d="M131.18,267.22c-.11-3.63.71-7.2,1.46-10.71.33-1.53,1.22-3.01,1.47-4.62.25-1.63-.14-3.41-2.33-5.87-.07-.08-.41-.18-.42-.13-.52,3.74-1.65,7.13-2.82,10.66-.63,1.9-1.33,3.81-1.87,5.78-.28,1.02-.48,2.06-.69,3.1-.14.64-.54,1.27.86,1.89,1.11.49,4.35.38,4.33-.1Z"/>
      <path class="cls-1" d="M126.74,269.74c-.25-1.6.13-3.2.14-4.81,0-1.38,2.06-2.96-3.76-4.26-.09-.02-.45,0-.44.01.82,1.54.65,3.07.19,4.61-.25.83-.65,1.66-.99,2.49-.17.43-.28.86-.43,1.29-.09.27-.47.52.96.76,1.13.19,4.36.11,4.32-.11Z"/>
      <path class="cls-1" d="M205.28,248.87c-1.98-.99-3.42-2.76-4.81-4.41-.61-.73-.8-1.82-1.5-2.51-.72-.71-1.97-1.02-5.04-.67-.1.01-.41.18-.39.21,1.82,1.86,2.96,3.86,4.26,6.02.7,1.15,1.38,2.38,2.23,3.52.44.59.94,1.12,1.45,1.66.3.34.48.9,1.58-.09.86-.78,2.46-3.6,2.2-3.72Z"/>
      <path class="cls-1" d="M209.15,232.16c-2.95-1.6-5.46-3.87-8.05-5.96-1.12-.91-1.96-2.29-3.24-3.13-1.28-.85-2.99-1.15-6.02-.05-.1.04-.33.31-.29.33,2.97,1.74,5.32,4.02,7.66,6.47,1.26,1.31,2.47,2.72,3.77,4.04.67.68,1.4,1.31,2.1,1.96.43.4.72,1.03,1.92.11.95-.73,2.52-3.56,2.13-3.77Z"/>
      <path class="cls-1" d="M213.53,256.67c.03-3.97.68-7.9.97-11.85.25-3.41,2.56-7.15-3.01-10.76-.09-.06-.45-.06-.44,0,.55,3.86.12,7.62-.61,11.4-.39,2.03-.94,4.06-1.42,6.08-.25,1.05-.43,2.11-.66,3.16-.14.65-.56,1.26.82,1.95,1.09.54,4.33.57,4.33.03Z"/>
      <path class="cls-1" d="M188.26,266.66c.6-3.95,1.68-7.82,2.28-11.78.51-3.37,3.02-7.17-2.48-10.88-.09-.06-.44-.06-.44-.01.48,3.82-.14,7.55-1.17,11.2-.55,1.97-1.29,3.9-1.99,5.82-.34,1-.69,2-1.03,2.99-.22.61-.72,1.14.55,2.01,1.01.69,4.2,1.18,4.28.65Z"/>
      <path class="cls-1" d="M182.18,264.81c.44-3.02,1.28-5.98,1.55-9.04.12-1.31.71-2.7.53-4.11-.18-1.4-1.14-2.81-4.08-3.87-.09-.03-.45,0-.44.04.92,2.73.67,5.56-.05,8.26-.39,1.46-.99,2.88-1.56,4.27-.3.72-.54,1.45-.85,2.16-.18.44-.65.79.64,1.52,1.02.58,4.2,1.19,4.26.77Z"/>
      <path class="cls-1" d="M177.51,269.07c-.38-3.37-.01-6.76.12-10.13.11-2.95,2.38-5.97-3.12-9.32-.09-.05-.44-.07-.44-.02.48,3.41.09,6.66-.47,10-.3,1.79-.73,3.6-1.04,5.41-.16.94-.26,1.89-.38,2.84-.08.58-.43,1.17,1.01,1.63,1.14.36,4.36.04,4.31-.41Z"/>
      <path class="cls-1" d="M173.22,260.63c-1.89-2.47-2.96-5.43-4.02-8.3-.35-.94-.41-2.03-.65-3.06-.24-1.03-.68-1.98-1.85-2.79l-3.44,1.16c.87.36,2.01.57,3.57.54.1,0,.41-.17.38-.21-.44-.53-.85-1.07-1.22-1.63l-2.27.77c.86,2.4,1.4,4.82,2,7.34.41,1.71.77,3.48,1.31,5.21.28.9.64,1.76,1,2.63.21.54.21,1.23,1.68.88,1.16-.28,3.75-2.22,3.5-2.54Z"/>
      <path class="cls-1" d="M163.78,262.96c-.24-2.81-.03-5.64-.38-8.46-.15-1.2.16-2.58-.28-3.82-.44-1.23-1.64-2.31-4.72-2.68-.1-.01-.44.09-.42.12,1.4,2.29,1.69,4.89,1.53,7.48-.09,1.4-.38,2.8-.65,4.17-.14.71-.22,1.41-.37,2.12-.08.43-.47.84.96,1.24,1.13.32,4.36.22,4.32-.17Z"/>
      <path class="cls-1" d="M155.49,265.86c.16-3.14.87-6.21,1.14-9.35.23-2.67,2.47-5.71-3.23-8.48-.09-.04-.45-.04-.44,0,.69,2.99.34,5.94-.38,8.85-.39,1.57-.95,3.11-1.45,4.66-.26.8-.47,1.6-.72,2.4-.15.49-.59.93.76,1.57,1.07.51,4.29.78,4.31.35Z"/>
      <path class="cls-1" d="M147.41,265.97c.24-3.06,1.18-6,1.82-8.99.56-2.61,3.22-4.97-1.78-8.84-.08-.06-.43-.13-.43-.09.05,3.11-.78,5.95-1.85,8.8-.57,1.53-1.28,3.05-1.9,4.59-.32.8-.57,1.61-.86,2.42-.18.5-.64.94.7,1.63,1.06.54,4.27.89,4.3.48Z"/>
      <path class="cls-1" d="M144.12,265c-.5-3.34,0-6.72.52-10.01.23-1.41,1.03-2.9,1.2-4.17.1-.65.04-1.28-.2-2.1-.23-.83-.65-1.88-.88-3.57-.02-.11-.26-.37-.3-.32-1.46,1.73-2,3.59-2.5,5.3-.46,1.69-.93,3.38-1.39,5.09-.5,1.84-1.05,3.71-1.41,5.64-.19,1-.29,2.01-.39,3.02-.06.62-.4,1.27,1.07,1.71,1.16.34,4.36-.15,4.29-.58Z"/>
      <path class="cls-1" d="M137.22,266.34c-.88-4.21-.4-8.58.42-12.75.36-1.82,1.36-3.57,1.8-5.44.45-1.89.32-3.93-1.35-6.97-.05-.1-.38-.24-.4-.18-1.41,4.39-2.96,8.48-4.17,12.89-.65,2.37-1.24,4.8-1.55,7.31-.16,1.3-.21,2.61-.21,3.93-.02.81-.27,1.67,1.24,2.16,1.19.37,4.34-.42,4.23-.97Z"/>
      <path class="cls-1" d="M151.13,264.76c-2.87-3.78-5.17-7.95-7.71-11.95-2.2-3.46-2.88-8.45-9.84-8.76-.11,0-.4.21-.36.25,3.07,3.51,5.33,7.46,7.42,11.58,1.13,2.22,2.15,4.52,3.24,6.77.57,1.17,1.19,2.3,1.79,3.45.37.71.49,1.57,2.07,1.35,1.25-.17,3.77-2.2,3.39-2.71Z"/>
      <path class="cls-1" d="M159.99,263.41c-2.74-4.02-4.77-8.46-6.94-12.8-.94-1.87-1.44-4.11-2.56-6.02-1.11-1.92-2.83-3.51-6.29-4.24-.11-.02-.43.14-.39.2,2.59,4.08,4.41,8.41,6.18,12.88.95,2.4,1.81,4.86,2.8,7.28.51,1.25,1.09,2.47,1.64,3.7.34.76.44,1.65,2.04,1.54,1.27-.09,3.88-2,3.52-2.54Z"/>
      <path class="cls-1" d="M167.01,263.81c-1.34-4.53-2.42-9.16-4.18-13.58-.75-1.89-1.16-4.12-2.29-5.98-1.12-1.86-2.96-3.35-6.4-3.55-.11,0-.4.19-.37.24,2.84,3.41,4.58,7.5,5.73,11.75.62,2.29,1,4.65,1.36,6.98.19,1.21.41,2.4.57,3.6.1.74-.1,1.53,1.45,1.85,1.22.26,4.32-.69,4.13-1.31Z"/>
      <path class="cls-1" d="M177.55,264.26c-1.93-3.62-3.29-7.49-4.99-11.22-1.46-3.2-1.3-7.78-7.9-8.23-.1,0-.41.17-.38.22,2.36,3.18,3.83,6.79,5.04,10.54.65,2.02,1.16,4.1,1.73,6.14.3,1.06.65,2.09.96,3.14.19.65.12,1.39,1.68,1.37,1.24-.01,4.12-1.47,3.86-1.96Z"/>
      <path class="cls-1" d="M182.08,261.91c3.3-3.52,6.52-7.18,8.81-11.48.98-1.83,2.38-3.69,2.94-5.86.56-2.15.26-4.61-2.21-6.98-.08-.07-.43-.12-.43-.06-.07,4.33-1.81,8.44-4.31,11.92-1.35,1.88-2.97,3.55-4.63,5.09-.86.8-1.7,1.61-2.61,2.33-.55.46-1.3.65-.78,2.13.41,1.18,2.76,3.4,3.21,2.9Z"/>
      <path class="cls-1" d="M157.46,274.74c1.35-4.54,3.71-8.69,6.1-12.74,1.04-1.76,2.64-3.29,3.69-5.15,1.06-1.87,1.58-4.07.64-7.47-.03-.11-.32-.31-.36-.25-2.44,4.18-5.23,7.9-8,11.83-1.49,2.11-3.02,4.24-4.38,6.49-.71,1.17-1.33,2.37-1.96,3.59-.39.74-1.03,1.4.07,2.57.87.92,4.01,1.73,4.19,1.13Z"/>
      <path class="cls-1" d="M138.94,269.82c3.23-3.04,6.77-5.74,9.95-8.86,1.37-1.34,3.18-2.44,4.42-4.06,1.24-1.61,1.9-3.74.9-6.98-.03-.1-.32-.32-.35-.27-2.15,3.66-5.17,6.58-8.49,9.15-1.79,1.39-3.71,2.62-5.6,3.87-.97.66-1.93,1.31-2.9,1.97-.6.4-1.38.55-.95,2.06.33,1.19,2.57,3.53,3.01,3.12Z"/>
      <path class="cls-1" d="M122.39,257.46c.56-3.35,1.94-6.48,3.16-9.62.53-1.36,1.6-2.59,2.04-4.07.44-1.48.25-3.22-1.66-5.84-.06-.08-.39-.23-.4-.18-.86,3.4-2.36,6.36-4,9.41-.88,1.64-1.85,3.26-2.7,4.95-.44.88-.81,1.78-1.2,2.68-.24.55-.75,1.04.51,1.89,1,.67,4.18,1.23,4.26.78Z"/>
      <path class="cls-1" d="M114.99,259.93c-1.03-3.57-.56-7.41.35-10.95.4-1.56,1.44-2.96,1.97-4.52.54-1.59.52-3.36-.73-6.5-.04-.1-.34-.3-.36-.24-1.88,3.78-3.64,7.29-4.98,11.24-.71,2.12-1.33,4.33-1.61,6.65-.14,1.2-.16,2.41-.12,3.64,0,.75-.2,1.58,1.33,1.9,1.2.24,4.29-.77,4.16-1.22Z"/>
      <path class="cls-1" d="M109.54,251.98c-1.11-3.69-.71-7.74-.39-11.8.07-.88.28-1.79.47-2.71.19-.89.35-1.99.35-2.63,0-.67-.15-.96-.47-1.49-.08-.32-.08-.81.16-1.34.23-.53.8-1.15,1.87-1.27.13-.01.32-.32.22-.38-.92-.57-1.97-.53-2.7-.27-.76.26-1.36.69-1.84,1.26-.92,1.18-1.05,2.41-1.19,3.46-.21,2.05-.55,4.01-.92,6.06-.39,2.2-.85,4.43-1.04,6.77-.09,1.21-.08,2.44-.02,3.69.04.76-.18,1.61,1.37,1.94,1.21.24,4.28-.81,4.14-1.28Z"/>
      <path class="cls-1" d="M105.29,246.02c-1.4-2.76-1.54-6-1.67-9.21-.13-2.83,2.06-5.94-3.6-9.02-.09-.05-.45-.04-.44,0,.65,3.34.33,6.6.08,10.02-.14,1.84-.31,3.74-.21,5.7.05,1.01.2,2.02.4,3.05.1.62,0,1.38,1.53,1.34,1.2-.04,4.08-1.53,3.91-1.87Z"/>
      <path class="cls-1" d="M100.74,227.91c-1.15-2.51-1.45-5.3-1.82-8-.16-1.18.23-2.47-.05-3.68-.28-1.23-1.22-2.39-4.08-3.7-.09-.04-.45-.03-.44,0,.72,2.91.72,5.68.71,8.62,0,1.57-.08,3.19.01,4.82.05.84.17,1.67.29,2.51.06.51-.12,1.13,1.38,1.07,1.18-.05,4.16-1.32,4.01-1.64Z"/>
      <path class="cls-1" d="M110.49,227.5c-.1-3.26.21-6.53-.05-9.81-.11-1.4.23-2.97-.18-4.42-.42-1.45-1.6-2.78-4.69-3.46-.1-.02-.44.07-.42.11,1.38,2.77,1.62,5.81,1.37,8.82-.13,1.63-.47,3.24-.79,4.83-.17.82-.28,1.64-.46,2.46-.1.5-.51.97.9,1.49,1.11.42,4.34.43,4.33-.02Z"/>
      <path class="cls-1" d="M119.16,247.95c-.53-4.49-.43-9.04-.71-13.55-.23-3.9,1.54-8.42-4.5-11.8-.1-.05-.45,0-.43.05,1.09,4.31,1.19,8.64,1,13.04-.1,2.37-.36,4.74-.54,7.12-.1,1.23-.13,2.46-.2,3.69-.05.76-.38,1.52,1.09,2.09,1.16.45,4.36-.03,4.29-.64Z"/>
      <path class="cls-1" d="M117,251.83c-.84-3.43-1.18-6.96-2.01-10.4-.69-2.92.32-6.94-6.07-7.94-.1-.02-.43.11-.41.15,1.75,2.92,2.47,6.17,2.78,9.5.17,1.8.15,3.62.18,5.42.03.93.06,1.86.09,2.79.01.57-.27,1.18,1.22,1.44,1.18.21,4.34-.5,4.22-.96Z"/>
      <path class="cls-1" d="M122.59,264.44c-.7-1.59-.79-3.35-1.24-5.02-.39-1.43,1.14-3.61-4.83-3.41-.09,0-.43.11-.42.13,1.23,1.38,1.51,3.01,1.5,4.73,0,.93-.16,1.9-.24,2.84-.04.49-.02.97-.05,1.45-.01.3-.31.67,1.14.54,1.14-.1,4.23-1.05,4.14-1.26Z"/>
      <path class="cls-1" d="M113.98,264.53c-1.81-3.51-2.96-7.31-4.33-11.01-1.2-3.21-.51-7.45-7.02-8.73-.1-.02-.43.11-.41.16,1.96,3.42,3.06,7.06,4.01,10.84.51,2.03.9,4.12,1.39,6.18.26,1.07.58,2.11.87,3.17.18.65.1,1.41,1.64,1.38,1.22-.02,4.09-1.52,3.85-1.99Z"/>
      <path class="cls-1" d="M99.59,244.89c-1.28-1.03-2.04-3.57-2.78-6.01-.72-2.44-1.28-4.92-1.83-7.4-.47-2.14-.38-4.53-.9-6.77-.25-1.13-.68-2.22-1.4-3.28-.37-.53-.8-1.05-1.35-1.56-.13-.13-.28-.27-.41-.34-.13-.11-.23-.29-.3-.49-.06-.21-.12-.44,0-.76.08-.15.21-.37.62-.45.39-.09.86.15,1.05.29.24.19.49-.12.22-.42-.19-.18-.44-.38-.82-.48-.19-.05-.36-.07-.54-.06-.19,0-.34.04-.46.08-.53.18-.72.42-.87.59-.3.36-.41.65-.5.99-.04.17-.08.34-.09.55,0,.09,0,.22,0,.33,0,.09.02.09.02.15l.09.47c.12.63.23,1.26.35,1.89.22,1.26.41,2.51.6,3.76.35,2.52.7,5.04,1.05,7.58.39,2.74.77,5.52,1.35,8.27.3,1.4.68,2.9,1.43,4.53.23.5.45,1.05.87,1.46.41.41,1.03.67,1.88.48.69-.16,1.4-.98,1.93-1.77.53-.79.93-1.49.77-1.62Z"/>
      <path class="cls-1" d="M99.64,225.27c.52-3.38,1.8-6.57,2.88-9.79.47-1.41,1.44-2.65,1.83-3.94.2-.66.25-1.34.1-2.23-.15-.89-.5-2-.95-3.59-.03-.1-.29-.34-.32-.29-1.1,1.66-1.85,3.28-2.57,4.87-.72,1.6-1.39,3.16-2.14,4.69-.8,1.66-1.71,3.31-2.51,5-.42.88-.76,1.78-1.13,2.68-.23.55-.73,1.04.54,1.87,1.01.65,4.2,1.18,4.27.73Z"/>
      <path class="cls-1" d="M91.9,219.51c.2-1.88,1.2-3.54,2.01-5.19.36-.73,1.21-1.22,1.46-2.03.26-.83-.1-1.99-1.92-4.41-.06-.08-.35-.28-.36-.25-.57,2.14-1.7,3.71-2.99,5.39-.69.9-1.48,1.79-2.17,2.77-.35.51-.63,1.05-.94,1.59-.19.33-.65.61.67,1.25,1.04.51,4.21,1.11,4.24.87Z"/>
      <path class="cls-1" d="M197.08,247.45c-.36-3.95.02-7.92.15-11.88.11-3.45,2.38-7.1-3.13-10.81-.09-.06-.44-.06-.44,0,.49,3.94.11,7.74-.46,11.62-.3,2.09-.73,4.18-1.05,6.29-.17,1.09-.26,2.19-.39,3.28-.08.67-.44,1.35,1,1.91,1.14.44,4.36.13,4.31-.4Z"/>
    </g>
  </g>
</svg>