<?xml version="1.0" encoding="UTF-8"?>
<svg id="Calque_2" data-name="Calque 2" xmlns="http://www.w3.org/2000/svg" viewBox="0 0 300 300">
  <defs>
    <style>
      .cls-1 {
        fill: #1d1d1d;
      }

      .cls-2 {
        fill: #1db4b8;
      }

      .cls-3 {
        fill: #00abaf;
      }
    </style>
  </defs>
  <circle class="cls-3" cx="100.09" cy="140.44" r="7.08"/>
  <circle class="cls-3" cx="121.32" cy="136.9" r="7.08"/>
  <circle class="cls-3" cx="142.55" cy="133.36" r="7.08"/>
  <circle class="cls-3" cx="163.79" cy="136.9" r="7.08"/>
  <circle class="cls-3" cx="181.48" cy="140.44" r="7.08"/>
  <circle class="cls-3" cx="199.18" cy="140.44" r="7.08"/>
  <path class="cls-2" d="M143.96,69.37c-1.11,3.12-2.34,6.15-3.43,9.26-1.1,3.11-2.06,6.29-2.58,9.56-.45,2.79-1.97,5.77-1.55,8.85.41,3.04,2.8,6.15,9.96,7.86.22.05,1.07-.06,1.04-.14-2.47-5.29-1.82-11.19.25-16.4,1.11-2.83,2.78-5.44,4.43-7.91.86-1.28,1.6-2.57,2.51-3.77.54-.76,1.73-1.13-1.04-3.33-2.17-1.76-9.27-4.87-9.58-3.99Z"/>
  <circle class="cls-3" cx="100.09" cy="140.44" r="7.08"/>
  <circle class="cls-3" cx="121.32" cy="136.9" r="7.08"/>
  <circle class="cls-3" cx="142.55" cy="133.36" r="7.08"/>
  <circle class="cls-3" cx="163.79" cy="136.9" r="7.08"/>
  <circle class="cls-3" cx="181.48" cy="140.44" r="7.08"/>
  <circle class="cls-3" cx="199.18" cy="140.44" r="7.08"/>
  <path class="cls-2" d="M143.96,69.37c-1.11,3.12-2.34,6.15-3.43,9.26-1.1,3.11-2.06,6.29-2.58,9.56-.45,2.79-1.97,5.77-1.55,8.85.41,3.04,2.8,6.15,9.96,7.86.22.05,1.07-.06,1.04-.14-2.47-5.29-1.82-11.19.25-16.4,1.11-2.83,2.78-5.44,4.43-7.91.86-1.28,1.6-2.57,2.51-3.77.54-.76,1.73-1.13-1.04-3.33-2.17-1.76-9.27-4.87-9.58-3.99Z"/>
  <g>
    <path class="cls-1" d="M89.98,280.04c-2.04-24.37-3.92-48.77-5.78-73.18-.92-12.21-1.85-24.41-2.77-36.62-.91-12.22-1.94-24.41-2.68-36.59-1.29-20.98-1.21-43.5,1.58-65.27.72-5.41,1.68-10.71,3.26-15.73,1.57-5,3.79-9.77,6.87-13.8,3.11-4,7.17-7.29,11.78-9.45,4.59-2.14,9.88-3.14,15.09-2.04.66.11.45-.32-.21-.52-3.03-.95-6.24-1.19-9.34-.84-3.1.35-6.09,1.27-8.86,2.59-5.53,2.64-10.25,6.85-13.53,11.95-3.32,5.06-5.44,10.75-6.88,16.51-1.43,5.77-2.24,11.64-2.84,17.49-2.52,23.45-1.62,47.09-.11,70.63,1.66,25.35,3.32,50.68,4.98,76.02l2.67,39.41c.54,8.08.79,16.02,2.77,23.16,1.56,5.64,4.56,2.89,4.01-3.71Z"/>
    <g>
      <g>
        <path class="cls-1" d="M196.78,174.57c-1.88,11.08-4.24,22.17-9.17,32.12-2.43,4.98-5.59,9.53-9.31,13.66-3.71,4.14-7.89,7.88-12.22,11.46-2.17,1.79-4.37,3.55-6.59,5.31-2.21,1.75-4.41,3.48-6.71,4.98-2.29,1.51-4.69,2.81-7.19,3.65-1.25.43-2.53.69-3.81.86-1.29.15-2.57.11-3.85-.04-2.55-.34-5.01-1.35-7.27-2.73-2.25-1.42-4.31-3.2-6.23-5.16-1.91-1.97-3.68-4.11-5.39-6.32-1.72-2.23-3.4-4.49-5.02-6.77-2.79-3.95-5.43-8.09-7.7-12.47-2.29-4.37-4.12-9.01-5.59-13.81-2.94-9.62-4.27-19.83-5.04-30.01-.76-10.19-1.02-20.43-1.68-30.36-.63-9.93-1.46-19.58-2.59-28.72-.07-.58-.29-.27-.27.32.35,10.87.7,21.73,1.04,32.58.33,10.85.48,21.72,1.55,32.57,1.06,10.82,3.13,21.68,7.32,31.84,4.16,10.2,10.51,19.26,17.2,27.91,1.85,2.32,3.78,4.59,5.98,6.65,2.19,2.05,4.61,3.94,7.39,5.27,2.75,1.39,5.88,2.1,9,2.04,1.56-.06,3.11-.3,4.61-.69,1.49-.41,2.93-.96,4.32-1.6,5.54-2.63,10.1-6.54,14.72-10.12,4.62-3.65,9.21-7.42,13.44-11.63,4.39-4.35,8.37-9.28,11.39-14.76,3.07-5.46,5.28-11.32,7-17.26,2.11-7.32,3.64-14.6,3.87-21.39.16-5.37-2.21-3.4-3.21,2.62Z"/>
        <path class="cls-1" d="M210.86,159.76c1.58-.98,2.9-2.12,4.19-3.31,1.28-1.19,2.47-2.45,3.59-3.81.56-.68,1.1-1.38,1.61-2.18.47-.76.88-1.49,1.32-2.24l1.22-2.28c.37-.77.76-1.54,1.12-2.32,2.88-6.25,4.77-12.96,5.53-19.81.32-2.95.53-6.03.49-9.15-.02-.8,0-1.52-.09-2.44-.1-.89-.3-2-1.11-3.06-.8-1.07-2.17-1.64-3.26-1.71-1.11-.09-2.06.09-2.93.34-1.72.53-3.15,1.32-4.48,2.18-1.32.86-2.54,1.82-3.66,2.84-2.22,2.05-4.15,4.38-5.35,6.91-.07.16.15.25.26.13,2.08-2.3,4.59-4.34,7.18-6.16,1.31-.9,2.65-1.74,4.05-2.45,1.39-.69,2.87-1.31,4.29-1.33.7,0,1.34.18,1.76.6.43.41.64,1.08.74,1.8.1.73.1,1.55.12,2.34.03.8.02,1.59,0,2.39-.05,3.19-.38,6.37-.95,9.51-1.22,6.77-3.67,13.26-7.04,19.16-.42.77-.89,1.52-1.35,2.27-.47.79-.89,1.38-1.44,2.05-1.06,1.31-2.3,2.55-3.57,3.71-1.61,1.41-3.28,2.5-4.39,4.07-.44.6-.45,1.33-.05,1.81.39.48,1.33.66,2.18.12Z"/>
        <path class="cls-1" d="M188.88,93.63c-5.03-.1-10.15-.52-15.34.17-2.21.3-4.69.49-6.96,1.42-2.24.91-4.25,2.61-4.85,5.24-.02.08.14.25.18.21,1.76-1.52,3.87-2.63,6.11-3.34,2.24-.72,4.6-1.07,6.97-1.18,2.56-.12,5.13.07,7.69.31,1.33.12,2.66.23,3.99.39.82.09,1.61.37,2.4-.49.62-.68.48-2.72-.2-2.74Z"/>
        <path class="cls-1" d="M99.62,90.73c5.65-1.18,11.56-.73,17.13.63,2.42.59,4.83,1.73,7.25,2.67,2.44.94,4.9,1.66,7.97,1.55.1,0,.19-.21.12-.25-5.12-2.91-10.42-5.25-16.11-6.74-3.06-.8-6.21-1.37-9.43-1.55-.83-.04-1.67-.08-2.5-.05-.84,0-1.67.03-2.51.1-1.03.04-2.08,0-2.82,1.04-.57.82.15,2.76.9,2.61Z"/>
        <path class="cls-1" d="M119.76,117.19c-.09.95-.96,1.99-2.01,2.36-1.01.41-2.17.13-3.13-.6-.95-.74-1.59-1.88-1.69-3.05-.12-1.2.22-2.5.89-3.61.58-.97,1.48-1.76,2.47-2.18,1.01-.44,1.93-.46,2.65-.17.73.26,1.48.96,2.17,2.04.68,1.07,1.33,2.35,1.96,3.91.04.1.27.1.28,0,.19-1.72.03-3.42-.59-5.03-.32-.8-.77-1.56-1.4-2.19-.63-.63-1.45-1.09-2.32-1.3-1.79-.4-3.55.22-4.93,1.17-1.4.98-2.49,2.35-3.17,3.94-.73,1.71-.96,3.75-.26,5.68.68,1.89,2.15,3.52,4.2,4.3.53.2,1.1.31,1.69.36.6.03,1.21-.01,1.78-.16,1.15-.29,2.19-.87,3.04-1.7.52-.5,1.02-1.08,1.27-1.78.26-.69.27-1.5-.16-2.16-.36-.52-1.05-.53-1.64-.4-.6.15-1.08.32-1.11.56Z"/>
        <path class="cls-1" d="M175.89,117.19c-.09.95-.96,1.99-2.01,2.36-1.01.41-2.17.13-3.13-.6-.95-.74-1.59-1.88-1.69-3.05-.12-1.2.22-2.5.89-3.61.58-.97,1.48-1.76,2.47-2.18,1.01-.44,1.93-.46,2.65-.17.73.26,1.48.96,2.17,2.04.68,1.07,1.33,2.35,1.96,3.91.04.1.27.1.28,0,.19-1.72.03-3.42-.59-5.03-.32-.8-.77-1.56-1.4-2.19-.63-.63-1.45-1.09-2.32-1.3-1.79-.4-3.55.22-4.93,1.17-1.4.98-2.49,2.35-3.17,3.94-.73,1.71-.96,3.75-.26,5.68.68,1.89,2.15,3.52,4.2,4.3.53.2,1.1.31,1.69.36.6.03,1.21-.01,1.78-.16,1.15-.29,2.19-.87,3.04-1.7.52-.5,1.02-1.08,1.27-1.78.26-.69.27-1.5-.16-2.16-.36-.52-1.05-.53-1.64-.4-.6.15-1.08.32-1.11.56Z"/>
        <path class="cls-1" d="M151.62,162.44c-1.64,1.37-3.94,1.99-6.33,2.17-2.38.18-4.95-.02-7.39-.28-1.17-.15-2.2-.44-2.83-.96-.63-.5-1.01-1.29-1.17-2.35-.17-1.05-.13-2.24-.07-3.53l.16-3.84c.19-4.4.83-9.04,1.46-13.54.63-4.53,1.28-8.84,1.43-13.44,0-.15-.23-.18-.28-.05-1.95,4.69-3.07,9.58-3.81,14.49-.74,4.91-1.09,9.86-1.41,14.82-.07,1.33-.22,2.64-.2,4.08.02,1.4.2,2.99,1.15,4.43.47.7,1.13,1.31,1.86,1.72.72.42,1.48.67,2.21.85,1.48.34,2.79.45,4.15.6,2.82.26,5.77.38,8.81-.37.93-.25,1.88-.52,2.71-1.03.83-.5,1.54-1.21,1.86-2.14.25-.74-.16-1.3-.7-1.6-.56-.31-1.16-.35-1.61,0Z"/>
        <path class="cls-1" d="M175.8,180.95c-1.64,4.34-3.51,8.57-6.47,11.81-2.94,3.22-7.01,5.28-11.29,6.62-3.73,1.16-7.92,1.59-11.93,1.68-4.05.05-7.86-.16-12.16-.53-.14,0-.19.22-.08.27,2.13,1.05,4.37,1.78,6.65,2.21,2.28.41,4.59.56,6.88.51,4.59-.15,9.11-.99,13.5-2.46,2.36-.81,4.68-1.86,6.82-3.26,2.15-1.39,4.1-3.2,5.66-5.25,1.64-2.12,2.9-4.45,4.04-6.78.7-1.43,1.49-2.79,1.17-4.42-.26-1.29-2.32-1.58-2.77-.4Z"/>
        <path class="cls-1" d="M185.99,182.96c-.93-2.63-2.84-4.8-5.33-5.87-1.05-.45-2.24-1.08-3.55-.98-1.26.08-2.61,1-2.65,3.02,0,.06.1.26.12.25.75-.6,1.76-.87,2.75-.8.99.07,1.96.45,2.77,1.01.88.61,1.53,1.47,1.95,2.34.22.45.42.88.51,1.33.08.28-.1.57.85.58.76.03,2.71-.5,2.58-.89Z"/>
        <path class="cls-1" d="M150.3,211.44c-2.45-.25-4.95-.33-7.35.32-1.02.28-2.22.38-3.2,1.02-.96.62-1.66,1.78-1.23,3.76.01.06.16.23.18.21,1.29-1.65,3.35-2.5,5.39-2.68,1.11-.11,2.22.02,3.27.21.55.1,1.08.19,1.6.34.33.08.58.37,1.04-.47.37-.66.65-2.67.3-2.71Z"/>
        <path class="cls-1" d="M208.66,113.17c-8.27-8.43-17.6-15.82-27.77-21.85-10.18-6.04-21.04-10.58-31.48-15.68-4.5-2.19-9.05-4.65-13.45-7.41-4.37-2.77-8.58-5.88-12.05-9.58-1.75-1.83-3.29-3.84-4.59-5.94-1.28-2.11-2.29-4.38-3.03-6.72-.71-2.35-1.14-4.77-1.21-7.22-.05-2.44.27-4.91,1.01-7.31.09-.31-.18-.27-.32.03-.67,1.33-1.12,2.74-1.49,4.16-.31,1.44-.51,2.89-.55,4.34-.06,2.91.38,5.8,1.27,8.53,1.72,5.52,5.26,10.26,9.39,14.11,4.16,3.88,8.93,6.98,13.8,9.79,4.88,2.81,9.92,5.35,14.99,7.81,10.92,5.28,21.92,10.36,31.76,17.19,5.12,3.51,10.01,7.36,14.56,11.56,2.82,2.58,5.29,5.36,8.3,7.23,2.38,1.5,3.09-.74.86-3.05Z"/>
        <path class="cls-1" d="M212.98,110.12c-3.36-4.83-7.35-8.86-11.41-12.83-4.07-3.95-8.31-7.7-12.64-11.34-8.66-7.25-17.76-14.13-27.43-19.99-8.2-5.16-16.72-11-24.52-17.37-7.83-6.37-14.74-13.33-20.62-20.65-.19-.23-.32.01-.17.27,5.35,9.65,13.15,17.52,21.6,24.25,8.48,6.76,17.68,12.5,26.74,18.41,9.68,6.41,18.71,13.8,27.3,21.58,4.44,4.05,8.79,8.21,12.77,12.64,2.42,2.76,4.52,5.57,6.86,7.8.9.9,1.72.97,2.09.42.19-.28.26-.71.18-1.27-.08-.56-.3-1.26-.77-1.89Z"/>
        <path class="cls-1" d="M215.89,108.21c-5.73-10.06-11.72-20.02-18.55-29.47-6.84-9.42-14.63-18.28-23.72-25.73-.98-.8-2-1.56-3.01-2.36-1-.81-2.05-1.57-3.11-2.32-2.09-1.53-4.31-3.04-6.64-4.37-4.65-2.67-9.63-4.81-14.63-6.58-5.01-1.77-10.02-3.21-14.95-4.48-4.93-1.26-9.79-2.26-14.51-2.9-.3-.04-.22.22.06.31,5.3,1.66,10.57,3.35,15.84,5.08,5.26,1.73,10.53,3.43,15.66,5.44,5.13,2,10.13,4.36,14.72,7.36,4.57,3.07,8.92,6.49,12.98,10.22,8.77,8.07,16.08,17.56,22.63,27.48,3.4,5.15,6.6,10.44,9.65,15.82,1.89,3.31,3.52,6.67,5.97,9.22,1.95,2.02,3.15,0,1.6-2.72Z"/>
        <path class="cls-1" d="M218.08,107.17c-1-6.25-2.51-12.41-4.53-18.42-2.07-5.98-4.63-11.82-7.83-17.32-3.23-5.47-6.99-10.68-11.46-15.23-4.41-4.56-9.24-8.73-14.42-12.39-4.45-3.16-9.26-6.18-14.35-8.83-5.09-2.63-10.46-4.92-15.95-6.68-5.47-1.76-11.13-3.11-16.78-3.3-5.61-.21-11.22.95-15.44,3.67-.27.16-.03.31.26.2,5.33-2.27,11.4-2.51,17.22-1.68,2.93.4,5.82,1.05,8.69,1.84,1.43.39,2.85.85,4.27,1.28,1.41.49,2.83.93,4.22,1.46,11.17,4.09,21.71,9.98,30.96,17.52,4.94,4.09,9.61,8.57,13.54,13.57,3.97,4.99,7.22,10.52,9.9,16.29,1.36,3.01,2.63,6.06,3.68,9.2,1.09,3.12,1.99,6.3,2.75,9.51.95,3.96,1.43,7.89,2.8,11.4,1.1,2.78,2.95,1.31,2.46-2.1Z"/>
        <path class="cls-1" d="M221.47,104.62c.87-14.65-1.97-29.49-8.23-42.78-6.24-13.31-16.07-24.89-28.08-33.36-5.19-3.62-10.89-6.95-17.06-9.49-3.06-1.31-6.25-2.44-9.61-3.2-3.34-.75-6.89-1.09-10.38-.67-3.47.4-6.72,1.39-9.81,2.42-3.08,1.03-6.15,2.13-9.09,3.47-2.93,1.35-5.75,2.93-8.13,4.95-2.41,1.98-4.32,4.42-5.49,7.01-.16.32.14.29.34,0,1.77-2.77,4.3-5.05,7.17-6.81,2.86-1.79,6.03-3.11,9.25-4.26,3.23-1.13,6.55-2.16,9.84-3.09,3.3-.9,6.66-1.52,10.04-1.35,6.79.3,13.3,2.96,19.48,5.84,3.07,1.53,6.07,3.22,8.95,5.08,2.86,1.9,5.63,3.95,8.26,6.16,11.33,9.56,19.93,22.17,24.68,36.08,2.46,7.21,4.03,14.72,4.47,22.31.29,4.68-.01,9.21.5,13.48.39,3.4,2.57,2.22,2.88-1.77Z"/>
        <path class="cls-1" d="M224.92,103.94c3.78-15.26,3.69-31.47-.52-46.65-2.09-7.56-5.06-15.01-9.71-21.55-2.33-3.25-5.12-6.23-8.34-8.68-3.21-2.45-6.75-4.37-10.35-5.98-3.11-1.39-6.33-2.6-9.57-3.78-3.24-1.17-6.55-2.35-9.97-3.34-3.42-1-6.95-1.81-10.57-2.26-3.62-.46-7.34-.44-10.96-.04-7.27.82-14.08,3.33-20.21,6.4-6.14,3.1-11.63,6.83-16.66,10.65-.32.24-.03.34.32.14,6.42-3.71,12.88-7.32,19.69-10.12,6.78-2.79,13.98-4.75,21.3-4.86,7.33-.17,14.55,1.72,21.53,4.06,6.97,2.45,14.06,4.84,20.3,8.67,6.79,4.04,11.85,10.36,15.27,17.42,1.73,3.53,3.14,7.23,4.26,11.01,1.13,3.78,2.01,7.63,2.64,11.53,1.31,8.07,1.45,16.32.5,24.41-.6,5-1.79,9.72-2.15,14.31-.31,3.64,2.08,2.79,3.19-1.35Z"/>
        <path class="cls-1" d="M216.45,271.6c-2.37-10.72-3.29-21.76-2.92-32.75.1-2.75.28-5.49.52-8.23l.74-8.31,1.43-16.61c.82-9.54,2.06-19.71,3.08-29.73,1-10.04,1.81-19.91,1.56-29.1,0-.29-.26-.18-.3.11-3.19,21.17-5.2,42.31-7.28,63.62l-1.74,17.2c-.65,5.73-1.09,11.57-1.09,17.38-.02,6.04.37,12.09,1.14,18.09.47,3.69.91,7.35,2.53,10.41,1.27,2.41,2.99.8,2.33-2.08Z"/>
        <path class="cls-1" d="M211.68,273.33c-1.77-20.78-2.19-41.69-1.67-62.55.23-8.99,1.04-18.57,1.81-28,.77-9.44,1.49-18.68,1.6-27.37,0-.28-.25-.19-.3.08-1.95,9.93-3.13,19.91-4.02,29.92-.87,10.01-1.41,20.04-1.73,30.13-.33,10.87-.43,21.74-.23,32.62.12,5.64.32,11.28.6,16.91.16,3.47.18,6.88,1.33,9.92.9,2.39,2.84,1.15,2.6-1.66Z"/>
        <path class="cls-1" d="M207.77,273.38c-1.27-13.65-1.64-27.4-1.67-41.14-.02-13.75.33-27.52.76-41.29.71-23.71,3.37-50.79.11-73.18-.05-.35-.28-.17-.28.19-.01,26.45-1.54,52.73-2.54,79.27-.55,14.29-1.03,28.59-1.02,42.91.03,7.43.16,14.86.51,22.29.12,2.29.14,4.56.37,6.75.23,2.2.58,4.33,1.2,6.34.98,3.17,2.89,1.54,2.55-2.14Z"/>
        <path class="cls-1" d="M203.98,273.25c-2.42-28.42-2.95-57.03-2.91-85.6.04-24.66,2.19-52.61.15-75.93-.03-.37-.27-.19-.29.18-1.33,27.47-2.15,54.77-2.39,82.35-.11,14.85-.07,29.69.33,44.54.22,7.7.53,15.4.95,23.09.23,4.74.37,9.39,1.61,13.56.98,3.29,2.88,1.65,2.56-2.19Z"/>
        <path class="cls-1" d="M81.37,125.13c3.6-6.02,7.49-11.91,11.43-17.75,3.95-5.83,7.98-11.64,12.08-17.34,1.76-2.43,3.77-4.94,5.6-7.63,1.85-2.68,3.57-5.52,4.97-8.51,1.4-2.99,2.47-6.14,2.98-9.3.52-3.16.47-6.32-.25-9.19-.04-.18-.27-.1-.28.08-.23,6.63-2.39,13.13-5.54,19.03-1.57,2.96-3.37,5.81-5.33,8.55-1.96,2.72-4.08,5.4-6.09,8.16-4.36,5.91-8.68,11.83-12.9,17.84-2.19,3.11-4.32,6.27-6.45,9.43-1.3,1.95-2.73,3.78-3.05,6.06-.25,1.79,1.87,2.21,2.83.58Z"/>
        <path class="cls-1" d="M80.29,125.14c3.79-14.4,9.93-28.14,17.59-40.9,3.3-5.51,7.43-11.11,10.81-17.15,3.38-5.99,5.94-12.62,5.94-18.94,0-.2-.24-.17-.3.02-1.86,6.87-5.14,13.31-8.83,19.45-3.69,6.16-7.81,12.08-11.55,18.33-4.03,6.72-7.67,13.7-10.78,20.93-1.61,3.75-3.04,7.58-4.36,11.44-.8,2.38-1.73,4.69-1.44,7.1.22,1.9,2.4,1.65,2.9-.29Z"/>
        <path class="cls-1" d="M80.43,132.85c-.66-17.47,2.83-35.02,9.35-51.22,2.81-7,6.74-14.06,10.87-20.83,4.13-6.79,8.44-13.28,11.98-19.82.11-.21-.14-.27-.28-.09-11.25,12.92-20.22,27.6-26.41,43.62-3.32,8.63-5.83,17.59-7.34,26.75-.36,2.38-.77,4.76-.95,7.16l-.35,3.6c-.09,1.2-.12,2.41-.19,3.61-.21,2.96-.33,5.9.63,8.52.76,2.07,2.77,1.04,2.69-1.31Z"/>
        <path class="cls-1" d="M92.8,275.28c-1.84-11-2.02-22.26-2.2-33.54-.09-5.64-.17-11.31-.47-16.99-.28-5.67-.71-11.33-1.28-16.97-2.22-22.57-6.15-44.86-8.18-67.28-1.74-19.29-1.79-40.18,2.06-60.13.44-2.5,1.05-4.95,1.59-7.42.66-2.43,1.23-4.89,2-7.27,1.39-4.82,3.05-9.49,5.23-13.81,2.19-4.31,4.97-8.27,8.58-11.36,3.58-3.07,7.9-5.37,12.63-6.06.6-.1.27-.3-.34-.25-5.72.46-10.96,3.21-15.05,6.95-4.13,3.77-7.11,8.55-9.38,13.52-2.28,4.99-3.92,10.19-5.37,15.43-1.43,5.25-2.59,10.57-3.39,15.94-3.35,21.53-2.32,43.44,0,65.08,2.51,23.34,6.38,46.49,7.67,69.78.73,12.06.37,24.18.82,36.41.14,3.76.33,7.5.74,11.12.43,3.62,1.12,7.14,2.19,10.39.89,2.56,1.71,3.13,2.15,2.34.46-.8.48-2.92-.01-5.88Z"/>
        <path class="cls-1" d="M86.04,272.98c-5.14-47.3-8.73-94.81-11.42-142.38-.52-10.25-1.24-20.87-1-31.51.2-10.64,1.78-21.33,4.77-31.57,1.49-5.12,3.32-10.11,5.45-14.93,2.14-4.82,4.5-9.48,7.54-13.56,3.03-4.06,6.79-7.56,11.36-9.58,4.5-2.03,9.74-2.8,14.6-1.25.62.18.4-.15-.22-.38-2.84-1.11-5.93-1.37-8.89-1.05-2.97.34-5.83,1.26-8.45,2.61-5.29,2.74-9.34,7.21-12.5,12.02-3.16,4.85-5.59,10.08-7.77,15.39-2.13,5.33-3.88,10.81-5.18,16.4-1.33,5.58-2.22,11.27-2.72,16.99-.5,5.72-.56,11.47-.45,17.2.12,5.73.42,11.45.7,17.17.29,5.72.59,11.44.88,17.17,1.33,24.68,2.87,49.35,4.77,73.99.98,12.78,2.09,25.55,3.25,38.31.71,7.85,1.27,15.57,2.91,22.51,1.3,5.49,3.06,2.84,2.36-3.55Z"/>
        <path class="cls-1" d="M101.01,278.57c-3.98-23.32-7.1-46.81-9.29-70.37-.94-10.15-1.4-21.05-1.93-31.77-.54-10.73-1.16-21.27-2.61-30.95-.05-.31-.28-.15-.28.15-.35,22.83.85,45.47,2.83,68.24,1.08,12.26,2.36,24.5,3.89,36.72.8,6.33,1.67,12.66,2.58,18.97.55,3.89.94,7.72,2.39,11.05,1.15,2.63,2.96,1.1,2.42-2.05Z"/>
        <path class="cls-1" d="M106.63,276.76c-2.59-11.03-4.46-22.26-5.97-33.52-1.5-11.27-2.64-22.6-3.56-33.95-.79-9.78-1.1-20.27-1.61-30.6-.51-10.34-1.23-20.49-2.88-29.76-.05-.29-.28-.14-.28.15.19,21.95,1.07,43.72,2.69,65.67.89,11.81,1.99,23.61,3.55,35.38.83,6.1,1.76,12.18,2.88,18.25.35,1.86.62,3.72,1.06,5.5.45,1.78,1,3.48,1.82,5.04,1.28,2.46,3,.83,2.31-2.15Z"/>
        <path class="cls-1" d="M112.55,276.52c-2.29-13.06-4.07-26.22-5.96-39.36-1.63-11.33-2.1-24.41-7.08-34.61-.08-.16-.29-.04-.26.13,2.12,12.59,3.73,25.17,5.29,37.87l2.46,20.53,1.4,10.63c.29,2.18.4,4.35,1.61,6.15.95,1.42,2.85.42,2.54-1.34Z"/>
        <path class="cls-1" d="M116.07,267.64c-1.63-9.17-2.78-18.42-4.05-27.66-1.1-7.96-.97-17.19-5.49-24.26-.07-.11-.29-.02-.27.1,1.56,8.84,2.6,17.69,3.55,26.64.49,4.82.99,9.64,1.48,14.46l.88,7.49c.18,1.54.19,3.07,1.29,4.3.88.97,2.81.17,2.59-1.07Z"/>
        <path class="cls-1" d="M196.73,272.53c.18-13.95.15-27.86.01-41.77-.12-12.01.99-25.58-2.31-36.91-.05-.18-.28-.09-.28.09.14,13.4.26,26.66.11,40.06-.07,7.21-.24,14.42-.42,21.62-.1,3.73-.17,7.46-.32,11.19-.08,2.29-.37,4.52.47,6.61.67,1.65,2.72,1.01,2.75-.88Z"/>
        <path class="cls-1" d="M190.99,271.9c-.05-11.31.08-22.61.14-33.91.05-9.76,1.49-20.71-1.57-30.04-.05-.15-.28-.09-.28.06-.15,10.9-.35,21.68-.68,32.57-.2,5.86-.41,11.72-.61,17.58l-.29,9.1c-.07,1.87-.32,3.69.56,5.37.7,1.33,2.74.78,2.73-.75Z"/>
        <path class="cls-1" d="M81.84,118.31c-.35,6.61-.52,13.25.11,19.88.15,1.45.28,3.01.71,4.63.44,1.61,1.2,3.3,2.63,4.62,1.48,1.32,3.4,1.87,5.16,1.58.87-.14,1.7-.52,2.3-1.1.6-.57.92-1.33.87-2.04,0-.08-.21-.19-.24-.14-.59,1-1.97,1.49-3.35,1.32-1.38-.16-2.72-.87-3.57-1.99-.9-1.13-1.41-2.56-1.7-4.03-.29-1.48-.38-3.02-.43-4.58-.12-3.37,0-6.74.24-10.08.12-1.73.24-3.47.43-5.19.12-1.06.42-2.08-.4-3.11-.65-.82-2.7-.66-2.75.24Z"/>
      </g>
      <path class="cls-1" d="M209.89,112.26c-3.41-4.66-7.46-8.77-11.76-12.5-4.31-3.72-8.91-7.06-13.63-10.13-9.43-6.17-19.35-11.35-28.73-17.11-8.09-4.96-16.1-11.14-22.91-18.08-3.41-3.47-6.53-7.14-9.36-10.96-2.87-3.81-5.41-7.83-7.97-11.87-.16-.26-.45-.02-.36.26,3.23,10.48,9.36,19.88,17.14,27.33,7.74,7.54,16.74,13.58,25.89,19.2,9.89,6.04,19.91,11.74,28.99,18.57,4.71,3.51,9.16,7.31,13.05,11.58,2.39,2.65,4.28,5.46,7.17,7.34,2.34,1.49,4.32-1.04,2.48-3.63Z"/>
      <path class="cls-1" d="M84.86,117.57c1.56-6.03,4.52-11.7,8-17.07,3.48-5.39,7.45-10.53,11.24-15.94,3.25-4.65,7.05-9.59,9.55-15.28,1.24-2.83,2.14-5.83,2.43-8.85.29-3.02-.05-6.05-1.17-8.74-.07-.17-.41-.12-.42.05-.2,6.06-2.16,12.04-4.97,17.53-2.81,5.51-6.44,10.6-10.25,15.57-4.11,5.37-8.47,10.63-12.24,16.48-1.95,3.03-3.7,6.23-5.2,9.6-.88,2.07-1.99,4.13-1.15,6.45.63,1.8,3.81,1.79,4.2.2Z"/>
      <path class="cls-1" d="M211.58,108.38c-3.15-4.56-6.27-9.15-9.38-13.75l-4.64-6.91c-1.54-2.31-3.08-4.61-4.7-6.88-3.21-4.56-6.56-9.09-10.36-13.33-3.83-4.21-8.03-8.09-12.53-11.53-7.71-5.98-16.47-11.65-25.56-16.17-4.55-2.26-9.16-4.24-13.79-5.86-2.32-.81-4.75-1.54-7.19-1.81-2.43-.28-4.9-.05-6.85.9-.25.11-.06.43.18.4,2.32-.34,4.8.08,7.21.9,2.41.81,4.78,1.97,7.18,3.1,4.79,2.28,9.54,4.61,14.21,7.1,9.31,4.98,18.33,10.62,26.2,17.63,4.23,3.78,8.08,7.9,11.49,12.42,3.42,4.51,6.58,9.25,9.67,14.09l9.63,15c1.97,3.08,3.67,6.24,6.64,8.21,2.35,1.56,4.3-1.04,2.59-3.52Z"/>
      <path class="cls-1" d="M85.58,107.05c1.1-6.02,3.41-11.82,6.25-17.37,2.84-5.57,6.2-10.94,9.49-16.41,2.83-4.72,6.31-9.59,8.79-15.01,2.48-5.37,3.9-11.4,2.49-17.03-.04-.18-.39-.18-.43-.02-1.11,5.89-3.38,11.56-6.17,16.94-2.79,5.39-6.11,10.52-9.46,15.68-3.61,5.56-7.33,11.12-10.42,17.16-.77,1.58-1.6,3.14-2.24,4.8l-1.02,2.46c-.33.83-.59,1.69-.88,2.53-.77,2.05-1.54,4.16-.62,6.34.73,1.7,3.91,1.52,4.22-.07Z"/>
      <path class="cls-1" d="M85.92,103.59c.1-13.42,2.94-26.74,7.46-39.33.97-2.72,2.2-5.45,3.49-8.18,1.31-2.72,2.67-5.35,4.19-7.71,1.54-2.37,3.19-4.47,5.22-6.33,2.03-1.86,4.35-3.55,7.49-4.67.2-.07.13-.42-.07-.42-3.74-.12-7.21,1.29-10,3.3-2.84,2.03-5.01,4.75-6.76,7.61-1.75,2.88-3.13,5.9-4.46,8.92-1.32,3.03-2.6,6.09-3.73,9.22-2.47,6.72-4.53,13.62-5.95,20.7-.74,3.67-1.27,7.38-1.66,11.11-.25,2.29-.7,4.56.62,6.65,1.04,1.64,4.12.94,4.13-.85Z"/>
      <path class="cls-1" d="M210.65,104.5c-6.68-8.02-13.35-16.14-20.63-23.79-7.28-7.63-15.24-14.79-24.24-20.59-7.75-5.09-16.42-9.34-24.08-14.36-3.89-2.51-7.84-5.18-12.09-7.24-4.22-2.06-8.8-3.45-13.13-3.36-.27,0-.24.37,0,.44,4.63,1.28,8.98,3.68,13.12,6.38,4.15,2.71,8.15,5.74,12.43,8.45,8.56,5.39,17.75,9.47,25.62,15.54,8.6,6.39,16.1,14.11,23.09,22.23,3.63,4.21,7.17,8.52,10.63,12.91,2.13,2.7,3.98,5.55,6.98,7.09,2.38,1.22,4.09-1.54,2.28-3.71Z"/>
      <path class="cls-1" d="M216.69,104.69c-4.74-10.78-9.78-21.37-15.41-31.79-1.44-2.61-2.99-5.2-4.76-7.68-1.75-2.48-3.78-4.87-5.96-6.99-2.17-2.14-4.46-4.07-6.72-5.95-2.25-1.87-4.52-3.76-6.88-5.59-2.03-1.57-4.14-3.16-6.38-4.66-2.24-1.5-4.63-2.89-7.08-4.13-4.91-2.49-10.14-4.36-15.38-5.74-5.25-1.39-10.49-2.3-15.65-2.87-2.6-.28-5.29-.39-7.86.03-2.56.4-4.99,1.41-6.58,3.03-.21.19.08.43.32.31,2.16-1.18,4.79-1.51,7.45-1.37,2.68.14,5.38.71,8.12,1.3,5.48,1.18,10.92,2.42,16.24,4.07,5.31,1.65,10.48,3.72,15.26,6.49,4.79,2.74,9.11,6.26,13.39,9.9,4.6,3.96,9.25,7.81,12.74,12.48,3.53,4.67,6.19,10.02,8.83,15.45,2.74,5.62,5.38,11.29,7.85,17.03,1.52,3.54,2.69,7.12,5.28,9.78,2.05,2.11,4.43-.17,3.16-3.09Z"/>
      <path class="cls-1" d="M221.74,105.25c-.99-2.86-1.41-6.09-1.97-9.44-.28-1.68-.6-3.4-1.08-5.13-.47-1.73-1.07-3.4-1.74-5-1.34-3.23-2.91-6.21-4.38-9.2l-4.46-8.99c-1.49-3-2.94-5.99-4.51-9.02-1.57-3.02-3.29-6.04-5.36-8.89-4.17-5.74-9.55-10.26-14.92-14.35-4.63-3.51-9.53-7.2-15.17-10.14-2.81-1.46-5.81-2.71-8.97-3.57-3.16-.86-6.41-1.3-9.63-1.39-6.45-.17-12.66,1.02-18.36,2.94-2.86.98-5.63,2.22-8.08,3.82-2.45,1.6-4.57,3.57-6.05,5.79-.19.28.17.42.41.2,2.21-2.04,4.89-3.61,7.74-4.8,2.86-1.2,5.91-2.04,9-2.71,6.18-1.34,12.54-1.99,18.77-1.22,6.24.71,12.13,3.19,17.51,6.5,2.7,1.65,5.3,3.48,7.84,5.41,2.55,1.93,5.07,3.91,7.47,5.98,2.58,2.24,5.02,4.62,7.15,7.22,2.14,2.58,3.91,5.43,5.51,8.43,1.6,2.99,3.04,6.12,4.52,9.27l4.44,9.41c1.52,3.25,3.16,6.51,4.52,9.68.68,1.59,1.28,3.19,1.74,4.79.47,1.59.78,3.21,1.04,4.94.32,2.11.5,4.33.99,6.52.5,2.18,1.32,4.39,2.83,6.12,1.21,1.36,2.34,1.18,2.94.42.61-.8.76-2.06.25-3.58Z"/>
      <path class="cls-1" d="M223.06,102.19c.6-5.97.75-11.98.45-17.96-.34-5.98-1.08-11.95-2.34-17.82-1.26-5.87-2.96-11.64-5.16-17.24-2.21-5.58-5.02-11.2-9.29-15.88-3.61-4.05-8.13-7.4-12.96-10.08-4.84-2.7-9.99-4.76-15.11-6.46-5.09-1.66-10.35-3.21-15.73-3.61-2.68-.2-5.37-.1-7.9.43-2.53.52-4.9,1.48-6.84,2.83-.25.16,0,.44.27.35,2.49-.86,5.16-1.28,7.86-1.28,2.71,0,5.44.36,8.14.93,5.4,1.18,10.73,3.06,15.99,4.95,5.24,1.94,10.38,4.18,15.03,7.18,4.65,2.98,8.72,6.78,11.64,11.42,3.18,4.98,5.29,10.64,7.05,16.37,1.76,5.73,2.98,11.6,3.73,17.52.78,6.13,1.09,12.33.8,18.48-.16,3.8-.82,7.42.09,10.98.72,2.84,3.91,2.14,4.29-1.12Z"/>
      <path class="cls-1" d="M215.38,270.53c-1.38-20.27-1.3-40.68-.96-61.03.16-8.77.96-18.13,1.33-27.34.4-9.24.33-18.25-1.01-26.89-.05-.27-.4-.2-.43.07-1.23,9.84-1.86,19.6-2.44,29.39-.56,9.78-.99,19.58-1.34,29.42-.36,10.6-.67,21.2-.74,31.82-.03,5.5.04,11.01.15,16.52.06,3.39-.13,6.74,1.42,9.69,1.21,2.33,4.22,1.08,4.02-1.65Z"/>
      <path class="cls-1" d="M196.39,274.19c-1.03-12.75-1.22-25.55-1.51-38.35-.26-11.05,1.62-23.57-3.79-34-.09-.17-.43-.08-.42.08.65,12.34.59,24.58.48,36.96-.06,6.67-.2,13.33-.21,20.01,0,3.46.07,6.92.13,10.38.03,2.13-.2,4.23,1.27,6.05,1.16,1.44,4.19.58,4.05-1.14Z"/>
      <path class="cls-1" d="M114.01,277.42c-4.42-14.09-7.4-28.61-9.81-43.19-1.04-6.28-1.5-13.09-2.43-19.74-.94-6.65-2.35-13.14-5.45-19.01-.1-.19-.43-.07-.41.13,1.58,14.27,3.04,28.4,5.1,42.64,1.11,7.67,2.32,15.33,3.85,22.94.79,3.95,1.69,7.87,2.65,11.79.56,2.41.92,4.85,2.85,6.59,1.52,1.37,4.25-.26,3.65-2.16Z"/>
      <path class="cls-1" d="M106.19,278.19c-2.55-11.35-4.97-22.76-7.33-34.14-.57-2.83-1.1-5.66-1.51-8.48-.41-2.81-.68-5.65-.89-8.52-.39-5.74-.65-11.58-.93-17.38-.93-20,.43-43.07-6.15-61.62-.1-.29-.43-.12-.41.18,2.01,22.27,2.3,44.53,3.02,66.99.22,6.04.31,12.1.89,18.22.58,6.14,1.77,12.14,2.87,18.07l3.53,18.46c.72,3.79,1.16,7.56,3.21,10.66,1.62,2.45,4.38.64,3.69-2.43Z"/>
      <path class="cls-1" d="M97.9,277.23c-1.08-6.18-1.83-12.52-2.52-18.85-.69-6.33-1.28-12.69-1.85-19.05-1.13-12.72-2.11-25.46-3.16-38.21-.91-10.98-1.37-22.77-2.54-34.35-1.19-11.55-3.02-22.99-6.97-32.91-.12-.31-.44-.1-.39.23,1.79,12.07,2.9,24.3,3.94,36.49,1.02,12.21,1.86,24.44,2.66,36.73.87,13.24,1.63,26.48,2.6,39.72.5,6.87,1.12,13.73,1.81,20.61.19,2.11.41,4.23.75,6.26.32,2.02.94,4,1.94,5.78,1.58,2.8,4.35.82,3.75-2.46Z"/>
      <path class="cls-1" d="M207.79,267.29c-3.77-26.84-3.88-54.11-3.44-81.31.2-11.73,1.08-24.27,1.29-36.67.19-12.44-.28-24.4-1.12-35.8-.03-.36-.39-.24-.44.12-1.8,13.14-1.83,26.26-2.29,39.3-.43,13.06-.96,26.13-1.33,39.28-.39,14.16-.63,28.34-.2,42.54.2,7.36.69,14.72,1.25,22.08.2,2.26.34,4.51.64,6.68.33,2.17.87,4.25,1.8,6.18,1.48,3.04,4.34,1.21,3.84-2.4Z"/>
      <path class="cls-1" d="M199.42,272.62c.55-15.62,1.17-31.26.92-46.92-.2-13.45.99-29.05-5.5-41.22-.1-.19-.43-.06-.41.14,1.92,14.84,2.42,29.74,2.16,44.73-.14,8.08-.58,16.14-1.08,24.19-.26,4.17-.49,8.35-.82,12.51-.19,2.57-.68,5.06.56,7.43.98,1.88,4.09,1.25,4.16-.86Z"/>
    </g>
  </g>
  <g>
    <path class="cls-1" d="M89.98,280.04c-2.04-24.37-3.92-48.77-5.78-73.18-.92-12.21-1.85-24.41-2.77-36.62-.91-12.22-1.94-24.41-2.68-36.59-1.29-20.98-1.21-43.5,1.58-65.27.72-5.41,1.68-10.71,3.26-15.73,1.57-5,3.79-9.77,6.87-13.8,3.11-4,7.17-7.29,11.78-9.45,4.59-2.14,9.88-3.14,15.09-2.04.66.11.45-.32-.21-.52-3.03-.95-6.24-1.19-9.34-.84-3.1.35-6.09,1.27-8.86,2.59-5.53,2.64-10.25,6.85-13.53,11.95-3.32,5.06-5.44,10.75-6.88,16.51-1.43,5.77-2.24,11.64-2.84,17.49-2.52,23.45-1.62,47.09-.11,70.63,1.66,25.35,3.32,50.68,4.98,76.02l2.67,39.41c.54,8.08.79,16.02,2.77,23.16,1.56,5.64,4.56,2.89,4.01-3.71Z"/>
    <g>
      <g>
        <path class="cls-1" d="M196.78,174.57c-1.88,11.08-4.24,22.17-9.17,32.12-2.43,4.98-5.59,9.53-9.31,13.66-3.71,4.14-7.89,7.88-12.22,11.46-2.17,1.79-4.37,3.55-6.59,5.31-2.21,1.75-4.41,3.48-6.71,4.98-2.29,1.51-4.69,2.81-7.19,3.65-1.25.43-2.53.69-3.81.86-1.29.15-2.57.11-3.85-.04-2.55-.34-5.01-1.35-7.27-2.73-2.25-1.42-4.31-3.2-6.23-5.16-1.91-1.97-3.68-4.11-5.39-6.32-1.72-2.23-3.4-4.49-5.02-6.77-2.79-3.95-5.43-8.09-7.7-12.47-2.29-4.37-4.12-9.01-5.59-13.81-2.94-9.62-4.27-19.83-5.04-30.01-.76-10.19-1.02-20.43-1.68-30.36-.63-9.93-1.46-19.58-2.59-28.72-.07-.58-.29-.27-.27.32.35,10.87.7,21.73,1.04,32.58.33,10.85.48,21.72,1.55,32.57,1.06,10.82,3.13,21.68,7.32,31.84,4.16,10.2,10.51,19.26,17.2,27.91,1.85,2.32,3.78,4.59,5.98,6.65,2.19,2.05,4.61,3.94,7.39,5.27,2.75,1.39,5.88,2.1,9,2.04,1.56-.06,3.11-.3,4.61-.69,1.49-.41,2.93-.96,4.32-1.6,5.54-2.63,10.1-6.54,14.72-10.12,4.62-3.65,9.21-7.42,13.44-11.63,4.39-4.35,8.37-9.28,11.39-14.76,3.07-5.46,5.28-11.32,7-17.26,2.11-7.32,3.64-14.6,3.87-21.39.16-5.37-2.21-3.4-3.21,2.62Z"/>
        <path class="cls-1" d="M210.86,159.76c1.58-.98,2.9-2.12,4.19-3.31,1.28-1.19,2.47-2.45,3.59-3.81.56-.68,1.1-1.38,1.61-2.18.47-.76.88-1.49,1.32-2.24l1.22-2.28c.37-.77.76-1.54,1.12-2.32,2.88-6.25,4.77-12.96,5.53-19.81.32-2.95.53-6.03.49-9.15-.02-.8,0-1.52-.09-2.44-.1-.89-.3-2-1.11-3.06-.8-1.07-2.17-1.64-3.26-1.71-1.11-.09-2.06.09-2.93.34-1.72.53-3.15,1.32-4.48,2.18-1.32.86-2.54,1.82-3.66,2.84-2.22,2.05-4.15,4.38-5.35,6.91-.07.16.15.25.26.13,2.08-2.3,4.59-4.34,7.18-6.16,1.31-.9,2.65-1.74,4.05-2.45,1.39-.69,2.87-1.31,4.29-1.33.7,0,1.34.18,1.76.6.43.41.64,1.08.74,1.8.1.73.1,1.55.12,2.34.03.8.02,1.59,0,2.39-.05,3.19-.38,6.37-.95,9.51-1.22,6.77-3.67,13.26-7.04,19.16-.42.77-.89,1.52-1.35,2.27-.47.79-.89,1.38-1.44,2.05-1.06,1.31-2.3,2.55-3.57,3.71-1.61,1.41-3.28,2.5-4.39,4.07-.44.6-.45,1.33-.05,1.81.39.48,1.33.66,2.18.12Z"/>
        <path class="cls-1" d="M188.88,93.63c-5.03-.1-10.15-.52-15.34.17-2.21.3-4.69.49-6.96,1.42-2.24.91-4.25,2.61-4.85,5.24-.02.08.14.25.18.21,1.76-1.52,3.87-2.63,6.11-3.34,2.24-.72,4.6-1.07,6.97-1.18,2.56-.12,5.13.07,7.69.31,1.33.12,2.66.23,3.99.39.82.09,1.61.37,2.4-.49.62-.68.48-2.72-.2-2.74Z"/>
        <path class="cls-1" d="M99.62,90.73c5.65-1.18,11.56-.73,17.13.63,2.42.59,4.83,1.73,7.25,2.67,2.44.94,4.9,1.66,7.97,1.55.1,0,.19-.21.12-.25-5.12-2.91-10.42-5.25-16.11-6.74-3.06-.8-6.21-1.37-9.43-1.55-.83-.04-1.67-.08-2.5-.05-.84,0-1.67.03-2.51.1-1.03.04-2.08,0-2.82,1.04-.57.82.15,2.76.9,2.61Z"/>
        <path class="cls-1" d="M119.76,117.19c-.09.95-.96,1.99-2.01,2.36-1.01.41-2.17.13-3.13-.6-.95-.74-1.59-1.88-1.69-3.05-.12-1.2.22-2.5.89-3.61.58-.97,1.48-1.76,2.47-2.18,1.01-.44,1.93-.46,2.65-.17.73.26,1.48.96,2.17,2.04.68,1.07,1.33,2.35,1.96,3.91.04.1.27.1.28,0,.19-1.72.03-3.42-.59-5.03-.32-.8-.77-1.56-1.4-2.19-.63-.63-1.45-1.09-2.32-1.3-1.79-.4-3.55.22-4.93,1.17-1.4.98-2.49,2.35-3.17,3.94-.73,1.71-.96,3.75-.26,5.68.68,1.89,2.15,3.52,4.2,4.3.53.2,1.1.31,1.69.36.6.03,1.21-.01,1.78-.16,1.15-.29,2.19-.87,3.04-1.7.52-.5,1.02-1.08,1.27-1.78.26-.69.27-1.5-.16-2.16-.36-.52-1.05-.53-1.64-.4-.6.15-1.08.32-1.11.56Z"/>
        <path class="cls-1" d="M175.89,117.19c-.09.95-.96,1.99-2.01,2.36-1.01.41-2.17.13-3.13-.6-.95-.74-1.59-1.88-1.69-3.05-.12-1.2.22-2.5.89-3.61.58-.97,1.48-1.76,2.47-2.18,1.01-.44,1.93-.46,2.65-.17.73.26,1.48.96,2.17,2.04.68,1.07,1.33,2.35,1.96,3.91.04.1.27.1.28,0,.19-1.72.03-3.42-.59-5.03-.32-.8-.77-1.56-1.4-2.19-.63-.63-1.45-1.09-2.32-1.3-1.79-.4-3.55.22-4.93,1.17-1.4.98-2.49,2.35-3.17,3.94-.73,1.71-.96,3.75-.26,5.68.68,1.89,2.15,3.52,4.2,4.3.53.2,1.1.31,1.69.36.6.03,1.21-.01,1.78-.16,1.15-.29,2.19-.87,3.04-1.7.52-.5,1.02-1.08,1.27-1.78.26-.69.27-1.5-.16-2.16-.36-.52-1.05-.53-1.64-.4-.6.15-1.08.32-1.11.56Z"/>
        <path class="cls-1" d="M151.62,162.44c-1.64,1.37-3.94,1.99-6.33,2.17-2.38.18-4.95-.02-7.39-.28-1.17-.15-2.2-.44-2.83-.96-.63-.5-1.01-1.29-1.17-2.35-.17-1.05-.13-2.24-.07-3.53l.16-3.84c.19-4.4.83-9.04,1.46-13.54.63-4.53,1.28-8.84,1.43-13.44,0-.15-.23-.18-.28-.05-1.95,4.69-3.07,9.58-3.81,14.49-.74,4.91-1.09,9.86-1.41,14.82-.07,1.33-.22,2.64-.2,4.08.02,1.4.2,2.99,1.15,4.43.47.7,1.13,1.31,1.86,1.72.72.42,1.48.67,2.21.85,1.48.34,2.79.45,4.15.6,2.82.26,5.77.38,8.81-.37.93-.25,1.88-.52,2.71-1.03.83-.5,1.54-1.21,1.86-2.14.25-.74-.16-1.3-.7-1.6-.56-.31-1.16-.35-1.61,0Z"/>
        <path class="cls-1" d="M175.8,180.95c-1.64,4.34-3.51,8.57-6.47,11.81-2.94,3.22-7.01,5.28-11.29,6.62-3.73,1.16-7.92,1.59-11.93,1.68-4.05.05-7.86-.16-12.16-.53-.14,0-.19.22-.08.27,2.13,1.05,4.37,1.78,6.65,2.21,2.28.41,4.59.56,6.88.51,4.59-.15,9.11-.99,13.5-2.46,2.36-.81,4.68-1.86,6.82-3.26,2.15-1.39,4.1-3.2,5.66-5.25,1.64-2.12,2.9-4.45,4.04-6.78.7-1.43,1.49-2.79,1.17-4.42-.26-1.29-2.32-1.58-2.77-.4Z"/>
        <path class="cls-1" d="M185.99,182.96c-.93-2.63-2.84-4.8-5.33-5.87-1.05-.45-2.24-1.08-3.55-.98-1.26.08-2.61,1-2.65,3.02,0,.06.1.26.12.25.75-.6,1.76-.87,2.75-.8.99.07,1.96.45,2.77,1.01.88.61,1.53,1.47,1.95,2.34.22.45.42.88.51,1.33.08.28-.1.57.85.58.76.03,2.71-.5,2.58-.89Z"/>
        <path class="cls-1" d="M150.3,211.44c-2.45-.25-4.95-.33-7.35.32-1.02.28-2.22.38-3.2,1.02-.96.62-1.66,1.78-1.23,3.76.01.06.16.23.18.21,1.29-1.65,3.35-2.5,5.39-2.68,1.11-.11,2.22.02,3.27.21.55.1,1.08.19,1.6.34.33.08.58.37,1.04-.47.37-.66.65-2.67.3-2.71Z"/>
        <path class="cls-1" d="M208.66,113.17c-8.27-8.43-17.6-15.82-27.77-21.85-10.18-6.04-21.04-10.58-31.48-15.68-4.5-2.19-9.05-4.65-13.45-7.41-4.37-2.77-8.58-5.88-12.05-9.58-1.75-1.83-3.29-3.84-4.59-5.94-1.28-2.11-2.29-4.38-3.03-6.72-.71-2.35-1.14-4.77-1.21-7.22-.05-2.44.27-4.91,1.01-7.31.09-.31-.18-.27-.32.03-.67,1.33-1.12,2.74-1.49,4.16-.31,1.44-.51,2.89-.55,4.34-.06,2.91.38,5.8,1.27,8.53,1.72,5.52,5.26,10.26,9.39,14.11,4.16,3.88,8.93,6.98,13.8,9.79,4.88,2.81,9.92,5.35,14.99,7.81,10.92,5.28,21.92,10.36,31.76,17.19,5.12,3.51,10.01,7.36,14.56,11.56,2.82,2.58,5.29,5.36,8.3,7.23,2.38,1.5,3.09-.74.86-3.05Z"/>
        <path class="cls-1" d="M212.98,110.12c-3.36-4.83-7.35-8.86-11.41-12.83-4.07-3.95-8.31-7.7-12.64-11.34-8.66-7.25-17.76-14.13-27.43-19.99-8.2-5.16-16.72-11-24.52-17.37-7.83-6.37-14.74-13.33-20.62-20.65-.19-.23-.32.01-.17.27,5.35,9.65,13.15,17.52,21.6,24.25,8.48,6.76,17.68,12.5,26.74,18.41,9.68,6.41,18.71,13.8,27.3,21.58,4.44,4.05,8.79,8.21,12.77,12.64,2.42,2.76,4.52,5.57,6.86,7.8.9.9,1.72.97,2.09.42.19-.28.26-.71.18-1.27-.08-.56-.3-1.26-.77-1.89Z"/>
        <path class="cls-1" d="M215.89,108.21c-5.73-10.06-11.72-20.02-18.55-29.47-6.84-9.42-14.63-18.28-23.72-25.73-.98-.8-2-1.56-3.01-2.36-1-.81-2.05-1.57-3.11-2.32-2.09-1.53-4.31-3.04-6.64-4.37-4.65-2.67-9.63-4.81-14.63-6.58-5.01-1.77-10.02-3.21-14.95-4.48-4.93-1.26-9.79-2.26-14.51-2.9-.3-.04-.22.22.06.31,5.3,1.66,10.57,3.35,15.84,5.08,5.26,1.73,10.53,3.43,15.66,5.44,5.13,2,10.13,4.36,14.72,7.36,4.57,3.07,8.92,6.49,12.98,10.22,8.77,8.07,16.08,17.56,22.63,27.48,3.4,5.15,6.6,10.44,9.65,15.82,1.89,3.31,3.52,6.67,5.97,9.22,1.95,2.02,3.15,0,1.6-2.72Z"/>
        <path class="cls-1" d="M218.08,107.17c-1-6.25-2.51-12.41-4.53-18.42-2.07-5.98-4.63-11.82-7.83-17.32-3.23-5.47-6.99-10.68-11.46-15.23-4.41-4.56-9.24-8.73-14.42-12.39-4.45-3.16-9.26-6.18-14.35-8.83-5.09-2.63-10.46-4.92-15.95-6.68-5.47-1.76-11.13-3.11-16.78-3.3-5.61-.21-11.22.95-15.44,3.67-.27.16-.03.31.26.2,5.33-2.27,11.4-2.51,17.22-1.68,2.93.4,5.82,1.05,8.69,1.84,1.43.39,2.85.85,4.27,1.28,1.41.49,2.83.93,4.22,1.46,11.17,4.09,21.71,9.98,30.96,17.52,4.94,4.09,9.61,8.57,13.54,13.57,3.97,4.99,7.22,10.52,9.9,16.29,1.36,3.01,2.63,6.06,3.68,9.2,1.09,3.12,1.99,6.3,2.75,9.51.95,3.96,1.43,7.89,2.8,11.4,1.1,2.78,2.95,1.31,2.46-2.1Z"/>
        <path class="cls-1" d="M221.47,104.62c.87-14.65-1.97-29.49-8.23-42.78-6.24-13.31-16.07-24.89-28.08-33.36-5.19-3.62-10.89-6.95-17.06-9.49-3.06-1.31-6.25-2.44-9.61-3.2-3.34-.75-6.89-1.09-10.38-.67-3.47.4-6.72,1.39-9.81,2.42-3.08,1.03-6.15,2.13-9.09,3.47-2.93,1.35-5.75,2.93-8.13,4.95-2.41,1.98-4.32,4.42-5.49,7.01-.16.32.14.29.34,0,1.77-2.77,4.3-5.05,7.17-6.81,2.86-1.79,6.03-3.11,9.25-4.26,3.23-1.13,6.55-2.16,9.84-3.09,3.3-.9,6.66-1.52,10.04-1.35,6.79.3,13.3,2.96,19.48,5.84,3.07,1.53,6.07,3.22,8.95,5.08,2.86,1.9,5.63,3.95,8.26,6.16,11.33,9.56,19.93,22.17,24.68,36.08,2.46,7.21,4.03,14.72,4.47,22.31.29,4.68-.01,9.21.5,13.48.39,3.4,2.57,2.22,2.88-1.77Z"/>
        <path class="cls-1" d="M224.92,103.94c3.78-15.26,3.69-31.47-.52-46.65-2.09-7.56-5.06-15.01-9.71-21.55-2.33-3.25-5.12-6.23-8.34-8.68-3.21-2.45-6.75-4.37-10.35-5.98-3.11-1.39-6.33-2.6-9.57-3.78-3.24-1.17-6.55-2.35-9.97-3.34-3.42-1-6.95-1.81-10.57-2.26-3.62-.46-7.34-.44-10.96-.04-7.27.82-14.08,3.33-20.21,6.4-6.14,3.1-11.63,6.83-16.66,10.65-.32.24-.03.34.32.14,6.42-3.71,12.88-7.32,19.69-10.12,6.78-2.79,13.98-4.75,21.3-4.86,7.33-.17,14.55,1.72,21.53,4.06,6.97,2.45,14.06,4.84,20.3,8.67,6.79,4.04,11.85,10.36,15.27,17.42,1.73,3.53,3.14,7.23,4.26,11.01,1.13,3.78,2.01,7.63,2.64,11.53,1.31,8.07,1.45,16.32.5,24.41-.6,5-1.79,9.72-2.15,14.31-.31,3.64,2.08,2.79,3.19-1.35Z"/>
        <path class="cls-1" d="M216.45,271.6c-2.37-10.72-3.29-21.76-2.92-32.75.1-2.75.28-5.49.52-8.23l.74-8.31,1.43-16.61c.82-9.54,2.06-19.71,3.08-29.73,1-10.04,1.81-19.91,1.56-29.1,0-.29-.26-.18-.3.11-3.19,21.17-5.2,42.31-7.28,63.62l-1.74,17.2c-.65,5.73-1.09,11.57-1.09,17.38-.02,6.04.37,12.09,1.14,18.09.47,3.69.91,7.35,2.53,10.41,1.27,2.41,2.99.8,2.33-2.08Z"/>
        <path class="cls-1" d="M211.68,273.33c-1.77-20.78-2.19-41.69-1.67-62.55.23-8.99,1.04-18.57,1.81-28,.77-9.44,1.49-18.68,1.6-27.37,0-.28-.25-.19-.3.08-1.95,9.93-3.13,19.91-4.02,29.92-.87,10.01-1.41,20.04-1.73,30.13-.33,10.87-.43,21.74-.23,32.62.12,5.64.32,11.28.6,16.91.16,3.47.18,6.88,1.33,9.92.9,2.39,2.84,1.15,2.6-1.66Z"/>
        <path class="cls-1" d="M207.77,273.38c-1.27-13.65-1.64-27.4-1.67-41.14-.02-13.75.33-27.52.76-41.29.71-23.71,3.37-50.79.11-73.18-.05-.35-.28-.17-.28.19-.01,26.45-1.54,52.73-2.54,79.27-.55,14.29-1.03,28.59-1.02,42.91.03,7.43.16,14.86.51,22.29.12,2.29.14,4.56.37,6.75.23,2.2.58,4.33,1.2,6.34.98,3.17,2.89,1.54,2.55-2.14Z"/>
        <path class="cls-1" d="M203.98,273.25c-2.42-28.42-2.95-57.03-2.91-85.6.04-24.66,2.19-52.61.15-75.93-.03-.37-.27-.19-.29.18-1.33,27.47-2.15,54.77-2.39,82.35-.11,14.85-.07,29.69.33,44.54.22,7.7.53,15.4.95,23.09.23,4.74.37,9.39,1.61,13.56.98,3.29,2.88,1.65,2.56-2.19Z"/>
        <path class="cls-1" d="M81.37,125.13c3.6-6.02,7.49-11.91,11.43-17.75,3.95-5.83,7.98-11.64,12.08-17.34,1.76-2.43,3.77-4.94,5.6-7.63,1.85-2.68,3.57-5.52,4.97-8.51,1.4-2.99,2.47-6.14,2.98-9.3.52-3.16.47-6.32-.25-9.19-.04-.18-.27-.1-.28.08-.23,6.63-2.39,13.13-5.54,19.03-1.57,2.96-3.37,5.81-5.33,8.55-1.96,2.72-4.08,5.4-6.09,8.16-4.36,5.91-8.68,11.83-12.9,17.84-2.19,3.11-4.32,6.27-6.45,9.43-1.3,1.95-2.73,3.78-3.05,6.06-.25,1.79,1.87,2.21,2.83.58Z"/>
        <path class="cls-1" d="M80.29,125.14c3.79-14.4,9.93-28.14,17.59-40.9,3.3-5.51,7.43-11.11,10.81-17.15,3.38-5.99,5.94-12.62,5.94-18.94,0-.2-.24-.17-.3.02-1.86,6.87-5.14,13.31-8.83,19.45-3.69,6.16-7.81,12.08-11.55,18.33-4.03,6.72-7.67,13.7-10.78,20.93-1.61,3.75-3.04,7.58-4.36,11.44-.8,2.38-1.73,4.69-1.44,7.1.22,1.9,2.4,1.65,2.9-.29Z"/>
        <path class="cls-1" d="M80.43,132.85c-.66-17.47,2.83-35.02,9.35-51.22,2.81-7,6.74-14.06,10.87-20.83,4.13-6.79,8.44-13.28,11.98-19.82.11-.21-.14-.27-.28-.09-11.25,12.92-20.22,27.6-26.41,43.62-3.32,8.63-5.83,17.59-7.34,26.75-.36,2.38-.77,4.76-.95,7.16l-.35,3.6c-.09,1.2-.12,2.41-.19,3.61-.21,2.96-.33,5.9.63,8.52.76,2.07,2.77,1.04,2.69-1.31Z"/>
        <path class="cls-1" d="M92.8,275.28c-1.84-11-2.02-22.26-2.2-33.54-.09-5.64-.17-11.31-.47-16.99-.28-5.67-.71-11.33-1.28-16.97-2.22-22.57-6.15-44.86-8.18-67.28-1.74-19.29-1.79-40.18,2.06-60.13.44-2.5,1.05-4.95,1.59-7.42.66-2.43,1.23-4.89,2-7.27,1.39-4.82,3.05-9.49,5.23-13.81,2.19-4.31,4.97-8.27,8.58-11.36,3.58-3.07,7.9-5.37,12.63-6.06.6-.1.27-.3-.34-.25-5.72.46-10.96,3.21-15.05,6.95-4.13,3.77-7.11,8.55-9.38,13.52-2.28,4.99-3.92,10.19-5.37,15.43-1.43,5.25-2.59,10.57-3.39,15.94-3.35,21.53-2.32,43.44,0,65.08,2.51,23.34,6.38,46.49,7.67,69.78.73,12.06.37,24.18.82,36.41.14,3.76.33,7.5.74,11.12.43,3.62,1.12,7.14,2.19,10.39.89,2.56,1.71,3.13,2.15,2.34.46-.8.48-2.92-.01-5.88Z"/>
        <path class="cls-1" d="M86.04,272.98c-5.14-47.3-8.73-94.81-11.42-142.38-.52-10.25-1.24-20.87-1-31.51.2-10.64,1.78-21.33,4.77-31.57,1.49-5.12,3.32-10.11,5.45-14.93,2.14-4.82,4.5-9.48,7.54-13.56,3.03-4.06,6.79-7.56,11.36-9.58,4.5-2.03,9.74-2.8,14.6-1.25.62.18.4-.15-.22-.38-2.84-1.11-5.93-1.37-8.89-1.05-2.97.34-5.83,1.26-8.45,2.61-5.29,2.74-9.34,7.21-12.5,12.02-3.16,4.85-5.59,10.08-7.77,15.39-2.13,5.33-3.88,10.81-5.18,16.4-1.33,5.58-2.22,11.27-2.72,16.99-.5,5.72-.56,11.47-.45,17.2.12,5.73.42,11.45.7,17.17.29,5.72.59,11.44.88,17.17,1.33,24.68,2.87,49.35,4.77,73.99.98,12.78,2.09,25.55,3.25,38.31.71,7.85,1.27,15.57,2.91,22.51,1.3,5.49,3.06,2.84,2.36-3.55Z"/>
        <path class="cls-1" d="M101.01,278.57c-3.98-23.32-7.1-46.81-9.29-70.37-.94-10.15-1.4-21.05-1.93-31.77-.54-10.73-1.16-21.27-2.61-30.95-.05-.31-.28-.15-.28.15-.35,22.83.85,45.47,2.83,68.24,1.08,12.26,2.36,24.5,3.89,36.72.8,6.33,1.67,12.66,2.58,18.97.55,3.89.94,7.72,2.39,11.05,1.15,2.63,2.96,1.1,2.42-2.05Z"/>
        <path class="cls-1" d="M106.63,276.76c-2.59-11.03-4.46-22.26-5.97-33.52-1.5-11.27-2.64-22.6-3.56-33.95-.79-9.78-1.1-20.27-1.61-30.6-.51-10.34-1.23-20.49-2.88-29.76-.05-.29-.28-.14-.28.15.19,21.95,1.07,43.72,2.69,65.67.89,11.81,1.99,23.61,3.55,35.38.83,6.1,1.76,12.18,2.88,18.25.35,1.86.62,3.72,1.06,5.5.45,1.78,1,3.48,1.82,5.04,1.28,2.46,3,.83,2.31-2.15Z"/>
        <path class="cls-1" d="M112.55,276.52c-2.29-13.06-4.07-26.22-5.96-39.36-1.63-11.33-2.1-24.41-7.08-34.61-.08-.16-.29-.04-.26.13,2.12,12.59,3.73,25.17,5.29,37.87l2.46,20.53,1.4,10.63c.29,2.18.4,4.35,1.61,6.15.95,1.42,2.85.42,2.54-1.34Z"/>
        <path class="cls-1" d="M116.07,267.64c-1.63-9.17-2.78-18.42-4.05-27.66-1.1-7.96-.97-17.19-5.49-24.26-.07-.11-.29-.02-.27.1,1.56,8.84,2.6,17.69,3.55,26.64.49,4.82.99,9.64,1.48,14.46l.88,7.49c.18,1.54.19,3.07,1.29,4.3.88.97,2.81.17,2.59-1.07Z"/>
        <path class="cls-1" d="M196.73,272.53c.18-13.95.15-27.86.01-41.77-.12-12.01.99-25.58-2.31-36.91-.05-.18-.28-.09-.28.09.14,13.4.26,26.66.11,40.06-.07,7.21-.24,14.42-.42,21.62-.1,3.73-.17,7.46-.32,11.19-.08,2.29-.37,4.52.47,6.61.67,1.65,2.72,1.01,2.75-.88Z"/>
        <path class="cls-1" d="M190.99,271.9c-.05-11.31.08-22.61.14-33.91.05-9.76,1.49-20.71-1.57-30.04-.05-.15-.28-.09-.28.06-.15,10.9-.35,21.68-.68,32.57-.2,5.86-.41,11.72-.61,17.58l-.29,9.1c-.07,1.87-.32,3.69.56,5.37.7,1.33,2.74.78,2.73-.75Z"/>
        <path class="cls-1" d="M81.84,118.31c-.35,6.61-.52,13.25.11,19.88.15,1.45.28,3.01.71,4.63.44,1.61,1.2,3.3,2.63,4.62,1.48,1.32,3.4,1.87,5.16,1.58.87-.14,1.7-.52,2.3-1.1.6-.57.92-1.33.87-2.04,0-.08-.21-.19-.24-.14-.59,1-1.97,1.49-3.35,1.32-1.38-.16-2.72-.87-3.57-1.99-.9-1.13-1.41-2.56-1.7-4.03-.29-1.48-.38-3.02-.43-4.58-.12-3.37,0-6.74.24-10.08.12-1.73.24-3.47.43-5.19.12-1.06.42-2.08-.4-3.11-.65-.82-2.7-.66-2.75.24Z"/>
      </g>
      <path class="cls-1" d="M209.89,112.26c-3.41-4.66-7.46-8.77-11.76-12.5-4.31-3.72-8.91-7.06-13.63-10.13-9.43-6.17-19.35-11.35-28.73-17.11-8.09-4.96-16.1-11.14-22.91-18.08-3.41-3.47-6.53-7.14-9.36-10.96-2.87-3.81-5.41-7.83-7.97-11.87-.16-.26-.45-.02-.36.26,3.23,10.48,9.36,19.88,17.14,27.33,7.74,7.54,16.74,13.58,25.89,19.2,9.89,6.04,19.91,11.74,28.99,18.57,4.71,3.51,9.16,7.31,13.05,11.58,2.39,2.65,4.28,5.46,7.17,7.34,2.34,1.49,4.32-1.04,2.48-3.63Z"/>
      <path class="cls-1" d="M84.86,117.57c1.56-6.03,4.52-11.7,8-17.07,3.48-5.39,7.45-10.53,11.24-15.94,3.25-4.65,7.05-9.59,9.55-15.28,1.24-2.83,2.14-5.83,2.43-8.85.29-3.02-.05-6.05-1.17-8.74-.07-.17-.41-.12-.42.05-.2,6.06-2.16,12.04-4.97,17.53-2.81,5.51-6.44,10.6-10.25,15.57-4.11,5.37-8.47,10.63-12.24,16.48-1.95,3.03-3.7,6.23-5.2,9.6-.88,2.07-1.99,4.13-1.15,6.45.63,1.8,3.81,1.79,4.2.2Z"/>
      <path class="cls-1" d="M211.58,108.38c-3.15-4.56-6.27-9.15-9.38-13.75l-4.64-6.91c-1.54-2.31-3.08-4.61-4.7-6.88-3.21-4.56-6.56-9.09-10.36-13.33-3.83-4.21-8.03-8.09-12.53-11.53-7.71-5.98-16.47-11.65-25.56-16.17-4.55-2.26-9.16-4.24-13.79-5.86-2.32-.81-4.75-1.54-7.19-1.81-2.43-.28-4.9-.05-6.85.9-.25.11-.06.43.18.4,2.32-.34,4.8.08,7.21.9,2.41.81,4.78,1.97,7.18,3.1,4.79,2.28,9.54,4.61,14.21,7.1,9.31,4.98,18.33,10.62,26.2,17.63,4.23,3.78,8.08,7.9,11.49,12.42,3.42,4.51,6.58,9.25,9.67,14.09l9.63,15c1.97,3.08,3.67,6.24,6.64,8.21,2.35,1.56,4.3-1.04,2.59-3.52Z"/>
      <path class="cls-1" d="M85.58,107.05c1.1-6.02,3.41-11.82,6.25-17.37,2.84-5.57,6.2-10.94,9.49-16.41,2.83-4.72,6.31-9.59,8.79-15.01,2.48-5.37,3.9-11.4,2.49-17.03-.04-.18-.39-.18-.43-.02-1.11,5.89-3.38,11.56-6.17,16.94-2.79,5.39-6.11,10.52-9.46,15.68-3.61,5.56-7.33,11.12-10.42,17.16-.77,1.58-1.6,3.14-2.24,4.8l-1.02,2.46c-.33.83-.59,1.69-.88,2.53-.77,2.05-1.54,4.16-.62,6.34.73,1.7,3.91,1.52,4.22-.07Z"/>
      <path class="cls-1" d="M85.92,103.59c.1-13.42,2.94-26.74,7.46-39.33.97-2.72,2.2-5.45,3.49-8.18,1.31-2.72,2.67-5.35,4.19-7.71,1.54-2.37,3.19-4.47,5.22-6.33,2.03-1.86,4.35-3.55,7.49-4.67.2-.07.13-.42-.07-.42-3.74-.12-7.21,1.29-10,3.3-2.84,2.03-5.01,4.75-6.76,7.61-1.75,2.88-3.13,5.9-4.46,8.92-1.32,3.03-2.6,6.09-3.73,9.22-2.47,6.72-4.53,13.62-5.95,20.7-.74,3.67-1.27,7.38-1.66,11.11-.25,2.29-.7,4.56.62,6.65,1.04,1.64,4.12.94,4.13-.85Z"/>
      <path class="cls-1" d="M210.65,104.5c-6.68-8.02-13.35-16.14-20.63-23.79-7.28-7.63-15.24-14.79-24.24-20.59-7.75-5.09-16.42-9.34-24.08-14.36-3.89-2.51-7.84-5.18-12.09-7.24-4.22-2.06-8.8-3.45-13.13-3.36-.27,0-.24.37,0,.44,4.63,1.28,8.98,3.68,13.12,6.38,4.15,2.71,8.15,5.74,12.43,8.45,8.56,5.39,17.75,9.47,25.62,15.54,8.6,6.39,16.1,14.11,23.09,22.23,3.63,4.21,7.17,8.52,10.63,12.91,2.13,2.7,3.98,5.55,6.98,7.09,2.38,1.22,4.09-1.54,2.28-3.71Z"/>
      <path class="cls-1" d="M216.69,104.69c-4.74-10.78-9.78-21.37-15.41-31.79-1.44-2.61-2.99-5.2-4.76-7.68-1.75-2.48-3.78-4.87-5.96-6.99-2.17-2.14-4.46-4.07-6.72-5.95-2.25-1.87-4.52-3.76-6.88-5.59-2.03-1.57-4.14-3.16-6.38-4.66-2.24-1.5-4.63-2.89-7.08-4.13-4.91-2.49-10.14-4.36-15.38-5.74-5.25-1.39-10.49-2.3-15.65-2.87-2.6-.28-5.29-.39-7.86.03-2.56.4-4.99,1.41-6.58,3.03-.21.19.08.43.32.31,2.16-1.18,4.79-1.51,7.45-1.37,2.68.14,5.38.71,8.12,1.3,5.48,1.18,10.92,2.42,16.24,4.07,5.31,1.65,10.48,3.72,15.26,6.49,4.79,2.74,9.11,6.26,13.39,9.9,4.6,3.96,9.25,7.81,12.74,12.48,3.53,4.67,6.19,10.02,8.83,15.45,2.74,5.62,5.38,11.29,7.85,17.03,1.52,3.54,2.69,7.12,5.28,9.78,2.05,2.11,4.43-.17,3.16-3.09Z"/>
      <path class="cls-1" d="M221.74,105.25c-.99-2.86-1.41-6.09-1.97-9.44-.28-1.68-.6-3.4-1.08-5.13-.47-1.73-1.07-3.4-1.74-5-1.34-3.23-2.91-6.21-4.38-9.2l-4.46-8.99c-1.49-3-2.94-5.99-4.51-9.02-1.57-3.02-3.29-6.04-5.36-8.89-4.17-5.74-9.55-10.26-14.92-14.35-4.63-3.51-9.53-7.2-15.17-10.14-2.81-1.46-5.81-2.71-8.97-3.57-3.16-.86-6.41-1.3-9.63-1.39-6.45-.17-12.66,1.02-18.36,2.94-2.86.98-5.63,2.22-8.08,3.82-2.45,1.6-4.57,3.57-6.05,5.79-.19.28.17.42.41.2,2.21-2.04,4.89-3.61,7.74-4.8,2.86-1.2,5.91-2.04,9-2.71,6.18-1.34,12.54-1.99,18.77-1.22,6.24.71,12.13,3.19,17.51,6.5,2.7,1.65,5.3,3.48,7.84,5.41,2.55,1.93,5.07,3.91,7.47,5.98,2.58,2.24,5.02,4.62,7.15,7.22,2.14,2.58,3.91,5.43,5.51,8.43,1.6,2.99,3.04,6.12,4.52,9.27l4.44,9.41c1.52,3.25,3.16,6.51,4.52,9.68.68,1.59,1.28,3.19,1.74,4.79.47,1.59.78,3.21,1.04,4.94.32,2.11.5,4.33.99,6.52.5,2.18,1.32,4.39,2.83,6.12,1.21,1.36,2.34,1.18,2.94.42.61-.8.76-2.06.25-3.58Z"/>
      <path class="cls-1" d="M223.06,102.19c.6-5.97.75-11.98.45-17.96-.34-5.98-1.08-11.95-2.34-17.82-1.26-5.87-2.96-11.64-5.16-17.24-2.21-5.58-5.02-11.2-9.29-15.88-3.61-4.05-8.13-7.4-12.96-10.08-4.84-2.7-9.99-4.76-15.11-6.46-5.09-1.66-10.35-3.21-15.73-3.61-2.68-.2-5.37-.1-7.9.43-2.53.52-4.9,1.48-6.84,2.83-.25.16,0,.44.27.35,2.49-.86,5.16-1.28,7.86-1.28,2.71,0,5.44.36,8.14.93,5.4,1.18,10.73,3.06,15.99,4.95,5.24,1.94,10.38,4.18,15.03,7.18,4.65,2.98,8.72,6.78,11.64,11.42,3.18,4.98,5.29,10.64,7.05,16.37,1.76,5.73,2.98,11.6,3.73,17.52.78,6.13,1.09,12.33.8,18.48-.16,3.8-.82,7.42.09,10.98.72,2.84,3.91,2.14,4.29-1.12Z"/>
      <path class="cls-1" d="M215.38,270.53c-1.38-20.27-1.3-40.68-.96-61.03.16-8.77.96-18.13,1.33-27.34.4-9.24.33-18.25-1.01-26.89-.05-.27-.4-.2-.43.07-1.23,9.84-1.86,19.6-2.44,29.39-.56,9.78-.99,19.58-1.34,29.42-.36,10.6-.67,21.2-.74,31.82-.03,5.5.04,11.01.15,16.52.06,3.39-.13,6.74,1.42,9.69,1.21,2.33,4.22,1.08,4.02-1.65Z"/>
      <path class="cls-1" d="M196.39,274.19c-1.03-12.75-1.22-25.55-1.51-38.35-.26-11.05,1.62-23.57-3.79-34-.09-.17-.43-.08-.42.08.65,12.34.59,24.58.48,36.96-.06,6.67-.2,13.33-.21,20.01,0,3.46.07,6.92.13,10.38.03,2.13-.2,4.23,1.27,6.05,1.16,1.44,4.19.58,4.05-1.14Z"/>
      <path class="cls-1" d="M114.01,277.42c-4.42-14.09-7.4-28.61-9.81-43.19-1.04-6.28-1.5-13.09-2.43-19.74-.94-6.65-2.35-13.14-5.45-19.01-.1-.19-.43-.07-.41.13,1.58,14.27,3.04,28.4,5.1,42.64,1.11,7.67,2.32,15.33,3.85,22.94.79,3.95,1.69,7.87,2.65,11.79.56,2.41.92,4.85,2.85,6.59,1.52,1.37,4.25-.26,3.65-2.16Z"/>
      <path class="cls-1" d="M106.19,278.19c-2.55-11.35-4.97-22.76-7.33-34.14-.57-2.83-1.1-5.66-1.51-8.48-.41-2.81-.68-5.65-.89-8.52-.39-5.74-.65-11.58-.93-17.38-.93-20,.43-43.07-6.15-61.62-.1-.29-.43-.12-.41.18,2.01,22.27,2.3,44.53,3.02,66.99.22,6.04.31,12.1.89,18.22.58,6.14,1.77,12.14,2.87,18.07l3.53,18.46c.72,3.79,1.16,7.56,3.21,10.66,1.62,2.45,4.38.64,3.69-2.43Z"/>
      <path class="cls-1" d="M97.9,277.23c-1.08-6.18-1.83-12.52-2.52-18.85-.69-6.33-1.28-12.69-1.85-19.05-1.13-12.72-2.11-25.46-3.16-38.21-.91-10.98-1.37-22.77-2.54-34.35-1.19-11.55-3.02-22.99-6.97-32.91-.12-.31-.44-.1-.39.23,1.79,12.07,2.9,24.3,3.94,36.49,1.02,12.21,1.86,24.44,2.66,36.73.87,13.24,1.63,26.48,2.6,39.72.5,6.87,1.12,13.73,1.81,20.61.19,2.11.41,4.23.75,6.26.32,2.02.94,4,1.94,5.78,1.58,2.8,4.35.82,3.75-2.46Z"/>
      <path class="cls-1" d="M207.79,267.29c-3.77-26.84-3.88-54.11-3.44-81.31.2-11.73,1.08-24.27,1.29-36.67.19-12.44-.28-24.4-1.12-35.8-.03-.36-.39-.24-.44.12-1.8,13.14-1.83,26.26-2.29,39.3-.43,13.06-.96,26.13-1.33,39.28-.39,14.16-.63,28.34-.2,42.54.2,7.36.69,14.72,1.25,22.08.2,2.26.34,4.51.64,6.68.33,2.17.87,4.25,1.8,6.18,1.48,3.04,4.34,1.21,3.84-2.4Z"/>
      <path class="cls-1" d="M199.42,272.62c.55-15.62,1.17-31.26.92-46.92-.2-13.45.99-29.05-5.5-41.22-.1-.19-.43-.06-.41.14,1.92,14.84,2.42,29.74,2.16,44.73-.14,8.08-.58,16.14-1.08,24.19-.26,4.17-.49,8.35-.82,12.51-.19,2.57-.68,5.06.56,7.43.98,1.88,4.09,1.25,4.16-.86Z"/>
    </g>
  </g>
</svg>