<?xml version="1.0" encoding="UTF-8"?><svg id="Calque_2" xmlns="http://www.w3.org/2000/svg" viewBox="0 0 300 300"><defs><style>.cls-1{fill:#1d1d1d;}.cls-2{fill:#1db4b8;}.cls-3{fill:#00abaf;}</style></defs><path class="cls-2" d="M103.03,155.76c-4.25,4.36-9.86,6.95-14.67,10.59-2.07,1.57-5.39,1.8-7.11,4.07-.43.57-.76,1.26-.94,2.14-.08.43-.18.94-.13,1.43.05.49.17,1,.34,1.55.16.56.42,1.15.6,1.86.19.71.36,1.52.48,2.42.25,1.8.3,3.91.09,6.48-.03.33.32,1.59.43,1.54.99-.41,1.95-1,2.79-1.67.84-.65,1.65-1.44,2.24-2.08.61-.66,1.03-1.14,1.58-1.65.53-.5,1.08-.97,1.65-1.41,2.29-1.76,4.93-3.07,7.73-4.18,3.02-1.19,6.38-1.94,9.58-2.9,1.66-.5,3.18-1.17,4.8-1.73.99-.34,2.59.14.21-4.45-1.88-3.63-9.11-12.59-9.69-12Z"/><path class="cls-2" d="M215.5,169.92c4.76,2.64,8.32,6.87,12.59,10.17,1.84,1.42,2.82,4.23,5.19,5.18.59.24,1.27.36,2.07.31.41-.01.8-.11,1.32-.18.52-.07,1.11-.18,1.76-.34.64-.17,1.36-.38,2.04-.74.68-.36,1.35-.83,2-1.44,1.3-1.21,2.49-3.02,3.33-5.23.11-.28.33-1.33.3-1.3-.37.36-.8.55-1.22.62-.44.06-.79.06-1.31-.13-.49-.18-1.14-.55-1.68-.87-.56-.34-1.09-.7-1.61-1.09-2.06-1.56-3.81-3.53-5.43-5.69-1.74-2.33-3.18-5.05-4.76-7.59-.82-1.32-1.76-2.47-2.62-3.74-.53-.78-.49-2.27-3.89.86-2.69,2.48-8.72,10.83-8.08,11.19Z"/><circle class="cls-3" cx="179.66" cy="101.54" r="8.34"/><circle class="cls-3" cx="179.66" cy="72.07" r="8.34"/><circle class="cls-3" cx="179.66" cy="42.6" r="8.34"/><path class="cls-1" d="M137.25,220.32c.16-.15.32.08.48.08.14,0,.3,1.27.43-2.31,0-.06,0-.28,0-.27-.15.51-.31.4-.46.12-.08-.15-.17-.4-.25-.61-.04-.11-.09-.17-.13-.27-.03-.06-.05-.29-.08.59-.02.7-.01,2.68.01,2.66Z"/><path class="cls-1" d="M236.02,122.16c.78,17.78-.06,35.65.36,53.58l.06,3.35c0,1.05-.05,2.15-.1,3.24-.15,2.2-.34,4.41-.57,6.62-.46,4.42-1.03,8.84-1.67,13.24-.65,4.4-1.36,8.8-2.28,13.11-.24,1.06-.47,2.15-.78,3.15-.28,1-.69,2.09-1.02,3.13-.71,2.1-1.45,4.2-2.24,6.27-3.08,8.32-6.85,16.36-11.35,23.97-2.28,3.79-4.75,7.45-7.39,10.99-2.64,3.54-5.52,6.9-8.5,10.16-3.03,3.2-6.16,6.44-9.41,9.35-3.27,2.91-6.76,5.47-10.7,7.15-4.06,1.8-8.07,3.42-12.24,3.6-2.08.12-4.2-.08-6.32-.46-2.12-.35-4.24-.91-6.35-1.51-.91-.28-1.82-.55-2.73-.83-.91-.3-1.82-.6-2.73-.91-.91-.32-1.82-.64-2.73-.96-.45-.16-.92-.32-1.36-.49l-1.28-.53c-3.41-1.48-6.7-3.58-9.91-5.81-6.41-4.51-12.54-9.66-18.68-14.89-3.07-2.62-6.16-5.25-9.25-7.89-3.03-2.6-5.9-5.38-8.55-8.36-5.26-5.96-9.69-12.72-12.4-20.11-2.79-7.36-3.6-15.34-3.75-23.26-.07-3.97,0-7.95.08-11.92.07-3.98.13-7.93.2-11.85.21-15.7.19-30.96-.15-45.46-.02-.92-.26-.44-.29.49-.56,17.17-1.12,34.31-1.67,51.44-.26,8.55-.8,17.15-.04,25.77.4,4.3,1.1,8.59,2.38,12.74,1.26,4.15,3,8.15,5.18,11.89,4.31,7.52,10.1,14.09,16.58,19.77,6.57,5.53,13,11.18,19.72,16.58,3.36,2.69,6.78,5.32,10.35,7.75.89.61,1.79,1.21,2.72,1.78.91.59,1.85,1.13,2.8,1.67.93.56,1.94,1.01,2.91,1.51,1,.43,2.04.89,3.05,1.24,4.05,1.46,8.14,2.87,12.38,3.9,2.12.51,4.28.91,6.48,1.12,2.21.17,4.46.09,6.65-.31,2.37-.43,4.63-1.2,6.81-2.07,1.09-.44,2.17-.9,3.23-1.37,1.08-.47,2.16-1,3.2-1.58,4.16-2.34,7.76-5.47,11.12-8.7,1.68-1.63,3.33-3.25,4.94-4.95.8-.85,1.63-1.67,2.41-2.54l2.34-2.61c3.06-3.53,5.96-7.21,8.65-11.04,5.32-7.7,9.84-15.95,13.5-24.55,1.84-4.3,3.5-8.67,5.02-13.07.37-1.12.77-2.17,1.11-3.35.37-1.18.62-2.32.88-3.48.52-2.3.92-4.6,1.34-6.89.82-4.77,1.52-9.54,2.13-14.33.59-4.81,1.17-9.57,1.35-14.52.03-1.3,0-2.47-.02-3.67l-.05-3.6-.04-7.19c0-4.8.06-9.6.13-14.4.2-11.82.38-23.52-1.06-34.12-1.18-8.37-2.89-4.57-2.44,5.04Z"/><path class="cls-1" d="M166.1,200.66c4.44-1.27,8.75-2.97,12.85-5.08,2.05-1.06,4.05-2.22,5.98-3.47,1.92-1.28,3.84-2.53,5.63-4.27.88-.87,1.7-1.88,2.32-3.05.59-1.18,1.03-2.46,1.15-3.76.28-2.61-.31-5.1-1.11-7.33-.8-2.25-1.83-4.32-2.79-6.35l-1.35-3.03c-.42-1.02-.8-2.06-1.2-3.08-2.59-7.17-3.76-15.31-3.89-23.31-.13-8.03.72-15.86,1.48-23.41.02-.24-.23-.2-.29.03-2.71,8.38-3.85,17.17-3.54,25.89.32,8.72,2.12,17.41,5.5,25.55.9,2.21,1.95,4.31,2.82,6.43.88,2.11,1.57,4.28,1.72,6.41.13,2.12-.42,4.14-1.71,5.74-1.28,1.62-3.12,2.91-5.05,4.17-3.96,2.61-8.2,4.79-12.62,6.47-2.73,1.03-5.48,1.68-7.8,3.17-1.86,1.17-.54,2.92,1.89,2.25Z"/><path class="cls-1" d="M72.32,204.77c-2.51-2.58-4.84-5.31-6.25-8.4-.69-1.54-1.09-3.16-1.15-4.78-.07-1.61.28-3.31.64-5.12.36-1.8.77-3.75.65-5.85-.13-2.1-.77-4.05-1.51-5.82-1.51-3.52-3.34-6.6-3.53-9.83-.2-2.81.64-5.8,2.28-8.25.81-1.23,1.82-2.32,2.99-3.2.29-.2.61-.46.85-.6.29-.16.2-.1.21-.11.02.02-.04-.04.05.03.14.11.36.33.61.63,4.35,5.08,8.99,9.79,14.15,13.25.16.11.27-.11.14-.25-2.34-2.64-4.65-5.31-6.93-7.99l-3.41-4.04-1.69-2.03c-.58-.62-1.04-1.5-2.24-1.96-.56-.19-1.2-.1-1.72.15-.49.23-.85.5-1.22.77-.76.53-1.43,1.16-2.07,1.82-1.27,1.33-2.27,2.91-3.02,4.59-1.5,3.35-1.84,7.3-.74,10.89,1.15,3.82,3.31,7.11,3.92,10.58.31,1.71.14,3.4-.24,5.21-.37,1.8-.91,3.69-1.09,5.78-.17,2.18.14,4.45.91,6.47.75,2.04,1.82,3.9,3.03,5.59,1.48,2.09,3.01,4.06,5.17,5.03,1.71.76,2.59-1.18,1.22-2.58Z"/><path class="cls-1" d="M205.85,141.17c.22-.52.62-1.01,1.13-1.39.5-.38,1.1-.62,1.78-.76,1.32-.26,2.93-.05,4.2.49.64.27,1.21.65,1.61,1.08.4.45.62.89.71,1.47.09.58.06,1.41-.04,2.07-.11.67-.33,1.24-.64,1.64-.5.69-1.88,1.32-3.14,1.68-1.28.37-2.57.48-3.73.32-.59-.09-1.13-.2-1.64-.42-.52-.22-1.05-.52-1.57-.9-1-.77-2.04-1.82-2.46-3.66-.03-.12-.25-.13-.27-.02-.45,2.06.4,4.02,1.66,5.32,1.25,1.37,3.1,2.1,4.85,2.18,1.78.11,3.52-.3,5.12-.97.79-.34,1.59-.72,2.33-1.32.75-.59,1.35-1.48,1.65-2.37.34-.98.46-1.96.49-2.93.04-.97-.15-2.17-.76-3.14-.59-.97-1.44-1.72-2.34-2.26-.91-.54-1.89-.91-2.89-1.13-2.02-.45-4.42-.42-6.56.87-.64.38-1.25.84-1.69,1.46-.43.61-.67,1.38-.45,2.15.17.61.83.83,1.42.86.6.02,1.11-.04,1.22-.3Z"/><path class="cls-1" d="M130.97,141.17c.22-.52.62-1.01,1.13-1.39.5-.38,1.1-.62,1.78-.76,1.32-.26,2.93-.05,4.2.49.64.27,1.21.65,1.61,1.08.4.45.62.89.71,1.47.09.58.06,1.41-.04,2.07-.11.67-.33,1.24-.64,1.64-.5.69-1.88,1.32-3.14,1.68-1.28.37-2.57.48-3.73.32-.59-.09-1.13-.2-1.64-.42-.52-.22-1.05-.52-1.57-.9-1-.77-2.04-1.82-2.46-3.66-.03-.12-.25-.13-.27-.02-.45,2.06.4,4.02,1.66,5.32,1.25,1.37,3.1,2.1,4.85,2.18,1.78.11,3.52-.3,5.12-.97.79-.34,1.59-.72,2.33-1.32.75-.59,1.35-1.48,1.65-2.37.34-.98.46-1.96.49-2.93.04-.97-.15-2.17-.76-3.14-.59-.97-1.44-1.72-2.34-2.26-.91-.54-1.89-.91-2.89-1.13-2.02-.45-4.42-.42-6.56.87-.64.38-1.25.84-1.69,1.46-.43.61-.67,1.38-.45,2.15.17.61.83.83,1.42.86.6.02,1.11-.04,1.22-.3Z"/><path class="cls-1" d="M101.34,74.09c2.37-5,4.91-9.89,8.29-14.08,3.35-4.16,7.63-7.63,12.56-9.25,4.26-1.41,9.31-1.02,14.43-1.31,2.56-.16,5.19-.51,7.62-1.43,2.42-.9,4.59-2.45,5.81-4.44.08-.12-.11-.26-.22-.18-1.99,1.53-4.42,2.47-6.97,2.98-2.55.51-5.2.64-7.86.71-2.66.07-5.35.08-8.06.36-2.7.28-5.45.83-8.01,1.96-5.52,2.4-10.06,6.63-13.58,11.4-1.84,2.48-3.4,5.12-4.88,7.77-.91,1.63-1.93,3.16-1.86,5.04.05,1.48,2.09,1.84,2.73.49Z"/><path class="cls-1" d="M150.34,42.24c-3.2-.1-6.45-.9-9.84-1.49-3.39-.59-7.04-.94-10.68-.04-1.55.39-3.19.99-4.64,1.88-1.45.87-2.72,1.91-3.83,2.97-1.12,1.06-2.08,2.15-3,3.23-.93,1.08-1.83,2.21-3.1,3.4-.08.08.01.28.1.25,1.74-.51,3.25-1.43,4.56-2.47,1.32-1.03,2.5-2.15,3.72-3.2,1.21-1.05,2.47-2.02,3.83-2.72,1.36-.7,2.87-1.09,4.4-1.25,3.34-.35,6.67.37,10.03,1.2,1.75.43,3.54.85,5.39,1.19,1.13.21,2.3.56,3.39-.28.85-.67.5-2.66-.33-2.68Z"/><path class="cls-1" d="M158.59,44.79c-1.41-2.87-3.59-5.31-6.3-6.98-2.72-1.69-5.98-2.48-9.17-2.26-1.37.09-2.8.29-4.21.72-1.43.43-2.72,1.1-3.82,1.77-1.12.69-2.04,1.35-3.04,2.09-1,.74-2.01,1.57-3.12,2.6-.07.07,0,.28.07.26,1.44-.29,2.84-.72,4.16-1.27,1.34-.55,2.57-1.28,3.77-1.93,1.2-.66,2.4-1.21,3.69-1.5,1.28-.31,2.61-.41,3.91-.31,2.82.21,5.45,1.4,7.44,3.21,1.03.94,1.95,1.99,2.64,3.18.43.74.58,1.51,1.69,1.88.88.31,2.66-.62,2.28-1.45Z"/><path class="cls-1" d="M163.03,41.92c-.81-2.96-2.84-5.34-5.23-6.93-2.38-1.6-5.26-2.53-8.11-2.58-4.82-.24-10.69.7-12.93,5.71-.04.08.09.26.15.23,2.12-1.27,4.36-2.3,6.71-2.93,2.34-.64,4.79-.85,7.14-.47,2.49.4,4.8,1.65,6.48,3.32.87.86,1.59,1.83,2.05,2.88.25.68.27,1.29,1.24,1.74.8.39,2.73-.1,2.52-.95Z"/><path class="cls-1" d="M169.73,43.53c-.1-2.69-.88-5.32-2.3-7.59-1.4-2.27-3.54-4.17-6.02-5.23-2.1-.94-4.61-1.71-7.12-1.33-1.25.18-2.4.67-3.33,1.38-.93.72-1.65,1.66-2.2,2.85-.04.08.08.27.13.24,2.01-1.1,4.07-2.03,6.26-2.11,2.18-.1,4.38.53,6.2,1.68,1.97,1.24,3.39,3.13,4.19,5.19.42,1.06.71,2.17.8,3.28.06.7-.14,1.32.73,1.96.68.53,2.68.46,2.67-.31Z"/><path class="cls-1" d="M171.73,42.81c2.53-3.3,2.48-7.62,1.29-10.97-.24-.72-.49-1.48-.74-2.25-.27-.75-.61-1.58-1.26-2.34-.32-.37-.71-.72-1.18-.97-.48-.27-1.01-.41-1.53-.42-1.03-.04-2.14.65-2.2,1.69,0,.06.1.26.12.24.35-.3,1.01-.35,1.6-.1.59.23,1.1.73,1.49,1.34.39.61.69,1.33.96,2.07.27.73.48,1.48.63,2.23.32,1.61.26,3.24-.19,4.62-.23.72-.52,1.39-.92,1.94-.26.36-.63.47-.23,1.35.29.71,1.78,2.04,2.16,1.57Z"/><path class="cls-1" d="M178.63,40.34c1.6-1.56,2.25-3.67,2.42-5.59.17-1.94-.12-3.87-.75-5.65-.28-.78-.58-1.61-1.03-2.43-.45-.82-1.09-1.61-1.96-2.18-.85-.55-1.88-.82-2.87-.65-.98.16-1.9.85-2.18,1.87-.02.06.07.27.09.25,1.11-.62,2.77-.24,3.84.73,1.11.97,1.72,2.44,2.02,3.95.33,1.63.23,3.31-.22,4.73-.23.73-.55,1.38-.96,1.86-.29.31-.61.37-.34,1.27.2.75,1.46,2.29,1.94,1.84Z"/><path class="cls-1" d="M182.06,43.33c2.11-1.89,4.35-3.84,6.02-6.49.82-1.32,1.46-2.83,1.74-4.43.28-1.6.2-3.17.02-4.63-.16-1.24-.29-2.59-.67-3.98-.38-1.37-1.04-2.91-2.42-4.05-.68-.55-1.51-.96-2.36-1.1-.85-.15-1.66-.07-2.36.16-1.41.47-2.4,1.41-3.2,2.58-.05.07.05.27.12.25,1.22-.51,2.44-.94,3.63-.97,1.19-.04,2.29.45,3.05,1.37.77.91,1.21,2.14,1.48,3.39.26,1.25.38,2.6.41,3.88.1,2.81-.98,5.21-2.79,7.18-.92,1.03-1.96,1.99-3.09,2.89-.7.56-1.52.95-1.58,2.15-.05.95,1.43,2.3,2.01,1.79Z"/><path class="cls-1" d="M192.03,45.77c2.93-1.88,5.34-4.51,6.87-7.63,1.53-3.13,2.12-6.72,1.62-10.17-.21-1.49-.54-3.02-1.11-4.53-.3-.76-.67-1.53-1.19-2.26-.5-.73-1.19-1.41-1.94-1.91-1.53-1.03-3.27-1.36-4.8-1.24-1.55.12-2.94.66-4.25,1.51-.08.05-.05.27.03.27,1.51-.07,3-.08,4.43.17,1.42.25,2.77.79,3.77,1.75,1,.95,1.65,2.28,2.08,3.67.44,1.39.66,2.85.66,4.31.01,3.14-1.02,6.19-2.79,8.62-.91,1.27-1.99,2.4-3.21,3.33-.77.58-1.61.87-1.92,2.06-.27.95.9,2.58,1.73,2.07Z"/><path class="cls-1" d="M194.53,47.78c2.44-1.36,4.97-2.73,7.29-4.59,2.31-1.82,4.36-4.35,5.35-7.3.88-2.49,1.42-5.34,1.06-8.04-.34-2.69-1.57-5.17-3.95-6.71-.07-.05-.27.05-.24.12,1.04,2.39,1.7,4.94,1.84,7.53.14,2.57-.31,5.19-1.47,7.41-1.23,2.42-3.33,4.19-5.64,5.6-1.2.74-2.47,1.41-3.78,2.04-.81.38-1.69.59-2.02,1.75-.25.92.91,2.55,1.57,2.18Z"/><path class="cls-1" d="M198.25,48.74c3.98-1.12,8.18-2.41,11.59-5.31,1.44-1.22,3.06-2.62,3.97-4.52.91-1.84.97-4.25-.73-5.93-.05-.05-.27-.04-.27,0,.13,1.79-.41,3.63-1.38,5.21-.96,1.58-2.33,2.92-3.88,3.93-1.68,1.1-3.58,1.8-5.51,2.33-1,.28-2,.53-3.03.73-.64.12-1.29.05-1.66,1.03-.29.78.34,2.68.89,2.53Z"/><path class="cls-1" d="M203.04,51.07c3.75.23,7.57-.23,11.01-1.79,1.46-.67,3.15-1.3,4.44-2.48,1.28-1.16,2.13-2.87,1.57-5.05-.02-.07-.2-.19-.23-.15-1.57,2.83-4.43,4.81-7.51,5.75-1.66.52-3.4.71-5.08.7-.87,0-1.74-.01-2.58-.14-.53-.06-.99-.35-1.57.48-.47.65-.58,2.64-.05,2.67Z"/><path class="cls-1" d="M208.88,53.06c3.95.46,8.06,1.19,12.3.51,1.8-.29,3.83-.55,5.59-1.56,1.73-.97,3.13-2.8,2.82-5.14,0-.07-.19-.2-.22-.16-.99,1.47-2.47,2.61-4.13,3.36-1.66.75-3.5,1.12-5.32,1.2-1.98.08-3.96-.19-5.91-.56-1.02-.19-2.03-.38-3.05-.62-.63-.15-1.21-.47-1.92.3-.56.61-.68,2.61-.15,2.67Z"/><path class="cls-1" d="M209.83,53.75c7.95,2.26,15.77,4.99,22.61,9.24,2.95,1.83,5.67,4.35,8.19,6.89,2.55,2.56,4.91,5.07,7.89,7.54.1.08.28-.06.22-.16-3.69-7.44-9.79-13.09-16.68-17.37-3.73-2.3-7.68-4.22-11.72-5.88-2.09-.86-4.22-1.62-6.33-2.38-1.3-.46-2.53-1.09-3.96-.6-1.14.38-1.31,2.41-.23,2.71Z"/><path class="cls-1" d="M210.43,54.45c9.81,3.23,18.34,9.85,24.67,17.97,2.75,3.52,4.96,7.75,6.94,11.97,2,4.24,3.8,8.43,6.23,12.46.08.13.28.02.25-.11-2.07-10.19-6.52-19.68-13.03-27.77-3.51-4.35-7.6-8.28-12.23-11.52-1.22-.82-2.41-1.67-3.71-2.36l-1.92-1.09c-.65-.34-1.32-.64-1.99-.97-1.61-.83-3.25-1.62-5.05-1.33-1.41.23-1.46,2.33-.17,2.77Z"/><path class="cls-1" d="M225.3,70.56c6.17,4.64,11.05,10.87,14.69,17.64,1.58,2.93,2.7,6.31,3.89,9.59,1.2,3.29,2.49,6.46,4.69,9.45.07.09.28.01.26-.09-1.51-7.6-3.93-14.89-7.57-21.74-1.96-3.68-4.24-7.22-6.92-10.48-.71-.83-1.4-1.68-2.17-2.46-.75-.8-1.51-1.59-2.32-2.34-.95-.95-1.88-1.96-3.36-2.01-1.16-.04-2.02,1.82-1.21,2.44Z"/><path class="cls-1" d="M231.38,82.84c4.6,4.4,8.06,9.9,10.65,15.69,1.12,2.51,1.81,5.36,2.67,8.1.87,2.75,1.92,5.39,3.98,7.88.07.08.28.01.26-.07-1.14-6.31-2.78-12.41-5.3-18.31-1.36-3.17-2.93-6.28-4.84-9.2-.99-1.51-2.07-2.98-3.23-4.38-.69-.88-1.31-1.83-2.63-1.91-1.04-.06-2.17,1.62-1.56,2.21Z"/><path class="cls-1" d="M235.07,97.71c3.87,3.14,6.73,7.39,8.79,11.89.9,1.95,1.37,4.21,2.03,6.34.67,2.16,1.55,4.19,3.45,6.23.06.06.28.02.27-.05-.78-5.08-2-9.95-4.03-14.66-1.09-2.53-2.39-5-4-7.31-.84-1.19-1.76-2.33-2.75-3.41-.59-.68-1.12-1.44-2.29-1.3-.92.12-1.97,1.84-1.46,2.26Z"/><path class="cls-1" d="M238.24,107.84c1.2,1.24,2.11,2.82,3,4.49.9,1.69,1.73,3.31,2.29,4.96.5,1.44.52,3.08.76,4.63.24,1.58.73,3.08,2.19,4.99.05.06.27.08.27.02.21-3.87-.05-7.62-1.21-11.32-.64-1.99-1.44-3.84-2.25-5.7-.44-.97-.94-1.93-1.53-2.89-.35-.58-.64-1.3-1.71-1.16-.84.12-2.11,1.67-1.8,1.98Z"/><path class="cls-1" d="M238.32,114.52c1.67,2.11,2.94,4.45,3.97,6.78.45,1.01.54,2.19.92,3.22.39,1.06,1.09,1.96,2.88,3.11.06.04.28.02.27-.02-.5-2.79-1.18-5.34-2.09-7.92-.49-1.38-1.01-2.77-1.62-4.11-.32-.69-.68-1.36-1.03-2.02-.21-.41-.28-.91-1.24-.74-.75.14-2.29,1.41-2.07,1.69Z"/><path class="cls-1" d="M237.12,117.93c1.47,1.49,2.43,3.39,3.32,5.25.39.81.46,1.81.89,2.64.43.85,1.23,1.53,3.18,2.03.06.02.27-.05.26-.07-.98-2.03-1.6-4.05-2.34-6.15-.4-1.12-.8-2.28-1.31-3.4-.27-.58-.59-1.13-.91-1.68-.19-.34-.27-.79-1.16-.48-.7.25-2.11,1.66-1.92,1.85Z"/><path class="cls-1" d="M238.22,123.11c1.09,1.4,1.59,3.14,2.01,4.83.18.74.02,1.58.22,2.34.21.77.81,1.48,2.57,2.36.06.03.28.02.27,0-.43-1.96-.55-3.79-.79-5.74-.13-1.05-.27-2.13-.55-3.19-.14-.55-.34-1.08-.56-1.62-.12-.33-.12-.76-1.02-.53-.71.18-2.3,1.39-2.16,1.57Z"/><path class="cls-1" d="M69.29,121.16c.28-2.9,1.5-5.73,3.37-8,.93-1.13,2.01-2.14,3.2-2.97,1.19-.82,2.53-1.47,3.97-2.1,1.23-.55,2.61-1.02,4.01-1.65,1.41-.63,2.81-1.43,4.02-2.43,2.43-1.98,4.14-4.84,3.98-7.93,0-.1-.21-.18-.25-.11-1.37,2.62-3.43,4.91-5.88,6.62-2.44,1.77-5.33,2.65-8.25,3.88-3.18,1.3-6.2,3.52-8.28,6.45-1.1,1.51-1.95,3.22-2.55,5.02-.37,1.09-.83,2.25-.03,3.36.61.86,2.64.6,2.69-.15Z"/><path class="cls-1" d="M66.71,139.67c-.82-1.5-1.17-3.31-1.23-5.18-.07-1.86.11-3.83.37-5.74.28-1.9.7-3.75,1.42-5.41.71-1.67,1.76-3.1,3.05-4.38,2.24-2.23,5.59-3.63,8.72-5.49,1.57-.93,3.13-2,4.43-3.34,1.3-1.33,2.33-2.94,2.74-4.69.03-.11-.17-.22-.23-.15-2.32,2.84-5.72,4.75-9.06,6.58-3.34,1.85-6.93,3.64-9.64,6.76-1.46,1.65-2.54,3.67-3.24,5.74-.71,2.08-1.11,4.22-1.39,6.34-.28,2.2-.41,4.51-.04,6.9.21,1.44.56,3.07,2.01,3.81.58.28,1.2,0,1.62-.41.43-.43.66-.94.46-1.34Z"/><path class="cls-1" d="M68.05,139.93c-.71-2.63-.38-5.54.48-8.27.88-2.72,2.24-5.44,3.77-7.85.67-1.02,1.51-1.95,2.43-2.72.91-.76,1.98-1.38,3.13-2.12,1.13-.73,2.34-1.57,3.3-2.74.96-1.13,1.6-2.66,1.38-4.08-.01-.09-.22-.16-.25-.1-.54,1.15-1.51,2.15-2.65,2.97-1.14.83-2.44,1.52-3.71,2.29-1.28.75-2.56,1.67-3.63,2.77-1.08,1.1-1.99,2.33-2.82,3.61-1.73,2.74-3.32,5.63-4.26,8.9-.49,1.69-.74,3.48-.74,5.32,0,1.11-.04,2.33,1.09,3.07.87.56,2.67-.4,2.48-1.06Z"/><path class="cls-1" d="M66.24,145.61c-.34-1.37-.59-2.69-.56-3.94.03-1.24.34-2.43.89-3.57,1.13-2.28,3.1-4.21,5.2-6.04,1.81-1.56,4.22-2.98,6.08-5.09.93-1.05,1.71-2.29,2.11-3.66.4-1.36.38-2.86-.23-4.13-.04-.08-.26-.1-.27-.03-.19,1.25-.67,2.47-1.36,3.6-.7,1.12-1.58,2.15-2.54,3.1-1.94,1.91-4.23,3.44-6.42,5.27-1.18.98-2.34,2.03-3.38,3.25-1.05,1.21-1.96,2.62-2.56,4.23-.62,1.67-.74,3.58-.59,5.26.08,1.04.06,2.07,1.11,2.72.83.52,2.7-.21,2.52-.96Z"/><path class="cls-1" d="M66.59,146.51c-.07-1.91.5-3.87,1.53-5.5.51-.82,1.13-1.56,1.83-2.21.69-.64,1.51-1.19,2.41-1.75,1.53-.94,3.61-1.8,5.18-3.29.79-.74,1.46-1.64,1.84-2.68.38-1.04.46-2.22.06-3.38-.02-.07-.23-.15-.25-.1-.68,1.83-2.05,3.42-3.65,4.68-1.6,1.3-3.46,2.17-5.37,3.27-2.07,1.18-4.02,2.97-5.26,5.19-.66,1.15-1.12,2.41-1.42,3.73-.18.79-.47,1.66.43,2.37.71.54,2.69.15,2.66-.32Z"/><path class="cls-1" d="M68.15,149.9c.4-1.4,1.15-2.69,2.09-3.8.95-1.13,2.05-2.01,3.33-2.81,1.11-.71,2.6-1.13,3.87-2.14.63-.5,1.21-1.16,1.52-1.99.32-.83.36-1.83-.1-2.8-.03-.06-.23-.16-.24-.12-.48,1.29-1.62,2.34-2.89,3.15-1.28.82-2.71,1.45-4.15,2.26-1.55.88-3.05,2-4.29,3.41-.64.73-1.19,1.54-1.68,2.4-.3.52-.75,1.02-.07,1.81.53.6,2.5,1,2.59.64Z"/><path class="cls-1" d="M70.53,153.01c-.04-1.02.37-2.08,1.03-2.86.66-.77,1.62-1.34,2.75-1.92.97-.51,2.26-.71,3.4-1.55.56-.4,1.07-.99,1.32-1.75.26-.74.19-1.69-.35-2.52-.03-.05-.23-.15-.24-.12-.3,1.04-1.21,1.91-2.28,2.51-1.08.61-2.3,1.03-3.55,1.56-.68.29-1.37.62-2.05,1.05-.67.45-1.34,1.01-1.86,1.7-.55.71-.95,1.53-1.23,2.4-.17.52-.47,1.12.41,1.62.69.37,2.68.12,2.67-.12Z"/><path class="cls-1" d="M73.02,152.83c1.26-1.48,3.34-2.26,5.33-3.45.86-.52,2-.88,2.82-1.77.81-.85,1.23-2.37.02-3.94-.04-.05-.24-.14-.25-.11-.2.94-.81,1.79-1.59,2.43-.78.65-1.73,1.13-2.71,1.54-1.07.45-2.22.79-3.37,1.31-.6.27-1.18.59-1.77.98-.36.21-.85.37-.49,1.25.29.69,1.85,1.94,2.01,1.76Z"/><path class="cls-1" d="M78.37,149.83c-.48,1.38-1.37,2.66-2.4,3.85-1.03,1.2-2.22,2.35-3.36,3.62-.49.56-1.05,1.06-1.62,1.69-.56.63-1.15,1.43-1.43,2.44-.3,1.06-.14,2.02.21,2.75.35.76.94,1.34,1.57,2.36.04.07.26.11.26.05.17-1,.07-1.86.05-2.64-.02-.79.03-1.46.34-2.11.6-1.29,1.82-2.38,2.97-3.48,1.27-1.17,2.66-2.27,3.94-3.61.66-.7,1.27-1.47,1.83-2.32.34-.5.83-1.01.21-1.85-.49-.64-2.44-1.13-2.56-.78Z"/><path class="cls-1" d="M80.48,152.37c-.97,1.76-2.08,3.62-2.6,5.88-.27,1.12-.29,2.35-.23,3.37.06,1.04.11,1.92.1,2.86-.01,1.61-.52,3.26-.77,4.91-.25,1.67-.23,3.35.69,5.6.03.07.24.14.26.09,1.22-3.8,2.09-7.55,2.27-11.53.05-1.08.01-2.14.11-3.07.09-.92.35-1.74.73-2.56.39-.85.87-1.69,1.44-2.52.35-.51.87-.92.42-1.88-.35-.76-2.15-1.62-2.42-1.15Z"/><path class="cls-1" d="M90.81,92.42c-.75,1.61-2.16,2.94-3.82,3.97-1.67,1.03-3.56,1.76-5.54,2.34-2,.59-4.1,1.1-6.21,1.81-2.1.72-4.26,1.68-6.14,3.18-3.24,2.57-5.63,6.52-6.34,10.69-.71,4.17.17,8.26,2.39,11.38.07.1.28.01.26-.09-.79-3.95-1.04-8.05-.03-11.91.99-3.83,3.33-7.37,6.78-9.19,1.84-1.02,3.9-1.63,6.02-2.15,2.12-.53,4.31-.95,6.54-1.7,2.29-.78,4.56-1.88,6.55-3.62.61-.52,1.2-1.12,1.64-1.79.42-.69.69-1.48.55-2.32-.11-.67-.7-.99-1.29-1.07-.61-.08-1.15.07-1.37.48Z"/><path class="cls-1" d="M92.34,86.49c-1.1,2.29-3.69,3.85-6.4,4.75-2.75.92-5.86,1.33-8.99,2.46-2.7.93-5.64,2.5-7.63,4.88-1.99,2.35-3.02,5.46-2.13,8.35.03.09.25.12.27.05.71-2.75,2.18-5.34,4.21-7.36,1.01-1.01,2.17-1.87,3.42-2.55,1.25-.68,2.61-1.14,4.01-1.5,3.03-.79,6.28-.99,9.57-2.24,1.68-.65,3.32-1.56,4.76-2.9.87-.79,1.82-1.79,1.47-3.15-.15-.53-.74-.85-1.31-.99-.58-.13-1.12-.11-1.26.19Z"/><path class="cls-1" d="M99.74,72.38c-1.55,3.16-3.83,6-6.67,7.97-1.41,1-2.96,1.75-4.59,2.28-1.66.53-3.49.87-5.38,1.44-3.3.96-6.83,2.67-9.34,5.41-2.52,2.67-3.94,6.41-3.05,9.75.02.1.25.12.27.03.77-3.32,2.64-6.44,5.21-8.77,1.28-1.17,2.73-2.15,4.29-2.91,1.56-.77,3.21-1.24,4.96-1.6,1.87-.4,3.86-.75,5.8-1.51,1.92-.77,3.74-1.82,5.35-3.12,1.69-1.34,3.13-2.96,4.4-4.68.78-1.05,1.64-2.11,1.36-3.54-.22-1.12-2.22-1.58-2.61-.73Z"/><path class="cls-1" d="M102.19,64.85c-1.34,2.75-3.88,4.9-6.7,6.53-2.83,1.64-6.03,2.82-9.21,4.28-1.37.64-2.83,1.26-4.28,2.05-1.45.78-2.88,1.75-4.09,2.94-1.21,1.2-2.22,2.63-2.75,4.24-.55,1.58-.54,3.33.08,4.77.04.09.26.09.27,0,.32-3.03,2.27-5.82,4.71-7.84,2.46-2.06,5.46-3.38,8.52-4.59,3.29-1.3,6.77-2.44,10-4.44,1.66-1.03,3.24-2.29,4.6-3.84.83-.93,1.74-1.96,1.43-3.36-.26-1.08-2.28-1.46-2.59-.76Z"/><path class="cls-1" d="M107.49,58.18c-.56.86-2.16,1.53-3.72,2.27l-4.64,2.15c-3.11,1.43-6.2,2.8-9.32,4.29-2.67,1.3-5.81,2.63-8.22,5.13-1.18,1.24-2.12,2.73-2.56,4.36-.44,1.61-.33,3.36.43,4.72.05.09.27.06.27-.02.04-3,1.84-5.9,4.2-7.94,2.4-2.09,5.35-3.45,8.36-4.71,3.26-1.37,6.57-2.65,9.86-3.97l2.55-1.05c.86-.37,1.66-.68,2.6-1.1.57-.26,1.19-.54,1.73-1.02.53-.47.98-1.19.92-2.02-.05-.66-.67-.97-1.24-1.1-.59-.12-1.08-.18-1.23.02Z"/><path class="cls-1" d="M117.17,50.68c-6.97-.02-13.96,1.61-20.07,5.04-2.61,1.47-5.45,3.11-7.7,5.4-2.25,2.26-3.87,5.16-3.83,8.37,0,.1.21.18.25.11,3-5.54,8.08-9.86,13.81-12.46,3.1-1.41,6.4-2.3,9.71-2.77.86-.1,1.71-.25,2.58-.29l1.29-.1c.43-.02.86,0,1.29-.01,1.06-.03,2.06.25,3.05-.62.79-.68.58-2.67-.38-2.67Z"/><path class="cls-1" d="M123.54,43.96c-2.81-.16-5.65-.38-8.55-.33-2.89.04-5.87.37-8.73,1.36-1.22.46-2.51.92-3.72,1.6-1.24.65-2.38,1.5-3.35,2.48-1.93,1.98-3.07,4.48-2.86,7.32,0,.09.21.18.24.12,1.29-2.31,2.85-4.47,4.82-6.17,1.95-1.73,4.35-2.83,6.87-3.41,2.73-.6,5.56-.59,8.37-.36,1.46.11,2.92.25,4.39.45.91.12,1.78.43,2.68-.38.71-.64.6-2.64-.16-2.69Z"/><path class="cls-1" d="M131.71,39.21c-1.91.66-4.03.8-6.19.78-2.17-.02-4.4-.21-6.74-.15-1.99.06-4.26-.02-6.4.78-1.06.39-2.06,1.01-2.8,1.89-.74.87-1.2,2.01-1.13,3.23,0,.08.18.21.21.17,1.15-1.58,3.01-2.63,4.99-3.15,1.99-.53,4.11-.61,6.21-.48,2.28.14,4.58.53,6.99.64,1.25.06,2.53.02,3.84-.13.79-.1,1.68-.06,2.09-1.14.32-.83-.6-2.63-1.08-2.45Z"/><path class="cls-1" d="M132.85,39.57c-1.06.32-2.28.28-3.55,0-1.27-.27-2.57-.74-3.92-1.22-1.34-.48-2.82-.97-4.31-1.26-1.48-.3-2.99-.5-4.49-.55-5.13-.24-11.14-.38-14.96,4-.06.07.02.28.09.26,5.25-1.53,10.71-2.44,16.04-1.72,1.43.19,2.82.53,4.16.98,1.33.44,2.65,1.06,4.06,1.63,1.47.58,3.05,1.13,4.87,1.31,1.08.12,2.42.18,3.12-.99.27-.46.09-1.11-.2-1.62-.3-.52-.66-.91-.93-.81Z"/><path class="cls-1" d="M139.06,34.64c-2.19.39-4.61-.26-6.91-1.23-2.33-.97-4.7-2.28-7.46-3.05-2.33-.65-4.95-1.25-7.55-.95-2.56.28-5.05,1.51-6.29,3.96-.04.08.08.27.13.24,4.29-2.3,9.67-2.37,14.16-.53,2.45.98,4.7,2.5,7.38,3.64,1.39.58,2.88,1.03,4.49,1.23.97.12,2.08.3,2.81-.73.54-.82-.25-2.68-.78-2.57Z"/><path class="cls-1" d="M149.53,31.23c-2.4.28-4.9-.13-7.31-.88-2.42-.75-4.76-1.83-7.14-2.95-2.05-.95-4.25-2.39-6.93-2.87-1.33-.24-2.73-.2-4,.26-1.26.45-2.38,1.35-2.89,2.58-.03.08.09.26.14.23,1.95-1.17,4.57-1.2,6.9-.55,2.38.65,4.57,1.9,6.86,3.1,2.46,1.29,4.99,2.58,7.77,3.46,1.44.45,2.95.76,4.5.91.94.09,1.95.3,2.71-.68.58-.75,0-2.7-.61-2.62Z"/><path class="cls-1" d="M156.32,29.18c-2.29-.24-4.47-.98-6.23-2.32-.92-.68-1.82-1.5-2.84-2.32-1.04-.82-2.19-1.57-3.39-2.17-2.06-1.01-4.4-2.08-6.88-2.22-2.45-.18-5,.63-6.49,2.81-.05.07.03.27.09.26,2.14-.75,4.5-.92,6.77-.58,2.28.35,4.47,1.21,6.37,2.46,2.08,1.29,3.53,3.37,5.96,5.03,1.24.83,2.63,1.42,4.03,1.87.85.27,1.72.66,2.6-.12.69-.62.6-2.63,0-2.69Z"/><path class="cls-1" d="M170.11,26.99c-1.35.44-3.04.14-4.49-.62-1.44-.75-2.73-2.01-3.91-3.41-1.18-1.4-2.38-2.99-3.68-4.47-1.29-1.48-2.65-2.91-4.07-4.27-2.44-2.34-5.04-4.93-8.04-6.91-.75-.5-1.51-.94-2.33-1.36-.83-.41-1.71-.76-2.63-.96-.92-.2-1.9-.26-2.8-.07-.9.19-1.71.66-2.18,1.3-.06.08.06.27.13.24,1.35-.62,3.12-.23,4.68.53,1.58.76,3.09,1.85,4.57,2.91,2.94,2.17,5.66,4.64,8.14,7.33,1.33,1.45,2.59,2.98,3.77,4.55,1.18,1.56,2.31,3.26,3.79,4.83,1.51,1.62,3.58,3.09,6.03,3.64.75.17,1.54.3,2.33.2.78-.1,1.54-.44,2.03-1.11.38-.55.16-1.19-.2-1.66-.37-.47-.8-.81-1.15-.69Z"/><path class="cls-1" d="M164.67,29.34c-2,.3-4.13-.35-6.05-1.43-1.95-1.09-3.71-2.55-5.51-4.11-1.56-1.33-3.08-3.09-5.12-4.29-1.01-.59-2.15-1.04-3.35-1.14-1.19-.11-2.44.14-3.5.86-.07.04-.07.27-.02.27,2.14.12,4.23,1.09,6.06,2.38,1.85,1.3,3.48,2.9,5.18,4.51,1.84,1.74,3.78,3.49,6.2,4.78,1.25.66,2.64,1.16,4.14,1.41.9.13,1.92.37,2.62-.64.52-.77-.16-2.68-.65-2.6Z"/><path class="cls-1" d="M199.96,49.45c2.13.51,4.33.6,6.48.24,2.14-.36,4.24-1.2,5.99-2.55,1.5-1.13,3.12-2.51,3.99-4.36.87-1.8.9-4.09-.73-5.77-.05-.05-.27-.05-.27,0,.16,3.52-2.07,7.02-5.16,8.66-1.66.9-3.55,1.27-5.35,1.24-.94-.01-1.86-.09-2.74-.31-.55-.15-.98-.47-1.72.22-.61.55-1.08,2.48-.48,2.64Z"/><path class="cls-1" d="M204.35,53.47c3.98,1.07,8.24,1.08,12.12-.32,1.65-.59,3.52-1.21,4.98-2.44,1.45-1.21,2.44-3.07,1.88-5.32-.02-.07-.21-.18-.23-.14-1.63,3.07-4.87,5.13-8.25,5.86-1.83.41-3.72.42-5.5.17-.46-.08-.92-.12-1.37-.23-.45-.09-.9-.19-1.33-.34-.55-.15-.97-.54-1.73.15-.62.54-1.12,2.46-.56,2.61Z"/><path class="cls-1" d="M217.98,61.69c7.14,3.92,13.18,9.66,18.02,16.18,2.09,2.82,3.8,6.17,5.53,9.41,1.75,3.25,3.55,6.39,6.21,9.18.09.09.28-.03.24-.13-2.7-7.69-6.34-14.91-11.18-21.49-2.61-3.53-5.53-6.86-8.81-9.84-.86-.76-1.72-1.54-2.64-2.23l-1.36-1.07-1.41-1.01c-1.14-.85-2.25-1.74-3.78-1.61-1.2.11-1.76,2.08-.82,2.61Z"/><path class="cls-1" d="M227.06,76.15c2.27,1.8,4.4,3.66,6.2,5.79,1.81,2.13,3.39,4.47,4.83,6.91,2.53,4.21,3.64,9.86,8.81,12.76.08.05.27-.08.23-.14-2.71-4.92-4.85-10.06-7.63-15.03-1.49-2.68-3.16-5.31-5.18-7.72-1.05-1.25-2.2-2.39-3.35-3.5-.7-.69-1.29-1.48-2.51-1.36-.97.1-2.01,1.82-1.4,2.3Z"/><path class="cls-1" d="M232.88,88.52c2.54,4,4.82,8.17,7.07,12.27.84,1.54,1.49,3.29,2.31,4.94.82,1.65,1.81,3.18,3.43,4.41l.84-.31c-.47-.39-1-.75-1.61-1.07-.07-.04-.27.06-.24.12.21.46.42.92.63,1.38l1.58-.58c-1.78-3.7-3.53-7.32-5.31-11.02-1.06-2.23-2.13-4.47-3.19-6.7-.58-1.14-1.15-2.28-1.72-3.42-.35-.7-.54-1.48-1.66-1.64-.88-.12-2.47,1.1-2.12,1.64Z"/><path class="cls-1" d="M236.05,102.64c2.46,3.07,4.3,6.59,5.96,10.14.72,1.54,1.13,3.32,1.86,4.94.74,1.63,1.81,3.09,3.97,4.21.07.04.27-.05.25-.1-1.52-3.65-2.78-7.29-4.26-10.96-.79-1.97-1.61-3.95-2.57-5.88-.5-1-1.05-1.97-1.62-2.93-.34-.6-.56-1.28-1.63-1.25-.84.03-2.3,1.4-1.97,1.81Z"/><path class="cls-1" d="M214.55,54.97c5.5,2.7,10.51,6.29,15.25,10.15,2.05,1.67,3.94,3.77,6.01,5.62,2.08,1.85,4.34,3.43,7.35,4.19.1.02.23-.15.18-.21-4.31-4.25-8.54-8.44-13.11-12.42-2.46-2.14-4.99-4.23-7.65-6.15-1.38-.99-2.81-1.93-4.25-2.84-.88-.57-1.69-1.25-2.93-.91-.97.27-1.58,2.2-.85,2.56Z"/><path class="cls-1" d="M193.19,45.97c.61-.32.91-.68,1.18-1,.28-.36.4-.57.58-.83l1.04-1.49c.7-1,1.39-2.01,2.07-3.04,1.35-2.07,2.62-4.27,3.49-6.68.76-2.07,1.6-4.4,1.52-6.84-.05-2.4-1.18-4.92-3.6-5.88-.07-.03-.26.09-.23.14,1.1,1.85,1.53,4.11,1.39,6.32-.13,2.22-.79,4.41-1.78,6.42-1.07,2.18-2.51,4.15-4.03,6.07-.79,1-1.57,2.01-2.39,3-.25.3-.57.64-.62.76-.04.09-.06.14.02.25.25.35.33.65.34.73,0,.04,0,.04,0,.03,0-.02,0,.04-.03.11-.02.06-.04.13-.06.2-.1.27-.23.56-.26.85-.03.29.05.6.33.81.27.21.71.24,1.05.07Z"/><path class="cls-1" d="M193.42,47.11c4.39-2.08,8.21-5.52,10.22-10.06.86-1.91,1.75-4.08,1.8-6.35.07-2.24-.76-4.54-2.93-5.82-.07-.04-.27.04-.25.09,1.48,3.87.86,8.46-1.29,11.98-1.15,1.91-2.75,3.5-4.51,4.75-.91.65-1.86,1.23-2.86,1.69-.63.27-1.28.35-1.51,1.39-.19.84.71,2.61,1.33,2.33Z"/><path class="cls-1" d="M195.09,48.09c4.85-1.48,9.42-4.11,12.76-8.05.71-.85,1.47-1.75,2.12-2.8.65-1.04,1.18-2.24,1.37-3.54.2-1.3.02-2.65-.6-3.78-.6-1.12-1.68-1.97-2.92-2.09-.08,0-.23.15-.2.19,1.4,1.37,1.79,3.76,1.2,5.8-.58,2.09-1.97,3.9-3.58,5.42-1.74,1.65-3.79,2.93-5.92,3.89-1.11.5-2.23.94-3.38,1.26-.72.2-1.44.18-1.87,1.19-.35.81.32,2.69,1.01,2.49Z"/><path class="cls-1" d="M200.12,48.56c4.21-1.02,8.16-3.39,10.6-7.11,1.03-1.56,2.14-3.35,2.46-5.36.33-1.97-.2-4.14-2.17-5.45-.06-.04-.28.01-.26.06.94,3.48-.2,7.43-2.58,10.11-1.28,1.46-2.91,2.54-4.62,3.28-.88.39-1.79.71-2.71.92-.58.11-1.14.03-1.5.98-.3.77.18,2.7.78,2.56Z"/><path class="cls-1" d="M206.09,48.38c1.4-.73,2.88-1.41,4.32-2.28,1.44-.87,2.87-1.97,3.94-3.46.92-1.25,1.91-2.72,2.12-4.41.22-1.64-.45-3.48-2.46-4.26-.06-.02-.27.04-.26.08,1.09,2.56.21,5.8-1.8,7.67-1.08,1.04-2.44,1.73-3.85,2.31-.73.3-1.48.6-2.25.87-.48.16-1.02.16-1.08,1.15-.04.78.93,2.53,1.31,2.33Z"/><path class="cls-1" d="M208.11,51.39c1.56-.57,3.12-1.19,4.62-2.01,1.5-.83,2.93-1.87,4.09-3.25.99-1.16,2.12-2.51,2.5-4.19.4-1.63-.14-3.63-2.15-4.45-.06-.03-.27.04-.26.07.5,1.25.45,2.73-.02,4.05-.47,1.33-1.34,2.52-2.4,3.43-1.16.99-2.55,1.66-3.98,2.16-.74.26-1.48.51-2.25.7-.48.11-.98.04-1.15,1.01-.14.77.57,2.63,1,2.48Z"/><path class="cls-1" d="M209.92,53.01c3.49-.04,7.01-1.07,9.7-3.39,1.12-1.01,2.48-2,3.15-3.77.31-.86.37-1.93-.06-2.8-.4-.86-1.32-1.53-2.34-1.38-.06,0-.23.15-.21.17.39.32.65.9.69,1.52.04.62-.13,1.27-.45,1.87-.64,1.2-1.73,2.22-2.91,2.96-1.29.8-2.75,1.25-4.17,1.43-.74.1-1.47.17-2.2.12-.46-.02-.84-.26-1.29.6-.37.68-.4,2.67.1,2.67Z"/><path class="cls-1" d="M214.74,54.29c2.98-.74,5.97-1.56,8.73-3,.6-.32,1.29-.63,1.98-1.1.69-.47,1.38-1.13,1.79-2.07.41-.97.37-2.05-.15-2.89-.48-.84-1.61-1.35-2.46-.81-.05.03-.16.22-.15.23.36.09.7.52.78,1.06.09.54-.03,1.14-.35,1.61-.66,1.02-1.9,1.61-3.19,2.09-1.39.53-2.85.85-4.29,1.1-.75.13-1.48.27-2.23.35-.46.05-.93-.09-1.18.85-.2.75.29,2.68.71,2.58Z"/><path class="cls-1" d="M190.84,42.63c1.96-1.92,4.04-3.91,5.53-6.56.73-1.32,1.28-2.82,1.45-4.4.17-1.58.02-3.05-.23-4.49-.23-1.25-.52-2.62-1.22-3.97-.69-1.33-1.73-2.49-2.98-3.29-1.25-.78-2.7-1.21-4.1-1.11-1.39.1-2.72.73-3.51,1.81-.05.07.03.27.09.26,2.18-.73,4.84-.1,6.69,1.44.92.78,1.66,1.76,2.08,2.87.43,1.12.62,2.36.7,3.61.08,1.35-.01,2.64-.44,3.8-.4,1.18-1.08,2.25-1.88,3.24-.84,1.03-1.8,2-2.85,2.92-.65.57-1.43.97-1.42,2.16,0,.94,1.54,2.23,2.08,1.71Z"/><path class="cls-1" d="M187.09,42.38c.49-.77,1.2-1.5,2.02-2.24.81-.74,1.72-1.52,2.55-2.5.83-.98,1.57-2.32,1.78-3.72.23-1.38.1-2.63-.02-3.76-.22-1.95-.22-4.23-1.19-6.36-.47-1.05-1.21-2.03-2.18-2.68-.49-.35-1.12-.63-1.75-.66-.64-.05-1.24.28-1.41.82-.02.06.04.27.06.25.43-.32,1.23.19,1.82,1.01.61.79,1.08,1.71,1.4,2.68.67,1.95.84,4.09.89,6.2.01,1.11-.11,2.17-.54,2.98-.41.83-1.11,1.52-1.93,2.2-.86.71-1.83,1.43-2.83,2.31-.6.53-1.39,1.12-1.06,2.27.28.87,2.19,1.56,2.39,1.2Z"/><path class="cls-1" d="M180.94,43.98c1.63-1.92,2.74-4.17,3.42-6.47.69-2.3,1.02-4.66,1.07-6.99.02-1.01.11-2.02.08-3.15-.03-1.12-.2-2.37-.81-3.55-.29-.57-.73-1.16-1.25-1.58-.51-.43-1.11-.74-1.74-.89-1.24-.33-2.71.16-3.1,1.26-.03.06.06.27.1.25.64-.33,1.58-.2,2.35.28.78.49,1.35,1.26,1.66,2.19.63,1.85.43,4.05.22,6.12-.27,2.24-.87,4.43-1.78,6.35-.47,1-1.01,1.93-1.66,2.75-.4.52-.95.8-.71,1.83.18.84,1.7,2.12,2.17,1.58Z"/><path class="cls-1" d="M179.03,41.62c.72-1.62,1.53-3.25,2.2-5.01.66-1.75,1.18-3.63,1.21-5.66.03-1.71,0-3.67-.95-5.38-.46-.84-1.15-1.58-2.04-1.99-.88-.42-1.94-.49-2.94-.04-.06.03-.15.23-.12.24,1.39.5,2.51,1.76,3.09,3.22.6,1.47.72,3.13.46,4.67-.29,1.7-1.02,3.29-1.85,4.82-.43.8-.87,1.6-1.35,2.39-.3.49-.76.89-.2,1.75.44.68,2.3,1.41,2.49.97Z"/><path class="cls-1" d="M173.59,43.39c1.33-1.49,2.39-3.19,3.08-5.05.7-1.85,1.04-3.86.87-5.87-.07-.86-.14-1.76-.36-2.7-.22-.93-.63-1.92-1.35-2.73-.71-.81-1.8-1.4-2.87-1.38-1.06-.02-2.15.6-2.42,1.64-.02.06.07.27.09.25.51-.29,1.24-.3,1.9-.04.67.25,1.24.74,1.65,1.38.83,1.28,1.05,2.97.94,4.54-.13,1.71-.73,3.35-1.58,4.74-.44.73-.92,1.41-1.49,2.01-.35.38-.82.55-.53,1.5.22.77,1.68,2.12,2.07,1.7Z"/><path class="cls-1" d="M176.9,43.93c.81-1.08.98-2.11,1.22-2.9.23-.83.47-1.67.69-2.54.43-1.72.75-3.56.66-5.47-.07-1.63-.2-3.55-1.2-5.15-.49-.78-1.2-1.46-2.08-1.82-.87-.36-1.92-.37-2.88.14-.06.03-.14.24-.11.25,1.35.42,2.5,1.57,3.13,2.95.66,1.39.85,2.95.69,4.49-.16,1.66-.72,3.27-1.33,4.87-.16.42-.32.84-.48,1.25-.16.42-.32.86-.48,1.16-.1.2-.24.32-.26.47-.03.15.06.29.29.69.18.31.54.89.95,1.3.41.41.95.61,1.18.31Z"/><path class="cls-1" d="M175.16,38.7c.3-1.24.68-2.5.9-3.88.22-1.37.25-2.94-.31-4.43-.45-1.27-1.09-2.67-2.22-3.49-1.1-.81-2.63-1-4.22.26-.05.04-.12.25-.09.25,2.21.39,4.16,2.21,4.37,4.31.14,1.12-.16,2.25-.57,3.35-.21.57-.43,1.16-.69,1.74-.16.36-.5.66.24,1.27.58.48,2.52.95,2.6.62Z"/><path class="cls-1" d="M171.19,42.39c-.51-2.35,0-5.03-.67-7.97-.29-1.24-.55-2.72-1.54-3.87-.49-.56-1.16-1.01-1.95-1.13-.78-.12-1.68.11-2.38.82-.04.04-.1.26-.07.26,1.04.07,2.03.78,2.65,1.74.63.96.96,2.14,1.03,3.3.08,1.28-.12,2.59-.27,3.95-.08.71-.11,1.44-.14,2.2-.01.46-.2.97.74,1.26.74.22,2.67-.27,2.61-.57Z"/><path class="cls-1" d="M166.27,41.14c-.81-1.43-1.63-2.84-2.51-4.23-.44-.69-.9-1.37-1.39-2.03-.48-.65-.98-1.33-1.66-2-.57-.57-1.29-1.19-2.12-1.63-.82-.43-1.72-.69-2.58-.73-1.73-.06-3.2.7-4.25,2.6-.03.06.01.28.05.27,1.46-.41,2.93-.64,4.32-.41.69.12,1.35.34,1.9.71.56.35,1.01.86,1.43,1.43.89,1.27,1.65,2.74,2.32,4.17.35.74.71,1.48,1.02,2.23.19.47.21,1,1.2,1.01.78.01,2.5-1,2.28-1.4Z"/><path class="cls-1" d="M160.04,42.65c-.39-.27-.78-.76-1.18-1.35-.41-.61-.88-1.29-1.36-1.91-.97-1.26-2.08-2.46-3.42-3.43-1.13-.83-2.41-1.86-3.96-2.2-1.51-.35-3.34.1-4.28,2.01-.03.06.01.28.05.27,1.24-.38,2.63-.29,3.89.15,1.27.44,2.41,1.21,3.37,2.16,1.04,1.02,1.83,2.27,2.53,3.53.36.65.68,1.32,1.21,2.14.29.48.66,1.19,1.68.84.4-.15.79-.69,1.08-1.2.28-.51.5-.96.4-1.02Z"/><path class="cls-1" d="M154.14,44.19c-2.23-2.6-5.06-4.59-8.23-5.65-1.35-.45-2.78-1.09-4.29-1.16-1.49-.07-3.02.43-4.25,2.21-.04.06-.02.28.02.27,2.87-.49,5.84,0,8.39,1.25,1.37.67,2.59,1.6,3.62,2.62.54.53,1.05,1.06,1.48,1.65.26.37.35.82,1.29.61.76-.16,2.29-1.42,1.98-1.8Z"/><path class="cls-1" d="M147.92,42.51c-2.08.73-4.27,1.12-6.47,1.25-2.2.14-4.4-.07-6.74-.21-1.99-.12-4.26-.54-6.55-.11-1.13.21-2.25.63-3.18,1.36-.93.71-1.64,1.75-1.86,2.97-.01.08.13.24.17.21,1.54-1.34,3.66-2.02,5.79-2.22,2.15-.21,4.33.03,6.55.31,2.38.31,4.89.63,7.42.52,1.31-.05,2.61-.22,3.92-.44.79-.13,1.65-.14,2.06-1.2.32-.83-.56-2.64-1.11-2.44Z"/><path class="cls-1" d="M111.47,53.53c-1.88,1.62-4.23,2.72-6.7,3.6-2.48.89-5.08,1.57-7.71,2.51-2.25.81-4.82,1.56-7,3.15-1.08.79-2.04,1.78-2.66,2.97-.63,1.18-.9,2.55-.64,3.89.01.08.22.16.25.1.97-2.22,2.84-4.03,4.99-5.33,2.16-1.31,4.58-2.18,7.06-2.87,2.69-.75,5.47-1.3,8.24-2.24,1.44-.49,2.86-1.1,4.24-1.86.83-.47,1.81-.86,1.9-2.11.07-.96-1.5-2.24-1.98-1.82Z"/><path class="cls-1" d="M103.72,61.42c-1.29,2.19-3.45,3.87-5.84,5.16-2.4,1.32-5.02,2.28-7.71,3.39-2.3.96-4.97,1.81-7.25,3.48-1.13.83-2.15,1.87-2.82,3.11-.67,1.23-.99,2.66-.74,4.05.01.09.22.16.25.1,1.02-2.36,3.01-4.27,5.29-5.67,2.29-1.42,4.84-2.4,7.44-3.3,2.82-.99,5.72-1.93,8.49-3.48,1.43-.8,2.8-1.8,4.04-3.01.73-.75,1.62-1.49,1.33-2.77-.22-.97-2.15-1.62-2.47-1.07Z"/><path class="cls-1" d="M99.78,69.98c-.76,2.08-3.03,3.75-5.27,5.24-2.26,1.48-4.67,2.69-7.19,3.71-2.18.9-4.79,1.48-7.17,2.85-1.18.68-2.29,1.58-3.08,2.73-.79,1.14-1.23,2.53-1.05,3.91,0,.09.21.17.25.12,1.12-2.21,3.31-3.83,5.66-4.95,2.38-1.15,4.95-1.91,7.53-2.89,2.78-1.06,5.51-2.35,8.06-3.98,1.31-.84,2.64-1.81,3.83-3.13.36-.41.74-.83.98-1.33.24-.5.32-1.09.06-1.7-.21-.49-.84-.74-1.42-.82-.59-.08-1.11-.03-1.21.23Z"/><path class="cls-1" d="M94.06,79.41c-.24,2.45-1.71,4.79-3.68,6.43-2,1.67-4.52,2.71-7.14,3.4-1.13.3-2.38.44-3.73.68-1.34.24-2.8.59-4.15,1.36-1.35.76-2.46,1.89-3.1,3.2-.64,1.31-.81,2.8-.36,4.14.03.08.25.13.26.06.67-2.43,2.57-4.58,4.98-5.56,2.43-1.02,5.26-1.1,8.06-1.87,2.99-.79,6.02-2.08,8.44-4.42,1.24-1.2,2.26-2.67,2.98-4.32.45-.99.93-2.12.14-3.18-.64-.81-2.64-.51-2.69.09Z"/><path class="cls-1" d="M91.76,87.52c-.38,2.45-2.29,4.64-4.58,6.1-2.29,1.47-5.1,2.29-7.96,3.15-1.24.38-2.57.69-3.93,1.11-1.36.41-2.76.96-4.03,1.72-1.27.77-2.44,1.79-3.23,3.06-.8,1.25-1.16,2.78-.87,4.19.02.09.23.15.26.09.96-2.47,3.22-4.37,5.71-5.59,2.51-1.26,5.31-1.89,8.14-2.63,1.53-.4,3.07-.81,4.61-1.39,1.53-.56,3.08-1.34,4.45-2.36,1.43-1.06,2.72-2.41,3.67-4.08.58-.99,1.19-2.18.45-3.35-.29-.45-.95-.59-1.54-.56-.59.04-1.11.21-1.15.53Z"/><path class="cls-1" d="M88.36,95.94c-.14,1.04-1.24,2.22-2.52,3.15-1.35.94-2.87,1.81-4.29,2.72-2.84,1.84-6.08,3.17-9.14,5.16-1.32.85-2.7,1.75-4,2.88-1.32,1.13-2.48,2.53-3.31,4.1-.81,1.57-1.29,3.36-1.14,5.11.11,1.73.95,3.37,2.22,4.28.08.06.27-.06.24-.13-.61-1.35-.77-2.93-.51-4.47.26-1.54.9-3.04,1.76-4.38,1.75-2.7,4.51-4.59,7.4-6.14,1.57-.84,3.2-1.58,4.85-2.36,1.67-.75,3.25-1.71,4.87-2.59.84-.47,1.67-.93,2.5-1.44.84-.55,1.69-1.17,2.48-1.97.49-.49.99-1.05,1.29-1.75.31-.69.38-1.56-.03-2.28-.34-.57-1.02-.59-1.6-.47-.58.14-1.06.33-1.1.58Z"/><path class="cls-1" d="M69.36,122.88c1.44-2,2.57-4.05,3.82-5.89,1.24-1.84,2.6-3.47,4.25-4.48.68-.46,1.55-.7,2.59-1.07,1.04-.35,2.2-.93,3.1-1.64,1.84-1.46,2.93-3.43,2.93-5.99,0-.08-.18-.21-.21-.16-1.35,1.75-2.81,3.37-4.6,4.51-.89.58-1.84.97-2.9,1.35-1.05.37-2.18.88-3.15,1.57-2.14,1.47-3.76,3.5-5.21,5.44-.75,1.01-1.44,2.03-2.17,2.96-.45.58-1.03.98-.74,2.02.23.84,1.88,1.95,2.29,1.39Z"/><path class="cls-1" d="M66.69,134.34c.14-2.4.68-4.78,1.53-7.04.87-2.23,1.95-4.49,3.39-6.06,1.24-1.36,3.31-2.08,5.32-3.3,1-.62,2-1.39,2.74-2.44.74-1.03,1.17-2.36.9-3.63-.01-.08-.22-.17-.25-.12-.93,1.95-3.04,3.27-5.16,4.39-1.07.58-2.17,1.14-3.24,1.83-1.07.68-2.1,1.55-2.93,2.57-.9,1.09-1.64,2.27-2.29,3.46-.66,1.2-1.26,2.44-1.75,3.73-.52,1.34-.91,2.73-1.23,4.13-.2.86-.53,1.73.29,2.58.64.67,2.65.51,2.68-.12Z"/><path class="cls-1" d="M66.74,137.07c1.55-3.59,3.52-6.83,6.34-9.03.62-.51,1.37-.97,2.13-1.51.77-.54,1.55-1.19,2.17-1.93,1.25-1.49,1.95-3.5,1.12-5.72-.03-.07-.23-.15-.25-.11-.65,1.69-1.69,3.24-2.98,4.53-1.28,1.3-2.89,2.23-4.47,3.45-1.71,1.32-3.22,2.94-4.48,4.68-.65.9-1.22,1.84-1.79,2.77-.35.57-.84,1.05-.3,1.96.43.72,2.31,1.4,2.52.91Z"/><path class="cls-1" d="M67.11,142.89c.57-1.69,1.46-3.27,2.55-4.69,1.09-1.44,2.34-2.63,3.78-3.84,1.21-1.05,2.86-1.96,4.08-3.48.6-.75,1.07-1.65,1.23-2.65.16-.99-.03-2.09-.7-3.01-.04-.06-.26-.09-.27-.05-.19,1.63-1.16,3.19-2.39,4.45-1.24,1.28-2.74,2.32-4.24,3.47-1.63,1.24-3.22,2.66-4.55,4.32-.69.86-1.29,1.79-1.85,2.76-.34.59-.83,1.14-.21,2.02.49.68,2.44,1.14,2.58.7Z"/><path class="cls-1" d="M67.9,149.69c-.1-1.97.2-3.79,1.26-4.99.54-.64,1.27-1.23,2.09-1.84.83-.62,1.69-1.27,2.51-1.95,1.42-1.17,3.14-2.26,4.43-3.79,1.29-1.51,2.14-3.51,1.55-5.88-.02-.07-.22-.17-.24-.12-1.72,3.53-4.78,6.24-8.05,8.49-.88.62-1.79,1.16-2.75,1.82-.94.66-1.93,1.48-2.67,2.63-.76,1.19-1.1,2.52-1.32,3.77-.13.77-.37,1.53.52,2.17.71.5,2.69.21,2.66-.31Z"/><path class="cls-1" d="M70.82,152.08c-.41-1.1.27-2.76,1.4-3.78,1.18-1.13,2.85-1.93,4.57-3.04,1.48-.96,3.18-1.92,4.42-3.37.62-.72,1.18-1.62,1.36-2.68.19-1.04-.09-2.27-1.01-2.91-.05-.04-.28-.02-.27.02.13.68-.08,1.48-.5,2.2-.42.73-1.01,1.4-1.66,2.03-1.3,1.26-2.8,2.28-4.42,3.1-1.74.92-3.77,1.68-5.45,3.53-.83.95-1.47,2.12-1.73,3.52-.09.43-.15.89-.07,1.33.09.44.35.86.9,1.07.43.17,1.06-.06,1.58-.34.52-.29.93-.56.89-.69Z"/><path class="cls-1" d="M72.5,153.66c.04-.28.4-.78.83-1.24.41-.47.89-.9,1.38-1.32,1-.84,2.12-1.61,3.23-2.49.95-.75,2.21-1.38,3.09-2.5.87-1.08,1.33-2.76.14-4.49-.04-.05-.24-.13-.25-.1-.28,1.19-.99,2.28-1.89,3.18-.9.91-1.99,1.66-3.12,2.37-1.22.77-2.54,1.47-3.8,2.39-.66.49-1.25,1.02-1.87,1.67-.2.21-.44.44-.56.76-.12.31-.12.73.22,1.15.27.34.94.47,1.51.55.58.06,1.07.14,1.08.08Z"/><path class="cls-1" d="M79.05,144.87c-.34,1.62-.79,3.15-1.49,4.46-.69,1.31-1.64,2.41-2.73,3.07-.47.29-1.12.48-1.87.75-.75.27-1.66.65-2.43,1.42-.77.77-1.15,1.76-1.15,2.66,0,.92.34,1.79.99,2.7.04.06.26.1.26.06.23-1.57.68-3.06,1.82-3.88,1.14-.85,2.84-1.07,4.39-2.12,1.63-1.08,2.91-2.63,3.82-4.31.48-.87.83-1.77,1.18-2.65.21-.54.58-1.02-.15-1.72-.58-.56-2.54-.88-2.64-.44Z"/><path class="cls-1" d="M79.35,147.6c.31,1.76-.13,3.67-.9,5.49-.77,1.84-1.84,3.57-2.91,5.45-.91,1.61-2.17,3.3-2.75,5.37-.28,1.02-.38,2.14-.13,3.21.25,1.07.86,2.07,1.85,2.74.06.04.28-.02.26-.06-.51-1.79-.22-3.8.48-5.63.7-1.85,1.77-3.56,2.9-5.26,1.23-1.85,2.54-3.72,3.49-5.94.48-1.15.83-2.4,1-3.72.08-.8.3-1.7-.71-2.29-.77-.44-2.68.23-2.6.66Z"/><path class="cls-1" d="M79.19,150.76c-.61,5.62-.04,11.07-.06,16.27,0,2.25-.48,4.58-.83,6.8-.37,2.26-.54,4.36-.29,7.23,0,.09.21.18.24.12,2.6-4.88,3.12-10.19,3.32-15.41.09-2.82.13-5.62.27-8.35.08-1.41.15-2.81.34-4.17.13-.84.43-1.61-.32-2.48-.6-.71-2.6-.79-2.69-.01Z"/><path class="cls-1" d="M122.5,47.08c-2.37.65-4.95.72-7.57.71-2.63,0-5.36-.09-8.15.3-2.37.34-5.16.82-7.4,2.34-2.22,1.46-3.83,3.9-3.53,6.63,0,.08.21.18.24.13,1.16-2.11,3-3.87,5.14-5.03,2.15-1.19,4.61-1.65,7.08-1.77,2.68-.11,5.39.21,8.2.34,1.46.06,2.94.06,4.46-.06.92-.07,1.92-.02,2.53-1.09.46-.83-.37-2.67-.99-2.5Z"/><path class="cls-1" d="M142.06,37.74c-.76.54-1.77.81-2.82.84-1.07.03-2.13-.17-3.21-.55-2.16-.74-4.31-2.1-6.76-3.12-2.07-.88-4.44-1.98-7.08-1.99-1.29,0-2.61.28-3.72.93-1.11.64-2,1.67-2.32,2.93-.02.08.12.25.17.21,1.71-1.36,4.13-1.84,6.41-1.6,2.31.24,4.53,1.14,6.63,2.26,2.27,1.18,4.45,2.8,7.3,3.63,1.49.42,3.1.54,4.76.23.99-.17,2.19-.48,2.43-1.75.08-.5-.3-1.06-.72-1.46-.43-.41-.86-.68-1.06-.55Z"/><path class="cls-1" d="M135.61,40.06c-1.13.06-2.32-.35-3.47-.96-1.17-.61-2.28-1.41-3.57-2.18-1.1-.65-2.24-1.62-3.74-1.97-.74-.17-1.56-.17-2.32.15-.76.32-1.44.96-1.77,1.94-.02.06.04.27.07.26,1.09-.47,2.43-.38,3.64.07,1.23.44,2.35,1.18,3.43,2,1.18.9,2.34,1.92,3.77,2.76.74.43,1.57.78,2.47,1.04.54.15,1.16.45,1.67-.45.38-.69.09-2.68-.18-2.66Z"/><path class="cls-1" d="M146.78,35.14c-1.8.06-3.62-.28-5.31-.9-.85-.31-1.67-.7-2.45-1.13-.78-.44-1.53-.96-2.36-1.51-1.4-.92-2.9-2.38-5.18-2.8-1.08-.18-2.25-.07-3.23.5-.97.54-1.68,1.61-1.54,2.72,0,.07.17.21.2.18.88-1.18,2.87-1.45,4.5-.92,1.67.52,3.12,1.7,4.64,2.87,1.65,1.29,3.54,2.48,5.61,3.25,1.07.41,2.19.69,3.34.89.69.13,1.42.39,2.04-.49.48-.7.2-2.68-.26-2.66Z"/><path class="cls-1" d="M154.26,32.32c-1.44-.22-2.84-1.26-4.24-2.44-1.4-1.17-2.92-2.59-4.95-3.45-1.68-.72-3.62-1.43-5.6-1.26-1.94.15-3.87,1.29-4.4,3.54-.02.07.1.26.14.23,2.78-1.91,6.81-1.73,9.61.1,1.52.97,2.72,2.44,4.22,3.84.78.73,1.68,1.43,2.74,2.02.64.35,1.38.84,2.21.08.62-.59.6-2.62.27-2.66Z"/><path class="cls-1" d="M166,30.73c-.19.11-.73.04-1.16-.27-.4-.27-.83-.83-1.23-1.49-.39-.66-.87-1.5-1.45-2.24-.56-.75-1.2-1.44-1.91-2.06-1.19-1.06-2.55-2.29-4.28-2.79-1.67-.52-3.75-.15-4.88,1.74-.04.06,0,.28.04.27,1.42-.36,3-.18,4.4.41,1.41.59,2.65,1.56,3.63,2.72.53.62.98,1.31,1.34,2.03.37.7.68,1.54,1.23,2.42.54.9,1.52,1.91,2.84,2.36.4.14.86.28,1.33.23.46-.05.95-.32,1.15-.88.16-.45-.15-1.06-.46-1.55-.32-.49-.56-.92-.6-.9Z"/><path class="cls-1" d="M170.7,29.92c-.44-.86-.79-1.76-1.13-2.67-.33-.89-.63-1.85-1.18-2.84-.23-.42-.44-.9-.74-1.38-.3-.48-.71-.95-1.23-1.26-.52-.31-1.17-.46-1.83-.28-.65.17-1.29.71-1.55,1.62-.02.06,0,.28.02.27.62-.29,1.49-.06,2.09.47.62.52,1.02,1.29,1.28,2.12.28.89.4,1.93.61,2.93.1.52.24,1.03.35,1.54.07.32-.03.7.9.62.73-.06,2.53-.91,2.41-1.14Z"/><path class="cls-1" d="M173.35,31.59c.46-2.3.62-4.7-.11-6.99-.16-.49-.27-1.01-.46-1.53-.17-.51-.44-1.09-.87-1.54-.42-.45-1.04-.82-1.79-.84-.73-.03-1.56.38-1.89,1.27-.02.05-.02.27,0,.27.58-.26,1.43.23,1.91.97.49.73.77,1.67.88,2.58.11.99-.02,1.99-.25,2.9-.12.48-.23.94-.41,1.38-.11.28-.39.46.38.96.61.4,2.54.9,2.61.57Z"/><path class="cls-1" d="M175.54,29.15c1.06-1.86,1.79-3.93,1.66-6.08-.05-.9.06-1.96-.41-2.87-.45-.88-1.53-1.57-3.36-1.01-.06.02-.22.16-.21.17,1.34.9,1.82,2.69,1.55,4.24-.14.85-.51,1.63-.94,2.29-.22.34-.43.68-.69.96-.16.19-.46.21.14.9.47.55,2.11,1.67,2.27,1.39Z"/><path class="cls-1" d="M176.85,28.24c.48-.8,1.06-1.58,1.59-2.47.52-.9.99-1.91,1.13-3.12.11-1.01.29-2.22-.31-3.28-.29-.51-.79-.96-1.44-1.1-.65-.14-1.44.05-2.08.74-.04.04-.12.25-.11.25.65.01,1.25.57,1.5,1.27.26.7.22,1.53-.06,2.21-.31.77-.88,1.41-1.48,2.03-.31.32-.62.66-.96.98-.21.2-.57.29-.01,1.03.44.58,2.1,1.68,2.23,1.46Z"/><path class="cls-1" d="M174.67,28.18c.32-1.46,1.05-3.02.83-4.93-.1-.79-.07-1.78-.67-2.54-.3-.37-.75-.65-1.32-.67-.57-.02-1.26.23-1.88.92-.04.04-.13.24-.12.24.54,0,1.06.38,1.33.9.28.52.35,1.16.25,1.74-.11.65-.44,1.25-.79,1.84-.18.31-.34.62-.53.93-.12.19-.41.32.36.8.6.38,2.51.96,2.55.76Z"/><path class="cls-1" d="M184.58,39.79c2.42-3.43,3.7-7.7,3.07-11.92-.32-1.79-.51-3.79-1.94-5.56-.69-.85-1.79-1.55-2.94-1.59-1.12-.08-2.31.53-2.58,1.59-.02.06.07.27.1.25.53-.31,1.32-.3,2.02,0,.7.29,1.29.88,1.73,1.58.87,1.43,1.24,3.22,1.27,4.92,0,1.86-.45,3.68-1.21,5.29-.38.84-.81,1.64-1.36,2.35-.34.45-.81.72-.43,1.66.29.76,1.91,1.92,2.26,1.43Z"/><path class="cls-1" d="M109.57,145.8c-2.07.38-4.23-.38-6.17-1.35-.86-.42-1.57-1.22-2.48-1.71-.92-.48-2.07-.66-3.99.05-.06.02-.19.2-.16.22,2.14,1.15,3.95,2.62,6.07,3.9,1.14.68,2.37,1.34,3.73,1.76.71.22,1.44.35,2.2.43.46.05.97.25,1.27-.68.22-.73-.23-2.68-.48-2.63Z"/><path class="cls-1" d="M110.82,147.74c-2,1.21-4.38,1.62-6.67,1.77-1.01.07-2.05-.27-3.09-.26-1.06,0-2.11.38-3.65,1.79-.05.04-.1.26-.06.26,2.59.26,5,.58,7.58.62,1.38.02,2.8-.02,4.21-.26.73-.13,1.45-.32,2.17-.55.44-.12.96-.14.91-1.1-.05-.76-1.14-2.43-1.39-2.28Z"/><path class="cls-1" d="M225.9,149.35c1.84.26,3.7.52,5.56.2.78-.14,1.72-.06,2.49-.48.76-.42,1.34-1.35.98-3.22-.01-.06-.13-.24-.15-.23-1.01,1.19-2.6,1.64-4.11,1.56-.82-.03-1.62-.25-2.36-.5-.39-.13-.76-.23-1.13-.39-.23-.09-.38-.37-.8.44-.34.64-.75,2.58-.49,2.62Z"/><path class="cls-1" d="M224.32,150.94c1.67,1.2,3.45,2.29,5.49,2.71.86.18,1.8.59,2.77.44.94-.14,1.89-.88,2.12-2.78,0-.06-.06-.27-.08-.26-1.41.88-3.23.77-4.7.11-.81-.35-1.51-.89-2.13-1.45-.32-.29-.64-.56-.91-.88-.18-.19-.19-.52-.94,0-.6.4-1.87,1.94-1.63,2.11Z"/><path class="cls-1" d="M103.45,230.64c-1.28-4.02-2.03-8.19-2.82-12.33-.69-3.6-.06-7.8-4.02-10.79-.06-.05-.28,0-.26.06.99,4.03,1.52,8.06,2.05,12.17.28,2.21.52,4.44.85,6.65.17,1.15.39,2.29.6,3.43.13.7.09,1.44,1.11,1.82.8.3,2.66-.46,2.49-1Z"/><path class="cls-1" d="M192.45,212.97c-1.6-.22-3.18-.25-4.73-.17-1.55.08-3.1.25-4.65.55-3.15.66-5.83,1.95-8.44,2.04-2.61.12-5.33-.85-8.25-1.68-1.46-.42-3.04-.77-4.62-.93-1.58-.16-3.16-.15-4.71-.04-3.1.21-6.09.82-9.01,1.39l-8.76,1.74-8.76,1.74-2.9.58c-.69.13-1.31.31-1.97.46l-.24.06c-.05.04.03.15.04.22l.15.49.31.98c.23.64.41,1.29.68,1.93l.29.66c.08.19.18.36.27.55.35.73.77,1.42,1.2,2.09,1.52,2.31,3.43,4.34,5.51,6.14,2.1,1.79,4.29,3.37,6.58,4.93,4.61,3.02,9.64,5.59,14.94,7.33,5.3,1.74,10.93,2.52,16.31,2.04,5.37-.46,10.42-2.3,14.28-5.17.25-.17,0-.3-.26-.18-4.98,2.47-10.58,3.62-16.18,3.49-5.61-.2-11.17-1.5-16.41-3.58-5.22-2.13-10.2-4.92-14.73-8.3-2.29-1.67-4.44-3.48-6.24-5.61-.9-1.06-1.71-2.19-2.37-3.38-.17-.3-.33-.6-.47-.91-.15-.28-.31-.67-.4-.88-.13-.35-.29-.74-.31-1.04l17.25-3.19c3.04-.54,6.07-1.17,9.05-1.52,2.98-.35,5.94-.39,8.73.26,2.92.65,5.93,2.04,9.51,2.38,1.8.17,3.67-.1,5.3-.52,1.64-.42,3.15-.94,4.59-1.26,1.73-.38,3.63-.5,5.4-.59,1.79-.08,3.48-.14,5.13-.16,1.28,0,1.93-.38,1.83-1.07-.09-.67-1.16-1.63-2.92-1.87Z"/><path class="cls-1" d="M72.59,209.85c-5.33,11.19-8.62,23.04-13.04,34.26-1.9,4.84-4.48,9.75-7.17,14.42-2.7,4.7-5.49,9.11-8.01,13.78-.08.15.13.26.24.14,4.28-4.19,7.76-9.02,10.69-14.12,2.94-5.11,5.35-10.48,7.55-15.96,2.36-5.9,4.51-11.86,6.83-17.7,1.2-3.03,2.42-6.04,3.78-8.97.86-1.8,1.85-3.45,1.88-5.43.01-1.58-2.03-1.95-2.76-.43Z"/><path class="cls-1" d="M69.81,209.4c-1.12,5.6-2.01,11.26-2.58,16.95-.56,5.69-.81,11.35-1.4,16.91-.5,4.8-1.67,9.76-3.24,14.45-.78,2.35-1.65,4.63-2.55,6.88-.92,2.25-1.89,4.47-2.91,6.76-.06.15.15.25.25.13,3.81-4.18,6.3-9.24,8-14.45,1.71-5.23,2.54-10.69,3.15-16.13.65-5.87,1.1-11.72,1.98-17.46.45-2.98.96-5.95,1.59-8.89.38-1.81.97-3.53.47-5.35-.39-1.44-2.46-1.32-2.77.2Z"/><path class="cls-1" d="M72.26,207.58c-1.3,5.63-1.57,11.32-1.84,16.88-.24,5.56-.66,11.06-1.24,16.57-.51,4.75-1.5,9.76-2.24,14.73-.72,4.98-1.18,9.92-.49,14.74.02.15.25.13.28-.01,2.01-10.57,3.86-21.06,5.15-31.76.72-5.75,1.2-11.58,1.64-17.31.26-2.96.53-5.9,1.06-8.76.32-1.77.89-3.39.45-5.16-.34-1.41-2.39-1.45-2.78.09Z"/><path class="cls-1" d="M74.07,215.81c.43,9.22,1.26,18.34,1.62,27.41.16,3.91-.13,8.07-.26,12.14-.12,4.09-.09,8.06.81,12.11.03.13.26.12.28,0,1.53-8.81,1.71-17.61,1.54-26.46-.09-4.77-.24-9.53-.39-14.26-.07-2.46-.18-4.9-.2-7.34-.03-1.51.17-2.97-.76-4.29-.73-1.05-2.7-.55-2.64.7Z"/><path class="cls-1" d="M70.75,208.23c.8,12.26,1.15,24.53.67,36.74-.21,5.26-.95,10.84-1.56,16.33-.61,5.5-1.09,10.9-.65,16.2.02.17.25.14.28-.01,2.58-11.64,3.9-23.38,4.5-35.26.31-6.4.46-12.81.44-19.21-.01-3.32-.09-6.64-.17-9.95-.04-2.04.08-4.04-.89-5.82-.77-1.41-2.72-.67-2.62.99Z"/><path class="cls-1" d="M72.22,209c4.49,12.45,6.32,25.79,6.16,39-.07,5.71-.95,11.76-1.84,17.68-.88,5.99-1.67,11.57-3.16,17.2-.05.18.19.22.28.06,1.7-2.89,2.84-6.01,3.67-9.16.85-3.15,1.38-6.34,1.9-9.52,1-6.38,1.53-12.84,1.62-19.34.04-7-.38-14.04-1.54-20.99-.55-3.61-1.41-7.17-2.32-10.72-.3-1.08-.56-2.17-.92-3.2-.39-1.02-.89-1.96-1.63-2.77-1.17-1.27-2.81.08-2.21,1.75Z"/><path class="cls-1" d="M73.86,208.7c4.37,11.71,6.93,24.07,8.21,36.5.55,5.36.54,11.14.63,16.81.1,5.68.33,11.27,1.55,16.56.04.17.27.11.28-.06.85-12.18.88-24.3-.32-36.48-.65-6.55-1.62-13.09-3.03-19.55-.38-1.67-.75-3.35-1.21-5-.43-1.66-.88-3.32-1.38-4.96-.57-2.03-1.07-4.07-2.52-5.55-1.15-1.17-2.8.15-2.21,1.73Z"/><path class="cls-1" d="M118.82,208.91c-2.32,5.4-2.16,11.44-.42,16.77,1.44,4.57,3.24,10,8.56,11.7.08.03.25-.12.21-.18-3.15-4.02-5.68-8.53-6.78-13.43-.58-2.62-.66-5.32-.28-7.87.2-1.32.49-2.61.96-3.81.31-.75.77-1.34.31-2.36-.37-.84-2.23-1.56-2.56-.81Z"/><path class="cls-1" d="M179.72,259.17c-4.91-.81-9.88-1.41-14.89-1.19-2.14.1-4.48,0-6.72.48-2.23.47-4.34,1.52-5.77,3.75-.05.07.04.27.1.25,4.32-1.67,8.98-2.23,13.6-2.07,2.49.09,4.96.42,7.39.87,1.26.23,2.52.45,3.75.76.77.17,1.46.56,2.33-.17.69-.57.87-2.57.19-2.68Z"/><path class="cls-1" d="M94.91,128.17c8.06-3.39,16.61-5.84,25.24-7.36,4.32-.73,8.68-1.2,13-1.23,2.16-.02,4.29.1,6.39.36,1.05.11,2.05.37,3.08.54,1.05.24,2.1.52,3.13.81,4.13,1.2,8.1,2.85,11.5,5.19,1.7,1.17,3.24,2.51,4.55,4.03.34.37.65.76.94,1.17.14.19.33.42.42.58.07.15.18.27.25.44.32.64.54,1.5.64,2.43.22,1.86.08,3.93-.26,5.99-.34,2.06-.85,4.13-1.49,6.17-1.3,4.07-3.08,8.03-5.26,11.69-1.89,3.13-4.19,6.12-6.92,8.35-2.73,2.17-6.16,3.66-9.79,4.57-7.28,1.8-15.34,1.53-22.52-.65-7.2-2.1-13.18-6.94-16.34-13.65-1.65-3.33-2.77-7.04-3.93-10.68-1.15-3.65-2.36-7.25-3.9-10.57-.19-.42-.48-.1-.37.34,1.06,4.1,1.79,8.31,2.66,12.57.87,4.24,1.98,8.59,4.11,12.56,1.09,1.97,2.42,3.8,3.95,5.44,1.58,1.59,3.25,3.07,5.16,4.25,3.77,2.43,8.02,3.91,12.34,4.74,4.33.81,8.75,1.01,13.14.6,4.38-.42,8.74-1.45,12.79-3.35,1.02-.45,1.97-1.08,2.96-1.61.9-.68,1.87-1.29,2.72-2.03,1.71-1.48,3.22-3.14,4.57-4.91,2.7-3.54,4.86-7.42,6.62-11.47,1.88-4.38,3.34-8.95,3.92-13.82.24-2.44.35-4.96-.46-7.62-.09-.33-.23-.66-.37-.99-.13-.33-.32-.66-.51-.98-.2-.35-.38-.57-.56-.83l-.56-.76c-.39-.49-.8-.96-1.2-1.44-.43-.45-.86-.91-1.31-1.34-3.62-3.47-8.02-5.86-12.54-7.59-2.27-.86-4.58-1.57-6.91-2.15-1.21-.23-2.44-.54-3.65-.69-1.21-.12-2.44-.35-3.65-.37-5.04-.31-10.02.03-14.92.69-4.9.67-9.74,1.66-14.51,2.9-5.84,1.54-11.68,3.16-16.09,6.72-1.73,1.42-1.77,2.64-.88,3.27.91.64,2.68.62,4.86-.27Z"/><path class="cls-1" d="M253.57,127.34c-3.59-1.94-7.25-3.82-11.1-5.42-3.83-1.62-7.88-2.91-12.06-3.68-4.17-.74-8.53-.88-12.66-.55-4.17.32-8.32.93-12.4,2.07-4.07,1.13-8.15,2.74-11.77,5.47-.89.65-1.79,1.51-2.58,2.4-.37.47-.76.93-1.1,1.42l-.93,1.52c-1.11,2.09-1.77,4.32-2.12,6.54-.71,4.45-.24,8.83.71,13.02.49,2.09,1.17,4.15,1.96,6.13.78,1.97,1.7,3.92,2.8,5.79,1.87,3.22,4.28,6.32,7.34,8.86,3.05,2.53,6.72,4.44,10.59,5.49,3.87,1.07,7.87,1.36,11.8,1.24l2.92-.26,1.46-.14,1.5-.29c1-.2,2.01-.37,2.97-.73l1.45-.48.72-.25.7-.32c3.76-1.6,7.11-4.06,9.71-7.04,2.62-2.97,4.55-6.38,5.83-9.89,2.62-7.04,2.5-14.49.58-20.69-.11-.39-.45-.15-.43.25.79,7.41-.61,15.14-4.22,21.7-1.81,3.27-4.2,6.22-7.11,8.53-2.9,2.32-6.32,3.98-9.95,4.82-.92.16-1.82.4-2.75.5l-2.83.26c-.94.13-1.89.06-2.83.08-.94,0-1.89.03-2.82-.1-3.74-.27-7.44-1.17-10.73-2.91-3.29-1.72-6.11-4.23-8.34-7.2-2.26-2.96-3.88-6.4-5.15-9.96-1.34-3.81-2.08-7.85-2.07-11.81.02-3.94.97-7.88,3.24-10.71.55-.73,1.21-1.31,1.92-1.9.74-.58,1.54-1.11,2.37-1.6,1.66-.97,3.49-1.73,5.37-2.37,3.76-1.27,7.76-2.01,11.78-2.39,2.08-.2,4.19-.31,6.26-.31,2.05-.01,4.09.17,6.11.45,4.04.6,7.98,1.83,11.82,3.46,4.73,2.03,9.05,4.78,13.9,5.86,3.83.88,4.04-2.74.15-4.86Z"/><path class="cls-1" d="M190.18,131.82c-4.11-1.26-8.34-2.31-12.68-2.2-1.85.05-3.92-.25-5.84.36-1.89.59-3.61,2.1-4.02,5.38-.01.1.14.43.18.4,3.11-2.09,7.01-2.63,10.67-2.15,1.98.25,3.9.85,5.71,1.55.94.37,1.87.7,2.75,1.14.56.26.95.82,1.97-.33.82-.9,1.84-3.97,1.26-4.14Z"/></svg>