<?xml version="1.0" encoding="UTF-8"?>
<svg id="Calque_2" data-name="Calque 2" xmlns="http://www.w3.org/2000/svg" viewBox="0 0 300 300">
  <defs>
    <style>
      .cls-1 {
        fill: #1d1d1d;
      }

      .cls-2 {
        fill: #1db4b8;
      }
    </style>
  </defs>
  <path class="cls-2" d="M166.13,267.4c-.62-2.53-.57-5.38-.41-8.24.17-2.87.46-5.8.38-8.8-.06-2.56,1.64-5.48.64-8.37-.5-1.43-1.67-2.86-4.07-3.99-1.18-.55-2.72-1.06-4.56-1.35-1.85-.31-4.1-.41-6.67-.17-.33.03-1.53.41-1.48.45.94.78,1.7,1.88,2.17,3.11.5,1.21.77,2.53.88,3.86.21,2.67-.24,5.43-.98,8.2-.8,2.99-2.19,6-3.28,9.09-.57,1.61-.9,3.23-1.36,4.94-.14.53-.53,1.06-.25,1.56.29.51,1.25.96,3.8,1.24,4.02.42,15.36-.9,15.2-1.54Z"/>
  <path class="cls-2" d="M79.36,203.03c9.25-3.4,19.11-4.53,28.66-6.75,4.09-.93,9.09-.29,12.74-1.73,1.88-.72,3.47-1.96,5.15-4.27,1.71-2.3,3.51-5.67,6.5-10.45.19-.3.29-1.56.13-1.54-5.87.67-10.79,1.95-15.64,2.89-4.82.99-9.49,1.56-14.37,1.87-5.23.35-10.59.2-15.91.35-2.75.08-5.46.39-8.2.56-1.68.11-3.61-.76-3.72,4.49-.09,4.15,3.4,15.02,4.64,14.56Z"/>
  <path class="cls-2" d="M231.21,186.66c-3.27.33-6.93-.54-10.63-1.85-3.72-1.31-7.54-3.05-11.71-4.5-3.58-1.24-7.12-4.35-11.83-4.67-1.2-.05-2.38.03-3.63.41-1.27.4-2.52,1.02-3.74,2-1.24,1.03-2.4,2.35-3.41,4.08-1.01,1.8-1.83,3.97-2.35,6.54-.06.33.1,1.58.18,1.54,3.13-1.72,7.18-1.75,10.95-.81,3.81.94,7.47,2.79,11.11,4.92,3.94,2.29,7.79,5.19,12.33,7.57,1.2.6,2.38,1.19,3.7,1.66l1.95.74c.66.24,1.37.44,2.06.66.86.26,1.66.83,2.59.6.91-.21,1.84-1.09,2.65-3.58.64-1.97.75-5.81.63-9.15-.13-3.34-.41-6.18-.83-6.14Z"/>
  <g>
    <path class="cls-1" d="M138.59,127.2l.81,3.41,2.2-.96-5-7.47-1.52-.15-.88,1.27,2.32,8.83,2.2-.88c-1.95-3.55-4.52-6.75-7.54-9.44l-1.76,1.57,4.13,5.96,1.88-1.43c-2.46-2.94-5.56-5.34-9.04-6.98l-3.91-1.84,2.43,3.58.53.78.31.46-.51-.27-.4-.19-.78-.35c-.59-.26-1.24-.52-1.86-.78-2.52-1-4.72-1.69-7.17-2.55.08.17.31.46.48.71l.54.75,1.04,1.44c.67.94,1.41,1.92,2.31,2.94.45.51.93,1.02,1.43,1.53l.55.54.45.42c.6.55,1.22,1.08,1.86,1.59l1.35-1.96c-3.73-2.23-7.46-4.47-11.2-6.7l-1.44,1.89c2.38,2.29,4.96,4.38,7.7,6.24l1.11-2.13c-2.12-.82-4.28-1.54-6.48-2.16l-1.65-.45-1.23-.3c-.44-.11-.96-.22-1.44-.33-1.96-.42-3.78-.74-5.73-1.11l.18.29.28.38.58.75,1.1,1.42c.72.93,1.63,1.93,2.77,2.89.26.24.59.49.86.69.17.14.36.26.53.39.36.25.73.49,1.11.72.75.45,1.54.85,2.35,1.19l.89-2.29c-3.73-1.33-7.47-2.65-11.21-3.98l-.89,2.31c1.95.81,3.8,1.87,5.49,3.14l.96-2.23c-2.73-.48-5.43-1.12-8.09-1.9l-.96,2.3c.79.43,1.55.91,2.29,1.43l.28.2.16.13c-.08.04-.16.07-.25.1l-.18.05c-.27.08-.55.15-.83.22-1.13.27-2.28.44-3.43.5l-4.06.21,3.46,2.13c1.47.91,3.27,1.18,4.95.74l3.39-.88-3.14-1.49-1.05-.5-.23-.09-.18-.06s-.17-.01-.12-.09c.1-.1.25-.06.38-.07l3.69-.13-.29-2.54c-1.43.28-2.94.15-4.3-.37l-.51,2.49c3.58.17,7.15.61,10.66,1.31l.55-2.52-3.35-.8c-.08-.02-.16-.04-.21-.11-.05-.11.11-.06.17-.07h.49c2.42-.07,4.86-.13,7.31-.19v-2.6c-2.84-.09-5.7-.18-8.58-.28l-.06,2.63c4.59.09,9.22.18,13.87.27l-.07-2.71c-1.55.1-3.13,0-4.66-.28-.38-.07-.77-.16-1.15-.25l-.28-.07c-.07-.02-.14-.04-.21-.07-.14-.05-.27-.11-.4-.17-.25-.13-.47-.3-.53-.39-.02-.02-.03-.04-.03-.04.03-.01-.08.04-.12.05-.03.01-.06.03-.1.03-.1.02-.03-.02.15.06l-1.54.93c3.97.9,7.86,2.23,11.57,3.96l1-2.66c-2.64-.78-5.18-1.62-6.75-3.32l-1.64,2.32c4.07,1.82,8.28,3.35,12.58,4.58l1.01-2.75c-2.77-1.26-5.45-2.53-7.34-4.48l-1.72,2.34,4.44,2.22,4.4,2.2,2.18,1.08c.7.32,1.19.45,1.56.51.74.1,1.09.03,1.4-.03.16-.04.33-.1.61-.18l.5-.15c.17-.05.54-.17.45-.15.06-.04.13-.08.3-.16.18-.08.4-.18,1.11-.44l-4.06-2.8-1.53-1.13-1.23-1-1.02-.93-.88-.93-.21-.24-.14-.18-.19-.22-.35-.46-1.79,2.04c3.39,1.77,6.7,3.68,9.9,5.71l1.34-2.24c-2.14-1.14-3.98-2.84-5.31-4.86l-1.63,1.72c1.3.71,2.4,1.99,3.57,3.33,1.17,1.32,2.51,2.83,4.45,3.64l3.16,1.31-1.83-2.86c-1.61-2.51-3.21-5-4.81-7.49l-1.45,1.08c2.86,3.06,5.4,6.37,7.61,9.86l1.11-.51c-1.06-2.77-2.1-5.51-3.14-8.23l-.67.24c.57,1.35,1.13,2.69,1.7,4.03.6,1.46,1.12,2.54,1.61,3.72.03.07.06.15.09.2l.07-.28.13-.55c.08-.36.15-.72.2-1.09.11-.74.17-1.45.19-2.12.02-.67.01-1.31-.03-1.91-.04-.6-.13-1.3-.25-1.94l.51-.04c.18,2.41.35,4.78.52,7.12.07.93.24.43.21-.51-.07-2.21-.14-4.42-.21-6.62l-1.52.13c.04.32.08.65.11.97.03.31.05.72.05.81.01.33,0,.67-.02,1.01s-.07.69-.13,1.03c-.03.17-.07.35-.11.52-.04.13-.08.5-.15.2l-1.99-5.06-1.29.47c.98,2.77,1.95,5.54,2.93,8.3l1.17-.54c-2.19-3.65-4.73-7.08-7.57-10.23l-.96.72c1.56,2.52,3.13,5.04,4.69,7.56l.72-.84c-1.49-.63-2.66-1.92-3.8-3.25-1.14-1.32-2.31-2.79-3.99-3.75l-.74.78c1.47,2.3,3.53,4.22,5.92,5.53l.55-.93c-3.25-2.1-6.59-4.05-10.01-5.86l-.67.77.4.53.36.44c.18.21.36.41.55.61.38.39.79.76,1.22,1.11.83.68,1.71,1.29,2.59,1.9.22.09-.06.12-.16.14-.13.02-.27.01-.4,0-.26-.04-.51-.14-.76-.25l-1.43-.71-7.28-3.64-.6.82c2.25,2.31,5.17,3.64,7.94,4.91l.35-.97c-4.2-1.2-8.32-2.69-12.32-4.47l-.6.84c1.02,1.09,2.3,1.87,3.61,2.46,1.32.59,2.68,1,4.02,1.4l.38-1c-3.83-1.78-7.85-3.14-11.97-4.07l-.47-.11-.18.47c-.22.58-.02,1.3.33,1.7.34.43.75.7,1.17.92.88.44,1.73.56,2.57.74,1.7.32,3.44.42,5.16.3l-.03-1.15c-4.62-.09-9.24-.18-13.87-.26l-.03,1.21c2.86.09,5.72.19,8.59.28v-1.26s-6.23.14-6.23.14l-4.12.1-1.13.03h-.57c-.09.02-.21.01-.27.02l-.16.03-1.27.28-1.04.24c-.19-.08-.25.37-.18.6.06.26.2.44.35.6.31.32.63.42.99.59.36.16.75.36,1.3.56.53.21,1.38.37,2.09.55l2.23.54,3.18.77.3-1.38-.66-.13c-3.4-.65-6.84-1.07-10.3-1.25l-.3,1.43c1.72.65,3.6.82,5.41.48l-.17-1.51-2.93.1-2.01.07-1.12.04c-.38,0-.75.03-1.05.08-.6.1-1.01.24-1.36.36-.34.12-.73.3-.96.77-.05.12-.08.26-.08.4,0,.03,0,.08,0,.1l.04.02.08.05c.11.07.22.14.33.23.23.18.45.4.69.72,1.1.32,2.08.64,2.96,1,.42.17.93.39,1.26.54l.8.39.16-1.53c-1.1.29-2.35.09-3.31-.51l-.4,1.55c1.29-.06,2.57-.25,3.82-.54.31-.08.62-.16.94-.25.44-.13.89-.28,1.35-.45.9-.34,1.73-.7,2.6-1.09l-1.64-1.42c-.28-.23-.57-.47-.86-.7l-.45-.34-.38-.28c-.8-.57-1.63-1.09-2.49-1.56l-.68,1.65c2.73.81,5.51,1.47,8.31,1.98l.72-1.67c-1.83-1.38-3.83-2.54-5.95-3.43l-.69,1.8,11.19,4.02.74-1.9c-.71-.3-1.4-.66-2.07-1.06-.33-.2-.66-.41-.97-.63-.16-.11-.32-.22-.47-.34l-.15-.12c-.18-.15-.35-.31-.5-.48-.08-.08-.15-.17-.21-.25l-.1-.13s-.05-.05-.03-.06l.09.02c.32.06.62.13.91.21l.69.18,1.6.44c2.12.61,4.21,1.32,6.27,2.12l1.04-1.99c-2.62-1.79-5.09-3.81-7.37-6.01l-1.42,1.86,4.6,2.78,6.57,3.96,1.39-2.02c-.59-.47-1.17-.96-1.72-1.48l-.7-.67-.12-.13c-.14-.16-.33-.38-.35-.48.22.08.42.16.6.24l1.46.66c1.28.6,2.59,1.28,3.98,2.04.66-.54.92-.66,1.16-.77l.71-1.19-3.23-4.77-1.67,1.95c3.13,1.49,5.94,3.68,8.15,6.34l2.17-1.66-4.11-5.97-2.07,1.84c1.26,1.13,2.43,2.35,3.5,3.66,1.31,1.6,2.46,3.32,3.44,5.12l2.67-1.06c-.09-.38-.18-.76-.28-1.14,0,0,0,.01,0-.02-.01-.03-.03-.07-.02-.09.24.29.47.58.71.87l2.39-1.04c-.52-1.97-1.06-3.91-1.61-5.81l-2.06.66c.35.74.69,1.48,1.01,2.23,1.45,3.52,2.08,4.78,2.4,4.08.27-.68.13-3.37-1.31-7.18l-2.26.73c.15.76.34,1.59.54,2.46Z"/>
    <path class="cls-1" d="M181.47,124.97l-.53,1.52,1.98,1.3c1.4-1.3,3.03-2.37,4.78-3.14l-1.49-1.79-1.67,2.46,1.82,1.56c1.66-1.56,3.8-2.63,6.04-3.02l-1.39-1.37-.08.43s-.06.23-.09.35c-.03.13-.08.28-.13.43-.22.61-.45,1.17-1.06,2,.52.84.53,1.08.52,1.29,0,.02-.02.04,0,.07l.15.1.31.2.61.4,5.67-2.86-1.48-1.78c-1.16,1.53-2.54,2.89-4.1,4.01l1.35,1.95c2.32-1.53,4.76-2.9,7.28-4.08l-1.39-1.86-3.35,3.76,1.54,1.77,2.68-1.79-1.43-1.88c-.67.57-1.1,1.36-1.22,2.24l-.3,2.1,1.95-.86,7.19-3.16-1.3-1.94-6.36,6.13c3.46-.5,6.92-1.01,10.38-1.51l-.93-.89c.22-.09.18.02-.13-.11-.04-.02-.08-.04-.11-.06-.05-.02-.13-.07-.15-.08,0,0,0,0-.01.02-.01.02-.04.05-.08.1-.16.19-.45.41-.81.86-.31.41-.5.93-.53,1.42-.04.49.05.94.2,1.35.3.8.84,1.46,1.6,1.91,1.43.79,2.85.68,3.98.65l.35-2.33-3.63-1.28-.35,2.33,5.28-.2v-2.41c-2.58-.02-5.17-.04-7.76-.06l-.21,2.4c2.31.47,4.74.15,6.86-.9l3.15-1.56-3.44-.72c-3.67-.77-7.46-1-11.2-.66l.36,2.43,6.39-1.29-.36-2.44c-3.45.32-6.91.64-10.37.96l.23,2.48c3.42-.31,6.8-1.06,10.04-2.21l-.4-2.44c-4.54-.09-9.1.45-13.5,1.59l.55,2.48c3.04-.56,6.04-1.39,8.95-2.48l-.56-2.47c-4.7.39-9.37,1.2-13.94,2.4l.7,2.48c4.03-1.21,8.06-2.43,12.1-3.64l-.54-2.52c-2.56.34-5.11.8-7.64,1.36-2.7.6-5.38,1.33-8.05,2.19l.93,2.43c3.44-1.5,6.9-3.02,10.39-4.55l-.94-2.47c-3.48,1.12-6.99,2.25-10.51,3.38l1.13,2.46c2.31-1.41,4.64-2.82,6.97-4.24l-1.29-2.45c-3.57,1.58-7.16,3.17-10.76,4.76l1.63,2.27c2.12-2.29,4.72-4.16,7.57-5.44l-1.35-2.57c-3.48,2.08-6.96,4.16-10.44,6.24l1.71,2.38c2.3-1.97,4.71-4.02,6.71-6.58l-1.97-2.12c-3.41,2.29-6.6,4.89-9.52,7.75l2.09,1.96c1.92-2.26,3.83-4.51,5.74-6.76l-2.03-1.88c-2.91,2.97-5.47,6.24-7.64,9.74l2.22,1.23c1.74-3.79,3.47-7.56,5.19-11.3l-1.9-1.09c-2.6,3.98-5.17,7.91-7.71,11.81l1.42.77c1.2-3.09,2.39-6.16,3.57-9.21l-.97-.49c-1.85,3.33-3.68,6.63-5.48,9.88l.27.13c.8-2.55,1.59-5.05,2.37-7.54l.32.15c-1.24,2.49-2.46,4.94-3.68,7.37-.38.77,0,.46.42-.3,1.25-2.27,2.51-4.53,3.76-6.79l-1.37-.63c-.88,2.48-1.76,4.97-2.64,7.44l1.28.61c1.93-3.24,3.85-6.48,5.77-9.71l-1.17-.59c-1.26,3.04-2.52,6.08-3.78,9.12l1.08.59c2.64-3.89,5.28-7.79,7.91-11.68l-.99-.57-5.32,11.24.95.53c2.14-3.38,4.64-6.53,7.46-9.37l-.77-.71-5.77,6.73.75.71c2.85-2.77,5.95-5.29,9.26-7.5l-.69-.74c-1.83,2.35-4.13,4.32-6.44,6.29l.6.83,10.44-6.25-.49-.93c-3.09,1.4-5.89,3.42-8.19,5.91l.61.85c3.58-1.59,7.16-3.18,10.75-4.78l-.52-.98-6.97,4.25.48,1.03,10.51-3.39-.43-1.11c-3.46,1.51-6.92,3.03-10.39,4.54l.45,1.17c4.99-1.61,10.14-2.76,15.35-3.43l-.29-1.32c-2.51.75-5.03,1.5-7.54,2.25l-4.57,1.36.39,1.39c4.46-1.16,9.01-1.93,13.6-2.3l-.34-1.51c-2.8,1.03-5.68,1.82-8.61,2.35l.36,1.6c4.22-1.08,8.59-1.58,12.94-1.48l-.28-1.71c-3.07,1.08-6.28,1.77-9.52,2.05l.17,1.85,10.37-.92-.29-1.94-6.4,1.26.29,2.01c3.52-.3,7.08-.07,10.53.67l-.26-2.01c-1.65.81-3.59,1.05-5.38.68l-.19,2.18,7.6.09v-2.28s-5.28.18-5.28.18l-.34,2.27,3.62,1.29.35-2.3c-.89.04-1.69.03-2.28-.16-.48-.16-.69-.34-.89-.68-.08-.16-.12-.32-.13-.44,0-.12.03-.15.06-.21.08-.11.34-.34.66-.68.16-.18.36-.4.53-.78.18-.37.22-1.02.02-1.45l-.4-.88-.97.13-2.28.32-.47.06.9-.84-1.4-2.09-7.2,3.14,1.82,1.37c.03-.25.18-.52.38-.68l-1.58-2.09-2.69,1.78,1.73,1.98,3.36-3.75-1.57-2.11c-2.64,1.22-5.18,2.64-7.62,4.23l1.56,2.26c1.76-1.27,3.34-2.79,4.66-4.52l-1.74-2.1-1.63.81-.59.29h-.03s-.03.02-.03.02c-.02,0-.05.02-.04,0l.05-.06v-.02s.01,0,.02-.02l.03-.12c.04-.19.08-.38.11-.58l.35-2.02-2.04.35c-2.79.48-5.39,1.79-7.41,3.69l2.21,1.9c.55-.83,1.11-1.65,1.65-2.47l2.82-4.22-4.6,2.08c-2.04.92-3.88,2.19-5.43,3.71l2.13,1.41c.25-.78.5-1.55.75-2.32.17-.55.39-1.13.51-1.62l.3-1.38.07-.34.03-.17-.2.04-.78.16c-.51.11-.99.21-1.48.33-.49.12-.98.28-1.47.47-.48.2-1.01.44-1.23.57-1.86,1.07-2.7,2.2-3.01,2.82-.3.64-.11.81.4.63.51-.18,1.36-.72,2.6-1.27.31-.14.65-.28,1.01-.41l.14-.05h.05s.08-.02.08-.02h.14c.08-.01.16-.02.24-.02h.06s-.02.05-.03.07l-.05.14Z"/>
    <g>
      <path class="cls-1" d="M232.08,169.31c0,3.4-.17,6.78-.25,10.18l-.27,5.08c-.09,1.69-.18,3.39-.34,5.07-.49,6.76-1.33,13.49-2.68,20.1-1.33,6.62-3.43,13.02-5.92,19.34-1.23,3.16-2.5,6.35-3.6,9.61-.28.79-.54,1.67-.84,2.4l-.43,1.1-.55,1.06-.28.53-.34.5-.67,1c-.53.62-.98,1.29-1.56,1.87-4.48,4.81-10.44,8.22-16.49,11.1-6.1,2.86-12.48,5.17-18.96,7.14-1.62.49-3.25.95-4.88,1.4l-2.45.64-1.23.3-.61.15c-.19.04-.48.11-.47.1-3.34.2-6.74.46-10.1.44-6.74.04-13.48-.51-20-2.07-5.62-1.31-11.14-3.42-16.43-6.18-5.3-2.74-10.36-6.12-15.33-9.68-4.98-3.58-9.88-7.35-14.78-11.15-2.47-1.92-4.95-3.68-6.55-5.98-1.63-2.31-2.53-5.18-3.33-8.13-6.49-23.8-9.22-48.12-9.62-70.24-.02-.7-.2-.34-.22.37-.42,13.12.23,26.25,1.91,39.23.85,6.49,1.97,12.94,3.34,19.34.34,1.6.69,3.2,1.08,4.79.37,1.59.76,3.18,1.17,4.76.81,3.15,1.58,6.39,3.18,9.36.79,1.48,1.85,2.84,3.05,3.99,1.2,1.16,2.51,2.17,3.8,3.17l7.77,5.97c5.21,3.94,10.48,7.84,16.03,11.36,5.54,3.52,11.4,6.61,17.65,8.79,6.23,2.2,12.78,3.46,19.37,3.96l5.33.24c1.78.01,3.55-.02,5.33-.03,1.78,0,3.55-.17,5.32-.25l1.33-.08.66-.04c.11,0,.21,0,.39-.03l.37-.08,2.59-.63c6.88-1.76,13.66-3.89,20.27-6.52,6.58-2.67,13.08-5.77,18.82-10.16,1.41-1.13,2.81-2.3,4.04-3.65,1.27-1.31,2.4-2.8,3.33-4.42l.66-1.24.53-1.32c.36-.89.59-1.67.89-2.51.55-1.66,1.2-3.29,1.82-4.94,2.67-6.77,5.49-13.69,7.14-20.93,1.74-7.21,2.75-14.55,3.42-21.88.79-9.03,1.28-17.91.64-26.02-.46-6.41-1.99-3.61-2.05,3.73Z"/>
      <path class="cls-1" d="M75.64,197.33c-1.55-1.34-3.29-2.42-5.09-3.28-.9-.43-1.82-.81-2.76-1.15-.95-.35-1.87-.6-2.63-.9-.78-.31-1.36-.64-1.81-1.12-.46-.49-.84-1.15-1.15-1.92-.31-.77-.57-1.63-.83-2.54l-.79-2.7c-2.06-7.19-3.76-14.47-4.37-21.81-.25-3.16-.25-6.44.14-9.69.38-3.26,1.09-6.48,2.08-9.59l.38-1.16c.12-.39.25-.79.37-1.06.11-.28.22-.45.26-.51.04-.05,0-.08.14-.12.28-.1,1,.03,1.81.24.79.19,1.57.39,2.35.61,3.12.85,6.19,1.85,9.26,2.88.2.06.25-.18.08-.29-3.1-2.04-6.42-3.7-9.88-4.94-.88-.29-1.69-.62-2.71-.83-.51-.09-1.08-.13-1.67.05-.59.17-1.12.59-1.44,1.04-.66.92-.85,1.8-1.17,2.66-.3.87-.63,1.73-.84,2.62-1.01,3.53-1.58,7.17-1.77,10.84-.18,3.66-.02,7.34.38,10.99.87,7.88,2.72,15.54,4.84,23.15.31,1.02.68,2.11,1.33,3.18.62,1.06,1.71,2.09,2.83,2.65,1.11.59,2.16.89,3.06,1.22.89.33,1.77.69,2.61,1.11,2.1,1.05,3.72,2.42,5.83,3.19.84.32,1.54.05,1.84-.54.3-.58.17-1.52-.68-2.25Z"/>
      <path class="cls-1" d="M233.31,200.69c.76-1.32,1.86-2.63,3.02-3.87,1.17-1.24,2.43-2.43,3.72-3.6,1.29-1.17,2.62-2.31,3.96-3.5l1.99-1.75c.69-.62,1.43-1.32,2.05-2.21,1.24-1.81,1.68-3.76,2.09-5.47.43-1.75.77-3.52,1.09-5.29.6-3.55.99-7.14,1.12-10.75.12-3.1.15-6.32-.03-9.58-.08-1.63-.23-3.26-.43-4.91-.22-1.68-.55-3.42-1.29-5.14-.72-1.7-1.99-3.45-3.83-4.4-.91-.45-1.88-.76-2.86-.82-.97-.05-1.91.04-2.76.31-3.4,1.08-5.57,3.46-7.23,5.88-.1.15.11.28.25.17,1.27-1.06,2.6-2.03,4.02-2.81,1.41-.76,2.93-1.34,4.45-1.39.76-.01,1.5.11,2.19.37.69.3,1.33.7,1.85,1.25,1.07,1.08,1.7,2.6,2.11,4.17.42,1.57.58,3.24.76,4.91.16,1.67.28,3.35.33,5.03.11,3.36-.02,6.73-.34,10.07-.36,3.61-.98,7.18-1.84,10.69-.45,1.74-.85,3.56-1.54,4.96-.35.71-.76,1.27-1.33,1.83-.56.56-1.25,1.1-1.97,1.7-2.88,2.45-5.88,4.83-8.69,7.59-.86.85-1.74,1.7-2.46,2.69-.71.99-1.29,2.12-1.37,3.44-.02,1.1.64,1.45,1.29,1.42.67-.04,1.28-.29,1.67-.99Z"/>
      <path class="cls-1" d="M168.31,236.85c-3.76-1.22-7.68-2.04-11.67-1.97-1.71.02-3.56-.04-5.36.38-.9.22-1.8.6-2.54,1.21-.74.6-1.31,1.47-1.42,2.44,0,.06.12.17.15.14,1.15-1.2,2.91-1.8,4.67-2.09,1.78-.29,3.6-.35,5.4-.23,1.94.14,3.85.53,5.7,1.05.96.28,1.91.56,2.83.91.57.22,1.06.57,1.81.14.59-.35.95-1.81.43-1.98Z"/>
      <path class="cls-1" d="M115.17,142.51c1.23-1.13,2.5-2.05,3.77-2.32,1.23-.28,2.61.11,3.67.94,1.08.85,1.72,2.04,1.57,3.1-.11,1.13-.91,2.3-1.99,2.88-.96.55-2.25.68-3.48.47-1.22-.19-2.38-.74-3.13-1.41-.74-.68-1.18-1.41-1.26-2.69-.05-1.25.23-2.78,1.14-4.42.06-.11-.1-.28-.19-.22-1.66,1.14-2.75,2.87-3.02,4.8-.13.97.02,1.99.45,2.87.43.88,1.1,1.61,1.86,2.15,1.53,1.09,3.37,1.55,5.19,1.55,1.82-.02,3.76-.57,5.21-1.95.77-.73,1.37-1.64,1.73-2.69.35-1.04.41-2.25.09-3.37-.67-2.22-2.35-3.87-4.42-4.76-1.08-.46-2.32-.67-3.56-.54-1.24.12-2.37.57-3.35,1.09-1.2.65-2.33,1.3-2.51,2.71-.13,1.11,1.56,2.42,2.23,1.81Z"/>
      <path class="cls-1" d="M185.84,142.81c1.23-1.13,2.5-2.05,3.77-2.32,1.22-.28,2.61.11,3.67.94,1.08.85,1.72,2.04,1.57,3.1-.11,1.13-.91,2.3-1.99,2.88-.96.55-2.25.68-3.48.47-1.22-.19-2.38-.74-3.13-1.41-.74-.68-1.17-1.41-1.26-2.69-.05-1.25.23-2.78,1.14-4.42.06-.11-.1-.28-.19-.22-1.66,1.14-2.75,2.87-3.02,4.8-.13.97.02,1.99.45,2.87.43.88,1.1,1.61,1.86,2.15,1.53,1.09,3.37,1.55,5.19,1.55,1.82-.02,3.76-.57,5.21-1.95.77-.73,1.37-1.64,1.73-2.69.35-1.04.41-2.25.09-3.37-.67-2.22-2.35-3.87-4.42-4.76-1.08-.46-2.32-.67-3.56-.54-1.23.12-2.37.57-3.35,1.09-1.2.65-2.33,1.3-2.51,2.71-.13,1.11,1.56,2.42,2.23,1.81Z"/>
      <g>
        <path class="cls-1" d="M98.12,136.02c2.63-.99,5.68-1.52,8.66-1.93,3.01-.4,6.05-.63,9.1-.74,6.08-.19,12.24,0,18.13,1.12,1.47.28,2.91.64,4.28,1.1,1.37.46,2.68,1.05,3.7,1.8,1.03.78,1.6,1.63,1.55,2.54-.06,1.47-.14,3.01-.29,4.49-.27,3-.95,5.73-2.15,8.47-.58,1.38-1.24,2.76-1.9,4.16l-.14.29s-.03.03-.18.17c-.24.23-.46.47-.74.67-.51.43-1.1.8-1.68,1.17-2.1,1.18-4.55,2-7.12,2.51-2.57.51-5.25.77-7.96.85-5.41.12-10.98-.38-16.21-1.62-1.29-.33-2.58-.69-3.77-1.15-1.16-.46-2.33-1.04-2.97-1.67-.06-.08-.13-.15-.21-.22-.08-.08-.05-.1-.13-.21l-.27-.47c-.06-.09-.09-.12-.11-.14l-.07-.08c-.09-.11-.17-.22-.26-.34-.34-.46-.63-.98-.89-1.54-.52-1.11-.9-2.36-1.27-3.65-.73-2.59-1.44-5.12-1.77-7.69-.17-1.29-.24-2.58-.18-3.89.07-1.3.27-2.64.92-3.93.17-.32-.13-.32-.35,0-.97,1.46-1.34,3.09-1.55,4.62-.21,1.55-.22,3.11-.1,4.64.11,1.53.35,3.03.63,4.5.29,1.48.58,2.93.99,4.41.42,1.47.99,2.96,1.95,4.26.16.21.15.21.23.36.11.2.2.43.35.59l.42.51.47.41c.63.54,1.31.92,2,1.29,1.39.7,2.83,1.18,4.28,1.6,1.45.42,2.92.75,4.4,1.01,2.95.54,5.94.84,8.94.95,3,.12,6,.04,9-.3,2.99-.33,5.98-.92,8.87-1.99,1.43-.56,2.85-1.21,4.15-2.1.64-.46,1.28-.93,1.85-1.51.13-.13.32-.3.51-.5l.31-.64.49-1.01c1.4-2.87,2.82-5.91,3.48-9.21.33-1.63.53-3.27.67-4.9.06-.81.12-1.62.17-2.45.02-.42.07-.78,0-1.37-.06-.53-.2-1.04-.4-1.52-.89-1.93-2.52-3.01-4.03-3.83-1.55-.8-3.16-1.35-4.76-1.8-3.22-.88-6.48-1.35-9.73-1.66-6.75-.61-13.51-.52-20.27.16-2.08.22-4.15.46-6.15.95-1.99.51-3.96,1.16-5.65,2.68-.66.62-.93,1.39-.78,1.82.14.43.5.42.84.44.32.01.63.07,1.05.01.42-.05.97-.21,1.66-.48Z"/>
        <path class="cls-1" d="M213.23,131.79c-3.17-1.2-6.26-1.72-9.38-2.2-3.12-.45-6.24-.73-9.37-.9-6.26-.3-12.55-.26-18.86.77-1.58.27-3.15.61-4.73,1.1-1.57.49-3.15,1.11-4.65,2.16-.74.53-1.47,1.19-2.05,2.07-.58.86-.94,2-.94,3.06.02,1.62.07,3.18.19,4.78.12,1.59.32,3.22.69,4.83.36,1.61.9,3.18,1.49,4.67.59,1.49,1.24,2.91,1.87,4.33l.34.76c.21.29.5.53.61.67.31.31.62.65.96.91.66.58,1.38,1.05,2.1,1.52,2.52,1.49,5.26,2.47,8.05,3.14,2.79.67,5.65,1.07,8.53,1.27,5.75.36,11.61.06,17.33-1.35,1.43-.37,2.85-.8,4.25-1.4,1.4-.64,2.81-1.29,4.11-2.69l.46-.58c.14-.18.28-.51.38-.69,0,0-.03.02-.03,0-.02.02.01-.02.05-.07l.09-.13c.12-.17.22-.34.33-.51.42-.69.74-1.42,1-2.14.51-1.44.77-2.87.97-4.23.39-2.72.66-5.49.38-8.18-.13-1.34-.41-2.65-.83-3.86-.42-1.21-1.04-2.34-1.88-3.09-.21-.19-.31.07-.15.28.72,1,1.1,2.34,1.32,3.73.21,1.39.25,2.81.17,4.25-.19,2.85-.78,5.8-1.48,8.59-.38,1.38-.91,2.69-1.72,3.79-.08.08-.27.4-.36.58-.07.12-.1.25-.22.36l-.29.35-.37.32c-.5.43-1.11.77-1.73,1.1-1.27.63-2.65,1.08-4.05,1.47-1.4.39-2.83.68-4.28.91-2.89.47-5.82.71-8.76.74-2.93.04-5.87-.12-8.77-.54-2.89-.41-5.75-1.09-8.41-2.2-1.31-.57-2.59-1.23-3.72-2.06-.54-.43-1.1-.86-1.55-1.38-.13-.14-.21-.21-.27-.29l-.16-.37-.44-1.02c-1.28-2.94-2.46-5.84-2.91-8.88-.23-1.52-.34-3.08-.4-4.66-.02-.79-.04-1.58-.04-2.36,0-.38-.01-.83.04-1.03.04-.26.13-.53.26-.78.52-1.01,1.71-1.84,3.02-2.45,1.33-.6,2.8-1.03,4.3-1.36,3.01-.65,6.15-.95,9.29-1.09,6.52-.25,13.13.09,19.57,1.05,1.98.3,3.91.72,5.76,1.1,1.83.4,3.65.74,5.14,1.11.57.16.89.16,1.24.17.33,0,.7.04.89-.32.22-.36.09-1.07-.36-1.67-.44-.61-1.14-1.12-2-1.47Z"/>
        <path class="cls-1" d="M142.55,137.57c4.23,1.14,8.61,2.39,13.23,2.31,1.97-.03,4.17.04,6.21-.67,2.02-.68,3.86-2.2,4.25-4.72.01-.08-.14-.26-.18-.23-1.5,1.28-3.36,2.14-5.3,2.61-1.95.48-3.99.57-6,.38-2.17-.2-4.28-.76-6.35-1.42-1.07-.34-2.15-.69-3.2-1.09-.65-.25-1.23-.68-2.11.02-.7.56-1.14,2.64-.56,2.79Z"/>
        <path class="cls-1" d="M91.83,133.47c-3.94-.87-7.92-1.68-11.98-1.76-1.74-.04-3.63-.32-5.47-.01-1.82.3-3.58,1.18-4.75,3.35-.04.07.03.29.08.28,3.51-1.23,7.29-1.41,10.97-.97,1.99.24,3.93.7,5.84,1.23.99.28,1.97.53,2.93.86.6.19,1.11.59,1.9-.17.63-.6,1.01-2.69.47-2.8Z"/>
        <path class="cls-1" d="M215.65,135.56c1.5-.44,3.11-.52,4.72-.37,1.61.14,3.23.48,4.85.87,1.41.33,2.81,1.09,4.35,1.41.77.17,1.59.2,2.34.05.77-.13,1.57-.47,2.86-.53.08,0,.23-.18.18-.22-.87-.69-1.8-.99-2.65-1.22-.85-.23-1.64-.43-2.44-.68-1.6-.48-3.19-1.05-4.84-1.55-1.77-.54-3.59-1.1-5.53-1.33-1-.14-2.04-.14-3.08-.1-.63.03-1.34-.09-1.66.96-.24.82.51,2.81.9,2.7Z"/>
      </g>
    </g>
    <path class="cls-1" d="M74.11,187.39c.47-1.27,1.26-2.39,1.77-3.65.43-1.04,2.17-1.97-1.15-4.11-.05-.03-.28-.09-.28-.08.16,1.32-.37,2.46-1.11,3.48-.4.55-.91,1.04-1.38,1.54-.24.27-.46.52-.69.78-.15.16-.46.22.29.82.59.47,2.49,1.4,2.56,1.22Z"/>
    <path class="cls-1" d="M79.48,225.43c.78-.85,1.73-1.51,2.54-2.35.35-.36.9-.6,1.18-1.09.27-.47.33-1.29-.64-2.32-.03-.03-.18-.1-.18-.09-.15.99-1,1.8-1.87,2.39-.48.33-1.02.59-1.54.87-.27.16-.52.3-.79.45-.16.09-.41.08-.09.68.25.48,1.29,1.56,1.39,1.45Z"/>
    <path class="cls-1" d="M80.86,232.28c.16-.35.77-.83,1.33-1.2l1.82-1.17c.53-.36,1.24-.55,1.75-1.08.26-.26.46-.6.53-1.07.06-.45,0-1.09-.49-1.6-.03-.03-.18-.1-.18-.09-.06.48-.6,1.05-1.13,1.44-.55.41-1.16.74-1.81,1.05-.69.33-1.43.6-2.17.97-.38.19-.75.44-1.15.72-.12.1-.28.19-.36.33-.08.13-.1.4.11.69.16.24.6.48,1,.68.4.19.74.35.76.31Z"/>
    <path class="cls-1" d="M88.5,239.48c0-.29.23-.79.44-1.2.22-.43.47-.86.69-1.32.18-.39.6-.72.7-1.22.05-.24.02-.53-.17-.86-.19-.32-.54-.74-1.18-.99-.04-.02-.2-.04-.2-.03.13.34,0,.88-.18,1.29-.19.43-.45.84-.75,1.23-.32.43-.71.82-1.07,1.27-.19.23-.34.48-.51.76-.1.17-.35.36.26.73.24.13.74.21,1.18.27.44.05.81.09.81.07Z"/>
    <path class="cls-1" d="M93.62,244.06c.42-1.03.92-1.89,1.21-2.93.12-.44.46-.89.42-1.44-.02-.27-.14-.57-.44-.82-.3-.25-.79-.47-1.48-.41-.04,0-.2.06-.19.06.26.22.34.69.29,1.1-.05.43-.22.84-.44,1.24-.24.42-.57.81-.89,1.17-.16.19-.3.38-.47.55-.1.11-.31.13.21.55.41.35,1.72,1.07,1.79.92Z"/>
    <path class="cls-1" d="M120.63,261.37c-.07-.84.16-1.66.21-2.49.04-.72,1.04-1.48-1.61-2.31-.04-.01-.21-.02-.2,0,.34.82.21,1.61-.05,2.4-.14.42-.35.85-.53,1.27-.09.22-.16.44-.24.66-.05.14-.23.26.42.42.52.13,2.02.17,2.01.06Z"/>
    <path class="cls-1" d="M127.95,265.35c-.06-.68.23-1.44.33-2.19.05-.33.33-.65.28-1.02-.06-.36-.45-.82-1.78-1.19-.04-.01-.21-.01-.2,0,.34.7.15,1.45-.16,2.14-.17.38-.41.75-.61,1.13-.1.2-.18.41-.27.62-.06.13-.24.27.41.44.52.13,2.02.15,2.01.07Z"/>
    <path class="cls-1" d="M138.44,269.21c-.27-.81-.19-1.74-.24-2.61-.02-.38.2-.79.11-1.17-.09-.4-.52-.71-1.81-1.29-.04-.02-.21-.04-.2-.02.26,1.02.23,1.86.06,2.8-.08.5-.22,1.01-.31,1.52-.05.27-.06.54-.09.81-.02.17-.16.37.52.39.54.01,1.99-.34,1.96-.44Z"/>
    <path class="cls-1" d="M145.68,270.3c-.12-.3-.13-.93-.1-1.44.03-.55.06-1.09.09-1.64.03-.97,1.02-1.93-1.6-3.05-.04-.02-.21-.03-.2-.01.29,1.15.18,2.19-.06,3.28-.13.59-.32,1.17-.46,1.79-.07.32-.11.64-.15,1-.02.22-.17.5.55.63.28.03.76-.12,1.17-.27.41-.15.77-.27.76-.29Z"/>
    <path class="cls-1" d="M156.27,271.37c-.25-.73-.08-1.72-.17-2.69-.04-.42.15-.93-.05-1.42-.18-.45-.85-1.02-2.19-.6-.04.01-.18.11-.17.11.32.16.52.57.6.97.08.41.05.86-.02,1.3-.08.48-.24.97-.36,1.49-.06.27-.09.54-.12.84-.02.18-.16.41.52.45.54.02,1.99-.38,1.96-.46Z"/>
    <path class="cls-1" d="M164.98,272.19c-.47-.68-.54-1.83-.71-2.85-.16-.89.64-2.11-2.16-2.59-.04,0-.21.03-.2.04.54.97.59,2.03.58,3.13,0,.59-.07,1.21-.05,1.85.01.33.06.67.14,1.03.04.21,0,.53.68.4.53-.12,1.78-.95,1.74-1.02Z"/>
    <path class="cls-1" d="M174.33,270.01c-.39-.49-.38-1.45-.43-2.29-.05-.78.9-1.58-1.76-2.45-.04-.01-.21-.01-.2,0,.35.94.27,1.84.13,2.81-.07.52-.19,1.07-.21,1.66,0,.31.03.62.09.96.03.2-.01.51.66.35.52-.14,1.76-1,1.72-1.04Z"/>
    <path class="cls-1" d="M200.67,261.27c-.52-.78-.78-1.69-1.2-2.52-.36-.72.08-1.96-2.67-1.42-.04,0-.19.09-.18.1.74.63,1.07,1.46,1.28,2.35.11.48.16,1,.24,1.5.04.26.11.51.16.76.03.16-.06.37.6.2.52-.14,1.84-.85,1.77-.96Z"/>
    <path class="cls-1" d="M213.42,253.64c-.5-.51-.99-1.01-1.48-1.52-.46-.49-.92-.97-1.4-1.42-.41-.39-.69-.97-1.17-1.31-.5-.36-1.13-.35-2.55.03-.05.01-.17.12-.16.13.61.47,1.1.82,1.57,1.27.46.44.87.93,1.27,1.44.42.55.79,1.15,1.16,1.73.19.3.4.57.57.86.1.18.08.41.68.11.5-.22,1.69-1.13,1.52-1.32Z"/>
    <path class="cls-1" d="M209.14,256.93c-.96-1.1-1.65-2.19-2.43-3.27-.34-.46-.49-1.08-.86-1.5-.19-.21-.44-.37-.8-.46-.38-.13-.86-.06-1.59-.41-.05-.02-.21,0-.2.02.04.13.09.25.13.37.05.11.1.18.15.28.1.19.21.32.3.47.2.29.38.57.57.85.36.56.69,1.14,1,1.73.33.64.62,1.31.94,1.96.17.33.34.65.51.97.1.2.07.46.71.21.51-.18,1.73-1.05,1.59-1.23Z"/>
    <path class="cls-1" d="M219.71,248.11c-1-.66-1.83-1.54-2.76-2.29-.8-.65-1.12-2.12-3.56-.62-.04.02-.14.16-.12.16,1.13.42,1.97,1.19,2.74,2.08.41.48.78,1.01,1.16,1.52.2.26.42.5.63.76.13.16.17.42.72,0,.44-.32,1.33-1.53,1.19-1.62Z"/>
    <path class="cls-1" d="M224.84,237.19c-1.11-.4-2.17-1.15-3.27-1.72-.93-.48-1.68-1.94-3.73.09-.03.03-.09.19-.07.19,1.18.13,2.25.78,3.21,1.51.52.4,1.02.86,1.53,1.29.27.22.55.42.83.64.17.13.29.39.77-.13.36-.41.86-1.83.74-1.87Z"/>
    <path class="cls-1" d="M227.26,229.74c-1.15-.79-2.12-1.75-3.25-2.56-.49-.35-.89-.91-1.51-1.17-.31-.13-.67-.19-1.1-.08-.39.11-1,.38-1.25,1.02-.02.04-.03.21-.02.2.12-.08.48,0,.75.09.29.1.57.25.84.41.54.33,1.02.76,1.48,1.22.49.5.94,1.06,1.39,1.6.25.28.48.54.72.82.14.17.2.44.76.05.45-.31,1.37-1.5,1.21-1.61Z"/>
    <path class="cls-1" d="M229.32,220.74c-.91-.17-1.69-.72-2.54-1.04-.74-.28-1.11-1.85-3.13,1.46-.03.05-.11.27-.09.27,1.01-.2,1.79.21,2.51.8.39.32.74.73,1.11,1.1.19.19.4.34.59.52.12.11.17.39.63-.44.36-.66,1.05-2.66.93-2.68Z"/>
    <g>
      <path class="cls-1" d="M72.76,142.22c.6-.85,1.44-1.5,2.14-2.26.6-.66,2.05-.73.45-3.3-.02-.04-.16-.15-.17-.14-.36,1.01-1.09,1.69-1.93,2.28-.45.32-.96.58-1.45.87-.25.15-.48.32-.72.48-.15.1-.4.09.02.69.34.47,1.57,1.51,1.65,1.4Z"/>
      <path class="cls-1" d="M72.5,148.02c1.32-1.54,2.77-2.98,3.97-4.63,1.01-1.38,3.01-2.67,1.22-5.47-.03-.04-.19-.12-.2-.09-.52,1.83-1.61,3.39-2.9,4.75-.7.74-1.48,1.39-2.25,2.03-.4.33-.78.68-1.19,1-.25.2-.6.29-.28.99.25.56,1.46,1.62,1.64,1.41Z"/>
      <path class="cls-1" d="M73.11,152.63c.92-1.38,1.99-2.65,2.79-4.12.34-.62.92-1.2,1.14-1.94.22-.73.07-1.63-1.07-2.72-.04-.03-.21-.09-.21-.07-.13,1.54-.85,2.9-1.79,4.08-.5.64-1.1,1.21-1.68,1.77-.3.29-.58.59-.89.87-.19.18-.48.25-.06.87.33.49,1.64,1.44,1.77,1.25Z"/>
      <path class="cls-1" d="M73.82,157.65c.64-1.33,1.6-2.46,2.45-3.66.75-1.05,2.39-1.51.91-4.29-.02-.04-.17-.15-.18-.13-.61,1.39-1.54,2.48-2.57,3.55-.56.55-1.15,1.14-1.73,1.7-.29.3-.56.62-.84.94-.17.19-.46.31.04.87.4.44,1.83,1.19,1.92,1.01Z"/>
      <path class="cls-1" d="M73.98,162.38c.46-1,1.18-1.83,1.75-2.77.49-.8,1.92-1.19-.11-3.45-.03-.04-.19-.12-.19-.11-.19,1.11-.8,1.96-1.54,2.74-.4.42-.86.8-1.3,1.2-.23.21-.42.43-.64.64-.13.13-.39.18.14.69.42.4,1.83,1.19,1.89,1.05Z"/>
      <path class="cls-1" d="M74.17,168.83c.63-1.09,1.43-2.08,1.98-3.22.23-.49.71-.93.81-1.51.11-.58-.15-1.29-1.41-2.15-.04-.03-.21-.07-.21-.05.08,1.17-.42,2.21-1.11,3.1-.38.48-.84.9-1.28,1.3-.23.21-.44.43-.67.64-.14.13-.4.16.09.71.38.44,1.72,1.35,1.8,1.19Z"/>
      <path class="cls-1" d="M73.97,175.46c.38-1.11,1.09-2.07,1.66-3.08.5-.9,1.94-1.29.02-3.67-.03-.04-.18-.13-.19-.11-.29,1.2-.94,2.14-1.71,3.05-.41.49-.89.96-1.32,1.45-.23.26-.42.53-.63.79-.13.16-.39.27.18.73.45.37,1.94.99,1.99.84Z"/>
      <path class="cls-1" d="M73.5,181.79c.48-1.2,1.18-2.29,1.66-3.49.41-1,1.82-1.96-.67-3.77-.04-.03-.21-.07-.21-.05.06,1.24-.42,2.35-1.08,3.35-.35.54-.79,1.04-1.21,1.54-.21.27-.41.52-.62.78-.13.16-.39.24.17.73.44.39,1.9,1.08,1.96.91Z"/>
      <path class="cls-1" d="M234.08,179.78c-.55-.63-.85-1.43-1.29-2.13-.39-.6.03-1.85-2.77-.84-.04.02-.19.12-.18.12.78.45,1.14,1.16,1.38,1.96.13.43.19.9.29,1.35.05.23.12.45.18.68.04.14-.05.36.62.07.53-.22,1.86-1.13,1.79-1.22Z"/>
      <path class="cls-1" d="M235.15,176.23c-.79-.91-1.32-2-2.01-2.99-.59-.85-.43-2.4-3.36-1.54-.05.01-.19.12-.17.13,1,.71,1.58,1.7,2.06,2.78.25.58.45,1.21.67,1.81.11.31.25.61.38.92.08.19.03.46.72.19.54-.21,1.83-1.18,1.73-1.31Z"/>
      <path class="cls-1" d="M235.49,170.19c-.78-.41-1.39-1.07-2.1-1.58-.61-.44-.72-1.77-2.98.18-.04.03-.13.18-.12.18.92.15,1.56.71,2.11,1.38.3.36.55.79.82,1.19.14.21.3.39.45.59.09.12.1.36.62-.15.41-.4,1.31-1.74,1.21-1.8Z"/>
      <path class="cls-1" d="M235.96,158.02c-.91-.43-1.64-1.15-2.43-1.75-.71-.53-.77-1.9-3.29-.24-.04.03-.15.17-.14.17,1.03.35,1.75,1.03,2.43,1.81.36.42.7.9,1.06,1.35.19.23.4.44.6.65.12.14.17.39.68-.13.4-.41,1.21-1.81,1.09-1.87Z"/>
      <path class="cls-1" d="M236.32,153.64c-.73-.78-1.27-1.72-2-2.51-.6-.66-.72-2.2-3.28-.58-.04.03-.15.16-.14.17.99.33,1.63,1.08,2.11,1.94.26.47.44.99.63,1.48.11.26.21.5.32.75.06.16,0,.39.66.09.52-.24,1.8-1.23,1.7-1.34Z"/>
      <path class="cls-1" d="M235.55,166.5c-.81-.49-1.42-1.22-2.14-1.8-.63-.51-.7-1.88-3.11-.08-.04.03-.14.17-.13.17.96.24,1.6.86,2.16,1.6.3.4.55.86.83,1.29.14.22.3.42.45.64.09.13.09.38.65-.1.44-.37,1.41-1.66,1.3-1.73Z"/>
      <path class="cls-1" d="M236.47,163.14c-.96-.92-1.81-1.97-2.88-2.79-.46-.35-.83-.92-1.41-1.15-.58-.23-1.36-.13-2.45.95-.03.03-.11.2-.09.2,1.21.15,2.2.87,2.96,1.77.41.48.75,1.04,1.06,1.59.16.28.34.54.5.82.1.17.07.43.73.1.52-.26,1.72-1.35,1.58-1.48Z"/>
      <path class="cls-1" d="M236.36,149.23c-1.08-.73-1.97-1.71-2.98-2.54-.87-.72-1.21-2.33-3.87-.76-.04.02-.15.17-.13.17,1.23.48,2.14,1.34,2.96,2.32.44.53.84,1.11,1.25,1.67.22.29.45.55.68.84.14.17.18.45.78.03.48-.34,1.45-1.63,1.31-1.73Z"/>
      <path class="cls-1" d="M235.99,143.53c-1-.67-1.83-1.55-2.8-2.25-.82-.6-1.28-2.14-3.64-.19-.04.03-.12.19-.11.19,1.16.24,2.04.94,2.8,1.78.41.45.76.97,1.13,1.47.2.26.39.49.58.74.12.15.14.42.72-.02.46-.35,1.46-1.62,1.32-1.72Z"/>
      <path class="cls-1" d="M237.18,142.09c-1.3-.87-2.41-1.98-3.63-2.95-1.05-.84-1.62-2.59-4.41-1.09-.04.02-.15.17-.13.18,1.43.61,2.55,1.59,3.58,2.7.56.6,1.07,1.26,1.6,1.89.28.33.57.63.85.95.17.2.25.5.88.08.49-.33,1.43-1.65,1.25-1.76Z"/>
      <path class="cls-1" d="M72.35,137.25c.31-.64.92-1.05,1.42-1.52.22-.2.63-.21.8-.48.18-.28.14-.82-.36-2.22-.02-.04-.12-.19-.12-.18-.45.78-1.08,1.16-1.82,1.55-.4.21-.84.39-1.26.62-.22.12-.4.27-.61.41-.12.09-.37.1.15.61.4.4,1.76,1.29,1.8,1.2Z"/>
      <path class="cls-1" d="M238.47,139.22c-1.09-.47-1.98-1.27-2.92-1.97-.84-.63-.97-2.07-3.67-.62-.04.02-.16.16-.14.17,1.16.53,2.01,1.34,2.86,2.24.45.48.88,1.02,1.36,1.51.25.26.51.48.77.72.16.15.25.42.77-.11.4-.42,1.12-1.87.98-1.93Z"/>
      <path class="cls-1" d="M118.16,40.21c4.52-1,9.1-1.63,13.67-2.38,3.94-.65,8.57-.32,11.88-3.72.05-.05,0-.23-.06-.21-4.36,1.03-8.75,1.62-13.2,2.13-2.39.25-4.8.51-7.2.76-1.25.16-2.48.32-3.73.47-.76.1-1.54.05-2.08.89-.43.66.12,2.2.72,2.06Z"/>
      <path class="cls-1" d="M121.4,45.02c3.58-1.58,7.37-2.65,11.15-3.66,3.29-.89,7.16-.65,9.86-4.01.04-.05-.01-.23-.06-.21-3.73,1-7.44,1.72-11.21,2.53-2.03.44-4.07.86-6.09,1.39-1.05.27-2.08.59-3.12.91-.64.19-1.32.26-1.6,1.15-.22.7.58,2.11,1.07,1.9Z"/>
      <path class="cls-1" d="M122.64,48.05c3.36-1.71,6.92-2.97,10.47-4.23,3.08-1.1,6.84-1.18,9.07-4.76.04-.06-.03-.22-.08-.2-3.45,1.33-6.94,2.33-10.49,3.38-1.91.56-3.83,1.1-5.73,1.72-.99.32-1.96.68-2.93,1.05-.6.22-1.25.31-1.46,1.2-.17.7.71,2.08,1.16,1.85Z"/>
      <path class="cls-1" d="M126.31,49.06c2.87-1.39,5.87-2.49,8.79-3.76,2.52-1.09,5.8-1.41,7.01-5.1.02-.06-.07-.21-.11-.19-2.64,1.6-5.46,2.74-8.37,3.75-1.56.55-3.16,1.02-4.74,1.53-.82.26-1.63.56-2.44.83-.5.17-1.05.2-1.2,1.04-.12.67.68,2.08,1.06,1.89Z"/>
      <path class="cls-1" d="M123.19,38.19c2.35-.29,4.73-.12,7.08.01,2.07.11,4.15,1.37,6.53-1.19.04-.04.05-.22.02-.22-2.38.03-4.66-.29-7.01-.62-1.26-.18-2.53-.4-3.81-.54-.66-.07-1.33-.11-2-.14-.41-.03-.83-.19-1.14.55-.25.58,0,2.18.32,2.15Z"/>
      <path class="cls-1" d="M124.94,33.92c2.88.29,5.71.98,8.54,1.58,2.46.51,4.94,2.16,7.96-.05.05-.03.07-.21.04-.22-2.83-.33-5.52-1.04-8.25-1.83-1.45-.44-2.94-.88-4.41-1.32-.77-.22-1.54-.4-2.31-.59-.47-.12-.92-.38-1.46.27-.42.51-.5,2.13-.11,2.17Z"/>
      <path class="cls-1" d="M121.95,43.24c2.8-.88,5.7-1.4,8.56-2.06,2.48-.56,5.48-.15,7.26-3.45.03-.05-.03-.22-.06-.21-2.71.95-5.48,1.45-8.31,1.87-1.52.2-3.06.4-4.59.61-.79.11-1.58.26-2.37.39-.49.08-1,.02-1.24.82-.19.63.38,2.15.76,2.04Z"/>
      <path class="cls-1" d="M140.46,44.55c1.77-1.14,3.7-2.01,5.54-3.04,1.58-.89,3.89-1.01,3.95-4.38,0-.05-.1-.2-.12-.18-1.56,1.35-3.36,2.26-5.24,3.05-1.01.43-2.06.79-3.1,1.18-.54.2-1.06.43-1.59.64-.33.13-.72.13-.64.91.06.61.95,1.97,1.19,1.81Z"/>
      <path class="cls-1" d="M137.55,42.79c2.68-.86,5.42-1.59,8.04-2.64,2.23-.89,5.28-1.19,5.92-4.82,0-.06-.09-.21-.12-.18-2.14,1.6-4.59,2.64-7.13,3.39-1.37.41-2.78.7-4.17.98-.72.14-1.44.31-2.16.44-.45.08-.92.01-1.12.81-.16.63.39,2.15.75,2.03Z"/>
      <path class="cls-1" d="M134.89,36.21c3.42-.4,6.86-.49,10.29-.76,2.96-.24,6.41.51,8.95-2.61.04-.05,0-.22-.04-.22-3.26.68-6.54.86-9.86.9-1.79.02-3.58-.04-5.37-.06-.93-.01-1.86,0-2.78,0-.57,0-1.14-.14-1.59.61-.36.59-.05,2.19.41,2.14Z"/>
      <path class="cls-1" d="M134.52,36.1c2.42-.51,4.9-.59,7.36-.71,2.15-.11,4.48.9,6.61-1.92.03-.04.02-.22,0-.22-2.45.31-4.84.25-7.29.17-1.32-.04-2.65-.13-3.98-.14-.69,0-1.38.03-2.07.05-.42.01-.87-.11-1.13.66-.2.6.19,2.18.51,2.11Z"/>
      <path class="cls-1" d="M134.83,34.79c.46.2.91.41,1.35.64l1.44.73c.99.47,2.01.9,3.06,1.21.9.26,1.85.74,2.86.8,1,.06,2.08-.32,2.96-1.73.03-.04.02-.22,0-.22-1.95.33-3.93-.1-5.7-.9-.96-.43-1.85-1-2.71-1.59-.42-.3-.91-.61-1.41-.95-.3-.2-.54-.54-1.12-.03-.45.41-.98,1.94-.74,2.04Z"/>
      <path class="cls-1" d="M133.35,30c3.19,1.5,6.19,3.35,9.24,5.11,2.64,1.52,5.03,4.17,9,3.25.06-.01.14-.18.1-.2-3.1-1.48-5.95-3.3-8.81-5.19-1.52-1.03-3.06-2.08-4.6-3.11-.8-.53-1.62-1.03-2.44-1.54-.5-.32-.93-.75-1.72-.35-.63.31-1.2,1.83-.77,2.04Z"/>
      <path class="cls-1" d="M134.92,31.21c2.26.29,4.43,1.07,6.56,1.84.92.33,1.8.96,2.78,1.27.99.32,2.09.33,3.61-.51.05-.03.12-.19.09-.2-2.21-.7-4.23-1.67-6.32-2.63-1.13-.52-2.26-1.07-3.42-1.53-.61-.24-1.23-.44-1.85-.65-.38-.13-.74-.39-1.21.25-.38.5-.53,2.12-.23,2.16Z"/>
      <path class="cls-1" d="M127.76,32.11c1.02-.24,2.16-.09,3.24.28,1.1.37,2.14.93,3.2,1.54.92.53,1.78,1.38,2.87,1.9,1.08.51,2.48.7,3.94-.31.04-.03.09-.2.06-.21-2.35-.45-4.32-2.01-6.4-3.42-1.14-.76-2.35-1.53-3.76-2.02-.73-.26-1.52-.41-2.34-.48-.49-.03-1.07-.18-1.37.62-.22.61.31,2.16.55,2.1Z"/>
      <path class="cls-1" d="M107.66,45.43c5.37-.34,10.76-.62,16.1-1.34,4.58-.6,10.07-.55,13.68-4.33.06-.06-.02-.23-.08-.21-4.91,1.5-9.96,2.3-15.08,2.71-2.76.23-5.52.31-8.28.35-1.43.02-2.86.07-4.29.06-.88,0-1.74-.15-2.5.59-.6.59-.28,2.19.45,2.14Z"/>
      <path class="cls-1" d="M110.07,43.93c4.19-.32,8.39-.33,12.59-.52,1.81-.08,3.77.07,5.62-.09,1.88-.15,3.61-.58,5.53-1.77.06-.04.06-.22,0-.22-4.19-.15-8.16.23-12.21.13-2.18-.02-4.37-.12-6.55-.19-1.13-.02-2.26-.04-3.39-.06-.7-.01-1.38-.17-1.97.57-.47.59-.18,2.19.39,2.15Z"/>
      <path class="cls-1" d="M112.69,45.7c2.68-1.19,5.47-2.1,8.2-3.18,1.18-.46,2.54-.74,3.69-1.27,1.18-.53,2.11-1.3,3.15-2.89.03-.05,0-.22-.05-.21-2.91.81-5.42,1.99-8.15,2.77-1.46.45-2.95.82-4.42,1.22-.76.23-1.52.45-2.28.67-.47.14-.98.13-1.12.96-.11.65.62,2.1.98,1.94Z"/>
      <path class="cls-1" d="M106.66,58.19c2.31-3.21,4.96-6.14,7.57-9.1,2.26-2.57,5.61-4.66,5.8-8.99,0-.07-.14-.17-.17-.13-2.4,3.02-5.03,5.74-7.73,8.49-1.45,1.48-2.94,2.94-4.37,4.44-.74.78-1.46,1.59-2.18,2.39-.45.49-.99.89-.79,1.8.16.71,1.57,1.53,1.88,1.1Z"/>
      <path class="cls-1" d="M114.91,54.27c2.58-2.39,5.37-4.55,8.05-6.84,2.3-1.98,5.59-3.46,5.85-7.52,0-.06-.13-.18-.16-.15-2.29,2.52-4.89,4.65-7.61,6.69-1.46,1.1-2.98,2.14-4.47,3.2-.77.55-1.53,1.13-2.29,1.69-.47.34-1.03.57-.96,1.46.06.7,1.25,1.8,1.6,1.48Z"/>
      <path class="cls-1" d="M125.05,50.94c1.5-1.42,3.09-2.76,4.43-4.36.57-.68,1.36-1.29,1.82-2.13.46-.83.58-1.9-.26-3.32-.03-.04-.19-.12-.19-.1-.61,1.82-1.8,3.34-3.2,4.62-.75.69-1.59,1.29-2.43,1.87-.43.3-.85.61-1.28.9-.27.18-.62.23-.38.96.19.58,1.29,1.76,1.5,1.57Z"/>
      <path class="cls-1" d="M113.32,53.81c1.35-1.88,2.99-3.52,4.53-5.24,1.34-1.49,3.6-2.42,2.83-5.79-.01-.05-.15-.17-.17-.14-1.28,1.9-2.85,3.47-4.52,5-.91.8-1.84,1.63-2.76,2.44-.47.43-.92.88-1.38,1.32-.28.27-.67.45-.33,1.17.27.57,1.6,1.48,1.78,1.23Z"/>
      <path class="cls-1" d="M116.5,56.03c1.41-2.24,3.03-4.35,4.44-6.6,1.21-1.92,3.45-3.68,1.97-6.97-.02-.05-.19-.12-.2-.09-.88,2.39-2.25,4.51-3.79,6.51-.83,1.08-1.74,2.11-2.63,3.14-.46.55-.9,1.08-1.36,1.62-.28.33-.68.57-.31,1.29.29.58,1.69,1.39,1.88,1.09Z"/>
      <path class="cls-1" d="M120.56,53.79c1.85-1.69,3.86-3.2,5.69-4.92,1.57-1.46,4.08-2.52,3.37-5.98-.01-.05-.15-.17-.17-.14-1.34,2-3.09,3.6-4.98,5.05-1.02.78-2.11,1.48-3.18,2.19-.55.38-1.1.75-1.65,1.12-.34.23-.77.33-.59,1.12.14.62,1.26,1.79,1.51,1.56Z"/>
      <path class="cls-1" d="M110.68,56.25c1.97-2.22,4.25-4.14,6.48-6.09,1.94-1.7,4.79-2.7,4.96-6.47,0-.06-.12-.19-.15-.16-2.06,2.08-4.33,3.83-6.66,5.59-1.25.95-2.54,1.87-3.78,2.85-.64.51-1.26,1.04-1.89,1.57-.39.32-.87.55-.66,1.37.16.65,1.44,1.65,1.7,1.35Z"/>
      <path class="cls-1" d="M103.25,55.2c1.93-2.15,4.2-3.97,6.43-5.8,1.95-1.6,4.75-2.42,5.08-6.14,0-.06-.11-.2-.14-.17-2.12,1.93-4.4,3.55-6.73,5.21-1.25.89-2.54,1.76-3.78,2.69-.64.48-1.26,1-1.88,1.51-.38.31-.86.53-.66,1.34.16.64,1.43,1.66,1.69,1.37Z"/>
      <path class="cls-1" d="M100.69,50.44c2.88-2.19,6.06-3.94,9.24-5.65,2.78-1.49,6.32-2.02,7.97-5.82.03-.06-.06-.22-.11-.19-3.13,1.71-6.33,3.14-9.56,4.65-1.74.81-3.49,1.62-5.21,2.51-.89.46-1.76.97-2.62,1.47-.54.31-1.14.5-1.18,1.4-.03.71,1.07,1.91,1.46,1.62Z"/>
      <path class="cls-1" d="M99.88,57.02c1.04-2.46,2.85-4.53,4.83-6.29.86-.77,1.99-1.29,2.95-2,.97-.72,1.78-1.64,2.34-3.42.02-.06-.06-.22-.1-.2-2.47,1.41-4.81,2.81-7.02,4.58-1.19.95-2.34,1.98-3.37,3.15-.53.61-1.01,1.27-1.46,1.95-.29.41-.67.78-.22,1.48.36.55,1.9,1.07,2.04.75Z"/>
      <path class="cls-1" d="M103,60.13c.9-2.9,2.57-5.51,4.45-7.87.82-1.02,1.94-1.87,2.86-2.88.93-1.02,1.65-2.2,1.9-4.14,0-.06-.11-.2-.14-.17-2.33,2.12-4.57,4.17-6.65,6.53-1.11,1.27-2.19,2.6-3.12,4.04-.48.75-.91,1.53-1.31,2.34-.26.49-.62.94-.11,1.64.4.54,1.99.89,2.11.51Z"/>
      <path class="cls-1" d="M106.29,61.68c.84-2.72,2.16-5.26,3.49-7.76,1.17-2.2,3.43-3.92,2.41-7.5-.02-.06-.17-.14-.19-.11-1.29,2.54-2.79,4.86-4.3,7.27-.81,1.29-1.64,2.59-2.39,3.94-.39.7-.74,1.42-1.09,2.14-.22.44-.56.83-.04,1.49.42.51,1.99.9,2.1.54Z"/>
      <path class="cls-1" d="M97.75,63.39c.11-1.4.74-2.82,1.49-4.22.77-1.42,1.61-2.81,2.45-4.18,1.47-2.42,4.06-4.33,3.42-8.2,0-.06-.16-.15-.19-.12-1.65,2.76-3.5,5.3-5.34,7.94-.99,1.43-1.99,2.81-2.92,4.34-.48.8-.9,1.67-1.24,2.62-.21.57-.51,1.2.15,1.82.53.47,2.15.35,2.17,0Z"/>
      <path class="cls-1" d="M92.45,65.14c.63-2.6,1.96-4.98,3.43-7.18.64-.96,1.58-1.77,2.29-2.74.72-.98,1.2-2.12,1.11-3.97,0-.06-.13-.18-.16-.15-1.8,2.12-3.6,4.1-5.27,6.31-.9,1.19-1.77,2.41-2.53,3.73-.39.68-.73,1.4-1.05,2.12-.21.44-.52.85.04,1.46.45.48,2.05.76,2.13.42Z"/>
      <path class="cls-1" d="M98.52,63.9c.41-2.71,1.47-5.27,2.68-7.71.52-1.06,1.36-2.02,1.94-3.11.58-1.1.9-2.33.52-4.15-.01-.06-.16-.16-.18-.12-1.45,2.42-2.97,4.67-4.37,7.11-.75,1.31-1.48,2.65-2.09,4.06-.31.73-.58,1.48-.83,2.24-.16.46-.44.91.17,1.47.49.44,2.11.58,2.16.22Z"/>
      <path class="cls-1" d="M103.3,63.4c.39-1.63,1.13-3.15,1.75-4.69.54-1.36,2.11-2.39.07-4.87-.03-.04-.2-.1-.2-.08-.33,1.67-1.05,3.12-1.87,4.58-.45.76-.93,1.56-1.39,2.34-.23.41-.44.83-.65,1.25-.13.26-.4.47.2.93.48.36,2.04.76,2.1.54Z"/>
      <path class="cls-1" d="M92.43,64.21c1.15-2.24,2.68-4.24,4.17-6.25,1.31-1.77,3.59-2.93,2.82-6.41-.01-.06-.16-.16-.17-.13-1.36,2.11-2.96,3.95-4.61,5.83-.89,1.01-1.81,2.01-2.67,3.05-.45.54-.87,1.11-1.29,1.67-.26.34-.64.62-.21,1.31.34.54,1.81,1.22,1.96.93Z"/>
      <path class="cls-1" d="M87.95,71.38c2.08-1.14,4.23-2.14,6.22-3.45,1.68-1.09,4.27-1.75,3.86-5.19,0-.05-.13-.18-.15-.16-1.42,1.72-3.27,2.97-5.24,3.97-1.07.54-2.19.97-3.29,1.39-.58.22-1.14.46-1.71.66-.35.13-.76.11-.76.91,0,.63.8,2.03,1.08,1.88Z"/>
      <path class="cls-1" d="M84.04,73.77c2.39-1.05,4.85-1.97,7.17-3.2,1.96-1.04,4.8-1.58,4.87-5.16,0-.06-.11-.19-.14-.17-1.77,1.72-3.93,2.92-6.19,3.84-1.22.5-2.49.89-3.75,1.26-.65.19-1.3.41-1.95.59-.4.11-.85.08-.94.88-.08.63.61,2.1.94,1.96Z"/>
      <path class="cls-1" d="M83.31,69.15c2.48-.95,5.03-1.72,7.48-2.77,2.08-.89,4.96-1.14,5.49-4.71,0-.06-.09-.21-.12-.18-2.02,1.53-4.32,2.53-6.72,3.29-1.29.41-2.62.72-3.93,1.03-.68.17-1.36.33-2.04.5-.42.1-.87.05-1.02.85-.11.63.51,2.13.85,2Z"/>
      <path class="cls-1" d="M85.18,70.84c.6-.66,1.93-.91,3.34-1.24,1.38-.34,2.77-.7,4.12-1.17,1.16-.4,2.49-.63,3.64-1.25,1.15-.61,2.13-1.59,2.47-3.39.01-.06-.09-.21-.12-.19-2.17,1.56-4.67,2.53-7.25,3.14-1.39.34-2.81.54-4.23.72-.75.1-1.56.23-2.46.57-.53.19-1.26.46-1.14,1.38.05.36.45.73.83,1.01.39.28.73.49.8.41Z"/>
      <path class="cls-1" d="M79.2,76.74c3.22-.85,6.45-1.73,9.5-3.12,1.31-.59,2.81-1.07,4.08-1.92,1.27-.85,2.3-2.07,2.54-4.01,0-.06-.11-.19-.14-.17-2.28,2.1-5.06,3.56-7.98,4.58-1.57.55-3.2.94-4.81,1.27-.84.17-1.67.36-2.51.49-.52.09-1.05.01-1.36.81-.25.63.24,2.18.69,2.06Z"/>
      <path class="cls-1" d="M81.02,80.46c1.82-1.96,4.5-3.02,7.12-4.33,1.13-.57,2.5-.98,3.64-1.84,1.13-.84,2.04-2.19,1.74-4.02,0-.06-.15-.16-.17-.13-.74,1.1-1.79,2-2.95,2.72-1.17.72-2.44,1.27-3.75,1.79-1.41.56-2.88,1.06-4.32,1.76-.74.37-1.48.79-2.18,1.29-.44.28-.96.54-.8,1.37.14.65,1.44,1.64,1.67,1.39Z"/>
      <path class="cls-1" d="M78.52,86.24c1.74-2.15,4-3.82,6.32-5.28,1.01-.63,2.24-1.02,3.31-1.64,1.09-.62,2.02-1.49,2.7-3.24.02-.06-.05-.22-.09-.2-2.56,1.26-5.07,2.38-7.57,3.75-1.34.74-2.68,1.52-3.94,2.43-.65.47-1.28.99-1.89,1.53-.38.32-.85.57-.61,1.37.19.63,1.52,1.56,1.76,1.28Z"/>
      <path class="cls-1" d="M75.26,94.18c1.01-3.01,3.23-5.48,5.62-7.69,2.09-1.94,5.3-3.03,5.86-6.99,0-.06-.11-.19-.15-.16-2.42,2.24-5.1,4.08-7.65,6.24-1.38,1.16-2.74,2.4-3.91,3.86-.6.76-1.16,1.57-1.64,2.43-.32.51-.71,1.03-.23,1.78.38.58,1.98.93,2.11.54Z"/>
      <path class="cls-1" d="M76.35,99.78c1.11-2.92,2.86-5.56,4.75-8.02.82-1.07,1.94-1.99,2.84-3.08.9-1.09,1.58-2.36,1.66-4.32,0-.06-.13-.19-.16-.15-2.16,2.34-4.33,4.53-6.39,6.94-1.11,1.3-2.2,2.63-3.18,4.06-.5.74-.97,1.51-1.41,2.3-.28.48-.67.91-.2,1.64.37.57,1.93,1.02,2.08.63Z"/>
      <path class="cls-1" d="M74.23,107.17c.41-2.64,1.58-5.11,2.96-7.37.6-.98,1.51-1.83,2.2-2.81.69-.99,1.15-2.13,1.06-3.99,0-.06-.13-.18-.16-.15-1.81,2.14-3.57,4.18-5.15,6.49-.85,1.24-1.66,2.53-2.33,3.91-.34.72-.63,1.46-.9,2.22-.17.46-.45.91.16,1.47.49.44,2.1.58,2.16.23Z"/>
      <path class="cls-1" d="M73.04,120.16c.67-2.33,1.83-4.48,3.01-6.59.51-.91,1.3-1.73,1.82-2.7.52-.97.75-2.1.23-3.8-.02-.05-.17-.15-.18-.12-1.17,2.17-2.54,4.12-3.9,6.16-.73,1.1-1.48,2.2-2.16,3.36-.35.6-.66,1.22-.96,1.85-.19.38-.51.72.04,1.31.44.46,2.01.84,2.1.54Z"/>
      <path class="cls-1" d="M71.72,127.57c.1-.01.23-.02.35-.02h.18s0,0,0,0c0-.02,0-.02.01-.08l.17-.55c.12-.37.25-.73.38-1.09.26-.72.56-1.44.86-2.15.61-1.41,1.3-2.79,2.01-4.17.61-1.18,1.52-2.3,2.15-3.55.63-1.25.99-2.64.54-4.53-.01-.06-.17-.15-.19-.11-1.43,2.74-3.04,5.28-4.61,7.93-.84,1.43-1.7,2.86-2.47,4.35-.39.77-.75,1.57-1.1,2.36-.11.26-.24.44-.31.77-.05.24-.05.48.02.76.08.27.24.64.64.91.33.21.64.09.77-.1.14-.19.19-.45.27-.66,0,.02-.03.06-.02.04.01-.01.1-.08.34-.12Z"/>
      <path class="cls-1" d="M73.66,133.48c.65-2.52,1.71-4.91,2.69-7.31.85-2.1,2.8-3.93,1.14-7.12-.03-.05-.19-.11-.2-.08-.76,2.47-1.85,4.73-3.01,7.02-.62,1.23-1.29,2.45-1.91,3.7-.32.65-.6,1.31-.89,1.97-.18.4-.49.76.07,1.35.45.46,2.03.81,2.12.47Z"/>
      <path class="cls-1" d="M77.62,134.08c.39-1.52,1.07-2.94,1.58-4.42.44-1.27,1.92-2.43-.45-4.49-.04-.03-.21-.08-.21-.06-.09,1.53-.65,2.91-1.35,4.24-.38.72-.83,1.41-1.24,2.11-.22.36-.4.74-.61,1.1-.13.23-.38.4.21.86.47.37,2.01.86,2.06.65Z"/>
      <path class="cls-1" d="M84.33,68.84c2.29-3.12,4.9-5.99,7.43-8.92,2.19-2.54,5.46-4.65,5.49-8.93,0-.07-.15-.17-.18-.13-2.26,3.02-4.79,5.73-7.41,8.43-1.42,1.44-2.85,2.9-4.27,4.35-.73.76-1.43,1.54-2.15,2.32-.44.48-.98.86-.78,1.76.16.71,1.56,1.54,1.87,1.12Z"/>
      <path class="cls-1" d="M93.91,57c.56-1.44,2.38-2.39,3.96-3.62.68-.52,1.57-.87,2.23-1.5.33-.32.6-.7.76-1.22.08-.26.13-.55.15-.87.03-.16-.08-.32.09-.48.05-.03.1-.07.21-.02.11.06.17.2.18.29.01.1.02.2-.05.32-.04.06-.1.14-.27.19-.17.06-.45-.05-.54-.16-.1-.09-.16-.11-.18-.04,0,.07-.04.18.22.36.31.21.73.11.86,0,.15-.09.22-.18.28-.26.1-.17.19-.34.14-.68-.03-.17-.15-.38-.3-.48-.15-.11-.19-.11-.3-.15-.2-.05-.37-.03-.48,0-.23.08-.31.17-.4.23l-.13.13c-.17.17-.34.34-.52.5-.35.33-.72.63-1.1.92-.76.58-1.57,1.1-2.4,1.58-.89.53-1.85.96-2.81,1.62-.49.34-.96.76-1.41,1.26-.27.29-.67.6-.17,1.24.4.48,1.95.97,2,.81Z"/>
      <path class="cls-1" d="M87.14,63.45c1.63-1.57,3.59-2.74,5.52-3.88.84-.49,1.87-.76,2.74-1.3.87-.54,1.58-1.37,1.94-3.07.01-.05-.07-.21-.1-.2-1.97,1.22-3.99,2.13-6.06,3.13-1.11.53-2.25,1.06-3.35,1.67-.57.32-1.11.67-1.66,1.02-.34.21-.76.33-.56,1.1.16.61,1.32,1.74,1.54,1.53Z"/>
      <path class="cls-1" d="M84.37,68.56c1.14-1.49,2.67-2.61,4.19-3.67.66-.46,1.52-.7,2.19-1.2.69-.5,1.19-1.28,1.37-2.93,0-.05-.08-.21-.1-.2-1.62,1.14-3.28,2-4.99,2.96-.92.52-1.86,1.04-2.75,1.65-.46.32-.9.67-1.33,1.03-.27.21-.64.35-.3,1.05.27.55,1.57,1.51,1.72,1.32Z"/>
      <path class="cls-1" d="M76.69,77.47c1.86-2.27,4.16-4.14,6.48-5.92,1-.77,2.25-1.33,3.31-2.14,1.06-.81,1.93-1.86,2.34-3.72.01-.06-.09-.21-.12-.18-2.4,1.74-4.84,3.24-7.3,4.88-1.32.88-2.65,1.78-3.92,2.77-.66.51-1.28,1.06-1.9,1.62-.39.34-.87.59-.64,1.4.18.64,1.5,1.58,1.75,1.28Z"/>
      <path class="cls-1" d="M76.36,81.63s.02-.16.15-.36c.13-.2.34-.42.58-.69.46-.51.94-1.01,1.41-1.5l2.92-2.91c1.68-1.69,4.3-2.76,4.02-6.41,0-.06-.14-.18-.16-.15-1.71,2.1-3.69,3.86-5.73,5.61-1.11.92-2.23,1.87-3.35,2.8-.28.25-.56.51-.84.76-.27.25-.56.49-.9.88-.2.23-.44.49-.56.87-.12.36-.09.9.31,1.25.32.28.86.15,1.31.01.45-.15.85-.19.84-.17Z"/>
      <path class="cls-1" d="M75.75,87.76c1.01-2.54,2.54-4.83,4.1-7.05.68-.96,1.64-1.8,2.34-2.81.71-1.02,1.16-2.21.93-4.05,0-.06-.15-.17-.17-.14-1.62,2.24-3.38,4.25-5.12,6.39-.93,1.15-1.88,2.31-2.74,3.54-.45.64-.85,1.3-1.26,1.97-.25.41-.62.76-.15,1.44.38.53,1.92,1.05,2.05.71Z"/>
      <path class="cls-1" d="M74.47,94.16c.74-2.29,1.94-4.39,3.14-6.46.52-.9,1.32-1.69,1.83-2.65.52-.96.76-2.09.23-3.77-.02-.05-.17-.15-.18-.12-1.15,2.15-2.52,4.06-3.9,6.05-.74,1.07-1.51,2.14-2.2,3.26-.36.58-.68,1.18-1.01,1.79-.2.37-.53.69,0,1.29.42.47,1.98.91,2.08.61Z"/>
      <path class="cls-1" d="M74.5,101.62c.94-3.4,2.4-6.63,3.88-9.83,1.29-2.79,3.78-5.25,2.8-9.22-.02-.06-.18-.14-.2-.09-1.45,3.17-3.12,6.16-4.76,9.23-.88,1.65-1.78,3.31-2.6,5.02-.42.88-.8,1.79-1.18,2.69-.24.55-.6,1.06-.08,1.79.41.57,2.01.87,2.14.41Z"/>
      <path class="cls-1" d="M73.01,109.83c.99-3.39,2.47-6.61,3.96-9.81,1.29-2.79,3.77-5.28,2.75-9.24-.02-.06-.18-.13-.2-.09-1.41,3.18-3.07,6.17-4.71,9.24-.88,1.65-1.79,3.3-2.62,4.99-.43.88-.82,1.77-1.21,2.67-.24.55-.61,1.05-.1,1.79.4.58,2,.9,2.13.44Z"/>
      <path class="cls-1" d="M72.01,118.11c.91-3.21,2.27-6.27,3.58-9.33,1.14-2.67,3.45-5.1,2.15-8.86-.02-.06-.19-.12-.2-.08-1.16,3.07-2.61,5.95-4.09,8.87-.8,1.57-1.63,3.14-2.39,4.74-.4.83-.75,1.68-1.12,2.52-.23.52-.58.99-.06,1.69.41.55,2.01.88,2.13.45Z"/>
      <path class="cls-1" d="M76.35,103.75c1.15-1.52,2.59-2.79,3.94-4.12,1.18-1.17,3.2-1.64,2.47-4.85-.01-.05-.14-.18-.15-.16-1.15,1.54-2.55,2.74-4.04,3.91-.8.61-1.64,1.24-2.46,1.86-.42.33-.82.69-1.22,1.03-.25.21-.6.33-.26,1.02.28.54,1.57,1.52,1.72,1.31Z"/>
      <path class="cls-1" d="M75.48,108.45c.79-1.5,1.96-2.75,3.09-4,.49-.54,1.21-.92,1.68-1.52.48-.61.71-1.44.34-3.02-.01-.05-.13-.18-.15-.16-1.07,1.42-2.33,2.53-3.64,3.68-.71.62-1.45,1.23-2.14,1.9-.36.35-.68.72-1.02,1.09-.21.23-.53.38-.07.99.37.48,1.8,1.24,1.9,1.04Z"/>
      <path class="cls-1" d="M73.59,113.01c.75-1.68,2.02-3.07,3.31-4.35.56-.56,1.36-.92,1.94-1.5.59-.59.98-1.41.95-3.07,0-.05-.1-.2-.12-.18-1.48,1.33-2.99,2.42-4.52,3.67-.81.67-1.64,1.36-2.39,2.15-.39.41-.74.85-1.09,1.3-.22.27-.55.49-.06,1.09.39.47,1.88,1.11,1.98.89Z"/>
      <path class="cls-1" d="M73.32,119.05c.67-1.42,1.75-2.59,2.77-3.75.45-.5,1.12-.84,1.56-1.4.44-.56.63-1.35.26-2.91-.01-.05-.13-.18-.14-.16-1.01,1.33-2.19,2.36-3.43,3.45-.66.58-1.36,1.16-2,1.8-.33.33-.63.69-.94,1.05-.19.22-.5.37,0,.95.39.45,1.85,1.16,1.93.97Z"/>
      <path class="cls-1" d="M72.94,122.45c.82-1.32,2.23-2.25,3.56-3.37.57-.49,1.38-.84,1.91-1.51.53-.66.79-1.68,0-3.08-.02-.04-.18-.14-.18-.12-.58,1.51-1.93,2.56-3.34,3.44-.77.49-1.6.93-2.4,1.48-.41.29-.81.61-1.2.97-.24.2-.59.36-.19,1.01.33.5,1.71,1.35,1.82,1.18Z"/>
      <path class="cls-1" d="M73.57,124.65c.99-1.34,2.29-2.41,3.51-3.53,1.08-.99,2.9-1.17,2.27-4.31,0-.05-.13-.19-.14-.17-1.09,1.33-2.4,2.3-3.78,3.28-.74.52-1.53,1.02-2.27,1.57-.39.28-.75.6-1.12.9-.23.19-.56.28-.19.94.3.52,1.59,1.5,1.72,1.32Z"/>
      <path class="cls-1" d="M74.59,128.29c1.16-1.17,2.49-2.15,3.67-3.3,1-.98,2.9-1.48,1.64-4.42-.02-.05-.16-.16-.17-.14-.73,1.42-1.87,2.48-3.14,3.39-.68.49-1.43.91-2.15,1.35-.37.24-.73.46-1.1.7-.23.14-.55.16-.26.86.23.55,1.34,1.72,1.5,1.56Z"/>
      <path class="cls-1" d="M75.37,132.02c.61-1.22,1.57-2.2,2.46-3.2.39-.44,1-.71,1.36-1.2.36-.5.48-1.24,0-2.73-.02-.05-.14-.18-.15-.16-.81,1.22-1.83,2.1-2.93,3.02-.59.49-1.22.97-1.8,1.5-.3.28-.58.58-.86.87-.18.18-.47.29.03.85.39.44,1.81,1.21,1.89,1.05Z"/>
      <path class="cls-1" d="M70.96,117.58c.15-1.32.71-2.55,1.2-3.77.21-.53.69-.98.85-1.56.16-.58.01-1.3-.96-2.53-.03-.04-.19-.12-.19-.1-.33,1.4-.97,2.55-1.67,3.76-.38.65-.8,1.3-1.17,1.98-.19.35-.34.72-.5,1.09-.1.22-.34.42.32.78.52.28,2.12.52,2.14.35Z"/>
      <path class="cls-1" d="M70.46,125.11c.37-1.62,1.16-3.09,1.89-4.56.32-.64.9-1.18,1.18-1.88.28-.7.26-1.55-.55-2.95-.03-.04-.18-.13-.19-.11-.6,1.62-1.48,3-2.42,4.42-.5.77-1.05,1.53-1.53,2.33-.25.42-.46.85-.69,1.28-.14.26-.41.49.2.95.48.36,2.05.74,2.1.52Z"/>
      <path class="cls-1" d="M70.14,130.34c.29-1.65.99-3.19,1.62-4.72.57-1.37,2.14-2.26.31-4.9-.03-.04-.19-.12-.2-.1-.48,1.67-1.27,3.12-2.11,4.61-.45.8-.95,1.6-1.39,2.43-.23.43-.41.88-.61,1.33-.12.27-.38.51.25.94.5.34,2.09.62,2.13.41Z"/>
      <path class="cls-1" d="M71.5,134.57c.4-1.65,1.15-3.17,1.79-4.73.55-1.37,2.13-2.4.11-4.91-.03-.04-.2-.11-.2-.08-.35,1.68-1.08,3.14-1.92,4.61-.46.77-.94,1.57-1.41,2.36-.24.41-.44.84-.66,1.26-.14.26-.4.47.2.94.48.37,2.04.77,2.1.55Z"/>
      <path class="cls-1" d="M72.62,135.98c.48-1.38,1.25-2.63,1.85-3.97.51-1.14,2.05-2.07-.16-4.25-.03-.03-.2-.09-.21-.07-.19,1.42-.83,2.65-1.6,3.82-.42.63-.91,1.23-1.36,1.84-.24.32-.44.64-.67.96-.14.2-.4.33.15.83.44.4,1.92,1.03,1.99.84Z"/>
      <path class="cls-1" d="M70.04,135.86c-.2-1.17.05-2.35.26-3.49.09-.5.46-.96.51-1.48.05-.54-.23-1.15-1.36-2.21-.04-.03-.2-.09-.2-.08-.12,1.34-.53,2.48-.96,3.71-.23.66-.5,1.34-.69,2.04-.1.37-.15.74-.21,1.11-.04.23-.21.48.51.63.57.11,2.18-.09,2.15-.24Z"/>
      <path class="cls-1" d="M72.61,140.08c-.13-.9.11-1.79.21-2.67.09-.8,1.22-1.41-1.48-2.71-.04-.02-.22-.05-.22-.04.22.99,0,1.86-.31,2.76-.17.48-.41.97-.59,1.47-.1.26-.16.52-.24.79-.05.16-.24.33.48.47.56.11,2.18.05,2.16-.07Z"/>
      <path class="cls-1" d="M76.58,89.58c.78-1.88,1.93-3.58,2.99-5.31.93-1.52,2.84-2.54,1.47-5.59-.02-.05-.17-.14-.19-.12-.85,1.87-2.01,3.47-3.24,5.08-.66.87-1.38,1.71-2.04,2.6-.34.46-.65.94-.98,1.41-.2.29-.52.52-.02,1.11.4.47,1.9,1.07,2.01.82Z"/>
      <path class="cls-1" d="M76.88,96.29c1.3-3.15,3.03-6.11,4.73-9.06,1.47-2.57,4.08-4.78,3.27-8.72-.01-.06-.17-.14-.19-.1-1.55,2.98-3.36,5.72-5.21,8.52-.99,1.51-2.02,3-2.98,4.54-.5.8-.96,1.62-1.42,2.44-.29.5-.7.94-.26,1.71.34.6,1.89,1.1,2.07.68Z"/>
      <path class="cls-1" d="M78.2,100.62c.88-2.47,2.13-4.78,3.29-7.11,1.02-2.04,3.1-3.75,1.67-7.05-.02-.05-.19-.13-.2-.09-.93,2.42-2.2,4.6-3.53,6.8-.72,1.18-1.49,2.35-2.2,3.55-.37.62-.71,1.26-1.05,1.9-.22.39-.56.72-.05,1.36.4.5,1.95.98,2.07.65Z"/>
      <path class="cls-1" d="M78.51,105.52c.64-2.14,1.68-4.14,2.66-6.14.85-1.76,2.75-3.1,1.22-6.17-.02-.05-.18-.13-.19-.1-.79,2.1-1.89,3.97-3.05,5.88-.62,1.02-1.29,2.04-1.9,3.09-.31.54-.6,1.11-.88,1.66-.18.34-.49.64.07,1.2.44.44,2,.87,2.09.58Z"/>
      <path class="cls-1" d="M77.66,110.71c.89-2.55,2.17-4.94,3.35-7.36,1.03-2.11,3.15-3.91,1.72-7.26-.02-.05-.19-.13-.2-.09-.95,2.49-2.23,4.76-3.59,7.04-.74,1.21-1.49,2.46-2.23,3.68-.38.65-.72,1.31-1.07,1.96-.22.4-.56.75-.05,1.4.4.51,1.96.97,2.08.63Z"/>
      <path class="cls-1" d="M77.81,115.03c.65-2.36,1.75-4.57,2.81-6.77.93-1.93,2.93-3.43,1.54-6.68-.02-.05-.18-.13-.19-.1-.94,2.28-2.16,4.33-3.4,6.44-.67,1.13-1.37,2.26-2.01,3.44-.33.61-.62,1.23-.92,1.86-.19.38-.5.72.06,1.3.44.46,2.02.83,2.11.51Z"/>
      <path class="cls-1" d="M79.13,121.88c.84-2.63,1.98-5.14,2.94-7.73.83-2.23,2.73-4.41.78-7.51-.03-.05-.2-.09-.21-.06-.53,2.62-1.53,5.06-2.67,7.47-.61,1.3-1.3,2.57-1.95,3.85-.34.66-.65,1.34-.97,2.01-.2.41-.54.76,0,1.4.42.5,1.98.93,2.09.57Z"/>
      <path class="cls-1" d="M78.06,128.17c1.14-2.63,2.56-5.12,3.81-7.7,1.08-2.22,3.23-4.3,1.63-7.66-.03-.05-.19-.11-.21-.08-.83,2.65-2.1,5.07-3.51,7.45-.76,1.28-1.59,2.53-2.39,3.79-.41.65-.8,1.32-1.2,1.98-.25.41-.62.74-.17,1.43.36.55,1.88,1.12,2.03.77Z"/>
      <path class="cls-1" d="M71.85,130.64c.44-1.46,1.26-2.77,2-4.09.66-1.18,2.25-1.77.64-4.49-.03-.04-.18-.14-.18-.12-.57,1.49-1.44,2.71-2.38,3.97-.51.67-1.06,1.33-1.56,2.03-.26.36-.48.74-.72,1.12-.15.23-.42.41.16.9.46.38,2,.87,2.06.68Z"/>
      <path class="cls-1" d="M80.55,82.8c1.97-2.19,4.17-4.15,6.23-6.25,1.77-1.8,4.56-3.18,4.1-6.86,0-.06-.15-.17-.17-.14-1.67,2.29-3.69,4.23-5.83,6.08-1.15,1-2.36,1.94-3.54,2.9-.61.51-1.2,1.02-1.8,1.53-.37.31-.83.51-.64,1.33.15.65,1.38,1.7,1.65,1.4Z"/>
      <path class="cls-1" d="M81.82,88.17c1.41-2.2,3.13-4.18,4.74-6.23,1.4-1.78,3.79-3.08,2.96-6.58-.01-.06-.16-.16-.18-.13-1.33,2.2-2.98,4.09-4.73,5.95-.95.98-1.92,1.99-2.88,2.98-.49.52-.96,1.06-1.43,1.6-.29.33-.7.57-.34,1.3.28.58,1.68,1.4,1.87,1.1Z"/>
      <path class="cls-1" d="M80.4,80.27c.82-1.67,2.05-3.08,3.24-4.49.52-.61,1.28-1.06,1.79-1.72.52-.67.78-1.56.43-3.18-.01-.05-.14-.18-.15-.16-1.16,1.54-2.5,2.8-3.89,4.11-.74.71-1.52,1.41-2.24,2.17-.37.4-.71.82-1.06,1.24-.21.26-.54.45-.07,1.06.37.48,1.83,1.18,1.94.96Z"/>
      <path class="cls-1" d="M79.03,77.19c1.52-2.72,3.36-5.25,5.1-7.83,1.51-2.24,4.09-4.11,3.25-7.87-.01-.06-.17-.15-.19-.11-1.46,2.68-3.24,5.08-5.12,7.47-1.02,1.27-2.06,2.56-3.09,3.84-.53.67-1.02,1.36-1.53,2.04-.31.42-.74.76-.38,1.53.29.61,1.75,1.31,1.96.94Z"/>
      <path class="cls-1" d="M236.46,137.26c-1.01-.76-1.81-1.74-2.73-2.6-.79-.73-1.01-2.32-3.72-.87-.04.02-.16.16-.14.17,1.17.51,1.99,1.38,2.73,2.37.4.53.74,1.12,1.11,1.68.19.29.4.56.6.84.12.17.14.45.76.05.49-.32,1.53-1.55,1.4-1.65Z"/>
      <path class="cls-1" d="M236.39,134.7c-1.37-.86-2.5-2.02-3.7-3.09-1.05-.94-1.42-2.71-4.43-1.65-.05.02-.17.15-.15.16,1.41.87,2.48,2.01,3.54,3.24.54.66,1.12,1.36,1.68,2.05.3.35.62.67.94,1,.19.21.3.52.93.1.49-.34,1.38-1.69,1.19-1.81Z"/>
      <path class="cls-1" d="M238.22,132.26c-1.87-1.09-3.56-2.44-5.36-3.64-1.55-1.03-2.75-3.06-5.82-1.61-.05.02-.13.18-.11.19,1.96.81,3.63,2.02,5.23,3.36.87.72,1.69,1.51,2.53,2.27.44.39.89.76,1.33,1.14.27.24.46.59,1.12.17.52-.33,1.32-1.74,1.07-1.88Z"/>
      <path class="cls-1" d="M236.9,129.57c-1.35-.75-2.47-1.83-3.62-2.83-1.03-.89-1.32-2.59-4.31-1.53-.05.02-.17.15-.15.16,1.36.85,2.4,1.95,3.44,3.13.56.63,1.09,1.31,1.68,1.95.3.33.63.63.95.94.2.19.32.5.91.04.47-.37,1.28-1.76,1.1-1.86Z"/>
      <path class="cls-1" d="M233.57,127.62l.38.31,1.56-1.81c-1.14-.91-2.15-1.98-3.25-2.94-1.06-.92-1.56-2.71-4.52-1.43-.05.02-.16.16-.14.17,1.47.73,2.59,1.81,3.63,3.02.56.65,1.07,1.36,1.61,2.05.28.36.58.69.87,1.04l.11.15,1.9-2.2c-.12-.18-.28-.31-.79-.02-.52.29-1.54,1.55-1.36,1.68Z"/>
      <path class="cls-1" d="M237.45,124.63c-1.51-1.69-2.81-3.56-4.28-5.28-1.26-1.48-2.01-3.85-5.38-3.23-.05,0-.17.14-.15.16,1.76,1.31,3.13,2.97,4.35,4.76.66.97,1.25,1.99,1.86,2.99.33.52.65,1.02.97,1.54.2.32.27.72,1.04.53.61-.15,1.8-1.24,1.6-1.47Z"/>
      <path class="cls-1" d="M237.29,120.97c-1.45-1.55-2.7-3.27-4.13-4.84-1.22-1.34-1.94-3.59-5.21-2.76-.05.01-.17.15-.15.16,1.7,1.14,3.02,2.66,4.2,4.31.64.89,1.2,1.83,1.78,2.76.31.48.62.94.93,1.42.19.29.26.67,1,.45.59-.17,1.77-1.28,1.57-1.49Z"/>
      <path class="cls-1" d="M235.54,114.47c-1.19-1.51-2.2-3.14-3.44-4.62-1.04-1.25-1.62-3.41-4.77-2.45-.05.02-.17.15-.15.16,1.55.98,2.7,2.38,3.66,3.9.52.82.95,1.7,1.39,2.57.24.45.47.88.7,1.33.14.28.15.63.9.45.59-.14,1.87-1.13,1.71-1.33Z"/>
      <path class="cls-1" d="M234.78,109.05c-1.18-1.52-2.13-3.2-3.27-4.76-.97-1.33-1.33-3.49-4.57-2.9-.05,0-.18.13-.16.15,1.45,1.18,2.49,2.68,3.38,4.29.48.87.89,1.79,1.31,2.69.23.47.46.92.69,1.38.14.28.15.64.9.48.59-.13,1.88-1.11,1.72-1.32Z"/>
      <path class="cls-1" d="M234.04,104.06c-1.23-1.64-2.3-3.39-3.61-4.98-1.1-1.34-1.79-3.6-5-2.69-.05.01-.17.15-.14.16,1.64,1.05,2.87,2.53,3.9,4.15.55.87,1.02,1.81,1.48,2.73.25.48.49.94.73,1.42.15.29.16.66.92.51.6-.12,1.9-1.08,1.73-1.31Z"/>
      <path class="cls-1" d="M233.71,99.14c-1.37-1.77-2.59-3.65-4.05-5.35-1.23-1.44-2.08-3.82-5.39-2.97-.05.01-.16.15-.14.17,1.79,1.15,3.17,2.74,4.34,4.48.63.94,1.18,1.94,1.72,2.93.29.51.57,1.01.85,1.52.17.32.21.71.98.57.61-.11,1.88-1.11,1.69-1.35Z"/>
      <path class="cls-1" d="M231.29,91.84c-1.17-.86-2.13-1.96-3.22-2.92-.94-.83-1.33-2.54-4.13-1.13-.04.02-.15.16-.14.17,1.32.61,2.3,1.59,3.19,2.68.48.59.91,1.24,1.37,1.86.24.32.49.62.73.93.15.19.2.49.83.1.5-.31,1.51-1.57,1.35-1.69Z"/>
      <path class="cls-1" d="M227.24,84.07c-1.15-1.02-2.15-2.2-3.34-3.18-.99-.83-1.7-2.62-4.32-.86-.04.03-.13.18-.11.19,1.4.43,2.49,1.36,3.42,2.43.5.58.93,1.24,1.36,1.87.23.33.45.64.68.96.14.2.16.5.82.16.53-.27,1.65-1.43,1.49-1.57Z"/>
      <path class="cls-1" d="M226.95,79.25c-2.22-1.04-4.29-2.36-6.45-3.52-1.86-1-3.51-3.03-6.62-1.4-.05.03-.12.19-.09.2,2.27.74,4.29,1.92,6.27,3.23,1.06.71,2.09,1.48,3.13,2.23.54.39,1.1.74,1.64,1.12.34.23.6.59,1.25.13.52-.36,1.17-1.85.87-1.99Z"/>
      <path class="cls-1" d="M148.67,42.96c.39-1.09,1.14-1.99,1.79-2.92.59-.85,2-.97.51-3.64-.02-.04-.16-.16-.17-.14-.51,1.16-1.28,2.01-2.15,2.87-.46.46-.98.91-1.45,1.4-.24.25-.46.53-.68.8-.14.16-.4.27.16.75.44.38,1.93,1.01,1.98.87Z"/>
      <path class="cls-1" d="M152.98,42.86c.57-1.32,1.41-2.49,2.1-3.75.59-1.08,2.16-1.84.15-4.24-.03-.04-.19-.11-.2-.09-.29,1.4-1.01,2.57-1.87,3.67-.46.59-.99,1.15-1.49,1.73-.26.3-.49.61-.74.91-.15.19-.43.3.1.83.42.42,1.87,1.12,1.95.94Z"/>
      <path class="cls-1" d="M157.2,42.96c-.09-1.13.22-2.23.42-3.32.19-.99,1.41-1.67-1.07-3.44-.04-.03-.21-.08-.21-.06.04,1.24-.31,2.3-.73,3.42-.23.6-.51,1.2-.73,1.83-.12.32-.2.65-.29.98-.06.2-.25.4.45.61.56.16,2.18.13,2.16-.01Z"/>
      <path class="cls-1" d="M162.55,41.73c-.57-.94-.87-2.02-1.33-3.02-.4-.86.08-2.27-2.93-1.85-.05,0-.21.09-.19.1.82.78,1.18,1.77,1.42,2.83.13.57.18,1.17.27,1.76.05.3.12.59.18.89.03.18-.06.43.65.27.57-.12,2.01-.85,1.93-.98Z"/>
      <path class="cls-1" d="M167.61,40.8c-1.28-.58-2.33-1.54-3.4-2.43-.46-.39-.76-1.01-1.28-1.37-.53-.37-1.28-.48-2.77.02-.05.02-.17.14-.16.15,1.27.83,2.21,1.85,3.2,2.96.53.59,1.05,1.22,1.62,1.8.3.3.62.57.94.85.19.17.33.46.87-.04.43-.4,1.14-1.86.97-1.93Z"/>
      <path class="cls-1" d="M172.03,41.55c-1.34-1.01-2.37-2.35-3.42-3.64-.46-.56-.71-1.32-1.23-1.87-.52-.56-1.31-.9-2.92-.76-.05,0-.2.11-.18.12,1.23,1.25,2.13,2.63,3.05,4.09.5.78.97,1.6,1.52,2.38.28.4.59.78.9,1.16.19.24.29.58.96.21.53-.29,1.51-1.57,1.33-1.71Z"/>
      <path class="cls-1" d="M177.96,43.7c-2.08-1.67-4.12-3.42-6.41-4.84-.98-.61-1.93-1.45-3.07-1.91-1.13-.47-2.45-.56-3.98.37-.05.03-.1.2-.07.21,2.43.59,4.61,1.83,6.57,3.35,1.06.82,2.03,1.75,2.97,2.68.49.48.99.95,1.46,1.45.29.3.47.71,1.23.43.6-.22,1.58-1.51,1.3-1.74Z"/>
      <path class="cls-1" d="M184.2,43.5c-1.82-1.78-3.76-3.25-5.62-4.61-.8-.59-1.46-1.41-2.25-1.99-.8-.6-1.72-.9-3.48-.91-.06,0-.19.11-.17.14,1.69,1.77,3.45,3.18,5.17,4.7.92.81,1.8,1.67,2.61,2.52.42.44.84.87,1.2,1.32.24.28.31.65,1.06.4.6-.19,1.74-1.32,1.49-1.57Z"/>
      <path class="cls-1" d="M142.89,32.27c1.59.46,3.01,1.31,4.45,2.09,1.28.7,1.99,2.35,4.78.77.04-.02.14-.18.12-.18-1.59-.63-2.93-1.55-4.3-2.53-.74-.53-1.46-1.1-2.23-1.62-.4-.27-.81-.5-1.23-.74-.25-.15-.46-.43-.95.15-.39.46-.85,2.01-.64,2.07Z"/>
      <path class="cls-1" d="M146.51,28.93c.98,1.43,2,2.87,3.38,3.96.59.46,1.13,1.13,1.89,1.42.75.29,1.72.19,2.78-.99.03-.04.08-.21.06-.21-1.49-.07-2.81-.92-3.77-2.02-.52-.59-.92-1.29-1.26-1.97-.18-.35-.36-.69-.51-1.05-.1-.22-.04-.5-.77-.33-.58.13-1.95.98-1.81,1.18Z"/>
      <path class="cls-1" d="M152.87,27.42c.14,1.31.04,2.64.2,3.96.13,1.1-.61,2.68,2.46,3.02.05,0,.22-.04.21-.06-.68-1.06-.81-2.28-.72-3.5.05-.66.19-1.31.32-1.95.06-.34.12-.66.18-.99.04-.2.23-.4-.49-.58-.57-.14-2.18-.08-2.16.1Z"/>
      <path class="cls-1" d="M156.31,27.41c-.48,1.42-1.08,2.81-1.34,4.3-.11.64-.45,1.31-.39,2.01.06.69.53,1.41,2,1.91.05.02.22,0,.22-.02-.46-1.28-.28-2.64.19-3.86.25-.67.62-1.29.99-1.89.19-.31.36-.62.56-.92.12-.19.38-.29-.2-.76-.46-.37-1.96-.97-2.02-.77Z"/>
      <path class="cls-1" d="M162.14,28.33c-.87.9-1.94,1.57-2.89,2.38-.42.37-.97.46-1.45,1.07-.22.29-.39.73-.32,1.24.07.52.49,1.06,1.24,1.18.05,0,.22,0,.22-.01-.25-.26-.05-.76.36-1.13.41-.37.95-.71,1.47-1.01.57-.33,1.2-.59,1.8-.89.31-.15.6-.33.91-.49.19-.1.46-.09.14-.75-.25-.52-1.35-1.71-1.47-1.59Z"/>
      <path class="cls-1" d="M168.77,29c-1.22.71-2.58,1.15-3.86,1.74-1.1.52-2.8.18-2.59,3.3,0,.05.09.21.1.19,1.05-.95,2.31-1.45,3.63-1.82.72-.2,1.46-.33,2.2-.49.38-.08.75-.2,1.12-.29.23-.06.52.02.4-.72-.09-.58-.84-2.01-1.01-1.91Z"/>
      <path class="cls-1" d="M174.85,31.29c-2.03.34-4.09.53-6.09,1.07-.86.23-1.85.27-2.71.68-.85.41-1.56,1.2-1.72,2.85,0,.05.08.21.1.2,1.56-1.12,3.41-1.67,5.29-1.91,1.02-.13,2.05-.15,3.06-.15.53,0,1.05-.03,1.57-.02.32,0,.65.16.86-.58.17-.59-.08-2.18-.36-2.14Z"/>
      <path class="cls-1" d="M183.99,33.91c-2.53.03-5.07-.13-7.61.03-2.15.13-4.85-.6-6.41,2.59-.02.05.02.22.05.21,2.28-.77,4.67-.94,7.06-.84,1.29.05,2.57.22,3.84.38.66.08,1.32.16,1.98.24.4.05.79.26,1.18-.44.31-.55.26-2.17-.09-2.17Z"/>
      <path class="cls-1" d="M185.01,39.8c-2.67-.32-5.28-1-7.9-1.57-2.28-.49-4.57-2.08-7.4.19-.04.04-.07.21-.04.22,2.63.25,5.12.92,7.63,1.68,1.34.43,2.7.87,4.05,1.3.7.22,1.42.4,2.13.6.44.12.84.38,1.36-.26.41-.5.53-2.12.17-2.16Z"/>
      <path class="cls-1" d="M169.71,39.77c-1.55-.62-2.87-1.67-4.17-2.68-.56-.44-.97-1.13-1.59-1.56-.62-.44-1.45-.62-3.02-.18-.05.01-.17.14-.15.15,1.45,1.01,2.62,2.19,3.86,3.42.67.66,1.33,1.35,2.06,1.97.38.32.78.62,1.18.91.24.18.44.49.99-.04.43-.41,1.04-1.92.84-2Z"/>
      <path class="cls-1" d="M165.17,40.83c-1.36-1.46-2.55-3.06-3.95-4.49-.62-.63-1.02-1.41-1.88-2.03-.43-.3-1-.52-1.64-.47-.63.04-1.33.45-1.54,1.21-.01.05.02.22.03.22.56-.29,1.44.11,2.07.71.66.61,1.28,1.35,1.84,2.09.61.81,1.14,1.68,1.68,2.54.29.44.56.87.85,1.31.17.27.22.63.95.4.58-.18,1.77-1.28,1.58-1.48Z"/>
      <path class="cls-1" d="M150.28,43.01c1.57-1.56,3.26-3.01,4.69-4.71,1.21-1.42,3.41-2.7,1.92-5.75-.02-.05-.18-.13-.19-.11-.75,1.94-2.06,3.55-3.57,4.94-.81.75-1.71,1.42-2.6,2.07-.46.34-.9.69-1.37,1.01-.29.2-.66.28-.42,1.02.19.59,1.32,1.74,1.54,1.52Z"/>
      <path class="cls-1" d="M144.38,40.32c2.11-1.47,4.5-2.47,6.88-3.41,1.03-.41,2.22-.56,3.3-1,1.08-.44,2.04-1.18,2.79-2.83.02-.05-.03-.22-.07-.21-2.43.96-4.85,1.64-7.33,2.41-1.33.42-2.68.83-4,1.34-.68.27-1.35.57-2.02.88-.41.19-.89.26-.85,1.08.03.64,1.03,1.93,1.31,1.73Z"/>
      <path class="cls-1" d="M143.84,40.3c.2-.57,1.08-1.09,2.08-1.46,1.02-.4,2.07-.72,3.12-1.03.91-.26,1.94-.24,2.89-.52.96-.28,1.84-.86,2.67-2.38.03-.05,0-.22-.03-.22-2.21.58-4.37.9-6.6,1.35-1.2.25-2.39.47-3.63.86-.65.22-1.33.53-2.01,1.07-.4.31-.95.76-.5,1.51.18.29.69.5,1.14.63.46.13.84.24.87.17Z"/>
      <path class="cls-1" d="M150.28,42.49c1.49-1.1,3.14-1.95,4.7-2.95,1.34-.86,3.43-.98,3.11-4.24,0-.05-.11-.19-.13-.18-1.27,1.31-2.8,2.19-4.42,2.96-.87.42-1.79.76-2.69,1.14-.46.2-.91.42-1.37.63-.28.13-.64.13-.48.88.12.59,1.08,1.9,1.28,1.75Z"/>
      <path class="cls-1" d="M156.62,43.59c.66-1.08,1.6-1.94,2.44-2.87.74-.83,2.28-.94,1.01-3.75-.02-.04-.15-.17-.16-.15-.62,1.17-1.53,2-2.55,2.8-.54.43-1.14.82-1.7,1.25-.29.22-.56.47-.83.71-.17.15-.45.21,0,.79.36.46,1.7,1.37,1.78,1.22Z"/>
      <path class="cls-1" d="M161.73,44.69c.24-1.3.9-2.47,1.48-3.64.25-.51.76-.91.97-1.47.21-.56.12-1.29-.73-2.6-.03-.04-.18-.14-.18-.12-.46,1.36-1.19,2.45-1.99,3.6-.43.61-.9,1.22-1.32,1.88-.21.34-.39.69-.58,1.05-.12.22-.37.4.26.8.5.31,2.07.67,2.11.5Z"/>
      <path class="cls-1" d="M145.9,45.29c1.36-1.3,2.92-2.36,4.37-3.57,1.24-1.04,3.32-1.44,2.62-4.64-.01-.05-.14-.18-.15-.16-1.12,1.47-2.55,2.56-4.08,3.55-.83.53-1.7,1-2.56,1.5-.44.26-.86.54-1.3.81-.27.16-.62.21-.38.94.19.57,1.3,1.75,1.49,1.57Z"/>
      <path class="cls-1" d="M141.78,45.64c1.03-1.16,2.27-2.1,3.39-3.18.96-.92,2.77-1.24,1.66-4.21-.02-.05-.15-.17-.16-.15-.79,1.33-1.91,2.29-3.14,3.16-.66.47-1.38.88-2.08,1.32-.36.23-.7.48-1.05.71-.22.14-.53.18-.2.86.26.53,1.44,1.64,1.58,1.48Z"/>
      <path class="cls-1" d="M135.15,45.25c2.16-1.5,4.48-2.73,6.71-4.12,1.92-1.2,4.65-1.7,4.9-5.29,0-.06-.11-.2-.13-.18-1.92,1.69-4.08,2.95-6.35,4.09-1.22.62-2.48,1.17-3.72,1.75-.64.3-1.27.63-1.91.94-.39.19-.85.26-.8,1.07.04.64,1.01,1.94,1.3,1.74Z"/>
      <path class="cls-1" d="M132.29,43.68c1.95-1.54,4.11-2.77,6.2-4.1,1.81-1.16,4.39-1.52,4.68-5.04,0-.06-.1-.2-.12-.18-1.88,1.56-3.96,2.74-6.11,3.85-1.16.58-2.35,1.17-3.53,1.75-.61.31-1.2.65-1.79.98-.37.2-.81.28-.7,1.08.09.63,1.13,1.87,1.39,1.66Z"/>
      <path class="cls-1" d="M128.46,40.44c2.04-.77,4.18-1.25,6.26-1.89,1.79-.56,4.15-.23,4.96-3.53.01-.05-.05-.22-.08-.2-1.87,1.02-3.88,1.56-5.96,1.97-1.12.22-2.25.37-3.38.55-.58.09-1.16.22-1.74.32-.36.06-.75-.01-.85.77-.07.61.52,2.12.79,2.02Z"/>
      <path class="cls-1" d="M128.57,39.46c1.21-.59,2.53-.89,3.79-1.37,1.08-.41,2.68.08,2.67-3.02,0-.05-.07-.21-.09-.2-1.06.84-2.29,1.22-3.58,1.46-.7.13-1.42.19-2.13.28-.37.05-.73.13-1.09.18-.22.04-.5-.06-.43.67.05.58.69,2.07.86,1.99Z"/>
      <path class="cls-1" d="M140.48,32.04c1.55.6,3.06,1.33,4.69,1.74.69.17,1.41.58,2.18.59.77.01,1.6-.37,2.32-1.78.02-.04.02-.22,0-.22-1.5.31-3-.02-4.37-.62-.74-.32-1.43-.76-2.1-1.19-.35-.22-.7-.42-1.04-.66-.21-.14-.34-.41-.85.14-.41.43-1.05,1.92-.83,2Z"/>
      <path class="cls-1" d="M138.84,31.2c-2.55.86-5.27,1.12-7.98,1.41-2.35.25-5.1-.6-7.17,2.43-.03.05,0,.22.03.22,2.64-.57,5.29-.65,8-.73,1.46-.05,2.93-.06,4.42-.19.77-.07,1.53-.17,2.3-.3.47-.07.98-.02,1.19-.82.16-.63-.44-2.14-.78-2.03Z"/>
      <path class="cls-1" d="M143.58,34.07c-2.38-.81-4.6-1.99-6.87-3.07-1.97-.94-3.65-2.94-6.83-1.37-.05.02-.12.19-.09.2,2.35.81,4.47,1.97,6.59,3.22,1.13.68,2.28,1.38,3.42,2.07.6.35,1.21.67,1.82,1,.37.2.69.53,1.31.01.49-.41.96-1.96.64-2.07Z"/>
      <path class="cls-1" d="M150.9,34.43c-2.08-1.78-4.21-3.53-6.65-4.82-1.04-.55-2.1-1.32-3.32-1.66-1.21-.35-2.57-.27-3.94.88-.04.04-.07.21-.04.22,2.49.2,4.83,1.21,6.88,2.61,1.11.75,2.11,1.65,3.06,2.57.49.48.98.94,1.44,1.44.29.31.44.72,1.21.46.61-.2,1.64-1.45,1.35-1.69Z"/>
      <path class="cls-1" d="M155.28,34.61c-1.78-1.6-3.57-3.22-5.63-4.48-.88-.54-1.75-1.29-2.79-1.66-1.04-.37-2.25-.34-3.59.74-.04.03-.09.21-.06.21,2.17.31,4.15,1.35,5.85,2.7.92.73,1.74,1.57,2.52,2.42.4.44.82.87,1.19,1.33.24.28.35.66,1.09.39.59-.21,1.66-1.42,1.42-1.64Z"/>
      <path class="cls-1" d="M156.67,34.73c-.78-1.61-1.31-3.47-2.61-5.08-.54-.68-1.08-1.55-1.98-2.01-.86-.46-2.15-.41-3.03.93-.03.04-.04.22-.02.22.74-.09,1.53.16,2.17.62.65.45,1.17,1.09,1.54,1.8.41.77.64,1.62.86,2.48.12.46.23.9.35,1.35.06.28,0,.62.75.6.6-.01,2.07-.69,1.96-.91Z"/>
      <path class="cls-1" d="M156.99,34.54c.65-1.37,1.7-2.5,2.7-3.62.43-.49,1.1-.8,1.52-1.35.42-.55.6-1.32.22-2.87-.01-.05-.13-.18-.14-.16-.98,1.3-2.13,2.29-3.34,3.34-.65.56-1.33,1.12-1.96,1.74-.33.32-.62.67-.92,1.01-.19.21-.49.36,0,.93.39.45,1.84,1.17,1.93.99Z"/>
      <path class="cls-1" d="M158.25,35.86c1.16-1.21,2.62-2.06,4.03-2.91.61-.37,1.4-.52,2.02-.95.62-.43,1.08-1.16,1.19-2.77,0-.05-.07-.21-.09-.2-1.43,1.03-2.93,1.71-4.51,2.43-.85.39-1.72.75-2.57,1.2-.44.23-.85.49-1.27.76-.26.16-.61.22-.33.93.22.56,1.38,1.68,1.54,1.53Z"/>
      <path class="cls-1" d="M161.88,35.65c1.14-.76,2.43-1.24,3.64-1.89,1.04-.56,2.71-.3,2.3-3.38,0-.05-.1-.2-.11-.19-.96.99-2.15,1.53-3.41,1.95-.68.23-1.4.39-2.1.58-.36.1-.71.23-1.07.33-.22.07-.51,0-.35.73.13.57.96,1.96,1.11,1.86Z"/>
      <path class="cls-1" d="M163.43,36.35c1.91-1.17,3.99-2.02,6.01-2.98,1.76-.83,4.13-.77,4.69-4.16,0-.05-.07-.21-.1-.2-1.85,1.22-3.85,2.03-5.92,2.77-1.11.37-2.26.76-3.39,1.14-.58.2-1.15.44-1.73.66-.35.14-.77.15-.73.93.04.62.91,1.98,1.17,1.83Z"/>
      <path class="cls-1" d="M164.98,37.43c2.41-1.08,4.97-1.78,7.49-2.56,2.19-.68,4.9-.37,6.3-3.7.02-.05-.04-.22-.07-.21-2.41,1.01-4.88,1.62-7.42,2.18-1.36.29-2.75.58-4.12.88-.71.16-1.41.36-2.12.55-.43.11-.91.1-1.02.91-.09.64.64,2.09.96,1.95Z"/>
      <path class="cls-1" d="M171.38,37.91c2.15-.74,4.43-.96,6.68-1.11.98-.07,2.02.16,3.04.08,1.03-.08,2.04-.48,3.16-1.81.04-.04.04-.22,0-.22-2.34.14-4.58.03-6.9,0-1.25-.02-2.52-.04-3.79.04-.66.04-1.31.13-1.97.22-.4.05-.84-.02-.99.77-.11.62.47,2.13.76,2.03Z"/>
      <path class="cls-1" d="M174.05,39.44c2.32-.41,4.69-.46,7.04-.64,2.04-.16,4.37.73,6.17-2.25.03-.05,0-.22-.03-.22-2.27.5-4.54.56-6.85.52-1.24-.02-2.49-.11-3.75-.14-.65-.02-1.29,0-1.94,0-.4,0-.81-.14-1.07.61-.21.59.11,2.18.43,2.13Z"/>
      <path class="cls-1" d="M172.79,40.47c2.17,1.38,4.22,2.93,6.44,4.25,1.88,1.13,3.68,3.27,6.83,1.6.05-.03.11-.19.08-.2-2.35-.72-4.44-1.97-6.4-3.42-1.06-.78-2.05-1.65-3.05-2.5-.52-.44-1.04-.87-1.56-1.31-.32-.27-.54-.66-1.25-.29-.57.29-1.4,1.68-1.1,1.87Z"/>
      <path class="cls-1" d="M176.26,39.21c2.09,1.4,3.99,3.04,6.01,4.54,1.74,1.29,3.11,3.59,6.47,2.46.05-.02.15-.17.12-.19-2.18-1.11-4.06-2.6-5.86-4.23-.97-.88-1.9-1.81-2.84-2.72-.49-.47-1-.92-1.5-1.38-.31-.28-.52-.68-1.24-.33-.57.28-1.43,1.65-1.15,1.84Z"/>
      <path class="cls-1" d="M179.65,39.71c1.93.88,3.72,2.03,5.59,3.02,1.61.85,2.98,2.73,5.85.96.05-.03.12-.19.09-.2-1.99-.58-3.74-1.6-5.44-2.76-.91-.62-1.79-1.31-2.69-1.97-.46-.34-.94-.65-1.41-.99-.29-.2-.5-.53-1.12-.05-.48.38-1.14,1.86-.88,1.98Z"/>
      <path class="cls-1" d="M180.19,36.82c2.24.36,4.31,1.39,6.23,2.54.84.5,1.54,1.3,2.39,1.85.86.56,1.88.87,3.62.6.06,0,.17-.14.15-.16-1.92-1.45-3.67-2.93-5.63-4.3-1.05-.73-2.14-1.46-3.31-2.06-.61-.31-1.24-.57-1.88-.81-.39-.16-.76-.43-1.28.19-.4.49-.59,2.1-.29,2.15Z"/>
      <path class="cls-1" d="M181.01,35.41c2.35.72,4.49,1.98,6.56,3.28.9.56,1.67,1.41,2.61,2,.95.59,2.06.92,3.81.56.06-.01.16-.15.14-.17-2.1-1.39-3.99-2.91-6.01-4.4-1.08-.8-2.18-1.61-3.35-2.33-.6-.37-1.23-.71-1.87-1.03-.38-.21-.73-.53-1.34,0-.48.43-.88,2-.57,2.09Z"/>
      <path class="cls-1" d="M193.55,42.47c1.02.85,1.73,1.99,2.46,3.07.32.47.42,1.11.81,1.57.39.46,1.06.75,2.62.65.05,0,.21-.09.19-.1-.96-1.08-1.55-2.26-2.16-3.53-.33-.68-.63-1.4-1-2.08-.19-.35-.42-.69-.64-1.03-.13-.21-.17-.52-.83-.16-.52.28-1.59,1.49-1.46,1.6Z"/>
      <path class="cls-1" d="M198.01,46.09c1.22.75,2.06,1.98,2.78,3.18.32.53.37,1.22.69,1.76.33.56.94.98,2.5,1.35.05.01.22-.03.21-.05-.72-1.5-1.22-2.93-1.89-4.42-.36-.8-.75-1.61-1.26-2.38-.26-.39-.57-.76-.89-1.12-.19-.22-.32-.56-.95-.13-.49.34-1.35,1.71-1.2,1.8Z"/>
      <path class="cls-1" d="M200.7,48.74c.96,1.76,1.45,3.74,1.92,5.67.2.84.12,1.79.36,2.66.24.88.79,1.69,2.29,2.47.05.02.22,0,.22-.03-.53-2.02-.76-4-1.04-6.05-.16-1.1-.3-2.22-.53-3.33-.12-.58-.29-1.14-.46-1.71-.1-.35-.08-.76-.86-.74-.62.01-2.02.82-1.9,1.05Z"/>
      <path class="cls-1" d="M201.93,49.08c1.42,1.7,2.23,3.83,2.8,5.94.25.92.18,1.96.39,2.93.2.98.69,1.9,2.08,2.98.04.03.22.03.22,0-.26-2.38-.44-4.64-.9-6.97-.25-1.25-.55-2.52-1.01-3.75-.24-.64-.53-1.25-.86-1.86-.19-.38-.29-.83-1.08-.7-.62.11-1.82,1.21-1.63,1.43Z"/>
      <path class="cls-1" d="M202.3,56.84c-.38-2.32-.69-4.66-1.4-6.91-.3-.96-.44-2.08-.96-3.04-.51-.95-1.41-1.73-3.11-1.86-.05,0-.2.09-.19.12,1.36,1.7,2.11,3.76,2.5,5.87.21,1.14.29,2.31.35,3.45.03.59.07,1.18.08,1.77,0,.37-.15.73.6.98.59.2,2.18-.07,2.13-.39Z"/>
      <path class="cls-1" d="M199.75,57.54c-.79-2.67-1.4-5.39-2.31-8.03-.77-2.25-.85-5.25-4.41-6.14-.06-.01-.21.07-.19.1,1.42,2.24,2.29,4.72,2.91,7.28.34,1.38.56,2.79.79,4.18.12.73.25,1.44.37,2.16.07.45,0,.91.78,1.13.63.17,2.16-.34,2.05-.71Z"/>
      <path class="cls-1" d="M196.8,53.73c-.85-2.62-1.62-5.28-2.79-7.79-.5-1.08-.85-2.34-1.57-3.39-.71-1.05-1.77-1.88-3.58-1.97-.06,0-.2.11-.17.14,1.75,1.9,2.93,4.2,3.76,6.62.45,1.31.77,2.66,1.06,3.99.15.69.32,1.38.45,2.08.08.43,0,.88.8,1.07.63.15,2.15-.39,2.04-.75Z"/>
      <path class="cls-1" d="M194.05,52.16c-1.23-2.27-2.41-4.58-3.97-6.66-.67-.89-1.23-1.99-2.1-2.8-.86-.81-2.04-1.33-3.76-.96-.05.01-.16.15-.14.17,2,1.32,3.53,3.2,4.73,5.25.65,1.11,1.17,2.28,1.66,3.46.25.61.52,1.2.75,1.82.15.38.14.81.94.82.64.02,2.04-.78,1.88-1.09Z"/>
      <path class="cls-1" d="M190.21,50.16c-1.5-1.43-2.73-3.12-4.05-4.71-1.15-1.39-1.57-3.58-4.91-3.2-.05,0-.19.12-.17.14,1.54,1.38,2.72,3,3.84,4.71.58.92,1.18,1.87,1.78,2.81.31.48.66.94.99,1.42.2.29.3.67,1.04.42.58-.2,1.68-1.39,1.48-1.58Z"/>
      <path class="cls-1" d="M198.89,50.04c-2.51-1.1-4.88-2.48-7.33-3.7-2.11-1.05-4.08-3.16-7.35-1.54-.05.03-.11.19-.08.2,2.54.8,4.85,2.03,7.11,3.41,1.22.74,2.4,1.55,3.6,2.33.62.4,1.26.78,1.88,1.17.39.24.7.61,1.38.15.54-.36,1.13-1.87.79-2.02Z"/>
      <path class="cls-1" d="M198.87,47.46c-2.79-1.66-5.54-3.42-8.48-4.84-2.49-1.21-5.19-3.42-8.61-1.53-.05.03-.09.21-.05.21,3.01.62,5.81,1.88,8.45,3.44,1.42.84,2.77,1.79,4.11,2.75.69.5,1.39.98,2.06,1.49.42.31.74.75,1.52.4.62-.27,1.37-1.71.99-1.93Z"/>
      <path class="cls-1" d="M201.46,46.7c-2.94-2.3-5.95-4.55-9.28-6.3-1.42-.75-2.89-1.72-4.52-2.26-1.62-.55-3.4-.66-5.21.31-.06.03-.08.21-.04.22,3.43.6,6.65,2.04,9.58,3.9,1.58,1.01,3.06,2.16,4.48,3.36.74.62,1.48,1.23,2.17,1.89.44.4.75.91,1.62.71.69-.16,1.6-1.5,1.2-1.81Z"/>
      <path class="cls-1" d="M207.09,51.05c-3.07-2.76-6.27-5.42-9.83-7.55-1.53-.92-3.1-2.05-4.86-2.76-1.75-.71-3.69-.98-5.7-.15-.06.03-.1.2-.05.22,3.75.89,7.23,2.66,10.37,4.89,1.7,1.2,3.27,2.56,4.77,3.96.78.73,1.56,1.45,2.3,2.22.46.47.78,1.04,1.71.93.73-.08,1.71-1.38,1.29-1.75Z"/>
      <path class="cls-1" d="M215.23,60.35c-3.41-2.23-6.94-4.25-10.64-5.87-3.17-1.4-6.51-3.75-10.54-2.15-.06.03-.1.2-.05.21,3.72.95,7.25,2.36,10.62,4.13,1.82.95,3.55,2.04,5.23,3.17.87.59,1.74,1.17,2.57,1.8.52.38.91.89,1.8.63.7-.2,1.48-1.62,1.01-1.93Z"/>
      <path class="cls-1" d="M215.16,59.7c-1.95-1.6-3.84-3.28-5.97-4.67-.91-.59-1.79-1.42-2.85-1.88-1.06-.46-2.31-.56-3.81.35-.05.03-.11.2-.08.21,2.29.6,4.31,1.83,6.13,3.31.98.8,1.87,1.7,2.75,2.6.45.47.91.92,1.35,1.4.27.29.43.69,1.17.4.59-.23,1.59-1.5,1.33-1.72Z"/>
      <path class="cls-1" d="M220.65,65.36c-1.85-2.06-3.69-4.16-5.84-5.93-.92-.76-1.8-1.74-2.91-2.37-1.11-.63-2.44-.89-4.09-.16-.05.02-.12.19-.09.2,2.42.89,4.5,2.44,6.3,4.26.97.98,1.83,2.07,2.65,3.16.43.57.86,1.12,1.26,1.7.25.35.37.8,1.17.65.64-.12,1.81-1.23,1.55-1.51Z"/>
      <path class="cls-1" d="M220.18,67.03c-2.48-1.47-4.78-3.21-7.19-4.8-2.07-1.36-3.88-3.77-7.43-2.62-.06.02-.14.18-.1.19,2.54,1.17,4.79,2.75,6.99,4.47,1.18.92,2.32,1.91,3.48,2.87.6.5,1.22.97,1.82,1.45.37.3.66.71,1.41.35.59-.29,1.35-1.72,1.02-1.92Z"/>
      <path class="cls-1" d="M223.72,71.83c-2.46-1.88-4.9-3.82-7.59-5.39-1.15-.67-2.3-1.58-3.63-2.11-1.32-.53-2.81-.67-4.48.23-.05.03-.1.2-.06.21,2.82.69,5.4,2.07,7.76,3.75,1.27.91,2.45,1.93,3.6,2.97.6.54,1.2,1.06,1.78,1.62.36.34.6.79,1.4.52.63-.21,1.56-1.54,1.22-1.79Z"/>
      <path class="cls-1" d="M217.79,63.83c-1.97-1.24-4.12-2.24-6.46-2.53-.99-.12-2.09-.4-3.16-.18-1.05.21-2.06.93-2.38,2.57,0,.05.06.22.08.2,1.69-1.01,3.81-1.08,5.68-.54,1.01.29,1.95.77,2.8,1.32.44.29.88.56,1.27.9.25.2.37.52,1.03.11.52-.32,1.42-1.67,1.14-1.84Z"/>
      <path class="cls-1" d="M218.31,61.5c-2.45-.85-4.89-1.73-7.39-2.29-2.14-.48-4.44-1.93-6.93.59-.04.04-.05.22-.02.22,2.44,0,4.79.51,7.08,1.27,1.23.41,2.42.93,3.58,1.47.6.28,1.2.54,1.79.83.36.18.65.5,1.25-.03.48-.42.99-1.95.65-2.07Z"/>
      <path class="cls-1" d="M222.26,70.98c-1.94-.72-3.76-1.73-5.65-2.56-1.63-.72-3.08-2.48-5.78-.49-.04.03-.1.2-.07.21,1.98.42,3.76,1.3,5.49,2.31.93.55,1.83,1.16,2.75,1.75.47.3.96.58,1.44.87.29.18.52.49,1.09-.04.45-.42,1-1.94.74-2.04Z"/>
      <path class="cls-1" d="M226.42,74.66c-2.19-1.2-4.34-2.49-6.67-3.42-1-.4-2.01-1.03-3.13-1.27-1.12-.24-2.35-.08-3.62,1.12-.04.04-.06.21-.03.22,2.33.11,4.53.9,6.56,1.99,1.1.59,2.13,1.29,3.14,2.01.52.37,1.05.72,1.56,1.11.32.23.53.59,1.21.17.54-.33,1.29-1.76.99-1.93Z"/>
      <path class="cls-1" d="M226.57,76.61c-2.4-1.15-4.7-2.49-7.13-3.59-2.07-.94-4.16-2.91-7.19-.95-.05.03-.09.2-.06.21,2.49.5,4.79,1.55,6.98,2.81,1.18.68,2.32,1.44,3.45,2.2.59.39,1.18.77,1.77,1.15.36.24.64.61,1.32.16.54-.35,1.19-1.83.86-1.99Z"/>
      <path class="cls-1" d="M228.3,82.97c-1.18-1.3-2.27-2.7-3.62-3.84-.58-.49-1.07-1.19-1.8-1.57-.72-.37-1.67-.41-2.97.53-.04.03-.12.19-.1.2,1.56.41,2.84,1.42,3.87,2.62.56.65,1.02,1.38,1.46,2.1.23.37.47.73.68,1.1.14.23.14.54.85.29.56-.2,1.8-1.24,1.63-1.42Z"/>
      <path class="cls-1" d="M229.55,85.21c-1.81-1-3.53-2.16-5.4-3.05-1.57-.75-3.2-2.51-5.7-.29-.04.03-.08.21-.06.21,1.94.23,3.7,1.04,5.32,2.08.88.56,1.69,1.22,2.5,1.86.42.34.85.65,1.26.99.25.21.42.54,1.05.09.5-.35,1.29-1.76,1.04-1.9Z"/>
      <path class="cls-1" d="M232.56,88.63c-1.8-1.63-3.67-3.22-5.86-4.33-.93-.47-1.88-1.16-2.98-1.41-1.09-.26-2.32-.08-3.48,1.18-.04.04-.05.22-.02.22,2.18-.02,4.27.81,6.04,2.03.96.66,1.82,1.45,2.61,2.27.41.43.82.84,1.19,1.29.24.27.34.65,1.08.38.59-.21,1.68-1.4,1.43-1.63Z"/>
      <path class="cls-1" d="M231.97,90.88c-1.34-1.06-2.57-2.26-4.02-3.2-.62-.4-1.17-1.03-1.91-1.32-.74-.28-1.66-.21-2.85.84-.04.03-.1.2-.08.2,1.57.26,2.92,1.1,4.07,2.15.62.57,1.17,1.22,1.7,1.86.28.33.57.64.83.98.17.21.22.51.88.15.52-.29,1.57-1.52,1.38-1.66Z"/>
      <path class="cls-1" d="M228.53,93.57c-.65-2.29-1-4.66-1.52-6.99-.45-2,.02-4.52-3.24-5.75-.05-.02-.22.04-.21.06.91,2.14,1.33,4.38,1.62,6.67.15,1.23.23,2.48.34,3.72.06.64.15,1.28.22,1.92.04.39-.06.81.72,1,.61.15,2.16-.33,2.07-.64Z"/>
      <path class="cls-1" d="M231.59,97.34c-.62-2.44-1-4.94-1.63-7.38-.53-2.09-.24-4.8-3.61-5.89-.05-.02-.22.05-.2.08,1.09,2.16,1.66,4.48,2.02,6.86.2,1.28.3,2.58.42,3.87.07.67.14,1.33.21,2,.04.41-.07.84.71,1.06.61.17,2.17-.27,2.08-.6Z"/>
      <path class="cls-1" d="M232.96,103.89c-.13-2.77-.29-5.55-.95-8.26-.28-1.16-.41-2.47-.94-3.64-.53-1.16-1.47-2.16-3.24-2.49-.06-.01-.21.08-.19.11,1.46,2.09,2.24,4.56,2.57,7.08.18,1.36.19,2.73.16,4.08-.02.7-.02,1.39-.07,2.09-.03.43-.22.84.5,1.22.57.31,2.18.19,2.16-.19Z"/>
      <path class="cls-1" d="M231.18,104.5c-.44-1.86-.66-3.77-1.15-5.63-.41-1.57-.02-3.76-3.27-4.24-.05,0-.21.06-.2.08.98,1.55,1.42,3.29,1.64,5.08.12.96.14,1.95.17,2.91.02.51.05,1,.07,1.5.01.31-.13.63.62.78.59.12,2.17-.23,2.11-.49Z"/>
      <path class="cls-1" d="M231.69,113.93c-.55-3.48-.78-7.01-1.21-10.52-.36-3.03.24-6.57-3-9.11-.05-.04-.23,0-.21.05.82,3.34,1.14,6.7,1.32,10.11.1,1.84.12,3.69.17,5.53.04.96.09,1.91.13,2.87.02.59-.09,1.19.68,1.61.61.33,2.19-.07,2.11-.54Z"/>
      <path class="cls-1" d="M233.79,119.51c.11-2.23.29-4.48.07-6.72-.1-.96,0-2.03-.3-3.02-.3-.98-1.01-1.88-2.65-2.29-.05-.01-.22.05-.21.08.97,1.82,1.27,3.89,1.21,5.93-.03,1.1-.2,2.2-.38,3.27-.1.56-.17,1.11-.29,1.65-.07.34-.29.64.39,1.03.54.31,2.15.39,2.16.08Z"/>
      <path class="cls-1" d="M225.75,92.17c-1.96-2.32-3.63-4.83-5.13-7.37-.65-1.1-1.04-2.4-1.65-3.56-.61-1.17-1.45-2.18-3.15-3.08-.05-.03-.22.03-.21.07,1.09,2.86,2.28,5.53,3.65,8.2.74,1.43,1.49,2.87,2.31,4.25.42.72.88,1.41,1.32,2.11.27.43.43.94,1.27.86.67-.06,1.84-1.18,1.58-1.49Z"/>
      <path class="cls-1" d="M227.18,95.71c-.58-2.31-1.15-4.64-2.15-6.82-.43-.93-.72-2.04-1.37-2.93-.65-.88-1.66-1.54-3.37-1.4-.05,0-.19.12-.17.14,1.61,1.47,2.66,3.43,3.31,5.49.35,1.11.56,2.26.73,3.4.09.59.19,1.17.25,1.76.04.36-.08.74.69.92.61.15,2.17-.25,2.09-.57Z"/>
      <path class="cls-1" d="M228.03,91.7c-.68-1.97-1.19-4.01-2.01-5.94-.68-1.63-.75-4.04-4.1-4.04-.05,0-.2.1-.18.12,1.31,1.46,2.1,3.26,2.63,5.13.28,1.01.46,2.05.63,3.08.09.53.2,1.06.28,1.59.05.33-.05.68.72.78.61.08,2.14-.44,2.05-.71Z"/>
      <path class="cls-1" d="M223.11,81.89c-1.47-1.26-2.65-2.81-3.87-4.3-1.08-1.31-1.32-3.36-4.62-3.06-.05,0-.19.11-.17.13,1.41,1.37,2.48,2.93,3.54,4.55.57.88,1.11,1.79,1.71,2.67.31.45.65.88.98,1.32.2.27.31.64,1.02.33.56-.24,1.6-1.48,1.4-1.65Z"/>
      <path class="cls-1" d="M222.28,76.33c-2.28-1.18-4.22-2.89-6.04-4.67-.79-.77-1.4-1.8-2.21-2.62-.82-.83-1.85-1.44-3.67-1.55-.06,0-.2.11-.17.14,1.78,1.95,3.35,3.94,5.1,5.91.94,1.05,1.91,2.11,2.97,3.08.55.5,1.13.97,1.73,1.42.36.29.66.68,1.37.26.56-.33,1.22-1.81.92-1.97Z"/>
      <path class="cls-1" d="M220.35,70.58c-1.86-1.58-3.64-3.26-5.65-4.66-.86-.6-1.68-1.43-2.69-1.91-1.01-.48-2.22-.6-3.73.26-.05.03-.11.19-.08.2,2.19.65,4.11,1.91,5.81,3.4.92.8,1.76,1.7,2.57,2.6.42.47.86.91,1.27,1.39.25.29.39.68,1.13.4.59-.22,1.62-1.47,1.37-1.68Z"/>
      <path class="cls-1" d="M219.46,71.54c-2.04-1.55-3.98-3.24-6.12-4.66-1.81-1.21-3.58-3.42-6.74-1.78-.05.03-.12.19-.09.2,2.31.74,4.34,2.04,6.2,3.57,1,.82,1.93,1.74,2.84,2.65.47.47.96.92,1.43,1.4.29.29.47.69,1.21.38.59-.24,1.54-1.55,1.26-1.76Z"/>
      <path class="cls-1" d="M214.11,66.13c-1.54-1.88-3.27-3.65-5.41-4.87-.91-.52-1.84-1.23-2.95-1.49-1.09-.26-2.34-.06-3.43,1.25-.03.04-.04.22-.02.22,2.11-.12,4.19.73,5.84,2.02.9.69,1.66,1.54,2.33,2.41.35.45.7.89.99,1.37.19.29.22.66.99.49.61-.13,1.87-1.13,1.65-1.4Z"/>
      <path class="cls-1" d="M231.8,106.66c-1.04-2.61-1.97-5.28-3.24-7.8-1.07-2.13-1.67-5.16-5.34-5.4-.06,0-.2.11-.17.14,1.8,1.95,3.06,4.28,4.01,6.73.52,1.32.91,2.69,1.29,4.05.2.71.41,1.4.59,2.11.11.43.07.91.88,1.05.64.12,2.12-.53,1.98-.89Z"/>
      <path class="cls-1" d="M231.8,111.85c-.69-2.75-1.16-5.65-2.45-8.39-.55-1.16-1.05-2.52-2.02-3.57-.94-1.03-2.4-1.72-4.13-1.14-.05.02-.14.18-.11.19,2.34,1.11,3.91,3.48,4.72,5.95.45,1.35.69,2.76.88,4.17.1.73.22,1.47.3,2.21.05.46-.04.94.74,1.2.62.21,2.17-.25,2.08-.62Z"/>
      <path class="cls-1" d="M232.02,123.06c-.17-3.27-.47-6.55-1.37-9.72-.39-1.36-.65-2.88-1.33-4.23-.68-1.34-1.78-2.49-3.67-2.87-.06-.01-.2.09-.18.13,1.83,2.39,2.91,5.27,3.45,8.21.29,1.59.4,3.21.42,4.8.01.83.04,1.65,0,2.47-.01.51-.2.99.52,1.44.57.36,2.18.21,2.16-.24Z"/>
      <path class="cls-1" d="M231.12,124.84c-.13-2.21-.18-4.43-.63-6.62-.19-.93-.2-2-.61-2.94-.4-.94-1.2-1.74-2.86-1.97-.05,0-.21.07-.2.1,1.14,1.69,1.65,3.69,1.81,5.7.08,1.09.03,2.18-.04,3.25-.04.56-.06,1.11-.12,1.66-.03.34-.22.66.49.97.57.25,2.18.16,2.16-.15Z"/>
      <path class="cls-1" d="M230.58,125.96c-.36-1.67-.66-3.37-1.37-4.95-.3-.67-.44-1.51-.95-2.13-.5-.62-1.36-1.01-2.89-.6-.05.01-.18.13-.16.14,1.24.89,1.96,2.28,2.32,3.72.2.78.26,1.59.29,2.38.02.41.05.81.05,1.21,0,.25-.16.5.58.62.58.1,2.18-.17,2.13-.41Z"/>
      <path class="cls-1" d="M233.43,129.38c-.38-2.27-.6-4.57-1.16-6.82-.46-1.89-.21-4.49-3.59-5.18-.05-.01-.21.07-.2.09,1.14,1.85,1.7,3.94,1.97,6.07.15,1.15.18,2.31.2,3.47.01.6.05,1.19.05,1.78,0,.37-.15.74.6.98.59.2,2.18-.08,2.13-.39Z"/>
      <path class="cls-1" d="M238.21,128.1c-.93-2.28-1.69-4.63-2.75-6.86-.89-1.89-1.2-4.61-4.71-4.79-.05,0-.2.1-.18.13,1.54,1.75,2.56,3.84,3.32,6.02.41,1.18.72,2.39,1.02,3.6.16.62.34,1.24.48,1.86.09.38.04.81.83.9.63.08,2.11-.56,1.99-.87Z"/>
      <path class="cls-1" d="M235.19,129.72c-.25-2.36-.41-4.74-.98-7.06-.24-.99-.31-2.13-.76-3.12-.45-.99-1.29-1.84-2.99-2.09-.05,0-.21.08-.19.1,1.25,1.81,1.87,3.94,2.13,6.1.14,1.17.15,2.35.14,3.51,0,.6,0,1.2-.03,1.8-.01.37-.19.73.54,1.03.58.24,2.19.06,2.15-.26Z"/>
      <path class="cls-1" d="M237.76,134.63c-.32-2.56-.48-5.15-.98-7.7-.41-2.16-.08-4.99-3.48-6.11-.05-.02-.22.05-.2.08,1.1,2.18,1.61,4.57,1.83,6.98.12,1.3.12,2.62.11,3.92,0,.68.02,1.35,0,2.02,0,.41-.17.83.57,1.14.59.25,2.19.01,2.14-.34Z"/>
      <path class="cls-1" d="M237.05,140.73c0-1.5.22-3,.19-4.51-.02-1.26.87-2.92-2.16-3.76-.05-.01-.22.02-.22.04.57,1.32.59,2.72.38,4.11-.11.75-.32,1.49-.51,2.22-.09.39-.18.75-.27,1.13-.06.23-.27.44.43.71.55.21,2.16.28,2.16.07Z"/>
      <path class="cls-1" d="M235.21,138.4c-.65-1.29-.96-2.7-1.4-4.06-.39-1.19.22-2.77-2.89-3.17-.05,0-.22.05-.21.07.76,1.27,1.07,2.62,1.3,4.05.12.77.18,1.56.29,2.34.06.4.15.8.22,1.2.04.25-.04.54.7.48.59-.05,2.06-.72,1.97-.9Z"/>
      <path class="cls-1" d="M240.32,139.51c-.53-1.8-.81-3.66-1.32-5.47-.43-1.54-.03-3.66-3.27-4.15-.05,0-.22.06-.2.08.96,1.54,1.41,3.26,1.66,5.02.14.95.19,1.92.25,2.88.05.5.09.99.13,1.48.02.31-.1.63.66.74.6.09,2.15-.35,2.08-.6Z"/>
      <path class="cls-1" d="M237.84,123.23c-1.31-2-2.34-4.15-3.54-6.22-1.03-1.78-1.32-4.32-4.81-4.53-.06,0-.2.1-.18.12,1.51,1.77,2.58,3.78,3.53,5.89.51,1.13.96,2.3,1.44,3.45.25.6.52,1.18.78,1.77.16.36.19.79.98.74.63-.04,1.96-.96,1.79-1.23Z"/>
      <path class="cls-1" d="M238.31,120.2c-.8-2.44-1.6-4.91-2.84-7.19-.53-.97-.94-2.13-1.7-3.05-.76-.91-1.86-1.57-3.61-1.38-.05,0-.18.13-.16.15,1.83,1.51,3.1,3.55,3.98,5.72.48,1.18.81,2.4,1.09,3.62.15.63.31,1.25.42,1.89.08.39,0,.8.78.96.62.13,2.15-.4,2.04-.74Z"/>
      <path class="cls-1" d="M236.49,115.19c-.54-3.15-1.16-6.3-2.31-9.3-.49-1.29-.86-2.75-1.62-4.01-.76-1.25-1.91-2.29-3.8-2.54-.06,0-.2.11-.17.14,1.94,2.23,3.2,4.95,3.98,7.79.42,1.53.68,3.1.87,4.66.1.81.21,1.61.26,2.42.04.5-.09,1,.68,1.35.61.28,2.19-.06,2.11-.49Z"/>
      <path class="cls-1" d="M234.66,104.84c-.88-2.13-1.61-4.33-2.63-6.41-.85-1.76-1.14-4.34-4.58-4.36-.05,0-.2.11-.18.13,1.49,1.6,2.47,3.54,3.19,5.57.39,1.1.67,2.24.95,3.36.14.58.31,1.16.45,1.74.09.36.02.76.81.83.62.06,2.11-.57,1.99-.87Z"/>
      <path class="cls-1" d="M231.59,95.02c-.73-1.98-1.32-4.02-2.24-5.93-.4-.82-.63-1.81-1.21-2.59-.57-.78-1.49-1.35-3.16-1.22-.05,0-.19.12-.17.13,1.42,1.37,2.33,3.12,2.94,4.97.33,1,.55,2.03.75,3.05.11.53.23,1.05.32,1.58.06.33-.03.68.74.76.61.06,2.13-.48,2.03-.75Z"/>
      <path class="cls-1" d="M230.93,85.46c-.74-1.47-1.32-3.03-2.18-4.44-.37-.61-.58-1.39-1.11-1.94-.53-.55-1.37-.86-2.89-.42-.05.01-.18.14-.16.15,1.26.88,2.08,2.17,2.64,3.56.3.75.51,1.55.7,2.33.1.4.23.8.32,1.2.06.25-.03.54.72.48.59-.04,2.06-.71,1.96-.92Z"/>
      <g>
        <path class="cls-1" d="M80.18,122.47c1.19-1.39,2.72-2.44,4.21-3.47.65-.45,1.49-.68,2.14-1.18.66-.51,1.14-1.29,1.22-2.94,0-.05-.09-.21-.11-.19-1.51,1.17-3.11,2.02-4.77,2.93-.89.49-1.81.96-2.69,1.51-.46.29-.89.61-1.32.92-.27.19-.63.3-.33,1,.24.56,1.48,1.6,1.64,1.42Z"/>
        <path class="cls-1" d="M79.19,116.77c1.56-.49,3.19-.77,4.75-1.3,1.31-.45,3.29-.14,3.27-3.33,0-.05-.08-.21-.1-.19-1.2,1-2.66,1.49-4.17,1.75-.81.14-1.65.19-2.47.25-.43.04-.84.07-1.27.11-.26.02-.54-.11-.61.64-.05.59.38,2.15.6,2.08Z"/>
        <path class="cls-1" d="M78.71,112.76c1.47-.18,2.96-.2,4.42-.55.62-.15,1.36-.09,1.97-.41.61-.32,1.09-1.01,1.02-2.56,0-.05-.08-.21-.1-.2-1.03.9-2.35,1.24-3.67,1.3-.72.03-1.44-.05-2.14-.13-.36-.04-.72-.06-1.08-.11-.22-.03-.43-.21-.61.51-.14.57-.02,2.18.18,2.16Z"/>
        <path class="cls-1" d="M78.27,109.55c1.51-.3,3.05-.35,4.57-.64,1.28-.24,3.06.4,3.5-2.72,0-.05-.05-.22-.07-.21-1.28.76-2.7,1-4.15,1.03-.78.02-1.57-.05-2.35-.11-.41-.02-.8-.04-1.21-.05-.25-.01-.5-.18-.64.56-.11.58.15,2.18.35,2.14Z"/>
        <path class="cls-1" d="M78.25,107.62c1.88-.34,3.8-.52,5.66-1.04.79-.22,1.72-.25,2.52-.65.79-.4,1.43-1.17,1.52-2.79,0-.05-.08-.21-.1-.19-1.43,1.08-3.14,1.6-4.88,1.82-.94.12-1.9.13-2.84.13-.49,0-.97.02-1.45.01-.3,0-.6-.16-.79.58-.15.59.11,2.18.37,2.13Z"/>
        <path class="cls-1" d="M79.72,103.7c1.71-.14,3.44-.2,5.11-.66.71-.19,1.56-.21,2.26-.6.69-.39,1.22-1.17,1.09-2.75,0-.05-.1-.2-.11-.19-1.11,1.07-2.61,1.56-4.11,1.71-.81.08-1.64.02-2.43-.05-.41-.04-.82-.06-1.22-.12-.25-.03-.49-.22-.71.5-.18.57-.11,2.18.13,2.16Z"/>
        <path class="cls-1" d="M80.38,101.16c1.68-.29,3.46-.3,5.25-.83.75-.22,1.68-.3,2.43-.82.73-.5,1.25-1.49.7-2.98-.02-.05-.15-.17-.16-.15-.78,1.33-2.35,1.98-3.89,2.14-.84.1-1.71.05-2.56,0-.46-.02-.89-.04-1.34-.06-.28-.02-.56-.18-.74.56-.14.58.1,2.18.33,2.14Z"/>
        <path class="cls-1" d="M81.67,96.58c1.44-.4,2.95-.46,4.42-.65,1.29-.17,2.8.7,3.78-2.3.02-.05,0-.22-.03-.22-1.43.53-2.87.61-4.36.58-.8-.01-1.62-.09-2.43-.12-.42-.02-.84,0-1.26,0-.26,0-.54-.14-.63.61-.07.59.32,2.16.51,2.1Z"/>
        <path class="cls-1" d="M81.02,93.46c1.5-.27,3.02-.1,4.52.02.65.05,1.31.38,1.99.38.69,0,1.42-.34,2.38-1.61.03-.04.06-.22.04-.22-1.61.05-3.08-.25-4.63-.57-.83-.18-1.67-.39-2.53-.53-.45-.07-.89-.11-1.34-.15-.28-.03-.57-.19-.74.54-.13.58.13,2.18.32,2.14Z"/>
        <path class="cls-1" d="M82.56,90.84c1.26-.23,2.55-.03,3.8.09.55.05,1.09.38,1.67.38.59,0,1.21-.35,2.11-1.62.03-.04.06-.21.04-.21-1.39.07-2.64-.22-3.95-.56-.71-.18-1.42-.41-2.16-.57-.38-.08-.77-.12-1.15-.18-.24-.03-.49-.2-.64.52-.11.58.11,2.18.28,2.15Z"/>
        <path class="cls-1" d="M81.73,88.76c1.4-.46,2.9-.36,4.33-.21.63.07,1.23.44,1.88.5.66.06,1.38-.19,2.57-1.26.04-.03.1-.2.07-.21-1.64-.25-3.1-.69-4.7-1.05-.85-.19-1.74-.39-2.65-.47-.47-.04-.94-.03-1.42-.02-.29,0-.62-.11-.7.64-.06.59.44,2.13.62,2.08Z"/>
        <path class="cls-1" d="M82.74,86.12c1.22-.04,2.4.29,3.59.49,1.06.18,1.9,1.41,3.6-1.15.03-.04.06-.21.05-.21-1.29.09-2.43-.24-3.61-.66-.61-.24-1.27-.5-1.91-.75-.33-.12-.68-.21-1.02-.31-.21-.06-.41-.27-.65.43-.19.55-.22,2.17-.06,2.16Z"/>
        <path class="cls-1" d="M82.02,83.96c1.48.04,2.93.4,4.41.57,1.27.15,2.6,1.33,4.12-1.42.02-.04.03-.22.01-.22-1.46.25-2.85,0-4.25-.38-.75-.21-1.49-.5-2.23-.75-.39-.13-.77-.23-1.16-.35-.24-.07-.46-.29-.75.4-.24.54-.34,2.15-.14,2.16Z"/>
        <path class="cls-1" d="M82.68,80.39c1.3.24,2.51.79,3.78,1.16,1.09.32,2.05,1.66,3.88-.84.03-.04.07-.21.05-.21-1.33.05-2.51-.38-3.67-.95-.62-.31-1.22-.69-1.83-1.04-.32-.18-.64-.33-.96-.5-.2-.1-.35-.35-.73.29-.3.5-.68,2.07-.51,2.1Z"/>
        <path class="cls-1" d="M85.79,77.63c1.06.49,1.99,1.21,3.04,1.74.88.45,1.56,1.89,3.55-.43.03-.04.09-.2.08-.2-1.15-.04-2.11-.58-2.96-1.27-.46-.37-.88-.83-1.3-1.25-.23-.22-.44-.42-.67-.63-.14-.13-.19-.39-.7.14-.4.42-1.19,1.83-1.04,1.9Z"/>
      </g>
      <g>
        <path class="cls-1" d="M230.92,122.73c-1.23-.18-2.36-.71-3.51-1.13-1.02-.37-1.67-1.74-3.8.48-.03.03-.1.2-.08.2,1.3.14,2.39.67,3.49,1.3.57.35,1.19.72,1.78,1.08.31.18.64.33.96.49.2.1.36.34.72-.31.28-.51.6-2.1.43-2.12Z"/>
        <path class="cls-1" d="M228.94,118.36c-1.08-.52-2.07-1.2-3.22-1.6-.48-.17-.95-.57-1.52-.6-.56-.02-1.21.34-1.84,1.72-.02.04-.04.22-.02.22,1.06-.27,2.08.07,2.95.64.47.3.89.71,1.29,1.09.21.2.42.37.62.58.12.12.15.37.66-.16.4-.41,1.23-1.8,1.07-1.88Z"/>
        <path class="cls-1" d="M229.61,115.59c-1.19-.32-2.31-.85-3.52-1.12-.99-.23-2.2-1.43-3.38,1.4-.02.04-.02.22,0,.22,1.11-.33,2.22-.07,3.22.4.54.25,1.05.6,1.55.93.27.17.51.32.77.49.16.1.25.34.66-.26.33-.48.87-2,.7-2.05Z"/>
        <path class="cls-1" d="M229.97,112.88c-1.28-.49-2.52-1.09-3.88-1.36-.58-.11-1.18-.45-1.83-.39-.63.06-1.3.53-1.73,2-.01.05,0,.22.02.22,1.13-.46,2.36-.28,3.44.19.59.25,1.12.62,1.63.98.26.19.53.35.78.55.16.12.23.37.7-.2.38-.44,1.05-1.91.87-1.98Z"/>
        <path class="cls-1" d="M229.82,109.18c-1.33.11-2.66-.09-3.99-.11-1.14-.01-2.49-1.05-3.49,1.85-.02.05,0,.22.01.22,1.25-.4,2.51-.3,3.76-.06.68.13,1.35.34,2.02.51.35.09.7.15,1.04.22.21.05.42.24.64-.47.18-.56.18-2.18,0-2.16Z"/>
        <path class="cls-1" d="M229.49,106.56c-1.29-.04-2.56-.31-3.85-.31-1.07,0-2.53-.94-3.19,2.07-.01.05.02.22.03.22,1.1-.54,2.29-.53,3.44-.29.62.13,1.23.36,1.83.57.32.1.61.2.92.3.19.07.35.28.62-.41.21-.54.38-2.15.2-2.15Z"/>
        <path class="cls-1" d="M229.41,104.88c-1.36-.27-2.67-.73-4.06-.9-.59-.07-1.22-.38-1.86-.29-.64.08-1.29.56-1.75,2.03-.01.05,0,.22.02.22,1.2-.46,2.47-.32,3.65.06.64.21,1.25.52,1.84.82.31.16.62.29.92.45.19.1.32.33.7-.3.31-.5.72-2.06.53-2.1Z"/>
        <path class="cls-1" d="M229.27,102.81c-1.69-.28-3.29-.9-4.93-1.38-1.42-.41-2.68-1.88-4.91.44-.04.04-.08.21-.06.21,1.71.13,3.26.7,4.8,1.38.83.37,1.65.8,2.48,1.19.43.2.87.37,1.31.56.27.12.5.37.92-.27.33-.5.62-2.09.39-2.13Z"/>
        <path class="cls-1" d="M229.35,100.68c-1.49-.31-2.86-.98-4.27-1.54-1.24-.49-2.11-1.99-4.49.08-.04.03-.11.2-.09.2,1.54.29,2.86.95,4.19,1.72.69.42,1.43.86,2.14,1.29.38.22.77.4,1.15.6.24.12.43.38.86-.24.34-.49.71-2.06.51-2.1Z"/>
        <path class="cls-1" d="M226.49,96.4c-1.3-.12-2.52-.64-3.74-1.07-1.1-.39-1.74-1.77-4.01.35-.04.03-.11.2-.09.2,1.38.23,2.54.8,3.74,1.45.65.35,1.29.75,1.96,1.09.35.18.71.32,1.07.47.22.1.42.33.75-.34.26-.52.48-2.13.31-2.14Z"/>
        <path class="cls-1" d="M226.79,93.77c-1.51-.3-2.93-.93-4.38-1.41-1.27-.42-2.31-1.88-4.5.4-.04.04-.09.21-.07.21,1.55.15,2.92.72,4.28,1.41.73.37,1.45.81,2.18,1.2.38.2.77.38,1.16.57.24.12.43.37.85-.25.33-.49.68-2.07.48-2.11Z"/>
        <path class="cls-1" d="M225.33,90.44c-1.38-.32-2.66-.93-4.01-1.37-1.16-.38-2.16-1.78-4.14.63-.03.04-.08.21-.06.21,1.42.03,2.67.52,3.89,1.16.66.34,1.29.76,1.94,1.15.33.2.68.37,1.02.56.21.12.37.37.79-.25.33-.49.76-2.04.57-2.09Z"/>
        <path class="cls-1" d="M223.29,86.57c-1.3-.19-2.53-.69-3.8-1.01-1.1-.28-2.1-1.58-3.83.99-.03.04-.06.22-.04.21,1.32-.1,2.51.29,3.68.81.63.28,1.24.64,1.86.97.32.17.65.31.97.46.2.1.36.33.72-.31.28-.51.61-2.09.43-2.12Z"/>
        <path class="cls-1" d="M222.13,81.47c-1.41-.16-2.78-.51-4.21-.56-.61-.02-1.27-.28-1.92-.15-.64.13-1.27.65-1.64,2.15-.01.05.02.22.03.22,1.2-.55,2.51-.5,3.75-.21.67.16,1.33.42,1.96.67.33.13.66.24.98.37.2.08.36.31.69-.35.26-.52.53-2.12.34-2.14Z"/>
        <path class="cls-1" d="M219.92,78.59c-1.09.03-2.17-.21-3.26-.23-.91-.01-2.1-1-2.77,1.95-.01.05,0,.22.02.22.97-.47,1.98-.41,2.98-.17.54.13,1.06.35,1.58.55.28.09.54.18.81.27.17.06.31.26.53-.44.17-.55.27-2.16.12-2.16Z"/>
      </g>
    </g>
    <path class="cls-1" d="M190.71,215.75c-.56.84-1.52,1.54-2.62,2-1.09.46-2.34.65-3.64.71-2.59.11-5.29-.49-8.08-1.07-2.79-.62-5.8-1.07-8.73-1.16-2.94-.11-5.85.02-8.71.24-4.95.37-10.14.66-15.14.69-5.04.03-9.74-.11-14.82-.51-.16,0-.2.23-.05.29,5.26,2.3,10.91,2.82,16.4,2.79,5.52-.03,10.97-.69,16.41-.83,2.92-.08,5.84,0,8.68.38,2.84.34,5.58,1.19,8.57,1.82,3.07.64,6.47,1.06,9.98-.04,1.06-.35,2.11-.82,2.99-1.57.87-.75,1.55-1.81,1.58-2.98.02-.93-.66-1.28-1.29-1.32-.65-.03-1.23.12-1.53.55Z"/>
  </g>
  <path class="cls-1" d="M152.9,195.24c1.31-.4,2.76-.43,4.2-.22,1.45.21,2.86.66,4.32,1.21,2.88,1.06,6.04,2.49,9.63,2.15,1.75-.18,3.44-.77,4.93-1.77,1.48-.99,2.75-2.57,3.17-4.45.44-1.89-.03-3.8-.72-5.34-.69-1.57-1.61-2.92-2.37-4.25-2.74-4.61-4.96-9.91-6.91-15.2-1.96-5.3-3.67-10.58-5.79-15.44-.07-.15-.22-.04-.19.12,2.23,11.98,6.45,23.54,12.76,33.96.76,1.39,1.38,2.86,1.44,4.3.07,1.44-.52,2.81-1.55,3.8-1.02,1-2.42,1.65-3.85,1.96-1.44.32-2.9.22-4.39-.13-3.08-.7-6.04-2.52-9.69-3.24-1.1-.22-2.25-.36-3.39-.25-1.13.11-2.24.49-3.07,1.18-.66.57-.58,1.11-.21,1.42.37.31.97.4,1.68.2Z"/>
</svg>