<?xml version="1.0" encoding="UTF-8"?>
<svg id="Calque_2" data-name="Calque 2" xmlns="http://www.w3.org/2000/svg" viewBox="0 0 300 300">
  <defs>
    <style>
      .cls-1 {
        fill: #1d1d1d;
      }

      .cls-2 {
        fill: #1db4b8;
      }
    </style>
  </defs>
  <path class="cls-2" d="M155.66,33.46c2.75,10.88,2.3,22.22,2.21,33.31-.04,4.82-2.11,9.83-1.75,14.88.35,5.1,3.16,10.27,12.81,16.67.31.2,1.59.33,1.58.17-1.14-11.82.29-22.84,1.87-34.41.85-6.21,1.98-12.52,2.56-18.92.3-3.32.31-6.63.36-9.97.06-2.04,1.07-4.28-4.33-5.17-4.26-.69-15.67,2.01-15.31,3.44Z"/>
  <path class="cls-2" d="M176.23,252.81c-1.35-5.19-.45-10.58-.87-15.86-.37-4.55,6.58-10.37-14.77-12.82-.34-.04-1.62.11-1.57.17,3.4,4.81,3.24,9.89,2.01,15.12-.66,2.81-1.89,5.67-2.85,8.51-.5,1.47-.77,2.92-1.19,4.39-.26.9-1.56,1.87,3.67,2.21,4.13.27,15.76-1.01,15.58-1.71Z"/>
  <g>
    <g>
      <path class="cls-1" d="M226.27,143.58c0,12.38-.3,24.78-2.43,36.88-1.06,6.04-2.58,12-4.73,17.7-2.13,5.72-4.99,11.12-8.41,16.14-3.49,4.99-7.63,9.55-11.91,14.01-4.29,4.45-8.64,8.82-13.55,12.34-4.88,3.49-10.39,6.12-16.25,6.6-2.92.25-5.87.06-8.77-.52-2.91-.56-5.72-1.61-8.46-2.83-4.71-2.14-9.16-5.13-13.38-8.52-4.21-3.4-8.17-7.26-12.04-11.27-7.69-8.02-14.72-16.88-20.15-26.57-5.44-9.68-9.34-20.12-11.8-30.63-2.46-10.52-3.52-21.1-3.42-31.28,0-.64-.27-.33-.32.32-2.18,24.05,3.82,48.57,16.77,68.78,6.48,10.1,14.53,19.1,23.23,27.32,2.18,2.06,4.45,4.04,6.82,5.9,2.35,1.88,4.82,3.63,7.41,5.2,2.57,1.6,5.28,3,8.12,4.12,1.4.6,2.87,1.03,4.33,1.5,1.49.36,2.98.75,4.51.93,3.28.47,6.65.49,9.94-.08,3.29-.57,6.46-1.72,9.42-3.22,5.93-3.01,10.94-7.39,15.6-11.9,4.61-4.57,9.14-9.18,13.28-14.28,2.04-2.55,4.03-5.19,5.7-8.03l1.29-2.11c.43-.7.78-1.45,1.17-2.17l1.14-2.19c.39-.73.68-1.5,1.03-2.24,2.8-6.23,4.78-12.79,6.16-19.43,1.38-6.65,2.19-13.38,2.68-20.11.61-8.28.91-16.4-.07-23.8-.78-5.84-2.93-3.27-2.9,3.43Z"/>
      <path class="cls-1" d="M76.5,107.66c-1.65,2.25-3.04,4.67-4.16,7.21-1.11,2.55-1.92,5.22-2.45,7.94-1.09,5.44-.95,11.16.56,16.55.64,2.32,1.46,4.69,2.65,6.99,1.19,2.28,2.81,4.52,5.01,6.17,1.08.82,2.33,1.5,3.64,1.92,1.3.41,2.66.59,3.97.5,2.61-.16,5.07-1.53,6.06-3.49.07-.12-.13-.27-.23-.2-1.73,1.41-4.2,1.9-6.54,1.54-2.37-.34-4.56-1.54-6.3-3.24-1.75-1.7-3.09-3.82-4.1-6.08-.98-2.28-1.73-4.67-2.12-7.13-.87-5.29-.4-10.74,1.24-15.74.84-2.59,1.95-5.09,3.37-7.38.42-.72.94-1.36,1.34-2.04.38-.71.73-1.4.82-2.3.15-1.43-1.81-2.44-2.74-1.2Z"/>
      <path class="cls-1" d="M241.22,104.16c1.55,1.98,2.85,4.17,3.87,6.49,1.01,2.32,1.72,4.78,2.17,7.27.91,4.99.65,10.17-.71,15.01-1.17,4.17-3.54,8.36-6.72,11.06-1.59,1.38-3.37,2.32-5.42,2.95-2.02.58-4.25.86-6.75.29-.16-.03-.24.2-.1.28,2.46,1.57,5.42,1.85,8.06,1.32,2.67-.51,5.1-1.94,6.99-3.79,1.91-1.85,3.36-4.09,4.52-6.43,1.12-2.36,2.03-4.83,2.6-7.4,1.26-5.52,1.35-11.37,0-16.98-.69-2.91-1.77-5.73-3.17-8.4-.41-.83-.85-1.65-1.4-2.37-.51-.74-1.22-1.31-2.1-1.66-1.38-.55-2.67,1.32-1.85,2.36Z"/>
      <path class="cls-1" d="M162.5,170.78c2.4,1.18,4.96,1.46,7.35,1.54,1.2.03,2.38,0,3.54-.04,1.13-.05,2.39-.04,3.82-.46.7-.21,1.45-.57,2.07-1.09.63-.51,1.13-1.17,1.48-1.84.7-1.36.89-2.73.98-3.99.04-.64.04-1.25.03-1.86l-.06-1.74c-.05-1.16-.11-2.32-.2-3.48-.29-3.98-.48-8.29-1.37-12.43-.88-4.13-2.48-8.08-5.36-11.09-.09-.1-.3.03-.27.14,2.91,8.23,4.27,16.93,4.45,25.66,0,2.34.18,4.81-.49,6.66-.33.93-.87,1.56-1.57,1.87-.7.33-1.7.39-2.84.39-2.43,0-4.82,0-6.95-.47-1.35-.3-2.3-.89-3.77-.64-.59.08-1.15.6-1.38,1.2-.23.59-.11,1.34.55,1.65Z"/>
      <path class="cls-1" d="M129.78,194.01c1.3-2.31,2.73-4.55,3.72-7.03.42-1.06,1.16-2.11,1.36-3.33.21-1.2-.11-2.55-1.82-3.93-.05-.04-.29-.07-.29-.04.06,2.44-.76,4.76-1.96,6.85-.65,1.13-1.44,2.17-2.24,3.17-.41.52-.8,1.05-1.23,1.55-.26.31-.68.49-.08,1.32.48.66,2.35,1.76,2.53,1.44Z"/>
      <path class="cls-1" d="M178.57,189.27c-3.36,1.85-7.13,3.01-11,3.89-3.89.85-7.88,1.66-11.77,2.07-3.9.4-7.8.3-11.38-.83-1.79-.56-3.52-1.39-5.2-2.36l-1.26-.75-1.06-.67-1.19-.77-4.82-3.23v.43s.07.56.07.56l.12,1.11.25,2.13c.17,1.42.52,3.02,1.01,4.59.58,1.81,1.28,3.49,2.04,5.14.91,1.97,1.8,3.92,2.83,5.95,1.04,2.01,2.21,4.06,3.82,5.94.8.93,1.71,1.82,2.73,2.59.52.38,1.05.74,1.62,1.06.24.15.71.37,1.02.48.34.13.67.24.98.32,2.5.65,4.82.78,7.17.81,4.66,0,9.28-.66,13.52-2.24,2.11-.78,4.11-1.83,5.82-3.18,1.69-1.35,3.05-3.09,3.53-4.92.07-.22-.21-.24-.32-.04-.99,1.84-2.83,3.24-4.81,4.3-2.01,1.05-4.22,1.78-6.47,2.31-4.52,1.03-9.25,1.37-13.88,1.01-1.15-.1-2.31-.25-3.41-.5-.54-.13-1.09-.28-1.54-.5-.46-.24-.97-.54-1.41-.86-1.83-1.3-3.31-3.09-4.53-5.03-1.22-1.96-2.23-4.08-3.22-6.22-.99-2.15-1.96-4.29-2.68-6.49l-.22-.69-.1-.38c-.06-.25-.12-.49-.16-.72-.04-.24-.08-.47-.1-.69-.01-.11-.02-.22-.03-.33v-.16s.09.06.13.09l1.2.86.28.2.15.1.25.16c.44.28.89.56,1.35.83,1.82,1.07,3.75,2.04,5.83,2.71,4.17,1.36,8.58,1.47,12.78,1.09,2.72-.25,5.39-.69,8.02-1.16,2.63-.47,5.29-1,7.94-1.72,3.23-.87,6.59-1.95,8.75-4.39.83-.97.68-1.75.09-2.12-.6-.37-1.6-.34-2.7.26Z"/>
      <path class="cls-1" d="M169.63,221.99c-.67-.94-1.66-1.34-2.42-1.52-.79-.18-1.5-.21-2.18-.18-1.29.07-2.42.19-3.62.43-1.01.21-2.18.15-3.2.62-1,.46-1.84,1.45-1.92,3.6,0,.07.1.28.13.26,1.74-1.33,3.89-1.86,6.04-1.95.58-.03,1.16-.01,1.74.03.28.02.59.05.85.08.25.04.49.08.71.14.45.12.85.29.9.45,0,.02,0,.05,0,.07-.04.05.09-.1.09-.1.01-.02.07-.06.05-.05.05-.04.22-.15.43-.23.35-.15,1.05-.38,1.61-.68.56-.28.97-.71.78-.97Z"/>
      <path class="cls-1" d="M134.8,118.14c-.21,2.05-1.4,4.06-3.01,5.24-.38.27-.75.44-1.02.48-.26.04-.43-.01-.65-.13-.44-.24-.98-1.09-1.2-1.96-.21-.8-.19-1.75,0-2.57.18-.84.52-1.56.91-2.18.36-.58.86-1.18,1.53-1.8.68-.61,1.56-1.34,3.09-1.69.1-.02.17-.25.09-.28-1.46-.54-2.98-.36-4.22.17-1.25.53-2.33,1.48-3,2.63-.69,1.14-1.02,2.45-1.1,3.74-.07,1.3.05,2.61.57,3.92.28.69.67,1.37,1.27,1.97.59.59,1.48,1.08,2.45,1.14.98.07,1.88-.23,2.59-.61.74-.39,1.32-.85,1.88-1.35,1.16-1.05,2.06-2.38,2.71-3.83.4-.87.88-1.85.02-2.81-.69-.73-2.88-.55-2.92-.05Z"/>
      <path class="cls-1" d="M203.46,116.77c-.21,2.05-1.4,4.06-3.01,5.24-.38.27-.75.44-1.02.48-.26.04-.43-.01-.65-.13-.44-.24-.98-1.09-1.2-1.96-.21-.8-.19-1.75,0-2.57.18-.84.52-1.56.91-2.18.36-.58.86-1.18,1.53-1.8.68-.61,1.56-1.34,3.09-1.69.1-.02.17-.25.09-.28-1.46-.54-2.98-.36-4.22.17-1.25.53-2.33,1.48-3,2.63-.69,1.14-1.02,2.45-1.1,3.74-.07,1.3.05,2.61.57,3.92.28.69.67,1.37,1.27,1.97.59.59,1.48,1.08,2.45,1.14.98.07,1.87-.23,2.59-.61.74-.39,1.32-.85,1.88-1.35,1.16-1.05,2.06-2.38,2.71-3.83.4-.87.88-1.85.02-2.81-.69-.73-2.88-.55-2.92-.05Z"/>
      <path class="cls-1" d="M148.06,94.91c-6.21-1.01-12.41-2.1-18.6-3.22-1.5-.24-3.17-.71-5.21-.44-2.05.33-3.59,1.37-4.92,2.25l-8.8,6,1.98,8.03.79-.61c.58-.44,1.15-.89,1.74-1.33l.88-.67.84-.62.59-.42.47-.32c.31-.21.63-.41.94-.61,1.27-.78,2.57-1.44,3.9-1.86,2.58-.88,5.47-.42,8.72,0,3.21.4,6.42.67,9.58.71.79,0,1.57,0,2.36-.02.39-.01.92-.01,1.42-.2.49-.18.88-.53,1.14-.88.99-1.45.89-2.9,1.7-4.47.1-.2-.14-.29-.3-.11-.64.76-1,1.52-1.39,2.2-.37.66-.76,1.29-1.16,1.56-.19.12-.38.2-.63.21-.27,0-.69-.06-1.08-.1l-2.37-.29c-3.16-.4-6.31-.83-9.46-1.28-1.58-.22-3.19-.46-4.85-.47-1.65-.04-3.37.24-4.94.82-1.58.57-3.03,1.37-4.41,2.26l-1.02.68-.79.55-1.07.76c-.12-.5-.22-1.02-.31-1.48l-.17-.85,8.02-5.15c.69-.42,1.38-.78,2.04-1.01.67-.23,1.26-.3,1.98-.26,1.39.1,3.16.57,4.81.89l11.27,2.26c2.31.47,4.54,1.12,6.79.54,1.78-.46,1.43-2.72-.47-3.03Z"/>
      <path class="cls-1" d="M184.83,94.47c5.99-2.03,12.01-3.98,18.05-5.92,1.54-.5,2.94-.98,3.97-.86,1.05.09,2.3.8,3.6,1.63l7.1,4.49-.14,1-.04-.03-.23-.18-.03-.02h0s-.11-.08-.11-.08l-.52-.35-1.06-.68c-1.44-.89-3.03-1.72-4.84-2.26-1.8-.56-3.88-.65-5.68-.36-1.83.27-3.48.79-5.04,1.28-3.14.99-6.21,2.09-9.14,3.38-.72.32-1.48.67-2.15,1-.48.3-.96.35-1.58-.02-1.21-.74-2.32-2.18-3.56-2.69-.15-.06-.25.17-.15.27.46.42.91,1.06,1.38,1.72.49.66.95,1.4,1.83,2.05.48.34,1.06.53,1.64.53.28,0,.61-.07.82-.13l.61-.19,2.3-.73c3.07-.96,6.15-1.89,9.24-2.8,3.06-.93,6.16-1.71,9.07-.68,1.46.45,2.84,1.19,4.17,2.01.71.45,1.18.76,2.26,1.52l2.88,2.08c.19-1.4.39-2.8.59-4.21l.39-2.82-2.67-1.74-2.13-1.41-4.28-2.84c-.75-.48-1.55-.96-2.49-1.32-.92-.37-2.08-.57-3.12-.47-1.04.08-1.96.34-2.8.58l-2.46.72-11.18,3.34c-2.29.68-4.6,1.17-6.35,2.74-1.38,1.25,0,3.08,1.85,2.45Z"/>
      <path class="cls-1" d="M81.08,283.45c-4.91-2.36-9.49-5.44-13.57-9.08-2.04-1.82-3.95-3.78-5.71-5.86-1.77-2.09-3.39-4.28-4.76-6.6-2.73-4.63-4.65-9.84-4.8-15.06-.06-2.6.31-5.19,1.3-7.54.95-2.36,2.47-4.47,4.35-6.3,3.24-3.18,7.55-5.54,12.02-7.8,4.47-2.26,9.1-4.34,13.75-6.29,2.32-.97,4.71-1.94,7.03-3.13,2.32-1.19,4.57-2.62,6.47-4.42,1.91-1.81,3.38-4,4.2-6.34.83-2.32.93-4.83.18-6.86-.08-.26-.31-.08-.28.17.31,2.4-.37,4.93-1.68,7.1-1.3,2.19-3.15,4.05-5.3,5.51-4.33,2.96-9.52,4.55-14.47,6.71-4.97,2.12-9.83,4.46-14.59,7.06-2.38,1.31-4.71,2.75-6.89,4.45-2.16,1.72-4.18,3.7-5.71,6.1-1.64,2.58-2.69,5.54-3.05,8.58-.39,3.04-.09,6.12.58,9.07,1.38,5.9,4.26,11.35,7.91,16.08,3.77,4.92,8.3,9.25,13.35,12.88,3.11,2.2,6.31,4.32,9.82,4.86,2.76.4,2.49-2.05-.14-3.29Z"/>
      <path class="cls-1" d="M84.3,284.34c-.72-3.56-1-7.21-.84-10.86.18-3.64.81-7.26,1.82-10.77,1.02-3.5,2.43-6.89,4.23-10.07,1.82-3.16,4.03-6.09,6.57-8.69,2.48-2.64,5.51-4.88,8.37-7.46,2.86-2.56,5.71-5.53,7.4-9.33,1.7-3.79,2.03-7.97,1.72-11.88-.31-3.94-1.19-7.71-2.09-11.4l-3.18.84c2.97,10.7.08,22.78-6.98,31.32-1.78,2.12-3.79,4.05-6.02,5.67-2.26,1.62-4.77,3.03-7.29,4.5-2.53,1.47-5.1,3-7.52,4.91-2.42,1.87-4.63,4.32-6.04,7.28-1.11,2.34-1.58,5-1.53,7.54.04,2.56.52,5.03,1.26,7.44,1.52,4.81,4.31,9.26,8.13,12.74l2.41-2.82c-7.27-5.97-13.65-13.23-18.71-21.31-2.52-4.04-4.83-8.21-5.24-12.51-.19-2.12.09-4.3.92-6.15.83-1.87,2.19-3.3,4.07-4.29,1.86-1,4.1-1.59,6.4-2.2,2.33-.59,4.72-1.33,6.97-2.21,4.54-1.76,8.79-4.09,12.6-6.89,3.79-2.79,7.25-5.98,9.89-9.69,2.63-3.68,4.38-7.96,4.36-12.14.01-.65-.27-.33-.33.32-.45,4.45-2.77,8.59-5.76,12.05-3.01,3.47-6.71,6.39-10.63,8.89-3.93,2.49-8.18,4.47-12.6,5.92-2.21.74-4.47,1.25-6.78,1.83-2.3.59-4.68,1.33-6.75,2.76-2.09,1.41-3.62,3.62-4.35,5.98-.76,2.37-.88,4.9-.47,7.32.39,2.42,1.26,4.72,2.31,6.88,1.05,2.16,2.29,4.2,3.56,6.2,5.11,8.02,11.53,15.21,18.91,21.25l.98-1.14c-4.87-4.42-8.03-10.74-8.5-17.28-.11-1.62,0-3.25.36-4.8.37-1.55,1.05-3.02,1.92-4.36,1.76-2.69,4.4-4.76,7.19-6.57,3.95-2.57,8.33-4.63,12.32-7.55,3.98-2.94,7.34-6.71,9.8-11,5.01-8.51,6.67-19.03,4.1-28.73l-2.7.71c.98,4.14,1.89,8.27,2.01,12.35.12,4.07-.72,8.05-2.95,11.3-3.73,5.58-10.27,9.15-15.29,14.81-2.52,2.77-4.64,5.88-6.43,9.16-1.78,3.28-3.22,6.76-4.19,10.37-1.24,4.42-1.91,8.98-1.83,13.43.07,4.44.9,8.77,2.51,12.57.16.38.31.71.45,1.01.13.26.32.69.65,1.01.32.34.92.67,1.55.38.42-.2.51-.61.49-.78,0-.2-.07-.33-.14-.44-.07-.11-.16-.2-.28-.27-.11-.07-.32-.1-.42-.03-.18.14-.08.25-.05.3.04.04.17.14.15.12-.03-.03-.04-.09-.04-.08,0,0-.03.07-.12.13-.09.06-.19.1-.23.1-.03,0,.06-.02.17.01.12.02.17.12.13.04,0-.01,0-.02,0-.04v-.02s0,0,0,0c-.03-.45,0-.12-.02-.22h0s0,0,0,0v.03s0,0,.01-.03c.03-.06.12-.21.32-.37.09-.07.05-.07.07-.15.02-.08,0-.4-.03-.68-.1-1.16-.43-2.59-.73-4.3Z"/>
      <path class="cls-1" d="M106.86,222.72c-1.97,2.57-4.59,4.67-7.44,6.45-2.86,1.79-5.95,3.29-9.09,4.8-3.13,1.49-6.37,3.07-9.39,5.04-3.03,1.95-5.93,4.29-8.24,7.27-1.01,1.27-1.87,2.71-2.62,4.23-.74,1.53-1.25,3.21-1.57,4.93-.62,3.45-.21,7,.72,10.21.95,3.22,2.39,6.15,4.06,8.78,1.68,2.62,3.56,5,5.65,7.13.13.13.31-.05.22-.21-1.55-2.96-3.13-5.93-4.54-8.92-1.4-3-2.63-6.08-3.28-9.28-.67-3.18-.69-6.51.31-9.56.46-1.53,1.19-2.98,2.09-4.3.9-1.33,1.94-2.57,3.13-3.67,2.55-2.4,5.54-4.31,8.69-5.94,3.13-1.64,6.47-2.99,9.78-4.56,3.43-1.61,6.86-3.45,10.01-5.87,1.92-1.47,3.87-3.15,4.39-5.52.2-.93-.29-1.51-.94-1.69-.66-.19-1.43.01-1.95.7Z"/>
      <path class="cls-1" d="M133.33,242.83c.41-2.06,1.36-3.95,2.21-5.84.37-.82,1.09-1.53,1.4-2.43.31-.9.21-2-1.01-3.77-.04-.06-.25-.17-.26-.14-.63,2.1-1.67,3.88-2.8,5.72-.61.99-1.28,1.96-1.87,2.99-.31.53-.56,1.08-.84,1.64-.17.34-.52.63.32,1.2.66.45,2.78.91,2.84.64Z"/>
      <path class="cls-1" d="M147.35,248.05c0-1.75.41-3.45.57-5.19.14-1.49,1.67-3.07-2.08-4.83-.06-.03-.3-.04-.29-.02.39,1.71.13,3.36-.33,5-.25.88-.6,1.76-.91,2.63-.16.45-.27.91-.42,1.37-.09.28-.37.54.56.88.74.27,2.9.39,2.9.15Z"/>
      <path class="cls-1" d="M170.94,248.44c-.83-.7-1.15-1.82-1.45-2.82-.13-.45.1-.98-.09-1.42-.19-.46-.84-.83-2.75-1.53-.06-.02-.3-.03-.29-.01.46,1.42.52,2.65.66,4.07.08.75.15,1.56.37,2.35.11.41.28.8.47,1.19.1.24.09.62.96.15.68-.37,2.22-1.9,2.12-1.98Z"/>
      <path class="cls-1" d="M192.6,239.84c-1.2-1.08-2.08-2.45-3.15-3.65-.92-1.03-.96-3.13-4.73-1.48-.06.03-.23.19-.21.2,1.44.78,2.38,1.99,3.19,3.35.43.73.79,1.53,1.18,2.3.2.4.44.77.65,1.16.13.24.12.6.99.14.69-.37,2.25-1.88,2.09-2.02Z"/>
      <path class="cls-1" d="M207.31,226.52c-1.68-.59-3.05-1.79-4.35-2.95-.57-.51-.89-1.31-1.52-1.81-.63-.5-1.58-.69-3.65-.27-.07.01-.26.16-.24.18,1.54,1.29,2.69,2.72,3.97,4.22.69.8,1.39,1.64,2.19,2.39.42.39.87.73,1.33,1.08.28.22.49.6,1.17-.15.53-.59,1.31-2.62,1.09-2.7Z"/>
      <path class="cls-1" d="M216.92,209.77c-1.02-.56-1.78-1.45-2.69-2.14-.79-.6-.86-2.38-3.95.18-.05.04-.19.24-.17.24,1.21.22,2.02.97,2.72,1.88.38.49.69,1.07,1.03,1.6.18.28.38.52.56.79.11.16.11.48.82-.18.56-.52,1.82-2.29,1.68-2.37Z"/>
      <path class="cls-1" d="M227.45,195.2c-1.36-1.74-2.8-3.46-4.69-4.66-.8-.5-1.58-1.29-2.6-1.53-1-.24-2.23.09-3.33,1.88-.03.06-.06.29-.04.29,1.84-.23,3.62.62,4.91,1.87.71.67,1.25,1.5,1.72,2.3.24.42.49.82.68,1.25.13.26.05.62,1.01.31.76-.24,2.54-1.46,2.35-1.71Z"/>
      <path class="cls-1" d="M117.85,226.44c1.2-1.83,2.74-3.41,4.08-5.15,1.15-1.49,3.56-2.36,1.54-6.14-.03-.06-.23-.19-.24-.17-.84,2-2.21,3.59-3.74,5.07-.82.8-1.73,1.53-2.6,2.29-.45.4-.87.82-1.31,1.22-.27.25-.69.37-.13,1.22.44.67,2.23,1.9,2.39,1.65Z"/>
      <path class="cls-1" d="M97.3,198.51c1.64-1,3.46-1.62,5.17-2.46,1.48-.73,3.77-.33,3.42-4.51,0-.07-.12-.27-.14-.26-1.4,1.31-3.08,2.02-4.87,2.55-.96.29-1.97.49-2.96.72-.51.12-1,.29-1.51.42-.31.08-.7,0-.53.98.14.78,1.18,2.68,1.41,2.54Z"/>
      <path class="cls-1" d="M90.74,172.26c-.48.02-.96.02-1.44,0l-.75,3.02c1.32.64,2.69,1.25,4.14,1.57.84.18,1.73.66,2.67.58.93-.08,1.89-.73,2.45-2.73.02-.06-.01-.3-.03-.29-1.6.67-3.38.42-4.92-.27-.83-.37-1.59-.91-2.28-1.45-.19-.14-.38-.29-.57-.43l-.84,3.36.69.16c.3.07.58.34.89-.61.25-.75.24-2.92,0-2.91Z"/>
      <path class="cls-1" d="M233.46,173.07c-1.77-.42-3.41-1.24-5.13-1.82-1.48-.5-2.73-2.38-5.37.86-.04.05-.11.28-.08.28,1.83.03,3.43.69,4.99,1.54.84.46,1.64,1.02,2.46,1.53.43.26.86.49,1.29.74.26.15.46.49,1.02-.33.44-.65,1.05-2.74.81-2.79Z"/>
    </g>
    <g>
      <path class="cls-1" d="M77.11,107.69c.06.09.09.18.09.19,0,.01,0-.07.02-.17v-.03s.02-.02.02-.02h0c-.04.09.09-.23-.09.21h0s0,0,0,0h.03s.05.04.09.06c.07.04.15.12.24.22.36.39.84,1.2,1.27,1.9.86,1.44,1.65,2.92,2.37,4.43.75,1.52,1.29,3.03,2.07,4.73.4.84.86,1.69,1.52,2.53.65.82,1.6,1.66,2.88,2.03,1.07.32,2.33.22,3.29-.17.99-.37,1.79-.93,2.49-1.52.71-.6,1.29-1.24,1.83-1.89.54-.66,1.03-1.36,1.46-2.1,1.71-2.92,2.28-6.47.92-9.46-.04-.09-.27-.09-.28,0-.29,3.16-1.43,6.27-3.25,8.9-.92,1.3-1.97,2.58-3.22,3.38-.62.39-1.3.63-1.91.6-.62-.03-1.19-.3-1.67-.77-1.05-1.03-1.67-2.68-2.25-4.32-.6-1.71-1.28-3.42-2.04-5.08-.4-.86-.82-1.72-1.27-2.56l-.69-1.25c-.23-.4-.48-.86-.86-1.37-.48-.6-1.08-1.4-2.45-1.63-.63-.07-1.22.06-1.72.37-.49.3-.88.83-.97,1.39-.07.45.14.76.4.91.26.15.59.18.89.22.15.02.3.03.42.06.12.02.29.1.24.08,0,0,.06.03.12.13Z"/>
      <path class="cls-1" d="M76.16,106.12c.61.3,1.23.93,1.86,1.68.63.75,1.28,1.62,2.16,2.45.9.85,2.15,1.49,3.38,1.78,1.25.3,2.44.24,3.55.14,1.9-.21,3.81-.38,5.41-.67.82-.16,1.52-.34,2.3-.59.8-.28,1.68-.5,3.03-.69.09-.01.2-.21.14-.24-1.01-.61-2.12-.93-3.2-1.04-1.08-.09-2.1.02-3.11.14-1.98.28-3.91.7-5.74.63-.97-.04-1.9-.24-2.62-.65-.35-.24-.69-.45-.97-.76-.29-.3-.57-.66-.85-1.05-.58-.8-1.18-1.74-2.02-2.73-.49-.58-1.14-1.4-2.28-.95-.44.19-.75.8-.93,1.38-.18.58-.29,1.08-.13,1.16Z"/>
      <path class="cls-1" d="M76.92,107.45c1.22-1.63,2.96-2.89,4.86-3.59,1.91-.7,3.96-.83,5.88-.4,1.69.37,3.21,1.5,4.66,2.55,1.48,1.09,3,2.06,5.52,2.99.08.03.27-.1.23-.15-1.27-2.01-2.84-3.75-4.67-5.15-1.83-1.4-3.96-2.47-6.33-2.91-2.54-.48-5.27-.19-7.74.83-1.28.53-2.48,1.28-3.56,2.17-.65.54-1.45,1.04-1.19,2.2.21.89,2.04,1.88,2.34,1.46Z"/>
      <path class="cls-1" d="M79.46,98.68c.02-.2.18-.49.41-.68.12-.1.22-.16.37-.22.16-.06.34-.1.54-.12.8-.09,2.08.17,3.2.42,2.26.52,4.4,1.38,6.23,2.62,1.61,1.07,2.71,2.75,3.76,4.38,1.04,1.68,2.11,3.18,3.91,5.34.06.07.28.04.28-.03-.2-2.6-1.07-5-2.36-7.11-1.28-2.12-3.07-3.95-5.18-5.32-2.27-1.49-4.83-2.51-7.46-3.14-.67-.16-1.41-.32-2.29-.33-.87,0-1.9.16-2.85.78-.55.36-1.06.8-1.37,1.39-.3.58-.36,1.34.06,1.94.34.48,1.05.45,1.64.35.6-.12,1.1-.18,1.11-.27Z"/>
      <path class="cls-1" d="M77.06,97.7c.53-2.35,2.14-4.46,4.22-5.7,2.08-1.26,4.61-1.6,6.68-.78,1.91.72,3.39,2.54,4.9,4.33,1.53,1.8,3.23,3.67,5.94,4.82.09.04.27-.1.23-.17-1.51-2.27-2.92-4.62-4.67-6.78-1.73-2.13-3.91-4.18-6.87-4.97-3.17-.82-6.65.06-9.29,2.02-1.38,1.02-2.54,2.35-3.43,3.88-.14.23-.27.47-.41.7-.11.24-.21.49-.28.75-.16.5-.11,1.06.22,1.61.53.86,2.63.87,2.76.28Z"/>
      <path class="cls-1" d="M81.36,87.9c1.07-1.6,3.01-2.52,5.02-2.56,1-.03,2.01.13,2.95.47.94.33,1.79.84,2.63,1.49,1.43,1.13,2.42,2.89,3.52,4.54,1.11,1.67,2.38,3.29,4.72,4.64.07.04.28-.05.26-.11-.94-2.19-1.93-4.32-3.16-6.34-1.23-2.01-2.73-3.94-4.73-5.41-2.17-1.61-5.02-2.51-7.92-2.13-1.5.2-2.99.77-4.29,1.68-.76.56-1.69,1.18-1.4,2.4.23.92,2.17,1.72,2.41,1.34Z"/>
      <path class="cls-1" d="M82.27,80.08c1.45-.96,3.23-1.43,4.97-1.36,1.75.06,3.42.61,4.87,1.54,1.28.82,2.19,2.2,3.16,3.44.99,1.28,2.1,2.41,4.27,3.7.07.04.28-.03.26-.09-.69-1.98-1.61-3.8-2.79-5.45-1.18-1.64-2.63-3.13-4.43-4.24-1.93-1.19-4.25-1.92-6.65-1.89-1.24.01-2.48.24-3.69.63-.72.24-1.57.4-1.66,1.54-.06.88,1.31,2.44,1.67,2.2Z"/>
      <path class="cls-1" d="M80.48,87.78c.43-2.38,1.26-4.69,2.48-6.7,1.2-2,2.87-3.7,4.75-4.62,1.64-.78,3.68-.6,5.42-.15,1.78.5,3.44.98,6.05,2.34.08.04.28-.08.24-.14-1.3-2.5-3.68-4.17-6.23-4.77-2.54-.62-5.35-.3-7.7,1.07-2.5,1.43-4.48,3.66-5.92,6.11-.74,1.28-1.32,2.63-1.83,4.01-.31.84-.76,1.67-.02,2.63.58.75,2.65.85,2.76.22Z"/>
      <path class="cls-1" d="M239.42,102.47c-1.45,1.1-2.93,2.14-4.43,3.17l-1.13.77c-.38.26-.76.52-1.07.7-.32.19-.62.32-.81.36-.16.04-.15,0-.23-.02-.04-.03-.04-.02-.17-.19-.11-.15-.24-.37-.38-.63-.82-1.55-1.24-3.42-1.9-5.13-.67-1.74-1.61-3.34-3.65-4.89-.07-.05-.29,0-.27.06.52,2.09,1.07,4.12,1.72,6.13.33,1,.68,2,1.07,2.99.2.49.4.99.61,1.47.21.48.42.99.78,1.53.23.35.61.77,1.08,1.02.61.36,1.45.41,2.1.26.64-.14,1.16-.38,1.64-.63l2.53-1.42c1-.6,2-1.19,3-1.78.62-.36,1.33-.57,1.33-1.68,0-.88-1.36-2.42-1.82-2.07Z"/>
      <path class="cls-1" d="M244.59,103.08c.22-.89.08-1.71-.2-2.37-.28-.68-.7-1.25-1.27-1.73-1.33-1.05-2.74-1.01-3.83-.92-1.12.12-1.94.31-2.78.36-.84.06-1.67.05-2.45-.07-.68-.09-1.33-.35-1.91-.68-.57-.32-1.07-.72-1.59-1.12-.52-.41-1.05-.8-1.72-1.24-.67-.44-1.47-.92-2.48-1.67-.07-.05-.29,0-.27.06.5,2.07,1.68,3.76,3.18,5.02,1.51,1.28,3.44,1.98,5.39,2.23,1.05.14,2.11.16,3.16.11,1.05-.06,1.99-.16,2.61,0,.3.07.59.23.62.31.1.12.23.33.26.52.02.12-.04.22,0,.24.04.04.23,0,.62.26.3.19.82.68,1.35.95.52.28,1.17.23,1.31-.27Z"/>
      <path class="cls-1" d="M246.45,102.07c-.14-2.76-1.28-5.35-3.24-7.28-.99-.95-2.22-1.75-3.65-2.13-1.45-.39-2.85-.29-4.09-.12-2.1.32-4.19.55-5.39.22-.73-.15-1.45-.37-2.23-.66-.77-.3-1.71-.78-2.56-2-.06-.08-.28-.06-.28.02.02,1.45.76,2.75,1.71,3.59.97.84,2.11,1.36,3.32,1.6,2.49.4,4.72-.4,6.8-.37,1.13-.02,2.11.23,2.94.76.85.51,1.53,1.28,2.06,2.12.55.87.92,1.86,1.07,2.84.08.63-.08,1.15.8,1.73.71.5,2.76.49,2.75-.32Z"/>
      <path class="cls-1" d="M247.64,102.85c.42-2.95.03-5.93-1.11-8.64-1.11-2.72-3.17-5.15-5.78-6.63-1.12-.64-2.34-1.23-3.66-1.6-1.31-.39-2.76-.54-4.12-.37-1.34.17-2.47.57-3.52,1.06-1.05.49-2.02,1.13-3.42,1.72-.09.04-.11.27-.03.28,2.96.46,5.42-.6,7.83-.61,2.4-.05,4.78.84,6.61,2.33,2,1.6,3.24,3.91,3.76,6.31.28,1.24.39,2.51.3,3.74-.06.78-.37,1.41.37,2.27.59.7,2.62.99,2.77.15Z"/>
      <path class="cls-1" d="M248.9,97.16c.57-3.09.15-6.25-1.08-9.08-.62-1.41-1.47-2.75-2.57-3.91-1.09-1.15-2.51-2.11-4-2.68-2.57-1.04-5.64-1.37-8.3-.68-2.67.67-4.91,2.19-6.23,4.75-.04.08.08.27.14.24,2.31-1.26,4.75-2.27,7.29-2.68,2.52-.41,5.16-.1,7.24,1.22,2.21,1.4,3.57,3.85,4.15,6.32.3,1.29.44,2.62.31,3.89-.1.8-.4,1.46.29,2.36.56.75,2.58,1.12,2.76.24Z"/>
      <path class="cls-1" d="M249.62,82.33c-1.13-1.8-2.26-3.65-3.69-5.39-1.44-1.72-3.17-3.36-5.55-4.27-2.02-.74-4.52-1.1-6.73-.08-1.08.49-2.03,1.35-2.5,2.42-.48,1.06-.45,2.3.19,3.3.04.06.26.11.27.07.27-1.7,1.69-3.14,3.45-3.65,1.75-.54,3.73-.27,5.24.68,1.7,1.04,2.95,2.66,4.01,4.39.55.9,1.08,1.83,1.57,2.8.3.6.42,1.28,1.51,1.36.86.06,2.54-1.13,2.24-1.62Z"/>
      <path class="cls-1" d="M162.67,42.1c-.66-3.02-1.51-6.02-2.72-8.92-1.21-2.89-2.8-5.68-4.95-8.09-1.84-2.05-4.04-4.23-6.85-5.4-1.39-.58-2.91-.89-4.39-.77-1.47.12-2.89.68-3.94,1.72-.07.06,0,.28.07.27,2.63-.51,5.48.08,7.92,1.38,2.46,1.3,4.56,3.25,6.17,5.51,1.75,2.45,2.94,5.25,3.79,8.11.45,1.48.83,2.99,1.11,4.52.17.95.13,1.89,1.17,2.58.83.55,2.8-.08,2.62-.91Z"/>
      <path class="cls-1" d="M163.16,46.36c-1.17-3.26-2.92-6.27-5-8.96-2.08-2.7-4.51-5.07-7.06-7.22-2.2-1.84-4.47-3.92-6.97-5.56-1.27-.83-2.75-1.6-4.41-1.84-.82-.11-1.7-.08-2.47.21-.77.28-1.39.82-1.66,1.48-.04.08.1.27.15.24.98-.64,2.44-.5,3.78.09,1.36.57,2.61,1.45,3.88,2.37,2.53,1.82,4.96,3.78,7.2,5.93,2.41,2.31,4.54,4.88,6.23,7.63.9,1.42,1.63,2.9,2.26,4.42.17.48.3.96.53,1.39.21.44.51.82,1.09,1.12.92.48,2.79-.39,2.46-1.29Z"/>
      <path class="cls-1" d="M165.11,44.56c-.91-7.2-2.61-14.36-5.68-20.99-.65-1.42-1.32-2.95-2.24-4.46-.92-1.49-2.14-3.01-3.88-4.01-.22-.12-.44-.23-.67-.34-.25-.1-.5-.21-.75-.29-.51-.15-1.03-.25-1.54-.27-1.03-.05-2.04.16-2.91.6-.87.44-1.59,1.12-1.98,1.92-.4.8-.43,1.67-.15,2.38.03.09.26.11.28.04.13-.64.47-1.24.99-1.7.51-.47,1.2-.76,1.92-.91.73-.14,1.5-.11,2.22.1.71.2,1.39.61,2.02,1.09,1.24.98,2.2,2.35,3,3.79.8,1.45,1.45,3.01,2.05,4.59,1.3,3.4,2.2,6.93,2.83,10.48.33,1.84.62,3.68.8,5.53.11,1.14,0,2.27,1.01,3.21.8.75,2.8.22,2.68-.76Z"/>
      <path class="cls-1" d="M168.8,46.17c-.33-3.85-.12-7.79,0-11.8.12-3.99.12-8.14-.7-12.24-.69-3.48-1.69-7.43-4.22-10.6-.33-.38-.64-.77-1.01-1.11-.41-.37-.57-.6-1.38-1.18-.68-.46-1.52-.63-2.27-.4-.74.19-1.43.8-1.67,1.08-1.37,1.42-2.12,3.25-2.12,5.02,0,.11.22.19.26.1.41-.78.91-1.52,1.51-2.18.3-.33.61-.64.95-.93.17-.15.34-.28.52-.42.18-.13.37-.27.47-.33.24-.16.56-.26.84-.13.28.13.45.31.81.69.65.65,1.19,1.39,1.71,2.15,2.02,3.09,3.02,6.79,3.41,10.5.45,4.02.09,8.08-.22,12.18-.16,2.13-.29,4.29-.36,6.48-.04,1.34-.23,2.7.77,3.85.78.9,2.79.28,2.7-.74Z"/>
      <path class="cls-1" d="M173.2,44.71c1.42-6.69,2.08-13.57,1.47-20.4-.21-2.31-.36-4.77-.84-7.19-.23-1.22-.55-2.38-.99-3.57-.24-.61-.54-1.24-.97-1.84-.43-.6-1.03-1.17-1.77-1.49-.91-.42-1.86-.21-2.43.27-.6.47-.69,1.27-.34,1.73.04.07.25.09.25.05-.02-.29.19-.57.47-.68.3-.13.7-.11.99.07.81.51,1.29,1.72,1.61,2.92.33,1.24.62,2.5.86,3.77.46,2.54.71,5.12.76,7.7.05,3.42-.22,6.83-.78,10.17-.26,1.73-.6,3.45-1,5.15-.26,1.05-.71,2-.06,3.16.52.92,2.58,1.11,2.77.19Z"/>
      <path class="cls-1" d="M177.23,38.99c1.3-2.7,2.67-5.42,3.75-8.33,1.07-2.89,1.85-6.03,1.86-9.24.03-2.72-.1-5.84-1.52-8.59-.35-.68-.76-1.32-1.27-1.89-.48-.57-1.08-1.14-1.86-1.55-.39-.2-.83-.35-1.29-.39-.46-.05-.97.05-1.31.27-.75.42-.95,1.35-.51,1.73.05.05.28.07.27.05-.05-.19.21-.5.61-.53.33-.05.89.23,1.31.66.88.9,1.59,2.17,2.09,3.42,1.01,2.55,1.21,5.4.89,8.13-.36,2.96-1.44,5.77-2.74,8.45-.68,1.39-1.4,2.78-2.19,4.15-.48.84-1.13,1.58-.73,2.78.32.95,2.28,1.62,2.63.89Z"/>
      <path class="cls-1" d="M172.85,44.34c-.18.66-.18,1.3-.02,1.93.15.63.5,1.29,1.12,1.8l1.67,1.36.7-2.03c2.04-5.91,6.26-11.05,8.84-17.4,1.23-3.07,2.37-6.55,2.23-10.19-.07-1.8-.49-3.62-1.36-5.17-.86-1.55-2.18-2.8-3.75-3.37-.1-.04-.25.14-.2.2,2.13,2.46,2.96,5.95,2.81,9.32-.15,3.4-1.15,6.73-2.72,9.77-1.68,3.31-3.88,6.35-5.88,9.65-1.04,1.71-2,3.5-2.82,5.39l-.29.65,2.6-.47c.05-.07.21-.21.38-.28l-.07-.07c-.08-.09-.26-.2-.53-.46-.29-.25-.52-.95-.99-1.34-.24-.19-.58-.28-.92-.16-.33.11-.67.43-.78.86Z"/>
      <path class="cls-1" d="M99.27,71.57c-.41-.87-.85-1.72-1.33-2.56-.5-.84-.95-1.61-1.63-2.47-.35-.42-.77-.86-1.32-1.23-.55-.37-1.23-.63-1.89-.73-1.34-.19-2.51.14-3.49.56-.86.38-1.64.76-2.42,1.21-.78.45-1.53.98-2.15,1.64-1.24,1.3-1.96,3.17-1.13,5.34.03.07.23.17.25.13.64-1.51,1.66-2.86,2.91-3.95.62-.54,1.31-1.01,2.03-1.42.73-.41,1.46-.73,2.2-.88.79-.17,1.52-.05,1.96.29.45.33.83.94,1.22,1.71.42.8.81,1.6,1.12,2.43.2.52.18,1.07,1.21,1.2.82.11,2.65-.82,2.44-1.28Z"/>
      <path class="cls-1" d="M101.32,62.22c-.59-2.12-1.63-4.08-3.14-5.7-.77-.81-1.72-1.59-2.98-2.03-1.26-.46-2.82-.36-3.99.22-2.02.95-3.58,2.55-4.4,4.32-.81,1.75-.9,3.87.6,5.72.05.06.27.08.28.03.11-1.75.67-3.48,1.56-5.01.85-1.48,2.23-2.82,3.68-2.99,1.53-.2,2.79,1.1,3.67,2.57.46.76.84,1.56,1.07,2.4.15.53.05,1.03,1.03,1.33.78.25,2.78-.25,2.62-.86Z"/>
      <path class="cls-1" d="M147.66,28.64c-2.33-1.28-4.8-2.01-7.19-2.58-1.2-.28-2.38-.53-3.56-.77-1.19-.24-2.41-.47-3.67-.6-2.14-.25-4.74-.49-7.06.34-2.3.77-4.28,2.58-4.56,5.19,0,.08.16.24.2.2,1.51-1.55,3.51-2.64,5.65-3.15,2.15-.53,4.37-.39,6.57.09,2.35.53,4.81,1.25,7.06,2.01,1.17.41,2.29.84,3.31,1.39.64.34,1.08.85,2.1.42.82-.33,1.79-2.14,1.14-2.52Z"/>
      <path class="cls-1" d="M142.22,29.14c-.69-.98-1.63-1.57-2.51-1.95-.89-.37-1.76-.59-2.61-.73-.42-.08-.84-.13-1.25-.18l-1.18-.14c-.79-.09-1.58-.18-2.39-.26-1.61-.15-3.27-.22-4.96-.1-1.69.13-3.38.46-4.98.98-5.51,1.75-11.52,4.86-13.12,10.87-.03.1.15.25.21.19,2.18-2.08,4.47-4.01,6.97-5.61,2.49-1.59,5.22-2.84,8.06-3.41,3.07-.65,6.17-.25,9.32.3,1.67.3,3.31.5,4.45,1.07.35.17.6.4.83.53.24.14.47.15,1.01.2.4.05,1.12-.02,1.65-.31.53-.27.87-.89.5-1.44Z"/>
      <path class="cls-1" d="M103.42,48.94c-3.91-.66-7.98-.04-11.37,1.97-1.44.85-3.09,1.78-4.19,3.26-1.09,1.45-1.54,3.48-.28,5.4.04.06.26.12.27.08.61-3.16,3.2-5.75,6.16-6.95,1.61-.67,3.34-.93,4.99-.91.43.02.85,0,1.27.06.42.03.83.08,1.23.18.51.08.9.43,1.56-.37.54-.62.91-2.64.35-2.73Z"/>
      <path class="cls-1" d="M110.12,42.67c-2.45-.35-4.93-.53-7.45-.34-2.51.19-5.05.76-7.39,1.94-1.99.99-4.16,2.25-5.61,4.23-1.45,1.92-1.99,4.67-.5,6.8.04.07.27.08.28.02.13-2.08,1.1-4.12,2.55-5.72,1.44-1.61,3.33-2.81,5.36-3.51,2.21-.76,4.55-.93,6.84-.79,1.19.07,2.38.19,3.55.42.73.15,1.38.48,2.2-.28.66-.61.84-2.66.16-2.76Z"/>
      <path class="cls-1" d="M122.63,33.75c-.79-.82-1.68-1.04-2.4-1.17-.72-.12-1.47-.11-2.03-.06-1.21.05-2.41.19-3.6.41-2.38.42-4.7,1.19-6.85,2.3-1.84.94-3.91,1.94-5.49,3.52-1.57,1.56-2.61,3.71-2.07,6.23.02.08.22.18.25.13,1.91-3.75,5.44-6.6,9.38-8.07,2.13-.8,4.37-1.23,6.57-1.31.57-.01,1.14-.05,1.71-.03.27,0,.59,0,.82.02.23.02.45.06.64.11.24.06.4.19.49.19.11.02.14-.19.57-.37.33-.14,1.05-.23,1.57-.52.54-.26.86-.9.42-1.38Z"/>
      <path class="cls-1" d="M129.59,30.42c-3.37-2.01-7.37-2.42-10.95-1.48-1.52.4-3.22.76-4.61,1.65-1.38.89-2.4,2.28-2.4,4.55,0,.07.15.24.18.21,2.23-2.24,5.15-3.78,8.19-4.13,1.62-.19,3.26.03,4.7.51.75.25,1.45.55,2.08.95.41.25.58.64,1.48.15.72-.38,1.75-2.16,1.33-2.41Z"/>
      <path class="cls-1" d="M184.44,34.89c.25.27.62.42.74.45.17.05.36.08.54.08.36,0,.63-.11.81-.2.37-.2.53-.38.67-.53l.42-.54c.29-.34.53-.71.78-1.08.49-.74.9-1.53,1.25-2.34.7-1.62,1.1-3.37,1.14-5.14.04-1.5.15-3.21-.48-4.76-.6-1.51-2-2.81-4.21-2.64-.07,0-.23.16-.21.19,2.12,1.89,2.85,5.06,2.32,7.83-.27,1.51-.91,2.91-1.72,4.1-.44.6-.86,1.2-1.39,1.69l-.25.21s-.08.07-.11.11l-.02.03v.02s-.02,0-.02,0h0s0,0,0,0h0s0,0,0,0h0c-.23-.21.32.28.26.23.1.09.2.19.28.27.34.34.48.66.46.73,0,.02,0,.01,0,0l-.05.12s0,0,0,0c0,0,0,0,.01,0,.04-.03.17,0,.11-.01-.04-.02-.11-.09-.11-.11,0-.03,0,0-.02.02-.17.12.27-.14.38-.41.06-.13.05-.4-.31-.57-.37-.17-.84-.02-1.07.13-.25.15-.43.33-.55.63-.06.15-.09.34-.07.58.03.26.14.6.42.89Z"/>
      <path class="cls-1" d="M192.98,33.46c.72-2.23,1.22-4.56.92-6.91-.13-.99-.07-2.15-.58-3.14-.5-.96-1.59-1.73-3.56-1.36-.06.01-.24.15-.22.17,1.46,1.23,2.04,3.24,1.91,5.11-.06,1.01-.36,1.99-.73,2.88-.19.46-.36.92-.6,1.34-.14.27-.46.42.28,1.02.58.48,2.49,1.22,2.59.9Z"/>
      <path class="cls-1" d="M197.98,34.21c.43-1.73.96-3.45.98-5.26,0-.76.28-1.63.03-2.44-.25-.79-1.03-1.52-2.97-1.59-.06,0-.27.07-.26.09.91,1.24,1.01,2.84.67,4.28-.18.78-.53,1.53-.88,2.22-.18.36-.34.72-.54,1.05-.12.21-.42.34.36.84.62.41,2.56,1.05,2.63.8Z"/>
      <path class="cls-1" d="M245.85,74.87c-1.16-1.66-2.4-3.28-3.86-4.74-1.46-1.46-3.14-2.77-5.1-3.68-1.65-.78-3.55-1.63-5.58-1.61-1.98,0-4.1,1.02-4.75,3.3-.02.07.09.27.13.25,1.44-.88,3.25-1.2,4.99-1.03,1.75.17,3.45.81,4.91,1.76,1.59,1.04,2.89,2.44,4,3.93.58.78,1.14,1.57,1.63,2.41.3.53.42,1.12,1.47,1.1.84-.01,2.49-1.24,2.17-1.7Z"/>
      <path class="cls-1" d="M240,67.9c-1.85-2.05-3.54-4.54-6.28-6.18-1.15-.69-2.45-1.56-4-1.68-1.49-.15-3.27.66-3.62,2.77-.01.06.08.27.11.26.97-.62,2.26-.76,3.45-.51,1.2.25,2.33.86,3.27,1.66,1.02.87,1.82,1.98,2.58,3.12.39.59.8,1.18,1.18,1.8.24.38.32.87,1.28.63.76-.19,2.28-1.58,2.03-1.86Z"/>
      <path class="cls-1" d="M237.73,62.52c-2.44-2.54-4.75-5.51-8.17-7.46-1.44-.82-3.07-1.8-4.95-1.97-1.82-.2-3.92.6-4.63,2.78-.02.07.07.28.1.26,1.35-.7,3.02-.83,4.57-.51,1.57.32,3.05,1.06,4.32,2.04,1.39,1.06,2.53,2.4,3.61,3.8.56.72,1.13,1.44,1.68,2.2.34.47.53,1.05,1.55.85.81-.16,2.24-1.64,1.91-1.99Z"/>
      <path class="cls-1" d="M231.74,56.32c-1.6-2.95-4.01-5.45-7.06-6.85-1.29-.59-2.72-1.36-4.29-1.42-1.54-.07-3.2.63-3.95,2.67-.02.06.04.28.07.27,2.49-1.04,5.49-.44,7.7,1.06,1.21.8,2.2,1.88,2.97,3.02.39.59.78,1.18,1.04,1.81.19.39.12.83,1.12.8.79-.02,2.62-.94,2.39-1.36Z"/>
      <path class="cls-1" d="M227.58,50.32c-1.46-3.21-3.95-5.89-7.13-7.33-1.35-.61-2.86-1.37-4.5-1.39-1.61-.03-3.33.78-3.97,2.87-.02.06.06.28.09.26,2.48-1.25,5.65-.7,7.94.85,1.26.83,2.27,1.95,3.02,3.14.19.32.4.61.55.93.17.31.33.63.44.96.18.41.08.85,1.08.89.8.05,2.69-.74,2.47-1.2Z"/>
      <path class="cls-1" d="M199.99,35.99c.88-1.05,1.77-2.12,2.16-3.46.16-.56.59-1.16.47-1.82-.11-.64-.79-1.32-2.68-1.31-.06,0-.28.06-.27.07.7.74.54,1.85-.02,2.6-.3.41-.74.72-1.14.95-.21.12-.39.25-.6.33-.13.06-.37-.05.16.7.41.6,1.79,2.11,1.93,1.95Z"/>
      <path class="cls-1" d="M204.25,38.73c.95-1.5,1.59-3.18,1.44-4.93-.06-.73.05-1.63-.42-2.35-.44-.69-1.53-1.15-3.19-.2-.05.03-.21.19-.19.2,1.13.38,1.57,1.75,1.29,2.85-.13.6-.48,1.14-.84,1.54-.19.21-.35.41-.56.55-.12.11-.38.03.24.71.48.55,2.07,1.85,2.22,1.62Z"/>
      <path class="cls-1" d="M208.14,40.81c.18-1.68.31-3.38-.2-5.02-.21-.68-.24-1.56-.76-2.18-.51-.6-1.53-.93-3.23-.04-.05.03-.21.19-.19.2,1.22.51,1.83,1.82,1.85,3.07.02.68-.14,1.36-.35,1.96-.11.31-.19.61-.33.9-.08.18-.35.28.51.64.67.3,2.68.72,2.7.47Z"/>
      <path class="cls-1" d="M216.32,38.98c-1.76-1.25-3.88-1.87-5.94-1.51-.86.15-1.93.18-2.73.83-.77.61-1.19,1.91.02,3.44.04.05.23.17.23.15.13-.67.61-1.24,1.22-1.58.61-.35,1.34-.47,2.03-.4.75.07,1.45.4,1.97.79.27.2.53.38.71.62.14.14.07.41.8-.17.59-.45,1.95-1.98,1.68-2.17Z"/>
      <path class="cls-1" d="M221.06,42.34c-1.64-1.28-3.59-2.14-5.64-2.1-.86.02-1.89-.13-2.77.34-.85.44-1.49,1.58-.72,3.36.02.05.18.22.19.2.65-1.29,2.34-1.73,3.7-1.37.75.18,1.41.59,1.92,1.04.26.24.52.45.71.71.14.16.07.44.83-.1.61-.41,2.03-1.89,1.78-2.09Z"/>
    </g>
  </g>
  <path class="cls-2" d="M155.66,33.46c2.75,10.88,2.3,22.22,2.21,33.31-.04,4.82-2.11,9.83-1.75,14.88.35,5.1,3.16,10.27,12.81,16.67.31.2,1.59.33,1.58.17-1.14-11.82.29-22.84,1.87-34.41.85-6.21,1.98-12.52,2.56-18.92.3-3.32.31-6.63.36-9.97.06-2.04,1.07-4.28-4.33-5.17-4.26-.69-15.67,2.01-15.31,3.44Z"/>
  <path class="cls-2" d="M176.23,252.81c-1.35-5.19-.45-10.58-.87-15.86-.37-4.55,6.58-10.37-14.77-12.82-.34-.04-1.62.11-1.57.17,3.4,4.81,3.24,9.89,2.01,15.12-.66,2.81-1.89,5.67-2.85,8.51-.5,1.47-.77,2.92-1.19,4.39-.26.9-1.56,1.87,3.67,2.21,4.13.27,15.76-1.01,15.58-1.71Z"/>
  <g>
    <g>
      <path class="cls-1" d="M226.27,143.58c0,12.38-.3,24.78-2.43,36.88-1.06,6.04-2.58,12-4.73,17.7-2.13,5.72-4.99,11.12-8.41,16.14-3.49,4.99-7.63,9.55-11.91,14.01-4.29,4.45-8.64,8.82-13.55,12.34-4.88,3.49-10.39,6.12-16.25,6.6-2.92.25-5.87.06-8.77-.52-2.91-.56-5.72-1.61-8.46-2.83-4.71-2.14-9.16-5.13-13.38-8.52-4.21-3.4-8.17-7.26-12.04-11.27-7.69-8.02-14.72-16.88-20.15-26.57-5.44-9.68-9.34-20.12-11.8-30.63-2.46-10.52-3.52-21.1-3.42-31.28,0-.64-.27-.33-.32.32-2.18,24.05,3.82,48.57,16.77,68.78,6.48,10.1,14.53,19.1,23.23,27.32,2.18,2.06,4.45,4.04,6.82,5.9,2.35,1.88,4.82,3.63,7.41,5.2,2.57,1.6,5.28,3,8.12,4.12,1.4.6,2.87,1.03,4.33,1.5,1.49.36,2.98.75,4.51.93,3.28.47,6.65.49,9.94-.08,3.29-.57,6.46-1.72,9.42-3.22,5.93-3.01,10.94-7.39,15.6-11.9,4.61-4.57,9.14-9.18,13.28-14.28,2.04-2.55,4.03-5.19,5.7-8.03l1.29-2.11c.43-.7.78-1.45,1.17-2.17l1.14-2.19c.39-.73.68-1.5,1.03-2.24,2.8-6.23,4.78-12.79,6.16-19.43,1.38-6.65,2.19-13.38,2.68-20.11.61-8.28.91-16.4-.07-23.8-.78-5.84-2.93-3.27-2.9,3.43Z"/>
      <path class="cls-1" d="M76.5,107.66c-1.65,2.25-3.04,4.67-4.16,7.21-1.11,2.55-1.92,5.22-2.45,7.94-1.09,5.44-.95,11.16.56,16.55.64,2.32,1.46,4.69,2.65,6.99,1.19,2.28,2.81,4.52,5.01,6.17,1.08.82,2.33,1.5,3.64,1.92,1.3.41,2.66.59,3.97.5,2.61-.16,5.07-1.53,6.06-3.49.07-.12-.13-.27-.23-.2-1.73,1.41-4.2,1.9-6.54,1.54-2.37-.34-4.56-1.54-6.3-3.24-1.75-1.7-3.09-3.82-4.1-6.08-.98-2.28-1.73-4.67-2.12-7.13-.87-5.29-.4-10.74,1.24-15.74.84-2.59,1.95-5.09,3.37-7.38.42-.72.94-1.36,1.34-2.04.38-.71.73-1.4.82-2.3.15-1.43-1.81-2.44-2.74-1.2Z"/>
      <path class="cls-1" d="M241.22,104.16c1.55,1.98,2.85,4.17,3.87,6.49,1.01,2.32,1.72,4.78,2.17,7.27.91,4.99.65,10.17-.71,15.01-1.17,4.17-3.54,8.36-6.72,11.06-1.59,1.38-3.37,2.32-5.42,2.95-2.02.58-4.25.86-6.75.29-.16-.03-.24.2-.1.28,2.46,1.57,5.42,1.85,8.06,1.32,2.67-.51,5.1-1.94,6.99-3.79,1.91-1.85,3.36-4.09,4.52-6.43,1.12-2.36,2.03-4.83,2.6-7.4,1.26-5.52,1.35-11.37,0-16.98-.69-2.91-1.77-5.73-3.17-8.4-.41-.83-.85-1.65-1.4-2.37-.51-.74-1.22-1.31-2.1-1.66-1.38-.55-2.67,1.32-1.85,2.36Z"/>
      <path class="cls-1" d="M162.5,170.78c2.4,1.18,4.96,1.46,7.35,1.54,1.2.03,2.38,0,3.54-.04,1.13-.05,2.39-.04,3.82-.46.7-.21,1.45-.57,2.07-1.09.63-.51,1.13-1.17,1.48-1.84.7-1.36.89-2.73.98-3.99.04-.64.04-1.25.03-1.86l-.06-1.74c-.05-1.16-.11-2.32-.2-3.48-.29-3.98-.48-8.29-1.37-12.43-.88-4.13-2.48-8.08-5.36-11.09-.09-.1-.3.03-.27.14,2.91,8.23,4.27,16.93,4.45,25.66,0,2.34.18,4.81-.49,6.66-.33.93-.87,1.56-1.57,1.87-.7.33-1.7.39-2.84.39-2.43,0-4.82,0-6.95-.47-1.35-.3-2.3-.89-3.77-.64-.59.08-1.15.6-1.38,1.2-.23.59-.11,1.34.55,1.65Z"/>
      <path class="cls-1" d="M129.78,194.01c1.3-2.31,2.73-4.55,3.72-7.03.42-1.06,1.16-2.11,1.36-3.33.21-1.2-.11-2.55-1.82-3.93-.05-.04-.29-.07-.29-.04.06,2.44-.76,4.76-1.96,6.85-.65,1.13-1.44,2.17-2.24,3.17-.41.52-.8,1.05-1.23,1.55-.26.31-.68.49-.08,1.32.48.66,2.35,1.76,2.53,1.44Z"/>
      <path class="cls-1" d="M178.57,189.27c-3.36,1.85-7.13,3.01-11,3.89-3.89.85-7.88,1.66-11.77,2.07-3.9.4-7.8.3-11.38-.83-1.79-.56-3.52-1.39-5.2-2.36l-1.26-.75-1.06-.67-1.19-.77-4.82-3.23v.43s.07.56.07.56l.12,1.11.25,2.13c.17,1.42.52,3.02,1.01,4.59.58,1.81,1.28,3.49,2.04,5.14.91,1.97,1.8,3.92,2.83,5.95,1.04,2.01,2.21,4.06,3.82,5.94.8.93,1.71,1.82,2.73,2.59.52.38,1.05.74,1.62,1.06.24.15.71.37,1.02.48.34.13.67.24.98.32,2.5.65,4.82.78,7.17.81,4.66,0,9.28-.66,13.52-2.24,2.11-.78,4.11-1.83,5.82-3.18,1.69-1.35,3.05-3.09,3.53-4.92.07-.22-.21-.24-.32-.04-.99,1.84-2.83,3.24-4.81,4.3-2.01,1.05-4.22,1.78-6.47,2.31-4.52,1.03-9.25,1.37-13.88,1.01-1.15-.1-2.31-.25-3.41-.5-.54-.13-1.09-.28-1.54-.5-.46-.24-.97-.54-1.41-.86-1.83-1.3-3.31-3.09-4.53-5.03-1.22-1.96-2.23-4.08-3.22-6.22-.99-2.15-1.96-4.29-2.68-6.49l-.22-.69-.1-.38c-.06-.25-.12-.49-.16-.72-.04-.24-.08-.47-.1-.69-.01-.11-.02-.22-.03-.33v-.16s.09.06.13.09l1.2.86.28.2.15.1.25.16c.44.28.89.56,1.35.83,1.82,1.07,3.75,2.04,5.83,2.71,4.17,1.36,8.58,1.47,12.78,1.09,2.72-.25,5.39-.69,8.02-1.16,2.63-.47,5.29-1,7.94-1.72,3.23-.87,6.59-1.95,8.75-4.39.83-.97.68-1.75.09-2.12-.6-.37-1.6-.34-2.7.26Z"/>
      <path class="cls-1" d="M169.63,221.99c-.67-.94-1.66-1.34-2.42-1.52-.79-.18-1.5-.21-2.18-.18-1.29.07-2.42.19-3.62.43-1.01.21-2.18.15-3.2.62-1,.46-1.84,1.45-1.92,3.6,0,.07.1.28.13.26,1.74-1.33,3.89-1.86,6.04-1.95.58-.03,1.16-.01,1.74.03.28.02.59.05.85.08.25.04.49.08.71.14.45.12.85.29.9.45,0,.02,0,.05,0,.07-.04.05.09-.1.09-.1.01-.02.07-.06.05-.05.05-.04.22-.15.43-.23.35-.15,1.05-.38,1.61-.68.56-.28.97-.71.78-.97Z"/>
      <path class="cls-1" d="M134.8,118.14c-.21,2.05-1.4,4.06-3.01,5.24-.38.27-.75.44-1.02.48-.26.04-.43-.01-.65-.13-.44-.24-.98-1.09-1.2-1.96-.21-.8-.19-1.75,0-2.57.18-.84.52-1.56.91-2.18.36-.58.86-1.18,1.53-1.8.68-.61,1.56-1.34,3.09-1.69.1-.02.17-.25.09-.28-1.46-.54-2.98-.36-4.22.17-1.25.53-2.33,1.48-3,2.63-.69,1.14-1.02,2.45-1.1,3.74-.07,1.3.05,2.61.57,3.92.28.69.67,1.37,1.27,1.97.59.59,1.48,1.08,2.45,1.14.98.07,1.88-.23,2.59-.61.74-.39,1.32-.85,1.88-1.35,1.16-1.05,2.06-2.38,2.71-3.83.4-.87.88-1.85.02-2.81-.69-.73-2.88-.55-2.92-.05Z"/>
      <path class="cls-1" d="M203.46,116.77c-.21,2.05-1.4,4.06-3.01,5.24-.38.27-.75.44-1.02.48-.26.04-.43-.01-.65-.13-.44-.24-.98-1.09-1.2-1.96-.21-.8-.19-1.75,0-2.57.18-.84.52-1.56.91-2.18.36-.58.86-1.18,1.53-1.8.68-.61,1.56-1.34,3.09-1.69.1-.02.17-.25.09-.28-1.46-.54-2.98-.36-4.22.17-1.25.53-2.33,1.48-3,2.63-.69,1.14-1.02,2.45-1.1,3.74-.07,1.3.05,2.61.57,3.92.28.69.67,1.37,1.27,1.97.59.59,1.48,1.08,2.45,1.14.98.07,1.87-.23,2.59-.61.74-.39,1.32-.85,1.88-1.35,1.16-1.05,2.06-2.38,2.71-3.83.4-.87.88-1.85.02-2.81-.69-.73-2.88-.55-2.92-.05Z"/>
      <path class="cls-1" d="M148.06,94.91c-6.21-1.01-12.41-2.1-18.6-3.22-1.5-.24-3.17-.71-5.21-.44-2.05.33-3.59,1.37-4.92,2.25l-8.8,6,1.98,8.03.79-.61c.58-.44,1.15-.89,1.74-1.33l.88-.67.84-.62.59-.42.47-.32c.31-.21.63-.41.94-.61,1.27-.78,2.57-1.44,3.9-1.86,2.58-.88,5.47-.42,8.72,0,3.21.4,6.42.67,9.58.71.79,0,1.57,0,2.36-.02.39-.01.92-.01,1.42-.2.49-.18.88-.53,1.14-.88.99-1.45.89-2.9,1.7-4.47.1-.2-.14-.29-.3-.11-.64.76-1,1.52-1.39,2.2-.37.66-.76,1.29-1.16,1.56-.19.12-.38.2-.63.21-.27,0-.69-.06-1.08-.1l-2.37-.29c-3.16-.4-6.31-.83-9.46-1.28-1.58-.22-3.19-.46-4.85-.47-1.65-.04-3.37.24-4.94.82-1.58.57-3.03,1.37-4.41,2.26l-1.02.68-.79.55-1.07.76c-.12-.5-.22-1.02-.31-1.48l-.17-.85,8.02-5.15c.69-.42,1.38-.78,2.04-1.01.67-.23,1.26-.3,1.98-.26,1.39.1,3.16.57,4.81.89l11.27,2.26c2.31.47,4.54,1.12,6.79.54,1.78-.46,1.43-2.72-.47-3.03Z"/>
      <path class="cls-1" d="M184.83,94.47c5.99-2.03,12.01-3.98,18.05-5.92,1.54-.5,2.94-.98,3.97-.86,1.05.09,2.3.8,3.6,1.63l7.1,4.49-.14,1-.04-.03-.23-.18-.03-.02h0s-.11-.08-.11-.08l-.52-.35-1.06-.68c-1.44-.89-3.03-1.72-4.84-2.26-1.8-.56-3.88-.65-5.68-.36-1.83.27-3.48.79-5.04,1.28-3.14.99-6.21,2.09-9.14,3.38-.72.32-1.48.67-2.15,1-.48.3-.96.35-1.58-.02-1.21-.74-2.32-2.18-3.56-2.69-.15-.06-.25.17-.15.27.46.42.91,1.06,1.38,1.72.49.66.95,1.4,1.83,2.05.48.34,1.06.53,1.64.53.28,0,.61-.07.82-.13l.61-.19,2.3-.73c3.07-.96,6.15-1.89,9.24-2.8,3.06-.93,6.16-1.71,9.07-.68,1.46.45,2.84,1.19,4.17,2.01.71.45,1.18.76,2.26,1.52l2.88,2.08c.19-1.4.39-2.8.59-4.21l.39-2.82-2.67-1.74-2.13-1.41-4.28-2.84c-.75-.48-1.55-.96-2.49-1.32-.92-.37-2.08-.57-3.12-.47-1.04.08-1.96.34-2.8.58l-2.46.72-11.18,3.34c-2.29.68-4.6,1.17-6.35,2.74-1.38,1.25,0,3.08,1.85,2.45Z"/>
      <path class="cls-1" d="M81.08,283.45c-4.91-2.36-9.49-5.44-13.57-9.08-2.04-1.82-3.95-3.78-5.71-5.86-1.77-2.09-3.39-4.28-4.76-6.6-2.73-4.63-4.65-9.84-4.8-15.06-.06-2.6.31-5.19,1.3-7.54.95-2.36,2.47-4.47,4.35-6.3,3.24-3.18,7.55-5.54,12.02-7.8,4.47-2.26,9.1-4.34,13.75-6.29,2.32-.97,4.71-1.94,7.03-3.13,2.32-1.19,4.57-2.62,6.47-4.42,1.91-1.81,3.38-4,4.2-6.34.83-2.32.93-4.83.18-6.86-.08-.26-.31-.08-.28.17.31,2.4-.37,4.93-1.68,7.1-1.3,2.19-3.15,4.05-5.3,5.51-4.33,2.96-9.52,4.55-14.47,6.71-4.97,2.12-9.83,4.46-14.59,7.06-2.38,1.31-4.71,2.75-6.89,4.45-2.16,1.72-4.18,3.7-5.71,6.1-1.64,2.58-2.69,5.54-3.05,8.58-.39,3.04-.09,6.12.58,9.07,1.38,5.9,4.26,11.35,7.91,16.08,3.77,4.92,8.3,9.25,13.35,12.88,3.11,2.2,6.31,4.32,9.82,4.86,2.76.4,2.49-2.05-.14-3.29Z"/>
      <path class="cls-1" d="M84.3,284.34c-.72-3.56-1-7.21-.84-10.86.18-3.64.81-7.26,1.82-10.77,1.02-3.5,2.43-6.89,4.23-10.07,1.82-3.16,4.03-6.09,6.57-8.69,2.48-2.64,5.51-4.88,8.37-7.46,2.86-2.56,5.71-5.53,7.4-9.33,1.7-3.79,2.03-7.97,1.72-11.88-.31-3.94-1.19-7.71-2.09-11.4l-3.18.84c2.97,10.7.08,22.78-6.98,31.32-1.78,2.12-3.79,4.05-6.02,5.67-2.26,1.62-4.77,3.03-7.29,4.5-2.53,1.47-5.1,3-7.52,4.91-2.42,1.87-4.63,4.32-6.04,7.28-1.11,2.34-1.58,5-1.53,7.54.04,2.56.52,5.03,1.26,7.44,1.52,4.81,4.31,9.26,8.13,12.74l2.41-2.82c-7.27-5.97-13.65-13.23-18.71-21.31-2.52-4.04-4.83-8.21-5.24-12.51-.19-2.12.09-4.3.92-6.15.83-1.87,2.19-3.3,4.07-4.29,1.86-1,4.1-1.59,6.4-2.2,2.33-.59,4.72-1.33,6.97-2.21,4.54-1.76,8.79-4.09,12.6-6.89,3.79-2.79,7.25-5.98,9.89-9.69,2.63-3.68,4.38-7.96,4.36-12.14.01-.65-.27-.33-.33.32-.45,4.45-2.77,8.59-5.76,12.05-3.01,3.47-6.71,6.39-10.63,8.89-3.93,2.49-8.18,4.47-12.6,5.92-2.21.74-4.47,1.25-6.78,1.83-2.3.59-4.68,1.33-6.75,2.76-2.09,1.41-3.62,3.62-4.35,5.98-.76,2.37-.88,4.9-.47,7.32.39,2.42,1.26,4.72,2.31,6.88,1.05,2.16,2.29,4.2,3.56,6.2,5.11,8.02,11.53,15.21,18.91,21.25l.98-1.14c-4.87-4.42-8.03-10.74-8.5-17.28-.11-1.62,0-3.25.36-4.8.37-1.55,1.05-3.02,1.92-4.36,1.76-2.69,4.4-4.76,7.19-6.57,3.95-2.57,8.33-4.63,12.32-7.55,3.98-2.94,7.34-6.71,9.8-11,5.01-8.51,6.67-19.03,4.1-28.73l-2.7.71c.98,4.14,1.89,8.27,2.01,12.35.12,4.07-.72,8.05-2.95,11.3-3.73,5.58-10.27,9.15-15.29,14.81-2.52,2.77-4.64,5.88-6.43,9.16-1.78,3.28-3.22,6.76-4.19,10.37-1.24,4.42-1.91,8.98-1.83,13.43.07,4.44.9,8.77,2.51,12.57.16.38.31.71.45,1.01.13.26.32.69.65,1.01.32.34.92.67,1.55.38.42-.2.51-.61.49-.78,0-.2-.07-.33-.14-.44-.07-.11-.16-.2-.28-.27-.11-.07-.32-.1-.42-.03-.18.14-.08.25-.05.3.04.04.17.14.15.12-.03-.03-.04-.09-.04-.08,0,0-.03.07-.12.13-.09.06-.19.1-.23.1-.03,0,.06-.02.17.01.12.02.17.12.13.04,0-.01,0-.02,0-.04v-.02s0,0,0,0c-.03-.45,0-.12-.02-.22h0s0,0,0,0v.03s0,0,.01-.03c.03-.06.12-.21.32-.37.09-.07.05-.07.07-.15.02-.08,0-.4-.03-.68-.1-1.16-.43-2.59-.73-4.3Z"/>
      <path class="cls-1" d="M106.86,222.72c-1.97,2.57-4.59,4.67-7.44,6.45-2.86,1.79-5.95,3.29-9.09,4.8-3.13,1.49-6.37,3.07-9.39,5.04-3.03,1.95-5.93,4.29-8.24,7.27-1.01,1.27-1.87,2.71-2.62,4.23-.74,1.53-1.25,3.21-1.57,4.93-.62,3.45-.21,7,.72,10.21.95,3.22,2.39,6.15,4.06,8.78,1.68,2.62,3.56,5,5.65,7.13.13.13.31-.05.22-.21-1.55-2.96-3.13-5.93-4.54-8.92-1.4-3-2.63-6.08-3.28-9.28-.67-3.18-.69-6.51.31-9.56.46-1.53,1.19-2.98,2.09-4.3.9-1.33,1.94-2.57,3.13-3.67,2.55-2.4,5.54-4.31,8.69-5.94,3.13-1.64,6.47-2.99,9.78-4.56,3.43-1.61,6.86-3.45,10.01-5.87,1.92-1.47,3.87-3.15,4.39-5.52.2-.93-.29-1.51-.94-1.69-.66-.19-1.43.01-1.95.7Z"/>
      <path class="cls-1" d="M133.33,242.83c.41-2.06,1.36-3.95,2.21-5.84.37-.82,1.09-1.53,1.4-2.43.31-.9.21-2-1.01-3.77-.04-.06-.25-.17-.26-.14-.63,2.1-1.67,3.88-2.8,5.72-.61.99-1.28,1.96-1.87,2.99-.31.53-.56,1.08-.84,1.64-.17.34-.52.63.32,1.2.66.45,2.78.91,2.84.64Z"/>
      <path class="cls-1" d="M147.35,248.05c0-1.75.41-3.45.57-5.19.14-1.49,1.67-3.07-2.08-4.83-.06-.03-.3-.04-.29-.02.39,1.71.13,3.36-.33,5-.25.88-.6,1.76-.91,2.63-.16.45-.27.91-.42,1.37-.09.28-.37.54.56.88.74.27,2.9.39,2.9.15Z"/>
      <path class="cls-1" d="M170.94,248.44c-.83-.7-1.15-1.82-1.45-2.82-.13-.45.1-.98-.09-1.42-.19-.46-.84-.83-2.75-1.53-.06-.02-.3-.03-.29-.01.46,1.42.52,2.65.66,4.07.08.75.15,1.56.37,2.35.11.41.28.8.47,1.19.1.24.09.62.96.15.68-.37,2.22-1.9,2.12-1.98Z"/>
      <path class="cls-1" d="M192.6,239.84c-1.2-1.08-2.08-2.45-3.15-3.65-.92-1.03-.96-3.13-4.73-1.48-.06.03-.23.19-.21.2,1.44.78,2.38,1.99,3.19,3.35.43.73.79,1.53,1.18,2.3.2.4.44.77.65,1.16.13.24.12.6.99.14.69-.37,2.25-1.88,2.09-2.02Z"/>
      <path class="cls-1" d="M207.31,226.52c-1.68-.59-3.05-1.79-4.35-2.95-.57-.51-.89-1.31-1.52-1.81-.63-.5-1.58-.69-3.65-.27-.07.01-.26.16-.24.18,1.54,1.29,2.69,2.72,3.97,4.22.69.8,1.39,1.64,2.19,2.39.42.39.87.73,1.33,1.08.28.22.49.6,1.17-.15.53-.59,1.31-2.62,1.09-2.7Z"/>
      <path class="cls-1" d="M216.92,209.77c-1.02-.56-1.78-1.45-2.69-2.14-.79-.6-.86-2.38-3.95.18-.05.04-.19.24-.17.24,1.21.22,2.02.97,2.72,1.88.38.49.69,1.07,1.03,1.6.18.28.38.52.56.79.11.16.11.48.82-.18.56-.52,1.82-2.29,1.68-2.37Z"/>
      <path class="cls-1" d="M227.45,195.2c-1.36-1.74-2.8-3.46-4.69-4.66-.8-.5-1.58-1.29-2.6-1.53-1-.24-2.23.09-3.33,1.88-.03.06-.06.29-.04.29,1.84-.23,3.62.62,4.91,1.87.71.67,1.25,1.5,1.72,2.3.24.42.49.82.68,1.25.13.26.05.62,1.01.31.76-.24,2.54-1.46,2.35-1.71Z"/>
      <path class="cls-1" d="M117.85,226.44c1.2-1.83,2.74-3.41,4.08-5.15,1.15-1.49,3.56-2.36,1.54-6.14-.03-.06-.23-.19-.24-.17-.84,2-2.21,3.59-3.74,5.07-.82.8-1.73,1.53-2.6,2.29-.45.4-.87.82-1.31,1.22-.27.25-.69.37-.13,1.22.44.67,2.23,1.9,2.39,1.65Z"/>
      <path class="cls-1" d="M97.3,198.51c1.64-1,3.46-1.62,5.17-2.46,1.48-.73,3.77-.33,3.42-4.51,0-.07-.12-.27-.14-.26-1.4,1.31-3.08,2.02-4.87,2.55-.96.29-1.97.49-2.96.72-.51.12-1,.29-1.51.42-.31.08-.7,0-.53.98.14.78,1.18,2.68,1.41,2.54Z"/>
      <path class="cls-1" d="M90.74,172.26c-.48.02-.96.02-1.44,0l-.75,3.02c1.32.64,2.69,1.25,4.14,1.57.84.18,1.73.66,2.67.58.93-.08,1.89-.73,2.45-2.73.02-.06-.01-.3-.03-.29-1.6.67-3.38.42-4.92-.27-.83-.37-1.59-.91-2.28-1.45-.19-.14-.38-.29-.57-.43l-.84,3.36.69.16c.3.07.58.34.89-.61.25-.75.24-2.92,0-2.91Z"/>
      <path class="cls-1" d="M233.46,173.07c-1.77-.42-3.41-1.24-5.13-1.82-1.48-.5-2.73-2.38-5.37.86-.04.05-.11.28-.08.28,1.83.03,3.43.69,4.99,1.54.84.46,1.64,1.02,2.46,1.53.43.26.86.49,1.29.74.26.15.46.49,1.02-.33.44-.65,1.05-2.74.81-2.79Z"/>
    </g>
    <g>
      <path class="cls-1" d="M77.11,107.69c.06.09.09.18.09.19,0,.01,0-.07.02-.17v-.03s.02-.02.02-.02h0c-.04.09.09-.23-.09.21h0s0,0,0,0h.03s.05.04.09.06c.07.04.15.12.24.22.36.39.84,1.2,1.27,1.9.86,1.44,1.65,2.92,2.37,4.43.75,1.52,1.29,3.03,2.07,4.73.4.84.86,1.69,1.52,2.53.65.82,1.6,1.66,2.88,2.03,1.07.32,2.33.22,3.29-.17.99-.37,1.79-.93,2.49-1.52.71-.6,1.29-1.24,1.83-1.89.54-.66,1.03-1.36,1.46-2.1,1.71-2.92,2.28-6.47.92-9.46-.04-.09-.27-.09-.28,0-.29,3.16-1.43,6.27-3.25,8.9-.92,1.3-1.97,2.58-3.22,3.38-.62.39-1.3.63-1.91.6-.62-.03-1.19-.3-1.67-.77-1.05-1.03-1.67-2.68-2.25-4.32-.6-1.71-1.28-3.42-2.04-5.08-.4-.86-.82-1.72-1.27-2.56l-.69-1.25c-.23-.4-.48-.86-.86-1.37-.48-.6-1.08-1.4-2.45-1.63-.63-.07-1.22.06-1.72.37-.49.3-.88.83-.97,1.39-.07.45.14.76.4.91.26.15.59.18.89.22.15.02.3.03.42.06.12.02.29.1.24.08,0,0,.06.03.12.13Z"/>
      <path class="cls-1" d="M76.16,106.12c.61.3,1.23.93,1.86,1.68.63.75,1.28,1.62,2.16,2.45.9.85,2.15,1.49,3.38,1.78,1.25.3,2.44.24,3.55.14,1.9-.21,3.81-.38,5.41-.67.82-.16,1.52-.34,2.3-.59.8-.28,1.68-.5,3.03-.69.09-.01.2-.21.14-.24-1.01-.61-2.12-.93-3.2-1.04-1.08-.09-2.1.02-3.11.14-1.98.28-3.91.7-5.74.63-.97-.04-1.9-.24-2.62-.65-.35-.24-.69-.45-.97-.76-.29-.3-.57-.66-.85-1.05-.58-.8-1.18-1.74-2.02-2.73-.49-.58-1.14-1.4-2.28-.95-.44.19-.75.8-.93,1.38-.18.58-.29,1.08-.13,1.16Z"/>
      <path class="cls-1" d="M76.92,107.45c1.22-1.63,2.96-2.89,4.86-3.59,1.91-.7,3.96-.83,5.88-.4,1.69.37,3.21,1.5,4.66,2.55,1.48,1.09,3,2.06,5.52,2.99.08.03.27-.1.23-.15-1.27-2.01-2.84-3.75-4.67-5.15-1.83-1.4-3.96-2.47-6.33-2.91-2.54-.48-5.27-.19-7.74.83-1.28.53-2.48,1.28-3.56,2.17-.65.54-1.45,1.04-1.19,2.2.21.89,2.04,1.88,2.34,1.46Z"/>
      <path class="cls-1" d="M79.46,98.68c.02-.2.18-.49.41-.68.12-.1.22-.16.37-.22.16-.06.34-.1.54-.12.8-.09,2.08.17,3.2.42,2.26.52,4.4,1.38,6.23,2.62,1.61,1.07,2.71,2.75,3.76,4.38,1.04,1.68,2.11,3.18,3.91,5.34.06.07.28.04.28-.03-.2-2.6-1.07-5-2.36-7.11-1.28-2.12-3.07-3.95-5.18-5.32-2.27-1.49-4.83-2.51-7.46-3.14-.67-.16-1.41-.32-2.29-.33-.87,0-1.9.16-2.85.78-.55.36-1.06.8-1.37,1.39-.3.58-.36,1.34.06,1.94.34.48,1.05.45,1.64.35.6-.12,1.1-.18,1.11-.27Z"/>
      <path class="cls-1" d="M77.06,97.7c.53-2.35,2.14-4.46,4.22-5.7,2.08-1.26,4.61-1.6,6.68-.78,1.91.72,3.39,2.54,4.9,4.33,1.53,1.8,3.23,3.67,5.94,4.82.09.04.27-.1.23-.17-1.51-2.27-2.92-4.62-4.67-6.78-1.73-2.13-3.91-4.18-6.87-4.97-3.17-.82-6.65.06-9.29,2.02-1.38,1.02-2.54,2.35-3.43,3.88-.14.23-.27.47-.41.7-.11.24-.21.49-.28.75-.16.5-.11,1.06.22,1.61.53.86,2.63.87,2.76.28Z"/>
      <path class="cls-1" d="M81.36,87.9c1.07-1.6,3.01-2.52,5.02-2.56,1-.03,2.01.13,2.95.47.94.33,1.79.84,2.63,1.49,1.43,1.13,2.42,2.89,3.52,4.54,1.11,1.67,2.38,3.29,4.72,4.64.07.04.28-.05.26-.11-.94-2.19-1.93-4.32-3.16-6.34-1.23-2.01-2.73-3.94-4.73-5.41-2.17-1.61-5.02-2.51-7.92-2.13-1.5.2-2.99.77-4.29,1.68-.76.56-1.69,1.18-1.4,2.4.23.92,2.17,1.72,2.41,1.34Z"/>
      <path class="cls-1" d="M82.27,80.08c1.45-.96,3.23-1.43,4.97-1.36,1.75.06,3.42.61,4.87,1.54,1.28.82,2.19,2.2,3.16,3.44.99,1.28,2.1,2.41,4.27,3.7.07.04.28-.03.26-.09-.69-1.98-1.61-3.8-2.79-5.45-1.18-1.64-2.63-3.13-4.43-4.24-1.93-1.19-4.25-1.92-6.65-1.89-1.24.01-2.48.24-3.69.63-.72.24-1.57.4-1.66,1.54-.06.88,1.31,2.44,1.67,2.2Z"/>
      <path class="cls-1" d="M80.48,87.78c.43-2.38,1.26-4.69,2.48-6.7,1.2-2,2.87-3.7,4.75-4.62,1.64-.78,3.68-.6,5.42-.15,1.78.5,3.44.98,6.05,2.34.08.04.28-.08.24-.14-1.3-2.5-3.68-4.17-6.23-4.77-2.54-.62-5.35-.3-7.7,1.07-2.5,1.43-4.48,3.66-5.92,6.11-.74,1.28-1.32,2.63-1.83,4.01-.31.84-.76,1.67-.02,2.63.58.75,2.65.85,2.76.22Z"/>
      <path class="cls-1" d="M239.42,102.47c-1.45,1.1-2.93,2.14-4.43,3.17l-1.13.77c-.38.26-.76.52-1.07.7-.32.19-.62.32-.81.36-.16.04-.15,0-.23-.02-.04-.03-.04-.02-.17-.19-.11-.15-.24-.37-.38-.63-.82-1.55-1.24-3.42-1.9-5.13-.67-1.74-1.61-3.34-3.65-4.89-.07-.05-.29,0-.27.06.52,2.09,1.07,4.12,1.72,6.13.33,1,.68,2,1.07,2.99.2.49.4.99.61,1.47.21.48.42.99.78,1.53.23.35.61.77,1.08,1.02.61.36,1.45.41,2.1.26.64-.14,1.16-.38,1.64-.63l2.53-1.42c1-.6,2-1.19,3-1.78.62-.36,1.33-.57,1.33-1.68,0-.88-1.36-2.42-1.82-2.07Z"/>
      <path class="cls-1" d="M244.59,103.08c.22-.89.08-1.71-.2-2.37-.28-.68-.7-1.25-1.27-1.73-1.33-1.05-2.74-1.01-3.83-.92-1.12.12-1.94.31-2.78.36-.84.06-1.67.05-2.45-.07-.68-.09-1.33-.35-1.91-.68-.57-.32-1.07-.72-1.59-1.12-.52-.41-1.05-.8-1.72-1.24-.67-.44-1.47-.92-2.48-1.67-.07-.05-.29,0-.27.06.5,2.07,1.68,3.76,3.18,5.02,1.51,1.28,3.44,1.98,5.39,2.23,1.05.14,2.11.16,3.16.11,1.05-.06,1.99-.16,2.61,0,.3.07.59.23.62.31.1.12.23.33.26.52.02.12-.04.22,0,.24.04.04.23,0,.62.26.3.19.82.68,1.35.95.52.28,1.17.23,1.31-.27Z"/>
      <path class="cls-1" d="M246.45,102.07c-.14-2.76-1.28-5.35-3.24-7.28-.99-.95-2.22-1.75-3.65-2.13-1.45-.39-2.85-.29-4.09-.12-2.1.32-4.19.55-5.39.22-.73-.15-1.45-.37-2.23-.66-.77-.3-1.71-.78-2.56-2-.06-.08-.28-.06-.28.02.02,1.45.76,2.75,1.71,3.59.97.84,2.11,1.36,3.32,1.6,2.49.4,4.72-.4,6.8-.37,1.13-.02,2.11.23,2.94.76.85.51,1.53,1.28,2.06,2.12.55.87.92,1.86,1.07,2.84.08.63-.08,1.15.8,1.73.71.5,2.76.49,2.75-.32Z"/>
      <path class="cls-1" d="M247.64,102.85c.42-2.95.03-5.93-1.11-8.64-1.11-2.72-3.17-5.15-5.78-6.63-1.12-.64-2.34-1.23-3.66-1.6-1.31-.39-2.76-.54-4.12-.37-1.34.17-2.47.57-3.52,1.06-1.05.49-2.02,1.13-3.42,1.72-.09.04-.11.27-.03.28,2.96.46,5.42-.6,7.83-.61,2.4-.05,4.78.84,6.61,2.33,2,1.6,3.24,3.91,3.76,6.31.28,1.24.39,2.51.3,3.74-.06.78-.37,1.41.37,2.27.59.7,2.62.99,2.77.15Z"/>
      <path class="cls-1" d="M248.9,97.16c.57-3.09.15-6.25-1.08-9.08-.62-1.41-1.47-2.75-2.57-3.91-1.09-1.15-2.51-2.11-4-2.68-2.57-1.04-5.64-1.37-8.3-.68-2.67.67-4.91,2.19-6.23,4.75-.04.08.08.27.14.24,2.31-1.26,4.75-2.27,7.29-2.68,2.52-.41,5.16-.1,7.24,1.22,2.21,1.4,3.57,3.85,4.15,6.32.3,1.29.44,2.62.31,3.89-.1.8-.4,1.46.29,2.36.56.75,2.58,1.12,2.76.24Z"/>
      <path class="cls-1" d="M249.62,82.33c-1.13-1.8-2.26-3.65-3.69-5.39-1.44-1.72-3.17-3.36-5.55-4.27-2.02-.74-4.52-1.1-6.73-.08-1.08.49-2.03,1.35-2.5,2.42-.48,1.06-.45,2.3.19,3.3.04.06.26.11.27.07.27-1.7,1.69-3.14,3.45-3.65,1.75-.54,3.73-.27,5.24.68,1.7,1.04,2.95,2.66,4.01,4.39.55.9,1.08,1.83,1.57,2.8.3.6.42,1.28,1.51,1.36.86.06,2.54-1.13,2.24-1.62Z"/>
      <path class="cls-1" d="M162.67,42.1c-.66-3.02-1.51-6.02-2.72-8.92-1.21-2.89-2.8-5.68-4.95-8.09-1.84-2.05-4.04-4.23-6.85-5.4-1.39-.58-2.91-.89-4.39-.77-1.47.12-2.89.68-3.94,1.72-.07.06,0,.28.07.27,2.63-.51,5.48.08,7.92,1.38,2.46,1.3,4.56,3.25,6.17,5.51,1.75,2.45,2.94,5.25,3.79,8.11.45,1.48.83,2.99,1.11,4.52.17.95.13,1.89,1.17,2.58.83.55,2.8-.08,2.62-.91Z"/>
      <path class="cls-1" d="M163.16,46.36c-1.17-3.26-2.92-6.27-5-8.96-2.08-2.7-4.51-5.07-7.06-7.22-2.2-1.84-4.47-3.92-6.97-5.56-1.27-.83-2.75-1.6-4.41-1.84-.82-.11-1.7-.08-2.47.21-.77.28-1.39.82-1.66,1.48-.04.08.1.27.15.24.98-.64,2.44-.5,3.78.09,1.36.57,2.61,1.45,3.88,2.37,2.53,1.82,4.96,3.78,7.2,5.93,2.41,2.31,4.54,4.88,6.23,7.63.9,1.42,1.63,2.9,2.26,4.42.17.48.3.96.53,1.39.21.44.51.82,1.09,1.12.92.48,2.79-.39,2.46-1.29Z"/>
      <path class="cls-1" d="M165.11,44.56c-.91-7.2-2.61-14.36-5.68-20.99-.65-1.42-1.32-2.95-2.24-4.46-.92-1.49-2.14-3.01-3.88-4.01-.22-.12-.44-.23-.67-.34-.25-.1-.5-.21-.75-.29-.51-.15-1.03-.25-1.54-.27-1.03-.05-2.04.16-2.91.6-.87.44-1.59,1.12-1.98,1.92-.4.8-.43,1.67-.15,2.38.03.09.26.11.28.04.13-.64.47-1.24.99-1.7.51-.47,1.2-.76,1.92-.91.73-.14,1.5-.11,2.22.1.71.2,1.39.61,2.02,1.09,1.24.98,2.2,2.35,3,3.79.8,1.45,1.45,3.01,2.05,4.59,1.3,3.4,2.2,6.93,2.83,10.48.33,1.84.62,3.68.8,5.53.11,1.14,0,2.27,1.01,3.21.8.75,2.8.22,2.68-.76Z"/>
      <path class="cls-1" d="M168.8,46.17c-.33-3.85-.12-7.79,0-11.8.12-3.99.12-8.14-.7-12.24-.69-3.48-1.69-7.43-4.22-10.6-.33-.38-.64-.77-1.01-1.11-.41-.37-.57-.6-1.38-1.18-.68-.46-1.52-.63-2.27-.4-.74.19-1.43.8-1.67,1.08-1.37,1.42-2.12,3.25-2.12,5.02,0,.11.22.19.26.1.41-.78.91-1.52,1.51-2.18.3-.33.61-.64.95-.93.17-.15.34-.28.52-.42.18-.13.37-.27.47-.33.24-.16.56-.26.84-.13.28.13.45.31.81.69.65.65,1.19,1.39,1.71,2.15,2.02,3.09,3.02,6.79,3.41,10.5.45,4.02.09,8.08-.22,12.18-.16,2.13-.29,4.29-.36,6.48-.04,1.34-.23,2.7.77,3.85.78.9,2.79.28,2.7-.74Z"/>
      <path class="cls-1" d="M173.2,44.71c1.42-6.69,2.08-13.57,1.47-20.4-.21-2.31-.36-4.77-.84-7.19-.23-1.22-.55-2.38-.99-3.57-.24-.61-.54-1.24-.97-1.84-.43-.6-1.03-1.17-1.77-1.49-.91-.42-1.86-.21-2.43.27-.6.47-.69,1.27-.34,1.73.04.07.25.09.25.05-.02-.29.19-.57.47-.68.3-.13.7-.11.99.07.81.51,1.29,1.72,1.61,2.92.33,1.24.62,2.5.86,3.77.46,2.54.71,5.12.76,7.7.05,3.42-.22,6.83-.78,10.17-.26,1.73-.6,3.45-1,5.15-.26,1.05-.71,2-.06,3.16.52.92,2.58,1.11,2.77.19Z"/>
      <path class="cls-1" d="M177.23,38.99c1.3-2.7,2.67-5.42,3.75-8.33,1.07-2.89,1.85-6.03,1.86-9.24.03-2.72-.1-5.84-1.52-8.59-.35-.68-.76-1.32-1.27-1.89-.48-.57-1.08-1.14-1.86-1.55-.39-.2-.83-.35-1.29-.39-.46-.05-.97.05-1.31.27-.75.42-.95,1.35-.51,1.73.05.05.28.07.27.05-.05-.19.21-.5.61-.53.33-.05.89.23,1.31.66.88.9,1.59,2.17,2.09,3.42,1.01,2.55,1.21,5.4.89,8.13-.36,2.96-1.44,5.77-2.74,8.45-.68,1.39-1.4,2.78-2.19,4.15-.48.84-1.13,1.58-.73,2.78.32.95,2.28,1.62,2.63.89Z"/>
      <path class="cls-1" d="M172.85,44.34c-.18.66-.18,1.3-.02,1.93.15.63.5,1.29,1.12,1.8l1.67,1.36.7-2.03c2.04-5.91,6.26-11.05,8.84-17.4,1.23-3.07,2.37-6.55,2.23-10.19-.07-1.8-.49-3.62-1.36-5.17-.86-1.55-2.18-2.8-3.75-3.37-.1-.04-.25.14-.2.2,2.13,2.46,2.96,5.95,2.81,9.32-.15,3.4-1.15,6.73-2.72,9.77-1.68,3.31-3.88,6.35-5.88,9.65-1.04,1.71-2,3.5-2.82,5.39l-.29.65,2.6-.47c.05-.07.21-.21.38-.28l-.07-.07c-.08-.09-.26-.2-.53-.46-.29-.25-.52-.95-.99-1.34-.24-.19-.58-.28-.92-.16-.33.11-.67.43-.78.86Z"/>
      <path class="cls-1" d="M99.27,71.57c-.41-.87-.85-1.72-1.33-2.56-.5-.84-.95-1.61-1.63-2.47-.35-.42-.77-.86-1.32-1.23-.55-.37-1.23-.63-1.89-.73-1.34-.19-2.51.14-3.49.56-.86.38-1.64.76-2.42,1.21-.78.45-1.53.98-2.15,1.64-1.24,1.3-1.96,3.17-1.13,5.34.03.07.23.17.25.13.64-1.51,1.66-2.86,2.91-3.95.62-.54,1.31-1.01,2.03-1.42.73-.41,1.46-.73,2.2-.88.79-.17,1.52-.05,1.96.29.45.33.83.94,1.22,1.71.42.8.81,1.6,1.12,2.43.2.52.18,1.07,1.21,1.2.82.11,2.65-.82,2.44-1.28Z"/>
      <path class="cls-1" d="M101.32,62.22c-.59-2.12-1.63-4.08-3.14-5.7-.77-.81-1.72-1.59-2.98-2.03-1.26-.46-2.82-.36-3.99.22-2.02.95-3.58,2.55-4.4,4.32-.81,1.75-.9,3.87.6,5.72.05.06.27.08.28.03.11-1.75.67-3.48,1.56-5.01.85-1.48,2.23-2.82,3.68-2.99,1.53-.2,2.79,1.1,3.67,2.57.46.76.84,1.56,1.07,2.4.15.53.05,1.03,1.03,1.33.78.25,2.78-.25,2.62-.86Z"/>
      <path class="cls-1" d="M147.66,28.64c-2.33-1.28-4.8-2.01-7.19-2.58-1.2-.28-2.38-.53-3.56-.77-1.19-.24-2.41-.47-3.67-.6-2.14-.25-4.74-.49-7.06.34-2.3.77-4.28,2.58-4.56,5.19,0,.08.16.24.2.2,1.51-1.55,3.51-2.64,5.65-3.15,2.15-.53,4.37-.39,6.57.09,2.35.53,4.81,1.25,7.06,2.01,1.17.41,2.29.84,3.31,1.39.64.34,1.08.85,2.1.42.82-.33,1.79-2.14,1.14-2.52Z"/>
      <path class="cls-1" d="M142.22,29.14c-.69-.98-1.63-1.57-2.51-1.95-.89-.37-1.76-.59-2.61-.73-.42-.08-.84-.13-1.25-.18l-1.18-.14c-.79-.09-1.58-.18-2.39-.26-1.61-.15-3.27-.22-4.96-.1-1.69.13-3.38.46-4.98.98-5.51,1.75-11.52,4.86-13.12,10.87-.03.1.15.25.21.19,2.18-2.08,4.47-4.01,6.97-5.61,2.49-1.59,5.22-2.84,8.06-3.41,3.07-.65,6.17-.25,9.32.3,1.67.3,3.31.5,4.45,1.07.35.17.6.4.83.53.24.14.47.15,1.01.2.4.05,1.12-.02,1.65-.31.53-.27.87-.89.5-1.44Z"/>
      <path class="cls-1" d="M103.42,48.94c-3.91-.66-7.98-.04-11.37,1.97-1.44.85-3.09,1.78-4.19,3.26-1.09,1.45-1.54,3.48-.28,5.4.04.06.26.12.27.08.61-3.16,3.2-5.75,6.16-6.95,1.61-.67,3.34-.93,4.99-.91.43.02.85,0,1.27.06.42.03.83.08,1.23.18.51.08.9.43,1.56-.37.54-.62.91-2.64.35-2.73Z"/>
      <path class="cls-1" d="M110.12,42.67c-2.45-.35-4.93-.53-7.45-.34-2.51.19-5.05.76-7.39,1.94-1.99.99-4.16,2.25-5.61,4.23-1.45,1.92-1.99,4.67-.5,6.8.04.07.27.08.28.02.13-2.08,1.1-4.12,2.55-5.72,1.44-1.61,3.33-2.81,5.36-3.51,2.21-.76,4.55-.93,6.84-.79,1.19.07,2.38.19,3.55.42.73.15,1.38.48,2.2-.28.66-.61.84-2.66.16-2.76Z"/>
      <path class="cls-1" d="M122.63,33.75c-.79-.82-1.68-1.04-2.4-1.17-.72-.12-1.47-.11-2.03-.06-1.21.05-2.41.19-3.6.41-2.38.42-4.7,1.19-6.85,2.3-1.84.94-3.91,1.94-5.49,3.52-1.57,1.56-2.61,3.71-2.07,6.23.02.08.22.18.25.13,1.91-3.75,5.44-6.6,9.38-8.07,2.13-.8,4.37-1.23,6.57-1.31.57-.01,1.14-.05,1.71-.03.27,0,.59,0,.82.02.23.02.45.06.64.11.24.06.4.19.49.19.11.02.14-.19.57-.37.33-.14,1.05-.23,1.57-.52.54-.26.86-.9.42-1.38Z"/>
      <path class="cls-1" d="M129.59,30.42c-3.37-2.01-7.37-2.42-10.95-1.48-1.52.4-3.22.76-4.61,1.65-1.38.89-2.4,2.28-2.4,4.55,0,.07.15.24.18.21,2.23-2.24,5.15-3.78,8.19-4.13,1.62-.19,3.26.03,4.7.51.75.25,1.45.55,2.08.95.41.25.58.64,1.48.15.72-.38,1.75-2.16,1.33-2.41Z"/>
      <path class="cls-1" d="M184.44,34.89c.25.27.62.42.74.45.17.05.36.08.54.08.36,0,.63-.11.81-.2.37-.2.53-.38.67-.53l.42-.54c.29-.34.53-.71.78-1.08.49-.74.9-1.53,1.25-2.34.7-1.62,1.1-3.37,1.14-5.14.04-1.5.15-3.21-.48-4.76-.6-1.51-2-2.81-4.21-2.64-.07,0-.23.16-.21.19,2.12,1.89,2.85,5.06,2.32,7.83-.27,1.51-.91,2.91-1.72,4.1-.44.6-.86,1.2-1.39,1.69l-.25.21s-.08.07-.11.11l-.02.03v.02s-.02,0-.02,0h0s0,0,0,0h0s0,0,0,0h0c-.23-.21.32.28.26.23.1.09.2.19.28.27.34.34.48.66.46.73,0,.02,0,.01,0,0l-.05.12s0,0,0,0c0,0,0,0,.01,0,.04-.03.17,0,.11-.01-.04-.02-.11-.09-.11-.11,0-.03,0,0-.02.02-.17.12.27-.14.38-.41.06-.13.05-.4-.31-.57-.37-.17-.84-.02-1.07.13-.25.15-.43.33-.55.63-.06.15-.09.34-.07.58.03.26.14.6.42.89Z"/>
      <path class="cls-1" d="M192.98,33.46c.72-2.23,1.22-4.56.92-6.91-.13-.99-.07-2.15-.58-3.14-.5-.96-1.59-1.73-3.56-1.36-.06.01-.24.15-.22.17,1.46,1.23,2.04,3.24,1.91,5.11-.06,1.01-.36,1.99-.73,2.88-.19.46-.36.92-.6,1.34-.14.27-.46.42.28,1.02.58.48,2.49,1.22,2.59.9Z"/>
      <path class="cls-1" d="M197.98,34.21c.43-1.73.96-3.45.98-5.26,0-.76.28-1.63.03-2.44-.25-.79-1.03-1.52-2.97-1.59-.06,0-.27.07-.26.09.91,1.24,1.01,2.84.67,4.28-.18.78-.53,1.53-.88,2.22-.18.36-.34.72-.54,1.05-.12.21-.42.34.36.84.62.41,2.56,1.05,2.63.8Z"/>
      <path class="cls-1" d="M245.85,74.87c-1.16-1.66-2.4-3.28-3.86-4.74-1.46-1.46-3.14-2.77-5.1-3.68-1.65-.78-3.55-1.63-5.58-1.61-1.98,0-4.1,1.02-4.75,3.3-.02.07.09.27.13.25,1.44-.88,3.25-1.2,4.99-1.03,1.75.17,3.45.81,4.91,1.76,1.59,1.04,2.89,2.44,4,3.93.58.78,1.14,1.57,1.63,2.41.3.53.42,1.12,1.47,1.1.84-.01,2.49-1.24,2.17-1.7Z"/>
      <path class="cls-1" d="M240,67.9c-1.85-2.05-3.54-4.54-6.28-6.18-1.15-.69-2.45-1.56-4-1.68-1.49-.15-3.27.66-3.62,2.77-.01.06.08.27.11.26.97-.62,2.26-.76,3.45-.51,1.2.25,2.33.86,3.27,1.66,1.02.87,1.82,1.98,2.58,3.12.39.59.8,1.18,1.18,1.8.24.38.32.87,1.28.63.76-.19,2.28-1.58,2.03-1.86Z"/>
      <path class="cls-1" d="M237.73,62.52c-2.44-2.54-4.75-5.51-8.17-7.46-1.44-.82-3.07-1.8-4.95-1.97-1.82-.2-3.92.6-4.63,2.78-.02.07.07.28.1.26,1.35-.7,3.02-.83,4.57-.51,1.57.32,3.05,1.06,4.32,2.04,1.39,1.06,2.53,2.4,3.61,3.8.56.72,1.13,1.44,1.68,2.2.34.47.53,1.05,1.55.85.81-.16,2.24-1.64,1.91-1.99Z"/>
      <path class="cls-1" d="M231.74,56.32c-1.6-2.95-4.01-5.45-7.06-6.85-1.29-.59-2.72-1.36-4.29-1.42-1.54-.07-3.2.63-3.95,2.67-.02.06.04.28.07.27,2.49-1.04,5.49-.44,7.7,1.06,1.21.8,2.2,1.88,2.97,3.02.39.59.78,1.18,1.04,1.81.19.39.12.83,1.12.8.79-.02,2.62-.94,2.39-1.36Z"/>
      <path class="cls-1" d="M227.58,50.32c-1.46-3.21-3.95-5.89-7.13-7.33-1.35-.61-2.86-1.37-4.5-1.39-1.61-.03-3.33.78-3.97,2.87-.02.06.06.28.09.26,2.48-1.25,5.65-.7,7.94.85,1.26.83,2.27,1.95,3.02,3.14.19.32.4.61.55.93.17.31.33.63.44.96.18.41.08.85,1.08.89.8.05,2.69-.74,2.47-1.2Z"/>
      <path class="cls-1" d="M199.99,35.99c.88-1.05,1.77-2.12,2.16-3.46.16-.56.59-1.16.47-1.82-.11-.64-.79-1.32-2.68-1.31-.06,0-.28.06-.27.07.7.74.54,1.85-.02,2.6-.3.41-.74.72-1.14.95-.21.12-.39.25-.6.33-.13.06-.37-.05.16.7.41.6,1.79,2.11,1.93,1.95Z"/>
      <path class="cls-1" d="M204.25,38.73c.95-1.5,1.59-3.18,1.44-4.93-.06-.73.05-1.63-.42-2.35-.44-.69-1.53-1.15-3.19-.2-.05.03-.21.19-.19.2,1.13.38,1.57,1.75,1.29,2.85-.13.6-.48,1.14-.84,1.54-.19.21-.35.41-.56.55-.12.11-.38.03.24.71.48.55,2.07,1.85,2.22,1.62Z"/>
      <path class="cls-1" d="M208.14,40.81c.18-1.68.31-3.38-.2-5.02-.21-.68-.24-1.56-.76-2.18-.51-.6-1.53-.93-3.23-.04-.05.03-.21.19-.19.2,1.22.51,1.83,1.82,1.85,3.07.02.68-.14,1.36-.35,1.96-.11.31-.19.61-.33.9-.08.18-.35.28.51.64.67.3,2.68.72,2.7.47Z"/>
      <path class="cls-1" d="M216.32,38.98c-1.76-1.25-3.88-1.87-5.94-1.51-.86.15-1.93.18-2.73.83-.77.61-1.19,1.91.02,3.44.04.05.23.17.23.15.13-.67.61-1.24,1.22-1.58.61-.35,1.34-.47,2.03-.4.75.07,1.45.4,1.97.79.27.2.53.38.71.62.14.14.07.41.8-.17.59-.45,1.95-1.98,1.68-2.17Z"/>
      <path class="cls-1" d="M221.06,42.34c-1.64-1.28-3.59-2.14-5.64-2.1-.86.02-1.89-.13-2.77.34-.85.44-1.49,1.58-.72,3.36.02.05.18.22.19.2.65-1.29,2.34-1.73,3.7-1.37.75.18,1.41.59,1.92,1.04.26.24.52.45.71.71.14.16.07.44.83-.1.61-.41,2.03-1.89,1.78-2.09Z"/>
    </g>
  </g>
</svg>