<?xml version="1.0" encoding="UTF-8"?>
<svg id="Calque_2" data-name="Calque 2" xmlns="http://www.w3.org/2000/svg" viewBox="0 0 300 300">
  <defs>
    <style>
      .cls-1 {
        fill: #1d1d1d;
      }

      .cls-2 {
        fill: #1db4b8;
      }
    </style>
  </defs>
  <path class="cls-2" d="M214.78,154.85c-11.43,1.73-23.1,1.81-34.62.75-5.76-.53-11.49-1.35-17.17-2.4l-4.25-.83-4.23-.92c-2.85-.64-6.02-1.4-9.57-1.89-1.53-.21-3.15-.4-4.85-.51-1.7-.1-3.43-.14-5.09-.08-3.34.1-6.52.49-9.49.96-2.96.48-5.72,1.05-8.25,1.59-2.52.53-5,1.09-7.49,1.74-4.97,1.29-9.85,2.95-14.75,5.55-4.9,2.6-9.81,6.15-15.01,11.21-.33.32-.21,1.61.12,1.58,12.11-1.1,23.87-2.72,35.51-5.12,5.86-1.16,11.54-2.8,16.89-3.44,2.69-.32,5.26-.37,7.75-.06,2.52.31,5.12.98,7.85,1.76,2.93.85,6.11,1.79,9.22,2.64,1.56.42,3.13.85,4.71,1.24,1.57.41,3.15.79,4.74,1.15,6.35,1.47,12.79,2.7,19.3,3.53,6.76.86,13.59,1.18,20.44,1.31,4.19.06,8.54,1.07,11.65-4.5,1.22-2.19,1.1-6.12.32-9.45-.79-3.33-2.21-6.06-3.75-5.82Z"/>
  <path class="cls-2" d="M151.07,272.46c-.6-6.7.82-13.36.68-20.09-.06-2.88,1.67-6.06.74-9.08-.93-3.01-4.53-5.84-15.17-7.55-.34-.05-1.61.1-1.56.18,3.46,5.85,3.18,12.11,1.64,18.28-.83,3.33-2.28,6.62-3.53,9.87-.65,1.68-1.08,3.36-1.68,5.03-.37,1.03-1.78,1.97,3.32,3.13,4.03.93,15.65,1.16,15.56.23Z"/>
  <g>
    <g>
      <path class="cls-1" d="M212.12,185.48c-.25,5.63-.86,11.25-1.84,16.81-.49,2.78-1.07,5.54-1.73,8.28-.66,2.75-1.4,5.43-2.54,7.86-1.12,2.44-2.75,4.49-4.79,6.32-2.02,1.84-4.33,3.46-6.62,5.23-4.57,3.51-8.99,7.29-12.9,11.62-3.91,4.32-7.28,9.27-9.52,14.75-1.09,2.68-2.02,5.31-3.58,7.26-.78.97-1.68,1.72-2.8,2.28-1.11.56-2.37.96-3.71,1.29-5.46,1.3-11.04,2.36-16.58,2.56-5.52.21-11.1-.47-15.93-2.84l-1.53-.81c-.49-.3-.97-.63-1.46-.95-.96-.65-1.86-1.4-2.72-2.2-1.71-1.61-3.23-3.49-4.57-5.53-2.71-4.08-4.81-8.71-7.16-13.35-4.66-9.4-11.1-18.15-18.85-25.36-1.93-1.79-3.82-3.44-5.25-5.31-.72-.93-1.3-1.9-1.74-2.94-.44-1.05-.74-2.19-.98-3.39-.45-2.39-.75-4.98-1.11-7.47-.34-2.51-.67-5-1-7.48-1.25-9.92-2.46-19.57-3.62-28.81-.07-.58-.28-.27-.26.33.46,10.98,1.28,21.92,2.44,32.82.29,2.72.61,5.44.94,8.16.34,2.71.76,5.56,2.13,8.12,1.37,2.54,3.41,4.53,5.4,6.4,2.02,1.86,3.95,3.74,5.78,5.75,3.68,3.99,6.99,8.33,9.87,12.94,2.93,4.58,5.17,9.55,7.71,14.44,2.53,4.86,5.47,9.74,9.81,13.43,2.17,1.81,4.63,3.3,7.27,4.31,2.64,1.03,5.41,1.65,8.2,1.97,6.03.68,12.07.03,17.94-1.04,1.47-.28,2.93-.57,4.39-.89,1.45-.32,2.94-.66,4.42-1.22,1.47-.56,2.96-1.38,4.12-2.55,1.19-1.15,2.05-2.52,2.76-3.9.71-1.38,1.27-2.79,1.83-4.15.55-1.37,1.14-2.66,1.8-3.94,1.32-2.55,2.91-4.97,4.68-7.25,3.56-4.56,7.84-8.55,12.4-12.21,2.36-1.92,4.8-3.67,7.3-5.56,2.47-1.9,4.96-4.07,6.81-6.89,1.84-2.8,2.88-5.92,3.72-8.94.81-3.02,1.51-6.04,2.11-9.09,1.47-7.5,2.44-15.02,1.71-21.89-.29-2.71-.97-3.46-1.55-2.78-.59.68-1.06,2.78-1.2,5.83Z"/>
      <path class="cls-1" d="M73.04,140.48c-1.06-.62-2.15-.71-3.26-.39-.28.09-.55.21-.81.38-.13.09-.26.18-.38.28l-.28.26c-.36.37-.65.79-.86,1.22-.82,1.74-.76,3.32-.83,4.71-.09,2.86.01,5.73.38,8.59.37,2.86,1,5.69,1.94,8.44.95,2.77,2.23,5.27,3.03,7.76.35,1.07.59,2.16.67,3.24.09,1.07-.02,2.15-.2,3.38-.17,1.22-.4,2.55-.39,4.01,0,1.45.25,2.87.64,4.2.4,1.33.92,2.56,1.53,3.72.62,1.17,1.24,2.2,2,3.29.76,1.06,1.91,2.23,3.39,2.35.7.03,1.35-.2,1.79-.59.45-.39.61-.92.45-1.32-.04-.1-.26-.09-.26-.03-.02.16-.1.29-.2.4-.12.12-.3.23-.51.29-.43.13-.92.11-1.31-.1-.91-.46-1.56-1.58-2.13-2.75-1.18-2.38-2.29-4.79-2.74-7.32-.23-1.27-.26-2.53-.12-3.83.13-1.3.37-2.63.45-4.02.17-2.85-.67-5.61-1.64-8.14-.52-1.37-1.07-2.71-1.54-4.04-.47-1.33-.86-2.68-1.18-4.05-.63-2.74-.96-5.54-1.04-8.35-.04-1.45-.03-2.91.04-4.37.08-1.45.14-2.98.55-3.82.12-.26.27-.43.41-.56.03-.03.09-.06.09-.08.02.02,0,0,.02,0,.01-.01.05-.03.11-.05.11-.05.28-.09.44-.14.16-.04.31-.14.51-.2.36-.15,1.04.29,1.61.08.28-.11.56-.41.57-.93.02-.52-.33-1.17-.91-1.52Z"/>
      <path class="cls-1" d="M225.18,146.57c.19-.6.46-1.13.75-1.44.3-.33.74-.55,1.03-.57.15,0,.24.01.37.06.12.06.29.19.47.38.18.19.38.46.56.75.18.28.38.56.53.87,1.32,2.38,1.73,5.25,1.57,8.1-.26,5.8-2.95,11.26-4.78,17.26-.79,2.58-1.51,5.4-1.68,8.35-.18,2.89-.03,5.66-.38,8.11-.33,2.47-1.21,4.41-3.19,5.87-.97.74-2.12,1.39-3.25,2.08-1.14.68-2.24,1.42-3.29,2.21-.13.1.01.28.16.23,1.39-.5,2.77-.99,4.16-1.49,1.4-.51,2.84-1.09,4.13-2.03,1.3-.93,2.31-2.26,2.89-3.71.6-1.45.85-2.98.96-4.48.23-2.99-.01-5.93.4-8.75.39-2.83,1.29-5.59,2.3-8.33,1.09-2.96,2.34-5.89,3.25-9.03.89-3.14,1.45-6.46,1.15-9.88-.16-1.77-.58-3.56-1.33-5.24-.2-.41-.41-.83-.63-1.24-.25-.4-.48-.79-.75-1.18-.29-.4-.64-.84-1.15-1.24-.49-.4-1.22-.76-1.96-.84-.91-.12-1.75.09-2.45.42-.7.34-1.28.81-1.73,1.4-.85,1.15-1.03,2.37-.86,3.39.32,1.64,2.38,1.32,2.77-.04Z"/>
      <path class="cls-1" d="M113.79,140.67c1.23.58,1.98,2.41,1.6,3.76-.16.68-.57,1.21-1.15,1.61-.58.4-1.33.62-2.05.64-.62,0-1.24-.22-1.65-.58-.43-.34-.72-.82-1-1.37-.27-.56-.52-1.18-.77-1.94-.25-.77-.51-1.69-.49-3.03,0-.09-.18-.21-.22-.16-.76,1-1.12,2.16-1.18,3.29-.06,1.13.17,2.25.67,3.26.26.5.6.97,1,1.38.42.4.89.74,1.42.99,1.05.49,2.24.63,3.39.48,1.23-.19,2.48-.7,3.45-1.68,1-.96,1.56-2.39,1.61-3.78.05-1.45-.38-2.9-1.25-4.13-.5-.74-1.24-1.61-2.37-1.19-.44.17-.73.77-.9,1.33-.16.56-.25,1.06-.1,1.13Z"/>
      <path class="cls-1" d="M178.53,138.96c.68-.26,1.73.03,2.46.7.36.33.65.74.81,1.15.08.21.12.42.15.62.01.23,0,.47-.02.71-.27,1.93-2.38,3.68-4.41,3.76-.91.07-1.88-.21-2.63-.69-.75-.47-1.27-1.17-1.52-1.79-.26-.64-.34-1.55-.19-2.53.16-.96.47-2.16,1.79-3.19.08-.07.02-.28-.07-.26-.87.13-1.65.55-2.25,1.1-.6.55-1.03,1.21-1.33,1.91-.58,1.39-.65,3.04.07,4.44.69,1.36,1.95,2.34,3.32,2.87,1.38.53,2.91.67,4.41.33,1.61-.38,3.07-1.28,4.17-2.59,1.08-1.3,1.82-3.13,1.44-5.12-.45-2.04-1.91-3.61-3.81-4.4-.6-.22-1.24-.44-1.92-.38-.66.04-1.33.36-1.68.99-.28.51.01,1.11.36,1.58.37.48.69.83.86.78Z"/>
      <path class="cls-1" d="M122.53,135.23c-10.24-1.06-20.63-.65-30.75,1.3-1.26.26-2.53.51-3.78.81l-1.07.25c-.57.14-1.1.36-1.5.72-.41.37-.67.89-.75,1.43-.04.27-.04.56-.01.85l.07.69.76,7.58.38,3.79c.16,1.21.12,2.63.91,4.27.4.81,1.13,1.55,1.81,1.97.7.45,1.35.74,1.96.97l1.86.73,1.89.61c2.19.63,4.46,1.12,6.78,1.43,2.31.3,4.66.45,7.02.48,4.71.04,9.43-.4,14.03-1.07,1.15-.17,2.29-.35,3.43-.54.55-.1,1.18-.18,1.9-.4.7-.21,1.58-.64,2.19-1.38.6-.72.85-1.49,1.02-2.12.16-.65.24-1.18.35-1.75.2-1.12.38-2.24.53-3.36.61-4.46.82-8.85.56-13.02-.02-.26-.25-.16-.29.1-.61,4.81-1.45,9.59-2.5,14.32l-.4,1.77c-.14.59-.26,1.19-.45,1.68-.18.5-.43.91-.79,1.16-.37.26-.87.42-1.43.52-2.36.36-4.79.69-7.19.98-4.81.55-9.65.91-14.46.59-2.4-.16-4.79-.46-7.12-1.01-2.32-.54-4.6-1.34-6.75-2.31-.55-.27-1.03-.57-1.35-.93-.32-.35-.53-.81-.67-1.35-.25-1.08-.29-2.48-.42-3.77l-.67-7.87-.17-1.97-.04-.49v-.16s-.02-.08-.02-.08c0-.11,0-.22.06-.3.06-.09.18-.12.27-.14l.17-.03.48-.1c.64-.13,1.27-.28,1.91-.4,2.55-.51,5.12-.9,7.69-1.21,5.34-.64,10.73-.85,16.09-.61,3.31.15,6.48.64,9.54.15,2.43-.38,1.71-2.48-1.08-2.79Z"/>
      <path class="cls-1" d="M165.12,132.73c10.62-1.18,21.46-.51,31.88,1.89,1.3.31,2.6.62,3.89.99l.97.27c.34.09.62.17.8.25.23.1.22.14.24.28l-.02,7.99-.03,8.15v1.02c0,.36,0,.66-.03.82-.02.12-.02.11-.05.15-.04.04-.01.03-.2.12-.32.15-1.06.31-1.7.47-.65.15-1.3.33-1.95.46-9,2.05-18.93,2.54-28.6,1.96-2.42-.15-4.83-.34-7.22-.59-.62-.06-1.17-.11-1.45-.2-.15-.05-.22-.07-.32-.14-.1-.07-.22-.2-.34-.38-.25-.34-.52-.92-.78-1.43-.26-.52-.52-1.04-.77-1.57-2-4.22-3.48-8.6-4.63-12.99-.07-.28-.28-.12-.26.17.45,5.31,1.78,10.51,3.9,15.35.27.6.5,1.22.95,1.86.22.32.51.63.87.86.36.23.74.37,1.1.46.73.17,1.34.22,2,.31.65.08,1.3.18,1.95.25,2.6.31,5.21.49,7.83.61,5.23.21,10.48.06,15.7-.51,2.61-.28,5.21-.64,7.8-1.13,1.29-.23,2.58-.5,3.87-.79l1.93-.45c.64-.17,1.46-.33,2.18-1.09.35-.38.56-.9.63-1.39.07-.46.06-.84.06-1.18l.03-2.11.07-4.22.15-8.45.04-2.13c0-.21,0-.4-.04-.69-.04-.29-.11-.58-.23-.84-.23-.54-.65-.98-1.16-1.28-1.03-.55-1.6-.59-2.3-.83-.69-.2-1.37-.41-2.06-.58-2.75-.76-5.54-1.37-8.35-1.88-5.83-1.06-11.77-1.56-17.71-1.56-3.65,0-7.28.03-10.42,1.28-2.47,1-1.07,2.8,1.78,2.46Z"/>
      <path class="cls-1" d="M153.77,133.8c-3.89-.29-7.8-.55-11.71-.17-1.67.16-3.52.1-5.25.57-1.72.46-3.33,1.45-4.3,3.58-.03.07.05.27.1.25,3.31-1.48,6.93-2.05,10.54-2.05,1.95,0,3.89.19,5.8.45.99.13,1.98.25,2.96.43.61.1,1.16.4,1.81-.4.52-.64.58-2.62.04-2.65Z"/>
      <g>
        <path class="cls-1" d="M88.91,129.32c1.24-1.9,2.5-3.78,3.77-5.66l.95-1.39c.29-.42.57-.74.77-.87.18-.12.35-.16.82-.18.44,0,1.08.03,1.63.05l13.6.49c1.95.06,3.97.2,6.02.32,2.02.12,3.98.27,5.77.64,1.8.38,3.36.93,4.66,2.01.66.51,1.25,1.3,1.96,2.05.69.75,1.56,1.44,2.43,1.52.11.01.2-.19.13-.24-.67-.44-1.18-1.3-1.67-2.26-.25-.48-.51-.99-.83-1.49-.33-.5-.71-.98-1.14-1.39-1.74-1.71-4.06-2.4-6.24-2.78-2.21-.38-4.43-.41-6.59-.52-2.17-.12-4.35-.24-6.53-.36l-7.04-.49-3.52-.26-1.76-.13c-.56-.03-1.26-.14-2.17.06-.47.1-.97.33-1.34.61-.39.27-.69.58-.94.87-.51.6-.82,1.08-1.19,1.57l-2.15,2.96c-.89,1.21-1.9,2.3-1.94,3.9-.03,1.27,1.87,1.99,2.54.96Z"/>
        <path class="cls-1" d="M89.69,130.51c2.9-1.61,6.33-2.23,9.79-2.42,3.47-.18,7.03,0,10.62.2,6.18.3,13.11,1.89,19.15-1.38.1-.05.06-.27-.03-.27-6.93.17-13.78-.26-20.69-.87-3.71-.32-7.48-.66-11.36-.43-2.01.13-4.04.48-6.04,1.06-1.21.37-2.54.68-3.11,2.02-.44,1.03.94,2.52,1.68,2.09Z"/>
      </g>
      <g>
        <path class="cls-1" d="M198.78,128.17c-1.3-1.86-2.58-3.72-3.85-5.6l-.96-1.42c-.35-.5-.78-1.11-1.51-1.62-.36-.25-.82-.46-1.25-.56-.43-.11-.82-.14-1.16-.15-.69,0-1.19.02-1.77.02l-13.61.29c-1.95.06-3.98.03-6.03.03-2.07,0-4.29.06-6.51.66-1.11.3-2.22.75-3.22,1.43-1,.67-1.87,1.58-2.42,2.63-1.18,2.19-.55,4-1.7,6.09-.07.13.11.26.22.16,1.06-.93,1.51-2.11,1.94-3.1.41-1.02.83-1.88,1.5-2.59,1.32-1.46,3.37-2.18,5.43-2.53,2.08-.36,4.23-.35,6.42-.37,2.18,0,4.36-.01,6.54-.02l7.06.08,3.53.06,1.76.03c.61,0,1.1.03,1.34.12.21.08.36.22.65.59.25.35.59.91.91,1.42l1.94,3.1c.79,1.27,1.42,2.62,2.9,3.25,1.17.5,2.54-.99,1.84-2Z"/>
        <path class="cls-1" d="M196.89,128.38c-3.49-1.74-7.29-2.43-10.97-2.72-3.71-.27-7.34-.19-10.92,0-6.19.29-13.37-.62-18.94,3.21-.09.06-.02.28.07.26,6.85-.83,13.7-1.06,20.61-1.11,3.72-.02,7.43.16,10.96.76,1.83.32,3.6.76,5.26,1.42,1.02.43,1.86,1.02,3.13.75,1.04-.22,1.77-2.07.81-2.57Z"/>
      </g>
      <path class="cls-1" d="M182.73,202.88c-6.77,7.74-15.34,14.08-25.04,17.11-4.17,1.32-8.87,1.7-13.4,1.62-4.57-.08-8.96-.56-13.63-.86-.15,0-.18.22-.05.27,4.79,2.06,9.93,3,15.04,3.03,5.12.03,10.23-.84,15.11-2.52,5.25-1.82,10.21-4.49,14.71-7.76,2.34-1.7,4.54-3.58,6.65-5.55,1.28-1.22,2.67-2.33,3.06-4.11.31-1.39-1.54-2.27-2.45-1.22Z"/>
      <path class="cls-1" d="M187.23,217.19c.59-2.2,1.21-4.44,1.53-6.8.32-2.34.34-4.84-.29-7.24-.51-2.03-1.28-4.41-3.03-6.08-.85-.81-1.76-1.34-2.71-1.7-.96-.37-1.98-.54-3.27-.86-.08-.02-.24.13-.2.18,1.6,1.85,3.53,2.87,4.81,4.45,1.3,1.55,2.01,3.55,2.25,5.57.26,2.19-.09,4.39-.66,6.52-.29,1.11-.62,2.21-1.02,3.31-.24.68-.67,1.28-.03,2.16.5.7,2.45,1.08,2.62.48Z"/>
      <path class="cls-1" d="M154.56,179.79c-.25,2.29-1.46,4.52-3.21,6.12-1.75,1.61-4.04,2.58-6.34,2.53-2.31-.03-4.63-.99-6.41-2.53-1.8-1.56-2.97-3.63-3.28-5.96-.29-2.04.05-4.3.47-6.66.43-2.39.85-4.84,1.16-7.27.62-4.87.78-9.74-.31-14.32-.03-.14-.26-.11-.28.03-.54,5.16-1.22,10.28-2.01,15.39-.4,2.56-.81,5.12-1.22,7.69-.36,2.59-.53,5.38.41,8.07,1.02,2.87,3.16,5.27,5.83,6.77,2.64,1.5,5.98,2.1,9.09,1.22,3.21-.88,5.93-3.08,7.66-5.9.54-.87,1.01-1.79,1.26-2.76.24-.97.26-1.99-.13-2.91-.32-.73-.98-.87-1.56-.71-.6.17-1.05.59-1.14,1.19Z"/>
      <path class="cls-1" d="M89.91,220.58c.13-.79.69-1.4,1.11-2.05.19-.28.64-.39.75-.74.11-.36-.12-.96-1.15-2.46-.03-.05-.19-.19-.2-.18-.27,1.01-.86,1.61-1.58,2.24-.39.34-.84.66-1.25,1.04-.21.2-.38.42-.57.64-.12.13-.39.21.38.65.61.34,2.49.95,2.5.85Z"/>
      <path class="cls-1" d="M97.37,226.69c.13-.77.66-1.37,1.01-2.03.33-.61,1.71-.47-.86-3.01-.04-.04-.22-.16-.22-.15-.05.96-.54,1.58-1.17,2.18-.34.32-.76.62-1.13.96-.19.17-.35.37-.52.56-.11.11-.38.17.39.6.61.34,2.47.98,2.49.89Z"/>
      <path class="cls-1" d="M104.68,235.61c.2-.74.74-1.32,1.09-1.99.29-.58,1.75-.69-1.16-2.82-.05-.03-.24-.13-.24-.11.13.87-.29,1.47-.86,2-.31.28-.71.52-1.06.78-.18.14-.33.29-.51.43-.11.09-.37.09.36.58.58.39,2.36,1.23,2.39,1.13Z"/>
      <path class="cls-1" d="M108.71,244.17s.28-.1.55-.04c.27.04.5.17.37.1l-.05-.03-.04-.02h-.02s0-.02,0-.02h0s0,0,0,0c-.07-.05.64.42.34.22h0s.05-.07.05-.07l.11-.14.23-.27c.31-.35.64-.7.92-1.07.5-.67,1.99-.57-.28-3.47-.04-.05-.21-.18-.21-.17-.18,1.09-.82,1.76-1.62,2.37-.43.32-.94.6-1.42.9-.13.1-.22.13-.38.29-.2.25-.35.48-.48.85-.07.22-.19.52-.07.95.09.41.66.98,1.25.8.22-.07.38-.28.5-.53.06-.13.12-.26.17-.4l.08-.21.04-.1h0s-.04.07-.04.07Z"/>
      <path class="cls-1" d="M114.21,255.15c.55-.78,1.35-1.34,1.94-2.1.48-.61,2.12-.79-.51-3.29-.04-.04-.23-.15-.23-.14,0,.96-.58,1.61-1.31,2.09-.4.26-.87.44-1.31.62-.23.11-.43.21-.65.31-.14.06-.39,0,.14.69.42.56,1.85,1.92,1.93,1.81Z"/>
      <path class="cls-1" d="M119.9,262.79c.18-.82.68-1.51.95-2.3.23-.65,1.68-1.16-1.59-2.7-.05-.02-.26-.07-.26-.06.29.84-.02,1.55-.53,2.16-.27.33-.64.62-.97.91-.17.15-.31.32-.47.47-.1.09-.36.12.4.56.6.35,2.44,1.08,2.46.97Z"/>
      <path class="cls-1" d="M128.95,268.83c-.08-.56.26-1.05.42-1.55.07-.22.45-.34.42-.61-.03-.27-.47-.7-1.94-1.73-.05-.03-.24-.13-.24-.12.16.81-.15,1.32-.61,1.86-.25.29-.57.58-.85.9-.14.17-.24.35-.36.53-.07.11-.32.2.53.42.67.16,2.64.35,2.63.29Z"/>
      <path class="cls-1" d="M137.44,271.66c-.29-.6-.16-1.28-.2-1.91-.02-.28.28-.58.15-.86-.13-.29-.7-.56-2.45-.97-.06-.01-.27-.02-.27-.01.46.76.36,1.44.14,2.19-.12.4-.32.83-.45,1.27-.07.23-.1.45-.14.68-.03.14-.23.32.65.24.69-.07,2.6-.56,2.57-.64Z"/>
      <path class="cls-1" d="M147.28,272.42c-.51-.6-.62-1.4-.89-2.11-.11-.31.07-.74-.15-1.02-.22-.29-.86-.44-2.67-.38-.06,0-.27.06-.26.07.68.71.82,1.49.87,2.39.02.48-.02,1,0,1.52.01.27.06.52.1.78.02.16-.11.41.72.1.65-.25,2.34-1.26,2.28-1.34Z"/>
      <path class="cls-1" d="M159.4,271.85c-.65-.91-.96-1.99-1.46-2.97-.44-.84.17-2.39-3.39-1.53-.06.01-.25.12-.23.13.94.71,1.34,1.69,1.58,2.76.13.58.18,1.2.26,1.8.04.31.12.61.18.91.03.19-.09.45.76.19.67-.21,2.39-1.17,2.3-1.3Z"/>
      <path class="cls-1" d="M167.45,267.11c-.66-.48-1.05-1.23-1.6-1.82-.49-.52-.05-1.88-3.22-.07-.05.03-.21.17-.2.18.95.27,1.41.92,1.77,1.71.19.43.32.92.49,1.39.09.24.2.46.3.7.06.14,0,.42.69-.12.54-.43,1.87-1.89,1.78-1.96Z"/>
      <path class="cls-1" d="M174.15,260.83c-.85-.39-1.5-1.1-2.26-1.62-.66-.45-.72-2-3.32.53-.04.04-.16.22-.14.23,1.02.08,1.7.66,2.28,1.39.31.39.58.87.86,1.3.15.23.32.42.47.64.1.13.09.41.69-.24.47-.51,1.54-2.18,1.42-2.23Z"/>
      <path class="cls-1" d="M178.31,252.07c-.8-.23-1.36-.89-1.95-1.42-.26-.24-.29-.71-.62-.89-.34-.19-.98-.08-2.68.59-.05.02-.23.15-.22.16.97.53,1.49,1.26,2.06,2.12.3.46.59.98.95,1.46.19.24.41.45.62.67.13.14.2.43.72-.28.41-.57,1.2-2.38,1.11-2.4Z"/>
      <path class="cls-1" d="M184.12,244.76c-.79-.34-1.3-1.06-1.87-1.65-.25-.26-.27-.75-.6-.95-.34-.21-1-.13-2.7.53-.05.02-.23.15-.22.15.96.52,1.44,1.26,1.94,2.15.26.47.5,1.01.8,1.5.16.26.34.48.52.72.11.15.13.44.74-.21.47-.51,1.49-2.21,1.39-2.25Z"/>
      <path class="cls-1" d="M190.03,238.63c-.61-.59-.95-1.38-1.51-2.02-.45-.52-.21-2.07-3.13.05-.05.03-.19.2-.18.2.88.14,1.33.76,1.6,1.5.14.4.2.86.28,1.29.04.22.11.42.15.63.03.13-.09.36.68-.06.61-.33,2.2-1.5,2.11-1.59Z"/>
      <path class="cls-1" d="M199.78,230.9c-.72-.66-1.14-1.55-1.73-2.3-.51-.65-.12-2.17-3.39-.56-.05.03-.22.17-.2.17.97.41,1.46,1.19,1.82,2.09.19.48.31,1.03.46,1.54.08.27.19.51.28.77.05.16-.03.43.74,0,.61-.34,2.12-1.61,2.02-1.7Z"/>
      <path class="cls-1" d="M209.06,222.07c-.84-.13-1.52-.68-2.23-1.1-.31-.18-.46-.65-.84-.75-.38-.11-1,.15-2.43,1.27-.05.04-.18.21-.17.21,1.05.22,1.72.79,2.42,1.5.37.38.73.83,1.14,1.23.21.2.45.37.68.55.14.11.23.39.65-.39.33-.62.89-2.51.78-2.53Z"/>
      <path class="cls-1" d="M212.99,211.18c-.85.2-1.7-.2-2.45-.54-.34-.15-.5-.61-.86-.71-.09-.02-.2-.03-.34-.01-.03,0-.07.01-.11.02-.06,0-.13-.03-.2-.03-.14-.01-.28,0-.42.03-.28.06-.6.2-.85.48-.12.14-.21.33-.16.52,0,.04.03.09.06.13h0s.03.04.06.05c.01,0,0,0,0,0-.14-.13.04,0-.05.33-.06.23-.04.13,0,.14.03,0,.06,0,.1,0,.04.01.06,0,.12.04l.18.11.35.24c.45.33.91.66,1.41,1.02.52.38,1.09.79,1.73,1.08.33.16.69.25,1.05.35.22.06.47.29.61-.6.1-.7-.12-2.66-.22-2.64Z"/>
      <path class="cls-1" d="M96.35,69.04c5.91-1.83,12.04-2.84,18.17-3.59,2.65-.32,5.51-.27,8.3-.55,2.8-.28,5.53-.91,8.09-2.65.08-.06.04-.27-.04-.27-6.06.42-12.03.69-18.09,1.22-3.26.29-6.53.62-9.78,1.12-1.69.26-3.36.59-5.03.94-1.03.2-2.09.27-2.75,1.36-.52.86.35,2.67,1.14,2.42Z"/>
      <path class="cls-1" d="M93.97,59.34c4.2.02,8.4.34,12.6.37,3.61.03,7.8,1.23,11.1-2.41.05-.06.02-.27-.04-.27-3.99.61-7.99.54-12.01.23-2.16-.17-4.32-.45-6.48-.71-1.12-.12-2.23-.24-3.35-.37-.69-.08-1.35-.34-2.01.51-.52.67-.39,2.65.18,2.65Z"/>
      <path class="cls-1" d="M93.71,44.51c4.59,1.19,8.8,3.74,13.26,5.93,1.93.94,3.92,2.21,6.16,2.91,2.22.7,4.73.78,6.94-.68.07-.04.07-.27,0-.27-2.3-.1-4.57-.69-6.74-1.53-2.18-.85-4.25-1.95-6.31-3.13-2.22-1.27-4.39-2.66-6.7-3.91-1.2-.64-2.43-1.24-3.71-1.77-.77-.35-1.53-.81-2.5-.19-.76.49-1.01,2.48-.41,2.64Z"/>
      <path class="cls-1" d="M101.93,32.94c3.54,3.14,6.92,6.46,10.57,9.49,3.11,2.6,6.08,6.5,11.26,5.91.08,0,.19-.2.13-.23-3.92-2.27-7.39-5.13-10.66-8.24-1.76-1.68-3.43-3.46-5.1-5.23-.87-.91-1.73-1.82-2.6-2.74-.53-.57-.91-1.25-2.02-1.1-.87.12-2.06,1.71-1.58,2.14Z"/>
      <path class="cls-1" d="M115.18,27.73c1.44,3.62,2.95,7.24,5.05,10.55.9,1.42,1.69,3.08,2.91,4.4,1.21,1.32,2.83,2.28,5.16,2.13.07,0,.21-.17.17-.2-2.85-2.22-5.01-5.17-6.63-8.37-.88-1.73-1.57-3.54-2.18-5.36-.32-.94-.65-1.87-.91-2.83-.17-.58-.15-1.21-1.15-1.44-.8-.18-2.61.62-2.41,1.12Z"/>
      <path class="cls-1" d="M131.21,27.59c.03,3.32-.18,6.64-.02,9.97.13,2.83-.8,6.31,3.06,8.49.06.03.27-.02.26-.06-.9-3.03-1.07-6.17-.92-9.31.08-1.69.29-3.38.5-5.06.1-.87.2-1.73.3-2.6.07-.53.32-1.04-.53-1.56-.68-.41-2.65-.33-2.65.13Z"/>
      <path class="cls-1" d="M114.98,59.05c3.25-.88,6.6-1.29,9.92-1.85,2.88-.48,6.27.3,8.56-3.55.04-.06-.01-.27-.06-.26-3.19.89-6.4,1.26-9.68,1.54-1.76.13-3.55.25-5.33.38-.92.08-1.83.2-2.75.3-.56.06-1.16-.04-1.46.92-.24.76.36,2.65.8,2.53Z"/>
      <path class="cls-1" d="M133.26,71.8c.7-2.63,1.77-5.14,2.62-7.72.73-2.22,2.76-4.37.07-7.57-.04-.05-.25-.1-.26-.07-.34,2.64-1.24,5.07-2.33,7.47-.58,1.29-1.26,2.55-1.89,3.83-.33.66-.62,1.34-.93,2-.19.41-.55.76.15,1.41.56.52,2.47,1,2.57.65Z"/>
      <path class="cls-1" d="M148.07,66.2c-1.15-1.54-1.84-3.35-2.6-5.09-.33-.76-.36-1.68-.77-2.45-.41-.77-1.21-1.38-3.14-1.68-.06,0-.27.06-.25.09,1.02,1.74,1.57,3.54,2.11,5.44.29,1.02.54,2.08.88,3.11.17.54.39,1.05.6,1.58.12.32.11.74,1.01.53.71-.17,2.31-1.32,2.16-1.53Z"/>
      <path class="cls-1" d="M168.07,45.4c-1.27-.55-2.58-.64-3.75-.59-1.18.05-2.28.25-3.31.42-2.06.35-4.12.68-6.18,1.06-3.54.66-7.81.19-10.47,4.31-.04.07.03.27.08.26,3.85-1.24,7.79-1.87,11.79-2.34,2.14-.25,4.36-.42,6.47-.6,1.06-.07,2.07-.1,2.9.1.54.14.77.44,1.56-.13.32-.22.75-.74.99-1.26.25-.52.27-1.09-.08-1.23Z"/>
      <path class="cls-1" d="M164.98,28.84c-3.87,2.28-7.76,4.54-11.33,7.3-1.53,1.18-3.34,2.27-4.78,3.74-1.44,1.46-2.51,3.3-2.47,5.81,0,.08.18.21.21.16,2.56-3.36,5.8-6.09,9.33-8.4,1.9-1.24,3.9-2.32,5.91-3.35,1.04-.53,2.07-1.08,3.13-1.57.65-.31,1.37-.44,1.52-1.51.12-.85-1-2.49-1.53-2.18Z"/>
      <path class="cls-1" d="M173.31,53.37c-3.58-.06-7.14-.5-10.72-.72-3.08-.19-6.52-1.65-9.63,1.73-.05.05-.04.27,0,.27,3.46-.3,6.87,0,10.3.49,1.85.26,3.68.62,5.53.93.95.16,1.91.29,2.87.43.59.09,1.15.36,1.74-.48.46-.66.39-2.64-.09-2.65Z"/>
      <path class="cls-1" d="M168.62,31.14c.24,2.73.1,5.48.18,8.21.07,2.36-1.09,5.09,2.53,7.19.06.03.27,0,.27-.03-.59-2.61-.57-5.23-.37-7.88.11-1.42.31-2.85.47-4.28.08-.74.12-1.48.19-2.22.04-.45.26-.91-.63-1.28-.7-.3-2.67-.1-2.64.27Z"/>
      <path class="cls-1" d="M182.29,28.31c-1.47,3.37-3.02,6.71-4.1,10.24-.46,1.51-1.21,3.08-1.46,4.75-.25,1.66,0,3.42,1.53,5.13.05.05.27.06.27.02.04-3.45.93-6.79,2.23-9.97.7-1.71,1.56-3.36,2.44-4.97.46-.84.89-1.68,1.37-2.5.29-.51.75-.91.19-1.77-.44-.68-2.28-1.4-2.48-.93Z"/>
      <path class="cls-1" d="M191.28,34.68c-1.96,2.88-3.95,5.75-5.46,8.92-.65,1.35-1.57,2.72-2,4.27-.43,1.54-.37,3.24.99,5.02.04.06.26.09.26.05.36-3.22,1.62-6.23,3.29-8.98.9-1.48,1.96-2.87,3.04-4.2.56-.69,1.1-1.39,1.69-2.06.36-.42.86-.69.45-1.61-.32-.73-1.99-1.79-2.26-1.39Z"/>
      <path class="cls-1" d="M204.07,40.29c-3.46,2.51-7.02,4.89-10.31,7.63-2.81,2.33-6.85,4.34-6.76,9.29,0,.08.18.21.21.17,2.49-3.21,5.56-5.85,8.86-8.19,1.78-1.26,3.65-2.4,5.51-3.52.97-.58,1.92-1.18,2.89-1.74.6-.35,1.29-.53,1.31-1.6.02-.85-1.24-2.37-1.71-2.03Z"/>
      <path class="cls-1" d="M198.52,50.5c-1.56,1.55-3.22,3.04-4.51,4.85-.55.77-1.37,1.48-1.76,2.43-.38.94-.32,2.13.99,3.59.04.05.25.12.25.09.3-1.98,1.4-3.69,2.78-5.08.75-.75,1.61-1.39,2.46-1.99.44-.31.86-.64,1.31-.92.28-.18.66-.21.31-1.06-.27-.68-1.62-2.12-1.83-1.91Z"/>
      <path class="cls-1" d="M204.92,52.55c-1.53,2.19-3.14,4.34-4.32,6.77-.5,1.04-1.29,2.06-1.59,3.26-.3,1.19-.13,2.55,1.33,4,.05.05.26.09.26.05.14-2.46,1.12-4.74,2.46-6.77.72-1.09,1.59-2.09,2.45-3.05.45-.5.88-1,1.35-1.48.28-.3.71-.46.25-1.29-.36-.66-1.97-1.8-2.18-1.5Z"/>
      <path class="cls-1" d="M212.7,56.65c-2.23,1.72-4.58,3.3-6.66,5.22-.89.82-2.05,1.52-2.84,2.55-.79,1.02-1.22,2.37-.56,4.36.02.06.2.19.22.16,1.28-2.32,3.19-4.15,5.31-5.69,1.14-.83,2.38-1.54,3.6-2.23.63-.36,1.25-.74,1.89-1.08.39-.21.87-.26.71-1.21-.13-.75-1.34-2.31-1.65-2.07Z"/>
      <path class="cls-1" d="M223.68,64.54c-2.93.75-5.95,1.12-8.92,1.72-2.56.51-5.73-.12-7.42,3.85-.03.06.04.27.07.26,2.75-1.07,5.6-1.54,8.52-1.85,1.57-.16,3.16-.23,4.74-.35.82-.06,1.63-.16,2.45-.23.5-.04,1.03.09,1.3-.86.21-.75-.33-2.65-.73-2.55Z"/>
      <path class="cls-1" d="M220.12,72c-2.2.16-4.41-.05-6.62-.05-1.9,0-4.08-1.23-5.84,2.33-.03.06-.01.27.02.27,2.11-.51,4.22-.42,6.35-.15,1.15.15,2.29.39,3.43.58.59.1,1.19.16,1.78.25.37.05.72.28,1.05-.59.25-.69.13-2.66-.17-2.64Z"/>
      <path class="cls-1" d="M224.36,83.51c-2.45-1.98-5.23-2.9-7.71-3.69-1.08-.34-2.08-.99-3.1-1.31-1.05-.34-2.07-.26-4.13.28-.07.02-.2.19-.17.21,2.43,1.54,4.89,2.3,7.26,3.34,1.27.55,2.48,1.18,3.53,1.89.53.37,1.06.71,1.47,1.14.29.25.34.63,1.19.21.68-.32,2-1.78,1.65-2.06Z"/>
      <path class="cls-1" d="M224.74,94.17c-2.02-1.7-3.78-3.67-5.7-5.48-1.65-1.56-2.68-4.25-6.67-3.13-.06.02-.2.19-.17.21,2.19,1.37,3.95,3.17,5.6,5.12.89,1.05,1.72,2.17,2.57,3.25.44.56.91,1.1,1.37,1.65.28.34.43.8,1.31.44.7-.29,1.95-1.82,1.68-2.05Z"/>
      <path class="cls-1" d="M228.62,103.4c-3.38-2.43-6.62-5.07-10.06-7.44-2.94-2.03-5.77-5.35-10.49-4.07-.07.02-.16.22-.11.24,3.64,1.64,6.9,3.89,10,6.38,1.67,1.34,3.27,2.79,4.86,4.22.83.74,1.66,1.47,2.49,2.2.51.46.89,1.05,1.91.73.81-.25,1.85-1.93,1.39-2.26Z"/>
      <path class="cls-1" d="M220.42,107.09c-1.78-1.81-3.27-3.87-4.93-5.78-1.43-1.65-2.12-4.35-6.15-3.56-.06.01-.22.17-.19.19,1.98,1.5,3.49,3.39,4.88,5.42.75,1.09,1.43,2.24,2.14,3.37.37.58.77,1.14,1.14,1.71.23.35.33.81,1.23.52.72-.23,2.12-1.62,1.88-1.87Z"/>
      <path class="cls-1" d="M230.29,109.97c-2.36-1.64-4.49-3.58-6.76-5.35-1.96-1.52-3.42-4.24-7.44-2.86-.06.02-.18.21-.15.22,2.49,1.29,4.6,3.06,6.61,4.98,1.09,1.03,2.11,2.14,3.17,3.22.55.56,1.12,1.08,1.67,1.63.34.34.57.81,1.44.38.69-.34,1.78-1.99,1.46-2.21Z"/>
      <path class="cls-1" d="M227.66,117.28c-2.8-1.93-5.27-4.29-7.77-6.6-2.18-2.01-3.57-5.18-8.06-4.83-.07,0-.22.17-.18.2,2.63,2.12,4.88,4.52,7.18,6.98,1.23,1.32,2.44,2.69,3.71,4,.66.68,1.35,1.32,2.04,1.97.42.4.74.93,1.68.55.74-.3,1.78-1.99,1.4-2.25Z"/>
      <path class="cls-1" d="M230.22,125.82c-2.93-2.24-5.56-4.85-8.26-7.36-2.34-2.18-4.02-5.56-8.65-5.23-.07,0-.21.18-.17.21,2.86,2.21,5.34,4.75,7.79,7.4,1.3,1.43,2.62,2.88,3.93,4.32.69.74,1.41,1.45,2.12,2.16.44.44.76,1.01,1.74.69.78-.25,1.89-1.9,1.49-2.2Z"/>
      <path class="cls-1" d="M227.44,131.63c-2.16-2.03-4.04-4.32-6.09-6.46-1.76-1.84-2.88-4.81-7.09-4.07-.07.01-.21.18-.18.2,2.33,1.7,4.21,3.81,5.98,6.06.95,1.21,1.84,2.49,2.75,3.74.47.65.98,1.27,1.46,1.9.3.39.46.9,1.4.61.74-.23,2.06-1.7,1.77-1.98Z"/>
      <path class="cls-1" d="M226.6,137.46c-1.78-1.73-3.27-3.71-4.94-5.55-1.43-1.58-2.15-4.23-6.12-3.32-.06.01-.21.17-.19.19,1.97,1.42,3.49,3.24,4.88,5.19.75,1.05,1.43,2.17,2.15,3.25.37.56.77,1.1,1.15,1.65.23.34.33.79,1.23.48.71-.25,2.08-1.67,1.84-1.9Z"/>
      <path class="cls-1" d="M225.39,141.85c-1.59-1.58-2.94-3.37-4.5-4.97-1.33-1.37-2.08-3.84-5.82-2.45-.06.02-.2.19-.17.21,1.88,1.06,3.33,2.61,4.59,4.32.68.92,1.28,1.92,1.9,2.89.33.5.65.99.98,1.48.2.31.25.72,1.13.39.69-.26,2.1-1.64,1.89-1.86Z"/>
      <path class="cls-1" d="M224.41,147.23c-.7-1.32-1.21-2.74-2.07-3.98-.37-.53-.55-1.28-1.1-1.72-.54-.43-1.46-.55-3.08.36-.05.03-.19.19-.18.2,1.26.51,2.05,1.6,2.52,2.81.26.65.39,1.36.51,2.04.06.35.15.69.2,1.03.03.21-.11.48.77.33.7-.11,2.51-.89,2.42-1.07Z"/>
      <path class="cls-1" d="M81.09,65.77c2.89-.18,5.79-.16,8.67-.54,2.43-.31,5.62.34,7-3.67.02-.06-.05-.27-.08-.25-2.48,1.14-5.18,1.53-7.88,1.59-1.46.03-2.92-.08-4.37-.2-.75-.06-1.5-.09-2.24-.17-.46-.04-.9-.27-1.31.61-.32.69-.18,2.67.22,2.64Z"/>
      <path class="cls-1" d="M80.72,71.06c2.02-.41,4.08-.53,6.1-.96,1.71-.36,4.08.32,4.65-3.55,0-.06-.07-.27-.09-.25-1.69,1.02-3.59,1.4-5.52,1.51-1.04.06-2.1,0-3.14-.03-.54,0-1.07-.02-1.61-.02-.33-.01-.67-.2-.86.7-.15.71.19,2.66.47,2.6Z"/>
      <path class="cls-1" d="M79.86,78.73c1.98-1.08,4.11-1.81,6.16-2.74,1.76-.81,4.29-.59,4.46-4.58,0-.06-.1-.25-.13-.24-1.75,1.36-3.74,2.16-5.83,2.81-1.12.35-2.28.61-3.43.91-.59.16-1.17.35-1.76.52-.36.1-.79.05-.73.98.05.74.98,2.48,1.25,2.34Z"/>
      <path class="cls-1" d="M78.36,88.24c1.91-2.12,4.09-3.97,6.11-5.99,1.74-1.73,4.61-2.83,3.73-6.97-.01-.07-.18-.21-.2-.17-1.58,2.29-3.58,4.14-5.72,5.88-1.15.94-2.37,1.81-3.56,2.71-.62.47-1.21.96-1.81,1.44-.37.29-.86.46-.55,1.37.25.72,1.75,2.02,2.01,1.73Z"/>
      <path class="cls-1" d="M78.2,95.29c1.31-2.08,3-3.88,4.57-5.75,1.37-1.64,3.85-2.54,2.64-6.44-.02-.06-.19-.2-.21-.17-1.29,2.09-2.93,3.8-4.68,5.49-.95.88-1.93,1.79-2.9,2.69-.49.47-.96.98-1.43,1.47-.29.3-.72.5-.23,1.31.39.64,2.07,1.68,2.24,1.41Z"/>
      <path class="cls-1" d="M77.83,104.32c1.04-2.31,2.47-4.42,3.76-6.59,1.12-1.89,3.47-3.28,1.63-6.95-.03-.06-.22-.16-.23-.13-.94,2.34-2.31,4.36-3.81,6.35-.81,1.07-1.68,2.11-2.5,3.19-.43.56-.82,1.14-1.22,1.71-.25.35-.65.62-.06,1.36.47.59,2.28,1.38,2.42,1.07Z"/>
      <path class="cls-1" d="M75.11,109.93l-.67.57,2.16,1.87c.91-1.74,2.02-3.37,2.99-5.08.96-1.7,3.13-3.02.93-6.35-.03-.05-.23-.15-.24-.12-.62,2.14-1.76,3.97-3.07,5.73-.71.95-1.49,1.85-2.24,2.77-.39.48-.74.98-1.12,1.46l-.02.03,2.57,2.22c.32-.17.72-.24.46-1.1-.21-.71-1.51-2.2-1.74-2Z"/>
      <path class="cls-1" d="M77.11,117.91c1.01-2.1,2.43-3.97,3.75-5.88,1.15-1.68,3.45-2.69,1.87-6.39-.02-.06-.2-.18-.22-.15-1.04,2.11-2.46,3.87-3.98,5.63-.82.95-1.7,1.86-2.52,2.82-.43.5-.82,1.02-1.22,1.54-.25.32-.65.55-.06,1.29.46.58,2.25,1.43,2.39,1.15Z"/>
      <path class="cls-1" d="M76.29,126.09c.76-2.34,2.06-4.45,3.32-6.53.55-.9,1.42-1.67,1.95-2.65.53-.98.72-2.18.01-4.1-.02-.06-.2-.19-.22-.16-1.18,2.23-2.64,4.15-4.14,6.16-.81,1.08-1.65,2.15-2.42,3.29-.4.59-.75,1.2-1.1,1.82-.22.37-.6.69.07,1.37.53.53,2.42,1.11,2.52.81Z"/>
      <path class="cls-1" d="M76.28,133.76c.8-1.95,1.95-3.74,2.89-5.63.81-1.63,2.86-2.93.44-6.03-.04-.05-.24-.13-.25-.11-.45,2.04-1.44,3.79-2.6,5.49-.62.91-1.33,1.78-2,2.67-.35.46-.66.94-.99,1.41-.21.29-.57.49.08,1.16.51.53,2.32,1.31,2.43,1.05Z"/>
      <path class="cls-1" d="M76.87,138.18c.55-1.7,1.56-3.2,2.45-4.73.39-.66,1.09-1.19,1.42-1.93.34-.74.32-1.71-.65-3.38-.03-.05-.21-.17-.22-.15-.69,1.75-1.73,3.16-2.88,4.6-.62.77-1.29,1.53-1.91,2.33-.32.42-.6.86-.89,1.29-.18.27-.52.47.18,1.06.55.47,2.41,1.13,2.49.9Z"/>
      <path class="cls-1" d="M96.08,125.34c2.53,1.09,5.06,1.06,7.37,1.06,2.31-.02,4.61-.08,6.92-.18,4.61-.2,9.21-.57,13.8-1.1l1.88-.22-.68-1.79c-.3-.79-.86-1.48-1.49-1.96-.63-.48-1.3-.78-1.94-.99-1.28-.41-2.55-.52-3.68-.59-2.26-.15-4.53-.23-6.8-.25-4.54-.04-9.07.19-13.6.69-.8.1-1.77.22-2.78.74-1.02.53-1.71,1.32-2.25,2-.53.68-.97,1.34-1.39,1.8-.43.49-.77.69-1.07.75l2,2.1c.13-.37.36-.66.8-.95.45-.28,1.06-.52,1.73-.67.69-.16,1.37-.25,2.19-.31.8-.08,1.61-.12,2.41-.18,3.22-.17,6.45-.16,9.65.02,3.2.16,6.35.49,9.46.87.78.1,1.56.2,2.33.3.79.1,1.62.17,2.43.05.8-.11,1.55-.47,2.02-1.01.49-.53.68-1.24.48-1.68-.05-.14-.28-.04-.27.06.01.37-.3.87-.8,1.17-.25.15-.51.27-.8.32-.31.06-.64.07-.99.05-.69-.04-1.43-.23-2.21-.44-.79-.19-1.58-.4-2.37-.57-3.17-.71-6.39-1.19-9.62-1.45-3.23-.26-6.48-.29-9.71-.1-.81.05-1.62.11-2.42.19-.81.07-1.65.19-2.48.4-.82.21-1.65.52-2.41,1.03-.76.51-1.42,1.31-1.69,2.25l-.32,1.1,1.13-.25c.69-.15,1.31-.53,1.79-.97.48-.44.85-.92,1.2-1.39.68-.92,1.3-1.82,2.07-2.3.74-.48,1.8-.55,2.94-.65,1.12-.1,2.24-.18,3.37-.25,3.75-.22,7.51-.24,11.25-.08,1.86.08,3.77.21,5.58.39.87.1,1.71.28,2.38.58.69.31,1.1.71,1.26,1.19l1.09-1.82c-1.8.18-3.61.33-5.41.45-4.82.33-9.65.5-14.47.45-1.5-.01-2.88-.09-4.15-.23-1.28-.14-2.37-.29-3.52-.56-.89-.22-1.59-.07-1.8.55-.23.58.24,1.75,1.62,2.36Z"/>
      <path class="cls-1" d="M188.55,120.92c-2.45-1.23-5.2-1.34-7.63-.94-2.46.39-4.68,1.18-6.85,1.8-4.37,1.26-8.81,2.28-13.29,3.06l1.6,2.06c.3-.66,1.01-1.16,2.04-1.47,1.03-.31,2.17-.41,3.45-.46,2.51-.13,5.03-.13,7.55,0,2.51.12,5.02.36,7.51.73,1.25.18,2.48.4,3.72.64l1.85.38,1.01.23.88.21c.29.07.53.07.8.12l1.09.13.55.07.27.03.19-.04c.49-.13.94-.33,1.34-.84.4-.55.44-1.1.39-1.69-.07-.6-.33-1.24-.69-1.87-.37-.62-.91-1.24-1.58-1.78l-.52-.39c-.18-.12-.4-.26-.49-.31-.24-.14-.48-.27-.73-.39-.98-.49-2.02-.79-3.01-1.01-4.05-.89-8.08-.38-11.81.16-3.73.55-7.56,1.16-11.21,2.47-1.82.64-3.59,1.48-5.2,2.5-.76.49-1.45.95-2.16,1.24-.71.28-1.34.39-1.89.05l.09.76c1.02-2.07,3.28-3.68,5.96-3.92.28-.03.17-.26-.12-.28-2.77-.18-5.47,1.15-6.99,3.4l-.4.59.52.47c.52.47,1.26.73,1.91.74.65,0,1.24-.14,1.77-.32,1.06-.37,1.97-.95,2.83-1.38,1.76-.89,3.64-1.57,5.57-2.1,3.86-1.05,7.91-1.57,11.91-2.12,2-.25,4-.41,5.97-.3,1.95.13,3.95.48,5.59,1.37.1.06.2.11.3.17.07.04.13.08.19.13.13.09.25.18.36.28.23.2.42.43.57.68.14.26.26.53.27.82,0,.34-.41.43-.69.37-.29-.05-.57-.15-.85-.22l-.98-.25c-1-.24-2.01-.47-3.02-.67-4.35-.88-8.78-1.41-13.22-1.57-2.23-.08-4.44-.06-6.69.05-1.16.08-2.36.23-3.59.67-.61.23-1.23.54-1.8,1-.57.45-1.07,1.07-1.4,1.76l-1.08,2.33,2.58-.4c1.32-.21,2.63-.43,3.95-.68,2.6-.49,5.19-1.07,7.75-1.72,2.57-.63,5.13-1.5,7.49-1.95,2.98-.56,5.45-.14,7.83.58.94.31,1.65.21,1.89-.41.25-.59-.21-1.82-1.64-2.54Z"/>
    </g>
    <path class="cls-1" d="M71.79,143.08c2.12-.77,4.37-1.07,6.57-1.49,1.93-.37,4.2.54,5.63-3.19.02-.06-.02-.27-.05-.26-2.15.75-4.33.99-6.57,1.16-1.21.09-2.44.11-3.66.21-.63.05-1.26.14-1.89.22-.39.05-.82-.07-.91.86-.07.74.6,2.6.88,2.5Z"/>
    <path class="cls-1" d="M226.98,141.91c-3.98-1.23-7.85-2.81-11.79-4.19-3.39-1.18-6.86-3.71-11.21-1.47-.07.04-.11.25-.06.26,3.95.84,7.67,2.24,11.37,3.83,1.99.85,3.95,1.8,5.93,2.7,1.02.47,2.06.9,3.09,1.35.63.28,1.19.72,2.07.1.69-.49,1.14-2.42.6-2.59Z"/>
  </g>
</svg>