<?xml version="1.0" encoding="UTF-8"?>
<svg id="Calque_2" data-name="Calque 2" xmlns="http://www.w3.org/2000/svg" viewBox="0 0 300 300">
  <defs>
    <style>
      .cls-1 {
        fill: #1d1d1d;
      }

      .cls-2 {
        fill: #1db4b8;
      }

      .cls-3 {
        fill: #00abaf;
      }
    </style>
  </defs>
  <path class="cls-2" d="M221.21,142.78c-.89.71-2.03.79-3.12.64-1.1-.15-2.15-.53-3.18-.67-.45-.07-.84-.59-1.2-1.05-.37-.44-.7-.81-1.23-.59-.54.23-1.27,1.04-2.61,2.87-1.35,1.83-3.3,4.66-6.41,8.83-.2.26-.77,1.38-.7,1.37,2.42-.36,4.27-.24,6.02.27,1.74.51,3.39,1.4,5.21,2.4,1.95,1.07,4.11,2.51,6.54,3.43,1.26.47,2.54.66,3.88.9.8.17,2,1.23,1.22-3.79-.32-1.98-1.4-5.67-2.4-8.85-1.01-3.18-1.91-5.86-2.02-5.77Z"/>
  <circle class="cls-3" cx="177.5" cy="80.5" r="5.5"/>
  <g>
    <path class="cls-1" d="M100.56,163.53c1.38,12.02,5.09,23.71,10.53,34.47,5.44,10.78,12.83,20.58,21.73,28.77,4.41,4.13,9.31,7.84,14.75,10.69,5.42,2.84,11.52,4.79,17.84,4.74,3.15-.02,6.31-.55,9.28-1.55,2.98-1.01,5.77-2.44,8.37-4.12,5.18-3.41,9.56-7.79,13.38-12.5,6.61-8.13,11.91-17.61,16.45-27.45,2.29-4.92,4.39-9.94,6.45-14.96,2.05-5.01,4.16-10.13,5.56-15.54.68-2.71,1.21-5.48,1.4-8.29.22-2.82.08-5.61-.17-8.32-.25-2.71-.63-5.35-.93-7.95-.31-2.6-.55-5.2-.76-7.79-.82-10.35-1.01-20.53-1.57-30.19-.03-.61-.28-.3-.3.32-.34,11.42-.71,22.88.11,34.32.35,5.73,1.35,11.37,1.24,16.99-.09,5.61-1.56,11.13-3.46,16.45-.95,2.67-2.02,5.3-3.09,7.94-1.08,2.64-2.16,5.28-3.27,7.9-2.21,5.25-4.56,10.44-7.15,15.5-2.59,5.06-5.49,9.96-8.76,14.59-3.32,4.58-6.97,8.98-11.21,12.69-4.56,3.96-9.84,7.23-15.67,8.53-5.8,1.38-11.94.55-17.5-1.62-5.59-2.16-10.71-5.52-15.36-9.39-4.61-3.95-8.9-8.29-12.71-13.02-7.91-9.79-14.02-21.06-17.74-33.06-2.34-7.4-3.45-14.85-4.95-21.7-.58-2.72-1.35-3.48-1.91-2.73-.28.37-.51,1.13-.64,2.2-.11,1.07-.2,2.47.05,4.08Z"/>
    <path class="cls-1" d="M101.54,170.41c-5.78-.83-11.14-4.18-14.93-8.72-1.92-2.28-3.5-4.85-4.76-7.57-1.24-2.73-2.26-5.62-2.81-8.5-.47-2.48-.48-5.12.23-7.45.35-1.17.89-2.24,1.59-3.21.71-.96,1.59-1.82,2.59-2.58.99-.77,2.1-1.44,3.25-2.05,1.17-.6,2.35-1.19,3.51-1.57,1.16-.38,2.35-.61,3.59-.38,1.23.23,2.57.87,3.4,2.29.1.18.31.03.25-.17-.27-.95-.85-1.75-1.53-2.34-.68-.6-1.48-1.01-2.31-1.26-1.7-.5-3.39-.27-4.91.15-2.98.9-5.81,2.27-8.16,4.39-1.15,1.07-2.16,2.34-2.86,3.77-.71,1.42-1.14,2.97-1.35,4.53-.4,3.13.04,6.27.81,9.26,1.73,6.39,4.75,12.62,9.65,17.46,2.53,2.5,5.56,4.51,8.89,5.93,2.03.86,4.21,1.66,6.3.95,1.62-.58,1.04-2.73-.46-2.92Z"/>
    <path class="cls-1" d="M139.1,124.54c.62-.89,1.79-1.51,2.93-1.56,1.14-.06,2.16.44,2.88,1.37.71.91,1.02,2.14.76,3.14-.23,1.02-1.05,1.99-2.06,2.5-.89.46-1.87.5-2.77.12-.91-.36-1.73-1.06-2.29-1.87-.59-.84-.93-1.61-1.03-2.79-.04-1.09-.05-2.54,1.46-3.8.09-.08.01-.3-.1-.27-1.04.22-1.9.89-2.45,1.65-.54.77-.86,1.63-.97,2.5-.13.87-.06,1.78.22,2.61.26.82.7,1.58,1.24,2.23,1.08,1.3,2.63,2.23,4.37,2.47,1.76.22,3.57-.37,4.93-1.51.75-.61,1.37-1.39,1.8-2.29.44-.9.62-1.96.56-2.99-.15-2.04-1.19-4.01-2.98-5.25-.92-.65-2.09-1.03-3.22-1.1-1.14-.07-2.28.14-3.33.58-.64.27-1.29.59-1.78,1.08-.49.49-.82,1.15-.74,1.91.07.61.68,1,1.27,1.21.6.2,1.14.29,1.3.06Z"/>
    <path class="cls-1" d="M201.12,126.17c1.43.2,2.81.53,3.82,1.15,1.01.61,1.58,1.48,1.59,2.46.04,1-.5,2.11-1.28,2.73-.78.64-1.95.91-3.08.79-1-.1-1.93-.59-2.62-1.3-.7-.72-1.17-1.62-1.33-2.46-.05-.21-.07-.42-.09-.63-.01-.2-.02-.39,0-.6.04-.43.17-.91.38-1.41.44-.96,1.13-2.14,2.84-2.8.11-.04.11-.28,0-.29-4.02-.36-6.63,3.8-5.48,7,.48,1.59,1.54,2.93,2.9,3.84,1.37.92,3.04,1.36,4.74,1.26.91-.07,1.83-.3,2.69-.74.85-.44,1.63-1.12,2.19-1.92,1.12-1.58,1.61-3.82.71-5.91-.45-1.02-1.21-1.91-2.06-2.54-.85-.63-1.76-1.06-2.65-1.39-1.08-.41-2.14-.86-3.22-.08-.85.62-.81,2.76-.05,2.86Z"/>
    <path class="cls-1" d="M195.68,117.99c2.69-.94,4.88-2.39,7.04-3.45,2.17-1.09,4.22-1.67,6.41-1.46,1.9.13,3.73,1.13,5.42,2.08.85.5,1.69.99,2.66,1.47.95.5,2.02.98,3.35,1.57.09.04.28-.09.24-.15-1.38-2.29-3.26-4.11-5.45-5.4-2.18-1.3-4.67-2.13-7.3-2.21-1.4-.05-2.88.12-4.24.52-1.37.38-2.65.93-3.87,1.47-1.26.57-2.44,1.17-3.61,1.59-.74.27-1.43.27-1.81,1.34-.33.86.36,2.86,1.14,2.62Z"/>
    <path class="cls-1" d="M157.2,112.67c-5.02-6.85-13.48-10.84-21.97-10.26-1.81.17-3.72.38-5.58.98-1.88.52-3.69,1.39-5.29,2.56-1.58,1.18-2.94,2.69-3.74,4.44-.82,1.73-1.02,3.7-.49,5.39.03.11.27.12.29.03.63-3.44,3.17-6.45,6.27-8.3,3.11-1.92,6.84-2.68,10.47-2.54,3.92.22,7.73,1.52,10.91,3.63,1.65,1.08,3.2,2.32,4.45,3.8.79.92,1.28,1.92,2.65,2.31,1.12.31,2.72-1.08,2.03-2.04Z"/>
    <path class="cls-1" d="M188.39,178.87c-1.34,0-2.68.1-4,.31-1.33.21-2.62.55-3.84.89-2.43.69-4.73,1.38-6.86,1.25-1.06-.05-2.06-.33-3.15-.78-1.1-.43-2.16-1.02-3.48-1.49-2.64-.99-5.31-1.25-7.91-1.34-5.21-.08-10.29.59-15.29,1.57l-1.87.39c-1.09.23-2.25.53-3.35.81l-.84.22c-.05.03-.18.02-.17.07l.09.2.18.39.72,1.58c.24.52.48,1.06.73,1.57l.55,1.02c1.27,2.31,2.79,4.46,4.5,6.44,1.46,1.72,3.11,3.33,4.87,4.83,1.77,1.51,3.68,2.9,5.76,4.08,2.07,1.19,4.27,2.2,6.6,2.94,2.34.73,4.75,1.13,7.17,1.26,2.42.12,4.83-.05,7.16-.5,2.33-.47,4.56-1.22,6.63-2.22,4.15-1.96,7.55-5.04,9.66-8.51.14-.21-.13-.29-.3-.11-6.37,6.79-16.39,9.94-25.66,8.48-4.65-.71-9.04-2.71-12.89-5.41-3.83-2.75-7.18-6.2-9.75-10.14l-.98-1.62c-.16-.27-.3-.56-.45-.84l-.38-.72c-.13-.28-.24-.57-.36-.84l-.04-.1.12-.03.23-.05.45-.09,1.52-.29c.63-.12,1.26-.23,1.9-.34,1.27-.21,2.54-.4,3.81-.55,2.54-.31,5.09-.51,7.62-.52,2.52,0,5.04.18,7.33.79,2.25.5,4.49,2.24,7.65,2.91,1.57.31,3.17.26,4.63.04,1.47-.22,2.84-.58,4.14-.92,1.62-.42,3.09-.74,4.53-.97,1.45-.24,2.86-.44,4.3-.81,1.13-.28,1.57-.93,1.34-1.58-.22-.65-1.17-1.3-2.62-1.3Z"/>
    <path class="cls-1" d="M136.92,172.1c-1.35.57-2.84,1.09-4.27,1.99-1.44.91-2.78,2.24-3.4,4.1-.27.78-.47,1.72-.42,2.62.03.89.24,1.7.54,2.34.3.64.7,1.13,1.24,1.53.54.42,1.26.77,2.18,1.52.06.05.29.04.29,0-.2-1.78-1.02-3.01-1.41-4.27-.21-.62-.33-1.24-.29-1.82.05-.57.25-1.12.57-1.61.34-.53.82-.97,1.34-1.32.52-.35,1.1-.6,1.72-.82.64-.23,1.3-.44,2.02-.6.44-.1.94-.02,1.04-1.04.07-.81-.77-2.76-1.13-2.6Z"/>
    <path class="cls-1" d="M173.81,169.86c3.03-.67,6.25-1.49,9.13-3.35,1.45-.94,2.71-2.15,3.73-3.59,1-1.43,1.72-3.16,1.89-5.02.18-1.89-.36-3.73-1-5.22-.32-.76-.66-1.47-.99-2.16-.32-.68-.59-1.36-.89-2.04-1.14-2.74-2.05-5.58-2.78-8.48-.61-2.5-1-5.15-1.31-7.85-.29-2.7-.47-5.46-.7-8.2-.44-5.48-1.03-10.95-2.91-15.94-.06-.16-.29-.08-.29.08.49,11.77.34,23.64,3.41,35.3.83,3.11,1.96,6.2,3.25,9.14.63,1.43,1.15,2.81,1.21,4.11.06,1.28-.31,2.56-1,3.71-.7,1.19-1.73,2.24-2.89,3.05-1.16.8-2.54,1.42-3.98,1.87-1.79.56-3.69.71-5.29,1.98-1.26,1-.25,2.97,1.39,2.61Z"/>
  </g>
  <path class="cls-2" d="M103.66,151.52c4.48.2,9.13,1.52,13.99,3.03,4.88,1.51,10,3.24,15.79,4.11,2.48.36,5.05,1.08,7.81,1.51,2.75.43,5.7.57,8.58-.21,2.86-.77,5.66-2.49,7.51-5.5,1.84-2.99,2.67-7.3,1.25-12.53-.09-.33-.84-1.34-.9-1.25-2.36,3.35-6.6,5.31-11,5.73-4.44.45-9.05-.45-13.38-2.07-4.75-1.75-9.26-4.51-14.2-6.99-2.57-1.29-5.3-2.36-8.17-3.48-1.74-.67-3.49-2.35-5.86,2.44-.92,1.88-1.54,5.68-1.81,9.01-.26,3.33-.21,6.18.38,6.21Z"/>
  <circle class="cls-3" cx="178" cy="95.5" r="5.5"/>
  <g>
    <g>
      <g>
        <path class="cls-1" d="M100.56,163.53c1.38,12.02,5.09,23.71,10.53,34.47,5.44,10.78,12.83,20.58,21.73,28.77,4.41,4.13,9.31,7.84,14.75,10.69,5.42,2.84,11.52,4.79,17.84,4.74,3.15-.02,6.31-.55,9.28-1.55,2.98-1.01,5.77-2.44,8.37-4.12,5.18-3.41,9.56-7.79,13.38-12.5,6.61-8.13,11.91-17.61,16.45-27.45,2.29-4.92,4.39-9.94,6.45-14.96,2.05-5.01,4.16-10.13,5.56-15.54.68-2.71,1.21-5.48,1.4-8.29.22-2.82.08-5.61-.17-8.32-.25-2.71-.63-5.35-.93-7.95-.31-2.6-.55-5.2-.76-7.79-.82-10.35-1.01-20.53-1.57-30.19-.03-.61-.28-.3-.3.32-.34,11.42-.71,22.88.11,34.32.35,5.73,1.35,11.37,1.24,16.99-.09,5.61-1.56,11.13-3.46,16.45-.95,2.67-2.02,5.3-3.09,7.94-1.08,2.64-2.16,5.28-3.27,7.9-2.21,5.25-4.56,10.44-7.15,15.5-2.59,5.06-5.49,9.96-8.76,14.59-3.32,4.58-6.97,8.98-11.21,12.69-4.56,3.96-9.84,7.23-15.67,8.53-5.8,1.38-11.94.55-17.5-1.62-5.59-2.16-10.71-5.52-15.36-9.39-4.61-3.95-8.9-8.29-12.71-13.02-7.91-9.79-14.02-21.06-17.74-33.06-2.34-7.4-3.45-14.85-4.95-21.7-.58-2.72-1.35-3.48-1.91-2.73-.28.37-.51,1.13-.64,2.2-.11,1.07-.2,2.47.05,4.08Z"/>
        <path class="cls-1" d="M101.54,170.41c-5.78-.83-11.14-4.18-14.93-8.72-1.92-2.28-3.5-4.85-4.76-7.57-1.24-2.73-2.26-5.62-2.81-8.5-.47-2.48-.48-5.12.23-7.45.35-1.17.89-2.24,1.59-3.21.71-.96,1.59-1.82,2.59-2.58.99-.77,2.1-1.44,3.25-2.05,1.17-.6,2.35-1.19,3.51-1.57,1.16-.38,2.35-.61,3.59-.38,1.23.23,2.57.87,3.4,2.29.1.18.31.03.25-.17-.27-.95-.85-1.75-1.53-2.34-.68-.6-1.48-1.01-2.31-1.26-1.7-.5-3.39-.27-4.91.15-2.98.9-5.81,2.27-8.16,4.39-1.15,1.07-2.16,2.34-2.86,3.77-.71,1.42-1.14,2.97-1.35,4.53-.4,3.13.04,6.27.81,9.26,1.73,6.39,4.75,12.62,9.65,17.46,2.53,2.5,5.56,4.51,8.89,5.93,2.03.86,4.21,1.66,6.3.95,1.62-.58,1.04-2.73-.46-2.92Z"/>
        <path class="cls-1" d="M139.1,124.54c.62-.89,1.79-1.51,2.93-1.56,1.14-.06,2.16.44,2.88,1.37.71.91,1.02,2.14.76,3.14-.23,1.02-1.05,1.99-2.06,2.5-.89.46-1.87.5-2.77.12-.91-.36-1.73-1.06-2.29-1.87-.59-.84-.93-1.61-1.03-2.79-.04-1.09-.05-2.54,1.46-3.8.09-.08.01-.3-.1-.27-1.04.22-1.9.89-2.45,1.65-.54.77-.86,1.63-.97,2.5-.13.87-.06,1.78.22,2.61.26.82.7,1.58,1.24,2.23,1.08,1.3,2.63,2.23,4.37,2.47,1.76.22,3.57-.37,4.93-1.51.75-.61,1.37-1.39,1.8-2.29.44-.9.62-1.96.56-2.99-.15-2.04-1.19-4.01-2.98-5.25-.92-.65-2.09-1.03-3.22-1.1-1.14-.07-2.28.14-3.33.58-.64.27-1.29.59-1.78,1.08-.49.49-.82,1.15-.74,1.91.07.61.68,1,1.27,1.21.6.2,1.14.29,1.3.06Z"/>
        <path class="cls-1" d="M201.12,126.17c1.43.2,2.81.53,3.82,1.15,1.01.61,1.58,1.48,1.59,2.46.04,1-.5,2.11-1.28,2.73-.78.64-1.95.91-3.08.79-1-.1-1.93-.59-2.62-1.3-.7-.72-1.17-1.62-1.33-2.46-.05-.21-.07-.42-.09-.63-.01-.2-.02-.39,0-.6.04-.43.17-.91.38-1.41.44-.96,1.13-2.14,2.84-2.8.11-.04.11-.28,0-.29-4.02-.36-6.63,3.8-5.48,7,.48,1.59,1.54,2.93,2.9,3.84,1.37.92,3.04,1.36,4.74,1.26.91-.07,1.83-.3,2.69-.74.85-.44,1.63-1.12,2.19-1.92,1.12-1.58,1.61-3.82.71-5.91-.45-1.02-1.21-1.91-2.06-2.54-.85-.63-1.76-1.06-2.65-1.39-1.08-.41-2.14-.86-3.22-.08-.85.62-.81,2.76-.05,2.86Z"/>
        <path class="cls-1" d="M195.68,117.99c2.69-.94,4.88-2.39,7.04-3.45,2.17-1.09,4.22-1.67,6.41-1.46,1.9.13,3.73,1.13,5.42,2.08.85.5,1.69.99,2.66,1.47.95.5,2.02.98,3.35,1.57.09.04.28-.09.24-.15-1.38-2.29-3.26-4.11-5.45-5.4-2.18-1.3-4.67-2.13-7.3-2.21-1.4-.05-2.88.12-4.24.52-1.37.38-2.65.93-3.87,1.47-1.26.57-2.44,1.17-3.61,1.59-.74.27-1.43.27-1.81,1.34-.33.86.36,2.86,1.14,2.62Z"/>
        <path class="cls-1" d="M157.2,112.67c-5.02-6.85-13.48-10.84-21.97-10.26-1.81.17-3.72.38-5.58.98-1.88.52-3.69,1.39-5.29,2.56-1.58,1.18-2.94,2.69-3.74,4.44-.82,1.73-1.02,3.7-.49,5.39.03.11.27.12.29.03.63-3.44,3.17-6.45,6.27-8.3,3.11-1.92,6.84-2.68,10.47-2.54,3.92.22,7.73,1.52,10.91,3.63,1.65,1.08,3.2,2.32,4.45,3.8.79.92,1.28,1.92,2.65,2.31,1.12.31,2.72-1.08,2.03-2.04Z"/>
        <path class="cls-1" d="M188.39,178.87c-1.34,0-2.68.1-4,.31-1.33.21-2.62.55-3.84.89-2.43.69-4.73,1.38-6.86,1.25-1.06-.05-2.06-.33-3.15-.78-1.1-.43-2.16-1.02-3.48-1.49-2.64-.99-5.31-1.25-7.91-1.34-5.21-.08-10.29.59-15.29,1.57l-1.87.39c-1.09.23-2.25.53-3.35.81l-.84.22c-.05.03-.18.02-.17.07l.09.2.18.39.72,1.58c.24.52.48,1.06.73,1.57l.55,1.02c1.27,2.31,2.79,4.46,4.5,6.44,1.46,1.72,3.11,3.33,4.87,4.83,1.77,1.51,3.68,2.9,5.76,4.08,2.07,1.19,4.27,2.2,6.6,2.94,2.34.73,4.75,1.13,7.17,1.26,2.42.12,4.83-.05,7.16-.5,2.33-.47,4.56-1.22,6.63-2.22,4.15-1.96,7.55-5.04,9.66-8.51.14-.21-.13-.29-.3-.11-6.37,6.79-16.39,9.94-25.66,8.48-4.65-.71-9.04-2.71-12.89-5.41-3.83-2.75-7.18-6.2-9.75-10.14l-.98-1.62c-.16-.27-.3-.56-.45-.84l-.38-.72c-.13-.28-.24-.57-.36-.84l-.04-.1.12-.03.23-.05.45-.09,1.52-.29c.63-.12,1.26-.23,1.9-.34,1.27-.21,2.54-.4,3.81-.55,2.54-.31,5.09-.51,7.62-.52,2.52,0,5.04.18,7.33.79,2.25.5,4.49,2.24,7.65,2.91,1.57.31,3.17.26,4.63.04,1.47-.22,2.84-.58,4.14-.92,1.62-.42,3.09-.74,4.53-.97,1.45-.24,2.86-.44,4.3-.81,1.13-.28,1.57-.93,1.34-1.58-.22-.65-1.17-1.3-2.62-1.3Z"/>
        <path class="cls-1" d="M136.92,172.1c-1.35.57-2.84,1.09-4.27,1.99-1.44.91-2.78,2.24-3.4,4.1-.27.78-.47,1.72-.42,2.62.03.89.24,1.7.54,2.34.3.64.7,1.13,1.24,1.53.54.42,1.26.77,2.18,1.52.06.05.29.04.29,0-.2-1.78-1.02-3.01-1.41-4.27-.21-.62-.33-1.24-.29-1.82.05-.57.25-1.12.57-1.61.34-.53.82-.97,1.34-1.32.52-.35,1.1-.6,1.72-.82.64-.23,1.3-.44,2.02-.6.44-.1.94-.02,1.04-1.04.07-.81-.77-2.76-1.13-2.6Z"/>
        <path class="cls-1" d="M173.81,169.86c3.03-.67,6.25-1.49,9.13-3.35,1.45-.94,2.71-2.15,3.73-3.59,1-1.43,1.72-3.16,1.89-5.02.18-1.89-.36-3.73-1-5.22-.32-.76-.66-1.47-.99-2.16-.32-.68-.59-1.36-.89-2.04-1.14-2.74-2.05-5.58-2.78-8.48-.61-2.5-1-5.15-1.31-7.85-.29-2.7-.47-5.46-.7-8.2-.44-5.48-1.03-10.95-2.91-15.94-.06-.16-.29-.08-.29.08.49,11.77.34,23.64,3.41,35.3.83,3.11,1.96,6.2,3.25,9.14.63,1.43,1.15,2.81,1.21,4.11.06,1.28-.31,2.56-1,3.71-.7,1.19-1.73,2.24-2.89,3.05-1.16.8-2.54,1.42-3.98,1.87-1.79.56-3.69.71-5.29,1.98-1.26,1-.25,2.97,1.39,2.61Z"/>
      </g>
      <path class="cls-1" d="M240.23,158.9c-3.16-11.75-4.93-23.85-6.2-36.01-.63-6.08-1.13-12.19-1.7-18.32-.59-6.12-1.17-12.28-2.43-18.44-.29-1.32-.54-2.66-.96-4.01-.19-.67-.38-1.35-.57-2.02-.23-.67-.51-1.34-.76-2.02-1-2.71-2.52-5.26-4.29-7.59-3.58-4.65-8.31-8.42-13.62-10.92-5.34-2.5-11.17-3.58-16.75-3.3-2.79.16-5.54.71-8,1.8-2.45,1.07-4.57,2.76-5.77,4.8-.16.25.12.29.32.08,1.79-2,4.35-3.32,7.09-3.96,2.74-.67,5.65-.83,8.52-.62,2.87.21,5.73.74,8.5,1.57,2.76.84,5.4,2.04,7.88,3.52,4.93,2.98,9.27,7.09,12.13,12.08,2.81,5.01,3.9,10.84,4.69,16.63.82,6.27,1.25,12.62,1.73,18.96.47,6.35.97,12.71,1.64,19.07.72,6.59,1.7,13.17,2.9,19.72.41,2.01.77,4.01,1.24,5.93.51,1.91,1.18,3.73,2.08,5.39,1.44,2.61,3.15.81,2.32-2.36Z"/>
      <path class="cls-1" d="M216.06,63.92c-2.18-2.03-4.84-3.47-7.69-4.19-2.85-.72-5.95-.72-8.81.25-2.43.79-5.03,2.05-6.82,4.14-1.79,2.04-2.65,4.98-1.37,7.49.04.08.27.11.29.05.4-2.35,1.67-4.59,3.44-6.27,1.77-1.69,4.04-2.85,6.41-3.25,2.56-.44,5.18.03,7.45,1.05,1.18.53,2.29,1.18,3.25,1.98.59.53.96,1.14,2.11,1.01.94-.1,2.36-1.67,1.75-2.26Z"/>
      <path class="cls-1" d="M220.37,65.83c-2.26-1.29-4.79-2.01-7.36-2.08-2.56-.08-5.21.52-7.46,1.88-1.92,1.13-3.93,2.67-5.06,4.81-1.13,2.08-1.24,4.8.56,6.69.05.06.29.04.29,0-.14-2.02.5-4.13,1.66-5.85,1.16-1.73,2.85-3.11,4.75-3.86,2.05-.82,4.32-.87,6.37-.42,1.07.23,2.09.57,3.03,1.07.58.33.97.79,1.97.35.82-.35,1.89-2.18,1.25-2.56Z"/>
      <path class="cls-1" d="M231.83,91.2c-.91-3.44-1.91-6.87-3.17-10.26l-.48-1.27-.56-1.26c-.35-.84-.8-1.67-1.24-2.49-.94-1.62-2.02-3.25-3.66-4.58-.35-.29-.71-.57-1.14-.81-.39-.27-.85-.47-1.31-.67-.93-.36-1.97-.57-2.94-.58h-.7c-.26.02-.53.04-.79.08-.53.08-1.04.22-1.52.4-.97.36-1.81.89-2.54,1.51-1.44,1.23-2.46,2.8-2.93,4.48-.47,1.68-.36,3.45.39,4.91.05.09.28.08.29,0,.18-3.08,1.94-6.18,4.57-7.89.66-.41,1.37-.72,2.1-.85.7-.12,1.56-.12,2.27.03,1.46.28,2.71,1.22,3.7,2.44,2.11,2.69,3.26,6.13,4.24,9.53.51,1.77.96,3.58,1.37,5.38.22,1.13.26,2.27,1.42,3.04.92.62,2.89-.21,2.63-1.14Z"/>
      <path class="cls-1" d="M223.98,86.2c-1.5,7.77-1.58,15.58-1.38,23.31.24,7.74.86,15.43,1.59,23.1l2.36,22.94c.74,7.63,1.42,15.25,1.13,22.78-.27,6.52-1.22,13.23-2.81,19.88-1.6,6.65-3.72,13.25-6.92,19.17-3.19,5.91-7.53,11.1-13.1,14.48-5.51,3.38-12.03,5.18-18.52,4.18-.41-.05-.28.23.13.33,3.74,1.04,7.7,1.05,11.42.23,1.86-.39,3.68-.98,5.41-1.75,1.73-.75,3.41-1.65,4.97-2.71,6.34-4.21,10.79-10.59,13.87-17.33,3.08-6.8,4.96-14.02,6.34-21.3,1.33-7.31,2.02-14.74,1.86-22.22-.24-8.03-1.02-15.98-1.74-23.92-.74-7.94-1.52-15.86-2.05-23.78-.54-8.21-.91-16.43-.5-24.56.34-5,.96-9.78,1.19-14.27.09-3.62-2.28-2.8-3.25,1.45Z"/>
      <path class="cls-1" d="M224.88,90.06c-.8,4.65-1.15,9.32-1.21,13.99-.06,4.67.15,9.33.62,13.97.48,4.64,1.21,9.26,2.3,13.83,1.08,4.59,2.66,9.01,4.34,13.33,3.39,8.64,7.31,16.95,9.52,25.71,2.21,8.76,2.95,17.88,2.25,26.89-.31,3.88-.89,7.81-1.79,11.71-.92,3.9-2.13,7.77-3.63,11.56-2.98,7.57-7.18,14.77-12.58,20.81-1.34,1.52-2.79,2.92-4.27,4.28-1.51,1.33-3.07,2.58-4.71,3.73-3.27,2.25-6.8,4.12-10.51,5.43-7.38,2.7-15.39,3.36-22.9,1.63-.48-.1-.32.2.15.35,4.33,1.48,8.93,2.02,13.44,1.76,4.52-.26,8.95-1.31,13.13-2.97,8.39-3.32,15.46-9.35,20.85-16.42,5.43-7.1,9.29-15.29,11.91-23.8,2.61-8.53,3.9-17.49,3.76-26.46-.11-9.66-1.92-19.32-5.21-28.41-3.23-9.09-7.38-17.73-9.89-26.77-2.51-9.36-3.5-19.22-3.37-28.95.08-6.02.87-11.77,1.07-17.18.13-2.13-.42-2.93-1.15-2.54-.71.38-1.7,1.97-2.12,4.49Z"/>
      <path class="cls-1" d="M195.59,283.33c13.99-1.31,27.86-6.53,38.62-15.87,5.34-4.67,9.88-10.29,13.16-16.62,1.64-3.16,2.99-6.48,3.94-9.92.52-1.7.77-3.5,1.12-5.27.13-.88.19-1.77.29-2.65.07-.88.21-1.77.21-2.65.34-7.06-.15-14.04-.89-20.96-.76-6.93-1.82-13.8-3.05-20.63-1.23-6.84-2.64-13.63-4.16-20.4l-2.32-10.11c-.75-3.35-1.42-6.72-2.01-10.1-2.1-11.66-3.14-23.9-4.48-36.38-.73-6.26-1.53-12.48-2.59-18.77-1.08-6.27-2.52-12.56-4.73-18.62-2.19-6.05-5.24-11.86-9.22-16.88-3.96-5.03-8.9-9.32-14.54-12.1l-2.14-.97-2.19-.82c-1.58-.53-3.18-.7-4.73-.74-3.1-.02-6.14.48-8.95,1.58-1.41.58-2.66,1.4-3.84,2.24-1.18.86-2.29,1.8-3.3,2.82-2,2.03-3.66,4.4-4.42,6.93-.2.63.16.39.4-.22,1.21-2.81,3.45-5.23,5.96-7.2,1.26-.99,2.62-1.86,4.03-2.61,1.36-.71,2.89-1.16,4.46-1.45,1.57-.28,3.18-.44,4.78-.41,1.59.03,3.2.2,4.64.69,3.03,1.08,5.92,2.64,8.56,4.53,5.29,3.79,9.62,8.87,12.96,14.48,3.36,5.62,5.68,11.83,7.36,18.19,1.68,6.37,2.74,12.9,3.65,19.45.94,6.56,1.67,13.13,2.33,19.74,1.34,13.2,2.98,26.47,5.98,39.51,3.22,13.96,6.07,28.01,7.93,42.17.91,7.08,1.58,14.19,1.63,21.27.06,3.54-.18,7.05-.61,10.51-.57,3.38-1.46,6.77-2.83,9.97-2.75,6.66-6.95,12.71-12.13,17.72-5.17,5.02-11.36,8.98-18.01,11.79-2.04.88-4.13,1.62-6.23,2.26-2.09.65-4.2,1.2-6.29,1.67-4.18.98-8.33,1.57-12.38,2.33-3.2.59-4.08,1.35-3.21,1.92.87.55,3.47.95,7.25.58Z"/>
      <path class="cls-1" d="M212.6,49.28c-2.21-3.89-4.81-7.61-8.17-10.74-1.69-1.55-3.6-2.93-5.76-3.95-.53-.26-1.1-.46-1.66-.68-.59-.16-1.18-.37-1.76-.48-1.17-.24-2.34-.38-3.5-.43-2-.11-4.04-.03-6.11.22-2.06.24-4.15.72-6.1,1.56-1.95.82-3.81,1.96-5.18,3.57-1.37,1.57-2.24,3.57-2.14,5.45,0,.11.24.17.28.08.72-1.74,2.09-3.23,3.68-4.4,1.6-1.17,3.45-2.05,5.36-2.7,3.85-1.23,8.05-1.64,12-1,4.21.69,7.7,3.52,10.44,6.76,1.44,1.69,2.72,3.53,3.85,5.46.7,1.2,1.14,2.46,2.54,3.14,1.12.54,2.82-.78,2.22-1.86Z"/>
      <path class="cls-1" d="M194.79,33.92c-1.53-2.42-3.81-4.13-6.33-5.14-2.52-1-5.2-1.31-7.79-1.16-2.22.12-4.72.28-6.94,1.36-2.19,1.03-4.03,3.16-3.83,5.83,0,.08.2.21.23.17,1.22-1.77,3.1-3.09,5.18-3.86,2.08-.78,4.35-1.05,6.57-.92,2.39.14,4.71.83,6.54,2.02.95.61,1.8,1.34,2.44,2.19.41.54.52,1.12,1.62,1.19.88.1,2.73-.97,2.3-1.68Z"/>
      <path class="cls-1" d="M210.29,46.72c-1.27-1.82-2.85-3.2-4.49-4.45-1.65-1.23-3.41-2.28-5.26-3.17-1.85-.87-3.8-1.59-5.87-2.01-.53-.08-1.05-.18-1.59-.24-.55-.02-1.08-.1-1.65-.07-1.17.02-2.16.19-3.2.4-3.54.73-7.22,2.22-10.15,4.57-1.46,1.17-2.72,2.56-3.66,4.11-.92,1.56-1.48,3.3-1.75,5.05-.02.11.2.22.26.14l1.64-2.19.84-1.09c.3-.34.6-.68.92-1.01,1.26-1.32,2.64-2.52,4.13-3.55,2.98-2.06,6.45-3.47,10.01-3.75,1.83-.16,3.71.29,5.5.92,1.79.65,3.51,1.53,5.12,2.55,1.66,1.06,3.24,2.26,4.54,3.63.8.87,1.28,1.78,2.57,2.14.53.15,1.23-.06,1.72-.46.48-.39.72-1.01.39-1.52Z"/>
      <path class="cls-1" d="M227.33,73.41c-2.68-5.46-6.56-10.04-10.86-14.08-2.17-2.01-4.48-3.87-7-5.52-2.55-1.67-5.47-2.89-8.45-3.55-2.58-.57-5.34-.89-8.15-.69-2.8.17-5.66.9-8.18,2.17-2.53,1.25-4.71,2.96-6.49,4.88-1.79,1.92-3.17,4.07-4.2,6.35-.07.14.15.26.25.15,3.79-3.95,7.91-7.69,12.94-9.67,5-1.96,10.71-1.81,15.71.05,1.35.5,2.66,1.12,3.86,1.85,1.22.74,2.39,1.63,3.53,2.52,2.26,1.83,4.38,3.86,6.33,6.01,2.02,2.23,3.88,4.6,5.42,7.12.91,1.59,1.57,3.17,3.03,4.29,1.21.9,2.97-.36,2.26-1.89Z"/>
    </g>
    <path class="cls-1" d="M170.71,64.6c-.13-3.13-.38-6.35-1.2-9.53-.79-3.16-2.25-6.31-4.47-8.85-2.18-2.55-5.31-4.58-8.82-5.06-3.48-.49-6.9.3-9.9,1.65-3.03,1.33-5.77,3.23-8.11,5.49-2.37,2.24-4.36,4.81-6.08,7.51-3.47,5.41-5.72,11.41-7.75,17.27-1.76,5.06-3.53,10.25-5.91,15.16-2.33,4.91-5.46,9.42-9.15,13.41-1.85,1.98-3.82,3.85-5.91,5.55-2.09,1.71-4.24,3.29-6.51,4.58-2.27,1.29-4.67,2.34-7.19,2.9-2.51.58-5.19.6-7.79-.2-.33-.09-.28.19.04.33,2.94,1.43,6.29,1.56,9.31.99,3.06-.56,5.9-1.78,8.54-3.28,5.22-3.07,9.81-7.06,13.67-11.67,1.92-2.32,3.65-4.78,5.15-7.39,1.52-2.6,2.77-5.34,3.92-8.1,2.29-5.54,4.05-11.25,6.23-16.75,2.31-5.92,5.29-11.6,9.46-16.23,2.09-2.28,4.46-4.3,7.13-5.74,2.66-1.44,5.58-2.46,8.45-2.48,2.97-.07,5.7,1.14,7.82,3.23,2.1,2.1,3.59,4.84,4.36,7.81,1,3.69.9,7.56,1.93,11.19.79,2.88,2.9,1.6,2.78-1.79Z"/>
    <path class="cls-1" d="M145.57,45.93c4.67,1.55,8.58,4.96,11.42,8.94,1.24,1.73,2.04,3.87,2.95,5.87.92,2.03,2,3.91,4.1,5.89.07.06.3,0,.28-.06-1.04-5.15-2.96-9.93-5.94-14.23-1.61-2.3-3.5-4.46-5.74-6.27-.59-.46-1.17-.93-1.82-1.32-.63-.42-1.27-.82-1.94-1.17-.79-.47-1.6-1.02-2.68-.43-.84.47-1.23,2.58-.63,2.79Z"/>
    <path class="cls-1" d="M136,53.18c2.22,1.75,4.69,2.89,6.96,4,2.28,1.11,4.33,2.26,6.04,3.83,1.51,1.35,2.61,3.24,3.82,5.01,1.22,1.79,2.61,3.46,5.08,4.86.08.04.29-.06.26-.12-2.09-4.59-4.49-9.03-8.37-12.5-2.08-1.87-4.55-3.24-6.8-4.55-1.17-.68-2.3-1.34-3.29-2.09-.61-.49-1.02-1.07-2.14-.82-.91.19-2.18,1.89-1.56,2.39Z"/>
    <path class="cls-1" d="M129.17,66.1c1.25-.06,2.56-.21,3.8-.44l1.8-.36c.56-.11,1.22-.26,1.67-.32,1.98-.27,4.07.23,5.98,1.13,1.68.78,3.07,2.24,4.64,3.53,1.57,1.29,3.4,2.47,6.11,2.69.09,0,.24-.17.19-.21-3.4-3.08-6.4-6.77-10.91-8.84-1.2-.54-2.48-.98-3.84-1.19-.68-.11-1.38-.16-2.09-.14-.35,0-.71.04-1.07.07l-.94.11c-1.29.16-2.5.37-3.65.39-.72.02-1.41-.2-2.08.74-.53.74-.32,2.86.37,2.83Z"/>
    <path class="cls-1" d="M74.88,111.68c1.57-5.81,4.42-11.26,7.91-16.27,3.49-5.03,7.57-9.68,11.81-14.21,8.48-9.05,17.68-17.68,25.26-27.87,1.68-2.19,3.2-4.4,4.91-6.52,1.69-2.13,3.49-4.19,5.44-6.1,3.87-3.82,8.42-6.95,13.46-8.58,2.5-.83,5.11-1.24,7.68-1.19,2.56.06,5.13.61,7.53,1.6,4.82,1.95,9,5.44,11.81,9.98.19.28.34.04.2-.27-2.48-5.83-7.47-10.32-13.28-12.43-2.91-1.05-6.05-1.49-9.13-1.24-3.08.23-6.07,1.1-8.85,2.35-5.61,2.5-10.28,6.65-14.24,11.19-1.99,2.28-3.83,4.68-5.61,7.11-1.81,2.39-3.57,4.77-5.53,7.03-8.29,9.87-18,18.42-26.77,28.12-4.52,5.04-8.77,10.47-12.04,16.59-.93,1.92-2.01,3.76-2.61,5.75-.33.98-.66,1.95-.85,2.94-.15,1-.24,2-.25,2.97-.02,3.07,2.39,2.15,3.17-.95Z"/>
    <path class="cls-1" d="M78.7,130.17c-1.4-3.41-2.64-6.75-3.45-10.23-.81-3.47-1.19-7.02-1.16-10.57.11-3.55.62-7.09,1.49-10.56.19-.87.52-1.71.77-2.57.29-.85.49-1.72.85-2.55l1.01-2.5.5-1.25c.19-.39.36-.79.56-1.17,1.58-3.09,3.83-5.9,6.21-8.65l7.25-8.34,14.45-16.75c2.08-2.4,4.2-4.83,6.35-7.3,2.15-2.44,4.35-4.85,6.7-7.09,4.64-4.5,10.18-8.03,16.04-11,2.92-1.48,5.86-2.8,8.87-3.64,3-.86,6.08-1.19,9.08-.76,6.03.88,11.65,4.44,15.14,9.66.23.33.35.05.16-.31-3.37-6.69-10.31-11.25-17.67-11.67-3.67-.21-7.29.58-10.66,1.79-3.38,1.22-6.56,2.83-9.68,4.54-3.11,1.74-6.12,3.68-8.91,5.91-2.81,2.23-5.35,4.75-7.77,7.36-2.42,2.62-4.71,5.31-7.05,7.97-2.33,2.66-4.67,5.33-7.01,8l-15.17,17.18c-2.54,2.83-5.19,5.69-7.4,9-1.08,1.64-2.1,3.47-2.79,5.28l-1.13,2.71c-.39.9-.63,1.86-.96,2.78-.7,1.92-1.11,3.92-1.59,5.91-.21,1-.32,2.02-.49,3.04-.18,1.01-.25,2.04-.31,3.06-.3,4.1-.04,8.26.77,12.3.49,2.49,1.14,4.91,1.98,7.18.86,2.26,1.93,4.34,3.09,6.15.48.73.82,1.12,1.21,1.32.37.19.7.15.94-.14.23-.28.4-.86.37-1.57-.03-.71-.22-1.58-.59-2.5Z"/>
    <path class="cls-1" d="M113.21,39.45c-9.44,5.46-18.35,11.84-26.53,19.06-4.08,3.63-8.01,7.39-11.71,11.46-3.67,4.07-7.06,8.66-9.1,13.99-2.04,5.3-2.78,10.84-3.41,16.22-.61,5.42-.96,11.02,0,16.62.46,2.79,1.36,5.56,2.43,8.1,1.06,2.56,2.25,4.99,3.25,7.42,2,4.84,3.22,10.01,4.19,15.27.81,4.53,1.54,9.25,2.25,13.97.7,4.73,1.33,9.51,1.74,14.32.43,4.82.57,9.62.48,14.53-.05,4.9-.18,9.9.26,14.93.43,5.02,1.4,10,3.04,14.74,1.63,4.73,3.95,9.2,6.97,13.06,3.02,3.85,6.72,7.04,10.78,9.31,4.06,2.26,8.49,3.6,12.78,3.74.54.03.29-.25-.24-.33-4.95-.73-9.68-2.85-13.75-5.85-4.07-3.01-7.49-6.9-10.06-11.28-2.59-4.38-4.39-9.23-5.54-14.21-1.15-4.99-1.63-10.12-1.69-15.27-.08-5.15.16-10.34,0-15.55-.15-5.21-.65-10.4-1.31-15.56-.66-5.16-1.48-10.29-2.29-15.43-.81-5.13-1.66-10.31-3.11-15.39-.77-2.73-1.76-5.44-2.9-8.02-1.12-2.59-2.31-5.11-3.21-7.69-1.83-5.12-2.09-10.66-1.69-16.15.2-2.75.54-5.51.92-8.26.39-2.74.87-5.46,1.58-8.08.71-2.63,1.66-5.14,2.94-7.5,1.28-2.36,2.84-4.58,4.56-6.7,3.6-4.36,7.8-8.37,12.04-12.23,4.29-3.83,8.76-7.46,13.44-10.79,5.75-4.14,11.73-7.57,16.86-11.45,4.1-3.01,1.18-3.93-3.98-1.01Z"/>
    <path class="cls-1" d="M65.93,125.81c.75,2.55,1.12,5.25,1.22,7.98.11,2.73,0,5.49-.27,8.24-.57,5.51-1.69,10.99-3.1,16.41-.69,2.7-1.5,5.42-2.19,8.2-.69,2.77-1.34,5.55-1.89,8.35-1.11,5.6-1.92,11.28-2.29,17.01-.35,4.93-.42,10.06-.12,15.26.35,5.2,1.09,10.46,2.46,15.53,1.33,5.08,3.29,9.97,5.79,14.37,2.51,4.39,5.63,8.26,9.1,11.3.22.19.31-.07.14-.3-6.67-8.37-11-18.51-13.24-28.99-2.26-10.52-2.38-21.43-1.07-32.15.72-5.78,1.84-11.5,3.27-17.14.7-2.83,1.51-5.6,2.34-8.43.82-2.84,1.58-5.7,2.24-8.59,1.35-6,2.29-12.15,2.28-18.45-.03-.97-.05-1.94-.1-2.9-.1-.96-.16-1.92-.35-2.85-.36-1.87-.94-3.68-1.99-5.18-.83-1.19-1.61-1.24-2.06-.69-.23.28-.38.7-.41,1.21-.04.52.08,1.1.24,1.81Z"/>
    <path class="cls-1" d="M71.12,143.26c.37,4.82.18,9.72-.21,14.61-.39,4.89-1.01,9.78-1.69,14.68l-2.11,14.72c-.65,4.93-1.31,9.89-1.37,15-.13,8.73,1.12,18.2,4.55,26.82,3.35,8.61,8.86,16.26,15.55,20.96.21.15.29-.1.13-.29-12.81-13.76-19.19-33.22-17.41-51.97,1.02-10.16,3.09-20.24,4.52-30.46.75-5.3,1.35-10.65,1.61-16.06.14-3.32.38-6.66-.85-9.59-.93-2.29-2.95-.99-2.71,1.57Z"/>
    <path class="cls-1" d="M75.17,169.61c-3.18,7.07-4.58,14.63-5.19,22.17-.56,7.55-.29,15.17,1.17,22.67,1.28,6.45,3.46,13.29,7.09,19.27,3.58,5.97,8.61,11,14.32,13.55.18.08.26-.16.12-.28-10.81-9.02-17.85-22.38-19.54-36.39-.93-7.57-.73-15.27.39-22.75.59-3.87,1.43-7.71,2.67-11.36.83-2.24,1.82-4.28,1.97-6.56.09-1.86-2.08-2.24-3-.32Z"/>
    <path class="cls-1" d="M68.84,136.91c-.26,9.05-1.48,18.12-3.06,27.1-.39,2.25-.83,4.49-1.27,6.72-.45,2.25-.96,4.43-1.4,6.75-.9,4.58-1.5,9.22-1.74,13.88-.18,4.02-.26,8.18-.05,12.4.24,4.22.74,8.48,1.59,12.64.88,4.16,2.14,8.2,3.76,11.97,1.64,3.75,3.7,7.2,6.07,10.16.15.19.31-.02.21-.23-7.71-15.67-10.6-33.59-8.65-50.98l.45-3.51.6-3.48c.46-2.31.97-4.59,1.53-6.93,1.07-4.66,2.03-9.34,2.86-14.06.87-4.89,1.55-9.81,2.09-14.77.32-3.04.74-6.07-.13-8.85-.69-2.19-2.83-1.24-2.86,1.19Z"/>
    <path class="cls-1" d="M105.18,50.73c-7.71,5.24-14.8,11.41-21,18.37-3.11,3.48-6,7.14-8.66,10.98-2.63,3.85-5.18,7.77-7.12,12.14-.97,2.18-1.77,4.47-2.28,6.84-.52,2.36-.79,4.75-.89,7.12-.2,4.77.27,9.4.78,14.03,1.05,9.28,3.56,18.4,6.57,27.11,2.56,7.54,5.2,15.27,7.52,23.22,2.35,7.94,4.46,16.05,6.4,24.16l.75,3.03c.24,1.01.44,1.95.63,2.95.36,1.99.64,4.02.93,6.07.57,4.09,1.25,8.24,2.47,12.2,1.21,3.96,2.98,7.71,5.32,10.91,2.34,3.2,5.18,5.85,8.23,7.91.37.27.35-.07,0-.39-3.28-2.79-6.07-6.15-8.12-9.94-2.06-3.78-3.38-7.95-4.23-12.22-.86-4.27-1.23-8.66-1.83-13.05-.31-2.19-.75-4.42-1.28-6.54l-1.53-6.44c-2.13-8.57-4.5-17.09-7.17-25.52-2.63-8.45-5.73-16.75-8.17-25.22-2.71-9.09-4.09-18.51-4.41-27.93-.11-4.68.27-9.35,1.75-13.67,1.47-4.33,3.85-8.38,6.47-12.29,5.38-8.13,11.87-15.52,19.19-21.92,4.53-3.94,9.33-7.24,13.38-10.92,1.61-1.45,1.76-2.39.97-2.62-.78-.22-2.57.21-4.64,1.65Z"/>
    <path class="cls-1" d="M77.94,126.08c-.07-6.05,1.97-12,5.14-17.29,3.17-5.31,7.33-10.06,11.74-14.55,4.43-4.5,9.17-8.74,13.77-13.23,2.29-2.26,4.56-4.59,6.63-7.16,1.04-1.27,2.01-2.67,2.89-4.08.84-1.38,1.65-2.77,2.45-4.15,2.75-4.77,5.55-9.68,8.95-14.13,3.36-4.47,7.45-8.33,12.23-10.99,2.38-1.31,4.91-2.29,7.5-2.81,2.6-.5,5.26-.56,7.85-.08,5.19.99,10.04,3.81,13.57,7.95.23.26.34,0,.15-.3-3.43-5.48-9.29-9.19-15.58-10.05-3.15-.41-6.36-.11-9.36.8-3.02.88-5.83,2.33-8.4,4.09-5.19,3.5-9.21,8.4-12.61,13.52-3.42,5.13-6.29,10.6-9.57,15.69-1.77,2.67-4,5.08-6.29,7.4-2.31,2.32-4.73,4.55-7.16,6.79-4.87,4.46-9.8,8.94-14.29,13.95-4.62,5.18-8.84,11.02-11.26,17.85-.77,2.08-1.3,4.24-1.59,6.38-.22,2.15-.15,4.28.45,6.22.48,1.54,1.22,1.86,1.8,1.41.29-.22.55-.63.72-1.18.17-.55.23-1.24.26-2.06Z"/>
    <path class="cls-1" d="M78.84,128.05c4.35-.18,8.7-.74,12.95-1.82,4.25-1.07,8.38-2.7,12.22-4.81,1.93-1.05,3.78-2.23,5.56-3.47.89-.62,1.76-1.25,2.63-1.88.06-.04.35-.25.43-.34l.31-.28.61-.56c.42-.37.8-.77,1.19-1.17,3.13-3.16,5.69-7.11,7.03-11.43.61-1.84,1.01-3.74,1.51-5.47.51-1.79,1.08-3.58,1.7-5.36.62-1.78,1.3-3.56,2.01-5.32.71-1.76,1.44-3.45,2.33-4.98.89-1.54,1.91-2.9,3.16-4,1.25-1.1,2.69-1.93,4.26-2.32,1.56-.38,3.32-.26,5.06.14,1.75.39,3.49,1.01,5.2,1.54.22.07.25-.19.05-.31-1.77-1.05-3.61-2.12-5.67-2.8-2.04-.7-4.4-.89-6.52-.21-2.11.66-3.94,1.93-5.4,3.48-1.47,1.56-2.57,3.39-3.48,5.26-1.76,3.77-3.12,7.62-4.35,11.56-.61,1.95-1.14,3.99-1.65,5.93-.53,1.94-1.2,3.81-2.11,5.57-.97,1.9-2.21,3.64-3.62,5.24-.71.8-1.47,1.55-2.24,2.29l-1.21,1.06-.12.11-.12.08-.34.24-.68.47c-3.58,2.52-7.31,4.67-11.27,6.28-4.12,1.62-8.42,2.77-12.83,3.27-1.36.15-2.7.25-4.02.36-1.31.17-2.58.36-3.82.86-1.96.79-1.13,2.88,1.25,2.8Z"/>
    <path class="cls-1" d="M80.19,116.55c2.28.07,4.1-.81,5.71-1.69,1.61-.92,3.04-1.99,4.42-3.08,2.69-2.17,5.37-4.43,7.87-6.85,5.03-4.83,9.54-10.23,13.35-16.09,1.64-2.52,3.29-5.18,4.8-7.94,1.52-2.76,2.92-5.58,4.26-8.36,2.66-5.55,5.3-10.97,7.04-16.6.05-.18-.19-.24-.29-.09-3.68,5.54-6.98,11.29-9.89,17.21-1.47,2.94-2.92,5.89-4.53,8.73-1.62,2.84-3.4,5.58-5.34,8.22-4.17,5.68-9.06,10.79-14.42,15.29-1.38,1.17-2.82,2.29-4.25,3.42-1.43,1.11-2.86,2.16-4.34,2.97-.91.5-1.83.85-2.64,1.14-.74.26-1.45.51-2.29.8-.62.17-1.23.69-1.29,1.33-.03.32.09.68.4,1.01.3.31.82.56,1.43.58Z"/>
    <path class="cls-1" d="M76.48,123.78c9.04.9,18.2-1.49,25.77-6.33,3.26-2.06,6.69-4.46,9.42-7.49,2.73-3.01,4.74-6.6,5.09-10.53.01-.12-.21-.21-.27-.11-4.11,7.07-10.09,13.12-17.31,16.94-3.88,2.05-8.11,3.37-12.36,3.96-2.21.31-4.42.45-6.62.33-1.36-.1-2.62-.41-3.95.33-1.08.61-1.01,2.75.23,2.89Z"/>
    <path class="cls-1" d="M226.36,136.1c1.13,6.31,2.83,12.36,4.42,18.43.81,3.03,1.62,6.05,2.37,9.08.37,1.51.73,3.02,1.03,4.52.31,1.49.54,3.04.79,4.56,1.84,12.2,1.63,24.82-1.78,36.59-1.5,5.04-3.69,10.11-6.68,14.67-3.02,4.55-6.74,8.74-10.98,12.23-4.25,3.47-8.92,6.41-13.86,8.48-4.94,2.08-10.11,3.41-15.36,3.96-.33.05-.18.29.16.29,6.19.28,12.38-.82,18.02-3.19,5.68-2.28,10.81-5.74,15.3-9.83,2.21-2.09,4.32-4.3,6.15-6.73,1.9-2.38,3.51-4.99,4.98-7.66,2.84-5.39,4.93-11.19,6.19-17.18.38-1.6.62-3.24.9-4.86.2-1.63.46-3.26.57-4.91.32-3.28.4-6.58.35-9.87-.12-6.6-.85-13.14-2.22-19.64-1.47-6.66-3.29-13.15-4.81-19.68-.94-4.03-1.59-7.96-3.01-11.4-.52-1.36-1.28-1.73-1.86-1.3-.57.42-.99,1.71-.68,3.43Z"/>
    <path class="cls-1" d="M243.35,179.74c1.72,11.12,3.24,22.3,2.12,33.33-.53,5.5-1.73,10.92-3.74,16.02-1.85,5.17-4.9,9.67-8.51,13.89-6.2,7.31-14.28,13.72-22.98,18.72-8.71,5-17.73,9.03-27.38,8.96-.31,0-.2.26.1.31,5.59,1.01,11.26.15,16.47-1.56,5.23-1.72,10.11-4.24,14.77-7.06,9.32-5.68,17.58-13.07,24.29-21.82,1.78-2.39,3.38-4.94,4.65-7.68.58-1.38,1.19-2.74,1.72-4.13l.74-2.12.37-1.06.3-1.08c1.66-5.74,2.54-11.71,2.71-17.66.19-6.18-.25-12.34-.93-18.42-.4-3.75-.71-7.42-2.11-10.6-1.11-2.52-3.04-1.07-2.58,1.95Z"/>
    <path class="cls-1" d="M84.18,165.14c.68,4.62,1.77,9.08,2.97,13.51,1.21,4.43,2.59,8.8,4.18,13.12.8,2.16,1.64,4.31,2.62,6.43.97,2.14,2.11,4.2,3.29,6.16,2.37,3.96,4.82,7.72,7.02,11.65,1.92,3.37,3.72,6.97,5.43,10.66,1.71,3.69,3.31,7.43,4.46,11.21,1.15,3.79,1.87,7.61,1.86,11.43.01,3.82-.62,7.62-2.19,11.26-.1.23.16.27.31.07,2.69-3.79,3.87-8.37,3.98-12.82.13-4.49-.83-8.9-2.26-13.06-1.44-4.17-3.33-8.14-5.25-12.07-1.94-3.93-4-7.8-6.21-11.61-2.36-4.11-4.94-8.08-6.97-12.22-1-2.06-1.86-4.22-2.65-6.4-.8-2.18-1.53-4.4-2.21-6.63-1.41-4.63-2.67-9.31-3.64-14.03-.59-2.91-.88-5.75-2.09-8.24-.94-2-2.99-.98-2.66,1.59Z"/>
    <path class="cls-1" d="M92.52,172.36c2.39,9.27,5.6,18.27,9.38,27.02,1.89,4.37,3.98,8.69,6.2,12.89,2.21,4.21,4.49,8.34,6.57,12.53,3.59,7.2,6.46,15.36,7.21,23.55.38,4.08.2,8.17-.51,12.12-.71,3.95-1.95,7.77-3.81,11.37-.11.23.15.28.3.08,2.98-3.69,4.9-8.09,5.86-12.62,1-4.53,1.05-9.22.43-13.77-1.25-9.15-5.03-17.67-9.14-25.8-2.22-4.4-4.52-8.73-6.61-13.13-2.09-4.4-3.98-8.89-5.7-13.44-1.79-4.72-3.42-9.49-4.8-14.32-.85-2.98-1.39-5.94-2.93-8.43-1.22-1.98-3.08-.6-2.45,1.93Z"/>
    <path class="cls-1" d="M99.74,174.18c2.93,7.98,5.91,15.99,9.98,23.63,4.12,7.53,8.84,14.57,12.25,22.14,1.47,3.25,2.66,6.74,3.34,10.34.74,3.58.9,7.34.99,11.12.09,3.79.18,7.56.26,11.27.08,3.68.12,7.29.04,10.9,0,.23.25.18.31-.04,1.04-4.04,1.52-8.16,1.75-12.25.21-4.1.26-8.16.16-12.25-.06-2.05-.2-4.1-.47-6.15-.27-2.05-.71-4.07-1.23-6.07-1.09-3.99-2.68-7.82-4.48-11.53-1.95-3.99-4.13-7.84-6.29-11.67-2.15-3.85-4.29-7.62-6.03-11.58-1.83-4.1-3.47-8.31-4.98-12.58-.93-2.63-1.61-5.28-3.32-7.34-1.35-1.63-3.07-.13-2.29,2.04Z"/>
    <path class="cls-1" d="M96.52,62.56l-9.32,8.87c-3.1,2.98-6.24,5.83-9.34,8.94-1.53,1.57-3.02,3.23-4.34,5.06-1.32,1.83-2.43,3.86-3.27,5.97-1.67,4.24-2.3,8.76-2.27,13.2.06,8.96,2.72,17.39,4.73,25.64,2.04,8.28,3.65,16.71,5.43,25.13,1.54,7.25,3.15,14.8,5.38,22.33,1.09,3.77,2.4,7.52,3.85,11.22,1.48,3.69,3.12,7.29,4.84,10.81,3.43,7.06,7.08,13.84,10.26,20.61,1.6,3.39,3.12,6.77,4.57,10.11,1.43,3.33,2.79,6.68,2.9,10.4.02.47.27.25.31-.23.15-2.21-.17-4.38-.68-6.43-.51-2.06-1.21-4.03-1.9-5.98-1.39-3.9-2.92-7.74-4.57-11.53-3.32-7.57-7.16-14.86-10.55-22.33-1.7-3.73-3.26-7.52-4.62-11.38-1.35-3.87-2.52-7.8-3.56-11.77-2.1-7.94-3.66-16.03-5.27-24.14-.86-4.37-1.73-8.74-2.69-13.11-.94-4.37-2.06-8.71-3.08-13.01-1.01-4.3-1.88-8.62-2.18-12.94-.31-4.31-.03-8.66,1.13-12.72.6-2.1,1.45-4.11,2.55-5.97,1.1-1.85,2.48-3.57,3.99-5.2,1.52-1.63,3.17-3.18,4.86-4.75l5.08-4.71c4.17-3.86,8.39-7.5,11.45-11.68,2.42-3.31-.31-3.64-3.67-.43Z"/>
    <path class="cls-1" d="M74.56,157.08c3.65,14.73,5.83,29.79,7.18,44.92.31,3.28.56,6.72,1.16,10.24.6,3.51,1.6,7.05,3.07,10.34,2.9,6.59,7.75,12.22,13.47,15.05.18.09.27-.15.12-.28-5.34-4.78-9.48-10.94-11.99-17.69-1.28-3.37-2.08-6.9-2.56-10.49-.49-3.59-.7-7.24-1-10.91-.63-7.91-1.45-15.81-2.61-23.68-.6-4.08-1.32-8.14-2.1-12.19-.48-2.49-.79-4.98-2.23-6.97-1.14-1.57-3.01-.31-2.51,1.68Z"/>
    <path class="cls-1" d="M225.01,155.79c.28,8.11-1,16.33-2.94,24.31-.97,4-2.16,7.95-3.5,11.84-1.36,3.9-2.84,7.75-4.49,11.51-2.85,6.48-6.88,12.89-11.71,18.34-2.42,2.73-4.99,5.29-7.76,7.46-2.77,2.17-5.78,3.98-9.29,5.05-.22.07-.1.3.13.28,4.28-.3,8.18-2.14,11.5-4.48,1.68-1.17,3.22-2.5,4.69-3.89.74-.69,1.43-1.43,2.15-2.15.66-.76,1.37-1.49,2-2.28,5.2-6.21,9.02-13.42,12.19-20.84,1.71-4.01,3.26-8.06,4.66-12.2,1.37-4.14,2.57-8.34,3.54-12.61.98-4.43,1.74-8.93,2.14-13.49.26-2.79.54-5.62-.54-8.11-.84-1.95-2.9-.89-2.77,1.26Z"/>
    <path class="cls-1" d="M224.48,168.78c.33,12.88-2.52,25.77-7.6,37.57-1.09,2.55-2.43,5.1-3.87,7.61-1.47,2.5-2.98,5.06-4.61,7.34-3.22,4.59-7.36,8.2-11.99,11.62-.15.11,0,.31.17.24,6.18-2.17,11.45-6.46,14.94-11.82,3.47-5.31,6.46-10.9,8.93-16.79,2.66-6.33,4.73-12.93,6.04-19.72.66-3.52,1.12-7.09,1.38-10.67.15-2.2.43-4.39-.56-6.35-.76-1.54-2.87-.77-2.82.95Z"/>
    <path class="cls-1" d="M223.6,167.4c-1.05,4.74-3.47,9.29-5.66,13.96-2.22,4.64-4.48,9.25-6.84,13.8-4.73,9.09-9.89,17.95-16.08,26.02-1.32,1.75-2.75,3.45-4.23,5.15-1.53,1.7-3.08,3.42-4.64,5.15-1.57,1.76-3.1,3.64-4.52,5.62-1.39,1.99-2.66,4.07-3.77,6.22-4.44,8.59-6.09,18.46-4.32,26.74.05.26.29.13.29-.13-.02-9.72,2.68-19.46,7.67-27.84,1.24-2.11,2.65-4.09,4.15-6.02,1.52-1.91,3.16-3.74,4.82-5.58,3.34-3.65,6.54-7.51,9.47-11.56,6.32-8.72,11.69-18.08,16.63-27.59,2.56-4.95,5.02-9.87,7.48-14.92,1.48-3.11,3-6.46,2.6-9.84-.16-1.32-.86-1.72-1.5-1.49-.66.24-1.26,1.05-1.54,2.32Z"/>
    <path class="cls-1" d="M90.05,191.22c.26,9.19,1.72,18.39,4.86,27.08,1.35,3.73,2.78,7.77,4.92,11.41,2.12,3.62,4.95,6.81,8.65,8.55.12.06.27-.13.19-.22-5.59-6.51-9.56-14.33-11.99-22.57-1.31-4.45-2.13-9.01-2.6-13.58-.11-1.19-.25-2.37-.3-3.56-.08-1.19-.15-2.37-.15-3.56-.05-1.46.2-2.88-.76-4.19-.76-1.04-2.86-.61-2.82.64Z"/>
    <path class="cls-1" d="M227.44,146.55c1.89,10.23,3.31,20.62,4.16,30.98.2,2.59.35,5.18.4,7.75l.02,1.92-.06,1.9c0,.64-.09,1.24-.14,1.86-.05.6-.14,1.25-.24,1.89-.73,5.16-1.7,10.18-3.48,14.94-2.98,8.26-8.61,16.1-15.68,21.85-1.77,1.44-3.64,2.74-5.56,3.94-1.92,1.19-3.94,2.24-5.97,3.24-4.07,1.99-8.24,3.74-12.09,5.76-.24.13-.05.32.21.24,4.83-1.42,9.71-2.83,14.39-4.86,1.17-.5,2.32-1.05,3.45-1.64,1.14-.58,2.22-1.26,3.31-1.91,2.15-1.38,4.17-2.94,6.08-4.62,7.58-6.83,12.96-15.93,15.79-25.77.79-2.65,1.33-5.35,1.82-8.05.24-1.35.46-2.69.67-4.05l.23-2.11.1-2.09c.13-5.54-.23-10.99-.68-16.44-.49-5.65-1.18-11.26-1.93-16.87-.47-3.45-.78-6.87-2.29-9.79-1.2-2.29-3.05-.8-2.52,1.94Z"/>
    <path class="cls-1" d="M233.56,150.33c.04,3,.53,5.88,1.04,8.69l1.56,8.35c1.02,5.58,2.14,11.1,2.63,16.63,1.07,11.03-1.27,22.11-4.63,32.78-.73,2.3-1.52,4.66-2.39,6.96-.87,2.29-1.86,4.51-3.16,6.47-1.29,1.96-2.96,3.73-4.79,5.43-1.82,1.71-3.75,3.29-5.75,4.79-8.03,5.97-17.08,10.08-26.01,13.16-.28.1-.1.31.2.26,10.94-1.74,21.27-6.36,29.83-13.24,2.12-1.74,4.17-3.57,6.04-5.61,1.88-2.03,3.44-4.43,4.59-6.95,1.17-2.52,2.05-5.12,2.95-7.69.89-2.58,1.73-5.19,2.49-7.83,1.65-5.68,2.95-11.5,3.53-17.45.29-2.97.38-5.98.27-8.98-.12-3-.45-5.97-.86-8.91-.9-6.09-2.01-12.05-3-18.06-.63-3.71-.92-7.11-1.67-10.3-.29-1.27-.93-1.75-1.58-1.48-.65.26-1.3,1.35-1.28,2.98Z"/>
    <path class="cls-1" d="M247.32,210.12c.87,8.41,1.01,16.98-1.33,24.94-2.32,7.96-6.91,15.19-12.74,21.12-2.53,2.55-5.44,4.89-8.57,6.97-3.15,2.07-6.5,3.91-9.92,5.56-6.86,3.32-13.92,5.92-20.47,9-.21.1-.05.31.17.26,8.15-1.71,16.1-4.24,23.52-7.96,7.4-3.72,14.29-8.65,19.85-14.96,6-6.73,10.55-15,12.33-24.06.93-4.67,1.16-9.43,1.08-14.13-.05-2.89-.03-5.74-1.22-8.2-.94-1.94-2.95-.83-2.71,1.45Z"/>
    <path class="cls-1" d="M236.83,155.17c-3.61-11.66-6.6-23.51-6.34-35.58,0-1.32.02-2.7-.03-4.11-.08-1.4-.21-2.76-.31-4.16-.25-2.84-.44-5.47-.54-8.21-.23-5.43-.38-10.92-1.88-16.03-.05-.16-.29-.1-.29.06-.21,5.89-.58,11.78-.36,17.7.1,2.98.45,5.9.7,8.81.34,2.91.11,5.79.1,8.79-.04,6.45.75,12.88,1.99,19.19.64,3.27,1.44,6.5,2.24,9.71.5,1.97.82,3.96,2.23,5.44,1.11,1.17,2.97-.03,2.48-1.61Z"/>
    <path class="cls-1" d="M78.82,136.57c.16-.91.68-1.77,1.34-2.49.67-.73,1.47-1.33,2.31-1.91.74-.51,1.82-.51,2.61-1.08.81-.58,1.38-1.77,1.6-4.85,0-.1-.11-.44-.14-.42-2.19,1.48-4.46,2.22-6.86,3.43-1.28.66-2.62,1.41-3.8,2.51-.61.57-1.13,1.24-1.62,1.96-.29.43-.86.86.38,1.72.98.65,4.15,1.34,4.17,1.13Z"/>
    <path class="cls-1" d="M78.66,131.69c1.39-.64,2.94-.78,4.37-1.35.61-.24,1.47-.06,2.01-.55.54-.49.76-1.66-.13-4.48-.03-.09-.21-.4-.22-.38-.77,1.35-2.09,1.78-3.48,1.83-.75.03-1.55-.11-2.31-.21-.39-.05-.76-.05-1.15-.09-.24-.03-.54-.34-.35,1.09.15,1.13,1.05,4.23,1.25,4.14Z"/>
    <path class="cls-1" d="M80.12,157.75c-1.61-4.29-2.56-8.87-3.26-13.52-.71-4.65-1.19-9.42-1.78-14.15-.51-4.08-.56-8.5-1.31-12.77-.39-2.15-.92-4.23-1.69-6.19-.76-1.98-1.74-3.88-2.94-6.07-.08-.14-.44-.12-.44.02-.09,2.46.14,4.84.42,7.15.31,2.28.61,4.56.92,6.85.58,4.55,1,9.12,1.35,13.72.37,4.96.61,9.92,1.19,14.96.32,2.61.77,5.22,1.34,7.83.34,1.6.49,3.3,2.33,4.21,1.45.7,4.3-.93,3.86-2.05Z"/>
    <path class="cls-1" d="M76.71,131.76c.27-.89.94-1.79,1.86-2.49.9-.7,2.04-1.21,3.31-1.61,1.27-.4,2.67-.69,4.15-1.02,1.46-.33,2.92-.66,4.37-1.01,2.46-.62,5.38-.71,8.15-1.97,1.37-.62,2.68-1.57,3.6-2.89.91-1.31,1.38-3.03.96-4.8-.02-.11-.32-.31-.36-.25-1.28,2.17-3.72,3.67-6.32,4.54-2.62.89-5.47,1.34-8.32,1.82-1.54.25-3.07.46-4.64.67-1.57.22-3.24.48-4.95,1.07-1.76.6-3.57,1.66-5.05,3.21-.46.48-.95.97-1.21,1.6-.26.62-.29,1.38.23,2.14.42.61,1.46.92,2.4,1.06.94.13,1.75.18,1.82-.05Z"/>
    <path class="cls-1" d="M76.92,143.91c.34-4.64,1.6-9.08,4.14-11.86,1.07-1.23,2.89-1.78,4.6-2.96.86-.59,1.7-1.36,2.34-2.45.63-1.08,1.06-2.5.89-4.2,0-.11-.25-.37-.29-.33-1.41,1.59-3.4,2.73-5.42,3.86-1.01.58-2.05,1.17-3.06,1.86-1.01.7-1.98,1.54-2.83,2.48-1.84,2.04-3.19,4.51-4.14,7.01-.5,1.3-.84,2.62-1.2,3.91-.22.8-.7,1.53.62,2.43,1.05.7,4.28.87,4.33.24Z"/>
  </g>
</svg>