<?xml version="1.0" encoding="UTF-8"?>
<svg id="Calque_2" data-name="Calque 2" xmlns="http://www.w3.org/2000/svg" viewBox="0 0 300 300">
  <defs>
    <style>
      .cls-1 {
        fill: #1d1d1d;
      }

      .cls-2 {
        fill: #1db4b8;
      }
    </style>
  </defs>
  <path class="cls-2" d="M206.1,149.24c-5.96,2.4-12.08,4.39-18.26,6.15l-6.5,1.83c-2.88.79-5.78,1.58-8.75,2.34l-18.31,4.59.56,2.59.34,1.94c-.01.09.17.49.28.78l.36.89.69,1.62c.45,1.01.86,1.9,1.27,2.73.75,1.61,1.56,3.06,2.85,4.79l1.24,1.37.62.7.31.35c.12.12.3.24.45.36l1.89,1.47.96.74,1.2.7c1.64.94,3.29,1.87,4.95,2.82l2.52,1.42,2.44,1.5c.8.49,1.69,1,2.41,1.48.36.24.72.47,1.09.69.73.45,1.47.9,2.24,1.3,3.04,1.65,6.34,2.92,10.42,3.48,4.08.56,8.93.43,15.16-.57.4-.06,1.25-1.02,1.06-1.16-6.9-5.18-13.62-10.06-20.56-14.66-2.31-1.51-4.62-3.01-6.93-4.52-.94-.61-1.81-1.14-2.51-1.71-.69-.57-1.22-1.24-1.31-2.09-.02-.13,0-.26,0-.39.03-.13-.04-.3.28-.29l1.35-.15c.89-.09,1.74-.16,2.56-.22,2.08-.15,3.86-.18,5.25-.11.69.04,1.29.1,1.79.19.25.04.47.1.68.15l.15.04.58-.09,1.18-.19c4.56-.74,9.04-1.75,13.57-2.67,2.78-.57,5.86-.16,6.58-5.84.56-4.49-4.08-15.18-6.14-14.35Z"/>
  <path class="cls-2" d="M54.51,156.69c5.69,4.01,11.04,8.45,16.31,12.99l3.95,3.41.99.85.44.38.06.08.22.3c.28.38.48.66.8.92.06.05.08.1.07.14-.61.15-1.52.12-1.88-.03-.2-.07-.28-.14-.29-.15,0,0,.01.01.03.06,0,0,0,0,0,.01l-.12.08-.23.16-.46.33c-.31.22-.61.45-.9.69-4.73,3.79-8.11,9.77-7.92,21.01,0,.38.71,1.45.85,1.32,4.45-3.97,9.22-7.34,14.22-10.3l2.02-1.17,2.57-1.43c1.72-.94,3.48-1.87,5.28-2.8,3.6-1.86,7.41-3.73,11.56-5.71-1.62-1.55-3.25-3.11-4.88-4.67l-5.47-5.38-5.87-5.87-7.25-8.24c-2.53-2.82-5.19-5.47-7.77-8.24-1.58-1.7-2.48-4.18-7.31-1.47-3.82,2.14-10.54,11.64-9,12.73Z"/>
  <path class="cls-2" d="M125.72,53.5c-3.34,14.4-5.32,28.68-5.66,42.5-.14,5.95-1.89,12.18-1.38,18.22.27,3.04,1.08,6.02,2.96,9.04.92,1.51,2.15,3.05,3.66,4.61,1.51,1.56,3.35,3.17,5.6,4.85.28.21,1.46.25,1.45.07-.58-6.88-.81-13.47-.64-20.05.16-6.57.71-13.1,1.66-19.57,1.01-6.96,2.73-13.77,4.69-20.21.52-1.66.96-3.34,1.51-4.95l.78-2.43c.28-.8.59-1.58.9-2.36.72-1.98,2.48-3.42-1.54-6.57-1.59-1.25-4.96-2.56-8-3.29-3.04-.73-5.75-.84-5.98.14Z"/>
  <g>
    <path class="cls-1" d="M145.71,32.27c-2.42.59-5.08.6-7.84.83-2.75.24-5.73.71-8.39,2.38-2.3,1.39-4.42,3.79-5.04,6.61-.32,1.39-.28,2.86.21,4.15.48,1.29,1.43,2.38,2.69,2.89.08.03.27-.09.24-.15-1.19-1.97-1.37-4.62-.54-6.89.41-1.14,1.04-2.19,1.86-3.06.81-.87,1.83-1.51,2.94-1.97,2.41-.99,5.1-1.07,7.83-1.05,1.43,0,2.9,0,4.42-.1.92-.05,1.93.03,2.57-1.05.49-.85-.32-2.75-.94-2.6Z"/>
    <path class="cls-1" d="M208.37,183.57l-4.04,21.85-2.03,10.92-1.02,5.46c-.35,1.82-.66,3.65-1.07,5.37-.42,1.72-.95,3.37-1.76,4.82-.8,1.46-1.88,2.8-3.12,4.02-2.48,2.45-5.56,4.48-8.58,6.62-6.04,4.25-12.18,8.34-18.57,11.91-6.41,3.52-13.1,6.54-20.12,8.23l-1.31.33-1.33.24c-.89.15-1.77.34-2.66.47-1.79.18-3.57.45-5.36.44-3.58.13-7.16-.14-10.68-.87-7.05-1.42-13.79-4.35-20.33-7.66-3.27-1.67-6.53-3.43-9.78-5.19-3.24-1.76-6.44-3.56-9.49-5.54-5.24-3.4-10.14-7.5-13.55-12.78-3.46-5.26-5.52-11.49-7.06-17.89-2.91-12.94-5.07-26.35-6.7-39.65-3.25-26.65-3.99-53.14-3.86-77.23,0-.76-.27-.38-.32.39-2.1,28.47-1.21,57.05,2.66,85.24.94,7.05,2.13,14.07,3.46,21.06,1.34,6.98,2.72,14.02,5.31,20.76,1.3,3.36,2.93,6.62,5.01,9.6,2.07,2.99,4.61,5.64,7.37,7.98,5.55,4.67,11.91,8.14,18.16,11.56,6.75,3.68,13.59,7.37,20.97,9.94,3.69,1.27,7.5,2.28,11.41,2.76.49.06.98.13,1.47.17l1.47.09c.98.04,1.97.15,2.95.13l2.95-.07c.99,0,1.96-.18,2.94-.26l1.47-.15c.49-.06.97-.16,1.45-.24.97-.18,1.94-.33,2.9-.53,1.9-.47,3.82-.9,5.67-1.54,1.89-.54,3.69-1.28,5.53-1.96,1.79-.78,3.61-1.5,5.35-2.37,7.05-3.35,13.63-7.49,20.05-11.78l4.95-3.39c1.64-1.14,3.29-2.26,4.93-3.51,1.63-1.24,3.24-2.6,4.68-4.2,1.43-1.59,2.68-3.47,3.5-5.51.82-2.02,1.3-4.08,1.69-6.07l1.14-5.88,2.26-11.74c1.86-9.63,3.87-19.03,4.57-27.86.55-6.98-2.09-4.38-3.53,3.5Z"/>
    <path class="cls-1" d="M221.61,162.11c.17-.21.53-.41.86-.44.18-.01.27,0,.45.04.18.05.35.14.52.26.34.24.66.62.89,1.07.23.45.36.95.43,1.53.13,1.15-.06,2.49-.26,3.92-.19,1.41-.41,2.82-.64,4.23-.93,5.63-2.16,11.19-3.77,16.62-1.4,4.68-3.52,9.45-5.69,14.06-.54,1.2-1.02,2.25-1.58,3-.57.73-1.05,1.12-1.93,1.13-.88,0-1.9-.46-2.67-1.33-.79-.87-1.36-2.06-1.77-3.34-.05-.16-.29-.09-.29.07,0,1.52.31,3.14,1.26,4.49.95,1.35,2.53,2.28,4.27,2.15.87-.07,1.66-.45,2.28-.96.62-.51,1.09-1.12,1.48-1.74.78-1.25,1.31-2.51,1.94-3.75,2.37-5.03,4.32-10.26,5.93-15.61,1.72-5.77,3.08-11.65,4.13-17.58.25-1.53.6-3.04.61-4.88.02-1.79-.54-4-2.21-5.52-.52-.47-1.14-.88-1.85-1.13-.71-.26-1.61-.32-2.33-.15-1.44.32-2.7,1.46-2.82,2.95-.04.57.22.94.51,1.09.29.16.62.13.94.08.31-.05.61-.12.83-.14.23-.03.37-.02.46-.13Z"/>
    <path class="cls-1" d="M57.23,162.69c-.94-1.63-1.92-3.24-2.92-4.83l-1.53-2.37-.39-.59c-.23-.35-.47-.69-.75-.99-.55-.59-1.26-.97-2.05-.98-.97-.02-1.84.55-2.51,1.33-.17.18-.34.4-.48.61-.11.16-.2.32-.3.48-.18.32-.34.66-.46.99-.51,1.33-.66,2.61-.77,3.81-.17,2.37-.29,4.75-.18,7.12.14,4.75.9,9.43,1.92,14.01,1.27,5.53,2.77,11.4,4.82,16.96.51,1.39,1.05,2.75,1.63,4.1.59,1.36,1.34,2.93,2.72,4.08.69.57,1.49.96,2.34,1.13.85.17,1.75.07,2.47-.34.73-.42,1.14-1.11,1.26-1.77.13-.67-.11-1.29-.51-1.53-.1-.06-.27.1-.24.16.18.28.14.77-.15,1.21-.14.21-.33.4-.54.53-.2.13-.43.2-.72.23-1.12.1-2.4-.68-3.12-1.83-.78-1.16-1.23-2.65-1.76-4.11l-1.52-4.39c-1.98-5.87-3.69-11.83-4.74-17.92-.56-3.28-.91-6.58-.98-9.87v-2.47s.12-2.46.12-2.46c.16-1.61.24-3.33.62-4.69.17-.62.4-1.17.7-1.59l.06-.08s0,0,0,0l.03-.03s.04-.03.06-.04c.04-.02.09-.04.13-.03.06.02.1.07.12.12v.04s-.01-.02.08.12l.38.62c.51.82,1,1.65,1.49,2.48,1.06,1.83,1.88,3.73,3.62,4.94,1.37.97,2.93-.61,2.04-2.16Z"/>
    <path class="cls-1" d="M139.77,186.36c-5.73-.33-11.41-1.44-16.86-3.23-1.34-.46-2.85-.9-3.6-1.47-.39-.3-.57-.54-.72-.96-.15-.42-.22-.99-.22-1.63.02-2.74.39-5.59.95-8.38.98-4.82,2.94-9.89,4.25-15.08,1.34-5.17,2.2-10.39,1.68-15.48-.02-.16-.26-.15-.3,0-1.3,5.49-2.75,10.92-4.3,16.32-1.52,5.4-3.36,10.75-4.38,16.43-.27,1.53-.48,3.07-.6,4.63-.05.78-.12,1.56-.07,2.43.05.86.23,1.83.78,2.72.55.91,1.4,1.53,2.18,1.94.8.42,1.55.69,2.26.97,1.45.55,2.92,1.06,4.4,1.52,3.08.95,6.24,1.66,9.43,2.2,1.96.33,3.9.76,5.74-.07,1.44-.66.91-2.8-.62-2.88Z"/>
    <path class="cls-1" d="M97.31,149.71c-.8.55-2.19.54-3.12-.05-.9-.53-1.41-1.65-1.31-2.86.04-.59.22-1.18.5-1.68.29-.5.67-.9,1.17-1.22.98-.64,2.32-.86,3.52-.6,1.02.19,2.02.92,2.34,1.63.16.34.25.79.28,1.35.02.57,0,1.22-.08,1.78-.07.57-.19,1.08-.36,1.53-.17.44-.36.84-.75,1.24-.76.82-2.23,1.44-3.8,2.08-.1.04-.1.28,0,.29.86.1,1.74.14,2.64.03.89-.11,1.83-.38,2.62-.94.79-.55,1.37-1.35,1.71-2.18.35-.83.52-1.69.59-2.54.06-.85.06-1.7-.14-2.59-.19-.89-.68-1.77-1.33-2.42-1.31-1.3-3.12-1.95-4.94-1.97-1.95-.02-4.03.7-5.46,2.36-1.39,1.65-1.94,3.92-1.37,6.14.3,1.14.99,2.26,1.99,3.05.98.78,2.15,1.23,3.37,1.38.75.09,1.54.09,2.27-.16.72-.25,1.37-.78,1.61-1.56.17-.64-.29-1.19-.79-1.57-.51-.38-.98-.65-1.17-.51Z"/>
    <path class="cls-1" d="M166.37,151.61c-.8.55-2.19.54-3.12-.05-.9-.53-1.41-1.65-1.31-2.86.04-.59.22-1.18.5-1.68.29-.5.67-.9,1.17-1.22.98-.64,2.32-.86,3.52-.6,1.02.19,2.02.92,2.34,1.63.16.34.25.79.28,1.35.02.57,0,1.22-.08,1.78-.07.57-.19,1.08-.36,1.53-.17.44-.36.84-.75,1.24-.76.82-2.23,1.44-3.8,2.08-.1.04-.1.28,0,.29.86.1,1.74.14,2.64.03.89-.11,1.83-.38,2.62-.94.79-.55,1.37-1.35,1.71-2.18.35-.83.52-1.69.59-2.54.06-.85.06-1.7-.14-2.6-.19-.89-.68-1.77-1.33-2.42-1.31-1.3-3.12-1.95-4.94-1.97-1.95-.02-4.03.7-5.46,2.36-1.39,1.65-1.94,3.92-1.37,6.14.3,1.14.99,2.26,1.99,3.05.98.78,2.15,1.23,3.37,1.38.75.09,1.54.09,2.27-.16.72-.25,1.37-.78,1.61-1.56.17-.64-.29-1.19-.79-1.57-.51-.38-.98-.65-1.17-.51Z"/>
    <path class="cls-1" d="M194.35,127.99c-1.02-.22-2.08-.37-3.16-.42-1.08-.05-2.16.04-3.11.12-.95.08-1.8.1-2.68.03-.34-.03-1.14-.1-1.63-.06-.55.01-1.07.06-1.57.11-4,.44-7.76,1.08-11.58,1.27-.95.05-1.9.08-2.84.07l-1.41-.03c-.49,0-1.09,0-1.63.02-2.19.14-4.23.72-6.15,1.46-1.93.74-3.75,1.66-5.5,2.68-.88.51-1.73,1.05-2.57,1.6l-1.17.81-1.68-2.12c-.06-.04.04-.09.06-.14l.5-.58c.54-.58,1.13-1.11,1.77-1.6,1.47-1.13,3.22-2.01,5.09-2.63,1.86-.62,3.88-.99,5.94-1.21,4.12-.42,8.55-.34,12.91-.59,2.18-.1,4.35-.23,6.5-.41,1.07-.1,2.13-.19,3.19-.29,1.02-.09,1.83-.12,2.66.1.85.21,1.85.7,2.85,1.04.99.36,1.98.68,2.96.98.99.3,1.97.58,2.95.85l1.47.41c.25.07.49.14.76.25.08.04.13.04.29.18.02.02.08.09.1.14,0,0,.04.06.07.21.02.13,0,.25-.04.36-.05.12-.16.25-.28.32-.14.07-.1.04-.16.07-.07.02-.18.03-.18.03-.13,0-.17,0-.23,0l-.45-.02c-.27-.02-.22.24.07.32.09.02.17.04.3.06.07,0,.12.03.34.03.03,0,.25-.02.35-.07-.01.02.4-.18.51-.4.15-.24.19-.42.18-.67-.03-.28-.12-.43-.12-.43-.03-.05-.06-.1-.1-.15-.09-.11-.07-.08-.12-.13-.21-.19-.25-.19-.35-.26l-.22-.13c-.28-.16-.54-.29-.81-.42l-1.58-.75-3.13-1.46c-1.04-.49-2.08-.97-3.08-1.5-.52-.27-1.06-.54-1.66-.76-.6-.22-1.26-.37-1.88-.42-1.26-.1-2.4.02-3.55.05l-3.45.13-6.89.24c-4.58.17-9.24.11-13.87,1.07-2.31.48-4.59,1.25-6.7,2.41-1.05.58-2.06,1.26-3,2.04-.47.39-.91.81-1.33,1.26-.21.24-.39.42-.63.72-.25.34-.52.66-.76,1.01l-.33.48-.17.24s-.03.04-.04.06l.04.06.09.11.7.92,1.13,1.45,1.07,1.37c.49.62.99,1.29,1.5,1.9.59-.44,1.24-.96,1.8-1.34.65-.47.96-.65,1.38-.93.81-.51,1.63-1.01,2.47-1.48,1.67-.93,3.4-1.75,5.16-2.39,1.76-.63,3.57-1.08,5.32-1.14.45.01.82,0,1.34.02.51.02,1.02.06,1.53.06,1.01.02,2.03,0,3.03-.03,2.65-.1,5.26-.38,7.83-.67,1.28-.15,2.56-.3,3.79-.4.61-.05,1.21-.07,1.72-.06l.33.03.52.05c.36.04.72.06,1.08.08.89.03,1.77,0,2.54-.04.78-.04,1.45-.07,2.12-.07,1.32,0,2.67.09,4.12,0,1.14-.06,1.67-.64,1.57-1.31-.1-.67-.83-1.46-2.19-1.75Z"/>
    <path class="cls-1" d="M72.4,129.16c1.63-.65,3.3-1.27,4.8-1.43.75-.06,1.4-.03,2.16.21.76.21,1.61.56,2.52.87,1.81.64,3.73,1.07,5.62,1.36.94.1,1.89.26,2.83.3l2.77.19c3.54.22,7.04.86,10.35,2,1.65.58,3.25,1.28,4.76,2.12.75.42,1.49.87,2.18,1.37l.32.22.51.41c.34.29.67.53,1.01.87l2.05,2.07c.49-1.26.97-2.73,1.46-4.09l.57-1.61.32-.92.18-.52.09-.26.04-.13s-.05-.08-.07-.12l-.61-.92c-.19-.3-.44-.66-.54-.78-.26-.36-.55-.7-.85-1.02-.59-.66-1.24-1.25-1.92-1.79-3.34-2.64-7.48-4.11-11.6-4.87-4.11-.78-8.2-1.01-12.02-1.63-1.89-.29-3.91-.8-6.12-.9-1.13-.04-2.19,0-3.43.3-1.17.34-2.09.83-2.99,1.36-1.76,1.07-3.3,2.31-4.7,3.64-.7.67-1.36,1.36-1.96,2.09-.29.36-.59.74-.8,1.11-.05.09-.1.19-.11.25v.02s.02,0-.07-.04c-.14-.06-.23-.11-.31-.11-.05-.01-.06.04-.02-.05,0-.04.04-.2.01-.31,0-.25-.01-.16,0-.18l.04-.03.1-.08.24-.19c.17-.14-.03-.3-.21-.22l-.24.1h0s.01.08.02.14l.03.15c.02.1.03.2.03.3,0,.08.02.14,0,.22,0,.13-.07.18-.03.15.01,0,.05,0,.12.01l.2.08c.12.07.34.19.51.32.03.03.02,0,.03,0l.08-.1c.06-.07.14-.16.23-.24.34-.33.74-.67,1.14-.99.81-.65,1.66-1.26,2.53-1.85,1.74-1.16,3.56-2.26,5.44-3,.47-.18.94-.33,1.39-.41.45-.06.97-.11,1.47-.1,1.01,0,2.03.14,3.06.32,2.04.4,4.19.89,6.33,1.15,4.26.58,8.53.81,12.56,1.91,2.01.55,3.94,1.34,5.69,2.4.87.53,1.69,1.14,2.43,1.83.37.34.73.7,1.04,1.08.16.19.33.38.47.58l.22.3c.06.08.09.12.13.19l.18.29c-.03.11-.08.21-.12.32l-.36.96-.23.59-.11.28-.06.14s-.02.05-.03.06l-.06-.06c-.16-.17-.32-.32-.48-.47l-.24-.21-.1-.09-.3-.22c-.79-.58-1.61-1.1-2.45-1.59-1.68-.97-3.46-1.76-5.27-2.44-3.65-1.29-7.47-2.05-11.31-2.33-2.37-.21-4.65-.39-6.85-.91-1.09-.27-2.15-.57-3.22-.98-1.07-.38-2.2-.93-3.71-1.22-.91-.19-1.88-.17-2.73-.08-.45.03-.84.14-1.24.22-.41.08-.79.19-1.15.32-.36.13-.72.26-1.07.4-.33.16-.66.32-.98.5-.64.35-1.22.77-1.74,1.25-1.66,1.51.08,3.07,2.21,2.14Z"/>
    <path class="cls-1" d="M112.52,229.8c5.11.84,10.31,1.52,15.59,1.55,5.27.03,10.64-.6,15.71-2.4,5.06-1.78,9.76-4.56,13.73-8.16,1.99-1.79,3.81-3.78,5.42-5.94.4-.54.81-1.07,1.16-1.64l.55-.84.15-.22c.07-.1.15-.23.21-.36l.42-.77c.55-1.03,1.14-2.05,1.66-3.1l.79-1.57.4-.79.2-.39s.05-.08.03-.08l-.11.02-.21.05c-1.96.41-3.94.83-5.94,1.25-.26.06-.52.12-.79.17l-.64.13-.82.16c-.55.1-1.1.21-1.65.31-1.11.18-2.23.35-3.35.53-1.13.14-2.26.29-3.4.44-4.55.52-9.19.8-13.79.93-9.23.27-18.28-.09-26.86.03-.27,0-.18.26.08.31,9.81,1.78,19.75,2.51,29.66,2.15,4.95-.18,9.9-.63,14.82-1.36l3.68-.61,3.09-.59,1-.21.48-.1c.07-.03.02.03,0,.07l-.06.12-.13.24c-.17.31-.32.62-.51.91l-.26.43-.13.21c-.04.07-.08.12-.18.27-5.67,8.76-15.09,14.89-25.19,16.54-5.26.89-10.68.77-16.05.11-3.32-.41-6.51-1.17-9.66-.79-2.5.29-1.87,2.57.91,3.04Z"/>
    <path class="cls-1" d="M175.98,215.82c-2.26-3.72-4.61-7.43-7.54-10.7-1.25-1.4-2.44-3.08-4.01-4.33-1.56-1.24-3.51-2.03-6.01-1.53-.08.02-.2.22-.15.25,3.54,1.97,6.46,4.84,8.87,8.08,1.3,1.75,2.41,3.62,3.43,5.51.53.98,1.08,1.95,1.55,2.95.31.61.4,1.31,1.52,1.39.89.07,2.65-1.12,2.33-1.63Z"/>
    <path class="cls-1" d="M78.37,126.45c2.78-.78,6.13-.44,9.45-.41l4.97.13c1.66.06,3.33.06,4.87.21,1.54.13,2.96.49,4.44,1.03,1.46.54,2.97,1.21,4.34,1.93,2.75,1.43,5.17,3.43,5.86,5.96l2.63-1.81c-1.12-.83-2.27-1.64-3.45-2.42-2.71-1.78-5.65-3.52-8.95-4.75-1.65-.61-3.38-1.09-5.17-1.36-1.81-.29-3.56-.29-5.16-.34-1.6-.03-3.07-.19-4.67-.42-1.58-.22-3.21-.48-4.87-.61-1.65-.13-3.34-.1-4.94.21-1.59.31-3.09.92-4.23,1.83-.14.11.02.3.18.24,1.48-.58,3.13-.78,4.81-.74,1.68.05,3.37.33,5.07.68,1.7.35,3.43.76,5.2,1.04,1.78.3,3.59.34,5.32.41,3.45.09,6.78.96,9.91,2.41,3.13,1.43,6.02,3.37,8.8,5.48l.59.45,2.15,1.64-.68-2.65c-.52-2.01-1.77-3.74-3.22-5.06-1.46-1.34-3.13-2.36-4.82-3.23-1.69-.85-3.39-1.64-5.28-2.24-1.88-.61-3.92-.84-5.77-.94l-11.82-.58c-1.23-.05-2.51-.13-3.8.04-.64.09-1.27.23-1.88.47-.62.24-1.14.57-1.53.9-.59.52-.82,1.2-.55,1.81.26.62,1.33.95,2.21.68Z"/>
    <path class="cls-1" d="M108.81,129.08c-4.77-1.39-9.56-2.79-14.49-3.55-2.09-.33-4.43-.91-6.59-.98-1.08-.05-2.09,0-3.15.15-1.06.15-2.15.42-3.56.7-.09.02-.18.24-.11.27,2.42,1.08,4.88,1.26,7.21,1.5,2.34.22,4.62.59,6.9,1.13,2.45.57,4.84,1.35,7.2,2.17,1.22.43,2.45.84,3.65,1.31.74.29,1.4.76,2.37.1.77-.52,1.22-2.6.57-2.8Z"/>
    <path class="cls-1" d="M182.93,125.49c-3.19-.05-6.32.27-9.37.63-3.05.36-6.12.75-9.19,1.3-3.07.55-6.13,1.25-9.14,2.24-1.5.5-2.98,1.07-4.44,1.72l-1.08.5c-.38.18-.77.39-1.18.66-.4.27-.82.59-1.21,1.04-.39.44-.72,1.06-.86,1.73l-.53,2.56,2.52-.7c2.84-.79,5.17-2.26,7.42-3.36,2.21-1.11,4.56-1.8,7.04-2.29,2.47-.48,5.05-.77,7.63-1.05,2.58-.27,5.16-.48,7.75-.63,2.22-.13,4.48-.2,6.77-.22,1.14,0,2.29,0,3.45.02l1.74.04h.22s.05,0,.05,0h.03s.01,0,.01,0h0c0,.63.02-.86.01-.71v.02c0,.08-.01.17-.01.23-.03.28-.07.29.02.08.07-.2.3-.57.5-.73.12-.09.18-.11.2-.11.03,0-.08,0-.16-.07l.89-1.52c-7.82-2.26-16.33-2.91-24.34-1.62-8,1.26-15.44,4.46-20.94,9.05-.23.18.02.32.27.18,13.29-7.43,29.62-9.3,44.32-5.15l.48.14.32-.45c.14-.2.23-.6.11-.91-.11-.3-.28-.45-.42-.56-.29-.22-.55-.31-.84-.37-.13-.03-.33-.05-.43-.05h-.3s-.6-.02-.6-.02l-2.39-.03c-1.6,0-3.19,0-4.79.04-3.19.07-6.39.23-9.59.48-4.37.39-8.75.69-13.15,1.78-2.18.53-4.38,1.42-6.34,2.43-1.97.99-3.84,1.98-5.74,2.46l1.74,1.62c.05-.21.29-.52.8-.83.25-.15.53-.3.85-.45l1.01-.45c1.35-.58,2.73-1.09,4.14-1.53,5.65-1.77,11.64-2.52,17.68-3.12,3.74-.38,7.22-.43,10.49-1.13,1.3-.27,1.77-.91,1.5-1.57-.27-.65-1.33-1.3-2.94-1.33Z"/>
    <path class="cls-1" d="M167.71,126.13c-4.06-.08-8.3-.41-12.53.61-1.79.43-3.81.8-5.53,1.8-1.7.98-3.08,2.62-3.15,5.1,0,.08.16.24.2.21,2.6-2.72,6.27-4.31,9.98-4.75,2.01-.24,4.05-.14,6.06.06,1.05.1,2.1.2,3.15.34.65.09,1.27.37,1.92-.52.52-.71.45-2.83-.1-2.84Z"/>
    <g>
      <g>
        <path class="cls-1" d="M125.13,270.29c-.11-1.55.06-3.09.06-4.64,0-1.33.95-2.86-1.74-4.11-.04-.02-.21,0-.2.01.38,1.49.3,2.96.09,4.45-.12.8-.3,1.6-.46,2.41-.08.42-.13.83-.2,1.25-.04.26-.22.51.44.74.52.18,2.02.1,2.01-.11Z"/>
        <path class="cls-1" d="M129.58,268.75c-.3-1-.27-2.05-.36-3.07-.08-.91.83-1.88-1.87-2.73-.04-.01-.21,0-.2,0,.38,1.05.35,2.07.24,3.14-.06.57-.18,1.16-.25,1.75-.04.31-.04.61-.06.92-.01.19-.15.4.53.44.54.03,2-.31,1.96-.44Z"/>
        <path class="cls-1" d="M140.71,269.37c-.56-1.22-.82-2.55-1.19-3.84-.33-1.12.27-2.59-2.61-3.03-.05,0-.2.04-.2.06.68,1.2.94,2.47,1.11,3.8.09.72.13,1.45.21,2.18.04.38.12.75.17,1.12.03.23-.05.5.64.47.55-.03,1.93-.61,1.86-.77Z"/>
        <path class="cls-1" d="M147.04,269.56c-.78-1.43-1.24-3-1.79-4.53-.48-1.34-.04-3.08-3-3.62-.05,0-.2.05-.19.07.81,1.44,1.22,2.96,1.58,4.55.17.84.35,1.73.53,2.6.1.45.23.89.36,1.33.07.27.03.6.73.55.56-.04,1.88-.75,1.78-.94Z"/>
        <path class="cls-1" d="M150.22,267.37c-.58-1.05-.85-2.24-1.22-3.37-.34-1,.26-2.33-2.6-2.59-.05,0-.2.05-.19.06.67,1.06.94,2.19,1.13,3.4.1.65.15,1.32.24,1.98.05.34.13.68.19,1.01.04.21-.04.47.64.38.54-.07,1.89-.73,1.81-.87Z"/>
        <path class="cls-1" d="M154.12,266.84c-.55-1.02-.83-2.14-1.27-3.21-.38-.92.06-2.33-2.79-2.14-.04,0-.19.07-.18.09.78.87,1.13,1.91,1.36,3.02.12.59.18,1.22.27,1.83.05.32.12.62.17.93.03.19-.06.43.62.33.54-.08,1.9-.71,1.82-.85Z"/>
        <g>
          <path class="cls-1" d="M117.41,246.77c.17-1.75.75-3.43,1.27-5.1.47-1.48,1.93-2.63.07-5.07-.03-.04-.18-.1-.19-.07-.38,1.77-1.06,3.35-1.78,4.99-.39.88-.81,1.76-1.17,2.67-.19.47-.34.95-.5,1.44-.1.29-.32.57.29.95.48.3,1.98.43,2,.2Z"/>
          <path class="cls-1" d="M122.31,246.88c.3-1.95.89-3.84,1.31-5.77.36-1.66,1.7-3.36-.6-5.49-.04-.03-.2-.06-.2-.03-.03,1.93-.5,3.76-1.11,5.57-.33.98-.73,1.94-1.09,2.9-.19.5-.35,1.01-.53,1.51-.11.31-.35.59.24,1.01.46.34,1.95.55,1.99.29Z"/>
          <path class="cls-1" d="M126.92,250.53c.22-2.67.73-5.31,1.07-7.97.29-2.29,1.57-4.79-.84-7.28-.04-.04-.2-.04-.2,0,.05,2.6-.34,5.13-.88,7.67-.29,1.37-.65,2.72-.98,4.08-.17.71-.31,1.41-.47,2.12-.1.43-.33.84.28,1.32.48.38,1.99.43,2.02.07Z"/>
          <path class="cls-1" d="M132.98,254.26c-.27-3.28-.25-6.58-.39-9.87-.13-2.83.67-6.11-2.15-8.65-.04-.04-.21-.01-.2.03.53,3.14.6,6.28.53,9.46-.04,1.71-.14,3.42-.22,5.14-.04.89-.05,1.77-.08,2.66-.02.55-.17,1.09.52,1.54.54.36,2.03.12,2-.32Z"/>
          <path class="cls-1" d="M138.81,254.11c-.74-2.87-1.11-5.81-1.55-8.74-.38-2.54.22-5.49-2.69-7.63-.05-.03-.21,0-.2.04.65,2.83.92,5.67,1.16,8.55.12,1.55.23,3.12.35,4.68.07.81.18,1.61.28,2.42.06.5,0,1.01.73,1.31.59.23,2.02-.25,1.92-.63Z"/>
          <path class="cls-1" d="M144.27,248.13c-1.01-2.09-1.6-4.35-2.2-6.58-.53-1.96-.03-4.26-2.98-5.75-.05-.02-.21.02-.2.05.71,2.22,1.11,4.44,1.53,6.73.23,1.23.43,2.47.71,3.7.15.64.33,1.27.51,1.9.11.39.1.82.85.89.59.05,1.92-.66,1.79-.93Z"/>
          <path class="cls-1" d="M148.86,243.9c-1.09-1.57-1.82-3.34-2.6-5.07-.69-1.52-.44-3.51-3.49-4.14-.05-.01-.2.05-.19.08.96,1.68,1.57,3.43,2.18,5.25.33.98.62,1.98.98,2.96.19.51.4,1,.62,1.5.13.31.15.68.87.59.57-.07,1.79-.95,1.65-1.16Z"/>
          <path class="cls-1" d="M151.21,239.43c-.78-1.05-1.25-2.28-1.8-3.46-.49-1.04-.06-2.49-2.96-2.6-.05,0-.2.06-.19.08.8,1.11,1.23,2.32,1.61,3.6.2.69.37,1.41.58,2.11.11.36.25.71.39,1.07.08.22.05.51.72.33.53-.14,1.76-1,1.66-1.14Z"/>
        </g>
        <path class="cls-1" d="M134.59,269.04c-.12-1.07.04-2.15.04-3.22,0-.94.94-1.94-1.77-2.9-.04-.02-.21-.01-.2,0,.39,1.07.32,2.1.12,3.16-.11.57-.29,1.14-.44,1.72-.08.3-.12.6-.19.9-.04.18-.22.37.45.51.52.1,2.02-.03,2.01-.17Z"/>
        <path class="cls-1" d="M119.95,266.55c.1-.85.49-1.64.7-2.47.19-.73,1.3-1.23-1.1-2.71-.04-.02-.2-.07-.2-.05.15.94-.13,1.72-.55,2.49-.23.42-.52.82-.79,1.23-.14.21-.25.44-.38.66-.08.13-.29.24.33.5.49.21,1.97.46,1.98.35Z"/>
        <path class="cls-1" d="M240.4,130.89c-4.07.76-8.34.84-12.16-.43-1.89-.66-3.63-1.65-5.04-3.01-1.4-1.35-2.69-3.21-4.36-4.73-1.4-1.32-2.9-2.57-4.42-3.79-1.51-1.21-3.05-2.43-4.63-3.57-3.16-2.28-6.48-4.26-10.06-5.29-.11-.03-.17.13-.08.2,3.39,2.34,6.7,4.76,9.97,7.25,3.22,2.53,6.65,4.89,9.29,7.92.71.82,1.38,1.71,2.13,2.57.75.86,1.62,1.7,2.58,2.38,1.9,1.42,4.15,2.3,6.42,2.84,2.37.51,4.8.65,7.19.52,1.47-.06,2.94-.1,4.1-1,.91-.7.15-2.09-.94-1.87Z"/>
        <path class="cls-1" d="M252.06,122.03c-.44-3.21-1.96-6.17-4.15-8.47-1.09-1.15-2.33-2.16-3.71-2.96-1.39-.79-2.89-1.37-4.47-1.7-1.58-.35-3.24-.33-4.78-.15-1.55.18-3.04.52-4.47.83-1.44.31-2.83.59-4.23.7-1.4.12-2.81.09-4.22-.05-4.87-.49-9.77-2.75-13.96-5.76-4.25-3-7.96-6.64-11.81-9.84-.12-.1-.21.06-.12.18,3.42,4.62,7.4,8.87,12.2,12.07,4.78,3.18,10.42,5.27,16.3,5.32,1.57.01,3.17-.13,4.71-.41,1.54-.27,3.04-.61,4.52-.83,1.47-.22,2.94-.34,4.33-.15,1.4.19,2.76.63,4.02,1.27,2.63,1.32,4.78,3.55,6.08,6.13.8,1.63,1.07,3.26,1.82,4.82.29.63.81.84,1.24.66.42-.17.8-.79.69-1.67Z"/>
        <path class="cls-1" d="M263.25,164.95c1.31-3.74,1.21-7.92-.31-11.58-1.55-3.65-4.47-6.66-8.06-8.32-3.64-1.71-7.73-1.76-11.44-1.29-3.75.43-7.32,1.34-10.84,1.51-3.02.17-6.22-.18-8.82-1.62-1.29-.73-2.37-1.7-3.24-2.93-.88-1.23-1.58-2.67-2.28-4.16-2.82-6.05-5.92-11.89-9.58-16.77-.12-.15-.23,0-.14.18,3.08,6.37,5.96,12.76,8.94,19.19.81,1.59,1.76,3.18,3.14,4.43,1.35,1.27,3.01,2.16,4.76,2.69,3.52,1.08,7.21.95,10.76.5,3.81-.51,7.55-1.31,11.24-1.24,1.83.05,3.64.31,5.31.92,1.66.61,3.21,1.54,4.52,2.73,1.36,1.23,2.48,2.71,3.26,4.34.77,1.63,1.19,3.43,1.26,5.23.07,2.25-.5,4.29-.71,6.41-.1.84.22,1.3.71,1.3.48,0,1.17-.49,1.53-1.51Z"/>
        <path class="cls-1" d="M242.24,155.76c-6.52,1.69-13.75.17-19.15-3.76-2.36-1.69-4.36-4.1-6.07-6.59-.86-1.25-1.67-2.52-2.49-3.8-.4-.62-.81-1.26-1.23-1.93-.43-.64-.9-1.27-1.43-1.87-.07-.08-.21.01-.18.1.59,1.62,1.04,3.26,1.79,4.83.72,1.57,1.58,3.06,2.56,4.47,1.97,2.82,4.45,5.28,7.35,7.21,3.12,2.09,6.73,3.48,10.5,4.06,1.96.3,3.95.33,5.94.17,1.21-.11,2.47-.15,3.36-1.08.69-.72-.1-2.06-.96-1.83Z"/>
        <path class="cls-1" d="M250.72,161.84c-1.89,1.84-3.82,3.62-5.91,5.14-2.08,1.51-4.32,2.8-6.72,3.5-1.19.37-2.42.59-3.65.62-1.23.09-2.46-.07-3.68-.3-2.41-.54-4.73-1.61-6.76-3.1-1.76-1.27-3.36-2.91-4.73-4.74-1.35-1.85-2.46-3.88-3.37-6.01-1.85-4.27-2.93-8.72-3.98-13.17-.04-.14-.2-.08-.21.06-.15,5.24.92,10.45,3.1,15.16,2.19,4.7,5.67,8.87,10.24,11.57,1.23.73,2.55,1.3,3.91,1.77,1.38.4,2.8.75,4.27.8,2.93.2,5.87-.51,8.51-1.69,2.74-1.26,5.18-3,7.43-4.87,1.39-1.14,2.79-2.23,3.47-3.8.54-1.25-.9-1.94-1.92-.94Z"/>
        <path class="cls-1" d="M232.28,176.2c-1.49.9-3.02,1.67-4.56,1.93-1.53.27-3-.12-4.38-.99-1.36-.86-2.62-2.08-3.73-3.36-1.11-1.29-2.11-2.69-2.93-4.2-1.44-2.6-2.3-5.69-2.99-8.74-.74-3.07-1.33-6.11-2.59-9.09-.04-.09-.21-.05-.2.04.07,3.51.44,6.98,1.21,10.38.4,1.7.91,3.37,1.52,5.01.63,1.64,1.4,3.22,2.3,4.75.97,1.65,2.15,3.18,3.48,4.58,1.31,1.4,2.84,2.74,4.86,3.51,1.04.39,2.22.54,3.33.45,1.12-.09,2.18-.38,3.16-.76,1.21-.46,2.37-.92,2.97-2.04.46-.89-.63-1.98-1.44-1.49Z"/>
        <path class="cls-1" d="M227.16,183.25c-2.63-.5-5.21-1.2-7.29-2.57-2.09-1.33-3.51-3.47-4.63-5.83-.95-2.05-1.66-4.46-2.28-6.68-.56-2.02-1.09-3.93-1.92-6.89-.02-.08-.19-.09-.21-.01-.54,2.77-.16,5.51.54,8.07.34,1.29.77,2.54,1.23,3.78.46,1.24.95,2.48,1.55,3.69.64,1.31,1.41,2.59,2.41,3.74,1,1.15,2.24,2.11,3.57,2.85,1.38.76,2.85,1.3,4.3,1.74.89.28,1.75.64,2.68.16.74-.38.76-1.91.05-2.04Z"/>
        <path class="cls-1" d="M226.75,249.61c-1.98-.95-3.73-2.41-4.94-4.22-1.22-1.8-1.84-3.97-1.79-6.13.03-1.08.22-2.15.58-3.14.35-1,.91-1.9,1.59-2.81.68-.91,1.46-1.81,2.22-2.82.75-1,1.45-2.17,1.9-3.42,1.57-4.3.86-9.58-1.96-13.42-2.78-3.85-7.17-5.98-11.16-6.1-.13,0-.13.17-.01.21,4.19,1.46,8.12,4.13,10.36,8,2.21,3.8,2.52,8.87.13,12.54-1.26,1.98-3.23,3.62-4.49,6.03-1.25,2.39-1.59,5.21-1.09,7.87.51,2.78,2.04,5.33,4.08,7.25,1.24,1.18,2.68,2.26,4.34,2.27,1.3-.04,1.29-1.63.25-2.1Z"/>
        <path class="cls-1" d="M214.18,240.32c-.81-1.38-1.54-2.78-2-4.21-.46-1.43-.61-2.89-.29-4.25.31-1.38,1.12-2.76,1.76-4.39.66-1.63,1.01-3.38,1.12-5.12.22-2.99-.14-6.3-1.5-9.2-.69-1.43-1.62-2.74-2.76-3.77-1.15-1.01-2.51-1.73-3.92-2.02-.09-.02-.16.14-.09.19,4.94,3.5,7.45,10.18,6.25,16.12-.31,1.62-.87,3.09-1.66,4.58-.38.76-.78,1.55-1.09,2.43-.32.88-.49,1.86-.51,2.81-.04,2.01.56,3.89,1.27,5.59.44,1.05.82,2.1,1.89,2.63.84.41,1.97-.63,1.53-1.38Z"/>
        <path class="cls-1" d="M44.72,204.74c-.41,1.87-.5,3.81-.16,5.72.33,1.9,1.1,3.77,2.37,5.32,1.25,1.53,2.92,2.72,4.84,3.36,1.9.65,4.11.62,6.01-.15,1.64-.64,3.12-1.73,4.29-3.11,1.17-1.37,2.02-3.13,2.29-4.91.6-3.6-.86-7.16-3.35-8.96-.08-.06-.2.06-.16.14,1.68,2.76,2.41,6.24,1.51,9.38-.87,3.09-3.57,5.73-6.7,6.14-1.66.22-3.37-.23-4.77-1.13-1.41-.89-2.54-2.19-3.21-3.66-.71-1.54-.99-3.27-.89-4.98.08-1.07.39-2.01.02-3.12-.28-.9-1.82-1.07-2.07-.02Z"/>
        <path class="cls-1" d="M49.42,222.43c0,1.57.67,3,1.64,4.06.97,1.06,2.25,1.85,3.71,2.14,1.41.29,2.87.12,4.18-.32,1.31-.45,2.5-1.15,3.52-2.05,1.75-1.53,3.32-3.67,3.77-6.15.23-1.23.16-2.52-.28-3.65-.43-1.13-1.25-2.07-2.3-2.52-.06-.03-.19.08-.16.13,1.21,1.74,1.45,4.14.81,6.26-.63,2.13-2.03,4.03-3.89,5.19-.99.63-2.11,1.04-3.22,1.16-1.11.11-2.2-.08-3.05-.58-.9-.52-1.66-1.35-1.99-2.26-.21-.59-.11-1.02-.72-1.61-.23-.24-.72-.44-1.16-.44-.43,0-.87.23-.87.66Z"/>
        <path class="cls-1" d="M231.67,114.03c-.82,2.85-3.71,5.12-6.68,5.28-1.46.1-2.97-.35-4.38-1.09-1.42-.73-2.77-1.73-4.15-2.75-2.38-1.76-4.75-3.93-7.42-5.7-2.65-1.76-5.69-3.1-8.77-3.01-.1,0-.12.17-.04.2,3.04,1.17,5.86,2.91,8.54,4.84,2.68,1.93,5.22,4.05,7.89,6.1,1.44,1.1,2.98,2.18,4.8,2.88.91.34,1.87.59,2.89.65,1.01.05,2.03-.07,3.01-.34,2.03-.56,3.83-1.81,5.18-3.46.82-1,1.58-2.23,1.2-3.53-.31-.99-1.88-.79-2.05-.08Z"/>
        <path class="cls-1" d="M226.43,110.9c.08.64-.14,1.37-.56,1.98-.44.62-1.02,1.06-1.74,1.34-1.45.56-3.19.42-4.82-.11-1.44-.45-2.84-1.45-4.45-2.14-1.6-.69-3.32-1.06-5.31-.55-.06.02-.11.18-.07.19,1.72.65,3.39,1.4,5.03,2.22,1.63.81,3.26,1.74,5.13,2.3,1.99.58,4.36.76,6.5-.46,1.09-.65,1.95-1.66,2.46-2.9.31-.73.57-1.7-.21-2.34-.31-.24-.81-.17-1.23-.03-.43.15-.75.33-.74.5Z"/>
        <path class="cls-1" d="M243.56,118.32c-1.55.18-3.07.58-4.5,1.19-1.45.59-2.76,1.5-3.92,2.25-1.19.77-2.29,1.31-3.55,1.54-1.26.23-2.6.22-3.95.05-1.17-.14-2.38-.43-3.48-.85-1.12-.41-2.08-.99-3.16-1.66-1.07-.66-2.23-1.38-3.54-1.81-.65-.21-1.34-.35-2.02-.35-.68,0-1.34.15-1.9.43-.07.03-.05.2.02.21,1.23.01,2.47.52,3.63,1.2,1.17.68,2.27,1.53,3.47,2.28,1.19.77,2.55,1.37,3.92,1.75,1.38.38,2.77.65,4.22.77,1.55.12,3.18.05,4.76-.45,1.59-.51,2.93-1.42,4.18-2.13,1.28-.74,2.58-1.28,3.97-1.58.86-.19,1.68-.14,2.43-.86.61-.55.3-2.06-.57-1.97Z"/>
        <path class="cls-1" d="M231.55,132.96c.07.76.07,1.48-.09,2.07-.16.58-.47.99-.94,1.26-.47.27-1.12.37-1.73.3-.61-.08-1.25-.34-1.86-.71-.61-.38-1.22-.85-1.79-1.39-.59-.51-1.13-1.09-1.68-1.65-1.06-1.18-2.03-2.45-2.97-3.76-1.61-2.28-2.99-5.01-4.86-7.46-1.81-2.44-4.35-4.59-7.25-5.11-.09-.02-.16.14-.09.19,1.26.86,2.42,1.9,3.48,3.03,1.05,1.15,2,2.4,2.9,3.68,1.79,2.59,3.37,5.34,5.22,7.98,1.01,1.42,2.09,2.8,3.32,4.09,1.24,1.23,2.58,2.57,4.6,3.19,1.06.31,2.23.31,3.35-.11,1.13-.39,2.15-1.45,2.53-2.58.51-1.38.55-2.69-.19-3.63-.61-.74-2.05-.19-1.96.63Z"/>
        <path class="cls-1" d="M230.89,137.9c.18,1.21.07,2.47-.47,2.92-.26.26-.62.38-1.15.4-.52.02-1.13-.08-1.68-.23-2.3-.64-4.2-2.39-5.76-4.45-1.35-1.78-2.5-4.06-3.84-6.07-1.33-2.04-2.8-3.9-4.91-5.42-.07-.05-.2.05-.17.11,1.22,2.37,2.54,4.64,3.91,6.88,1.4,2.22,2.68,4.48,4.35,6.63.91,1.14,1.96,2.22,3.22,3.08,1.26.86,2.74,1.51,4.37,1.68.84.08,1.91.04,2.86-.62.46-.3.85-.74,1.12-1.2.27-.46.43-.94.53-1.4.25-1.12.32-2.18-.44-2.94-.62-.59-2.04-.03-1.95.62Z"/>
        <path class="cls-1" d="M229.22,147.03c.04.6,0,1.17-.12,1.63-.13.47-.34.72-.62.88-.56.33-1.94.07-3-.36-2.22-.87-4.08-2.65-5.69-4.62-1.39-1.72-2.55-3.87-3.81-5.85-1.26-2.01-2.64-3.89-4.69-5.43-.07-.05-.21.05-.17.11,2.29,4.7,4.78,9.18,8.06,13.31.91,1.09,1.92,2.14,3.1,3.04,1.17.89,2.54,1.64,4.06,2.01.77.2,1.68.35,2.74.05,1.08-.3,1.96-1.29,2.28-2.22.42-1.13.56-2.2-.15-3.01-.58-.62-2.03-.17-1.99.46Z"/>
        <path class="cls-1" d="M226.58,156.96c-.39.39-1.24.56-2.03.46-.85-.11-1.68-.42-2.44-.88-1.52-.94-2.77-2.42-3.83-4.03-.91-1.4-1.56-3.14-2.36-4.72-.8-1.6-1.77-3.09-3.5-4.37-.05-.04-.21.03-.19.08,1.41,3.77,2.9,7.38,5.05,10.84,1.19,1.82,2.67,3.63,4.88,4.73,1.14.52,2.41.88,3.86.72.44-.05.91-.13,1.32-.37.41-.23.76-.64.81-1.18.03-.43-.36-.77-.74-.99-.39-.21-.73-.38-.83-.29Z"/>
        <path class="cls-1" d="M223.3,98.34c1.14.65,1.86,1.97,1.71,3.27-.12,1.35-.98,2.48-2.27,2.99-1.29.54-2.9.57-4.47.37-1.61-.21-3.19-.62-4.71-1.18-2.65-.95-5.11-2.75-7.33-4.65-1.11-.97-2.18-1.96-3.27-2.96-1.07-1.01-2.17-2.01-3.39-3.02-.08-.06-.21.05-.16.13,3.23,6,8.59,10.63,15.06,12.75,1.75.54,3.53.99,5.44,1.07.95.03,1.93-.03,2.92-.29.98-.25,1.98-.74,2.78-1.5,1.69-1.59,2.28-4.22,1.32-6.45-.29-.67-.67-1.3-1.19-1.78-.52-.47-1.18-.78-1.88-.74-.56.04-.81.5-.87.94-.05.45.03.87.32,1.04Z"/>
        <path class="cls-1" d="M217.66,87.38c1.25.77,2.32,1.85,3.09,3.11.76,1.26,1.28,2.73,1.03,3.9-.23,1.19-1.21,2.29-2.42,2.86-1.23.6-2.73.79-4.25.75-1.3-.03-2.6-.33-3.7-.92-1.08-.57-2.1-1.55-3.28-2.51-2.33-1.88-4.84-3.48-7.74-4.21-.09-.02-.17.13-.1.18,2.51,1.92,4.94,3.93,7.33,5.99,1.17,1.03,2.5,2.12,4.12,2.65,1.59.55,3.25.7,4.91.62,1.78-.1,3.69-.54,5.22-1.83.75-.63,1.39-1.43,1.78-2.4.4-.97.46-2.1.29-3.08-.38-2.04-1.36-3.76-2.66-5.28-.78-.91-1.7-1.83-2.96-1.8-.99.06-1.31,1.57-.66,1.95Z"/>
        <path class="cls-1" d="M214.86,81.06c.82.37,1.58.6,2.12.91.54.31.8.64.89,1.08.09.44-.04,1.06-.32,1.68-.28.63-.67,1.25-1.11,1.91-.43.64-.85,1.22-1.33,1.65-.48.44-.96.7-1.59.86-1.24.3-2.8.19-4.23-.07-2.52-.48-4.95-1.91-7.27-3.41-2.34-1.49-4.72-3.09-7.55-3.83-.09-.02-.17.13-.1.18,2.4,1.93,4.74,3.95,7.36,5.65,2.61,1.69,5.52,3.05,8.73,3.46.86.1,1.73.16,2.64.07.9-.08,1.87-.33,2.71-.88.83-.53,1.47-1.25,2.01-1.94.53-.7,1.01-1.36,1.48-2.17.46-.83.9-1.79.9-3.02,0-.61-.18-1.28-.51-1.83-.33-.57-.81-1.01-1.28-1.33-1.18-.77-2.06-1.13-3.03-.94-.39.08-.78.42-.94.83-.17.41-.04.95.42,1.15Z"/>
        <path class="cls-1" d="M202.87,57.98c.02-1-.38-1.87-.96-2.54-.58-.69-1.46-1.14-2.27-1.29-1.67-.33-3.27.23-4.49,1-1.25.78-2.18,1.68-3.18,2.49l-2.95,2.5c-1.71,1.44-3.6,2.89-5.35,4.16-1.82,1.27-3.27,2.45-5.67,3.5-.08.04-.06.2.01.2,1.38.09,2.73-.2,3.93-.7,1.21-.49,2.29-1.18,3.33-1.9,2.05-1.49,3.89-3.12,5.86-4.64,1.06-.82,2.12-1.64,3.18-2.46,1.05-.81,2.09-1.54,3.12-1.82,1.06-.32,2.18-.11,2.58.46.15.18.21.41.31.58.09.18.23.29.51.57.22.21.64.53,1.07.61.43.1.95-.16.96-.72Z"/>
        <path class="cls-1" d="M210.96,64.52c-.16-1.38-.36-2.9-1.38-4.31-.52-.69-1.29-1.27-2.15-1.51-.85-.25-1.66-.25-2.4-.18-1.45.19-2.86.55-4.15,1.14-1.28.58-2.5,1.27-3.62,2.03-1.88,1.24-3.9,2.57-5.89,3.88-1.93,1.28-3.56,2.47-5.7,4-.07.05-.02.21.05.2,1.35-.21,2.63-.6,3.83-1.14,1.18-.56,2.32-1.18,3.39-1.89,2.16-1.38,4.18-2.92,6.36-4.14,1.17-.66,2.38-1.18,3.62-1.54l.93-.22c.31-.06.62-.08.93-.12.62-.09,1.22-.07,1.7.04.96.23,1.47.94,1.73,2.11.16.71.06,1.47.77,2.17.55.57,2.05.25,1.98-.51Z"/>
        <path class="cls-1" d="M213.56,72.97c.17-.88.04-1.7-.15-2.41-.2-.72-.47-1.36-.74-1.96-.28-.59-.56-1.32-1.28-1.99-.36-.33-.87-.6-1.38-.69-.52-.1-1-.05-1.41.04-.83.19-1.42.51-1.98.72-.58.24-1.16.45-1.75.66-1.17.41-2.36.77-3.56,1.08-2.07.52-4.35.66-6.54.81-2.22.17-4.34.34-6.74,1.11-.08.03-.09.19-.02.2,5.02.96,10.05.56,14.92-.64,1.31-.33,2.61-.7,3.9-1.13.63-.21,1.32-.48,1.85-.63.56-.16.94-.12,1.09.02.36.18,1.01,1.84,1.26,2.89.08.34.08.66.12.92.04.27.15.48.38.83.18.27.58.6,1.01.71.42.12.92-.05,1.02-.54Z"/>
        <path class="cls-1" d="M217.58,80.67c0-1.37-.23-2.79-.92-4.12-.35-.66-.84-1.28-1.45-1.77-.61-.49-1.32-.83-2.03-1.03-1.42-.41-2.88-.34-4.18-.12-1.31.22-2.5.58-3.63.78-4,.8-8.55-.74-12.87,1.4-.07.03-.06.2,0,.21,4.73.24,9.52.96,14.36-.02,1.27-.25,2.51-.5,3.67-.51,1.15,0,2.28.27,3.04.85.78.58,1.24,1.51,1.41,2.6.1.68-.04,1.32.59,2.01.48.56,2.01.5,2.02-.27Z"/>
        <path class="cls-1" d="M216.26,79.36c-3.65.67-7.39.65-11.07.41-1.59-.11-3.21-.55-4.77-.86-1.59-.32-3.1-.45-5.17-.17-.07,0-.13.16-.09.18,3.45,1.74,7.11,2.35,10.79,2.75,1.98.21,3.97.38,5.98.41,1.04.01,2.08-.03,3.13-.09.64-.04,1.3.05,1.76-.69.36-.59-.07-2.04-.56-1.95Z"/>
        <path class="cls-1" d="M241.04,95.04c-1.36-1.67-3.35-2.31-5.2-2.43-1.92-.1-3.66.41-5.24.94-1.37.47-2.8.76-4.09,1.09-1.33.32-2.36.81-4.19,1.56-.06.02-.1.19-.05.2,1.75.48,3.45.28,5.03-.06,1.59-.35,3.1-.89,4.61-1.26,1.62-.41,3.25-.55,4.64-.15.72.2,1.39.51,1.87.94.31.28.37.59,1.12.52.61-.02,1.88-.84,1.51-1.35Z"/>
        <path class="cls-1" d="M146.1,33.88c-3.35-.02-6.64.95-9.45,2.72-2.8,1.76-5.15,4.37-6.41,7.5-1.11,2.66-1.72,5.83-1.16,8.86.51,3,2.31,5.79,4.9,6.84.08.03.18-.1.13-.16-3.88-4.21-4.49-11.14-1.59-16.08,1.54-2.67,4.03-4.69,6.77-5.88,1.43-.62,2.93-1.05,4.45-1.21.95-.07,1.82.03,2.71-.56.72-.49.59-2-.35-2.03Z"/>
        <path class="cls-1" d="M148.46,33.89c-3.18.12-6.07,1.71-8.12,3.93-2.07,2.23-3.37,4.95-4.2,7.75-.71,2.41-1.26,5.13-1.05,7.81.2,2.67,1.27,5.27,3.32,6.84.06.05.21-.04.18-.11-2.21-4.71-2.22-10.39-.29-15.23,1.03-2.6,2.63-4.99,4.73-6.57,1.08-.8,2.3-1.42,3.56-1.7.8-.18,1.5-.08,2.24-.73.61-.49.54-2.02-.37-2.01Z"/>
        <path class="cls-1" d="M156.29,34.63c-1.6-.83-3.41-1.09-5.12-.92-1.72.17-3.37.75-4.82,1.69-2.92,1.92-4.68,5.06-5.44,8.24-.68,2.75-.95,5.83-.33,8.75.61,2.9,2.19,5.6,4.62,6.96.08.04.2-.08.15-.14-3.3-4.66-4.25-11.09-2.26-16.44,1.06-2.86,3.17-5.32,5.85-6.23,1.38-.5,2.87-.65,4.23-.39.86.18,1.47.59,2.47.43.4-.06.8-.41.97-.82.17-.4.1-.91-.33-1.14Z"/>
        <path class="cls-1" d="M166.12,43.39c-.08-1.88-.68-3.75-1.82-5.29-1.13-1.55-2.86-2.69-4.74-3.11-.95-.21-1.94-.26-2.93-.1-.99.16-1.91.55-2.73,1.03-1.62.99-2.88,2.27-3.97,3.71-1.84,2.46-3.33,5.55-3.62,8.83-.32,3.24.74,6.62,3.03,8.48.07.06.2-.05.17-.12-2.82-5.49-1.48-12.82,2.85-17.2,1.15-1.19,2.52-2.2,3.96-2.57,1.43-.37,2.99-.06,4.24.69,1.3.77,2.23,2.03,2.68,3.48.28.91.22,1.76.86,2.65.47.73,2.02.62,2.01-.46Z"/>
        <path class="cls-1" d="M163.8,38.55c-.77-.43-1.55-.45-2.27-.27-.71.19-1.25.57-1.69.94-.45.38-.78.74-1.13,1.11-.37.36-.68.77-1.02,1.15-1.3,1.58-2.38,3.36-3.18,5.25-.67,1.63-1.42,3.42-1.59,5.3-.18,1.87.26,3.82,1.77,5.2.05.04.21,0,.2-.05-.77-3.54-.04-7.35,1.69-10.53.92-1.73,2.16-3.25,3.53-4.57.37-.32.73-.69,1.08-.96.34-.27.66-.44.9-.48.12-.01.23.03.32.01.1,0,.14-.13.43-.33.22-.15.7-.35,1.01-.67.32-.3.38-.85-.05-1.1Z"/>
        <path class="cls-1" d="M185.63,40.46c-.86-2.29-3.21-3.4-5.22-3.51-2.06-.12-3.87.29-5.68.73-3.62.98-7,2.58-10.04,4.81-1.3.99-2.61,2.13-3.68,3.57-1.06,1.44-1.85,3.1-2.25,4.85-.38,1.74-.4,3.55.05,5.19.44,1.64,1.32,3.09,2.52,4.07.07.06.2-.05.17-.13-1.53-2.87-1.74-6.45-.7-9.59.53-1.57,1.35-3.04,2.45-4.27,1.1-1.24,2.45-2.26,3.88-3.13,3.12-1.87,6.58-3.15,10.1-3.65,1.81-.28,3.63-.3,4.8.45.36.23.65.54.9.82.26.28.51.5.91.81.31.24.81.39,1.24.26.43-.12.79-.64.56-1.27Z"/>
        <path class="cls-1" d="M186.03,41.52c-1.02-1.88-2.97-2.77-4.85-2.82-1.87-.03-3.53.63-4.99,1.36-2.91,1.46-5.56,3.44-7.76,5.84-.95,1.04-1.89,2.14-2.75,3.35-.85,1.2-1.68,2.63-1.98,4.26-.31,1.6-.15,3.19.31,4.57.46,1.39,1.19,2.59,2.12,3.67.06.07.21,0,.19-.09-.42-1.43-.8-2.85-.97-4.29-.17-1.43-.11-2.89.33-4.23.45-1.34,1.25-2.58,2.13-3.75.88-1.17,1.87-2.26,2.96-3.24,2.32-2.1,5.12-3.8,7.94-4.77,1.45-.46,2.87-.53,3.91.1.32.19.58.44.82.65.24.22.49.37.91.57.32.16.84.2,1.25.02.41-.17.7-.67.43-1.2Z"/>
        <path class="cls-1" d="M190.02,49.51c.38-1.53.58-3.3-.11-5.03-.35-.85-.91-1.6-1.65-2.18-.73-.58-1.72-.98-2.76-.94-1.02.04-1.96.48-2.66,1.01-.71.54-1.26,1.15-1.75,1.76-.94,1.21-1.79,2.34-2.68,3.52-1.49,2.03-3.37,3.99-4.78,6.42-.69,1.21-1.23,2.54-1.43,3.93-.19,1.38-.01,2.8.62,3.94.04.07.21.04.21-.03-.11-2.64,1.07-5.26,2.57-7.55,1.53-2.3,3.35-4.47,5.1-6.68.97-1.16,1.9-2.45,2.91-3.32.51-.43,1.06-.74,1.57-.82.52-.09.97.03,1.41.32.45.3.83.76,1.06,1.28.22.49.31,1.11.29,1.73-.04.79-.37,1.51.03,2.48.3.77,1.81,1.02,2.04.16Z"/>
        <path class="cls-1" d="M196.81,55.8c.19-1.53.35-3.24-.17-4.98-.28-.89-.74-1.7-1.39-2.38-.64-.67-1.49-1.25-2.52-1.45-1.03-.22-2.13.04-2.94.47-.84.43-1.47.98-2.08,1.53-1.2,1.13-2.18,2.42-3.04,3.72-1.48,2.24-2.97,4.56-4.59,6.48-1.57,1.92-3.61,3.62-5.1,6.02-.05.08.07.2.14.16,2.43-1.59,5-3.24,6.87-5.6,1.89-2.3,3.24-4.92,5.01-7.15.93-1.2,2.03-2.28,3.21-3.04,1.21-.76,2.28-.68,3.14.14.92.85,1.28,2.08,1.22,3.5-.03.87-.33,1.74.19,2.72.41.77,1.94.72,2.05-.12Z"/>
        <path class="cls-1" d="M73.61,57.96c-.13-1.76-.05-3.52.72-4.76.72-1.24,2.26-1.91,3.93-2.23,3.4-.65,6.97-.06,10.21,1.29,1.4.58,2.77,1.39,4.06,2.32,1.31.94,2.49,1.97,3.74,3.09,1.25,1.11,2.69,2.28,4.43,2.86.85.29,1.76.4,2.61.31.85-.09,1.65-.41,2.19-.92.07-.06-.02-.21-.1-.19-1.44.49-3.18.07-4.61-.78-1.46-.85-2.71-2.11-4.04-3.32-2.67-2.43-5.76-4.45-9.23-5.7-3.73-1.34-7.87-1.86-11.96-.49-1.05.4-2.13,1.07-2.9,2.07-.78.99-1.2,2.17-1.4,3.28-.25,1.38-.37,2.71.37,3.78.59.85,2.05.33,1.97-.63Z"/>
        <path class="cls-1" d="M70.65,62.15c-.13-.61.43-1.56,1.22-1.99.73-.43,1.86-.49,2.96-.31,1.12.17,2.35.52,3.59.79,1.24.28,2.48.53,3.73.76,4.26.79,9.21,2.34,13.46-.09.07-.04.04-.21-.02-.2-4.81.05-9.56-.64-14.24-1.75-1.26-.3-2.51-.63-3.76-.99-1.24-.35-2.55-.79-4.07-.83-.8,0-1.59.07-2.45.43-.83.36-1.53.92-2.08,1.65-.34.45-.64.97-.74,1.57-.1.59.04,1.26.51,1.68.39.32.87.15,1.25-.09.38-.25.68-.48.65-.63Z"/>
        <path class="cls-1" d="M60.94,74.22c-.26-.87-.08-1.93.39-2.83.48-.92,1.23-1.63,2.18-2.13,1.91-1.03,4.28-1.14,6.66-.97,2.05.14,4.42.71,6.8.55,2.36-.13,4.68-.88,6.32-2.64.05-.05-.02-.21-.08-.19-2.24.7-4.6,1.03-6.95,1.02-2.35.01-4.69-.47-7.15-.64-1.32-.09-2.7-.08-4.07.17-1.37.25-2.76.76-3.97,1.68-1.26.98-2.19,2.38-2.58,4.01-.25.96-.33,2.2.6,2.87.37.25.86.11,1.24-.13.38-.25.65-.53.59-.76Z"/>
        <path class="cls-1" d="M65.18,67.19c1.22-1.8,2.7-3.35,4.49-3.46,1.83-.18,3.91.83,6.27,1.29,1.99.41,4.19.85,6.36.65,2.15-.19,4.27-1.03,5.61-2.83.04-.06-.03-.21-.09-.19-3.94,1.56-8.45,1.57-12.49.32-1.09-.33-2.19-.78-3.41-1.1-1.2-.31-2.63-.47-4.02-.02-1.43.45-2.57,1.4-3.48,2.34-.57.59-1.18,1.11-1.04,2.05.11.74,1.47,1.42,1.81.93Z"/>
        <path class="cls-1" d="M52.94,81.74c-.03-1.89,1.54-3.72,3.41-4.73,1.87-1.01,4.21-1.35,6.52-1.52,2.02-.15,4.26.11,6.54-.19,2.24-.25,4.65-1.28,5.74-3.35.03-.06-.07-.2-.12-.17-1.88,1.14-4.16,1.61-6.44,1.76-2.29.16-4.61.06-7,.19-1.28.08-2.58.23-3.88.54-1.3.28-2.62.85-3.77,1.63-1.19.83-2.26,1.93-2.95,3.38-.42.85-.78,1.95-.07,2.79.28.33.79.33,1.22.22.44-.12.79-.32.78-.56Z"/>
        <path class="cls-1" d="M38.34,97.77c1.68-1.07,2.81-2.61,3.75-4.08.95-1.48,1.74-2.98,2.68-4.27,1.84-2.57,4.52-4.52,7.49-5.55,2.55-.95,5.57-.7,8.74-1.03,1.58-.17,3.21-.54,4.64-1.3,1.42-.74,2.64-1.91,3.12-3.29.03-.08-.11-.18-.17-.12-1.04,1.07-2.45,1.79-3.95,2.23-1.51.45-3.1.63-4.72.73-1.61.1-3.26.14-4.91.35-1.66.2-3.32.61-4.88,1.29-1.68.72-3.28,1.68-4.69,2.89-1.42,1.19-2.63,2.7-3.6,4.2-1.03,1.55-1.93,3.11-3.04,4.31-.7.76-1.43,1.15-1.87,2.13-.18.39-.09.91.18,1.26.27.35.78.54,1.23.25Z"/>
        <path class="cls-1" d="M52.19,93.03c-.37-.3-.51-1.3-.15-1.99.34-.79,1.02-1.44,1.88-1.92.86-.49,1.86-.82,2.91-1.09,1.04-.25,2.17-.48,3.2-.6.88-.11,1.82-.02,2.92.01,1.08.04,2.38-.08,3.48-.55,2.24-.86,3.92-3.03,3.61-5.25,0-.07-.17-.13-.19-.08-.85,1.82-2.6,3.25-4.6,3.79-.99.29-2.04.3-3.13.26-1.09-.05-2.27-.03-3.39.13-1.21.16-2.39.35-3.61.67-1.21.33-2.45.79-3.57,1.66-.57.45-1.1,1.03-1.49,1.71-.38.65-.66,1.54-.65,2.37,0,.52.04,1.08.31,1.59.25.5.76.94,1.36.97.49.02.76-.43.91-.85.14-.43.27-.77.2-.85Z"/>
        <path class="cls-1" d="M51.69,103.1c-.76-.69-1.54-1.81-2.05-2.81-.12-.25-.23-.5-.25-.63-.05-.27-.08-.54-.09-.8-.01-.52.06-1.02.25-1.46.19-.44.47-.84.85-1.19.19-.18.4-.34.64-.51.21-.15.33-.2.57-.29.44-.15,1.06-.22,1.74-.35.66-.12,1.32-.26,1.98-.42,2.25-.54,4.72-1.16,6.91-2.38,2.17-1.19,4.02-3.09,4.58-5.49.02-.07-.12-.17-.17-.12-3.27,3.64-8.07,5.67-12.91,6.45l-2.02.29c-.36.06-.75.15-1.14.3-.2.08-.39.17-.58.3-.16.1-.31.2-.47.31-.62.44-1.22,1.01-1.66,1.72-.45.71-.71,1.54-.78,2.36-.04.43-.04.85,0,1.26.03.22.03.37.09.65.07.3.14.49.22.69.32.78.68,1.42,1.08,2.08.5.78.94,1.68,2.2,1.82.23.02.5-.08.63-.24.15-.17.22-.39.29-.6.11-.44.29-.74.09-.92Z"/>
        <path class="cls-1" d="M53.63,107.91c-.17.04-.52-.07-.78-.33-.27-.25-.44-.58-.46-.9-.08-.78.37-1.7,1.05-2.52.7-.83,1.55-1.59,2.46-2.22.91-.64,1.9-1.13,2.98-1.58.93-.39,1.96-.71,3.03-1.1,1.07-.4,2.15-.89,3.13-1.5,1.96-1.23,3.57-3.02,4.06-5.32.02-.07-.12-.17-.16-.13-1.52,1.69-3.36,3.1-5.37,4.19-2,1.12-4.22,1.7-6.46,2.63-1.2.51-2.38,1.17-3.44,1.98-1.05.82-2.06,1.71-2.86,3-.4.67-.71,1.47-.74,2.38-.02.42.03.96.21,1.43.17.47.41.88.73,1.25.38.45.85.86,1.46,1.05.59.2,1.36.11,1.82-.37.35-.4.13-.88-.12-1.24-.27-.36-.46-.68-.53-.67Z"/>
        <path class="cls-1" d="M53.37,115.03c-.73-.06-1.32-.4-1.55-.92-.23-.54-.13-.93.41-1.43.53-.48,1.44-.88,2.33-1.29.89-.41,1.81-.79,2.74-1.19,1.59-.69,3.45-1.22,5.09-2.29,1.62-1.03,3.01-2.77,2.92-4.85,0-.06-.15-.15-.18-.11-.99,1.53-2.48,2.74-4.14,3.65-1.66.92-3.46,1.58-5.29,2.26-.98.37-1.98.72-2.98,1.14-.5.2-1.03.45-1.55.79-.51.34-1.06.81-1.42,1.52-.38.72-.44,1.68-.18,2.44.24.77.74,1.46,1.38,1.94.75.58,1.73.99,2.51.36.3-.25.34-.76.28-1.2-.07-.44-.2-.81-.38-.82Z"/>
        <path class="cls-1" d="M54.2,121.69c-.47.06-1.11-.44-1.31-1.04-.21-.56-.1-1.32.22-2.01.59-1.3,2.48-1.49,2.38-4.66,0-.05-.11-.18-.12-.16-1.38,1.4-3.2,2.48-4.14,4.54-.25.55-.43,1.16-.46,1.82-.05.65.11,1.41.44,2.03.35.66.89,1.23,1.62,1.63.42.24,1.03.53,1.48-.14.17-.27.14-.77.08-1.21-.07-.44-.13-.81-.18-.8Z"/>
        <path class="cls-1" d="M51.48,133.93c-.32.03-.79-.21-1.06-.61-.26-.36-.36-.88-.29-1.44.14-1.16.94-2.23,1.91-3.4.84-1.03,1.93-2.11,2.62-3.4.69-1.28.99-2.79.28-4.47-.02-.05-.18-.1-.19-.07-.87,2.8-2.54,5.2-4.6,7.34-1.07,1.19-2.3,2.75-2.22,4.9.03.54.17,1.13.46,1.66.28.53.68.98,1.18,1.35.3.23.65.44,1.04.51.39.07.83-.02,1.14-.38.24-.3.17-.8.05-1.22-.13-.43-.23-.78-.31-.78Z"/>
        <path class="cls-1" d="M54.35,142.18c-1.37-.36-2.55-.95-2.91-1.84-.41-.86-.13-2.09.47-3.21.49-.97,1.53-1.74,2.37-2.89.41-.57.76-1.24.89-2,.13-.76.02-1.61-.48-2.32-.03-.04-.2-.07-.2-.04-.16,1.26-.97,2.44-1.87,3.5-.9,1.07-1.98,2.14-2.67,3.55-.38.75-.68,1.58-.73,2.52-.06.93.22,1.99.83,2.81.64.86,1.51,1.39,2.31,1.8.5.25.95.59,1.57.09.5-.4.78-1.88.41-1.98Z"/>
        <path class="cls-1" d="M54.12,150.56c-.66.09-1.27.12-1.75,0-.46-.1-.87-.39-1.03-.66-.14-.24-.14-.54.04-1.05.18-.49.51-1.06.86-1.57.61-.91,1.63-1.68,2.42-2.75.77-1.03,1.34-2.57.56-4.13-.02-.05-.18-.1-.19-.07-.34,1.2-1.13,2.3-2,3.31-.87,1.02-1.86,1.99-2.69,3.18-.43.65-.89,1.31-1.09,2.27-.09.47-.09,1.04.11,1.57.19.53.53.98.91,1.32.8.73,1.89,1.01,2.78,1.08.56.06,1.09.18,1.45-.52.28-.55-.02-2.03-.38-1.98Z"/>
        <path class="cls-1" d="M54.59,158.04c-.55-.42-.88-1.15-.94-1.87-.06-.75.14-1.35.56-2.01.36-.59,1.12-1.06,1.64-1.87.26-.4.46-.91.45-1.49-.01-.58-.26-1.22-.85-1.68-.04-.03-.2-.05-.2-.03.05.77-.41,1.58-.98,2.27-.57.71-1.29,1.36-1.88,2.25-.66.96-.99,2.26-.82,3.52.08.66.32,1.3.67,1.9.2.36.4.84,1.12.58.55-.22,1.36-1.5,1.24-1.58Z"/>
        <path class="cls-1" d="M79.46,48.93c.4-2.02,1.19-3.97,2.55-5.42,1.34-1.45,3.19-2.33,5.17-2.57,1.98-.25,4.06.09,5.96.83.24.1.48.18.72.28l.69.35c.23.12.46.23.68.36l.65.42c.21.14.44.27.64.42l.6.49.6.49.61.55c2.83,2.56,5.51,5.53,8.13,8.56,1.38,1.54,2.96,2.98,4.77,3.98,1.79,1.01,3.84,1.54,5.67,1.26.11-.01.1-.19,0-.21-1.96-.37-3.81-1.37-5.43-2.66-1.63-1.29-3.04-2.85-4.41-4.49-1.39-1.63-2.86-3.2-4.37-4.72-.75-.76-1.52-1.51-2.3-2.26-.78-.74-1.53-1.48-2.42-2.19-1.87-1.51-4.05-2.64-6.42-3.24-2.36-.61-4.97-.64-7.39.27-2.52.91-4.62,2.91-5.83,5.26-.78,1.42-1.37,2.96-.97,4.44.29,1.16,1.88.86,2.09-.2Z"/>
        <path class="cls-1" d="M144.3,33.13c-1.91.26-3.9.07-5.74-.53-1.83-.59-3.56-1.74-5.64-2.62-1.04-.43-2.19-.79-3.41-.86-1.23-.07-2.46.15-3.58.59-2.23.91-4.06,2.59-5.19,4.67-1.99,3.62-1.95,8.24-.45,12.02,1.51,3.83,4.19,6.73,7.22,8.69.1.06.2-.08.13-.17-2.48-3.15-4.87-6.43-5.99-10.21-.55-1.88-.79-3.86-.53-5.78.25-1.92.99-3.75,2.27-5.15,1.35-1.51,3.25-2.55,5.16-2.63,1.91-.12,3.74.83,5.61,1.88.98.54,2,1.12,3.15,1.58,1.14.46,2.34.77,3.56.95,1.48.22,3.06.34,4.28-.53.93-.71.14-2.06-.85-1.91Z"/>
        <path class="cls-1" d="M94.25,40.25c1.24-1.13,2.5-2.18,3.87-2.93,1.35-.74,2.87-1.18,4.31-1.1,1.44.06,2.71.74,3.82,1.79,1.1,1.05,2.01,2.4,2.92,3.82,1.58,2.44,3,5.3,4.97,7.82,1.93,2.5,4.6,4.67,7.61,5.09.09.02.15-.15.08-.19-2.71-1.65-4.91-4.09-6.77-6.72-1.88-2.65-3.44-5.5-5.22-8.32-.98-1.5-2.09-3.05-3.74-4.16-.81-.56-1.78-.96-2.78-1.15-1-.2-2.02-.18-3-.02-2.05.32-3.9,1.31-5.48,2.41-.98.68-1.96,1.31-2.28,2.48-.25.93,1.01,1.81,1.68,1.19Z"/>
        <path class="cls-1" d="M124.76,30.49c-1.15-.67-2.37-1.27-3.71-1.66-1.33-.39-2.79-.58-4.25-.32-1.44.25-2.84.88-3.96,1.97-1.13,1.08-1.75,2.72-1.77,4.2-.04,1.28.15,2.53.45,3.71.3,1.17.7,2.33,1.26,3.41,1.1,2.16,2.87,3.97,5.2,4.6.07.02.18-.11.13-.16-1.68-1.65-3.02-3.65-3.96-5.83-.46-1.09-.85-2.23-1.09-3.36-.24-1.14-.3-2.3,0-3.33.61-2.25,3.18-3.34,5.34-3.1,1.17.11,2.31.49,3.41,1.07.68.36,1.23.87,2.19.69.76-.13,1.39-1.52.76-1.89Z"/>
        <path class="cls-1" d="M105.52,34.93c-.14-.77.09-1.63.56-2.3.47-.68,1.14-1.16,1.85-1.39.65-.21,1.38.02,2.06.13.72.13,1.43-.01,3.08-.17.05,0,.17-.12.14-.14-.92-.79-1.95-1.27-3.03-1.52-1.08-.24-2.23-.25-3.36.14-1.2.42-2.29,1.26-3,2.41-.37.59-.62,1.27-.76,1.99-.08.43-.25.94.47,1.24.56.22,2.01-.21,1.98-.38Z"/>
      </g>
      <g>
        <path class="cls-1" d="M226.23,154c-.8.25-1.68.32-2.5.22-.83-.12-1.23-.33-1.77-.93-.51-.57-1.1-1.51-1.7-2.35l-1.75-2.55c-1.01-1.46-1.74-3.2-2.76-4.71-1.03-1.52-2.32-2.77-4.73-3.68-.08-.03-.28.08-.26.13,2,3.64,4.06,7.05,6.14,10.54.55.94,1.1,1.88,1.65,2.82.54.91,1.09,2.04,2.33,2.98.65.49,1.42.77,2.12.93.71.16,1.36.23,2.05.25.82.03,1.76.11,2.2-1,.31-.87-.63-2.78-1.02-2.66Z"/>
        <path class="cls-1" d="M227.78,150.35c-.15.39-.86.82-1.62.83-.7.05-1.47-.3-2.23-.87-.75-.57-1.45-1.37-2.18-2.24-.73-.87-1.43-1.75-2.12-2.65-1.19-1.55-2.09-3.45-3.27-5.12-1.18-1.68-2.66-3.13-5.19-4.04-.08-.03-.28.1-.24.15,2.43,3.87,4.69,7.71,7.3,11.46.71,1.01,1.4,2,2.18,3.01.79,1,1.71,2.05,3.06,2.81.35.2.72.36,1.11.49.43.13.87.22,1.31.26.88.06,1.77-.05,2.64-.39.53-.2,1.09-.47,1.5-.94.41-.46.64-1.12.41-1.78-.2-.53-.88-.75-1.5-.87-.62-.1-1.13-.2-1.17-.12Z"/>
        <path class="cls-1" d="M226.96,146.55c-.02.07-.29.26-.6.28-.16.02-.31,0-.44-.03-.14-.04-.35-.13-.52-.24-.74-.44-1.49-1.46-2.29-2.52-1.57-2.09-3.02-4.26-4.43-6.46-1.21-1.9-2.14-4.14-3.37-6.16-1.23-2.03-2.79-3.84-5.4-5.07-.08-.04-.28.09-.25.15,2.56,4.52,4.88,9.04,7.48,13.53,1.4,2.42,2.82,4.82,4.44,7.17.45.63.98,1.3,1.74,1.9.38.3.82.57,1.31.78.51.22,1.15.36,1.71.36.71.01,1.45-.08,2.11-.48.64-.38,1.19-1.16,1.06-2.01-.11-.67-.84-.86-1.45-.96-.63-.08-1.11-.26-1.11-.26Z"/>
        <path class="cls-1" d="M228.7,139.51s-.1.13-.19.17c-.07.04-.21.07-.41.05-.38-.02-.92-.26-1.43-.61-1.02-.7-1.9-1.81-2.76-3.06-1.75-2.5-3.34-5.17-5.08-7.8-1.49-2.26-2.94-4.9-5.02-7.06-2.06-2.14-4.92-3.74-8.01-3.35-.1,0-.18.23-.11.27,2.59,1.25,4.86,3.18,6.75,5.43,1.92,2.24,3.48,4.78,5,7.36,1.65,2.81,3.1,5.66,5.06,8.5.54.74,1.17,1.48,1.96,2.13.79.64,1.69,1.25,2.98,1.54.39.08.83.13,1.27.11.43-.02.96-.16,1.36-.38.81-.43,1.44-1.33,1.3-2.31-.14-.79-.93-.86-1.53-.85-.31,0-.6,0-.8-.05-.21-.04-.32-.11-.32-.09Z"/>
        <path class="cls-1" d="M228.68,142.25c.02.05-.14.29-.42.42-.14.07-.29.11-.44.13-.16.01-.22.02-.43-.03-.72-.16-1.53-.84-2.33-1.72-1.66-1.83-3.2-3.8-4.63-5.82-1.25-1.75-2.16-3.87-3.34-5.77-1.19-1.92-2.65-3.64-5.18-4.9-.08-.04-.29.08-.25.14,2.32,4.46,4.61,8.8,7.35,13.02.73,1.14,1.5,2.25,2.3,3.36.4.55.81,1.1,1.23,1.64.41.54.87,1.1,1.43,1.65.58.56,1.31,1.12,2.24,1.47.23.09.48.16.73.22.26.06.58.1.86.1.57,0,1.12-.08,1.65-.26.64-.22,1.29-.54,1.77-1.13.47-.57.7-1.48.3-2.21-.34-.57-1.08-.51-1.69-.41-.31.05-.6.1-.8.11-.22.02-.33-.01-.34,0Z"/>
        <path class="cls-1" d="M229.45,132.21c-.34.74-.88,1.22-.96,1.16-.12.01-.12.02-.38-.11-.23-.12-.56-.39-.85-.66-.59-.55-1.14-1.23-1.71-1.98l-1.76-2.29c-2.06-2.61-3.37-6.41-8.29-6.49-.08,0-.24.16-.21.2,2.72,2.57,4.93,5.52,7,8.62,1.15,1.62,1.99,3.51,3.94,5.12.28.21.6.42,1,.59.44.18.93.28,1.42.27.98.02,1.99-.53,2.55-1.04.73-.63,1.37-1.23.85-2.24-.42-.79-2.42-1.53-2.6-1.15Z"/>
        <path class="cls-1" d="M234.99,128.01c-3.01,1.06-6.64.45-9.19-1.47-1.26-.93-2.3-2.32-3.53-3.8-1.24-1.48-2.58-2.87-3.99-4.17-4.81-4.5-10.46-9.66-17.55-9.62-.11,0-.19.22-.11.27,6.29,3.34,12.29,7.26,17.09,12.44,1.31,1.4,2.42,2.84,3.59,4.43,1.15,1.57,2.75,3.24,4.7,4.24,2,1.07,4.28,1.6,6.58,1.6,1.39,0,2.94-.08,3.79-1.4.33-.52.15-1.22-.19-1.75-.35-.54-.81-.9-1.21-.76Z"/>
        <path class="cls-1" d="M224.02,111.62c-.14.29-.46.59-.88.79-.42.2-.85.29-1.4.28-1.06-.01-2.29-.45-3.56-.99-2.52-1.06-4.91-2.45-7.26-3.95-4.04-2.6-7.8-7.09-13.79-6.65-.09,0-.2.22-.13.26,2.39,1.38,4.68,2.88,6.92,4.47,2.24,1.59,4.43,3.26,6.74,4.84,2.49,1.7,5.06,3.33,7.98,4.57,1.54.61,3.53,1.15,5.71.38.63-.23,1.27-.53,1.76-1.04.49-.5.8-1.25.6-2-.16-.61-.86-.84-1.47-.93-.63-.08-1.14-.15-1.21-.02Z"/>
        <path class="cls-1" d="M222.06,98.76c.99,1.12,1.62,2.36,1.59,3.57-.02,1.23-.62,2.06-1.77,2.53-1.17.48-2.67.52-4.19.29-1.54-.22-3.06-.62-4.54-1.18-2.57-.97-4.91-2.79-7.25-4.53-2.36-1.75-4.8-3.44-8.05-4.33-.1-.03-.25.16-.19.22,2.35,2.35,4.73,4.65,7.36,6.69,2.62,2.03,5.51,3.8,8.74,4.93,1.75.61,3.52,1.05,5.47,1.2.98.05,1.98,0,3.02-.24,1.02-.25,2.11-.74,2.99-1.6.92-.88,1.5-2.16,1.64-3.37.16-1.22-.02-2.45-.42-3.55-.47-1.33-1.13-2.61-2.56-2.81-1.13-.13-2.36,1.63-1.85,2.2Z"/>
        <path class="cls-1" d="M220.86,97.99c0,.81.09,1.49.12,2.07.04.57,0,1.02-.1,1.24-.11.22-.2.34-.53.48-.32.13-.76.19-1.26.18-1.96-.05-4-1.38-6.11-2.8-1.83-1.22-3.54-2.84-5.46-4.12-1.93-1.28-4.06-2.22-6.9-2.14-.09,0-.21.2-.16.24,4.15,2.84,8.03,5.87,12.08,8.86,1.11.8,2.27,1.62,3.64,2.23,1.39.59,2.96,1.01,4.79.64.47-.11.97-.29,1.44-.59.48-.29.93-.75,1.25-1.26.64-1.05.71-2.15.73-2.94.02-1.03.18-1.66-.69-2.26-.34-.24-1.02-.5-1.64-.53-.62-.04-1.2.23-1.21.68Z"/>
        <path class="cls-1" d="M221.4,102.28c-.3.54-1,.98-1.8,1.16-.82.19-1.62.12-2.51-.18-1.74-.57-3.47-1.95-5.3-3.21-1.56-1.1-2.98-2.59-4.63-3.73-1.66-1.14-3.54-1.94-6.17-1.75-.08,0-.22.2-.17.23,3.6,2.51,6.9,5.25,10.31,7.99.92.73,1.83,1.5,2.88,2.2,1.04.7,2.25,1.33,3.66,1.63,1.52.29,3.11.14,4.63-.6.46-.22.95-.49,1.29-.9.35-.4.55-.96.36-1.58-.15-.5-.78-.84-1.37-1.05-.6-.2-1.1-.33-1.19-.21Z"/>
        <path class="cls-1" d="M219.48,98.18c.04.37-.41.86-.84.95-.24.04-.32.04-.6-.04-.26-.07-.73-.26-1.19-.45-1.6-.63-2.84-2.55-5.82.38-.05.05-.13.27-.1.27,2.02.21,3.75,1,5.46,1.99.46.25,1,.57,1.76.72.78.15,1.6.04,2.34-.27.76-.33,1.42-.89,1.93-1.62.31-.42.75-1.03-.13-1.63-.35-.23-1.06-.29-1.68-.31-.62-.01-1.15-.04-1.14,0Z"/>
        <path class="cls-1" d="M217.45,89.87c.79.53,1.35,1.59,1.38,2.6.04,1-.44,1.89-1.3,2.49-.85.61-1.93.79-2.82.5-.49-.15-1.09-.46-1.73-.8-.63-.33-1.25-.68-1.86-1.04-2.12-1.23-3.98-3.12-6.32-4.65-1.16-.75-2.45-1.4-3.86-1.71-1.4-.31-2.91-.28-4.27.31-.09.04-.11.27-.04.29,2.63.5,5.06,2,7.33,3.67,2.26,1.68,4.53,3.53,7.05,5.04.68.41,1.33.81,2.1,1.2.75.39,1.74.69,2.72.69,1.95,0,3.87-.9,5.12-2.55.66-.85,1.05-1.96,1.15-3.04.08-1.09-.09-2.18-.51-3.18-.25-.61-.55-1.23-1.03-1.7-.47-.46-1.12-.77-1.84-.67-.59.09-.96.71-1.17,1.3-.2.6-.3,1.13-.1,1.27Z"/>
        <path class="cls-1" d="M214.87,91.04c.48.5.8.98.88,1.32.04.16.04.36.01.47-.02.07-.06.14-.12.18-.08.05-.11.06-.37.09-.25.01-.52-.02-.8-.1-.56-.16-1.22-.54-1.91-1.03-1.06-.77-2.34-2.17-3.86-2.83-1.52-.69-3.22-.8-5.25.37-.06.04-.14.26-.1.27,1.6.43,3.11,1.02,4.49,1.83,1.41.78,2.5,1.88,3.93,2.97.7.51,1.5,1.02,2.52,1.28.51.12,1.03.19,1.62.13.56-.04,1.32-.29,1.85-.73.24-.2.45-.43.63-.69.24-.35.41-.73.51-1.15.1-.38.13-.76.12-1.13,0-.37-.06-.75-.17-1.11-.09-.34-.22-.66-.35-.96-.33-.72-.61-1.42-1.66-1.21-.83.17-2.28,1.73-1.99,2.03Z"/>
        <path class="cls-1" d="M216.7,90.88c-.99.12-1.94-.31-2.84-.61-.4-.14-.68-.61-1.13-.66-.46-.06-1.08.3-2.5,1.66-.04.04-.16.24-.14.25,1.27.16,2.19.69,3.22,1.33.55.34,1.11.74,1.73,1.06.32.16.65.28.99.4.2.08.42.34.64-.59.17-.73.16-2.85.04-2.83Z"/>
        <path class="cls-1" d="M54.37,151.02c0-.06,0-.17.03-.3.01-.08.03-.14.05-.23.02-.07.07-.23.05-.18,0,0-.07-.01-.15-.05-.14-.07-.47-.27-.44-.26-.08-.06-.14-.17-.11-.26.02-.06.09-.14.11-.14.17-.25.37-.52.6-.8.45-.57,1.32-1,1.83-1.93.25-.46.39-1.05.24-1.71-.16-.65-.65-1.34-1.56-1.74-.06-.03-.29-.04-.29-.02.2.68-.09,1.49-.62,2.17-.52.69-1.23,1.28-1.94,1.99-.13.13-.26.27-.4.41-.07.07-.13.14-.2.22l-.24.32c-.32.44-.57.95-.62,1.52-.05.52.07,1.06.33,1.55.21.4.53.75.9,1.07.4.33.5.43.83.67.19.13.42.33.78.39.34.06.89-.07,1.18-.61.23-.43-.06-1.11-.28-1.68-.04-.1-.07-.19-.09-.26,0-.01,0-.03-.01-.1Z"/>
        <path class="cls-1" d="M54.56,151.05c-.03.05-.01,0,.11-.04.12-.04.33-.07.53-.05.2.01.41.05.53.09.04.01.03,0,.05,0,0,0,0,0-.05-.02l-.06-.03-.03-.02h-.01s0-.01,0-.01h0s.33.18.17.1h0s0,0,0,0l.08-.11.16-.21c.11-.14.21-.29.29-.44.3-.53,1.81-.48-1.23-2.84-.05-.04-.25-.15-.25-.14.14.86-.29,1.39-.89,1.84-.16.12-.34.23-.53.33-.1.07-.17.06-.31.2-.13.13-.25.27-.36.42-.2.34-.43.69-.32,1.56.04.26.13.64.42.89.28.26.75.33,1.12-.03.3-.27.46-1.02.6-1.56,0,0-.01.06-.03.08Z"/>
        <path class="cls-1" d="M57.3,160.41c-.86-1.15-1.02-2.67-1.06-4.07-.02-.62.36-1.23.34-1.86-.02-.65-.47-1.33-1.93-2.75-.05-.05-.27-.13-.27-.1-.2,1.85-.55,3.42-.73,5.22-.1.96-.17,1.97-.06,2.99.06.53.19,1.05.34,1.58.08.32.04.75.99.52.74-.19,2.49-1.4,2.39-1.54Z"/>
        <path class="cls-1" d="M55.35,141.58c-.57-.29-1-.86-1.21-1.47-.21-.6-.21-1.24-.1-1.86.05-.27.21-.51.38-.73.17-.22.33-.37.51-.74.16-.34.32-.85.25-1.5-.07-.64-.43-1.45-1.32-1.9-.05-.03-.29-.06-.28-.05.18.59-.32,1.39-.88,2.15-.58.8-1.07,1.76-1.31,2.81-.27,1.12-.3,2.44.14,3.67.22.64.58,1.22,1.02,1.78.25.33.49.83,1.31.25.63-.47,1.6-2.36,1.48-2.42Z"/>
        <path class="cls-1" d="M56.04,141.27c-.1-1.31.21-2.6.28-3.91.06-1.12,1.46-2.34-2.29-3.59-.06-.02-.29-.02-.29,0,.48,1.28.3,2.52-.06,3.76-.2.67-.49,1.33-.75,2-.13.35-.22.69-.33,1.04-.07.21-.33.41.59.65.73.19,2.85.23,2.83.05Z"/>
        <path class="cls-1" d="M52.35,133.39s.17-.25.61-.45c.11-.05.02-.03.03-.07-.01-.03-.02-.08-.03-.13-.03-.17-.03-.65-.01-1.01.02-.37.06-.68.13-.94.08-.27.14-.41.27-.63.22-.37,1.05-.87,1.38-1.55.35-.7.31-1.67-.8-3.36-.04-.05-.23-.18-.24-.16-.27.81-.67,1.51-1.15,2.16-.47.67-1.08,1.13-1.67,2.02-.62.97-.88,2.09-1.06,3.01-.02.13-.05.22-.06.37-.02.15-.02.32-.02.48,0,.34.03.71.18,1.17.09.28.21.64.54.92.32.27.88.4,1.34.05.37-.29.45-1.01.54-1.62.01-.08.02-.15.04-.22l.02-.1h0s0,.03,0,.03c0,.02-.01.03-.01.03Z"/>
        <path class="cls-1" d="M54.23,133.88c.33-1.18.99-2.24,1.37-3.41.32-.97,1.96-1.91-1.55-3.69-.06-.03-.28-.07-.28-.06.28,1.19-.12,2.25-.75,3.2-.34.51-.79.98-1.2,1.44-.21.25-.4.49-.6.73-.13.15-.42.21.37.74.63.42,2.59,1.21,2.63,1.05Z"/>
        <path class="cls-1" d="M55.75,126.62c-.35-1.94.19-3.94.95-5.69v-.03s-1.94-.89-1.94-.89c.04.03-.01,0-.04-.1-.03-.1-.01-.21,0-.22,0-.02-.02.06-.08.12l-.02.02h0s0,0,0,0l.24-.2h0s.03-.03.03-.03c.03-.02.08-.05.16-.08.14-.06.42-.13.74-.18.01,0,.02-.04.02-.1.01-.14.02-.35,0-.52-.02-.36-.13-.72-.37-1.21-.23-.49-.6-1.13-.97-2.16-.02-.07-.21-.21-.23-.17-.62,1.1-.87,2.19-.99,3.25-.03.53-.17,1.03.07,1.8.08.19.16.36.34.56.18.19.39.31.62.39.23.08.48.11.77.05.28-.05.62-.26.81-.56l-1.52-.76-.28.52c-.58,1.09-1.13,2.25-1.48,3.51-.18.65-.28,1.32-.35,2-.05.41-.27.87.71,1.13.76.2,2.85-.2,2.8-.44Z"/>
        <path class="cls-1" d="M54.07,113.54s-.17-.26-.15-.41c0-.16.01,0-.1.14-.02.03-.06.06-.07.07h-.01s0,.02,0,.02h0s0,0,0,0l.28-.19h0s0,0,0,0c.02-.01.07-.03.16-.05.09-.02.21-.02.3,0,0,0,.02-.01.02-.03.11-.18.88.81.22-3.05-.01-.06-.12-.27-.13-.26-.37.47-.85.8-1.34,1.19-.49.38-1.03.9-1.33,1.63-.16.4-.27.9-.17,1.47.05.27.15.57.37.88.21.3.47.53.75.7.6.35,1.29.5,2.16.27.26-.07.57-.16.78-.41.2-.23.28-.62-.03-1.04-.24-.34-.91-.6-1.47-.85-.07-.03-.14-.06-.21-.09-.09-.04-.02-.01-.04-.02h0s.02.01.02.01Z"/>
        <path class="cls-1" d="M54.52,114.6h0s.06-.07.06-.07h0s0,0,0,0h0s0,0,0,0c0,0,.02-.01.05-.02.08-.02.15-.04.51-.04h.44s.4.02.4.02h0s0-.08,0-.08v-.2c-.19-2.02.03-3.98.13-5.96.09-1.87,1.61-3.7-1.93-5.93-.06-.04-.29-.05-.29-.02.26,2.17-.03,4.22-.42,6.33-.21,1.14-.49,2.28-.7,3.43-.1.6-.16,1.2-.24,1.8-.02.14-.07.34-.06.43,0,0,.02,0,.04,0,.03.08.04.24.15.57.06.16.15.37.31.57.08.1.17.2.27.28.05.04.1.08.15.11.06.05.2.14.31.19.22.11.6.19.89.14.16-.02.3-.07.39-.11.11-.05.22-.12.27-.17.29-.24.34-.44.38-.63.03-.27.04-.47-.16-.91-.06-.12-.17-.27-.28-.34-.12-.09-.28-.14-.39-.14-.16.02-.3.11-.3.19-.05.16,0,.32.04.47l.04.11s0,0,0,0v-.03s-.01-.07,0-.06c0,0-.07.01-.12,0-.05-.02-.03-.02,0,.02.05.04.02.1.05.04Z"/>
        <path class="cls-1" d="M54.9,105.93c-.12.04-.2,0-.24-.08-.05-.13.06-.25.09-.31.05-.16.54-.31.71-.84.08-.26.09-.63-.14-1.09-.23-.45-.7-1-1.58-1.39-.06-.02-.28-.08-.28-.07.18.39.03.88-.25,1.32-.28.46-.69.83-1.04,1.58-.37.76-.57,1.81-.11,2.74h0c.23.48.63.86,1.1,1.18.14.1.28.24.47.25.19.01.4-.11.59-.54.33-.68.78-2.75.68-2.75Z"/>
        <path class="cls-1" d="M54.75,110.91c.24-1.52,1.3-2.97,2.62-4.12,1.33-1.16,2.99-2.08,4.69-3.14,1.45-.9,3.33-1.7,4.71-3.25.68-.76,1.22-1.7,1.39-2.76.19-1.04-.03-2.21-.78-3.13-.05-.06-.28-.09-.28-.05-.14,1.66-1.17,3.26-2.51,4.47-1.34,1.23-3,2.11-4.7,2.99-1.82.95-3.81,1.88-5.55,3.44-.89.8-1.7,1.77-2.33,2.92-.39.68-.89,1.48-.09,2.35.64.65,2.78.64,2.83.29Z"/>
        <path class="cls-1" d="M55.78,106.23c-.05-.22.04-.57.28-.9.24-.33.56-.59,1.02-.85.45-.25.99-.47,1.6-.72.61-.24,1.26-.53,1.88-.84,1.06-.53,2.35-.88,3.34-1.71.98-.81,1.65-2.12,1.18-4.23-.01-.07-.18-.23-.2-.2-1.48,2-3.69,3.28-6.03,4.07-1.23.45-2.65.57-4.19,1.49-.81.5-1.52,1.23-2.02,2.23-.15.3-.32.64-.33,1-.01.36.16.75.66,1,.4.2,1.1.09,1.71-.04.61-.14,1.12-.25,1.11-.3Z"/>
        <path class="cls-1" d="M56.13,109.48c.35-.52,1.02-.89,1.82-1.16.81-.29,1.7-.47,2.73-.85.86-.32,1.99-.48,2.84-1.33.41-.41.73-1,.72-1.7,0-.69-.37-1.47-1.21-2.01-.05-.03-.28-.08-.28-.07.11.69-.34,1.43-1.01,1.9-.67.48-1.52.75-2.39.89-.97.17-2.03.2-3.17.49-.59.15-1.2.41-1.81.76-.36.21-.91.38-.44,1.29.38.69,2.14,1.88,2.21,1.78Z"/>
        <path class="cls-1" d="M53.45,102.77c-.25-.25-.39-.82-.25-1.43.06-.3.19-.6.35-.86.15-.25.35-.47.63-.72,1.06-.93,2.75-1.44,4.56-2.08,1.56-.57,3.25-.78,4.94-1.6.83-.42,1.66-1.02,2.23-1.88.57-.85.84-1.99.48-3.1-.02-.07-.22-.19-.24-.15-.69,1.38-2.27,2.33-3.91,2.95-1.67.63-3.45,1.14-5.21,1.62-.96.26-1.96.52-2.99.94-1.02.44-2.07,1.01-2.94,2.06-.87,1.09-1.37,2.45-1.32,4.01.03.48.07.99.32,1.44.24.44.69.81,1.32.8.51,0,1-.52,1.39-1.01.38-.5.69-.91.64-.97Z"/>
        <path class="cls-1" d="M52.16,101.59c-.51-.41-.88-1.05-.98-1.71-.11-.64.05-1.34.4-1.91.66-1.15,2.11-1.56,4.09-1.82.83-.12,1.81-.15,2.84-.32,1.02-.17,2.04-.44,2.96-.91,1.85-.91,3.34-2.66,3.25-5.14,0-.08-.18-.23-.21-.2-1.19,1.41-2.78,2.51-4.53,3.17-.87.34-1.79.56-2.71.69-.93.12-1.91.16-2.94.27-1.1.12-2.32.33-3.48,1-1.17.67-2.12,1.8-2.6,3.13-.52,1.38-.43,3.05.18,4.44.34.84.86,1.84,2.09,1.63.48-.1.93-.65,1.24-1.19.31-.54.53-1.02.4-1.13Z"/>
        <path class="cls-1" d="M53.43,93.73c.07-.45.3-.9.62-1.25.32-.35.72-.57,1.23-.74,1.02-.34,2.42-.29,4.03-.51.68-.09,1.51-.18,2.28-.4.77-.21,1.46-.49,2.05-.87.6-.39,1.18-.93,1.54-1.69.35-.75.47-1.73.07-2.73-.03-.06-.22-.2-.23-.17-.53,1.08-1.68,1.89-2.9,2.49-.61.3-1.23.55-1.86.69-.62.14-1.27.17-1.96.17-1.46.02-3.15-.28-5.09.51-.99.41-1.86,1.18-2.5,2.09-.39.53-.89,1.21-.08,1.98.32.3,1.02.43,1.64.49.62.05,1.15.06,1.16-.05Z"/>
        <path class="cls-1" d="M61.05,89.49c-1.2.41-2.71.05-4.48.28-.75.1-1.7-.01-2.52.51-.39.26-.73.68-.83,1.27-.1.59.06,1.34.67,2.11.04.05.23.18.23.17.09-.58.58-1.06,1.17-1.3.6-.25,1.29-.3,1.96-.22.75.08,1.51.34,2.34.51.44.09.89.13,1.38.17.29.02.66.22.73-.76.04-.76-.53-2.81-.66-2.76Z"/>
        <path class="cls-1" d="M52.82,91.63c-.02-1,.07-1.92.36-2.57.29-.64.7-.98,1.44-1.24.74-.26,1.72-.34,2.81-.45,1.13-.11,2.28-.31,3.39-.6,1.91-.49,4.04-.95,5.86-2.1.92-.58,1.78-1.4,2.28-2.47.5-1.05.57-2.4-.15-3.37-.04-.06-.27-.1-.28-.06-.1.8-.57,1.6-1.22,2.26-.66.67-1.49,1.21-2.37,1.66-1.78.91-3.72,1.5-5.7,1.77-1.08.16-2.09.16-3.27.2-1.16.06-2.52.14-3.9.97-.69.43-1.32,1.08-1.72,1.79-.42.71-.65,1.44-.82,2.13-.2.84-.47,1.64.45,2.32.73.53,2.85.3,2.84-.23Z"/>
        <path class="cls-1" d="M54.18,82.52c.91-1.01,2.25-1.66,3.72-2.05,1.48-.4,3.06-.55,4.72-.74,1.43-.16,3.09,0,4.72-.5,1.58-.47,3.21-1.76,3.29-4.08,0-.07-.14-.26-.17-.23-1.09,1-2.58,1.59-4.11,1.89-1.55.31-3.15.35-4.8.4-1.79.06-3.64.09-5.56.56-.99.24-1.98.65-2.93,1.2-.3.16-.61.32-.83.57-.11.12-.19.28-.24.47-.02.09-.03.2-.03.31,0,.06,0,.11.01.17v.05c.31.3.61.59.92.89v.02s0,0,.02,0c.07-.08.11-.06.03-.05-.07,0-.07-.03-.06,0,0,0,0,.02,0,.03,0,0,0,.03,0-.08.02-.16.03-.33-.09-.47-.06-.07-.21-.12-.38-.07-.19.05-.37.2-.47.36-.2.32-.28.58-.21.94.06.17.11.44.61.73.22.14.73.2,1.05.09.09-.03.18-.06.26-.1.06-.03.11-.06.17-.09.1-.06.25-.2.22-.16.07.01.12,0,.15-.03Z"/>
        <path class="cls-1" d="M55.35,80.92c.19-.41.52-.82.94-1.22.21-.2.43-.41.67-.61.25-.21.49-.42.66-.54.19-.13.28-.16.4-.19.14-.04.4-.07.75-.12.65-.1,1.29-.2,1.94-.31,2.22-.4,4.99.46,6.39-3.66.02-.07-.04-.29-.07-.28-2.37.98-4.85,1.31-7.38,1.47l-1.02.04c-.35.01-.66,0-1.09.04-.41.03-1,.2-1.42.42-.43.22-.77.45-1.06.64-.6.39-1.23.85-1.87,1.44-.38.34-.96.74-.38,1.63.48.68,2.48,1.42,2.55,1.25Z"/>
        <path class="cls-1" d="M61.76,74.02c.14-.57.46-1.11.88-1.54.41-.43.97-.76,1.43-.85.4-.1.94-.02,1.77.16.85.18,1.75.32,2.64.4,1.52.14,3.2.48,4.82.19,1.61-.28,3.16-1.21,3.94-3.39.02-.07-.06-.29-.1-.27-2.85,1.33-6.14,1.46-9.17.79-.85-.17-1.55-.44-2.53-.7-.49-.12-1.05-.21-1.68-.17-.62.04-1.21.21-1.74.44-1.1.47-2.02,1.26-2.75,2.21-.44.56-1,1.24-.27,2.11.6.65,2.72.86,2.77.62Z"/>
        <path class="cls-1" d="M62.25,75.31c.03-.18.3-.46.71-.61.39-.16.87-.18,1.48-.14.6.04,1.29.17,2.09.25.8.07,1.62.08,2.42,0,1.37-.12,2.94-.16,4.28-.85,1.32-.67,2.36-2.05,2.03-4.23-.01-.07-.17-.24-.19-.21-1.65,2.01-4.42,2.94-6.97,2.73-.7-.05-1.34-.18-2.05-.38-.71-.18-1.5-.41-2.45-.46-.99-.05-2.14.18-3.17.84-.32.21-.67.43-.89.79-.21.35-.28.83.04,1.31.26.39.95.59,1.55.72.61.13,1.11.26,1.12.23Z"/>
        <path class="cls-1" d="M71.72,62.91c.02-.13.42-.34.83-.33.46,0,1.07.15,1.79.38,1.53.46,3.15.81,4.77.92,1.39.1,2.92.41,4.39.11,1.46-.3,2.85-1.23,3.45-3.4.02-.07-.07-.29-.1-.27-2.51,1.31-5.49,1.47-8.23.89-.74-.15-1.47-.37-2.17-.64-.72-.26-1.32-.57-2.18-.89-.44-.16-.94-.3-1.5-.36-.57-.07-1.24-.03-1.87.14-.39.1-.82.23-1.16.53-.33.29-.56.78-.39,1.36.14.47.78.81,1.34,1.07.28.13.54.26.73.35.19.1.29.16.3.15Z"/>
        <path class="cls-1" d="M66.41,67.35c.08-.21.46-.48.93-.57.44-.1,1.05-.05,1.73.08.67.13,1.49.34,2.35.46.84.12,1.68.18,2.5.18,1.44,0,2.84.26,4.33.03.76-.13,1.59-.43,2.26-1.08.67-.62,1.11-1.65.79-2.68-.02-.06-.2-.22-.21-.19-.56.96-2.04,1.35-3.46,1.42-1.47.08-2.95.07-4.38-.13-.77-.11-1.51-.28-2.22-.52-.72-.23-1.51-.55-2.47-.73-.98-.19-2.25-.16-3.42.38-.36.16-.76.35-1.05.68-.28.33-.43.81-.19,1.36.19.44.84.74,1.43.95.59.21,1.07.41,1.09.36Z"/>
        <path class="cls-1" d="M64.12,70.96c.94-.13,1.27-.52,1.53-.69.26-.22.38-.31.39-.31.06-.02.06-.03.2-.04.12,0,.31,0,.53.01.95.08,1.95.24,3.02.31.91.06,1.97.42,3.07.16,1.06-.24,2.21-1.26,1.99-3.3,0-.06-.13-.26-.14-.25-.6.61-1.48.95-2.4,1.03-.92.08-1.87-.06-2.83-.28-.51-.12-1.04-.27-1.57-.42-.55-.14-1.02-.32-1.78-.39-.37-.03-.89,0-1.39.18-.24.08-.49.21-.71.33-.18.1-.32.19-.42.24-.06.03-.12.04-.15.04h-.02s-.04-.06.05.08c.13.23.2.32.27.48.07.14.1.21.14.32.03.06.05.16.06.2.02.1.01.15.01.13,0,0,0-.02,0-.03v-.02c-.01.05-.03.11-.06.16-.11.28-.26.58-.35.88-.09.3-.11.59-.03.83.09.23.31.39.56.37Z"/>
        <path class="cls-1" d="M54.34,115.75c-.02-.28.26-.62.73-.9.48-.29,1.04-.49,1.74-.77.6-.26,1.48-.26,2.19-.88.34-.3.62-.77.64-1.38.02-.6-.26-1.34-1.01-1.97-.05-.04-.26-.14-.26-.12.04.54-.37,1.08-.92,1.41-.56.34-1.24.51-1.98.66-.82.18-1.73.32-2.68.83-.49.27-.96.67-1.38,1.22-.24.31-.67.72.17,1.29.33.22,1.03.36,1.64.46.61.09,1.13.18,1.13.15Z"/>
        <path class="cls-1" d="M55.32,120.25c-.15-.07-.15-.55.08-.9.22-.37.65-.76,1.19-1.23.98-.85,3.06-.88,1.52-4.58-.02-.06-.19-.23-.2-.21-.8,1.41-1.98,2.26-3.36,3.1-.74.49-1.65,1.05-2.25,2.19-.29.57-.46,1.24-.45,2,0,.44-.02,1.12,1,1.03.4-.05,1-.43,1.52-.77.26-.17.49-.33.67-.45.17-.12.28-.18.27-.19Z"/>
        <path class="cls-1" d="M54.59,126.25c-.13-1.38.69-2.7,1.59-3.63.36-.4,1.16-.56,1.79-1.29.3-.36.57-.89.54-1.56-.02-.66-.4-1.44-1.29-1.87-.05-.03-.29-.07-.28-.05.18.53-.23,1.22-.84,1.71-.6.51-1.4.96-2.13,1.62-.78.68-1.54,1.48-2.09,2.45-.29.51-.49,1.06-.66,1.63-.11.34-.38.73.55,1.06.73.24,2.85.09,2.83-.06Z"/>
        <path class="cls-1" d="M55.81,122.99c.26-1.74,1.71-3.18,3.12-4.74.61-.68,1.56-1.21,2.13-2.12.56-.88.76-2.24-.49-3.9-.04-.05-.25-.15-.26-.13-.48,1.96-2.06,3.41-3.68,4.78-.88.75-1.85,1.49-2.7,2.48-.44.52-.83,1.09-1.16,1.74-.22.37-.58.78.24,1.36.65.44,2.76.72,2.79.52Z"/>
        <path class="cls-1" d="M54.37,130.2c.85-1.51,2.04-2.79,3.03-4.21.85-1.22,2.93-1.86.59-5.18-.04-.05-.24-.18-.24-.15-.5,1.67-1.54,2.97-2.73,4.16-.65.64-1.37,1.23-2.06,1.84-.36.32-.68.66-1.03.99-.21.2-.58.29.05,1.03.49.59,2.28,1.72,2.4,1.52Z"/>
        <path class="cls-1" d="M55.37,134.21c-.21-.46-.14-1.09.1-1.69.25-.62.63-1.19,1.08-1.8.39-.54,1.14-.89,1.56-1.6.41-.69.53-1.84-.7-3.45-.04-.05-.24-.17-.25-.15-.4,1.61-1.73,2.71-2.98,4.01-.69.73-1.4,1.54-1.89,2.62-.25.56-.39,1.19-.45,1.88-.03.4-.2.94.81,1.03.78.05,2.75-.77,2.7-.85Z"/>
        <path class="cls-1" d="M54.39,140.4c.4-1.57,1.36-2.91,2.27-4.2.38-.56,1.14-.96,1.55-1.79.2-.41.29-.93.13-1.52-.16-.59-.6-1.25-1.46-1.76-.05-.03-.28-.08-.28-.06.11.69-.19,1.44-.65,2.09-.46.65-1.08,1.25-1.68,1.91-.66.69-1.36,1.39-1.98,2.17-.32.4-.59.84-.87,1.27-.17.26-.52.48.27,1.05.62.45,2.66,1.05,2.71.85Z"/>
        <path class="cls-1" d="M143.17,35.46c-1.53,1.63-3,3.44-3.94,5.66-.48,1.11-.77,2.24-.99,3.33-.23,1.09-.38,2.2-.45,3.32-.14,1.91-.4,4.01.03,6.02.42,1.99,1.56,3.88,3.91,4.8.07.03.28-.08.26-.12-1.82-3.48-2.22-7.61-1.51-11.45.4-2.08,1.03-4.12,2.12-5.64.56-.82,1.2-1.6,1.94-2.3.46-.44,1.05-.69.82-1.77-.17-.86-1.76-2.27-2.19-1.82Z"/>
        <path class="cls-1" d="M154.58,35.13c-.46.08-.95.09-1.42.04-.24-.03-.47-.07-.7-.14-.24-.06-.5-.17-1.09-.28-.55-.1-1.12-.05-1.64.14-.26.1-.51.22-.75.37-.23.15-.38.27-.54.41-.59.51-1.01.97-1.48,1.5-1.8,2.07-3.07,4.61-3.59,7.33-.46,2.33-.64,4.96-.02,7.29.62,2.34,1.94,4.31,4.38,5.57.08.04.29-.07.26-.12-1.01-2.15-1.84-4.34-2.24-6.61-.4-2.26-.31-4.58.43-6.69.79-2.27,2.27-4.24,4.04-5.66.21-.18.45-.33.5-.32.05,0,.1,0,.14.03.02.01.03.02.05.04l.38.14c.36.14.79.26,1.19.35.98.23,2.14.44,2.86-.65.27-.43.17-1.14-.04-1.73-.21-.59-.49-1.06-.73-1.02Z"/>
        <path class="cls-1" d="M162.41,36.97c-2.51-1.98-5.97-2.22-8.7-.52-1.36.91-2.21,2.14-2.86,3.29-.67,1.17-1.19,2.42-1.53,3.7-.61,2.19-1.16,4.61-.95,6.97.22,2.34,1.18,4.55,3.44,6.05.07.05.29-.03.27-.09-.71-2.17-1.14-4.43-1.15-6.69-.03-2.26.36-4.52,1.23-6.54.93-2.14,2.47-4.28,4.18-4.48.91-.19,1.91-.09,2.71.3.52.27.69.66,1.7.33.41-.12,1.02-.52,1.42-.98.41-.46.59-1.05.25-1.33Z"/>
        <path class="cls-1" d="M160.69,37.44c-1.41-.47-2.83-.3-4.02.18-.6.24-1.17.57-1.68.98-.49.39-.92.84-1.29,1.31-.74.95-1.25,1.97-1.66,2.98-.39,1-.7,2.02-.93,3.06-.38,1.78-.9,3.75-.66,5.7.21,1.93,1.22,3.83,3.49,4.74.07.03.29-.06.27-.11-1.57-3.28-1.54-7.23-.33-10.63.65-1.83,1.64-3.61,2.91-4.46.61-.43,1.31-.64,1.92-.6.19.02.34.1.48.08.15-.02.3-.15.66-.51.28-.27.72-.85.97-1.41.26-.56.26-1.17-.13-1.31Z"/>
        <path class="cls-1" d="M163.17,39.7c-1.49-.16-2.75.51-3.57,1.28-.84.79-1.32,1.57-1.83,2.32-.98,1.54-1.8,3.19-2.31,4.95-.44,1.49-1.1,3.12-1.05,4.82.04,1.67.77,3.39,2.88,4.37.07.03.29-.03.28-.07-1.04-2.94-.66-6.27.64-9.08.68-1.53,1.68-2.88,2.74-4.08.54-.6,1.06-1,1.39-1.02.11-.02.21.04.26,0,.06-.05.06-.23.26-.66.15-.34.51-.97.68-1.57.18-.59.07-1.2-.36-1.26Z"/>
        <path class="cls-1" d="M163.31,40.96c-1.02.38-1.81,1.04-2.41,1.7-.61.67-1.07,1.38-1.47,2.08-.79,1.37-1.42,2.84-1.81,4.38-.33,1.31-.87,2.74-.78,4.21.1,1.45.87,2.92,2.96,3.66.06.02.29-.04.28-.07-1.03-2.47-.78-5.34.25-7.78.55-1.31,1.38-2.54,2.24-3.52.44-.49.89-.91,1.31-1.09.3-.13.45.06.43-.9,0-.38-.07-1.1-.24-1.69-.16-.59-.48-1.07-.77-.96Z"/>
        <path class="cls-1" d="M166.77,40.93c-1.07.54-1.92,1.33-2.58,2.16-.67.83-1.19,1.71-1.62,2.59-.85,1.75-1.48,3.6-1.79,5.52-.28,1.64-.68,3.45-.4,5.22.28,1.75,1.3,3.45,3.55,4.17.07.02.28-.07.26-.11-1.55-2.93-1.64-6.5-.68-9.64.51-1.69,1.36-3.31,2.33-4.63.5-.67,1.04-1.26,1.61-1.63.38-.24.71-.16.69-1.16,0-.4-.16-1.1-.42-1.66-.25-.56-.65-.98-.95-.83Z"/>
        <path class="cls-1" d="M178.96,37.44c-2.68.29-5.61.55-8.39,1.9-1.37.67-2.68,1.61-3.71,2.89-1.04,1.32-1.59,2.75-2.05,4.05-.81,2.29-1.72,4.79-1.85,7.4-.13,2.58.57,5.22,2.73,7.08.07.06.29,0,.28-.07-1.17-4.87-.4-10.14,1.73-14.66.57-1.22,1.27-2.18,2.24-2.88.96-.72,2.1-1.2,3.28-1.51,1.23-.32,2.54-.49,3.9-.55.84-.04,1.69.15,2.41-.85.57-.78.15-2.87-.58-2.8Z"/>
        <path class="cls-1" d="M183.35,40.28c-1.55-.16-2.92.24-4.09.71-1.19.49-2.19,1.06-3.22,1.66-2.04,1.22-3.98,2.69-5.6,4.52-1.39,1.55-2.95,3.35-3.66,5.54-.72,2.14-.49,4.73,1.48,6.41.06.05.29.02.29-.04-.33-1.98.02-4.09.85-5.97.83-1.9,2.13-3.56,3.68-4.93,1.67-1.48,3.64-2.57,5.66-3.46,1.05-.46,2.06-.86,2.95-.95.27-.03.52.02.74-.03.22-.05.41-.2.74-.62.25-.32.55-.98.65-1.59.1-.61-.05-1.2-.48-1.25Z"/>
        <path class="cls-1" d="M180.43,42.08c-3.52,1.91-6.94,4.38-9.16,7.96-.94,1.51-2.04,3.19-2.36,5.12-.34,1.89.18,4.02,2.23,5.29.06.04.29,0,.28-.05-.88-3.33.32-7.05,2.53-9.68,1.19-1.44,2.69-2.59,4.25-3.53.81-.49,1.63-.95,2.5-1.34.54-.23,1.13-.27,1.2-1.34.06-.85-.98-2.7-1.47-2.43Z"/>
        <path class="cls-1" d="M189.3,45.78c-.32-.58-.77-.92-1.21-1.15-.45-.23-.92-.35-1.43-.36-.25,0-.52.02-.79.09-.22.06-.43.13-.62.22-.39.18-.72.41-.99.64-.55.46-.91.94-1.24,1.33l-.97,1.19c-1.29,1.59-2.55,3.21-3.71,4.9-1.99,2.86-5.3,5.74-3.52,10.45.03.07.25.16.26.11,1.36-3.63,3.49-6.86,5.94-9.84,1.32-1.6,2.77-3.11,4.22-4.58.38-.39.74-.77,1.01-.97.14-.1.25-.16.33-.17.04-.01.06,0,.08,0h.01s0,0,0,0h0s0,0,0,0c.03.12-.25-1.02-.13-.54h0s0,.01,0,.01v.02s.02.09.02.14c.01.25-.07.3.05.1.1-.2.43-.42.46-.4,0,0,0,0,.01,0,.13,0,.27,0,.42.03.3.04.63.1.94.07.3-.02.61-.14.79-.38.18-.23.22-.61.05-.91Z"/>
        <path class="cls-1" d="M185.54,46.15c-.03.68-1.23,1.94-2.16,3.1-.96,1.16-1.92,2.33-2.81,3.55-1.52,2.08-4.35,3.85-2.44,7.94.03.06.24.17.25.14,1.08-2.68,2.78-4.98,4.71-7.09,1.04-1.14,2.18-2.2,3.3-3.26.57-.56,1.14-1.07,1.8-1.92.19-.26.43-.53.52-.89.09-.35.04-.78-.37-1.18-.33-.32-1.04-.41-1.66-.44-.62-.02-1.15-.04-1.15.04Z"/>
        <path class="cls-1" d="M196.07,49.72c-.64-.71-1.47-1.12-2.25-1.3-.79-.19-1.57-.18-2.33-.04-1.6.32-2.76,1.29-3.63,2.22-.88.95-1.51,1.92-2.15,2.77-.64.87-1.3,1.73-1.97,2.58-1.15,1.47-2.69,2.78-3.92,4.31-1.23,1.54-2.14,3.32-2.17,5.95,0,.08.18.23.22.19,2.79-3.33,5.71-6.39,8.56-9.65.76-.88,1.52-1.76,2.29-2.65.74-.86,1.47-1.63,2.21-2.07.19-.11.38-.21.56-.28.18-.07.31-.1.48-.12.33-.05.68,0,.95.09.17.07.25.19.35.2.1.02.24-.11.72-.25.36-.1,1.07-.3,1.59-.63.53-.32.84-.9.48-1.31Z"/>
        <path class="cls-1" d="M193.31,50.43c-1.07.2-1.51.68-1.88.93-.4.3-.77.61-1.13.93-.72.64-1.38,1.32-2,2-1.24,1.37-2.34,2.75-3.43,4.02-.94,1.1-2.25,1.97-3.28,3.08-1.04,1.12-1.79,2.5-1.89,4.89,0,.08.15.25.18.22,2.53-2.42,5.07-4.62,7.51-7.11,1.3-1.33,2.6-2.63,3.92-3.72.68-.56,1.35-1.09,2.06-1.49l.33-.17c.1-.05.15-.07.17-.11,0-.02.01-.03-.01-.08-.08-.18-.13-.35-.17-.48-.07-.28-.07-.47-.06-.54,0-.01,0-.03,0-.04.01-.03-.02.05.02-.05.03-.06.06-.13.09-.2.14-.27.31-.56.4-.86.09-.3.09-.61-.07-.87-.15-.25-.47-.4-.77-.36Z"/>
        <path class="cls-1" d="M192.38,52.76c.15.24.18.69.05,1.14-.13.44-.41.88-.82,1.33-.81.86-2.09,1.86-3.13,2.82-.94.83-2.15,1.42-3.08,2.27-.94.86-1.57,1.99-1.83,4.25,0,.07.11.27.15.25,2.44-1.82,4.67-3.56,7.02-5.27.63-.46,1.26-.89,1.92-1.35.66-.47,1.36-1,1.99-1.76.65-.78,1.16-1.85,1.28-3.06.04-.37.09-.78-.04-1.16-.13-.37-.43-.72-1-.8-.46-.07-1.08.29-1.59.64-.51.36-.94.65-.91.7Z"/>
        <path class="cls-1" d="M203.31,58.24c-2.39-1.13-4.93-.63-6.86.26-1.97.93-3.46,2.05-5.01,3.09-1.32.91-2.9,1.57-4.22,2.46-1.35.91-2.39,2.05-3.37,4.33-.03.07.06.29.11.27,3.51-1.59,6.52-3.57,9.69-5.39,1.7-.97,3.43-1.94,5-2.24.79-.16,1.56-.17,2.2.02.42.14.53.43,1.31-.2.32-.24.8-.77,1.1-1.31.31-.53.39-1.12.06-1.28Z"/>
        <path class="cls-1" d="M199.2,58.66c-2.85,2.02-5.9,3.67-8.89,5.36-1.29.73-2.83,1.18-4.15,1.99-1.33.81-2.42,1.99-3.02,4.29-.02.07.09.28.13.26,2.95-1.79,5.95-3.22,9.04-4.66,1.66-.76,3.34-1.52,5.01-2.28.86-.41,1.69-.85,2.54-1.28.52-.26,1.13-.36,1.06-1.42-.05-.84-1.35-2.53-1.73-2.25Z"/>
        <path class="cls-1" d="M201.4,55.84c-2.02-1.03-4.14-.77-5.86-.11-1.73.68-3.05,1.65-4.29,2.5-2.18,1.52-5.43,2.16-5.29,6.7,0,.07.15.25.18.22,2.11-2.14,4.59-3.73,7.19-5.19,1.4-.79,2.83-1.44,4.06-1.54.62-.06,1.22,0,1.68.19.31.14.32.4,1.04-.25.3-.25.78-.78,1.11-1.3.33-.52.46-1.08.18-1.23Z"/>
        <path class="cls-1" d="M211.28,65.12c-.76-1.37-1.95-2.33-3.22-2.92-1.26-.6-2.73-.85-4.07-.76-2.73.17-5.07,1.37-7.04,2.65-1.71,1.11-3.52,2.06-5.06,2.97-.78.46-1.51.94-2.27,1.51-.77.57-1.57,1.27-2.73,2.05-.07.05-.08.28-.01.29,2.55.11,4.75-.79,6.72-1.84,1.97-1.07,3.75-2.36,5.63-3.31,1.99-1.03,4.22-1.57,5.99-1.15.89.21,1.74.65,2.29,1.24.16.19.27.39.42.54.17.14.41.21.93.24.41.02,1.12-.11,1.68-.39.55-.26.96-.74.74-1.11Z"/>
        <path class="cls-1" d="M208.78,64.99c-.9-.54-1.88-.77-2.77-.85-.9-.07-1.76,0-2.58.13-1.6.28-3.07.78-4.42,1.34-1.17.48-2.46.67-3.53,1.16-1.1.48-1.85,1.29-3.12,3.18-.04.06-.03.29.02.29,3.08-.51,5.57-1.74,8.23-2.45,1.4-.39,2.87-.6,4.09-.52.63.05,1.21.15,1.62.37.28.15.26.41,1-.21.3-.24.81-.74,1.17-1.25.36-.5.53-1.05.28-1.19Z"/>
        <path class="cls-1" d="M205.61,64.59c-1.56.74-3.27,1.11-4.89,1.7-.7.25-1.55.23-2.23.59-.33.17-.57.44-.8.89-.24.45-.46,1.12-.95,2.04-.03.06-.04.29,0,.29,1.11-.2,1.93-.59,2.75-.84.8-.29,1.63-.49,2.48-.64.92-.16,1.88-.23,2.83-.35.49-.06.97-.16,1.46-.24.3-.05.67.08.56-.87-.09-.75-.99-2.67-1.2-2.57Z"/>
        <path class="cls-1" d="M212.09,69.38c-.79-.57-1.63-.69-2.3-.71-.68,0-1.27.09-1.83.2-.58.13-1.02.25-1.48.36l-1.4.32c-1.87.4-3.74.7-5.6.94-1.61.2-3.34-.02-5,.09-1.68.11-3.29.57-5.25,2.12-.06.05-.08.28-.03.29,3.92.22,7.67.23,11.52-.03,2.07-.14,4.14-.32,6.2-.61l1.54-.25c.44-.06.86-.08,1.16-.03.19.03.29.13.34.1.06-.02.08-.23.47-.5.3-.21.97-.53,1.42-.94.47-.4.67-1.03.24-1.36Z"/>
        <path class="cls-1" d="M213.6,72.38c-.95-1.02-2.14-1.44-3.25-1.6-1.1-.15-2.07-.04-2.92.02-1.7.13-3.4.24-5.1.41-2.92.29-6.39-.7-8.75,3.36-.04.06,0,.29.05.28,3.2-.87,6.45-1.09,9.74-1.12,1.75-.01,3.61.05,5.29.12.83.05,1.48.18,1.85.47.12.09.18.21.28.23.11.03.26-.07.72-.24.35-.14,1.02-.41,1.52-.77.51-.35.82-.87.55-1.16Z"/>
        <path class="cls-1" d="M216.95,77.77c-.39-.98-1.11-1.5-1.7-1.83-.62-.33-1.2-.52-1.8-.64-.15-.03-.3-.06-.45-.08l-.38-.05-.77-.1c-.51-.04-1.02-.09-1.53-.12-2.03-.11-4.02-.03-5.95.14-1.66.14-3.43-.02-5.08.19-1.68.21-3.18.8-5.03,2.47-.06.05-.07.29-.01.29,3.89,0,7.54-.42,11.23-.41,1.98,0,3.93.18,5.76.54.46.09.96.21,1.38.3.35.1.69.26.9.42.13.1.15.23.18.19.05-.04.11-.1.18-.15.07-.04.09-.06.15-.09.04-.02.04-.02.07-.03-.04.01.08-.02.2-.03.36-.04,1.09.1,1.71.02.61-.05,1.15-.48.94-1.03Z"/>
        <path class="cls-1" d="M214.21,77.2c-1.58.94-4.45.08-7.07-.12-2.29-.23-4.76-1.82-7.29,1.75-.04.06-.04.29,0,.29,2.6-.28,5.12.08,7.65.63,1.38.28,2.65.73,4.19,1.01.79.13,1.66.17,2.59.05.55-.06,1.29-.07,1.33-1.14,0-.83-1.25-2.57-1.4-2.47Z"/>
        <path class="cls-1" d="M215.69,80.79c-.23.35-.82.64-1.59.76-.77.13-1.63.11-2.58.06-1.91-.09-3.79-.24-5.63-.44-1.59-.18-3.16-.8-4.7-1.13-1.57-.36-3.1-.38-5.53.26-.08.02-.19.23-.14.25,3.57,1.81,7.24,2.66,10.98,3.32,2.04.34,3.99.67,6.08.92,1.13.09,2.35.11,3.75-.34.43-.15.9-.31,1.26-.65.36-.33.61-.83.46-1.44-.11-.49-.71-.88-1.27-1.16-.57-.28-1.04-.49-1.1-.41Z"/>
        <path class="cls-1" d="M215.89,83.04c-.15.51-.64,1.05-1.27,1.38-.61.33-1.41.51-2.27.55-.86.05-1.82-.01-2.75-.1-.93-.09-1.85-.23-2.76-.42-1.58-.32-3.07-1.17-4.56-1.78-1.53-.63-3.06-.98-5.61-.89-.08,0-.23.18-.19.22,3.25,2.6,6.87,4.22,10.78,5.19,1.05.26,2.12.47,3.21.62,1.08.15,2.22.27,3.46.13,1.27-.13,2.69-.65,3.83-1.64.35-.3.72-.63.94-1.06.22-.43.27-.96-.06-1.49-.27-.43-.96-.62-1.57-.7-.62-.08-1.15-.13-1.18,0Z"/>
        <path class="cls-1" d="M214.7,85.58c-.75.89-1.98,1.41-3.28,1.52-1.32.12-2.63-.12-3.89-.6-1.12-.42-2.08-1.35-3.23-2-1.16-.65-2.59-1.06-4.83-.49-.07.02-.21.21-.17.23,2.67,1.62,4.98,3.7,8.07,4.98,1.68.67,3.54,1.06,5.51.83,1.02-.12,2.04-.45,3.01-.97.57-.32,1.33-.62,1.03-1.7-.25-.82-2.05-1.99-2.21-1.79Z"/>
        <path class="cls-1" d="M227.58,114.3c1.18-1.94,1.62-4.21,1.05-6.32-.24-.88-.39-1.99-1.15-2.75-.71-.74-2.12-1.04-3.55.38-.04.04-.14.26-.12.26.7.06,1.35.49,1.77,1.09.42.6.63,1.34.63,2.07,0,.79-.27,1.54-.63,2.12-.19.3-.35.58-.58.79-.13.15-.42.1.23.81.5.58,2.18,1.86,2.36,1.57Z"/>
        <path class="cls-1" d="M225.79,114.41c.62-.93.85-1.95.86-2.88.01-.93-.23-1.88-.68-2.64-.7-1.25-1.09-3.32-4.31-1.05-.05.04-.2.22-.18.22,1.28.36,2.16,1.31,2.34,2.37.09.53-.09,1.09-.33,1.42-.12.17-.24.29-.36.33-.1.04-.26-.13.41.52.51.55,2.05,2,2.26,1.71Z"/>
        <path class="cls-1" d="M226.13,112.52c-.14-1.41-.33-2.84-1.09-4.05-.32-.5-.5-1.25-1.09-1.61-.57-.35-1.58-.26-2.8,1.26-.04.05-.14.26-.12.26,1.02-.1,1.77.77,1.93,1.69.1.5.02,1.03-.1,1.47-.06.23-.1.44-.19.64-.05.13-.3.21.63.35.74.13,2.85.2,2.83-.01Z"/>
        <path class="cls-1" d="M221.37,114.05c.82-.58,1.24-1.38,1.44-2.1.1-.37.15-.74.14-1.13,0-.37-.1-.8-.22-1.1-.38-1.06-.31-2.88-3.49-.71-.05.03-.22.2-.2.2.95.19,1.43.93,1.29,1.58-.08.29-.38.54-.62.54-.03,0-.06,0-.08-.01-.01,0-.02,0-.03-.01l.05.03c.08.05.14.09.18.14.06.07.04.03.09.13.16.34.47.98.73,1.54.28.55.59.98.71.9Z"/>
        <path class="cls-1" d="M224.21,109.97c-1.74.03-3.4-.63-4.95-1.32-.68-.3-1.22-.96-1.93-1.24-.73-.29-1.66-.21-3.51.72-.06.03-.2.21-.18.23,1.82.84,3.31,1.87,5,2.88.9.54,1.83,1.1,2.84,1.54.52.23,1.07.4,1.62.56.33.11.67.38,1.04-.53.28-.72.29-2.84.07-2.84Z"/>
        <path class="cls-1" d="M223.5,108.82c-2.3-.31-4.45-1.26-6.55-2.19-.91-.41-1.7-1.18-2.67-1.57-.98-.39-2.14-.4-4.05.6-.06.03-.18.23-.15.24,2.27.92,4.24,2.13,6.34,3.35,1.12.65,2.26,1.34,3.46,1.93.62.3,1.26.55,1.91.8.39.16.76.49,1.31-.35.43-.66.7-2.77.4-2.81Z"/>
        <path class="cls-1" d="M222.22,108.99c-2.68-.65-5.15-1.94-7.56-3.23-1.05-.56-1.96-1.48-3.07-2.04-1.12-.56-2.45-.75-4.54.04-.07.03-.19.22-.16.24,2.54,1.29,4.78,2.83,7.14,4.39,1.27.83,2.54,1.7,3.89,2.46.7.39,1.42.74,2.15,1.08.44.22.84.6,1.53-.17.54-.61.99-2.68.63-2.77Z"/>
        <path class="cls-1" d="M224.24,111.86c-2.28-.14-4.42-1.07-6.43-2.08-.88-.44-1.59-1.25-2.5-1.72-.92-.47-2.04-.59-4.09.1-.07.02-.21.2-.18.22,2.16,1.28,4.03,2.68,6.13,4,1.12.71,2.29,1.42,3.54,1.99.65.29,1.32.53,2.01.75.41.14.82.45,1.33-.43.39-.69.5-2.81.2-2.83Z"/>
        <path class="cls-1" d="M224.65,113.73c-.19.93-.2,1.68-.33,2.15-.04.14-.04.15-.06.18-.02.03-.03.06-.06.08-.05.05-.12.08-.18.08-.09,0-.04,0-.34-.06-.23-.05-.56-.16-.88-.26-.64-.21-1.26-.44-1.89-.69-1.08-.43-2.03-1.27-3.12-1.77-1.11-.51-2.38-.68-4.54-.02-.07.02-.21.21-.17.23,2.55,1.47,4.89,2.96,7.51,4.24.71.34,1.41.67,2.18.98.2.08.42.15.67.21.23.06.6.11.91.11.65,0,1.31-.2,1.85-.59.56-.4.99-1.04,1.22-1.71.2-.53.3-.99.41-1.37.13-.5.41-.74-.4-1.25-.32-.21-.97-.52-1.57-.69-.59-.17-1.16-.14-1.22.12Z"/>
        <path class="cls-1" d="M231.35,125.6s-.18.11-.36.13c-.06,0-.24.02-.21.01,0,0,0,.01,0,.03.01.07-.08.13-.04.17.04.05.07.1.1.14v.02s.01,0,.01,0h0c.09.19-.12-.26-.1-.21h0s0,0,0,0h-.02s-.02.02-.04.02c-.06.02-.12.03-.21.03-.16,0-.4-.02-.66-.1-.52-.14-1.22-.48-1.89-.8-.67-.33-1.32-.67-1.97-1.04-1.12-.63-2.08-1.65-3.24-2.35-1.17-.7-2.55-1.08-4.8-.59-.07.02-.22.2-.18.22,2.62,1.75,4.97,3.63,7.6,5.36.71.47,1.43.92,2.17,1.36.74.42,1.58.93,2.81,1.07.32.03.66.03,1.02-.03.18-.03.36-.07.54-.13l.27-.09.32-.16c.83-.48,1.32-1.17,1.6-1.95.17-.48.3-1.04.13-1.66-.15-.6-.75-1.24-1.48-1.19-.58.05-.88.72-1.14,1.28-.12.28-.33.61-.24.47.02-.03.02-.03.01-.02Z"/>
        <path class="cls-1" d="M226.03,119.27c.76.24,1.47.67,2.04,1.23.27.26.58.66.68.83.04.09.06.19.02.27-.03.09-.11.14-.19.17-.05.02-.2.05-.5.02-.54-.05-1.48-.48-2.4-.87-1.58-.67-3.07-1.77-4.71-2.51-1.64-.75-3.44-1.14-5.9-.53-.08.02-.19.23-.14.25,3.6,1.83,7,3.78,10.61,5.56.96.44,2.12,1.13,3.77.83.86-.19,1.66-.69,2.16-1.45.5-.75.6-1.75.31-2.65-.4-1.07-.77-1.48-1.2-2.04-.44-.53-.94-1-1.49-1.42-.65-.51-1.4-1.13-2.39-.47-.75.55-1.02,2.66-.67,2.77Z"/>
        <path class="cls-1" d="M141.2,33.81c-4.35,2.44-7.94,6.4-9.33,11.32-.59,2.07-1.15,4.43-.78,6.74.34,2.27,1.67,4.46,4.17,5.22.08.02.27-.11.25-.15-2.31-3.48-2.49-8.25-.81-12.05.9-2.06,2.33-3.83,3.97-5.24.85-.73,1.75-1.39,2.71-1.93.61-.32,1.25-.42,1.39-1.53.12-.89-.94-2.72-1.56-2.38Z"/>
        <path class="cls-1" d="M73.18,58.91c1.33-1.59,2.8-3.03,4.42-3.81,1.63-.8,3.17-.78,4.89-.1,1.47.56,3,1.92,4.78,2.75,1.77.84,3.74,1.26,6.19.46.08-.03.17-.24.12-.26-1.92-.78-3.76-1.71-5.55-2.72-1.79-.98-3.47-2.24-5.63-3.01-1.15-.42-2.49-.6-3.8-.45-1.3.17-2.56.63-3.66,1.25-1.15.64-2.14,1.44-3.07,2.24-.57.49-1.26.87-.99,1.98.21.87,1.94,2.11,2.3,1.68Z"/>
      </g>
    </g>
  </g>
</svg>