<?xml version="1.0" encoding="UTF-8"?>
<svg id="Calque_2" data-name="Calque 2" xmlns="http://www.w3.org/2000/svg" viewBox="0 0 300 300">
  <defs>
    <style>
      .cls-1 {
        fill: #1d1d1d;
      }

      .cls-2 {
        fill: #1db4b8;
      }
    </style>
  </defs>
  <path class="cls-2" d="M128.76,158.4c-7.09-.33-13.77-2.99-20.56-4.75-2.94-.76-5.6-3.25-8.84-3.48-3.26-.24-7.12,1.78-13.02,9.89-.19.26-.52,1.38-.41,1.38,7.62-.27,14.1,2.2,20.68,5.4,3.53,1.72,7.01,3.86,10.62,5.7,1.87.95,3.79,1.68,5.71,2.52,1.17.52,2.2,1.95,4.04-2.51,1.45-3.53,2.72-14.1,1.78-14.15Z"/>
  <path class="cls-2" d="M138.63,183.72c-4.69-2.16-9.27-3.73-13.66-5.01-4.39-1.27-8.59-2.24-12.54-2.96-3.43-.62-6.45-2.95-9.55-3.17-1.59-.11-3.22.29-5.44,1.55-1.09.6-2.39,1.47-3.89,2.51-1.49,1.02-3.26,2.29-5.39,3.79-.27.19-.87,1.2-.74,1.23,4.64,1.44,8.79,2.47,12.83,3.61,4.03,1.13,7.95,2.34,11.77,3.78,4.09,1.53,7.97,3.56,11.26,5.61.83.55,1.71,1,2.46,1.54l1.15.76c.37.26.69.55,1.03.83.4.36.73.87,1.22.9.52.02,1.31-.54,2.93-2.34,1.28-1.42,3.29-4.41,4.78-7.14,1.5-2.72,2.43-5.22,1.78-5.51Z"/>
  <path class="cls-2" d="M211.2,148.32c-4.59,3.11-10.08,4.37-15.05,6.72-4.28,2.03-12.07-1.72-7.79,17.47.07.3.61,1.34.66,1.28,3.58-4.72,8.55-6.49,13.98-7.41,2.92-.49,6.07-.52,9.11-.77,1.58-.13,3.06-.44,4.61-.63.95-.12,2.3.63.99-3.97-1.03-3.63-5.89-13.1-6.51-12.68Z"/>
  <path class="cls-2" d="M218.32,164.31c-5.18,3.09-11.18,4.29-16.7,6.61-4.76,2-12.81-1.91-9.77,17.61.05.31.54,1.37.6,1.31,4.23-4.74,9.7-6.47,15.6-7.32,3.18-.46,6.55-.45,9.84-.66,1.7-.11,3.32-.41,5-.58,1.03-.11,2.41.67,1.39-4.01-.81-3.7-5.26-13.37-5.96-12.95Z"/>
  <path class="cls-2" d="M128.76,158.4c-7.09-.33-13.77-2.99-20.56-4.75-2.94-.76-5.6-3.25-8.84-3.48-3.26-.24-7.12,1.78-13.02,9.89-.19.26-.52,1.38-.41,1.38,7.62-.27,14.1,2.2,20.68,5.4,3.53,1.72,7.01,3.86,10.62,5.7,1.87.95,3.79,1.68,5.71,2.52,1.17.52,2.2,1.95,4.04-2.51,1.45-3.53,2.72-14.1,1.78-14.15Z"/>
  <path class="cls-2" d="M138.63,183.72c-4.69-2.16-9.27-3.73-13.66-5.01-4.39-1.27-8.59-2.24-12.54-2.96-3.43-.62-6.45-2.95-9.55-3.17-1.59-.11-3.22.29-5.44,1.55-1.09.6-2.39,1.47-3.89,2.51-1.49,1.02-3.26,2.29-5.39,3.79-.27.19-.87,1.2-.74,1.23,4.64,1.44,8.79,2.47,12.83,3.61,4.03,1.13,7.95,2.34,11.77,3.78,4.09,1.53,7.97,3.56,11.26,5.61.83.55,1.71,1,2.46,1.54l1.15.76c.37.26.69.55,1.03.83.4.36.73.87,1.22.9.52.02,1.31-.54,2.93-2.34,1.28-1.42,3.29-4.41,4.78-7.14,1.5-2.72,2.43-5.22,1.78-5.51Z"/>
  <path class="cls-2" d="M211.2,148.32c-4.59,3.11-10.08,4.37-15.05,6.72-4.28,2.03-12.07-1.72-7.79,17.47.07.3.61,1.34.66,1.28,3.58-4.72,8.55-6.49,13.98-7.41,2.92-.49,6.07-.52,9.11-.77,1.58-.13,3.06-.44,4.61-.63.95-.12,2.3.63.99-3.97-1.03-3.63-5.89-13.1-6.51-12.68Z"/>
  <path class="cls-2" d="M218.32,164.31c-5.18,3.09-11.18,4.29-16.7,6.61-4.76,2-12.81-1.91-9.77,17.61.05.31.54,1.37.6,1.31,4.23-4.74,9.7-6.47,15.6-7.32,3.18-.46,6.55-.45,9.84-.66,1.7-.11,3.32-.41,5-.58,1.03-.11,2.41.67,1.39-4.01-.81-3.7-5.26-13.37-5.96-12.95Z"/>
  <g>
    <path class="cls-1" d="M85.34,179.45c-.89,2.28-1.94,4.45-3.47,6.12-1.52,1.67-3.55,2.87-5.63,2.98-2.08.12-4.2-.9-5.81-2.45-1.62-1.54-2.7-3.65-3.44-5.92-.74-2.27-1.18-4.73-1.58-7.18-.39-2.46-.66-4.93-.84-7.41-.17-2.48-.23-4.97-.18-7.45.05-2.49.2-4.95.57-7.36.63-4.14,2.1-8.28,4.8-11.53,1.34-1.62,2.95-2.99,4.76-3.94,1.8-.96,3.81-1.48,5.64-1.27,1.82.21,3.56,1.24,5.04,2.66,1.49,1.41,2.74,3.19,3.84,5.02,2.16,3.69,3.55,7.79,4.19,12.02.04.27.25.14.25-.13.08-5.03-1.25-10.02-3.77-14.31-1.25-2.13-2.81-4.17-4.88-5.66-1.03-.74-2.21-1.33-3.47-1.63-1.26-.32-2.59-.32-3.84-.11-2.53.44-4.82,1.65-6.77,3.22-1.95,1.59-3.54,3.57-4.77,5.74-2.48,4.38-3.41,9.39-3.76,14.29-.35,5.29-.22,10.61.38,15.88.31,2.64.7,5.25,1.3,7.89.62,2.63,1.55,5.32,3.29,7.67,1.81,2.38,4.46,4.33,7.71,4.76,1.61.2,3.29-.06,4.75-.67,1.48-.6,2.76-1.51,3.87-2.56,2.76-2.65,4.29-5.99,4.59-9.07.22-2.48-1.86-2.08-2.8.41Z"/>
    <path class="cls-1" d="M214.58,197.29c.52.35,1.1.98,1.87,1.62.39.32.89.64,1.39.87.51.22,1.05.37,1.58.46,2.13.31,4.23-.35,5.85-1.5,1.62-1.14,2.81-2.62,3.84-4.06,1.01-1.45,1.98-2.93,2.84-4.47,1.74-3.07,3.17-6.32,4.23-9.7,1.08-3.37,1.8-6.85,2.13-10.37.29-3.04.41-6.19.16-9.42-.27-3.22-1.08-6.74-3.29-9.58-1.08-1.4-2.48-2.6-4.11-3.35-.81-.38-1.68-.63-2.57-.77-.89-.11-1.77-.08-2.61.06-3.36.58-5.99,3.15-6.43,5.82-.04.16.19.18.26.04,1.3-2.62,4.42-4.34,7.44-4.14,1.51.08,2.97.69,4.2,1.62,1.24.93,2.25,2.18,3,3.56,1.5,2.79,1.94,6.07,2.03,9.3.09,3.25-.16,6.51-.73,9.72-1.28,6.9-4.06,13.48-8.09,19.11-1.03,1.48-2.11,2.87-3.35,3.86-.62.49-1.28.89-1.95,1.11-.68.23-1.4.33-2.06.26-.4-.04-.77-.16-1.09-.31-.32-.15-.57-.34-.95-.65-.36-.29-.79-.65-1.32-.98-.51-.33-1.19-.64-1.95-.69-.61-.03-1,.22-1.14.49-.15.27-.1.55,0,.82.1.26.23.51.33.72.11.21.22.37.49.56Z"/>
    <path class="cls-1" d="M211.55,200.3c-1.26,9.74-2.52,19.48-3.78,29.23-.65,4.86-1.2,9.72-3.35,13.78-2.12,4.05-5.98,6.99-10.24,8.98-4.28,2.03-9.02,3.1-13.8,4.27-2.39.58-4.81,1.19-7.21,1.95-2.41.77-4.72,1.7-6.99,2.57-4.52,1.74-9.14,3.29-13.6,2.66-2.2-.28-4.32-1.21-6.5-2.27-2.17-1.09-4.51-2.18-6.84-3.06-8.06-3.12-16.73-4.89-24.7-8.32-3.97-1.72-7.77-3.86-11-6.64-3.24-2.76-5.79-6.18-7.34-10.11-1.57-3.93-2.3-8.23-2.77-12.54-.45-4.32-.71-8.72-1.12-13.01-.77-8.6-1.73-16.95-2.94-24.85-.08-.5-.27-.22-.24.29.54,9.43,1.08,18.84,1.62,28.24.27,4.7.42,9.43,1.15,14.14.73,4.68,2.07,9.41,4.74,13.46,2.64,4.05,6.37,7.27,10.45,9.73,4.09,2.48,8.53,4.28,13.03,5.77,4.5,1.5,9.06,2.73,13.52,4.21,2.23.74,4.44,1.54,6.59,2.45,2.16.9,4.2,2,6.4,3.03,1.18.54,2.41,1.04,3.7,1.39,1.3.35,2.64.53,3.98.57,2.68.07,5.31-.45,7.8-1.18,5-1.49,9.58-3.72,14.44-4.92,4.86-1.31,9.92-2.19,14.87-3.88,4.92-1.69,9.8-4.26,13.33-8.5,1.81-2.19,3.09-4.81,3.89-7.46.81-2.66,1.25-5.35,1.63-7.98l2.18-15.71c.9-6.44,1.94-12.73,1.89-18.63-.04-4.66-2.12-2.91-2.79,2.36Z"/>
    <path class="cls-1" d="M107.15,62.19c-1.17,1.71-2.14,3.55-3.15,5.36-.5.91-.91,1.86-1.37,2.78-.46.93-.9,1.86-1.28,2.83-1.68,3.78-2.91,7.73-4.04,11.69-1.08,3.98-1.91,8.01-2.6,12.06-.63,4.05-1.18,8.12-1.52,12.2-.65,7.02-1.28,14.53-1.48,21.92-.21,7.39,0,14.69,1.37,21.33.04.21.25.11.25-.1.11-7.81.36-15.59.71-23.37.35-7.78.81-15.55,1.79-23.29.51-4.17,1.23-8.3,2.08-12.39.91-4.08,2-8.1,3.34-12.03,1.44-4.05,3.11-8.01,5.13-11.78.66-1.14,1.36-2.23,1.95-3.35.61-1.11,1.19-2.19,1.5-3.42.5-1.94-1.43-2.34-2.66-.43Z"/>
    <path class="cls-1" d="M216.68,80.83c2.13,13.16,2.85,26.53,2.74,39.87-.05,5.75-.6,11.88-.96,17.93-.36,6.05-.52,12.02.32,17.65.03.18.24.12.26-.06,1.44-12.85,2.46-25.64,2.67-38.6.11-6.98.03-13.97-.38-20.95-.22-3.62-.52-7.24-.92-10.84-.21-2.22-.34-4.42-1.43-6.28-.87-1.46-2.58-.49-2.3,1.28Z"/>
    <path class="cls-1" d="M186.49,143.26c.6-.33,1.59-.22,2.44.24.86.46,1.49,1.21,1.9,2.14.83,1.85.52,4.21-.76,5.49-.55.56-1.36.93-2.2,1.05-.84.14-1.68.03-2.4-.2-.71-.24-1.41-.62-2.14-1.25-.73-.62-1.5-1.44-2.18-2.7-.04-.08-.25-.07-.25,0-.06,1.45.39,2.83,1.17,3.95.77,1.12,1.96,1.97,3.28,2.29,2.59.67,5.56-.28,7.18-2.63,1.66-2.52,1.67-5.99-.11-8.66-.97-1.42-2.43-2.44-4.23-2.84-.55-.12-1.16-.19-1.75-.05-.58.12-1.14.51-1.37,1.11-.18.5.15,1.02.53,1.42.39.4.73.69.89.62Z"/>
    <path class="cls-1" d="M127.99,143.26c.6-.33,1.59-.22,2.44.24.86.46,1.49,1.21,1.9,2.14.83,1.85.52,4.21-.76,5.49-.55.56-1.36.93-2.2,1.05-.84.14-1.68.03-2.4-.2-.71-.24-1.41-.62-2.14-1.25-.73-.62-1.5-1.44-2.18-2.7-.04-.08-.25-.07-.25,0-.06,1.45.39,2.83,1.17,3.95.77,1.12,1.96,1.97,3.28,2.29,2.59.67,5.56-.28,7.18-2.63,1.66-2.52,1.67-5.99-.11-8.66-.97-1.42-2.43-2.44-4.23-2.84-.55-.12-1.16-.19-1.75-.05-.58.12-1.14.51-1.37,1.11-.18.5.15,1.02.53,1.42.39.4.73.69.89.62Z"/>
    <path class="cls-1" d="M165.58,155.62c-.01,4.85-.11,9.7-.23,14.55-.13,4.85-.13,9.67-1.46,14.03-.56,1.87-1.49,3.66-2.71,5.27-.6.79-1.3,1.58-1.99,2.25-.33.32-.65.56-.92.7-.28.14-.45.18-.71.18-.53,0-1.4-.38-2.36-.88-.98-.49-1.96-.95-2.96-1.36-2-.82-4.05-1.44-6.15-1.77-.13-.02-.18.19-.07.25,2.04,1.13,4.07,2.28,6.07,3.46,1.02.59,1.97,1.18,3.03,1.78.54.29,1.13.55,1.79.69.66.14,1.41.09,2.04-.18,1.29-.54,2.09-1.51,2.88-2.38.79-.9,1.5-1.87,2.13-2.9,1.26-2.05,2.13-4.35,2.68-6.68.6-2.52.87-5.09,1.06-7.63.17-2.54.3-5.04.44-7.56l.38-7.82c.08-1.6.32-3.17-.47-4.63-.62-1.15-2.47-.68-2.47.63Z"/>
    <path class="cls-1" d="M183.82,211.43c-.87,1.14-3.77,1.61-6.06,2.23-2.4.58-4.84,1.13-7.29,1.83-2.44.7-4.89,1.57-7.21,2.81-1.19.62-2.23,1.38-3,1.57-.4.1-.64.1-1.02-.01-.38-.11-.85-.37-1.41-.67-3.81-2.08-8.04-4.34-12.73-5.27-2.33-.46-4.77-.55-7.05-.07-2.27.47-4.35,1.53-5.81,3.06-.09.09.05.25.16.21,2.04-.98,4.31-1.48,6.62-1.55,2.31-.08,4.63.26,6.89.86,2.26.6,4.46,1.45,6.59,2.46,1.06.51,2.11,1.05,3.15,1.62l1.55.88c.54.3,1.14.62,1.88.77.81.17,1.66.03,2.35-.23.7-.26,1.3-.61,1.86-.92,1.1-.6,2.21-1.13,3.38-1.58,2.33-.89,4.77-1.5,7.26-2.04,2.58-.56,5.21-1.06,7.86-1.71.81-.18,1.78-.41,2.64-.92.43-.26.85-.59,1.2-1.03.34-.44.59-1.01.61-1.6.02-.46-.18-.76-.43-.91-.24-.15-.53-.16-.81-.14-.28.02-.53.09-.74.13-.21.05-.35.08-.45.22Z"/>
    <path class="cls-1" d="M189.16,216.89c-.43-2.25-1.1-4.48-2.41-6.38-.56-.8-1.04-1.82-1.91-2.46-.85-.63-2.09-.86-3.62.16-.05.03-.14.21-.12.22,1.84.53,3.25,2.04,4.02,3.75.43.93.65,1.93.78,2.89.07.5.14.99.15,1.48.02.31-.17.6.68.78.67.15,2.49-.12,2.42-.45Z"/>
    <path class="cls-1" d="M160.91,230.78c-.1.8-.83,1.54-1.76,1.91-.46.19-.97.3-1.46.32-.5.02-.94-.03-1.47-.17-.89-.23-1.64-.95-2.53-1.47-.91-.53-2.03-.88-4-.58-.06,0-.2.16-.17.18,1.05.81,2.05,1.65,3.14,2.41,1.08.76,2.28,1.44,3.66,1.81,1.54.39,3.23.3,4.79-.45.8-.39,1.56-1,2.15-1.82.34-.49.82-1.1.1-1.79-.55-.5-2.43-.5-2.44-.35Z"/>
    <path class="cls-1" d="M117.51,118.93c6.55-.88,13.28-1.13,19.92-1,.84.03,1.68.03,2.17.17.25.07.4.16.46.23.06.06.12.17.19.46.06.27.11.7.17,1.1l.14,1.21c.08.81.14,1.62.18,2.44l.04,1.22v.85s0,.16,0,.16c0,.05.01.14-.06.08l-.15-.07s-.06-.03-.06-.03l-.54-.2c-.83-.33-1.68-.57-2.53-.8-5.89-1.62-12.64-1.53-18.73.37-1.52.47-2.99,1.07-4.41,1.74l-1.04.55-.51.28c-.07.05-.06.06-.11.1-.07.07-.16.16-.27.26l-.19.16s-.04.03-.05.04l-.02-.02-.04-.05c-.05-.08-.11-.18-.18-.31l-.1-.22-.06-.13s-.05-.17-.07-.25c-.2-.71-.41-1.41-.63-2.1-.45-1.38-.95-2.73-1.52-4.04-.07-.16-.26-.05-.24.12.24,1.6.47,3.2.71,4.79l.37,2.72c.24.95-.09,2.95,1.31,1.7l1.5-.78,1.2-.56c.71-.35,1.46-.63,2.19-.92.74-.3,1.5-.52,2.25-.79.76-.21,1.52-.45,2.3-.63,3.09-.73,6.27-1.07,9.43-.93,3.17.16,6.27.82,9.21,2.03.64.25,1.19.52,1.79.79l.89.41.45.2.11.05v-.12s.02-.24.02-.24l.1-1.93.03-.99v-.84c.03-1.78-.04-3.56-.22-5.34-.05-.45-.09-.86-.16-1.36-.08-.49-.22-1.11-.65-1.7-.43-.58-1.06-.95-1.61-1.14-.56-.19-1.09-.26-1.58-.31-1.83-.12-3.54-.18-5.32-.21-3.65-.06-7.3.02-10.95.22-2.24.12-4.49.13-6.39,1.23-1.49.87-.49,2.57,1.25,2.31Z"/>
    <path class="cls-1" d="M208.12,117.2c-6.91-.91-13.8-1.74-20.84-2.01-.88-.02-1.77-.03-2.67-.01-.46.01-.96.03-1.51.13-.55.1-1.18.29-1.78.74-.61.44-1.05,1.19-1.21,1.77-.18.6-.23,1.07-.3,1.5-.13.88-.23,1.77-.31,2.66-.08.89-.13,1.78-.16,2.68-.03.57-.02,2.61.06,4.1l.05,1.2c0,.09,0,.22.02.28l.27-.12.55-.23,2.19-.94c.34-.14.77-.35,1.12-.46l.58-.21c.39-.13.76-.3,1.16-.39,2.7-.82,5.66-1.15,8.64-1.07,2.98.07,5.99.6,8.91,1.34,1.47.35,2.91.81,4.33,1.28.36.11.71.24,1.06.37l.53.19c.2.07.28.09.69.26l1.79.78.84.35.4.17c.05,0,.16.1.17.03v-.26c.08-1.36.13-2.63.13-3.69-.03-.76-.07-1.51-.13-2.25-.11-1.49-.29-2.96-.54-4.4-.03-.18-.24-.11-.26.07-.14,1.66-.28,3.32-.43,4.97l-.18,2.06-.06.75s0,.08-.02.08l-.08-.04-.16-.08-.33-.16c-.22-.1-.44-.22-.68-.32l-1.16-.5c-.77-.34-1.57-.61-2.35-.92-1.6-.53-3.21-1.04-4.86-1.38-3.29-.74-6.67-1.09-10.06-.9-1.7.06-3.38.33-5.06.67-.83.2-1.66.41-2.48.66l-1.22.42c-.23.07-.42.15-.62.23l-.31.13-.15.06-.07.03s0-.05,0-.08v-.7s.04-.8.04-.8l.07-1.32c.06-.88.14-1.75.26-2.63l.19-1.3c.07-.42.14-.9.23-1.23.09-.35.2-.55.33-.65.13-.12.35-.22.66-.28.61-.13,1.54-.08,2.41-.07,1.75.05,3.52.18,5.29.34,3.67.34,7.35.78,11.02,1.31,2.26.33,4.43.84,6.57.35,1.7-.39,1.3-2.32-.58-2.58Z"/>
    <path class="cls-1" d="M114.8,52.08c-.83,4.6-2.41,9.04-4.16,13.36-.76,1.87-1.9,3.71-2.73,5.66-.84,1.95-1.36,4.02-.93,6.53.01.08.2.16.23.1,1.96-4.2,4.03-8.24,5.95-12.47,1.03-2.27,2.05-4.56,2.92-6.92.45-1.22.85-2.47,1.23-3.71.24-.76.62-1.5-.03-2.36-.51-.68-2.37-.8-2.48-.19Z"/>
    <path class="cls-1" d="M121.77,49.89c-.82,3.43-2.08,6.74-3.25,10.06-1.01,2.89-3.31,5.65-1.33,9.56.03.06.23.12.24.07.87-3.35,2.15-6.49,3.51-9.66.75-1.69,1.5-3.41,2.25-5.12.38-.89.71-1.8,1.06-2.7.22-.55.58-1.06-.06-1.79-.5-.58-2.33-.89-2.44-.43Z"/>
    <path class="cls-1" d="M140.43,38.69c-.6,2.74-1.87,5.34-3.45,7.74-1.58,2.41-3.46,4.65-5.41,6.87-1.68,1.92-3.77,3.75-5.48,5.93-1.7,2.16-3.02,4.75-2.9,7.65,0,.09.2.17.23.1,2.64-5.02,6.82-9.02,10.76-13.23,2.13-2.29,4.25-4.66,6.02-7.36.91-1.4,1.71-2.9,2.38-4.48.39-.97.93-1.94.33-3.04-.46-.85-2.34-.89-2.49-.17Z"/>
    <path class="cls-1" d="M150.32,39.95c-1.98,3.44-4.48,6.55-7.01,9.6-1.09,1.32-2.51,2.5-3.65,3.89-1.14,1.4-2,3.02-2.04,5.35,0,.07.16.2.19.16,2.5-3.03,5.18-5.8,7.85-8.68,1.44-1.55,2.89-3.1,4.26-4.73.71-.85,1.38-1.72,2.05-2.6.42-.54.95-.99.58-1.94-.29-.74-1.97-1.52-2.24-1.06Z"/>
    <path class="cls-1" d="M155.3,42.09c-1.77,4.23-4.42,8.04-7.32,11.57-1.26,1.52-2.9,2.87-4.31,4.39-1.41,1.53-2.6,3.23-3.12,5.72-.02.08.13.22.18.18,3.36-3.15,6.64-6.24,9.7-9.69,1.64-1.85,3.24-3.77,4.68-5.83.74-1.07,1.43-2.17,2.08-3.3.41-.69.94-1.32.49-2.31-.35-.77-2.14-1.28-2.38-.72Z"/>
    <path class="cls-1" d="M159.93,41.3c-.4.83-.49,1.59-.56,2.25-.06.66-.13,1.19-.2,1.78-.16,1.15-.42,2.28-.74,3.4-.67,2.23-1.62,4.36-2.77,6.38-1,1.75-2.47,3.31-3.79,4.93-1.33,1.64-2.48,3.35-3.18,5.86-.02.08.12.23.17.18,3.68-3.16,6.84-6.71,9.34-10.86,1.32-2.24,2.45-4.63,3.23-7.18.21-.66.35-1.33.52-2.01.12-.66.27-1.4.36-2.01.07-.37.18-.68.2-.93.03-.26-.06-.44-.29-.84-.18-.31-.55-.82-1-1.12-.44-.31-1.06-.31-1.29.15Z"/>
    <path class="cls-1" d="M171.8,35.15c-.73,5.44-1.86,10.8-3.39,15.97-.66,2.23-1.76,4.46-2.63,6.7-.88,2.26-1.53,4.54-1.43,7.34,0,.09.19.17.23.11,2.67-4.74,4.7-9.64,6.38-14.74.9-2.75,1.73-5.52,2.44-8.32.37-1.45.69-2.91,1.01-4.36.2-.89.56-1.74-.12-2.68-.53-.74-2.39-.75-2.49-.02Z"/>
    <path class="cls-1" d="M181.74,40.74c-.77,4.75-2.14,9.37-3.98,13.69-.8,1.87-2.03,3.65-3.07,5.47-1.05,1.83-1.88,3.71-2.15,6.3,0,.08.16.2.2.15,3.12-3.71,5.56-7.75,7.57-12.09,1.07-2.33,2.05-4.72,2.87-7.17.42-1.27.79-2.55,1.14-3.83.22-.79.58-1.54-.08-2.4-.52-.68-2.38-.77-2.48-.13Z"/>
    <path class="cls-1" d="M186.39,44.5c.16,3.52-.36,7.04-.99,10.5-.27,1.5-.91,3.01-1.21,4.58-.3,1.57-.25,3.21.81,5.16.03.06.23.11.24.06.75-3.47,1.71-6.78,2.55-10.21.45-1.85.9-3.71,1.22-5.61.16-.98.28-1.98.38-2.97.07-.61.28-1.22-.54-1.76-.64-.42-2.48-.2-2.46.27Z"/>
    <path class="cls-1" d="M190.95,46.55c.42,3.36.49,6.76.77,10.14.12,1.45,0,3.07.08,4.47.05.71.16,1.37.37,2.08.21.72.52,1.5.86,2.58.02.07.21.15.23.1.74-1.77.79-3.54.78-5.21,0-1.68-.12-3.29-.11-4.95,0-1.78.08-3.57.12-5.36,0-.93,0-1.86.01-2.79,0-.57.17-1.15-.68-1.57-.67-.33-2.48.06-2.43.51Z"/>
    <path class="cls-1" d="M198.59,49.42c-.09,4.05,1.32,7.6,2.23,10.88.41,1.42.44,2.97.6,4.37.15,1.44.55,2.65,1.38,4.77.03.07.22.13.23.08.63-1.83.72-3.67.59-5.44-.13-1.77-.47-3.5-.86-5.21-.42-1.83-.82-3.64-1.03-5.38-.11-.9-.19-1.78-.16-2.62.04-.53.24-.98-.52-1.51-.61-.44-2.45-.51-2.47.06Z"/>
    <path class="cls-1" d="M206.3,58.94c.88,3.64,1.25,7.38,1.67,11.1.36,3.24-.54,6.9,2.87,9.83.05.05.26.01.25-.04-.6-3.64-.78-7.25-.95-10.92-.09-1.98-.15-3.97-.28-5.96-.07-1.03-.19-2.06-.3-3.08-.06-.63.02-1.29-.89-1.68-.72-.31-2.48.26-2.36.75Z"/>
    <path class="cls-1" d="M213.3,70.02c.11,3.02-.52,6.09-.66,9.3-.07,1.36-.34,2.95-.11,4.36.2,1.44.81,2.47,2.17,4.1.04.05.25.07.25.03.1-1.68-.13-3.2-.22-4.69-.1-1.48,0-2.93.22-4.41.23-1.59.61-3.17.92-4.78.16-.84.28-1.69.4-2.55.07-.53.3-1.06-.51-1.55-.64-.38-2.48-.2-2.46.19Z"/>
  </g>
  <g>
    <path class="cls-1" d="M85.34,179.45c-.89,2.28-1.94,4.45-3.47,6.12-1.52,1.67-3.55,2.87-5.63,2.98-2.08.12-4.2-.9-5.81-2.45-1.62-1.54-2.7-3.65-3.44-5.92-.74-2.27-1.18-4.73-1.58-7.18-.39-2.46-.66-4.93-.84-7.41-.17-2.48-.23-4.97-.18-7.45.05-2.49.2-4.95.57-7.36.63-4.14,2.1-8.28,4.8-11.53,1.34-1.62,2.95-2.99,4.76-3.94,1.8-.96,3.81-1.48,5.64-1.27,1.82.21,3.56,1.24,5.04,2.66,1.49,1.41,2.74,3.19,3.84,5.02,2.16,3.69,3.55,7.79,4.19,12.02.04.27.25.14.25-.13.08-5.03-1.25-10.02-3.77-14.31-1.25-2.13-2.81-4.17-4.88-5.66-1.03-.74-2.21-1.33-3.47-1.63-1.26-.32-2.59-.32-3.84-.11-2.53.44-4.82,1.65-6.77,3.22-1.95,1.59-3.54,3.57-4.77,5.74-2.48,4.38-3.41,9.39-3.76,14.29-.35,5.29-.22,10.61.38,15.88.31,2.64.7,5.25,1.3,7.89.62,2.63,1.55,5.32,3.29,7.67,1.81,2.38,4.46,4.33,7.71,4.76,1.61.2,3.29-.06,4.75-.67,1.48-.6,2.76-1.51,3.87-2.56,2.76-2.65,4.29-5.99,4.59-9.07.22-2.48-1.86-2.08-2.8.41Z"/>
    <path class="cls-1" d="M214.58,197.29c.52.35,1.1.98,1.87,1.62.39.32.89.64,1.39.87.51.22,1.05.37,1.58.46,2.13.31,4.23-.35,5.85-1.5,1.62-1.14,2.81-2.62,3.84-4.06,1.01-1.45,1.98-2.93,2.84-4.47,1.74-3.07,3.17-6.32,4.23-9.7,1.08-3.37,1.8-6.85,2.13-10.37.29-3.04.41-6.19.16-9.42-.27-3.22-1.08-6.74-3.29-9.58-1.08-1.4-2.48-2.6-4.11-3.35-.81-.38-1.68-.63-2.57-.77-.89-.11-1.77-.08-2.61.06-3.36.58-5.99,3.15-6.43,5.82-.04.16.19.18.26.04,1.3-2.62,4.42-4.34,7.44-4.14,1.51.08,2.97.69,4.2,1.62,1.24.93,2.25,2.18,3,3.56,1.5,2.79,1.94,6.07,2.03,9.3.09,3.25-.16,6.51-.73,9.72-1.28,6.9-4.06,13.48-8.09,19.11-1.03,1.48-2.11,2.87-3.35,3.86-.62.49-1.28.89-1.95,1.11-.68.23-1.4.33-2.06.26-.4-.04-.77-.16-1.09-.31-.32-.15-.57-.34-.95-.65-.36-.29-.79-.65-1.32-.98-.51-.33-1.19-.64-1.95-.69-.61-.03-1,.22-1.14.49-.15.27-.1.55,0,.82.1.26.23.51.33.72.11.21.22.37.49.56Z"/>
    <path class="cls-1" d="M211.55,200.3c-1.26,9.74-2.52,19.48-3.78,29.23-.65,4.86-1.2,9.72-3.35,13.78-2.12,4.05-5.98,6.99-10.24,8.98-4.28,2.03-9.02,3.1-13.8,4.27-2.39.58-4.81,1.19-7.21,1.95-2.41.77-4.72,1.7-6.99,2.57-4.52,1.74-9.14,3.29-13.6,2.66-2.2-.28-4.32-1.21-6.5-2.27-2.17-1.09-4.51-2.18-6.84-3.06-8.06-3.12-16.73-4.89-24.7-8.32-3.97-1.72-7.77-3.86-11-6.64-3.24-2.76-5.79-6.18-7.34-10.11-1.57-3.93-2.3-8.23-2.77-12.54-.45-4.32-.71-8.72-1.12-13.01-.77-8.6-1.73-16.95-2.94-24.85-.08-.5-.27-.22-.24.29.54,9.43,1.08,18.84,1.62,28.24.27,4.7.42,9.43,1.15,14.14.73,4.68,2.07,9.41,4.74,13.46,2.64,4.05,6.37,7.27,10.45,9.73,4.09,2.48,8.53,4.28,13.03,5.77,4.5,1.5,9.06,2.73,13.52,4.21,2.23.74,4.44,1.54,6.59,2.45,2.16.9,4.2,2,6.4,3.03,1.18.54,2.41,1.04,3.7,1.39,1.3.35,2.64.53,3.98.57,2.68.07,5.31-.45,7.8-1.18,5-1.49,9.58-3.72,14.44-4.92,4.86-1.31,9.92-2.19,14.87-3.88,4.92-1.69,9.8-4.26,13.33-8.5,1.81-2.19,3.09-4.81,3.89-7.46.81-2.66,1.25-5.35,1.63-7.98l2.18-15.71c.9-6.44,1.94-12.73,1.89-18.63-.04-4.66-2.12-2.91-2.79,2.36Z"/>
    <path class="cls-1" d="M107.15,62.19c-1.17,1.71-2.14,3.55-3.15,5.36-.5.91-.91,1.86-1.37,2.78-.46.93-.9,1.86-1.28,2.83-1.68,3.78-2.91,7.73-4.04,11.69-1.08,3.98-1.91,8.01-2.6,12.06-.63,4.05-1.18,8.12-1.52,12.2-.65,7.02-1.28,14.53-1.48,21.92-.21,7.39,0,14.69,1.37,21.33.04.21.25.11.25-.1.11-7.81.36-15.59.71-23.37.35-7.78.81-15.55,1.79-23.29.51-4.17,1.23-8.3,2.08-12.39.91-4.08,2-8.1,3.34-12.03,1.44-4.05,3.11-8.01,5.13-11.78.66-1.14,1.36-2.23,1.95-3.35.61-1.11,1.19-2.19,1.5-3.42.5-1.94-1.43-2.34-2.66-.43Z"/>
    <path class="cls-1" d="M216.68,80.83c2.13,13.16,2.85,26.53,2.74,39.87-.05,5.75-.6,11.88-.96,17.93-.36,6.05-.52,12.02.32,17.65.03.18.24.12.26-.06,1.44-12.85,2.46-25.64,2.67-38.6.11-6.98.03-13.97-.38-20.95-.22-3.62-.52-7.24-.92-10.84-.21-2.22-.34-4.42-1.43-6.28-.87-1.46-2.58-.49-2.3,1.28Z"/>
    <path class="cls-1" d="M186.49,143.26c.6-.33,1.59-.22,2.44.24.86.46,1.49,1.21,1.9,2.14.83,1.85.52,4.21-.76,5.49-.55.56-1.36.93-2.2,1.05-.84.14-1.68.03-2.4-.2-.71-.24-1.41-.62-2.14-1.25-.73-.62-1.5-1.44-2.18-2.7-.04-.08-.25-.07-.25,0-.06,1.45.39,2.83,1.17,3.95.77,1.12,1.96,1.97,3.28,2.29,2.59.67,5.56-.28,7.18-2.63,1.66-2.52,1.67-5.99-.11-8.66-.97-1.42-2.43-2.44-4.23-2.84-.55-.12-1.16-.19-1.75-.05-.58.12-1.14.51-1.37,1.11-.18.5.15,1.02.53,1.42.39.4.73.69.89.62Z"/>
    <path class="cls-1" d="M127.99,143.26c.6-.33,1.59-.22,2.44.24.86.46,1.49,1.21,1.9,2.14.83,1.85.52,4.21-.76,5.49-.55.56-1.36.93-2.2,1.05-.84.14-1.68.03-2.4-.2-.71-.24-1.41-.62-2.14-1.25-.73-.62-1.5-1.44-2.18-2.7-.04-.08-.25-.07-.25,0-.06,1.45.39,2.83,1.17,3.95.77,1.12,1.96,1.97,3.28,2.29,2.59.67,5.56-.28,7.18-2.63,1.66-2.52,1.67-5.99-.11-8.66-.97-1.42-2.43-2.44-4.23-2.84-.55-.12-1.16-.19-1.75-.05-.58.12-1.14.51-1.37,1.11-.18.5.15,1.02.53,1.42.39.4.73.69.89.62Z"/>
    <path class="cls-1" d="M165.58,155.62c-.01,4.85-.11,9.7-.23,14.55-.13,4.85-.13,9.67-1.46,14.03-.56,1.87-1.49,3.66-2.71,5.27-.6.79-1.3,1.58-1.99,2.25-.33.32-.65.56-.92.7-.28.14-.45.18-.71.18-.53,0-1.4-.38-2.36-.88-.98-.49-1.96-.95-2.96-1.36-2-.82-4.05-1.44-6.15-1.77-.13-.02-.18.19-.07.25,2.04,1.13,4.07,2.28,6.07,3.46,1.02.59,1.97,1.18,3.03,1.78.54.29,1.13.55,1.79.69.66.14,1.41.09,2.04-.18,1.29-.54,2.09-1.51,2.88-2.38.79-.9,1.5-1.87,2.13-2.9,1.26-2.05,2.13-4.35,2.68-6.68.6-2.52.87-5.09,1.06-7.63.17-2.54.3-5.04.44-7.56l.38-7.82c.08-1.6.32-3.17-.47-4.63-.62-1.15-2.47-.68-2.47.63Z"/>
    <path class="cls-1" d="M183.82,211.43c-.87,1.14-3.77,1.61-6.06,2.23-2.4.58-4.84,1.13-7.29,1.83-2.44.7-4.89,1.57-7.21,2.81-1.19.62-2.23,1.38-3,1.57-.4.1-.64.1-1.02-.01-.38-.11-.85-.37-1.41-.67-3.81-2.08-8.04-4.34-12.73-5.27-2.33-.46-4.77-.55-7.05-.07-2.27.47-4.35,1.53-5.81,3.06-.09.09.05.25.16.21,2.04-.98,4.31-1.48,6.62-1.55,2.31-.08,4.63.26,6.89.86,2.26.6,4.46,1.45,6.59,2.46,1.06.51,2.11,1.05,3.15,1.62l1.55.88c.54.3,1.14.62,1.88.77.81.17,1.66.03,2.35-.23.7-.26,1.3-.61,1.86-.92,1.1-.6,2.21-1.13,3.38-1.58,2.33-.89,4.77-1.5,7.26-2.04,2.58-.56,5.21-1.06,7.86-1.71.81-.18,1.78-.41,2.64-.92.43-.26.85-.59,1.2-1.03.34-.44.59-1.01.61-1.6.02-.46-.18-.76-.43-.91-.24-.15-.53-.16-.81-.14-.28.02-.53.09-.74.13-.21.05-.35.08-.45.22Z"/>
    <path class="cls-1" d="M189.16,216.89c-.43-2.25-1.1-4.48-2.41-6.38-.56-.8-1.04-1.82-1.91-2.46-.85-.63-2.09-.86-3.62.16-.05.03-.14.21-.12.22,1.84.53,3.25,2.04,4.02,3.75.43.93.65,1.93.78,2.89.07.5.14.99.15,1.48.02.31-.17.6.68.78.67.15,2.49-.12,2.42-.45Z"/>
    <path class="cls-1" d="M160.91,230.78c-.1.8-.83,1.54-1.76,1.91-.46.19-.97.3-1.46.32-.5.02-.94-.03-1.47-.17-.89-.23-1.64-.95-2.53-1.47-.91-.53-2.03-.88-4-.58-.06,0-.2.16-.17.18,1.05.81,2.05,1.65,3.14,2.41,1.08.76,2.28,1.44,3.66,1.81,1.54.39,3.23.3,4.79-.45.8-.39,1.56-1,2.15-1.82.34-.49.82-1.1.1-1.79-.55-.5-2.43-.5-2.44-.35Z"/>
    <path class="cls-1" d="M117.51,118.93c6.55-.88,13.28-1.13,19.92-1,.84.03,1.68.03,2.17.17.25.07.4.16.46.23.06.06.12.17.19.46.06.27.11.7.17,1.1l.14,1.21c.08.81.14,1.62.18,2.44l.04,1.22v.85s0,.16,0,.16c0,.05.01.14-.06.08l-.15-.07s-.06-.03-.06-.03l-.54-.2c-.83-.33-1.68-.57-2.53-.8-5.89-1.62-12.64-1.53-18.73.37-1.52.47-2.99,1.07-4.41,1.74l-1.04.55-.51.28c-.07.05-.06.06-.11.1-.07.07-.16.16-.27.26l-.19.16s-.04.03-.05.04l-.02-.02-.04-.05c-.05-.08-.11-.18-.18-.31l-.1-.22-.06-.13s-.05-.17-.07-.25c-.2-.71-.41-1.41-.63-2.1-.45-1.38-.95-2.73-1.52-4.04-.07-.16-.26-.05-.24.12.24,1.6.47,3.2.71,4.79l.37,2.72c.24.95-.09,2.95,1.31,1.7l1.5-.78,1.2-.56c.71-.35,1.46-.63,2.19-.92.74-.3,1.5-.52,2.25-.79.76-.21,1.52-.45,2.3-.63,3.09-.73,6.27-1.07,9.43-.93,3.17.16,6.27.82,9.21,2.03.64.25,1.19.52,1.79.79l.89.41.45.2.11.05v-.12s.02-.24.02-.24l.1-1.93.03-.99v-.84c.03-1.78-.04-3.56-.22-5.34-.05-.45-.09-.86-.16-1.36-.08-.49-.22-1.11-.65-1.7-.43-.58-1.06-.95-1.61-1.14-.56-.19-1.09-.26-1.58-.31-1.83-.12-3.54-.18-5.32-.21-3.65-.06-7.3.02-10.95.22-2.24.12-4.49.13-6.39,1.23-1.49.87-.49,2.57,1.25,2.31Z"/>
    <path class="cls-1" d="M208.12,117.2c-6.91-.91-13.8-1.74-20.84-2.01-.88-.02-1.77-.03-2.67-.01-.46.01-.96.03-1.51.13-.55.1-1.18.29-1.78.74-.61.44-1.05,1.19-1.21,1.77-.18.6-.23,1.07-.3,1.5-.13.88-.23,1.77-.31,2.66-.08.89-.13,1.78-.16,2.68-.03.57-.02,2.61.06,4.1l.05,1.2c0,.09,0,.22.02.28l.27-.12.55-.23,2.19-.94c.34-.14.77-.35,1.12-.46l.58-.21c.39-.13.76-.3,1.16-.39,2.7-.82,5.66-1.15,8.64-1.07,2.98.07,5.99.6,8.91,1.34,1.47.35,2.91.81,4.33,1.28.36.11.71.24,1.06.37l.53.19c.2.07.28.09.69.26l1.79.78.84.35.4.17c.05,0,.16.1.17.03v-.26c.08-1.36.13-2.63.13-3.69-.03-.76-.07-1.51-.13-2.25-.11-1.49-.29-2.96-.54-4.4-.03-.18-.24-.11-.26.07-.14,1.66-.28,3.32-.43,4.97l-.18,2.06-.06.75s0,.08-.02.08l-.08-.04-.16-.08-.33-.16c-.22-.1-.44-.22-.68-.32l-1.16-.5c-.77-.34-1.57-.61-2.35-.92-1.6-.53-3.21-1.04-4.86-1.38-3.29-.74-6.67-1.09-10.06-.9-1.7.06-3.38.33-5.06.67-.83.2-1.66.41-2.48.66l-1.22.42c-.23.07-.42.15-.62.23l-.31.13-.15.06-.07.03s0-.05,0-.08v-.7s.04-.8.04-.8l.07-1.32c.06-.88.14-1.75.26-2.63l.19-1.3c.07-.42.14-.9.23-1.23.09-.35.2-.55.33-.65.13-.12.35-.22.66-.28.61-.13,1.54-.08,2.41-.07,1.75.05,3.52.18,5.29.34,3.67.34,7.35.78,11.02,1.31,2.26.33,4.43.84,6.57.35,1.7-.39,1.3-2.32-.58-2.58Z"/>
    <path class="cls-1" d="M114.8,52.08c-.83,4.6-2.41,9.04-4.16,13.36-.76,1.87-1.9,3.71-2.73,5.66-.84,1.95-1.36,4.02-.93,6.53.01.08.2.16.23.1,1.96-4.2,4.03-8.24,5.95-12.47,1.03-2.27,2.05-4.56,2.92-6.92.45-1.22.85-2.47,1.23-3.71.24-.76.62-1.5-.03-2.36-.51-.68-2.37-.8-2.48-.19Z"/>
    <path class="cls-1" d="M121.77,49.89c-.82,3.43-2.08,6.74-3.25,10.06-1.01,2.89-3.31,5.65-1.33,9.56.03.06.23.12.24.07.87-3.35,2.15-6.49,3.51-9.66.75-1.69,1.5-3.41,2.25-5.12.38-.89.71-1.8,1.06-2.7.22-.55.58-1.06-.06-1.79-.5-.58-2.33-.89-2.44-.43Z"/>
    <path class="cls-1" d="M140.43,38.69c-.6,2.74-1.87,5.34-3.45,7.74-1.58,2.41-3.46,4.65-5.41,6.87-1.68,1.92-3.77,3.75-5.48,5.93-1.7,2.16-3.02,4.75-2.9,7.65,0,.09.2.17.23.1,2.64-5.02,6.82-9.02,10.76-13.23,2.13-2.29,4.25-4.66,6.02-7.36.91-1.4,1.71-2.9,2.38-4.48.39-.97.93-1.94.33-3.04-.46-.85-2.34-.89-2.49-.17Z"/>
    <path class="cls-1" d="M150.32,39.95c-1.98,3.44-4.48,6.55-7.01,9.6-1.09,1.32-2.51,2.5-3.65,3.89-1.14,1.4-2,3.02-2.04,5.35,0,.07.16.2.19.16,2.5-3.03,5.18-5.8,7.85-8.68,1.44-1.55,2.89-3.1,4.26-4.73.71-.85,1.38-1.72,2.05-2.6.42-.54.95-.99.58-1.94-.29-.74-1.97-1.52-2.24-1.06Z"/>
    <path class="cls-1" d="M155.3,42.09c-1.77,4.23-4.42,8.04-7.32,11.57-1.26,1.52-2.9,2.87-4.31,4.39-1.41,1.53-2.6,3.23-3.12,5.72-.02.08.13.22.18.18,3.36-3.15,6.64-6.24,9.7-9.69,1.64-1.85,3.24-3.77,4.68-5.83.74-1.07,1.43-2.17,2.08-3.3.41-.69.94-1.32.49-2.31-.35-.77-2.14-1.28-2.38-.72Z"/>
    <path class="cls-1" d="M159.93,41.3c-.4.83-.49,1.59-.56,2.25-.06.66-.13,1.19-.2,1.78-.16,1.15-.42,2.28-.74,3.4-.67,2.23-1.62,4.36-2.77,6.38-1,1.75-2.47,3.31-3.79,4.93-1.33,1.64-2.48,3.35-3.18,5.86-.02.08.12.23.17.18,3.68-3.16,6.84-6.71,9.34-10.86,1.32-2.24,2.45-4.63,3.23-7.18.21-.66.35-1.33.52-2.01.12-.66.27-1.4.36-2.01.07-.37.18-.68.2-.93.03-.26-.06-.44-.29-.84-.18-.31-.55-.82-1-1.12-.44-.31-1.06-.31-1.29.15Z"/>
    <path class="cls-1" d="M171.8,35.15c-.73,5.44-1.86,10.8-3.39,15.97-.66,2.23-1.76,4.46-2.63,6.7-.88,2.26-1.53,4.54-1.43,7.34,0,.09.19.17.23.11,2.67-4.74,4.7-9.64,6.38-14.74.9-2.75,1.73-5.52,2.44-8.32.37-1.45.69-2.91,1.01-4.36.2-.89.56-1.74-.12-2.68-.53-.74-2.39-.75-2.49-.02Z"/>
    <path class="cls-1" d="M181.74,40.74c-.77,4.75-2.14,9.37-3.98,13.69-.8,1.87-2.03,3.65-3.07,5.47-1.05,1.83-1.88,3.71-2.15,6.3,0,.08.16.2.2.15,3.12-3.71,5.56-7.75,7.57-12.09,1.07-2.33,2.05-4.72,2.87-7.17.42-1.27.79-2.55,1.14-3.83.22-.79.58-1.54-.08-2.4-.52-.68-2.38-.77-2.48-.13Z"/>
    <path class="cls-1" d="M186.39,44.5c.16,3.52-.36,7.04-.99,10.5-.27,1.5-.91,3.01-1.21,4.58-.3,1.57-.25,3.21.81,5.16.03.06.23.11.24.06.75-3.47,1.71-6.78,2.55-10.21.45-1.85.9-3.71,1.22-5.61.16-.98.28-1.98.38-2.97.07-.61.28-1.22-.54-1.76-.64-.42-2.48-.2-2.46.27Z"/>
    <path class="cls-1" d="M190.95,46.55c.42,3.36.49,6.76.77,10.14.12,1.45,0,3.07.08,4.47.05.71.16,1.37.37,2.08.21.72.52,1.5.86,2.58.02.07.21.15.23.1.74-1.77.79-3.54.78-5.21,0-1.68-.12-3.29-.11-4.95,0-1.78.08-3.57.12-5.36,0-.93,0-1.86.01-2.79,0-.57.17-1.15-.68-1.57-.67-.33-2.48.06-2.43.51Z"/>
    <path class="cls-1" d="M198.59,49.42c-.09,4.05,1.32,7.6,2.23,10.88.41,1.42.44,2.97.6,4.37.15,1.44.55,2.65,1.38,4.77.03.07.22.13.23.08.63-1.83.72-3.67.59-5.44-.13-1.77-.47-3.5-.86-5.21-.42-1.83-.82-3.64-1.03-5.38-.11-.9-.19-1.78-.16-2.62.04-.53.24-.98-.52-1.51-.61-.44-2.45-.51-2.47.06Z"/>
    <path class="cls-1" d="M206.3,58.94c.88,3.64,1.25,7.38,1.67,11.1.36,3.24-.54,6.9,2.87,9.83.05.05.26.01.25-.04-.6-3.64-.78-7.25-.95-10.92-.09-1.98-.15-3.97-.28-5.96-.07-1.03-.19-2.06-.3-3.08-.06-.63.02-1.29-.89-1.68-.72-.31-2.48.26-2.36.75Z"/>
    <path class="cls-1" d="M213.3,70.02c.11,3.02-.52,6.09-.66,9.3-.07,1.36-.34,2.95-.11,4.36.2,1.44.81,2.47,2.17,4.1.04.05.25.07.25.03.1-1.68-.13-3.2-.22-4.69-.1-1.48,0-2.93.22-4.41.23-1.59.61-3.17.92-4.78.16-.84.28-1.69.4-2.55.07-.53.3-1.06-.51-1.55-.64-.38-2.48-.2-2.46.19Z"/>
  </g>
</svg>