<?xml version="1.0" encoding="UTF-8"?>
<svg id="Calque_2" data-name="Calque 2" xmlns="http://www.w3.org/2000/svg" viewBox="0 0 300 300">
  <defs>
    <style>
      .cls-1 {
        fill: #1d1d1d;
      }

      .cls-2 {
        fill: #1db4b8;
      }
    </style>
  </defs>
  <path class="cls-2" d="M171.03,272.19c-.63-4.74.68-9.45.37-14.23-.13-2.03,1.49-4.43.44-6.51-1.04-2.05-4.76-3.76-15.39-3.5-.34,0-1.59.27-1.55.32,3.65,3.36,3.57,7.63,2.15,11.7-.76,2.21-2.16,4.37-3.37,6.43-.63,1.07-1.03,2.13-1.62,3.16-.36.65-1.76,1.17,3.36,2.06,4.04.72,15.69,1.24,15.61.57Z"/>
  <path class="cls-2" d="M198.2,231.44c3.27,3.07,4.88,7.37,7.73,10.8,1.21,1.46,1.18,4.24,3.13,5.23,1.93.97,5.83.14,14.47-6.04.27-.2,1.17-1.12,1.11-1.13-4.82-.67-7.07-4.06-8.26-8.09-.65-2.18-.79-4.71-1.06-7.05-.14-1.21-.45-2.29-.62-3.45-.11-.72.66-2.01-3.89.49-3.6,1.96-13.04,8.81-12.59,9.24Z"/>
  <path class="cls-2" d="M149.62,83.84c.77,6.7-.41,13.43.03,20.18.19,2.88-1.39,6.17-.28,9.15,1.1,2.96,4.87,5.62,15.63,6.62.34.03,1.61-.2,1.55-.27-3.82-5.56-3.87-11.8-2.59-17.96.69-3.33,2.02-6.64,3.16-9.87.59-1.68.97-3.34,1.53-5,.34-1.02,1.73-1.98-3.41-3-4.06-.82-15.72-.77-15.62.15Z"/>
  <path class="cls-2" d="M171.03,272.19c-.63-4.74.68-9.45.37-14.23-.13-2.03,1.49-4.43.44-6.51-1.04-2.05-4.76-3.76-15.39-3.5-.34,0-1.59.27-1.55.32,3.65,3.36,3.57,7.63,2.15,11.7-.76,2.21-2.16,4.37-3.37,6.43-.63,1.07-1.03,2.13-1.62,3.16-.36.65-1.76,1.17,3.36,2.06,4.04.72,15.69,1.24,15.61.57Z"/>
  <path class="cls-2" d="M198.2,231.44c3.27,3.07,4.88,7.37,7.73,10.8,1.21,1.46,1.18,4.24,3.13,5.23,1.93.97,5.83.14,14.47-6.04.27-.2,1.17-1.12,1.11-1.13-4.82-.67-7.07-4.06-8.26-8.09-.65-2.18-.79-4.71-1.06-7.05-.14-1.21-.45-2.29-.62-3.45-.11-.72.66-2.01-3.89.49-3.6,1.96-13.04,8.81-12.59,9.24Z"/>
  <path class="cls-2" d="M96.3,221.22c-1.54,3.73-5.03,6.02-7.56,8.96-1.1,1.28-3.67,1.4-4.28,3.21-.62,1.83.71,5.36,6.98,13.95.2.27,1.13,1.15,1.15,1.08.79-5.04,3.88-7.55,7.83-9.68,2.12-1.14,4.67-1.99,7.01-3.09,1.21-.57,2.24-1.29,3.38-1.94.7-.39,2.25-.21-1.59-3.71-3.04-2.76-12.72-9.26-12.92-8.77Z"/>
  <path class="cls-2" d="M149.62,83.84c.77,6.7-.41,13.43.03,20.18.19,2.88-1.39,6.17-.28,9.15,1.1,2.96,4.87,5.62,15.63,6.62.34.03,1.61-.2,1.55-.27-3.82-5.56-3.87-11.8-2.59-17.96.69-3.33,2.02-6.64,3.16-9.87.59-1.68.97-3.34,1.53-5,.34-1.02,1.73-1.98-3.41-3-4.06-.82-15.72-.77-15.62.15Z"/>
  <g>
    <path class="cls-1" d="M172.64,249.74c.62,1.62-.08,3.56-1.14,4.97-.47.64-1.27.96-1.83,1.47-.6.51-.91,1.31-1.68,3.25-.02.06.02.28.05.27,2.39-.83,4.25-2.14,5.8-3.97.82-.99,1.54-2.15,1.93-3.51.19-.7.29-1.45.27-2.22.02-.46.1-1.02-.86-1.15-.75-.08-2.62.73-2.56.91Z"/>
    <path class="cls-1" d="M81.54,227.75c.62-1.12,1.69-1.9,2.68-2.67.43-.34,1.08-.4,1.49-.81.42-.41.59-1.17.37-3.07,0-.06-.11-.26-.12-.24-1.09,1.07-2.27,1.69-3.57,2.38-.69.37-1.43.73-2.13,1.18-.36.24-.68.51-1.02.78-.21.16-.55.24.04.95.47.55,2.18,1.65,2.25,1.5Z"/>
    <path class="cls-1" d="M89.17,246.93c.26-1.21,1.08-2.2,1.84-3.13.33-.41.94-.6,1.24-1.06.31-.47.31-1.23-.24-3.07-.02-.06-.15-.24-.16-.22-.88,1.24-1.9,2.08-3.01,3.06-.59.52-1.22,1.05-1.78,1.68-.29.32-.53.68-.77,1.04-.15.22-.47.4.3.9.61.4,2.56.95,2.59.8Z"/>
    <path class="cls-1" d="M97.78,263.9c-.02.06-.05.14-.07.25-.02.1-.03.18-.03.33,0,.25.08.62.28.9.49.62.86.61,1.06.67.55.1,1.06-.12,1.28-.29.47-.35.57-.63.67-.81l.29-.59c.2-.39.42-.77.64-1.15.44-.76.9-1.51,1.3-2.29.7-1.34,2.63-2.28.05-5.21-.04-.05-.24-.14-.25-.12-.32,1.73-1.18,3.17-2.21,4.53-.56.73-1.2,1.42-1.8,2.14-.31.37-.59.76-.89,1.13l-.04.04-.02.02.72.37s.11.06.19.12c.16.11.31.27.35.36.02.05.02.07.02.07h0s0-.02,0-.02h0s0,0,0,0h0s-.03.07-.03.07c0,.03-.03.05-.03.05,0,0,.08,0,.13.03.05.03.03.03-.03-.05-.04-.06-.04-.11-.04-.1,0,.01-.05.02-.08.03-.2-.01.32.03.57-.05.13-.07.32-.08.3-.43.02-.11-.13-.42-.42-.57-.11-.07-.25-.12-.41-.15-.17-.02-.2-.03-.33-.02-.38.03-.57.1-.75.2-.17.11-.32.23-.43.54Z"/>
    <path class="cls-1" d="M124.78,271.55c.07-.13.36-.3.46-.33.12-.04.05,0-.09,0-.06,0-.15-.01-.21-.03h-.03s-.01-.01-.01-.01c-.92-.33,1.25.44,1.03.36h0s0,0,0,0h0s.01-.04.01-.04l.02-.07.09-.26c.12-.34.26-.68.4-1.02.28-.68.58-1.35.83-2.04.21-.59.74-1.12.84-1.8.02-.17.02-.35-.02-.53-.02-.09-.05-.19-.09-.29l-.03-.08-.02-.04v-.02s-.01,0-.01,0c-1.4-.5-.39-.14-.7-.25h0s0,0,0,0h.01c.07.03.14.07.2.1.05.03.11.07.13.09,0,0-.07-.07-.1-.11-.08-.1-.15-.22-.2-.38-.05-.15-.1-.34.02-.53.12-.22.57-.17.84,0,.08.05.28-.05.24-.13-.08-.16-.23-.4-.51-.55-.27-.15-.56-.16-.74-.12-.35.08-.49.22-.63.34-.24.25-.39.47-.51.84-.06.35-.16.69-.27,1.02-.23.66-.56,1.29-.93,1.91-.4.66-.89,1.29-1.34,1.94-.12.17-.22.34-.33.51l-.16.26-.08.13s0,0-.03.05l-.06.17c-.04.13-.05.21-.07.32-.07.49-.07.84.13,1.23.11.19.26.39.6.6.1.06.2.11.31.15.15.06.29.1.45.11.38.06.8-.06,1.03-.29.33-.36.13-.63-.04-.85-.1-.11-.22-.2-.34-.3-.11-.08-.3-.23-.23-.18.02,0,.07.07.1.1.04.06,0,.06.04,0Z"/>
    <path class="cls-1" d="M149.19,274.22c-.3-1.15-.05-2.35.11-3.5.07-.5.49-.96.48-1.49,0-.54-.42-1.17-1.93-2.33-.05-.04-.26-.11-.26-.09.01,1.43-.38,2.6-.82,3.89-.24.69-.53,1.4-.72,2.15-.1.39-.15.78-.21,1.18-.04.24-.24.52.67.61.72.07,2.71-.28,2.68-.43Z"/>
    <path class="cls-1" d="M188.77,268.32c0,.23,0,.47,0,.7l2.87-.44c-.5-1.16-.8-2.4-1.26-3.58-.47-1.2.19-3.04-3.64-2.84-.06,0-.26.09-.25.11,1,1.15,1.43,2.52,1.69,3.97.14.78.19,1.59.28,2.39.04.38.12.75.18,1.13l3.38-.51.03-.09c.08-.24.33-.47-.55-.75-.69-.23-2.71-.29-2.71-.09Z"/>
    <path class="cls-1" d="M206.87,255.65c-1.29-.41-2.42-1.18-3.64-1.74-1.05-.48-1.73-2.19-4.22.68-.04.05-.12.25-.1.25,1.39.06,2.52.68,3.58,1.48.57.43,1.1.95,1.65,1.42.29.25.59.46.88.69.18.14.28.45.83-.28.43-.58,1.2-2.45,1.03-2.51Z"/>
    <path class="cls-1" d="M218.58,243.64c-1.4-.75-2.76-1.61-4.32-2.02-.66-.17-1.34-.62-2.1-.56-.74.06-1.54.64-1.99,2.49-.01.06,0,.28.02.27,1.23-.58,2.61-.32,3.74.3.62.34,1.15.82,1.64,1.28.25.24.51.46.74.71.15.15.16.45.82-.18.53-.5,1.64-2.19,1.43-2.3Z"/>
    <path class="cls-1" d="M225.08,223.38c-1.28-.1-2.53-.47-3.83-.51-.55-.01-1.16-.33-1.75-.16-.58.17-1.13.82-1.35,2.68,0,.06.03.28.05.27,1.02-.66,2.18-.61,3.27-.29.59.18,1.15.48,1.7.75.28.14.56.25.84.4.17.09.29.35.63-.49.27-.67.64-2.65.46-2.67Z"/>
    <g>
      <path class="cls-1" d="M231.83,144.89l.48,4.92.24,2.46c.04.82.05,1.65.07,2.48l.12,4.96c-.03,1.65-.11,3.31-.16,4.96-.04,3.31-.46,6.61-.72,9.92-.15,1.65-.42,3.29-.63,4.94-.24,1.64-.4,3.3-.72,4.93-2.19,13.11-5.58,26.05-9.91,38.64-1.1,3.14-2.23,6.27-3.46,9.36-1.21,3.08-2.53,6.17-3.95,9.08-2.92,5.69-7.58,10.45-12.63,14.63-1.26,1.04-2.58,2.08-3.88,3.05-1.28.94-2.65,1.8-4.06,2.58-2.84,1.56-5.87,2.84-8.97,4.09-6.21,2.47-12.37,5.04-18.75,6.06-2.74.44-5.51.58-8.31.31-2.8-.25-5.63-.82-8.49-1.49-5.77-1.43-11.6-2.88-17.47-4.34-5.86-1.47-11.85-2.91-17.68-4.41-2.88-.78-5.68-1.69-8.2-3.01-1.27-.67-2.41-1.41-3.55-2.31-1.15-.9-2.27-1.87-3.34-2.87-2.14-2.02-4.15-4.19-5.85-6.52-.85-1.17-1.62-2.37-2.24-3.61-.6-1.3-1.23-2.62-1.74-4-2.16-5.48-3.76-11.21-5.3-16.86-3.04-11.32-5.57-22.49-8.37-33-.18-.66-.33-.27-.2.42,2.38,12.64,4.66,25.32,7.88,37.79.82,3.12,1.68,6.22,2.72,9.29,1.03,3.07,2.12,6.11,3.76,9,1.67,2.83,3.77,5.35,6.03,7.68,1.13,1.16,2.32,2.28,3.55,3.34,1.23,1.05,2.5,2.09,3.91,2.96,2.81,1.74,5.91,2.87,9.02,3.77,3.12.89,6.25,1.59,9.36,2.37,6.24,1.53,12.48,3.07,18.72,4.6,3.13.76,6.23,1.56,9.39,2.29,3.15.72,6.38,1.31,9.67,1.45,6.63.3,13.1-1.52,19.17-3.73,3.29-1.22,6.5-2.49,9.75-3.8,3.23-1.34,6.46-2.82,9.46-4.75,1.52-.97,2.91-2.06,4.28-3.13,1.38-1.09,2.73-2.21,4.05-3.38,2.62-2.35,5.13-4.88,7.29-7.72,1.08-1.42,2.1-2.9,2.97-4.48.89-1.59,1.57-3.19,2.33-4.78,1.41-3.21,2.73-6.45,3.97-9.72,2.49-6.53,4.66-13.17,6.58-19.89,1.04-3.47,1.88-7,2.78-10.51l1.17-5.31c.19-.89.4-1.77.57-2.66l.49-2.68c1.4-7.13,2.24-14.37,2.76-21.63.64-8.92.39-17.91-1.92-25.72-1.8-6.14-3.28-2.89-2.04,4.05Z"/>
      <path class="cls-1" d="M237.42,124.44c1.57.62,3.1,1.45,4.36,2.68,1.25,1.22,2.38,2.63,3.25,4.23,1.82,3.15,2.89,6.78,3.46,10.43.18.91.21,1.84.33,2.76.03.92.12,1.85.08,2.77-.01.46-.01.92-.04,1.38l-.12,1.36c-.11.91-.24,1.85-.41,2.78-.64,3.71-1.65,7.4-2.68,11.12-.88,3.21-1.91,6.53-2.72,10.02-.41,1.74-.74,3.53-.99,5.33-.24,1.8-.37,3.56-.57,5.24-.19,1.68-.44,3.29-.88,4.8-.46,1.52-1.02,2.86-2,4.03-.95,1.18-2.17,2.2-3.61,2.85-1.42.67-3.16.92-4.93.35-.23-.06-.25.18-.04.29.95.55,2.04.84,3.11.86,1.07.02,2.1-.19,3.05-.55,1.91-.71,3.52-1.99,4.74-3.55,1.23-1.61,1.88-3.46,2.36-5.31.46-1.86.67-3.73.87-5.58.32-3.7.96-7.28,1.9-10.86.91-3.57,2.03-7.11,3.05-10.71,1.09-3.89,2.12-7.8,2.55-11.95.17-2.08.19-4.17-.02-6.23-.06-1.04-.25-2.06-.38-3.09-.22-1.02-.37-2.05-.66-3.06-.5-2.11-1.31-4.15-2.24-6.15-1.01-1.97-2.24-3.86-3.81-5.55-.5-.5-1.04-.97-1.56-1.45-.53-.46-1.16-.82-1.75-1.19-.29-.19-.61-.33-.95-.44-.33-.12-.66-.22-.99-.31-.64-.22-1.34-.21-2.01-.15-1.05.1-1.39.72-1.27,1.35.13.64.63,1.29,1.51,1.5Z"/>
      <path class="cls-1" d="M72.97,120.18c-2.55-.87-5.29-1.03-7.9-.61-2.61.42-5.09,1.38-7.31,2.76-2.22,1.38-4.17,3.18-5.71,5.31-1.54,2.12-2.63,4.62-3.21,7.11-1.2,5.04-.88,10.11-.58,14.95.33,4.84.65,9.75,1.61,14.66.41,2.11.93,4.25,1.63,6.38l.56,1.6.61,1.54c.34.88.64,1.94.93,2.96,1.17,4.17,2.25,8.51,3.65,12.75.71,2.12,1.47,4.23,2.46,6.28.5,1.03,1.04,2.04,1.76,3.04.39.5.76,1,1.41,1.47.57.38,1.12.66,1.74.87,1.22.41,2.49.43,3.63.2,1.14-.22,2.16-.66,3.1-1.17,1.86-1.04,3.37-2.44,4.7-3.9.17-.18-.07-.29-.27-.15-1.82,1.34-3.76,2.55-5.84,3.21-1.03.32-2.1.5-3.12.4-1.01-.09-2-.51-2.76-1.13-.69-.63-1.26-1.67-1.75-2.66-.49-1.02-.92-2.08-1.33-3.15-.81-2.15-1.5-4.36-2.16-6.58-.66-2.22-1.28-4.46-1.89-6.7-.64-2.25-1.19-4.48-2.05-6.75-1.8-4.23-2.73-8.74-3.25-13.34-.28-2.47-.45-4.97-.59-7.47-.13-2.51-.28-5.02-.3-7.49-.02-2.47.08-4.92.52-7.28.21-1.18.5-2.33.89-3.44l.3-.82.36-.78.36-.78.45-.74c2.46-4.06,6.77-7.04,11.39-7.84.71-.07,1.42-.21,2.12-.18.35,0,.7-.03,1.04,0,.34.03.68.05,1.02.07.34,0,.67.06,1,.1l1,.09c.33.06.66.1.99.13l.52.03c.17.03.33.05.5.08,1.07.14,1.74-.3,1.76-.94.01-.32-.14-.7-.47-1.09-.16-.19-.37-.38-.62-.57-.25-.17-.57-.29-.91-.41Z"/>
      <path class="cls-1" d="M183.09,178.86c-1.72,2.87-3.52,5.69-5.35,8.5-.92,1.39-1.81,2.88-2.72,4.03-.94,1.18-1.93,1.92-3.2,2.25-1.09.3-2.38.18-3.67-.13-1.31-.32-2.57-.81-3.96-1.34-1.38-.52-2.88-1.01-4.46-1.17-1.57-.16-3.26.06-4.57.9-.08.05-.05.28.03.28,1.46-.04,2.98.3,4.46.82,1.48.51,2.94,1.18,4.46,1.79,1.52.61,3.12,1.12,4.81,1.34,1.67.22,3.51.11,5.18-.69,1.82-.86,3.11-2.41,4.16-3.83l3.07-4.24c1.04-1.48,2.07-2.95,3.11-4.42.64-.91,1.42-1.7,1.2-3.02-.18-1.04-2.07-1.83-2.54-1.05Z"/>
      <path class="cls-1" d="M113.98,147.01c.29-.61,1.42-1.08,2.43-.89.5.08.95.28,1.27.56.38.35.68.78.9,1.29.87,2.05.17,5.07-1.36,6.64-.66.68-1.48.92-2.4.86-.91-.07-1.78-.48-2.39-1.02-.6-.52-1.08-1.31-1.42-2.37-.31-1.05-.54-2.35-.13-3.99.02-.11-.16-.24-.22-.16-1.2,1.32-1.67,3.04-1.55,4.66.09,1.62.92,3.23,2.26,4.18,1.33.94,2.99,1.34,4.61,1.06,1.66-.25,3.11-1.37,4-2.7.98-1.44,1.57-3.1,1.71-4.88.13-1.75-.22-3.73-1.54-5.34-.33-.39-.75-.8-1.24-1.1-.48-.32-1-.52-1.53-.68-1.07-.29-2.18-.3-3.29-.03-.67.18-1.38.45-1.93.96-.56.5-.9,1.28-.74,2.04.15.62.79.84,1.39.93.61.08,1.1.12,1.19-.02Z"/>
      <path class="cls-1" d="M197.04,141.77c.64-.38,1.79-.26,2.53.3.71.49,1.18,1.52,1.19,2.58.1,2.21-1.48,4.24-3.54,5.8-.46.35-.91.64-1.23.74-.32.09-.44.06-.76-.05-.61-.24-1.37-.93-1.88-1.68-.55-.77-.99-1.67-1.39-2.71-.38-1.05-.74-2.25-.81-3.84,0-.1-.21-.19-.25-.11-1.47,2.9-1,6.27.85,8.65.48.58,1.03,1.12,1.69,1.53.66.4,1.45.71,2.34.68.9-.03,1.67-.44,2.28-.83.61-.4,1.19-.81,1.76-1.28,1.21-1,2.35-2.22,3.09-3.78.74-1.58,1.01-3.43.48-5.29-.28-.96-.79-1.88-1.61-2.64-.8-.74-1.77-1.23-2.83-1.47-.65-.14-1.35-.23-2.02-.06-.66.16-1.29.59-1.55,1.29-.19.58.22,1.13.66,1.54.45.4.85.72,1,.63Z"/>
      <path class="cls-1" d="M168.68,138.89c-4.15-.31-8.36-.29-12.45.64-1.75.4-3.71.66-5.44,1.48-1.72.82-3.21,2.21-3.68,4.58-.02.07.12.25.16.22,2.98-2.32,6.67-3.59,10.4-4.04,2.02-.25,4.05-.22,6.04-.06,1.03.08,2.06.16,3.07.33.63.09,1.2.4,1.87-.43.54-.65.61-2.68.04-2.72Z"/>
      <path class="cls-1" d="M220.22,127.65c-6.24.82-12.67.31-19.14-.12-6.47-.43-13.16-.72-19.79.57-2.85.54-5.79,1.36-8.63,2.63-.72.36-1.37.62-2.16,1.11-.39.25-.81.55-1.22.98-.4.42-.78,1.01-.97,1.66-.37,1.31-.12,2.27-.07,2.92l.22,2.16c.6,5.82,1.5,11.65,3.8,16.68.07.16.29.04.26-.12-.82-6.11-1.23-12.34-1.77-18.54-.07-.79-.21-1.57-.11-2.16.08-.57.47-1.01,1.05-1.4,1.21-.75,2.67-1.39,4.07-1.92,2.85-1.07,5.86-1.69,8.91-2.01,6.6-.69,13.23.07,19.94.68,3.49.31,7.01.55,10.59.54,2.19,0,4.42.07,6.26-1.09,1.44-.92.42-2.81-1.23-2.57Z"/>
      <path class="cls-1" d="M223.22,137.52c.1,6.42-.14,12.85-.67,19.25l-.21,2.4c-.04.4-.07.82-.12,1.03-.03.13-.04.16-.05.18-.02.03-.03.06-.06.08.03.04-.54.23-1.26.23l-2.4.07c-3.22.08-6.44.13-9.66.16-5.55.04-11.48-.36-17.32-.5-5.85-.16-11.54-.05-17.03.86-.17.03-.13.26.04.28,6.24.78,12.44,1.12,18.65,1.38,6.21.26,12.42.4,18.66.45l5.04.02h2.52c.86-.03,1.62.04,2.66-.08.51-.08,1.09-.2,1.7-.61.58-.38,1-1.01,1.18-1.67.17-.59.2-1.06.25-1.46l.15-1.26c.19-1.68.37-3.35.52-5.03.32-3.49.52-6.98.68-10.48.1-2.15.34-4.27-.57-6.2-.72-1.52-2.73-.82-2.7.91Z"/>
      <path class="cls-1" d="M89.42,153.46c-.67-3.38-1.05-6.83-1.15-10.28-.02-.86-.03-1.73-.02-2.59l.03-1.29.05-1.12c.02-.07-.03-.2.05-.23l.42-.11c.85-.22,1.69-.47,2.54-.67,6.79-1.71,13.7-2.93,20.66-3.65,6.96-.72,13.98-.96,20.97-.68,1.75.05,3.5.18,5.24.28l2.62.22c.91.06,1.73.17,1.86.31.07.05.1.07.19.27.08.19.15.5.21.89.1.82.21,1.72.3,2.58.19,1.73.32,3.47.43,5.21.35,6,.14,12.24-.61,18.49l-.15,1.17-.04.26h0s0,.02,0,.02c0,0-.02,0-.03,0l-.42.16c-.16.07-.33.12-.52.16-.74.18-1.45.39-2.21.54l-2.29.43c-3.11.49-6.27.87-9.45,1.18-12.7,1.25-25.37,2.06-36.75,4.25-.36.07-.16.29.21.27,13.55-.69,27.12-1.01,40.65-2.46,3.38-.37,6.76-.85,10.12-1.73.42-.1.84-.21,1.25-.38l1.54-.58c.05-.04.17-.02.17-.1l.03-.21.06-.43.11-.85.15-1.27c.2-1.69.35-3.4.48-5.1.49-6.81.37-13.68-.35-20.51-.13-.91-.1-1.81-.52-2.95-.21-.55-.65-1.15-1.23-1.49-.57-.35-1.15-.46-1.65-.54-1.91-.2-3.69-.39-5.55-.51-3.68-.28-7.38-.42-11.07-.41-7.39-.02-14.79.53-22.12,1.58-3.8.57-7.58,1.28-11.33,2.13l-2.81.67-3.77.99-.33.09c-.1.04-.04.21-.07.3l-.05.68-.09,1.37-.09,1.57c-.04.98-.06,1.95-.06,2.93,0,4.79.36,9.59,2.17,13.59.72,1.57,1.51,1.85,1.97,1.29.48-.56.64-1.92.28-3.74Z"/>
      <path class="cls-1" d="M90.57,127.55l-.02-.1-2.51,1.4,5.19,4.42,2.34-1.83-.38-.74-.2-.38c-.02-.05-.09-.15-.07-.17l.16.07c.21.09.41.21.61.34l.15.1.28.22c.46.36.92.74,1.35,1.14l2.25-1.91-3.26-4.99-2.36,1.79c1.86,2.11,4.05,3.91,6.49,5.32l1.84-2.27c-.42-.47-.81-.96-1.17-1.48l-.2-.3-.1-.17c-.11-.22-.26-.52-.27-.71.32.13.62.29.9.48l.26.18.49.36c.32.25.64.5.96.76.62.52,1.22,1.08,1.79,1.67l2.36-1.78-4.61-7.96-2.27,1.9c3.2,2.72,6.4,5.44,9.61,8.16l2.15-2.12c-.51-.62-1.01-1.25-1.49-1.89l-.22-.3-.12-.18c-.16-.23-.3-.47-.42-.7.23.08.54.25.78.4l.19.12.54.36c.71.49,1.4,1.01,2.07,1.54l2.11-2.27c-1.75-1.9-3.23-4.07-4.36-6.39l-2.49,1.82c2.68,2.56,5.36,5.13,8.05,7.7l2.38-2.07c-1.8-2.52-3.36-5.22-4.65-8.04l-2.23,2.06c3.3,1.83,6.35,4.1,9.06,6.72l2.37-2.18c-1.75-2.15-3.26-4.51-4.49-7l-2.37,2.05c1.68,1.16,3.29,2.41,4.83,3.74,1.85,1.6,3.61,3.34,5.26,5.2l2.46-2.15c-2.52-2.94-4.61-6.32-6.13-9.95l-2.83,1.77c2.64,3.07,5.61,5.91,8.85,8.43l2.65-2.15c-1.38-2.95-2.78-5.91-4.17-8.88l-3.13,1.78c2.43,3.66,5.35,7,8.68,9.89l2.8-2.32c-2-3.41-4-6.82-5.99-10.22l-3,2.06c3.1,3.79,6.18,7.57,9.25,11.32l2.75-1.96c-2.13-3.25-4.26-6.49-6.37-9.71l-2.33,1.79c3.72,3.84,7.43,7.62,11.13,11.3l1.59-1.04c-1.93-3.92-3.61-7.91-5.07-11.92l-.53.25c2.88,3.74,5.38,7.67,7.53,11.72.31.58.38.18.11-.44-1.84-4.19-4.08-8.19-6.67-11.94l-1.57.74c1.28,4.19,2.82,8.3,4.6,12.29l1.29-.85c-3.6-3.87-7.21-7.73-10.81-11.59l-1.11.85,6.21,9.8,1.08-.77-9.17-11.39-1.06.73,5.97,10.23.98-.81c-3.15-2.74-5.94-5.91-8.26-9.38l-1.15.65,4.19,8.87,1.04-.84c-3.1-2.39-5.96-5.1-8.52-8.07l-1.22.76c1.61,3.83,3.82,7.41,6.52,10.58l1.17-1.03c-3.1-3.52-6.63-6.68-10.5-9.37l-2.69-1.88,1.44,2.96c.81,1.67,1.74,3.28,2.78,4.81.62.92,1.28,1.81,1.97,2.68l1.33-1.22c-2.85-2.8-6.08-5.22-9.56-7.18l-2.58-1.45,1.22,2.72c1.34,2.99,2.96,5.84,4.85,8.51l1.58-1.38-8-7.75-1.81,1.33c1.23,2.57,2.84,4.96,4.76,7.07l1.64-1.77c-.72-.58-1.46-1.14-2.21-1.67l-.64-.44-.94-.61c-.63-.39-1.26-.77-1.89-1.11-1.25-.7-2.43-1.25-3.59-1.78l-1.78-.81-.93-.42-.48-.21c-.16-.07-.34-.16-.42-.17,1.27,2.26,2.31,4.23,3.74,6.52.36.57.74,1.15,1.14,1.73l.61.87.55.76c.5.68,1.02,1.35,1.56,2.01l1.96-1.94-9.55-8.23-2.24,1.88.96,1.69,3.6,6.3,2.46-1.86c-.64-.67-1.31-1.3-2.01-1.9-.35-.3-.71-.59-1.08-.87l-.56-.41-.33-.23-.5-.34c-1.35-.88-2.72-1.61-3.98-2.15l-3.85-1.62c.27,1.02.59,2.06.87,3.01.28.95.59,1.95,1.08,3.03.24.54.52,1.09.84,1.65l.5.83.27.41.17.26c.43.62.89,1.21,1.39,1.77l2.08-2.57c-2.13-1.25-4.05-2.84-5.66-4.7l-2.74,2.08,3.22,5.02,2.66-2.26c-.33-.3-.66-.59-1-.88l-.74-.59c-.46-.34-.92-.69-1.39-.99-.93-.63-1.87-1.18-2.76-1.63-1.77-.88-3.31-1.49-5.14-2.31l-.34-.15-.17-.07s.04.1.05.14l.29.66.59,1.32c.4.88.79,1.76,1.18,2.64.8,1.75,1.59,3.48,2.37,5.21l2.79-2.19c-1.79-1.47-3.57-2.89-5.36-4.21l-3.32-2.44.83,3.83c.31,1.41.92,2.7,1.75,3.77.29.37.58.68.85.92l.76-1.64c-3.14.65-2.71,1.68.06,2.16l1.91.34-1.04-2.21c-.43-.92-.98-2.15-1.25-3.7Z"/>
      <path class="cls-1" d="M219.08,122.84l.09-.27.05-.2.07-.27c.19-.82.36-1.65.5-2.48l-2.71-1.16-4.74,6.41,2.51,1.63c1.49-2.65,2.48-5.57,2.91-8.58l-2.74-.99c-1.67,2.72-3.67,5.24-5.95,7.48l2.46,1.47,2.34-7.98-2.71-1.16c-.28.48-.58.96-.9,1.43-.11.16-.16.23-.24.33-.14.18-.3.35-.46.51l-.25.23-.07.05-.03.03s.01-.05.02-.07l.1-.35.39-1.4-1.08-1.43-1.78-.13c-2.36,2.71-4.73,5.42-7.1,8.13l2.55,1.55c.91-2.29,1.54-4.7,1.86-7.15l.75-5.69-3.49,4.57-1.52,2-.39.51.14-.66.25-1.15-2.88-1.11c-1.56,2.64-3.36,5.14-5.37,7.46l2.7,1.53c.97-2.85,1.47-5.86,1.49-8.88l-3.04-.68c-1.37,2.9-3.01,5.66-4.9,8.25l2.85,1.37.42-1.58c.18-.72.34-1.44.46-2.13.24-1.39.29-2.6.21-3.59-.07-1.02-.27-1.81-.5-2.67l-.37-1.4-.22-.78-.39.39-1.54,1.55-.39.39c-.07.07-.13.12-.2.2l-.28.49-1.12,1.95-3.43,5.98c-.89,1.54-1.78,3.09-2.67,4.65l2.98,1.26c1.28-4.36,2.59-8.78,3.9-13.25l-3.06-1.35c-.5.78-1,1.56-1.5,2.35-.05.05-.08.08-.09.09l.09-.29c.02-.06.04-.1.05-.12l.83-3.96-3.48-1.09c-2.21,5.22-4.43,10.46-6.63,15.68l3.44,1.14c1.34-5.68,2.65-11.35,3.9-16.98l-3.09-.9c-1.75,5.47-3.89,10.76-6.36,15.82l2.08.71c.59-4.78,1.5-9.47,2.7-14.01l-.74-.29c-1.81,4.68-3.27,9.37-4.38,14-.14.6.17.36.37-.23,1.49-4.5,3.21-8.93,5.15-13.25l-1.61-.63c-1.49,4.61-2.61,9.33-3.36,14.11l1.42.48c2.72-5.13,5.02-10.48,6.88-15.97l-1.31-.38-4.06,16.94,1.22.4,6.65-15.67-1.23-.39c-.76,3.66-1.52,7.31-2.28,10.97l-.07,3.54,2.35-2.54,5.12-8.28-1.32-.58c-1.3,4.41-2.6,8.83-3.91,13.25l1.44.61,4.03-6.93,1.11-1.89.54-.91.26-.44c.05-.15.06.06.09.12.03.09.04.18.06.27.13.72.09,1.45-.03,2.14-.06.35-.13.68-.22,1.01l-.36,1.31,1.66.8c2-2.71,3.75-5.6,5.2-8.64l-1.93-.43c-.03,2.74-.51,5.47-1.4,8.04l1.84,1.05c2.12-2.43,4.03-5.05,5.7-7.81l-2.14-.82-1.51,7.12c.24.65.5,1.28.78,1.88.64-.19,1.27-.35,1.89-.48l5.32-6.94-2.37-.97c-.31,2.21-.9,4.38-1.73,6.45l2.34,1.42,2.34-2.64.54-.57.49-.51-.09.3-.16.51-.72,4.12-.18,1.03-.02.13s-.05.13.02.06l.27-.21.53-.43,1.97-1.6c.63-.52,1.26-1.03,1.92-1.63.66-.61,1.34-1.31,2.03-2.08.68-.78,1.38-1.69,1.97-2.54.36-.52.7-1.06,1.02-1.61l-2.97-1.27-2.4,7.97-1.86,6.2,4.65-4.53c2.47-2.41,4.65-5.11,6.48-8.04l-3.22-1.16c-.17,1.08-.41,2.15-.74,3.19-.46,1.48-1.1,2.9-1.86,4.23l3.05,1.98c1.63-2.15,3.23-4.28,4.75-6.41l-3.24-1.38c-.12.78-.24,1.52-.4,2.31-.16.68-.34,1.45-.56,2.2-.21.75-.48,1.52-.76,2.31.9.46,1.14.65,1.28.9l.04.09s.01-.03.02-.05c.01-.06.03-.12.06-.18.06-.13.14-.28.27-.45.18-.23.44-.48.75-.75.06-.05.12-.1.18-.15l.05-.04.02-.02h.01s.13-.17.13-.17c.2-.25.45-.54.58-.74h0s-.04.05-.05.06c.02-.01.04-.02.06-.01.09,0,.18.08.25.15.15.15.19.37.34.48.12.11.48.08.72-.41.11-.24.17-.57.04-.97-.07-.2-.19-.42-.4-.62-.07-.08-.05-.04-.07-.04h-.02c-.07.05-.08.06-.07.06,0,0,0,0,0,.03-.02.04.03-.05.05-.09.02-.05.04-.09.06-.13Z"/>
      <path class="cls-1" d="M85.65,77.82c-.62-.61-1.35-1.43-2.04-2.15l-2.08-2.23-4.16-4.47-2.39,1.79,7.74,12.85,3.85,6.42c.31.53.61,1.06.9,1.59l.41.8.18.36c.1.22.19.45.24.69-.14.02-.37-.09-.53-.17-.09-.05-.17-.1-.25-.16l-.43-.32-.54-.44c-1.43-1.22-2.67-2.74-3.81-4.35-2.3-3.24-4.34-7.1-7.9-9.98l-2.21,2.04,7.96,11.86,3.98,5.93.97,1.46.27.44.06.12c.06.13.16.37.07.44-.13-.03-.25-.08-.36-.14-.05-.03-.11-.06-.16-.1l-.34-.24c-.16-.11-.31-.24-.47-.38-1.24-1.03-2.36-2.31-3.47-3.66-2.23-2.68-4.39-5.79-7.75-8.02l-2.18,2.3c2.4,3.3,4.76,6.65,7.07,10.02,1.64,2.4,3.27,4.85,4.88,7.34.84,1.26,1.52,2.4,1.49,3.17.01.3-.17.7-.33.85-.09.08-.11.07-.14.08-.03,0-.05.01-.2-.04-.28-.09-.83-.49-1.42-.96-.58-.45-1.15-.92-1.71-1.39-1.12-.95-2.21-1.96-3.25-3.01-2.09-2.1-4.01-4.38-5.73-6.81l-2.97,2.07c4.16,6.24,8.37,12.51,12.61,18.7l.8,1.16.18.26h0s.02.02.02.02l.05.05s-.01.04-.03.05c-.02.01-.04.02-.07.03-.01,0-.03,0-.04,0h-.02s-.05-.02-.12-.05c-.55-.25-1.14-.73-1.76-1.34-2.6-2.59-5.25-5.22-7.87-7.77l-2.2,1.68c1.56,2.43,3.13,4.84,4.71,7.21.79,1.18,1.58,2.36,2.36,3.53l1.18,1.75.86,1.19c.72,1.02,1.43,2.03,2.14,3.04l.32.46.08.12.04.06s-.02,0-.04,0l-.16-.02c-.22-.02-.44-.06-.68-.11-.47-.1-.98-.24-1.51-.46-1.08-.46-2.27-1.11-3.51-2.05-1.09-.82-2.11-1.77-2.99-2.83-.37-.44-.39-.07-.05.42.43.59.89,1.16,1.39,1.69.24.27.51.52.77.78.29.26.48.45.93.81,1.6,1.33,3.3,2.21,4.78,2.78.75.29,1.51.56,2.31.82l.62.2.31.1c0-.05-.07-.16-.1-.24l-.5-1.03-1.01-2.06-1.56-2.57c-2.97-4.88-5.93-9.76-8.9-14.64l-1.13.87,7.82,8.05c.68.67,1.45,1.36,2.43,1.8,1.15.53,2.51.51,3.51-.02.25-.13.49-.29.68-.49.1-.09.2-.2.29-.31l.14-.16c.03-.06-.04-.12-.05-.18l-.32-.71-.16-.36c-.06-.12-.17-.26-.25-.39l-1.76-2.6c-4.17-6.2-8.34-12.4-12.52-18.6l-1.08.75c2.26,3.16,4.84,6.09,7.71,8.72,1.45,1.32,2.9,2.55,4.53,3.72.43.29.94.58,1.57.7.64.13,1.36,0,1.91-.38,1.08-.75,1.54-1.97,1.48-3.17-.08-1.16-.59-2.16-1.1-3.01-.53-.85-1.04-1.63-1.57-2.45l-3.18-4.83c-2.15-3.2-4.34-6.38-6.57-9.53l-1.39-1.94-1.22,1.29c2.8,1.87,4.86,4.77,7.13,7.56,1.14,1.4,2.34,2.8,3.79,4.03.18.16.35.31.55.45l.68.49c.57.41,1.18.64,1.77.97.15.07.3.16.45.22l.43.14.87.29c.57.19,1.23.35,1.85.53l.09-.16c.03-.05,0-.19.02-.28v-.59c-.01-.38-.03-.74-.06-1.11-.06-.72-.24-1.51-.58-2.34-.18-.41-.38-.84-.61-1.25l-.35-.6-.25-.4-.99-1.51-3.94-5.96-7.87-11.93-1.98,1.82c1.72,1.42,3.14,3.26,4.47,5.24,1.34,1.97,2.6,4.11,4.21,6.12,1.11,1.37,2.35,2.7,3.84,3.81l.36.26.48.3c.32.19.65.43.97.58l.98.47.95.35c.62.2,1.2.34,1.82.5.58.14,1.32.35,1.91.47-.43-1.7-.66-3.12-1.29-4.87-.14-.43-.34-.87-.52-1.3l-.53-1.14c-.24-.49-.49-.96-.74-1.43-1.04-1.87-2.1-3.59-3.14-5.37l-6.27-10.62c-.91-1.54-1.81-3.08-2.7-4.6l-2.91,2.18c1.77,1.95,3.53,3.86,5.31,5.66.9.91,1.78,1.76,2.72,2.63.96.86,2.24,1.94,4.02,2,1.79.01,2.7-1.13,2.73-1.7.06-.61-.31-.66-.67-.61-.39.04-.82.07-1.4-.06-.31-.08-.55-.18-.86-.38-.33-.2-.7-.51-1.15-.94Z"/>
      <path class="cls-1" d="M229.47,76.77l5.35-8.69-2.67-1.36-5.47,13.32-2.74,6.67c-.91,2.26-1.75,4.65-2.16,7.2l-.41,2.55,2.38-.92c2.19-.85,3.62-2.46,4.76-4.02,1.14-1.59,2.02-3.27,2.81-4.95,1.58-3.31,2.87-6.69,4.93-9.22l-2.56-1.6-5.55,12-1.7,3.69-1.28,2.78c-.43.93-.84,1.85-1.11,2.63-.54,1.57-.67,2.48-.76,3.37-.07.88-.12,1.79-.14,3.18l.26-.08.33-.15.67-.31,1.11-.53c.64-.33,1.21-.62,1.79-1.06.29-.22.57-.42.88-.74.3-.29.6-.55.94-.99.33-.4.65-.74,1.02-1.31.36-.53.71-.97,1.07-1.63.36-.62.73-1.2,1.08-1.86l1.01-1.83c.38-.69.76-1.36,1.15-2.02.78-1.31,1.62-2.54,2.58-3.52l-2.59-1.85c-1.58,3.35-3.16,6.71-4.74,10.07-1.14,2.41-2.29,4.85-3.46,7.31-.29.62-.59,1.21-.87,1.9-.29.68-.56,1.44-.72,2.28-.07.45-.14.77-.12,1.51.03.65.17,1.28.39,1.84.45,1.12,1.32,1.95,2.47,2.06,1.1.1,2.12-.55,3-1.59l.86-1,.68-.83c.9-1.12,1.76-2.27,2.57-3.46,1.62-2.37,3.07-4.87,4.35-7.46l-3.28-1.55c-2.74,6.73-5.47,13.55-8.14,20.27l-1,2.51-.5,1.25-.25.62-.12.31c.03.1.15.19.23.28.36.36.84.65,1.32.79.48.14.94.15,1.33.1.77-.13,1.35-.39,2.1-1.02.19-.16.38-.34.58-.57.17-.22.3-.45.45-.68l.86-1.35,1.7-2.68c1.09-1.75,2.18-3.49,3.27-5.22l-2.46-1.29c-2.47,6.68-4.77,13.27-6.81,19.71l-.18.55.46-.29c2.86-1.78,4.57-4.66,5.51-7.51.15-.46-.16-.32-.36.12-1.23,2.65-3.13,5.1-5.64,6.41l1.22,1.13c2.59-6.45,5.17-12.89,7.75-19.33l-1.26-.66-4.71,7.39c-.3.44-.63.9-1.1,1.19-.46.3-1.16.21-1.44-.28l-.05-.09.06-.13.12-.26.24-.52.47-1.03.95-2.07c2.55-5.55,5.11-11.1,7.66-16.65l-1.19-.56c-1.52,3.1-3.3,6.08-5.34,8.86-.51.69-1.04,1.37-1.59,2.04l-.82.97c-.18.2-.35.41-.55.58-.19.17-.46.32-.72.22-.25-.1-.41-.34-.51-.58-.19-.53-.22-.92-.05-1.79.33-1.51,1.24-3.1,1.96-4.68l2.26-4.73c1.51-3.15,3.02-6.31,4.53-9.47l.89-1.87-1.44-1.03c-1.22,1.22-2.14,2.6-2.99,3.99-.42.7-.82,1.39-1.21,2.09l-.59,1.04c-.37.62-.73,1.21-1.15,1.71-.21.25-.44.46-.68.65-.13.08-.26.16-.39.22l-.21.07s-.08.03-.1.03v-.14c.11-1.04.6-1.92.98-2.71l.56-1.14,1.17-2.47,5.65-11.95-2.29-1.43c-1.55,1.87-2.61,3.94-3.59,5.95-.98,2.02-1.84,4.04-2.86,5.88-.65,1.18-1.37,2.3-2.19,3.26-.81.95-1.74,1.73-2.68,2.06l2.1,1.73c.58-3.5,2.22-6.92,3.7-10.5l4.48-10.63c.75-1.77,1.5-3.53,2.24-5.27l-3.26-1.67c-1.19,1.89-2.35,3.77-3.4,5.64-.53.94-1.03,1.88-1.51,2.82-.46.93-.88,1.78-1.23,2.15-.11.16-.23.27-.39.32-.17.06-.39,0-.58-.05-.37-.12-.72-.15-.85.32-.05.22-.04.59.25,1.01.28.41.92.83,1.73.82.39,0,.83-.11,1.2-.29.35-.17.66-.39.94-.64.55-.49.97-1.07,1.33-1.66Z"/>
      <path class="cls-1" d="M236.66,121.34c.94-6.6,1.56-13.25,1.74-19.94.17-6.68-.16-13.39-1-20.04-.47-3.32-.98-6.63-1.72-9.9-.73-3.29-1.5-6.48-2.56-9.76-2.26-6.51-6.04-12.34-10.69-17.32-4.66-4.98-10.3-8.99-16.39-11.97-.38-.2-.75-.41-1.13-.59l-1.17-.49-2.34-.99-2.34-.98-2.41-.78-2.41-.77c-.81-.24-1.6-.56-2.43-.71l-4.93-1.13c-1.63-.43-3.31-.61-4.97-.86l-4.99-.72c-3.35-.31-6.7-.56-10.06-.57-6.72-.11-13.43.45-20.06,1.44-5.71.87-11.46,2.11-17.19,3.71-5.73,1.62-11.41,3.49-17.05,5.85-5.63,2.38-11.01,5.45-16.01,9.09-4.98,3.65-9.59,7.89-13.4,12.79-3.82,4.88-6.9,10.35-8.89,16.16-2,5.84-2.65,11.9-2.99,17.72-.68,11.67-.04,23.12,2.3,33.56.14.66.32.28.22-.4-1.78-12.49-1.54-25.24-.12-37.78.39-3.12.9-6.23,1.78-9.23.47-1.49.87-3.01,1.49-4.45.29-.73.56-1.46.87-2.18l1.02-2.12c2.74-5.64,6.62-10.68,11.04-15.13,4.42-4.47,9.53-8.23,14.96-11.41,2.71-1.61,5.55-2.98,8.42-4.28,2.9-1.22,5.85-2.36,8.85-3.36,5.98-2.05,12.1-3.73,18.3-4.96,6.2-1.25,12.49-2.08,18.82-2.38,6.8-.33,13.65-.13,20.36.92l5.04.76,4.95,1.16c.82.2,1.66.37,2.47.6l2.41.79,2.41.79,1.2.39c.39.15.78.33,1.17.49,6.31,2.41,12.17,5.92,17.24,10.27,1.24,1.12,2.44,2.29,3.62,3.47l1.65,1.88.83.94.75,1,1.49,2,1.34,2.11c.47.69.84,1.44,1.24,2.16l.6,1.09.53,1.13.54,1.17.48,1.19c.34.79.59,1.6.87,2.41.25.8.47,1.65.7,2.51.22.85.47,1.69.66,2.55.85,3.41,1.5,6.86,2.05,10.33.54,3.47.87,6.97,1.12,10.47.18,3.51.3,7.02.19,10.53-.19,8.66-1.33,17.06-1.74,24.91-.36,6.21,2.15,3.96,3.23-3.19Z"/>
      <path class="cls-1" d="M82.83,195.8c-.95-3.48-2.27-6.85-3.94-10.05l-2.38,1.72c.48.49.99.94,1.53,1.35.28.21.52.38.86.6.47.29.94.56,1.41.8.96.47,1.89.79,2.76,1l2.7.65c-.26-1.4-.44-2.53-.82-3.84-.1-.33-.21-.66-.36-1.01-.13-.34-.29-.69-.47-1.04-.17-.35-.35-.69-.56-1.04l-.38-.62c-.99-1.57-2.11-2.97-3.04-4.34-.23-.34-.46-.69-.66-1.04-.06-.1-.08-.14-.11-.21-.06-.13-.11-.26-.14-.39-.05-.2-.07-.73.19-.3l.29.32.14.15.07.07.49.48c1.37,1.35,2.77,2.66,4.2,3.95l3.36,3.02-.69-4.47c-.31-2.02-1.21-3.79-2.18-5.32-1.24-1.95-2.65-3.64-3.6-5.42-.98-1.78-1.52-3.68-1.11-5.27l-2.96.92c2.57,2.48,4.82,5.31,6.72,8.34l3.18-1.74c-1.91-3.73-3.83-7.44-5.81-11-.99-1.78-2-3.53-3.04-5.23-.52-.85-1.04-1.69-1.58-2.52-.5-.82-1.1-1.75-.92-3.06.06-.32-.21-.26-.32.08-.19.72-.12,1.41.02,1.98.14.58.35,1.1.56,1.57l1.2,2.78,2.47,5.54c1.67,3.67,3.41,7.32,5.2,10.93l1.13-.62c-1.97-3.25-4.38-6.24-7.14-8.87l-.85-.81-.27,1.15c-.37,1.59-.13,3.25.38,4.71.52,1.47,1.28,2.81,2.12,4.06,1.67,2.46,3.55,4.75,4.17,7.38.07.25.1.51.15.77l1.49-.81c-1.38-1.28-2.74-2.59-4.06-3.93l-1.29-1.32-1.57-1.66-3.29-3.61c-.13.09-.27.21-.38.25l-.17.05h-.04s-.02.11-.03.15l-.05.32c-.14.84-.23,1.57-.28,2.29-.08,1.45.19,3.19,1.16,5.28.25.49.54,1.07.8,1.5.18.32.37.62.56.93.39.61.79,1.19,1.18,1.75.78,1.12,1.57,2.24,2.16,3.29.11.24.17.47.14.62-.2-.07-.35-.16-.46-.24l-.07-.06c-.16-.11-.41-.29-.61-.45-.41-.33-.8-.68-1.16-1.06l-2.75,2c.43.86.82,1.72,1.19,2.6,1.14,2.72,1.79,5.48,3.27,7.85,1.13,1.91,2.98.64,2.32-1.89Z"/>
      <path class="cls-1" d="M230.06,209.09c-1.7-.12-3.39-.45-5.11-.37-.73.03-1.56-.22-2.33.02-.76.24-1.44.97-1.65,2.88,0,.06.05.28.07.26,1.33-.83,2.88-.93,4.37-.68.81.13,1.59.4,2.35.67.39.14.79.24,1.17.39.24.09.43.36.8-.49.29-.67.56-2.67.32-2.69Z"/>
      <path class="cls-1" d="M77.2,214.2c.71-.94,1.76-1.52,2.72-2.17.42-.28,1.03-.29,1.42-.66.39-.37.55-1.12.28-2.99,0-.06-.11-.26-.12-.25-.94,1-2.03,1.5-3.24,2-.65.27-1.35.5-2.02.81-.35.16-.67.36-1,.55-.2.11-.54.11-.04.88.4.6,1.91,1.95,2,1.83Z"/>
      <path class="cls-1" d="M225.58,133.1c.65-.37,1.31-.78,1.95-1.24.64-.46,1.25-1,1.76-1.47.98-.92,1.89-1.49,3.06-2.07,1.02-.51,2.43-.82,3.56-1.73.56-.45,1.05-1.06,1.28-1.82.23-.76.19-1.69-.32-2.59-.03-.06-.23-.16-.24-.13-.38,1.1-1.3,2.04-2.38,2.7-1.1.7-2.29,1.1-3.62,1.65-.7.29-1.42.65-2.11,1.07-.69.42-1.31.9-1.86,1.26-.57.38-1.09.68-1.7.94-.38.16-.82.13-.76,1.1.04.77,1.03,2.54,1.4,2.33Z"/>
      <path class="cls-1" d="M69.89,122.15c2.37,3.23,4.73,6.49,7.55,9.37,1.21,1.23,2.34,2.75,3.82,3.85,1.47,1.1,3.28,1.77,5.62,1.24.07-.02.18-.21.14-.24-3.3-1.78-6.06-4.35-8.42-7.24-1.27-1.56-2.39-3.24-3.46-4.92-.55-.88-1.12-1.74-1.63-2.63-.32-.55-.47-1.19-1.53-1.16-.84.02-2.42,1.29-2.09,1.73Z"/>
    </g>
    <path class="cls-1" d="M165.94,230.27c-4.58.46-9.09.99-13.54.94-4.42-.05-8.83-.73-12.7-2.49-3.37-1.5-6.1-4.38-8.56-7.44-2.48-3.07-4.91-6.35-8.25-8.79-.11-.08-.27.08-.21.18,2.28,3.76,4.48,7.62,7.3,11.09,1.4,1.73,2.99,3.34,4.78,4.73,1.78,1.4,3.82,2.49,5.93,3.32,4.59,1.78,9.55,2.36,14.38,2.36,2.51,0,5-.15,7.46-.28,1.51-.08,2.99.02,4.26-.98,1.01-.79.41-2.77-.84-2.65Z"/>
  </g>
  <g>
    <path class="cls-1" d="M172.64,249.74c.62,1.62-.08,3.56-1.14,4.97-.47.64-1.27.96-1.83,1.47-.6.51-.91,1.31-1.68,3.25-.02.06.02.28.05.27,2.39-.83,4.25-2.14,5.8-3.97.82-.99,1.54-2.15,1.93-3.51.19-.7.29-1.45.27-2.22.02-.46.1-1.02-.86-1.15-.75-.08-2.62.73-2.56.91Z"/>
    <path class="cls-1" d="M81.54,227.75c.62-1.12,1.69-1.9,2.68-2.67.43-.34,1.08-.4,1.49-.81.42-.41.59-1.17.37-3.07,0-.06-.11-.26-.12-.24-1.09,1.07-2.27,1.69-3.57,2.38-.69.37-1.43.73-2.13,1.18-.36.24-.68.51-1.02.78-.21.16-.55.24.04.95.47.55,2.18,1.65,2.25,1.5Z"/>
    <path class="cls-1" d="M89.17,246.93c.26-1.21,1.08-2.2,1.84-3.13.33-.41.94-.6,1.24-1.06.31-.47.31-1.23-.24-3.07-.02-.06-.15-.24-.16-.22-.88,1.24-1.9,2.08-3.01,3.06-.59.52-1.22,1.05-1.78,1.68-.29.32-.53.68-.77,1.04-.15.22-.47.4.3.9.61.4,2.56.95,2.59.8Z"/>
    <path class="cls-1" d="M97.78,263.9c-.02.06-.05.14-.07.25-.02.1-.03.18-.03.33,0,.25.08.62.28.9.49.62.86.61,1.06.67.55.1,1.06-.12,1.28-.29.47-.35.57-.63.67-.81l.29-.59c.2-.39.42-.77.64-1.15.44-.76.9-1.51,1.3-2.29.7-1.34,2.63-2.28.05-5.21-.04-.05-.24-.14-.25-.12-.32,1.73-1.18,3.17-2.21,4.53-.56.73-1.2,1.42-1.8,2.14-.31.37-.59.76-.89,1.13l-.04.04-.02.02.72.37s.11.06.19.12c.16.11.31.27.35.36.02.05.02.07.02.07h0s0-.02,0-.02h0s0,0,0,0h0s-.03.07-.03.07c0,.03-.03.05-.03.05,0,0,.08,0,.13.03.05.03.03.03-.03-.05-.04-.06-.04-.11-.04-.1,0,.01-.05.02-.08.03-.2-.01.32.03.57-.05.13-.07.32-.08.3-.43.02-.11-.13-.42-.42-.57-.11-.07-.25-.12-.41-.15-.17-.02-.2-.03-.33-.02-.38.03-.57.1-.75.2-.17.11-.32.23-.43.54Z"/>
    <path class="cls-1" d="M124.78,271.55c.07-.13.36-.3.46-.33.12-.04.05,0-.09,0-.06,0-.15-.01-.21-.03h-.03s-.01-.01-.01-.01c-.92-.33,1.25.44,1.03.36h0s0,0,0,0h0s.01-.04.01-.04l.02-.07.09-.26c.12-.34.26-.68.4-1.02.28-.68.58-1.35.83-2.04.21-.59.74-1.12.84-1.8.02-.17.02-.35-.02-.53-.02-.09-.05-.19-.09-.29l-.03-.08-.02-.04v-.02s-.01,0-.01,0c-1.4-.5-.39-.14-.7-.25h0s0,0,0,0h.01c.07.03.14.07.2.1.05.03.11.07.13.09,0,0-.07-.07-.1-.11-.08-.1-.15-.22-.2-.38-.05-.15-.1-.34.02-.53.12-.22.57-.17.84,0,.08.05.28-.05.24-.13-.08-.16-.23-.4-.51-.55-.27-.15-.56-.16-.74-.12-.35.08-.49.22-.63.34-.24.25-.39.47-.51.84-.06.35-.16.69-.27,1.02-.23.66-.56,1.29-.93,1.91-.4.66-.89,1.29-1.34,1.94-.12.17-.22.34-.33.51l-.16.26-.08.13s0,0-.03.05l-.06.17c-.04.13-.05.21-.07.32-.07.49-.07.84.13,1.23.11.19.26.39.6.6.1.06.2.11.31.15.15.06.29.1.45.11.38.06.8-.06,1.03-.29.33-.36.13-.63-.04-.85-.1-.11-.22-.2-.34-.3-.11-.08-.3-.23-.23-.18.02,0,.07.07.1.1.04.06,0,.06.04,0Z"/>
    <path class="cls-1" d="M149.19,274.22c-.3-1.15-.05-2.35.11-3.5.07-.5.49-.96.48-1.49,0-.54-.42-1.17-1.93-2.33-.05-.04-.26-.11-.26-.09.01,1.43-.38,2.6-.82,3.89-.24.69-.53,1.4-.72,2.15-.1.39-.15.78-.21,1.18-.04.24-.24.52.67.61.72.07,2.71-.28,2.68-.43Z"/>
    <path class="cls-1" d="M188.77,268.32c0,.23,0,.47,0,.7l2.87-.44c-.5-1.16-.8-2.4-1.26-3.58-.47-1.2.19-3.04-3.64-2.84-.06,0-.26.09-.25.11,1,1.15,1.43,2.52,1.69,3.97.14.78.19,1.59.28,2.39.04.38.12.75.18,1.13l3.38-.51.03-.09c.08-.24.33-.47-.55-.75-.69-.23-2.71-.29-2.71-.09Z"/>
    <path class="cls-1" d="M206.87,255.65c-1.29-.41-2.42-1.18-3.64-1.74-1.05-.48-1.73-2.19-4.22.68-.04.05-.12.25-.1.25,1.39.06,2.52.68,3.58,1.48.57.43,1.1.95,1.65,1.42.29.25.59.46.88.69.18.14.28.45.83-.28.43-.58,1.2-2.45,1.03-2.51Z"/>
    <path class="cls-1" d="M218.58,243.64c-1.4-.75-2.76-1.61-4.32-2.02-.66-.17-1.34-.62-2.1-.56-.74.06-1.54.64-1.99,2.49-.01.06,0,.28.02.27,1.23-.58,2.61-.32,3.74.3.62.34,1.15.82,1.64,1.28.25.24.51.46.74.71.15.15.16.45.82-.18.53-.5,1.64-2.19,1.43-2.3Z"/>
    <path class="cls-1" d="M225.08,223.38c-1.28-.1-2.53-.47-3.83-.51-.55-.01-1.16-.33-1.75-.16-.58.17-1.13.82-1.35,2.68,0,.06.03.28.05.27,1.02-.66,2.18-.61,3.27-.29.59.18,1.15.48,1.7.75.28.14.56.25.84.4.17.09.29.35.63-.49.27-.67.64-2.65.46-2.67Z"/>
    <g>
      <path class="cls-1" d="M231.83,144.89l.48,4.92.24,2.46c.04.82.05,1.65.07,2.48l.12,4.96c-.03,1.65-.11,3.31-.16,4.96-.04,3.31-.46,6.61-.72,9.92-.15,1.65-.42,3.29-.63,4.94-.24,1.64-.4,3.3-.72,4.93-2.19,13.11-5.58,26.05-9.91,38.64-1.1,3.14-2.23,6.27-3.46,9.36-1.21,3.08-2.53,6.17-3.95,9.08-2.92,5.69-7.58,10.45-12.63,14.63-1.26,1.04-2.58,2.08-3.88,3.05-1.28.94-2.65,1.8-4.06,2.58-2.84,1.56-5.87,2.84-8.97,4.09-6.21,2.47-12.37,5.04-18.75,6.06-2.74.44-5.51.58-8.31.31-2.8-.25-5.63-.82-8.49-1.49-5.77-1.43-11.6-2.88-17.47-4.34-5.86-1.47-11.85-2.91-17.68-4.41-2.88-.78-5.68-1.69-8.2-3.01-1.27-.67-2.41-1.41-3.55-2.31-1.15-.9-2.27-1.87-3.34-2.87-2.14-2.02-4.15-4.19-5.85-6.52-.85-1.17-1.62-2.37-2.24-3.61-.6-1.3-1.23-2.62-1.74-4-2.16-5.48-3.76-11.21-5.3-16.86-3.04-11.32-5.57-22.49-8.37-33-.18-.66-.33-.27-.2.42,2.38,12.64,4.66,25.32,7.88,37.79.82,3.12,1.68,6.22,2.72,9.29,1.03,3.07,2.12,6.11,3.76,9,1.67,2.83,3.77,5.35,6.03,7.68,1.13,1.16,2.32,2.28,3.55,3.34,1.23,1.05,2.5,2.09,3.91,2.96,2.81,1.74,5.91,2.87,9.02,3.77,3.12.89,6.25,1.59,9.36,2.37,6.24,1.53,12.48,3.07,18.72,4.6,3.13.76,6.23,1.56,9.39,2.29,3.15.72,6.38,1.31,9.67,1.45,6.63.3,13.1-1.52,19.17-3.73,3.29-1.22,6.5-2.49,9.75-3.8,3.23-1.34,6.46-2.82,9.46-4.75,1.52-.97,2.91-2.06,4.28-3.13,1.38-1.09,2.73-2.21,4.05-3.38,2.62-2.35,5.13-4.88,7.29-7.72,1.08-1.42,2.1-2.9,2.97-4.48.89-1.59,1.57-3.19,2.33-4.78,1.41-3.21,2.73-6.45,3.97-9.72,2.49-6.53,4.66-13.17,6.58-19.89,1.04-3.47,1.88-7,2.78-10.51l1.17-5.31c.19-.89.4-1.77.57-2.66l.49-2.68c1.4-7.13,2.24-14.37,2.76-21.63.64-8.92.39-17.91-1.92-25.72-1.8-6.14-3.28-2.89-2.04,4.05Z"/>
      <path class="cls-1" d="M237.42,124.44c1.57.62,3.1,1.45,4.36,2.68,1.25,1.22,2.38,2.63,3.25,4.23,1.82,3.15,2.89,6.78,3.46,10.43.18.91.21,1.84.33,2.76.03.92.12,1.85.08,2.77-.01.46-.01.92-.04,1.38l-.12,1.36c-.11.91-.24,1.85-.41,2.78-.64,3.71-1.65,7.4-2.68,11.12-.88,3.21-1.91,6.53-2.72,10.02-.41,1.74-.74,3.53-.99,5.33-.24,1.8-.37,3.56-.57,5.24-.19,1.68-.44,3.29-.88,4.8-.46,1.52-1.02,2.86-2,4.03-.95,1.18-2.17,2.2-3.61,2.85-1.42.67-3.16.92-4.93.35-.23-.06-.25.18-.04.29.95.55,2.04.84,3.11.86,1.07.02,2.1-.19,3.05-.55,1.91-.71,3.52-1.99,4.74-3.55,1.23-1.61,1.88-3.46,2.36-5.31.46-1.86.67-3.73.87-5.58.32-3.7.96-7.28,1.9-10.86.91-3.57,2.03-7.11,3.05-10.71,1.09-3.89,2.12-7.8,2.55-11.95.17-2.08.19-4.17-.02-6.23-.06-1.04-.25-2.06-.38-3.09-.22-1.02-.37-2.05-.66-3.06-.5-2.11-1.31-4.15-2.24-6.15-1.01-1.97-2.24-3.86-3.81-5.55-.5-.5-1.04-.97-1.56-1.45-.53-.46-1.16-.82-1.75-1.19-.29-.19-.61-.33-.95-.44-.33-.12-.66-.22-.99-.31-.64-.22-1.34-.21-2.01-.15-1.05.1-1.39.72-1.27,1.35.13.64.63,1.29,1.51,1.5Z"/>
      <path class="cls-1" d="M72.97,120.18c-2.55-.87-5.29-1.03-7.9-.61-2.61.42-5.09,1.38-7.31,2.76-2.22,1.38-4.17,3.18-5.71,5.31-1.54,2.12-2.63,4.62-3.21,7.11-1.2,5.04-.88,10.11-.58,14.95.33,4.84.65,9.75,1.61,14.66.41,2.11.93,4.25,1.63,6.38l.56,1.6.61,1.54c.34.88.64,1.94.93,2.96,1.17,4.17,2.25,8.51,3.65,12.75.71,2.12,1.47,4.23,2.46,6.28.5,1.03,1.04,2.04,1.76,3.04.39.5.76,1,1.41,1.47.57.38,1.12.66,1.74.87,1.22.41,2.49.43,3.63.2,1.14-.22,2.16-.66,3.1-1.17,1.86-1.04,3.37-2.44,4.7-3.9.17-.18-.07-.29-.27-.15-1.82,1.34-3.76,2.55-5.84,3.21-1.03.32-2.1.5-3.12.4-1.01-.09-2-.51-2.76-1.13-.69-.63-1.26-1.67-1.75-2.66-.49-1.02-.92-2.08-1.33-3.15-.81-2.15-1.5-4.36-2.16-6.58-.66-2.22-1.28-4.46-1.89-6.7-.64-2.25-1.19-4.48-2.05-6.75-1.8-4.23-2.73-8.74-3.25-13.34-.28-2.47-.45-4.97-.59-7.47-.13-2.51-.28-5.02-.3-7.49-.02-2.47.08-4.92.52-7.28.21-1.18.5-2.33.89-3.44l.3-.82.36-.78.36-.78.45-.74c2.46-4.06,6.77-7.04,11.39-7.84.71-.07,1.42-.21,2.12-.18.35,0,.7-.03,1.04,0,.34.03.68.05,1.02.07.34,0,.67.06,1,.1l1,.09c.33.06.66.1.99.13l.52.03c.17.03.33.05.5.08,1.07.14,1.74-.3,1.76-.94.01-.32-.14-.7-.47-1.09-.16-.19-.37-.38-.62-.57-.25-.17-.57-.29-.91-.41Z"/>
      <path class="cls-1" d="M183.09,178.86c-1.72,2.87-3.52,5.69-5.35,8.5-.92,1.39-1.81,2.88-2.72,4.03-.94,1.18-1.93,1.92-3.2,2.25-1.09.3-2.38.18-3.67-.13-1.31-.32-2.57-.81-3.96-1.34-1.38-.52-2.88-1.01-4.46-1.17-1.57-.16-3.26.06-4.57.9-.08.05-.05.28.03.28,1.46-.04,2.98.3,4.46.82,1.48.51,2.94,1.18,4.46,1.79,1.52.61,3.12,1.12,4.81,1.34,1.67.22,3.51.11,5.18-.69,1.82-.86,3.11-2.41,4.16-3.83l3.07-4.24c1.04-1.48,2.07-2.95,3.11-4.42.64-.91,1.42-1.7,1.2-3.02-.18-1.04-2.07-1.83-2.54-1.05Z"/>
      <path class="cls-1" d="M113.98,147.01c.29-.61,1.42-1.08,2.43-.89.5.08.95.28,1.27.56.38.35.68.78.9,1.29.87,2.05.17,5.07-1.36,6.64-.66.68-1.48.92-2.4.86-.91-.07-1.78-.48-2.39-1.02-.6-.52-1.08-1.31-1.42-2.37-.31-1.05-.54-2.35-.13-3.99.02-.11-.16-.24-.22-.16-1.2,1.32-1.67,3.04-1.55,4.66.09,1.62.92,3.23,2.26,4.18,1.33.94,2.99,1.34,4.61,1.06,1.66-.25,3.11-1.37,4-2.7.98-1.44,1.57-3.1,1.71-4.88.13-1.75-.22-3.73-1.54-5.34-.33-.39-.75-.8-1.24-1.1-.48-.32-1-.52-1.53-.68-1.07-.29-2.18-.3-3.29-.03-.67.18-1.38.45-1.93.96-.56.5-.9,1.28-.74,2.04.15.62.79.84,1.39.93.61.08,1.1.12,1.19-.02Z"/>
      <path class="cls-1" d="M197.04,141.77c.64-.38,1.79-.26,2.53.3.71.49,1.18,1.52,1.19,2.58.1,2.21-1.48,4.24-3.54,5.8-.46.35-.91.64-1.23.74-.32.09-.44.06-.76-.05-.61-.24-1.37-.93-1.88-1.68-.55-.77-.99-1.67-1.39-2.71-.38-1.05-.74-2.25-.81-3.84,0-.1-.21-.19-.25-.11-1.47,2.9-1,6.27.85,8.65.48.58,1.03,1.12,1.69,1.53.66.4,1.45.71,2.34.68.9-.03,1.67-.44,2.28-.83.61-.4,1.19-.81,1.76-1.28,1.21-1,2.35-2.22,3.09-3.78.74-1.58,1.01-3.43.48-5.29-.28-.96-.79-1.88-1.61-2.64-.8-.74-1.77-1.23-2.83-1.47-.65-.14-1.35-.23-2.02-.06-.66.16-1.29.59-1.55,1.29-.19.58.22,1.13.66,1.54.45.4.85.72,1,.63Z"/>
      <path class="cls-1" d="M168.68,138.89c-4.15-.31-8.36-.29-12.45.64-1.75.4-3.71.66-5.44,1.48-1.72.82-3.21,2.21-3.68,4.58-.02.07.12.25.16.22,2.98-2.32,6.67-3.59,10.4-4.04,2.02-.25,4.05-.22,6.04-.06,1.03.08,2.06.16,3.07.33.63.09,1.2.4,1.87-.43.54-.65.61-2.68.04-2.72Z"/>
      <path class="cls-1" d="M220.22,127.65c-6.24.82-12.67.31-19.14-.12-6.47-.43-13.16-.72-19.79.57-2.85.54-5.79,1.36-8.63,2.63-.72.36-1.37.62-2.16,1.11-.39.25-.81.55-1.22.98-.4.42-.78,1.01-.97,1.66-.37,1.31-.12,2.27-.07,2.92l.22,2.16c.6,5.82,1.5,11.65,3.8,16.68.07.16.29.04.26-.12-.82-6.11-1.23-12.34-1.77-18.54-.07-.79-.21-1.57-.11-2.16.08-.57.47-1.01,1.05-1.4,1.21-.75,2.67-1.39,4.07-1.92,2.85-1.07,5.86-1.69,8.91-2.01,6.6-.69,13.23.07,19.94.68,3.49.31,7.01.55,10.59.54,2.19,0,4.42.07,6.26-1.09,1.44-.92.42-2.81-1.23-2.57Z"/>
      <path class="cls-1" d="M223.22,137.52c.1,6.42-.14,12.85-.67,19.25l-.21,2.4c-.04.4-.07.82-.12,1.03-.03.13-.04.16-.05.18-.02.03-.03.06-.06.08.03.04-.54.23-1.26.23l-2.4.07c-3.22.08-6.44.13-9.66.16-5.55.04-11.48-.36-17.32-.5-5.85-.16-11.54-.05-17.03.86-.17.03-.13.26.04.28,6.24.78,12.44,1.12,18.65,1.38,6.21.26,12.42.4,18.66.45l5.04.02h2.52c.86-.03,1.62.04,2.66-.08.51-.08,1.09-.2,1.7-.61.58-.38,1-1.01,1.18-1.67.17-.59.2-1.06.25-1.46l.15-1.26c.19-1.68.37-3.35.52-5.03.32-3.49.52-6.98.68-10.48.1-2.15.34-4.27-.57-6.2-.72-1.52-2.73-.82-2.7.91Z"/>
      <path class="cls-1" d="M89.42,153.46c-.67-3.38-1.05-6.83-1.15-10.28-.02-.86-.03-1.73-.02-2.59l.03-1.29.05-1.12c.02-.07-.03-.2.05-.23l.42-.11c.85-.22,1.69-.47,2.54-.67,6.79-1.71,13.7-2.93,20.66-3.65,6.96-.72,13.98-.96,20.97-.68,1.75.05,3.5.18,5.24.28l2.62.22c.91.06,1.73.17,1.86.31.07.05.1.07.19.27.08.19.15.5.21.89.1.82.21,1.72.3,2.58.19,1.73.32,3.47.43,5.21.35,6,.14,12.24-.61,18.49l-.15,1.17-.04.26h0s0,.02,0,.02c0,0-.02,0-.03,0l-.42.16c-.16.07-.33.12-.52.16-.74.18-1.45.39-2.21.54l-2.29.43c-3.11.49-6.27.87-9.45,1.18-12.7,1.25-25.37,2.06-36.75,4.25-.36.07-.16.29.21.27,13.55-.69,27.12-1.01,40.65-2.46,3.38-.37,6.76-.85,10.12-1.73.42-.1.84-.21,1.25-.38l1.54-.58c.05-.04.17-.02.17-.1l.03-.21.06-.43.11-.85.15-1.27c.2-1.69.35-3.4.48-5.1.49-6.81.37-13.68-.35-20.51-.13-.91-.1-1.81-.52-2.95-.21-.55-.65-1.15-1.23-1.49-.57-.35-1.15-.46-1.65-.54-1.91-.2-3.69-.39-5.55-.51-3.68-.28-7.38-.42-11.07-.41-7.39-.02-14.79.53-22.12,1.58-3.8.57-7.58,1.28-11.33,2.13l-2.81.67-3.77.99-.33.09c-.1.04-.04.21-.07.3l-.05.68-.09,1.37-.09,1.57c-.04.98-.06,1.95-.06,2.93,0,4.79.36,9.59,2.17,13.59.72,1.57,1.51,1.85,1.97,1.29.48-.56.64-1.92.28-3.74Z"/>
      <path class="cls-1" d="M90.57,127.55l-.02-.1-2.51,1.4,5.19,4.42,2.34-1.83-.38-.74-.2-.38c-.02-.05-.09-.15-.07-.17l.16.07c.21.09.41.21.61.34l.15.1.28.22c.46.36.92.74,1.35,1.14l2.25-1.91-3.26-4.99-2.36,1.79c1.86,2.11,4.05,3.91,6.49,5.32l1.84-2.27c-.42-.47-.81-.96-1.17-1.48l-.2-.3-.1-.17c-.11-.22-.26-.52-.27-.71.32.13.62.29.9.48l.26.18.49.36c.32.25.64.5.96.76.62.52,1.22,1.08,1.79,1.67l2.36-1.78-4.61-7.96-2.27,1.9c3.2,2.72,6.4,5.44,9.61,8.16l2.15-2.12c-.51-.62-1.01-1.25-1.49-1.89l-.22-.3-.12-.18c-.16-.23-.3-.47-.42-.7.23.08.54.25.78.4l.19.12.54.36c.71.49,1.4,1.01,2.07,1.54l2.11-2.27c-1.75-1.9-3.23-4.07-4.36-6.39l-2.49,1.82c2.68,2.56,5.36,5.13,8.05,7.7l2.38-2.07c-1.8-2.52-3.36-5.22-4.65-8.04l-2.23,2.06c3.3,1.83,6.35,4.1,9.06,6.72l2.37-2.18c-1.75-2.15-3.26-4.51-4.49-7l-2.37,2.05c1.68,1.16,3.29,2.41,4.83,3.74,1.85,1.6,3.61,3.34,5.26,5.2l2.46-2.15c-2.52-2.94-4.61-6.32-6.13-9.95l-2.83,1.77c2.64,3.07,5.61,5.91,8.85,8.43l2.65-2.15c-1.38-2.95-2.78-5.91-4.17-8.88l-3.13,1.78c2.43,3.66,5.35,7,8.68,9.89l2.8-2.32c-2-3.41-4-6.82-5.99-10.22l-3,2.06c3.1,3.79,6.18,7.57,9.25,11.32l2.75-1.96c-2.13-3.25-4.26-6.49-6.37-9.71l-2.33,1.79c3.72,3.84,7.43,7.62,11.13,11.3l1.59-1.04c-1.93-3.92-3.61-7.91-5.07-11.92l-.53.25c2.88,3.74,5.38,7.67,7.53,11.72.31.58.38.18.11-.44-1.84-4.19-4.08-8.19-6.67-11.94l-1.57.74c1.28,4.19,2.82,8.3,4.6,12.29l1.29-.85c-3.6-3.87-7.21-7.73-10.81-11.59l-1.11.85,6.21,9.8,1.08-.77-9.17-11.39-1.06.73,5.97,10.23.98-.81c-3.15-2.74-5.94-5.91-8.26-9.38l-1.15.65,4.19,8.87,1.04-.84c-3.1-2.39-5.96-5.1-8.52-8.07l-1.22.76c1.61,3.83,3.82,7.41,6.52,10.58l1.17-1.03c-3.1-3.52-6.63-6.68-10.5-9.37l-2.69-1.88,1.44,2.96c.81,1.67,1.74,3.28,2.78,4.81.62.92,1.28,1.81,1.97,2.68l1.33-1.22c-2.85-2.8-6.08-5.22-9.56-7.18l-2.58-1.45,1.22,2.72c1.34,2.99,2.96,5.84,4.85,8.51l1.58-1.38-8-7.75-1.81,1.33c1.23,2.57,2.84,4.96,4.76,7.07l1.64-1.77c-.72-.58-1.46-1.14-2.21-1.67l-.64-.44-.94-.61c-.63-.39-1.26-.77-1.89-1.11-1.25-.7-2.43-1.25-3.59-1.78l-1.78-.81-.93-.42-.48-.21c-.16-.07-.34-.16-.42-.17,1.27,2.26,2.31,4.23,3.74,6.52.36.57.74,1.15,1.14,1.73l.61.87.55.76c.5.68,1.02,1.35,1.56,2.01l1.96-1.94-9.55-8.23-2.24,1.88.96,1.69,3.6,6.3,2.46-1.86c-.64-.67-1.31-1.3-2.01-1.9-.35-.3-.71-.59-1.08-.87l-.56-.41-.33-.23-.5-.34c-1.35-.88-2.72-1.61-3.98-2.15l-3.85-1.62c.27,1.02.59,2.06.87,3.01.28.95.59,1.95,1.08,3.03.24.54.52,1.09.84,1.65l.5.83.27.41.17.26c.43.62.89,1.21,1.39,1.77l2.08-2.57c-2.13-1.25-4.05-2.84-5.66-4.7l-2.74,2.08,3.22,5.02,2.66-2.26c-.33-.3-.66-.59-1-.88l-.74-.59c-.46-.34-.92-.69-1.39-.99-.93-.63-1.87-1.18-2.76-1.63-1.77-.88-3.31-1.49-5.14-2.31l-.34-.15-.17-.07s.04.1.05.14l.29.66.59,1.32c.4.88.79,1.76,1.18,2.64.8,1.75,1.59,3.48,2.37,5.21l2.79-2.19c-1.79-1.47-3.57-2.89-5.36-4.21l-3.32-2.44.83,3.83c.31,1.41.92,2.7,1.75,3.77.29.37.58.68.85.92l.76-1.64c-3.14.65-2.71,1.68.06,2.16l1.91.34-1.04-2.21c-.43-.92-.98-2.15-1.25-3.7Z"/>
      <path class="cls-1" d="M219.08,122.84l.09-.27.05-.2.07-.27c.19-.82.36-1.65.5-2.48l-2.71-1.16-4.74,6.41,2.51,1.63c1.49-2.65,2.48-5.57,2.91-8.58l-2.74-.99c-1.67,2.72-3.67,5.24-5.95,7.48l2.46,1.47,2.34-7.98-2.71-1.16c-.28.48-.58.96-.9,1.43-.11.16-.16.23-.24.33-.14.18-.3.35-.46.51l-.25.23-.07.05-.03.03s.01-.05.02-.07l.1-.35.39-1.4-1.08-1.43-1.78-.13c-2.36,2.71-4.73,5.42-7.1,8.13l2.55,1.55c.91-2.29,1.54-4.7,1.86-7.15l.75-5.69-3.49,4.57-1.52,2-.39.51.14-.66.25-1.15-2.88-1.11c-1.56,2.64-3.36,5.14-5.37,7.46l2.7,1.53c.97-2.85,1.47-5.86,1.49-8.88l-3.04-.68c-1.37,2.9-3.01,5.66-4.9,8.25l2.85,1.37.42-1.58c.18-.72.34-1.44.46-2.13.24-1.39.29-2.6.21-3.59-.07-1.02-.27-1.81-.5-2.67l-.37-1.4-.22-.78-.39.39-1.54,1.55-.39.39c-.07.07-.13.12-.2.2l-.28.49-1.12,1.95-3.43,5.98c-.89,1.54-1.78,3.09-2.67,4.65l2.98,1.26c1.28-4.36,2.59-8.78,3.9-13.25l-3.06-1.35c-.5.78-1,1.56-1.5,2.35-.05.05-.08.08-.09.09l.09-.29c.02-.06.04-.1.05-.12l.83-3.96-3.48-1.09c-2.21,5.22-4.43,10.46-6.63,15.68l3.44,1.14c1.34-5.68,2.65-11.35,3.9-16.98l-3.09-.9c-1.75,5.47-3.89,10.76-6.36,15.82l2.08.71c.59-4.78,1.5-9.47,2.7-14.01l-.74-.29c-1.81,4.68-3.27,9.37-4.38,14-.14.6.17.36.37-.23,1.49-4.5,3.21-8.93,5.15-13.25l-1.61-.63c-1.49,4.61-2.61,9.33-3.36,14.11l1.42.48c2.72-5.13,5.02-10.48,6.88-15.97l-1.31-.38-4.06,16.94,1.22.4,6.65-15.67-1.23-.39c-.76,3.66-1.52,7.31-2.28,10.97l-.07,3.54,2.35-2.54,5.12-8.28-1.32-.58c-1.3,4.41-2.6,8.83-3.91,13.25l1.44.61,4.03-6.93,1.11-1.89.54-.91.26-.44c.05-.15.06.06.09.12.03.09.04.18.06.27.13.72.09,1.45-.03,2.14-.06.35-.13.68-.22,1.01l-.36,1.31,1.66.8c2-2.71,3.75-5.6,5.2-8.64l-1.93-.43c-.03,2.74-.51,5.47-1.4,8.04l1.84,1.05c2.12-2.43,4.03-5.05,5.7-7.81l-2.14-.82-1.51,7.12c.24.65.5,1.28.78,1.88.64-.19,1.27-.35,1.89-.48l5.32-6.94-2.37-.97c-.31,2.21-.9,4.38-1.73,6.45l2.34,1.42,2.34-2.64.54-.57.49-.51-.09.3-.16.51-.72,4.12-.18,1.03-.02.13s-.05.13.02.06l.27-.21.53-.43,1.97-1.6c.63-.52,1.26-1.03,1.92-1.63.66-.61,1.34-1.31,2.03-2.08.68-.78,1.38-1.69,1.97-2.54.36-.52.7-1.06,1.02-1.61l-2.97-1.27-2.4,7.97-1.86,6.2,4.65-4.53c2.47-2.41,4.65-5.11,6.48-8.04l-3.22-1.16c-.17,1.08-.41,2.15-.74,3.19-.46,1.48-1.1,2.9-1.86,4.23l3.05,1.98c1.63-2.15,3.23-4.28,4.75-6.41l-3.24-1.38c-.12.78-.24,1.52-.4,2.31-.16.68-.34,1.45-.56,2.2-.21.75-.48,1.52-.76,2.31.9.46,1.14.65,1.28.9l.04.09s.01-.03.02-.05c.01-.06.03-.12.06-.18.06-.13.14-.28.27-.45.18-.23.44-.48.75-.75.06-.05.12-.1.18-.15l.05-.04.02-.02h.01s.13-.17.13-.17c.2-.25.45-.54.58-.74h0s-.04.05-.05.06c.02-.01.04-.02.06-.01.09,0,.18.08.25.15.15.15.19.37.34.48.12.11.48.08.72-.41.11-.24.17-.57.04-.97-.07-.2-.19-.42-.4-.62-.07-.08-.05-.04-.07-.04h-.02c-.07.05-.08.06-.07.06,0,0,0,0,0,.03-.02.04.03-.05.05-.09.02-.05.04-.09.06-.13Z"/>
      <path class="cls-1" d="M85.65,77.82c-.62-.61-1.35-1.43-2.04-2.15l-2.08-2.23-4.16-4.47-2.39,1.79,7.74,12.85,3.85,6.42c.31.53.61,1.06.9,1.59l.41.8.18.36c.1.22.19.45.24.69-.14.02-.37-.09-.53-.17-.09-.05-.17-.1-.25-.16l-.43-.32-.54-.44c-1.43-1.22-2.67-2.74-3.81-4.35-2.3-3.24-4.34-7.1-7.9-9.98l-2.21,2.04,7.96,11.86,3.98,5.93.97,1.46.27.44.06.12c.06.13.16.37.07.44-.13-.03-.25-.08-.36-.14-.05-.03-.11-.06-.16-.1l-.34-.24c-.16-.11-.31-.24-.47-.38-1.24-1.03-2.36-2.31-3.47-3.66-2.23-2.68-4.39-5.79-7.75-8.02l-2.18,2.3c2.4,3.3,4.76,6.65,7.07,10.02,1.64,2.4,3.27,4.85,4.88,7.34.84,1.26,1.52,2.4,1.49,3.17.01.3-.17.7-.33.85-.09.08-.11.07-.14.08-.03,0-.05.01-.2-.04-.28-.09-.83-.49-1.42-.96-.58-.45-1.15-.92-1.71-1.39-1.12-.95-2.21-1.96-3.25-3.01-2.09-2.1-4.01-4.38-5.73-6.81l-2.97,2.07c4.16,6.24,8.37,12.51,12.61,18.7l.8,1.16.18.26h0s.02.02.02.02l.05.05s-.01.04-.03.05c-.02.01-.04.02-.07.03-.01,0-.03,0-.04,0h-.02s-.05-.02-.12-.05c-.55-.25-1.14-.73-1.76-1.34-2.6-2.59-5.25-5.22-7.87-7.77l-2.2,1.68c1.56,2.43,3.13,4.84,4.71,7.21.79,1.18,1.58,2.36,2.36,3.53l1.18,1.75.86,1.19c.72,1.02,1.43,2.03,2.14,3.04l.32.46.08.12.04.06s-.02,0-.04,0l-.16-.02c-.22-.02-.44-.06-.68-.11-.47-.1-.98-.24-1.51-.46-1.08-.46-2.27-1.11-3.51-2.05-1.09-.82-2.11-1.77-2.99-2.83-.37-.44-.39-.07-.05.42.43.59.89,1.16,1.39,1.69.24.27.51.52.77.78.29.26.48.45.93.81,1.6,1.33,3.3,2.21,4.78,2.78.75.29,1.51.56,2.31.82l.62.2.31.1c0-.05-.07-.16-.1-.24l-.5-1.03-1.01-2.06-1.56-2.57c-2.97-4.88-5.93-9.76-8.9-14.64l-1.13.87,7.82,8.05c.68.67,1.45,1.36,2.43,1.8,1.15.53,2.51.51,3.51-.02.25-.13.49-.29.68-.49.1-.09.2-.2.29-.31l.14-.16c.03-.06-.04-.12-.05-.18l-.32-.71-.16-.36c-.06-.12-.17-.26-.25-.39l-1.76-2.6c-4.17-6.2-8.34-12.4-12.52-18.6l-1.08.75c2.26,3.16,4.84,6.09,7.71,8.72,1.45,1.32,2.9,2.55,4.53,3.72.43.29.94.58,1.57.7.64.13,1.36,0,1.91-.38,1.08-.75,1.54-1.97,1.48-3.17-.08-1.16-.59-2.16-1.1-3.01-.53-.85-1.04-1.63-1.57-2.45l-3.18-4.83c-2.15-3.2-4.34-6.38-6.57-9.53l-1.39-1.94-1.22,1.29c2.8,1.87,4.86,4.77,7.13,7.56,1.14,1.4,2.34,2.8,3.79,4.03.18.16.35.31.55.45l.68.49c.57.41,1.18.64,1.77.97.15.07.3.16.45.22l.43.14.87.29c.57.19,1.23.35,1.85.53l.09-.16c.03-.05,0-.19.02-.28v-.59c-.01-.38-.03-.74-.06-1.11-.06-.72-.24-1.51-.58-2.34-.18-.41-.38-.84-.61-1.25l-.35-.6-.25-.4-.99-1.51-3.94-5.96-7.87-11.93-1.98,1.82c1.72,1.42,3.14,3.26,4.47,5.24,1.34,1.97,2.6,4.11,4.21,6.12,1.11,1.37,2.35,2.7,3.84,3.81l.36.26.48.3c.32.19.65.43.97.58l.98.47.95.35c.62.2,1.2.34,1.82.5.58.14,1.32.35,1.91.47-.43-1.7-.66-3.12-1.29-4.87-.14-.43-.34-.87-.52-1.3l-.53-1.14c-.24-.49-.49-.96-.74-1.43-1.04-1.87-2.1-3.59-3.14-5.37l-6.27-10.62c-.91-1.54-1.81-3.08-2.7-4.6l-2.91,2.18c1.77,1.95,3.53,3.86,5.31,5.66.9.91,1.78,1.76,2.72,2.63.96.86,2.24,1.94,4.02,2,1.79.01,2.7-1.13,2.73-1.7.06-.61-.31-.66-.67-.61-.39.04-.82.07-1.4-.06-.31-.08-.55-.18-.86-.38-.33-.2-.7-.51-1.15-.94Z"/>
      <path class="cls-1" d="M229.47,76.77l5.35-8.69-2.67-1.36-5.47,13.32-2.74,6.67c-.91,2.26-1.75,4.65-2.16,7.2l-.41,2.55,2.38-.92c2.19-.85,3.62-2.46,4.76-4.02,1.14-1.59,2.02-3.27,2.81-4.95,1.58-3.31,2.87-6.69,4.93-9.22l-2.56-1.6-5.55,12-1.7,3.69-1.28,2.78c-.43.93-.84,1.85-1.11,2.63-.54,1.57-.67,2.48-.76,3.37-.07.88-.12,1.79-.14,3.18l.26-.08.33-.15.67-.31,1.11-.53c.64-.33,1.21-.62,1.79-1.06.29-.22.57-.42.88-.74.3-.29.6-.55.94-.99.33-.4.65-.74,1.02-1.31.36-.53.71-.97,1.07-1.63.36-.62.73-1.2,1.08-1.86l1.01-1.83c.38-.69.76-1.36,1.15-2.02.78-1.31,1.62-2.54,2.58-3.52l-2.59-1.85c-1.58,3.35-3.16,6.71-4.74,10.07-1.14,2.41-2.29,4.85-3.46,7.31-.29.62-.59,1.21-.87,1.9-.29.68-.56,1.44-.72,2.28-.07.45-.14.77-.12,1.51.03.65.17,1.28.39,1.84.45,1.12,1.32,1.95,2.47,2.06,1.1.1,2.12-.55,3-1.59l.86-1,.68-.83c.9-1.12,1.76-2.27,2.57-3.46,1.62-2.37,3.07-4.87,4.35-7.46l-3.28-1.55c-2.74,6.73-5.47,13.55-8.14,20.27l-1,2.51-.5,1.25-.25.62-.12.31c.03.1.15.19.23.28.36.36.84.65,1.32.79.48.14.94.15,1.33.1.77-.13,1.35-.39,2.1-1.02.19-.16.38-.34.58-.57.17-.22.3-.45.45-.68l.86-1.35,1.7-2.68c1.09-1.75,2.18-3.49,3.27-5.22l-2.46-1.29c-2.47,6.68-4.77,13.27-6.81,19.71l-.18.55.46-.29c2.86-1.78,4.57-4.66,5.51-7.51.15-.46-.16-.32-.36.12-1.23,2.65-3.13,5.1-5.64,6.41l1.22,1.13c2.59-6.45,5.17-12.89,7.75-19.33l-1.26-.66-4.71,7.39c-.3.44-.63.9-1.1,1.19-.46.3-1.16.21-1.44-.28l-.05-.09.06-.13.12-.26.24-.52.47-1.03.95-2.07c2.55-5.55,5.11-11.1,7.66-16.65l-1.19-.56c-1.52,3.1-3.3,6.08-5.34,8.86-.51.69-1.04,1.37-1.59,2.04l-.82.97c-.18.2-.35.41-.55.58-.19.17-.46.32-.72.22-.25-.1-.41-.34-.51-.58-.19-.53-.22-.92-.05-1.79.33-1.51,1.24-3.1,1.96-4.68l2.26-4.73c1.51-3.15,3.02-6.31,4.53-9.47l.89-1.87-1.44-1.03c-1.22,1.22-2.14,2.6-2.99,3.99-.42.7-.82,1.39-1.21,2.09l-.59,1.04c-.37.62-.73,1.21-1.15,1.71-.21.25-.44.46-.68.65-.13.08-.26.16-.39.22l-.21.07s-.08.03-.1.03v-.14c.11-1.04.6-1.92.98-2.71l.56-1.14,1.17-2.47,5.65-11.95-2.29-1.43c-1.55,1.87-2.61,3.94-3.59,5.95-.98,2.02-1.84,4.04-2.86,5.88-.65,1.18-1.37,2.3-2.19,3.26-.81.95-1.74,1.73-2.68,2.06l2.1,1.73c.58-3.5,2.22-6.92,3.7-10.5l4.48-10.63c.75-1.77,1.5-3.53,2.24-5.27l-3.26-1.67c-1.19,1.89-2.35,3.77-3.4,5.64-.53.94-1.03,1.88-1.51,2.82-.46.93-.88,1.78-1.23,2.15-.11.16-.23.27-.39.32-.17.06-.39,0-.58-.05-.37-.12-.72-.15-.85.32-.05.22-.04.59.25,1.01.28.41.92.83,1.73.82.39,0,.83-.11,1.2-.29.35-.17.66-.39.94-.64.55-.49.97-1.07,1.33-1.66Z"/>
      <path class="cls-1" d="M236.66,121.34c.94-6.6,1.56-13.25,1.74-19.94.17-6.68-.16-13.39-1-20.04-.47-3.32-.98-6.63-1.72-9.9-.73-3.29-1.5-6.48-2.56-9.76-2.26-6.51-6.04-12.34-10.69-17.32-4.66-4.98-10.3-8.99-16.39-11.97-.38-.2-.75-.41-1.13-.59l-1.17-.49-2.34-.99-2.34-.98-2.41-.78-2.41-.77c-.81-.24-1.6-.56-2.43-.71l-4.93-1.13c-1.63-.43-3.31-.61-4.97-.86l-4.99-.72c-3.35-.31-6.7-.56-10.06-.57-6.72-.11-13.43.45-20.06,1.44-5.71.87-11.46,2.11-17.19,3.71-5.73,1.62-11.41,3.49-17.05,5.85-5.63,2.38-11.01,5.45-16.01,9.09-4.98,3.65-9.59,7.89-13.4,12.79-3.82,4.88-6.9,10.35-8.89,16.16-2,5.84-2.65,11.9-2.99,17.72-.68,11.67-.04,23.12,2.3,33.56.14.66.32.28.22-.4-1.78-12.49-1.54-25.24-.12-37.78.39-3.12.9-6.23,1.78-9.23.47-1.49.87-3.01,1.49-4.45.29-.73.56-1.46.87-2.18l1.02-2.12c2.74-5.64,6.62-10.68,11.04-15.13,4.42-4.47,9.53-8.23,14.96-11.41,2.71-1.61,5.55-2.98,8.42-4.28,2.9-1.22,5.85-2.36,8.85-3.36,5.98-2.05,12.1-3.73,18.3-4.96,6.2-1.25,12.49-2.08,18.82-2.38,6.8-.33,13.65-.13,20.36.92l5.04.76,4.95,1.16c.82.2,1.66.37,2.47.6l2.41.79,2.41.79,1.2.39c.39.15.78.33,1.17.49,6.31,2.41,12.17,5.92,17.24,10.27,1.24,1.12,2.44,2.29,3.62,3.47l1.65,1.88.83.94.75,1,1.49,2,1.34,2.11c.47.69.84,1.44,1.24,2.16l.6,1.09.53,1.13.54,1.17.48,1.19c.34.79.59,1.6.87,2.41.25.8.47,1.65.7,2.51.22.85.47,1.69.66,2.55.85,3.41,1.5,6.86,2.05,10.33.54,3.47.87,6.97,1.12,10.47.18,3.51.3,7.02.19,10.53-.19,8.66-1.33,17.06-1.74,24.91-.36,6.21,2.15,3.96,3.23-3.19Z"/>
      <path class="cls-1" d="M82.83,195.8c-.95-3.48-2.27-6.85-3.94-10.05l-2.38,1.72c.48.49.99.94,1.53,1.35.28.21.52.38.86.6.47.29.94.56,1.41.8.96.47,1.89.79,2.76,1l2.7.65c-.26-1.4-.44-2.53-.82-3.84-.1-.33-.21-.66-.36-1.01-.13-.34-.29-.69-.47-1.04-.17-.35-.35-.69-.56-1.04l-.38-.62c-.99-1.57-2.11-2.97-3.04-4.34-.23-.34-.46-.69-.66-1.04-.06-.1-.08-.14-.11-.21-.06-.13-.11-.26-.14-.39-.05-.2-.07-.73.19-.3l.29.32.14.15.07.07.49.48c1.37,1.35,2.77,2.66,4.2,3.95l3.36,3.02-.69-4.47c-.31-2.02-1.21-3.79-2.18-5.32-1.24-1.95-2.65-3.64-3.6-5.42-.98-1.78-1.52-3.68-1.11-5.27l-2.96.92c2.57,2.48,4.82,5.31,6.72,8.34l3.18-1.74c-1.91-3.73-3.83-7.44-5.81-11-.99-1.78-2-3.53-3.04-5.23-.52-.85-1.04-1.69-1.58-2.52-.5-.82-1.1-1.75-.92-3.06.06-.32-.21-.26-.32.08-.19.72-.12,1.41.02,1.98.14.58.35,1.1.56,1.57l1.2,2.78,2.47,5.54c1.67,3.67,3.41,7.32,5.2,10.93l1.13-.62c-1.97-3.25-4.38-6.24-7.14-8.87l-.85-.81-.27,1.15c-.37,1.59-.13,3.25.38,4.71.52,1.47,1.28,2.81,2.12,4.06,1.67,2.46,3.55,4.75,4.17,7.38.07.25.1.51.15.77l1.49-.81c-1.38-1.28-2.74-2.59-4.06-3.93l-1.29-1.32-1.57-1.66-3.29-3.61c-.13.09-.27.21-.38.25l-.17.05h-.04s-.02.11-.03.15l-.05.32c-.14.84-.23,1.57-.28,2.29-.08,1.45.19,3.19,1.16,5.28.25.49.54,1.07.8,1.5.18.32.37.62.56.93.39.61.79,1.19,1.18,1.75.78,1.12,1.57,2.24,2.16,3.29.11.24.17.47.14.62-.2-.07-.35-.16-.46-.24l-.07-.06c-.16-.11-.41-.29-.61-.45-.41-.33-.8-.68-1.16-1.06l-2.75,2c.43.86.82,1.72,1.19,2.6,1.14,2.72,1.79,5.48,3.27,7.85,1.13,1.91,2.98.64,2.32-1.89Z"/>
      <path class="cls-1" d="M230.06,209.09c-1.7-.12-3.39-.45-5.11-.37-.73.03-1.56-.22-2.33.02-.76.24-1.44.97-1.65,2.88,0,.06.05.28.07.26,1.33-.83,2.88-.93,4.37-.68.81.13,1.59.4,2.35.67.39.14.79.24,1.17.39.24.09.43.36.8-.49.29-.67.56-2.67.32-2.69Z"/>
      <path class="cls-1" d="M77.2,214.2c.71-.94,1.76-1.52,2.72-2.17.42-.28,1.03-.29,1.42-.66.39-.37.55-1.12.28-2.99,0-.06-.11-.26-.12-.25-.94,1-2.03,1.5-3.24,2-.65.27-1.35.5-2.02.81-.35.16-.67.36-1,.55-.2.11-.54.11-.04.88.4.6,1.91,1.95,2,1.83Z"/>
      <path class="cls-1" d="M225.58,133.1c.65-.37,1.31-.78,1.95-1.24.64-.46,1.25-1,1.76-1.47.98-.92,1.89-1.49,3.06-2.07,1.02-.51,2.43-.82,3.56-1.73.56-.45,1.05-1.06,1.28-1.82.23-.76.19-1.69-.32-2.59-.03-.06-.23-.16-.24-.13-.38,1.1-1.3,2.04-2.38,2.7-1.1.7-2.29,1.1-3.62,1.65-.7.29-1.42.65-2.11,1.07-.69.42-1.31.9-1.86,1.26-.57.38-1.09.68-1.7.94-.38.16-.82.13-.76,1.1.04.77,1.03,2.54,1.4,2.33Z"/>
      <path class="cls-1" d="M69.89,122.15c2.37,3.23,4.73,6.49,7.55,9.37,1.21,1.23,2.34,2.75,3.82,3.85,1.47,1.1,3.28,1.77,5.62,1.24.07-.02.18-.21.14-.24-3.3-1.78-6.06-4.35-8.42-7.24-1.27-1.56-2.39-3.24-3.46-4.92-.55-.88-1.12-1.74-1.63-2.63-.32-.55-.47-1.19-1.53-1.16-.84.02-2.42,1.29-2.09,1.73Z"/>
    </g>
    <path class="cls-1" d="M165.94,230.27c-4.58.46-9.09.99-13.54.94-4.42-.05-8.83-.73-12.7-2.49-3.37-1.5-6.1-4.38-8.56-7.44-2.48-3.07-4.91-6.35-8.25-8.79-.11-.08-.27.08-.21.18,2.28,3.76,4.48,7.62,7.3,11.09,1.4,1.73,2.99,3.34,4.78,4.73,1.78,1.4,3.82,2.49,5.93,3.32,4.59,1.78,9.55,2.36,14.38,2.36,2.51,0,5-.15,7.46-.28,1.51-.08,2.99.02,4.26-.98,1.01-.79.41-2.77-.84-2.65Z"/>
  </g>
</svg>