<?xml version="1.0" encoding="UTF-8"?>
<svg id="Calque_2" data-name="Calque 2" xmlns="http://www.w3.org/2000/svg" viewBox="0 0 300 300">
  <defs>
    <style>
      .cls-1 {
        fill: #1d1d1d;
      }

      .cls-2 {
        fill: #1db4b8;
      }
    </style>
  </defs>
  <path class="cls-2" d="M170.49,275.71c-2.59-5.72-3.07-12.06-4.79-18.04-1.49-5.15,3.73-13.06-17.37-12.11-.33.02-1.53.41-1.47.48,4.46,4.92,5.57,10.78,5.7,16.99.07,3.34-.4,6.84-.61,10.26-.11,1.78,0,3.49-.05,5.24-.03,1.08-1.03,2.42,4.07,1.89,4.03-.42,14.88-3.94,14.53-4.71Z"/>
  <path class="cls-2" d="M209.43,156.28c-11.51.8-23.09.42-34.58-.7-5.75-.57-11.46-1.31-17.17-2.19-5.74-.87-11.88-1.95-18.58-2.17-2.88-.09-5.91-.15-9.09.04-3.14.18-6.56.65-9.69,1.44-3.13.77-6.03,1.77-8.68,2.82-2.64,1.05-5.09,2.17-7.54,3.46-9.71,5.15-18.11,12.91-21.91,26.39-.12.43.6,1.47.85,1.3,9.37-6.44,19.33-11.82,29.66-16.36,5.2-2.27,10.3-4.44,15.34-5.18,5.07-.79,10.37-.38,15.76.55,2.91.49,5.84,1.14,8.84,1.83,3,.69,6.09,1.41,9.17,2.06,6.16,1.33,12.38,2.5,18.64,3.46,6.5.97,13.05,1.55,19.62,2.06,4.03.33,8.09,1.58,11.51-3.6,2.68-4.08.91-15.43-2.16-15.2Z"/>
  <path class="cls-2" d="M170.49,275.71c-2.59-5.72-3.07-12.06-4.79-18.04-1.49-5.15,3.73-13.06-17.37-12.11-.33.02-1.53.41-1.47.48,4.46,4.92,5.57,10.78,5.7,16.99.07,3.34-.4,6.84-.61,10.26-.11,1.78,0,3.49-.05,5.24-.03,1.08-1.03,2.42,4.07,1.89,4.03-.42,14.88-3.94,14.53-4.71Z"/>
  <path class="cls-2" d="M209.43,156.28c-11.51.8-23.09.42-34.58-.7-5.75-.57-11.46-1.31-17.17-2.19-5.74-.87-11.88-1.95-18.58-2.17-2.88-.09-5.91-.15-9.09.04-3.14.18-6.56.65-9.69,1.44-3.13.77-6.03,1.77-8.68,2.82-2.64,1.05-5.09,2.17-7.54,3.46-9.71,5.15-18.11,12.91-21.91,26.39-.12.43.6,1.47.85,1.3,9.37-6.44,19.33-11.82,29.66-16.36,5.2-2.27,10.3-4.44,15.34-5.18,5.07-.79,10.37-.38,15.76.55,2.91.49,5.84,1.14,8.84,1.83,3,.69,6.09,1.41,9.17,2.06,6.16,1.33,12.38,2.5,18.64,3.46,6.5.97,13.05,1.55,19.62,2.06,4.03.33,8.09,1.58,11.51-3.6,2.68-4.08.91-15.43-2.16-15.2Z"/>
  <g>
    <path class="cls-1" d="M210.81,200.83c-.68,10.51-1.98,20.99-3.87,31.36-.95,5.18-2.04,10.34-3.28,15.47l-.96,3.84c-.32,1.28-.65,2.52-1.08,3.65-.43,1.13-.98,2.15-1.71,2.95-.72.82-1.68,1.46-2.74,1.99-2.14,1.05-4.74,1.66-7.28,2.44l-7.63,2.23-15.26,4.46c-10.13,2.95-20.37,5.72-30.72,5.78-4.41.01-8.91-.61-12.89-2.46-3.99-1.85-7.39-4.94-10.17-8.59-2.8-3.66-5.04-7.82-7.11-12.12-2.05-4.32-4.03-8.72-5.9-13.12-7.51-17.64-13.44-35.59-18.59-52.08-.17-.52-.32-.2-.2.34,4.34,19.96,10.65,39.41,18.88,58.03,2.08,4.64,4.15,9.3,6.67,13.77,2.52,4.44,5.53,8.74,9.53,12.11,1.99,1.68,4.23,3.08,6.64,4.13,2.42,1.02,4.98,1.65,7.55,2.01,5.17.69,10.37.34,15.47-.34,5.5-.76,10.9-2.04,16.23-3.47,5.33-1.45,10.59-2.99,15.88-4.48l15.87-4.51c1.34-.39,2.71-.83,4.07-1.46,1.35-.62,2.69-1.47,3.78-2.65,1.11-1.17,1.85-2.59,2.39-3.97.54-1.39.9-2.77,1.24-4.1,2.93-11.08,5.16-22.34,6.73-33.7.97-6.98,1.83-13.88,1.32-20.25-.43-5.03-2.5-2.93-2.84,2.74Z"/>
    <path class="cls-1" d="M80.76,193.84c-2.81.84-6.07.3-8.57-1.31-1.26-.82-2.27-1.88-3.04-3.16-.77-1.3-1.32-2.8-1.79-4.37-1.88-6.41-3.1-13.03-3.69-19.69-.26-2.87-.32-5.86-.25-8.88.03-1.51.1-3.03.17-4.54.08-1.45.26-2.86.61-4.13.36-1.26.91-2.32,1.71-2.98.78-.69,1.92-.99,3.26-.96,2.69.1,5.5,1.04,8.05,2.65.16.1.27-.11.14-.25-1.2-1.29-2.63-2.33-4.19-3.09-1.56-.73-3.24-1.27-5.04-1.27-1.8-.04-3.7.84-4.78,2.29-1.11,1.44-1.61,3.14-1.9,4.79-.3,1.67-.32,3.33-.39,4.96-.04,1.64-.07,3.28-.05,4.92.04,3.28.21,6.57.53,9.86.36,3.54.86,7.06,1.56,10.56.35,1.75.74,3.49,1.18,5.22.43,1.72.91,3.5,1.71,5.26.81,1.81,2.11,3.59,3.77,4.86,1.64,1.29,3.57,2.17,5.6,2.62,1.25.27,2.53.42,3.78.29,1.24-.15,2.43-.6,3.33-1.4.7-.67.58-1.35.15-1.8-.44-.45-1.11-.66-1.86-.44Z"/>
    <path class="cls-1" d="M216.3,196.72c1.9.5,3.87.57,5.79.35,1.91-.24,3.8-.77,5.53-1.67,1.72-.9,3.33-2.13,4.55-3.73,1.21-1.58,2-3.35,2.63-5.07,2.37-6.8,3.95-13.81,4.67-20.96.31-3.07.55-6.27.6-9.51.02-1.63,0-3.23-.08-4.92-.12-1.72-.39-3.5-1.14-5.25-.38-.87-.89-1.73-1.58-2.48-.69-.75-1.55-1.37-2.49-1.75-1.91-.81-3.88-.61-5.48-.13-3.23,1-5.81,3.23-7.01,5.82-.08.16.15.24.26.12,2.07-2.33,5.16-3.94,8.28-4.25,1.55-.14,3.09.26,4.21,1.27,1.13,1,1.79,2.51,2.14,4.07.37,1.58.43,3.22.47,4.91.04,1.68.04,3.35-.03,5.03-.13,3.35-.44,6.7-.96,10.02-.57,3.57-1.35,7.11-2.37,10.57-.49,1.74-1.07,3.45-1.66,5.14-.6,1.69-1.26,3.29-2.16,4.66-.91,1.43-2.13,2.49-3.58,3.34-1.46.8-3.09,1.33-4.75,1.53-1.03.13-2.04.06-3.02.03-.99-.03-1.92-.1-2.96.03-.81.06-1.32.58-1.35,1.2-.03.59.47,1.38,1.51,1.63Z"/>
    <path class="cls-1" d="M153.81,187.98c-.49-.1-.9-.1-1.3-.06-.2.02-.4.05-.61.1l-.41.09c-.51.12-1.03.22-1.56.3-1.05.16-2.11.22-3.17.21-2.12-.03-4.24-.41-6.24-1.1-.99-.35-2-.77-2.86-1.25-.86-.49-1.51-1.04-1.9-1.74-.85-1.39-.8-3.51-.54-5.65.49-3.83,1.42-7.92,1.99-11.98.57-4.07.78-8.13-.19-12.11-.03-.13-.26-.11-.28,0-.68,4.33-1.4,8.63-2.12,12.93-.36,2.15-.72,4.3-1.07,6.46l-.53,3.24c-.18,1.08-.35,2.19-.42,3.34-.07,1.23-.03,2.54.37,3.84.38,1.3,1.29,2.55,2.37,3.37,1.08.84,2.21,1.37,3.35,1.88,1.15.5,2.34.9,3.56,1.21,2.53.63,5.18.81,7.8.57.81-.06,1.62-.15,2.37-.36.25-.07.21-.08.32-.12.08-.04.17-.08.25-.13.08-.05.15-.1.2-.16,0-.02.02-.04.03-.05,0-.04.06-.16.1-.23.06-.14.15-.26.21-.33.1-.11.13-.1.09-.09-.02,0-.07.01-.04,0,.06,0,.13,0,.2.01.29.04.59.14.89.04.28-.07.61-.44.44-1.08-.18-.62-.81-1.07-1.31-1.16Z"/>
    <path class="cls-1" d="M174.68,215.75c-.67,1.42-2.03,2.53-3.59,3.34-1.57.82-3.38,1.34-5.21,1.75-3.75.77-7.62,1.29-11.46,1.65-1.67.16-3.37.19-5.15.21-1.78.03-3.7.09-5.63.6-1.93.51-3.71,1.47-5.06,2.79-1.36,1.31-2.29,2.97-2.55,4.71-.02.11.18.21.24.13,2.05-2.89,5.36-4.93,8.94-5.49,1.8-.3,3.66-.33,5.56-.39,1.9-.07,3.8-.17,5.7-.31,2.05-.15,4.1-.34,6.15-.59,2.04-.26,4.09-.5,6.19-1.03,2.15-.56,4.35-1.37,6.32-2.89,1.19-.88,2.44-2.18,2.18-3.81-.11-.63-.7-.96-1.29-1.05-.6-.09-1.15,0-1.33.37Z"/>
    <path class="cls-1" d="M188.39,214.84c-.74-2.53-1.4-5.1-2.55-7.49-.49-1.02-.81-2.26-1.56-3.22-.37-.48-.85-.89-1.5-1.14-.16-.06-.33-.12-.51-.16-.08,0-.2-.07-.33-.11-.12-.03-.25-.05-.39-.05-.13,0-.28.03-.4.1-.12.07-.16.23-.11.29-.06-.03-.03,0,.03-.05.05-.04.1-.15.1-.15,0-.01-.03.07-.03.2,0,.05.03.1.02.09-.02,0-.08.03-.15.08-.11.12-.07.04.08-.05.06-.05.1,0,.07-.05-.02-.05,0-.13,0-.18.02-.12.04-.1-.02-.01-.04.08-.14.14-.13.12.01,0,.04.02.08.06.02.03-.02-.02.05.07h0s-.01-.03-.01-.03c-.01-.04.02.05-.05.2-.03.07-.08.15-.13.22l-.08.1s0,0,0,0c.02.01.02-.02.07.04l.15.17.29.34c.38.46.72.95,1.03,1.45.61,1.02,1.09,2.12,1.46,3.25.4,1.22.63,2.5.83,3.75.1.65.22,1.29.29,1.94.05.4-.09.82.84.98.74.13,2.66-.41,2.55-.76Z"/>
    <path class="cls-1" d="M194.63,212.48c-.25-2.27-.6-4.56-1.59-6.66-.42-.89-.7-1.98-1.43-2.77-.72-.78-1.9-1.23-3.72-.5-.06.02-.2.19-.18.2,1.71.94,2.81,2.69,3.3,4.54.27,1,.35,2.04.35,3.04,0,.52.02,1.02-.03,1.53-.02.32-.25.61.65.86.71.21,2.69.08,2.65-.24Z"/>
    <path class="cls-1" d="M175.47,144.25c.37-.91.94-1.76,1.45-2.05.46-.24.73-.22,1.36.34.28.27.59.67.87,1.08.27.4.51.83.7,1.25.38.86.58,1.74.54,2.57-.03.68-.35,1.36-.8,1.87-.46.52-.97.82-1.46.98-.38.15-1.01.23-1.79.1-.75-.15-1.8-.39-2.64-1.65-.05-.08-.27-.06-.27.02.05,1.57,1.05,2.75,2.15,3.37.56.32,1.18.52,1.83.59.65.07,1.33-.05,1.91-.28,2.38-.98,3.7-3.59,3.48-6.08-.09-1.34-.52-2.63-1.13-3.79-.31-.59-.64-1.13-1.08-1.69-.44-.55-1-1.13-1.87-1.52-.9-.41-2.05-.4-2.99,0-.91.4-1.56,1.01-2.07,1.6-.62.72-1.24,1.43-.73,2.47.41.8,2.36,1.29,2.55.82Z"/>
    <path class="cls-1" d="M114.43,144.31c.47-.62,1.32-1.06,2.21-1.12.89-.08,1.75.2,2.29.73.56.53.9,1.38.91,2.26.02.88-.27,1.74-.78,2.31-.45.5-1.17.83-1.94.9-.77.07-1.55-.04-2.23-.29-.68-.24-1.3-.56-2.01-1.15-.67-.57-1.48-1.33-1.83-2.83-.02-.1-.24-.15-.26-.07-.51,1.52-.08,3.03.64,4.15.73,1.15,1.9,1.99,3.17,2.36,1.26.38,2.63.38,3.9-.03,1.27-.4,2.47-1.29,3.16-2.54.74-1.33.97-2.91.63-4.45-.31-1.52-1.38-3.08-2.97-3.82-1.62-.78-3.47-.77-5.14-.15-.52.19-1.04.43-1.45.8-.4.39-.68.91-.6,1.56.07.52.61.9,1.15,1.15.55.24,1.02.39,1.14.24Z"/>
    <path class="cls-1" d="M131.62,130.42l1.32-1.15.34-.29c.2-.17.4-.35.57-.55.34-.39.59-.85.68-1.36.09-.51,0-1.02-.2-1.5-.1-.24-.23-.48-.36-.69l-.28-.44c-.34-.54-.73-1.06-1.13-1.55-1.61-1.98-3.56-3.53-5.53-4.9-.99-.69-1.99-1.33-2.98-1.96-.99-.63-1.99-1.27-3.07-1.87-1.08-.6-2.24-1.14-3.5-1.52-1.26-.38-2.63-.54-3.92-.5-2.61.09-4.94.75-7.22,1.34-2.3.62-4.57,1.34-6.8,2.15-2.24.81-4.44,1.71-6.6,2.71-1.08.5-2.14,1.02-3.22,1.56-1.08.59-2.4,1.26-3.33,2.8-.36.62-.57,1.4-.59,2.09-.03.69.08,1.3.19,1.83.11.47.22.95.34,1.42.05.14.07.44.08.66l.03.36c-.06.18-.24.46-.36.68l-.4.71-.66,1.15-1.71,2.92c1.31-.69,1.79-.92,2.15-1.1.09-.04.27-.13.29-.13.03,0,0,.02.07-.01.79-.42,1.57-.84,2.36-1.26.8-.43,1.6-.85,2.4-1.24l.93-.45.62-.28c1.65-.75,3.34-1.44,5.05-2.07,3.43-1.28,6.83-2.2,10.28-2.2,3.47-.03,6.95.66,10.35,1.6,3.4.95,6.72,2.15,10.01,3.2.24.07.24-.18.03-.3-3.2-1.81-6.51-3.49-9.98-4.77-3.47-1.28-7.16-2.11-10.91-2.09-3.77-.02-7.41,1.05-10.83,2.35-1.72.65-3.41,1.36-5.08,2.14-.97.46-1.34.64-1.85.89l-.72.37c.15-.22.24-.51.25-.78.01-.25-.02-.51-.07-.75l-.27-1.17c-.19-.79-.29-1.53-.13-2.1.16-.57.61-1.08,1.22-1.51.6-.43,1.32-.78,2.08-1.14,4.32-2.09,8.82-3.78,13.42-5.07,2.29-.62,4.66-1.24,6.91-1.55,1.12-.14,2.23-.18,3.27-.03,1.03.14,2.04.48,3.04.96,1.03.49,2.05,1.11,3.08,1.78,1.04.68,2.09,1.37,3.1,2.06,2.01,1.39,3.91,2.86,5.36,4.61.45.53.84,1.09,1.19,1.66l.2.34h0s0,0,.01,0c0,0,.01,0,.01.02v.02s-.17.17-.17.17c-.26.26-.51.53-.75.8-.48.55-.92,1.12-1.31,1.74-1.21,1.96.81,2.84,2.71,1.18Z"/>
    <path class="cls-1" d="M158.13,139.07c-4.62-1.02-9.29-1.86-14.1-1.84-2.06.03-4.33-.11-6.55.52-.55.14-1.09.4-1.61.64-.51.29-1.01.63-1.43,1.05-.85.83-1.46,2.09-1.18,3.24.01.07.21.17.24.13.36-.76,1.22-1.38,2.12-1.85.47-.22.94-.44,1.46-.58.5-.18,1.02-.3,1.55-.4,2.11-.42,4.31-.44,6.48-.28,2.35.18,4.67.64,6.94,1.18,1.18.29,2.35.57,3.51.92.72.21,1.35.62,2.22-.07.69-.54.99-2.52.35-2.65Z"/>
    <path class="cls-1" d="M155.04,158.36c-.39-4.89-.14-9.81.15-14.71.25-4.26,2.01-8.8-.91-13.29-.05-.07-.27-.07-.27,0-.23,4.82-.82,9.52-1.34,14.31-.28,2.58-.59,5.16-.78,7.77-.1,1.35-.14,2.7-.18,4.05-.03.83-.22,1.66.69,2.36.72.55,2.69.18,2.64-.47Z"/>
    <path class="cls-1" d="M158.87,160.02c11.16-.67,22.33-1.25,33.51-1.81l8.38-.42,4.19-.21,2.78-.14.97-.05.49-.03h.12s.01-.07.03-.11v-.24s.06-1.95.06-1.95l.05-2.5.02-2.11c.01-1.41,0-2.82-.02-4.23-.05-2.82-.14-5.64-.31-8.45-.08-1.25-.16-2.52-.24-3.8-.05-.64-.09-1.28-.14-1.92-.09-1.1-.18-2.2-.27-3.31-2.62-.23-5.27-.45-7.93-.68-2.2-.17-4.43-.31-6.65-.43-4.45-.22-8.94-.31-13.37-.21-8.86.21-17.52,1.21-25.24,3.38-.28.08-.11.28.18.26,8.55-.86,17.13-1.28,25.71-1.29,4.29,0,8.58.1,12.87.31,2.14.11,4.29.23,6.43.38l3.21.25,2.61.24.19,2.56.19,3.17c.11,2.12.18,4.24.23,6.36.05,2.89.05,5.78-.03,8.67l-.07,2.16-.02.4v.23s-.03.22-.03.22c0,.07.02.17-.09.14h-.45s-.85.03-.85.03l-2.17.08-17.39.61-18.03.7c-3.7.14-7.33.1-10.6,1.15-2.59.83-1.34,2.76,1.67,2.57Z"/>
    <path class="cls-1" d="M126.51,130.8c-6.9.49-13.79.98-20.69,1.47l-10.35.69-5.18.34-1.29.08c-.43.03-.85.05-1.38.1-.51.06-1.07.15-1.68.41-.67.27-1.35.84-1.69,1.54-.22.43-.33.92-.35,1.4-.02.42.03.77.08,1.09l.29,1.61.58,3.14,1.16,6.27,2.59,13.96,7.74-.66c6.18-.53,12.63-.98,19.15-1.48,3.26-.25,6.53-.51,9.8-.8,1.63-.16,3.26-.31,4.89-.46,2.12-.22,4.24-.44,6.35-.65v-3.16s-.01-1.7-.01-1.7c-.03-1.13-.06-2.26-.09-3.38-.07-2.24-.18-4.46-.32-6.65-.29-4.38-.72-8.63-1.37-12.69-.05-.31-.27-.15-.27.17-.02,4.31-.04,8.62-.06,12.93-.05,4.12-.1,8.23-.15,12.35l-10.47.93c-3.69.31-7.38.61-11.07.92-7.24.56-14.48,1.12-21.75,1.68l-.36.02-2.03-11.8-1.07-6.29-.54-3.14-.26-1.54c-.03-.22-.04-.41-.03-.55,0-.09.03-.16.07-.23.04-.06.09-.12.15-.16.06-.04.11-.06.27-.12.28-.09.67-.15,1.1-.17l2.92-.15,5.89-.31,19.68-1.09c4.04-.22,8-.26,11.58-1.38,2.83-.89,1.49-2.79-1.81-2.54Z"/>
    <path class="cls-1" d="M227.07,138.28c-3.53-.95-7.06-1.98-10.7-2.5-1.58-.23-3.19-.69-4.72-.81-1.57-.14-2.95.14-5.09,1.1-.07.03-.14.24-.09.25,3.59,1.12,7.04,1.17,10.36,2.02,1.79.43,3.54,1.03,5.25,1.66.89.32,1.78.63,2.66.98.54.21,1.01.6,1.77-.08.61-.54,1.05-2.48.56-2.61Z"/>
    <path class="cls-1" d="M76.17,149.46c1.89-1.49,3.94-2.75,5.81-4.27,1.58-1.29,4.26-1.99,3.18-5.91-.02-.06-.18-.21-.2-.18-1.27,1.92-3.04,3.33-4.96,4.53-1.04.65-2.15,1.19-3.23,1.74-.56.3-1.11.59-1.67.88-.35.18-.78.19-.57,1.11.17.73,1.38,2.3,1.64,2.1Z"/>
    <path class="cls-1" d="M73.65,152c1.54,5.21,2.89,10.48,4.61,15.65,1.47,4.43,2.17,9.96,7.12,12.7.08.04.27-.07.24-.13-2.39-4.62-4.06-9.51-5.41-14.53-.73-2.7-1.32-5.44-1.91-8.17-.31-1.42-.62-2.83-.93-4.24-.18-.87-.18-1.77-1.24-2.32-.83-.43-2.68.34-2.47,1.04Z"/>
    <path class="cls-1" d="M152.14,61.57c-.09-6.62.08-13.25-.15-19.88-.2-5.69.77-12.35-3.53-17.37-.07-.08-.3-.02-.29.07,1.05,6.26,1.3,12.57,1.2,18.91-.05,3.42-.26,6.84-.45,10.25-.09,1.77-.19,3.53-.28,5.3-.07,1.09-.33,2.15.61,3.14.74.78,2.9.48,2.89-.42Z"/>
    <path class="cls-1" d="M160.59,59.2c-.26-6.47-.36-12.97-1.01-19.43-.54-5.53-.05-12.17-4.97-16.59-.08-.07-.31.02-.29.1,1.66,5.95,2.38,12.07,2.63,18.24.14,3.33.09,6.66.02,9.98-.04,1.72-.05,3.44-.11,5.16-.03,1.06-.29,2.09.72,3.03.8.74,3.04.4,3-.48Z"/>
    <path class="cls-1" d="M165.89,55.65c-.12-6.04-.36-12-.67-17.93-.14-2.55.04-5.29-.14-7.96-.18-2.68-.72-5.25-2.28-7.79-.05-.08-.26-.05-.26.02.13,5.81.34,11.47.38,17.23.03,3.09-.02,6.19-.08,9.26-.03,1.59-.04,3.18-.11,4.76-.03.98-.27,1.91.58,2.79.67.7,2.6.44,2.58-.38Z"/>
    <path class="cls-1" d="M171.5,23.35l-.61-1.2-2.89.77c.45,4.88.35,9.79.18,14.68-.08,2.3-.55,4.73-.62,7.16-.04,1.21.03,2.43.28,3.64.06.3.14.61.24.91.1.27.18.69.39,1.02.18.32.54.6.98.49.21-.08.29-.28.35-.41.08-.12.08-.29.08-.22.02.02.2-.04.22-.06.12-.01.07.39-.15.29-.18-.08-.22-.25-.24-.44-.02-.18.02-.59.03-.89l.06-.98c.09-1.3.19-2.59.28-3.89.22-2.59.44-5.18.66-7.8.23-2.81.46-5.64.57-8.48.05-1.47.05-2.94.04-4.42,0-.29,0-.58,0-.87l-3.53.95c.23.55.56,1.03,1.35,1.25.92.26,2.64-.88,2.31-1.52Z"/>
    <path class="cls-1" d="M181.02,21.55c-.13,4.36-1.01,8.67-2.02,12.9-.44,1.83-1.27,3.68-1.75,5.59-.48,1.93-.59,3.93.39,6.27.03.07.24.13.26.07,1.14-4.19,2.5-8.21,3.72-12.38.66-2.24,1.31-4.5,1.82-6.8.26-1.19.47-2.4.66-3.61.13-.74.4-1.47-.42-2.19-.65-.57-2.64-.44-2.66.14Z"/>
    <path class="cls-1" d="M175.41,22.56c-.09,4.31-.81,8.58-1.61,12.81-.35,1.83-1.05,3.7-1.42,5.62-.37,1.92-.41,3.89.55,6.07.03.07.22.1.24.04.87-4.17,1.96-8.19,2.96-12.33.53-2.22,1.07-4.46,1.5-6.72.22-1.17.39-2.36.55-3.54.11-.73.35-1.44-.39-2.13-.59-.55-2.35-.4-2.37.18Z"/>
    <path class="cls-1" d="M188.5,23.67c-.85,3.85-2.19,7.57-3.44,11.3-1.08,3.25-3.57,6.38-1.44,10.67.03.07.25.12.26.07.95-3.75,2.34-7.28,3.8-10.85.79-1.92,1.64-3.83,2.41-5.77.4-1.01.76-2.02,1.13-3.04.23-.62.62-1.2-.08-1.99-.55-.63-2.53-.92-2.64-.4Z"/>
    <path class="cls-1" d="M193.74,28.65c-.32,3.45-1.36,6.79-2.5,10.05-.49,1.41-1.37,2.77-1.9,4.24-.53,1.48-.7,3.09.15,5.24.03.07.23.15.25.11,1.26-3.28,2.72-6.35,4.09-9.57.73-1.73,1.47-3.48,2.08-5.29.31-.94.57-1.89.82-2.85.16-.59.47-1.16-.32-1.81-.63-.51-2.63-.57-2.67-.11Z"/>
    <path class="cls-1" d="M203.49,33.77c-.2-.29-.66-.63-1.18-.68-.06,0-.13-.01-.19-.01h-.11c-.07.01-.14.02-.21.03-.14.03-.28.07-.4.12-.5.23-.7.53-.85.73-.28.45-.29.57-.39.77l-.53,1.12-1.11,2.22c-.75,1.48-1.52,2.95-2.24,4.44-1.24,2.57-3.78,4.97-1.72,8.93.03.06.24.14.25.1.92-3.09,2.38-5.89,4.02-8.65.88-1.48,1.85-2.92,2.77-4.39.47-.77.93-1.53,1.39-2.29l.23-.34s.04-.06.04-.06h0s0,0,0,0l-.07-.04-.14-.08c-.33-.19-.52-.32-.67-.44-.14-.12-.22-.22-.25-.28-.02-.03-.02-.05-.02-.05,0,0,0,0,0,0h0s0,0,0,0h0c0-.07,0,.16,0-.16h0s0,0,0,0c.01-.02-.03.06-.09.08-.06.03-.05,0,.05.01.18.04.11.08.12,0,0-.01,0-.02,0-.03l-.03.17c-.03.15-.06.3-.02.45.03.15.14.31.41.35.27.05.67-.16.86-.41.2-.24.3-.51.32-.76.02-.26-.03-.53-.26-.85Z"/>
    <path class="cls-1" d="M206.93,35.78c-.33.18-1.14.1-.91.13v.02s0,0,0,0l.13.05.08.04.04.02h.01c.06.03-.48-.22-.26-.11h0s0,.01,0,.01l-.03.07-.06.15-.53,1.16-1.11,2.29c-.75,1.52-1.52,3.04-2.25,4.58-1.24,2.65-3.79,5.15-1.72,9.15.03.06.24.13.25.09.92-3.17,2.38-6.06,4.02-8.91.88-1.53,1.85-3.02,2.78-4.53.47-.79.93-1.58,1.4-2.37l.11-.18c.05-.08.05-.06.14-.25.14-.3.21-.56.23-.85.01-.29-.03-.59-.19-.94-.16-.32-.5-.83-1.17-.99-.52-.09-.74.22-.8.49-.07.28,0,.59,0,.89,0,0,0-.11.02-.13,0-.02,0,.05-.2.14Z"/>
    <path class="cls-1" d="M208.31,41c-.99,3.35-2.35,6.57-3.49,9.88-.98,2.84-3.29,5.68-.83,9.52.04.06.25.11.26.06.61-3.33,1.8-6.45,3.16-9.54.73-1.66,1.56-3.29,2.34-4.94.41-.85.77-1.72,1.17-2.58.24-.53.65-.99-.01-1.76-.52-.61-2.46-1.09-2.59-.64Z"/>
    <path class="cls-1" d="M209.14,49.25c-.94,3.56-2.11,7.06-2.92,10.66-.7,3.07-2.62,6.5.48,9.96.05.05.27.06.27.02.02-3.51.78-6.92,1.84-10.25.57-1.8,1.27-3.55,1.96-5.3.35-.91.7-1.81,1.05-2.72.22-.56.62-1.04-.06-1.81-.54-.61-2.49-1.03-2.61-.55Z"/>
    <path class="cls-1" d="M213.67,54.42c-.86,4.08-2.1,8.07-3.12,12.11-.88,3.49-3.09,7.16-.44,11.3.04.07.26.09.27.04.48-4.01,1.55-7.84,2.8-11.67.67-2.06,1.44-4.1,2.16-6.15.37-1.06.71-2.13,1.07-3.2.22-.66.61-1.25-.09-2.07-.55-.64-2.53-.92-2.65-.37Z"/>
    <path class="cls-1" d="M220.48,61.67c.38-.94.41-1.98.04-2.95l-1.75-4.53-1.05,4.72c-.84,3.78-2.11,7.44-3.44,11.06-.66,1.81-1.72,3.61-2.41,5.52-.69,1.92-1.02,3.95-.26,6.41.02.08.23.15.25.09,1.54-4.16,3.34-8.11,5.08-12.18.94-2.19,1.88-4.4,2.71-6.65.43-1.16.79-2.35,1.17-3.53l-3.32.23h0c0,.09-.06.19-.03.29.03.11.17.22.47.59.23.28.68.8,1.18,1.1.49.31,1.13.3,1.33-.18Z"/>
    <path class="cls-1" d="M218.68,67.75c-.85,4.58-2.08,9.08-3.09,13.64-.87,3.92-3.08,8.13-.4,12.58.04.07.26.09.27.03.47-4.48,1.53-8.8,2.77-13.13.67-2.33,1.43-4.63,2.15-6.95.37-1.2.71-2.41,1.07-3.61.22-.74.61-1.43-.1-2.29-.56-.68-2.55-.88-2.67-.26Z"/>
    <path class="cls-1" d="M223.69,79.98c-1.46,3.27-3.18,6.42-4.6,9.72-1.22,2.82-3.72,5.69-1.37,9.64.04.06.25.12.26.07.71-3.36,2.07-6.48,3.69-9.49.87-1.62,1.85-3.19,2.82-4.76.49-.82.98-1.63,1.47-2.45.31-.5.77-.9.22-1.77-.44-.68-2.29-1.41-2.49-.97Z"/>
    <path class="cls-1" d="M227.34,86.47c-1.44,4.1-3.37,8.01-5.21,11.94-1.6,3.41-4.61,6.59-3.14,11.39.02.08.23.15.25.1,1.56-3.96,3.51-7.64,5.54-11.37,1.09-2.01,2.24-3.99,3.32-6.02.56-1.05,1.07-2.12,1.6-3.19.33-.65.81-1.24.23-2.17-.46-.73-2.39-1.24-2.59-.69Z"/>
    <path class="cls-1" d="M227.94,96.56c-1.26,3.77-3.11,7.31-4.97,10.82-.8,1.51-1.97,2.95-2.79,4.56-.82,1.61-1.28,3.4-.73,5.77.02.07.21.18.24.13,1.78-3.52,3.84-6.77,5.9-10.13,1.1-1.81,2.24-3.61,3.27-5.48.54-.97,1.03-1.96,1.52-2.95.31-.61.76-1.15.15-2.03-.48-.69-2.42-1.18-2.59-.68Z"/>
    <path class="cls-1" d="M229.97,106.16c-.87,3.67-2.68,7.06-4.74,10.18-.9,1.36-2.19,2.54-3.2,3.9-1.03,1.37-1.77,2.92-1.82,5.33,0,.08.16.22.2.18,2.58-2.91,5.09-5.71,7.39-8.83,1.23-1.68,2.42-3.43,3.43-5.29.52-.97.98-1.97,1.4-2.99.27-.62.68-1.21,0-2.02-.54-.64-2.52-.93-2.64-.45Z"/>
    <path class="cls-1" d="M226.5,120.9c-1.06,2.65-2.67,5.04-4.27,7.38-.69,1.02-1.72,1.88-2.42,2.97-.7,1.09-1.07,2.41-.57,4.51.02.07.19.2.21.17,1.57-2.45,3.37-4.59,5.19-6.83.98-1.2,1.99-2.41,2.92-3.68.48-.66.92-1.35,1.35-2.04.27-.42.69-.78.08-1.55-.48-.61-2.36-1.28-2.5-.93Z"/>
    <path class="cls-1" d="M224.14,132.12c-.96,2.41-2.49,4.53-4.01,6.6-.66.9-1.64,1.63-2.31,2.59-.67.97-1.02,2.18-.57,4.23.01.07.18.21.2.18,1.53-2.19,3.27-4.07,5.03-6.05.94-1.07,1.92-2.14,2.81-3.29.46-.6.87-1.22,1.29-1.85.26-.38.67-.7.04-1.44-.49-.58-2.36-1.28-2.49-.96Z"/>
    <path class="cls-1" d="M217.62,145.29c-.83,2.38-2.11,4.57-3.28,6.79-1.03,1.95-3.3,3.37-1.38,7.01.03.06.22.16.24.13.9-2.37,2.2-4.44,3.6-6.53.75-1.12,1.57-2.22,2.31-3.37.39-.59.74-1.21,1.1-1.82.22-.37.6-.68-.06-1.37-.52-.55-2.41-1.17-2.52-.86Z"/>
    <path class="cls-1" d="M218.24,154.93c-1.15,2.4-2.58,4.66-3.76,7.06-1,2.05-3.26,3.96-.82,7.35.04.05.25.12.25.09.53-2.51,1.68-4.76,3.05-6.9.74-1.15,1.57-2.25,2.38-3.36.41-.58.82-1.15,1.23-1.73.26-.35.66-.61.08-1.37-.46-.61-2.26-1.45-2.42-1.13Z"/>
    <path class="cls-1" d="M216.3,164.85c-.45,1.73-1.26,3.34-1.86,5.02-.52,1.45-2.29,2.69.6,5.24.05.04.26.1.26.08.1-1.78.76-3.36,1.6-4.88.45-.82,1-1.61,1.5-2.42.26-.42.48-.85.73-1.27.15-.26.47-.45-.27-1-.58-.43-2.49-1-2.55-.77Z"/>
    <path class="cls-1" d="M107.01,118.57c1.99-.88,4.05-1.5,6.04-1.47,1,.02,1.96.17,2.9.51.94.34,1.87.83,2.79,1.41,1.83,1.18,3.66,2.57,5.36,4.01l1.27,1.11c.4.36.74.7,1.04,1.07.29.36.51.73.61,1.04.1.32.09.51.02.71l2.3-.59c-1.11-.94-2-2.3-2.95-3.76-.96-1.45-2.02-3.1-3.68-4.33-1.6-1.26-3.57-1.93-5.49-2.2-1.93-.25-3.83-.1-5.66.23-1.82.36-3.58.92-5.27,1.62-1.65.7-3.24,1.46-4.8,2.19-1.56.72-3.11,1.42-4.67,1.94-.78.27-1.56.48-2.34.66-.39.08-.78.16-1.18.21l-.32.04h-.1c-.13.02-.31.02-.35-.13-.02-.14.1-.26.2-.33.03-.02.06-.04.09-.05l.18-.08,1.14-.51c.77-.32,1.55-.61,2.33-.89,3.16-1.05,6.47-1.66,9.8-1.81,6.65-.27,13.45,1.31,19.11,4.66,1.92,1.17,3.55,2.77,3.77,4.53l1.36-1.83c-.14.01-.25,0-.46-.09-.21-.09-.48-.28-.77-.54-.61-.51-1.25-1.24-2.25-1.94-1.02-.7-2.13-1.06-3.15-1.3-1.03-.24-1.96-.37-2.93-.52-3.84-.58-7.77-.8-11.7-.67-3.93.14-7.87.64-11.73,1.52-1.93.43-3.84.99-5.7,1.58-1.8.61-3.43,1.06-4.73.81l.85,2.99c2.58-2.49,5.91-4.2,9.44-5.19,3.53-.99,7.26-1.23,10.94-1.01,3.68.24,7.37.88,10.87,1.79.86.25,1.7.57,2.48,1.02.78.44,1.51,1,2.23,1.55,1.42,1.09,2.9,2.2,4.44,2.37.41.06.24-.22-.13-.31-1.49-.45-2.79-1.73-4.2-3-.71-.64-1.48-1.28-2.38-1.81-.89-.52-1.82-.88-2.74-1.19-3.65-1.13-7.35-1.97-11.16-2.3-3.79-.33-7.68-.13-11.38.89-3.69,1.01-7.22,2.8-10.04,5.45l-.92.86,1.23.23c2.12.4,4.11-.26,5.9-.83,1.8-.57,3.6-1.1,5.45-1.5,3.67-.84,7.42-1.33,11.18-1.49,3.76-.15,7.54.04,11.27.57,1.85.3,3.79.5,5.18,1.4.69.45,1.32,1.14,2.08,1.81.39.33.81.66,1.34.92.52.25,1.19.39,1.81.3l.74-.11-.1-.74c-.21-1.52-1.01-2.88-1.99-3.92-.99-1.06-2.14-1.89-3.33-2.59-2.39-1.36-4.9-2.45-7.53-3.25-4.7-1.46-9.69-1.91-14.6-1.51-2.46.22-4.89.69-7.26,1.38-1.19.33-2.35.77-3.51,1.21l-1.8.8c-.87.4-1.63,1.03-2.1,1.72-.47.69-.73,1.47-.5,2.27.26.81.93,1.31,1.67,1.51.37.13.88.08,1.34.1.47.02.95.01,1.45-.07.67-.07,1.28-.18,1.91-.31,2.5-.54,4.81-1.51,7.02-2.5,2.21-.99,4.36-2.06,6.5-2.8,2.15-.74,4.39-1.2,6.56-1.17,2.61.03,5.04.89,6.64,2.77.83.94,1.55,2.11,2.35,3.35.81,1.24,1.72,2.57,3.02,3.7l1.72,1.49.85-2.15c.33-.83.34-1.81.11-2.57-.22-.77-.57-1.39-.95-1.92-.38-.53-.8-.98-1.22-1.4-.44-.42-.8-.74-1.22-1.11-1.61-1.43-3.29-2.76-5.05-4.01-1.3-.92-2.72-1.82-4.34-2.46-1.62-.65-3.46-.9-5.15-.76-1.7.12-3.27.59-4.69,1.2-1.42.61-2.68,1.38-3.83,2.22-1.8,1.34-1.98,2.23-1.22,2.47.77.25,2.49-.19,4.65-1.16Z"/>
    <path class="cls-1" d="M102.15,122.04c2.31-.63,4.62-1.08,6.83-1.01,1.1.03,2.16.22,3.15.54.99.33,1.97.85,3,1.43,1.8,1.03,3.61,2.42,5.59,3.4.99.49,2.04.88,3.15,1.07.56.1,1.14.15,1.74.13.29-.01.56-.04.89.03.32.06.65.28.82.5.05.05.28-.06.27-.14-.04-.4-.32-.8-.68-1.08-.17-.14-.34-.24-.52-.33l-.41-.2-1.57-.77c-1.04-.53-2.07-1.08-3.08-1.66-2.04-1.15-3.96-2.4-6.01-3.67-1.11-.68-2.37-1.29-3.71-1.66-1.34-.38-2.72-.53-4.09-.55-1.41,0-2.79.15-4.14.33-.83.11-1.67.07-2.17,1.09-.4.81.31,2.68.94,2.51Z"/>
    <path class="cls-1" d="M108.02,120.85c4.59.97,9.18,2,13.86,2.51.76.08,1.54.2,2.33.32l-.37-3.29c-1.26.28-2.58.1-3.93-.12-1.37-.25-2.81-.42-4.95-1-.09-.02-.25.12-.2.18,1.21,1.48,2.8,2.47,4.49,3.03,1.69.55,3.55.67,5.31.17l-.15-1.35c-1.11-.14-2.22-.31-3.32-.51-2.35-.43-4.66-1.03-6.95-1.67-1.19-.33-2.37-.65-3.55-1.01-.72-.22-1.38-.62-2.25.07-.69.55-.95,2.53-.33,2.66Z"/>
    <g>
      <path class="cls-1" d="M163.31,123.59c-.33-.45-.64-.92-.93-1.39-.28-.45-.62-1.02-.77-1.36-.08-.18-.07-.24-.02-.36.02-.02.03-.04.05-.06.01,0,.04-.04.14-.11.17-.12.38-.24.65-.4,2.05-1.19,4.1-2.36,6.18-3.44,4.15-2.18,8.44-4.07,12.89-5.09,2.22-.51,4.48-.79,6.72-.78,2.24.03,4.47.36,6.59,1.02,2.12.67,4.15,1.65,5.99,2.9.93.62,1.8,1.32,2.61,2.07.42.37.8.77,1.19,1.17l.43.47.07.08s-.05.1-.07.15l-.83,1.21c-.55.8-1.11,1.6-1.67,2.41-.03.04-.07.07-.12.05-.09-.05.11.05-.47-.28-.82-.5-1.63-1.11-2.45-1.76-1.66-1.29-3.39-2.8-5.66-3.88-1.13-.53-2.41-.91-3.72-1.02-1.31-.1-2.58.04-3.76.31-2.37.56-4.36,1.52-6.31,2.4-1.96.91-3.87,1.89-5.7,2.94-3.67,2.1-7.04,4.48-9.96,7.12-.18.17.03.3.25.17,3.91-2.31,7.95-4.41,12.07-6.3,2.06-.95,4.15-1.84,6.26-2.69,2.09-.83,4.22-1.58,6.36-1.55,2.14.01,4.13.99,5.93,2.29,1.82,1.28,3.52,2.85,5.57,4.07l.39.22c.17.1.34.2.52.28.36.16.73.28,1.12.24.8-.05,1.34-.8,1.72-1.39l1.96-2.82,1.2-1.73.35-.51.04-.06-.05-.06-.1-.12-.19-.24-.78-.96-.64-.72c-.2-.22-.41-.43-.61-.64-.41-.43-.85-.83-1.29-1.22-3.83-3.38-8.72-5.63-13.87-6.18-5.15-.59-10.34.41-15.11,2.08-4.98,1.74-9.58,4.22-14.09,6.69l-1.08.59c-.21.13-.42.25-.69.46-.3.24-.58.52-.8.83-.45.62-.65,1.4-.57,2.16.04.38.14.76.27,1.1.11.27.23.5.34.7.83,1.44,1.84,2.66,3.11,3.55,1.01.7,1.72.46,1.97-.13.25-.6.08-1.54-.63-2.51Z"/>
      <path class="cls-1" d="M164.06,118.79l-1.99,1.13,1.6,2.53c3.08-2.2,6.67-3.71,10.41-4.8,3.74-1.1,7.64-1.8,11.58-2.49l-.51-2.87c-4.63.86-8.79,2.86-12.77,4.76l1.67,2.35c3.85-3.83,10-5.26,15.21-3.68,2.6.78,4.96,2.28,6.72,4.39.49.56,1.02,1.2,1.76,1.8.38.3.78.57,1.3.79.54.23,1.1.34,1.66.36.56.02,1.13-.07,1.7-.29.6-.23,1.21-.67,1.59-1.24.39-.57.58-1.26.56-1.95-.03-.73-.27-1.31-.52-1.77-.52-.93-1.17-1.55-1.74-2.09-.55-.52-1.11-1.04-1.7-1.55-1.17-1.03-2.45-2.03-3.92-2.83-1.46-.8-3.21-1.35-4.91-1.45-1.69-.11-3.25.05-4.77.21-6.11.66-12.13,2.19-17.82,4.53-.91.37-1.82.77-2.72,1.18-.89.41-1.89.86-2.86,1.64-.49.4-.94.84-1.34,1.46-.19.3-.35.61-.48.95-.05.14-.15.41-.19.63-.06.22-.09.45-.12.68-.08.91.12,1.8.55,2.51.41.71,1.12,1.27,1.93,1.37.35.04.69.01,1.06-.09l1.1-.55.55-.28.35-.22.6-.38c.79-.52,1.55-1.08,2.28-1.64,1.46-1.12,2.83-2.28,4.23-3.31,1.39-1.03,2.81-1.93,4.3-2.53,1.5-.61,3.11-.96,4.77-1.1,3.34-.26,6.82.28,10.29,1.08,1.75.41,3.51.81,4.98,1.4,1.49.6,2.66,1.43,3.19,2.52l2.88-1.84c-1.47-1.69-3.41-2.9-5.41-3.55-2-.69-4.05-.88-6.03-.89-1.98.02-3.92.25-5.79.65-1.85.37-3.67.88-5.43,1.45-7.07,2.32-13.31,6.19-18.1,10.9-.34.33,0,.35.37.06,5.57-4.38,12.05-7.61,18.91-9.44,3.44-.87,6.96-1.59,10.45-1.44,3.46.09,7.01,1.17,9.21,3.78l1.08-.69c-.44-.92-1.11-1.71-1.89-2.32-.78-.61-1.64-1.06-2.51-1.42-1.76-.72-3.55-1.11-5.32-1.54-3.55-.82-7.24-1.43-10.97-1.15-1.86.15-3.72.55-5.48,1.25-1.77.69-3.35,1.72-4.84,2.81-1.49,1.1-2.88,2.28-4.29,3.38-.71.55-1.43,1.08-2.16,1.57-.18.13-.37.24-.56.36l-.27.17-.18.1c-.24.12-.46.3-.73.34-.26.03-.48-.18-.59-.39-.13-.22-.18-.47-.17-.72.01-.27.05-.45.17-.76.13-.31.31-.58.54-.85.95-1.05,2.57-1.64,4.08-2.33,3.06-1.33,6.23-2.4,9.47-3.22,2.3-.59,4.64-1.04,7-1.36,2.34-.28,4.78-.62,6.95-.37,2.16.26,4.12,1.41,5.89,2.89.89.74,1.75,1.55,2.62,2.38.41.39.76.78,1.01,1.16.12.19.21.37.25.52.04.14.04.23.02.34-.05.22-.2.39-.42.47-.28.12-.69.14-1.04.05-.31-.07-.69-.3-1.06-.62-.37-.32-.73-.73-1.11-1.18-.77-.94-1.74-1.93-2.76-2.7-1.03-.8-2.15-1.47-3.34-2.01-4.79-2.15-10.42-2.06-15.19.11-1.83.83-3.54,1.97-4.99,3.4l1.74,2.46c4-1.87,7.95-3.7,12.04-4.41l-.58-3.24c-3.68.61-7.4,1.25-11.1,2.23-4.35,1.14-8.72,2.78-12.17,5.53l1.78,2.81c1.39-.9,2.72-1.84,3.97-2.83,3.46-2.75.83-3.54-3.54-1.06Z"/>
      <path class="cls-1" d="M196.78,114.04c-.33.05-.67.08-1.01.09l-1.5.08.11,1.38c.02.27.06.54.1.81.08.26.18.52.3.77.13.21.27.43.42.63l.46.49c.62.56,1.22.9,1.76,1.19.6.32,1.04.9,1.43,1.04.05.02.11.03.17.03.04,0,.09,0,.15-.01.15-.01.25-.07.46-.11.22-.04.43-.07.79-.02.32.05.7.18,1.15.42.06.03.28.03.27,0-.12-.56-.34-1.11-.69-1.47-.32-.39-.68-.63-1.02-.88-.67-.46-1.32-.86-1.87-1.32-.59-.47-1.05-1.16-.92-1.42.04-.04.05-.06.07-.09l.08-.05-1.59,1.66.39.07c.26.05.51.27.7-.62.15-.7-.01-2.68-.22-2.65Z"/>
    </g>
    <path class="cls-1" d="M145.18,61.16c-.29-6.57-.01-13.15.19-19.72.17-5.68,1.86-12.01-1.61-17.61-.06-.09-.3-.06-.29.02.09,6.38-.33,12.67-.8,19.03-.25,3.43-.57,6.86-.79,10.29-.11,1.78-.18,3.57-.25,5.35-.05,1.1-.28,2.18.69,3.14.77.76,2.92.37,2.88-.51Z"/>
    <path class="cls-1" d="M138.56,58.47c-.09-6.27.52-12.52,1.16-18.75.54-5.41,2.77-11.2-.22-16.91-.05-.09-.29-.09-.3,0-.53,6.09-1.45,12.05-2.34,18.1-.47,3.26-.98,6.52-1.37,9.81-.2,1.7-.34,3.41-.48,5.12-.09,1.05-.36,2.08.59,3.04.76.75,2.96.44,2.95-.4Z"/>
    <path class="cls-1" d="M132.94,57.41c-.2-5.73.6-11.54.98-17.39.17-2.52.66-5.23.59-7.94-.07-2.69-.72-5.44-2.79-7.63-.06-.07-.29-.01-.28.06.95,5.47.48,11.1-.2,16.67-.42,3.01-.83,6.04-1.25,9.06-.19,1.58-.34,3.16-.46,4.76-.09.98-.33,1.96.61,2.84.74.68,2.82.33,2.8-.44Z"/>
    <path class="cls-1" d="M127.76,27.31l.53-1.24-2.9-.72c-.18,5-.39,10.01-.13,15.02.12,2.35,0,4.89.4,7.36.2,1.23.53,2.44,1.08,3.57.26.56.65,1.15.93,1.53.15.22.18.6.04.71-.06.03.05-.08.21-.2.02-.04.14-.05.08-.12-.07-.07-.02-.11.03-.15.09-.1.24-.1.33,0,.1.08.3.09.25.01-.06-.09-.23.07-.16.23.06.06.2.14.2.18l-.05.11-.09.19c-.05.11-.09.2-.07.22.03.02.11-.05.18-.13.29-.33.35-.91.31-1.34-.06-.47-.13-.69-.19-1.03l-.18-.95c-.22-1.27-.4-2.54-.53-3.83-.26-2.56-.35-5.14-.32-7.73.03-2.79.26-5.57.51-8.33.14-1.43.25-2.86.42-4.29.04-.28.07-.56.11-.84l-3.55-.88c-.27.53-.43,1.09-.1,1.84.39.87,2.36,1.47,2.65.8Z"/>
    <path class="cls-1" d="M112.69,24.2c.44,4.5.89,9.02,1.93,13.44.45,1.9.7,4.01,1.46,5.94.75,1.93,2,3.67,4.31,4.66.07.03.26-.08.24-.13-2.04-3.73-3.21-7.84-3.86-12.02-.35-2.26-.5-4.54-.6-6.81-.05-1.18-.12-2.35-.12-3.52-.01-.72.18-1.43-.74-2.03-.72-.47-2.68-.14-2.62.47Z"/>
    <path class="cls-1" d="M118.63,25.32c.36,4.41.69,8.83,1.51,13.2.35,1.87.52,3.94,1.13,5.87.61,1.93,1.67,3.72,3.71,4.9.06.04.24-.05.22-.1-1.7-3.82-2.62-7.91-3.11-12.06-.26-2.24-.36-4.49-.42-6.73-.03-1.16-.08-2.32-.07-3.48,0-.71.17-1.42-.64-2.02-.64-.48-2.38-.18-2.33.42Z"/>
    <path class="cls-1" d="M105.28,26.91c1.16,3.83,2.07,7.74,3.33,11.55,1.07,3.26,1.28,7.47,5.79,9.14.07.03.26-.08.24-.13-1.87-3.34-3.07-6.95-3.98-10.66-.49-2-.86-4.03-1.23-6.05-.2-1.05-.4-2.09-.6-3.13-.12-.64-.05-1.32-1.05-1.66-.79-.27-2.66.41-2.5.93Z"/>
    <path class="cls-1" d="M99.98,31.53c.65,3.59,1.28,7.21,2.48,10.69.52,1.49.85,3.19,1.66,4.66.81,1.47,2.09,2.7,4.34,3.07.07.01.25-.12.22-.15-2.09-2.68-3.38-5.87-4.16-9.15-.43-1.77-.66-3.59-.85-5.38-.1-.93-.21-1.86-.27-2.79-.04-.57.12-1.15-.83-1.54-.75-.32-2.69.11-2.6.6Z"/>
    <path class="cls-1" d="M94.63,37.29s-.06-.08-.06-.06v.17s0,0,0,0h0s-.01.02-.01.02c-.03.07-.16.25-.48.47-.52.34-.36.19-.33.32l.14.28.55,1.11,1.04,2.26c.68,1.51,1.34,3.03,2.06,4.53,1.23,2.58,1.5,6.06,5.88,6.93.07.01.26-.1.23-.14-1.83-2.65-3.11-5.55-4.23-8.55-.6-1.62-1.12-3.27-1.68-4.91-.31-.85-.61-1.68-.92-2.52-.04-.13-.08-.26-.13-.39-.04-.12-.16-.42-.45-.73-.29-.3-.91-.83-1.94-.61-.34.07-.64.26-.84.47-.18.2-.29.41-.34.59-.09.37-.05.66.09.99.11.26.39.57.72.64.33.07.52-.09.56-.23.06-.15.04-.3,0-.44l-.04-.18v.02c.02.07-.04.08.05.03.05-.02.13-.02.16-.02.03,0-.01,0-.06-.04Z"/>
    <path class="cls-1" d="M87.88,37.43c-.26.72-.17,1.1-.11,1.5.04.2.1.39.18.59l.1.21.07.14.55,1.15,1.04,2.32c.68,1.56,1.35,3.12,2.06,4.66,1.23,2.65,1.5,6.21,5.9,7.19.07.02.26-.1.23-.13-1.84-2.74-3.11-5.72-4.24-8.81-.61-1.66-1.12-3.36-1.68-5.04-.31-.87-.61-1.73-.92-2.59l-.06-.2-.03-.1v-.03s-.01-.01-.01-.01h0s0,0,0,0h0c.12-.06-1.03.48-.54.25h0s0,0,0,0l.11-.05c.29-.12.4-.12.28-.1-.12.02-.44.04-.73-.02-.29-.04-.51-.21-.5-.22,0-.02.03.11.02.12,0-.29.07-.6.02-.89-.04-.28-.2-.58-.61-.64-.42-.06-.97.3-1.12.71Z"/>
    <path class="cls-1" d="M85.54,44.46c1.28,3.25,2.2,6.63,3.33,9.93.98,2.85.9,6.5,5.2,8.01.07.02.27-.07.25-.11-1.57-3.01-2.56-6.19-3.38-9.46-.44-1.76-.8-3.55-1.19-5.33-.21-.92-.45-1.83-.67-2.75-.13-.56-.1-1.18-1.1-1.38-.79-.16-2.61.65-2.44,1.09Z"/>
    <path class="cls-1" d="M84.69,52.62c1.21,3.4,1.92,6.95,2.7,10.47.69,3.06.08,6.68,4.05,9.05.06.04.28-.02.26-.07-1.03-3.41-1.58-6.84-2.1-10.35-.28-1.89-.5-3.8-.81-5.69-.16-.98-.37-1.96-.56-2.93-.12-.6-.07-1.24-1.07-1.51-.79-.21-2.63.57-2.47,1.03Z"/>
    <path class="cls-1" d="M80.12,57.63c1.16,4,1.94,8.11,2.95,12.15.87,3.49.64,7.77,4.93,10.18.07.04.27-.04.25-.09-1.46-3.76-2.33-7.65-3.03-11.61-.38-2.14-.66-4.29-.99-6.44-.17-1.11-.38-2.22-.56-3.33-.11-.68-.05-1.4-1.05-1.78-.79-.31-2.67.38-2.51.92Z"/>
    <path class="cls-1" d="M78.99,62.95c-.12-.2-.14-.5-.07-.7l-2.79-.19c.96,3.86,1.94,7.73,3.3,11.48.68,1.87,1.17,3.97,2.14,5.85.96,1.88,2.38,3.52,4.81,4.34.08.03.26-.1.23-.15-2.41-3.63-4.03-7.68-5.2-11.87-.64-2.26-1.09-4.56-1.51-6.85-.22-1.18-.44-2.36-.63-3.54l-.96-5.99-2.35,5.76v.03c-.28.62-.41,1.28-.3,1.9.11.61.49,1.18,1.13,1.39.52.17,1.08-.24,1.49-.65.41-.42.78-.75.73-.83Z"/>
    <path class="cls-1" d="M75.08,70.88c1.15,4.52,1.93,9.12,2.92,13.67.86,3.93.61,8.67,4.92,11.59.07.05.28-.03.26-.09-1.46-4.26-2.31-8.63-3-13.08-.37-2.39-.65-4.81-.97-7.21-.17-1.25-.37-2.49-.55-3.73-.11-.77-.04-1.55-1.05-2.04-.8-.39-2.68.27-2.53.89Z"/>
    <path class="cls-1" d="M70.31,83.8c1.71,3.09,2.98,6.39,4.37,9.63,1.21,2.81,1.3,6.44,5.64,7.88.07.02.27-.08.24-.12-1.67-3.04-2.84-6.22-3.95-9.49-.58-1.76-1.16-3.54-1.74-5.32-.31-.92-.67-1.82-1.01-2.72-.21-.56-.26-1.18-1.28-1.27-.81-.06-2.5.99-2.27,1.41Z"/>
    <path class="cls-1" d="M66.56,90.05c1.75,4.04,3.27,8.18,5.14,12.19,1.59,3.43,2.45,7.93,7.29,9.36.08.02.25-.11.22-.15-2.43-3.44-4.21-7.23-5.71-11.16-.81-2.12-1.49-4.28-2.18-6.44-.36-1.12-.72-2.23-1.09-3.34-.22-.69-.25-1.42-1.31-1.71-.83-.22-2.6.7-2.37,1.25Z"/>
    <path class="cls-1" d="M65.94,100.1c1.59,3.77,3.06,7.6,4.98,11.24.82,1.56,1.48,3.37,2.56,4.91,1.08,1.53,2.57,2.78,4.96,3.12.08.01.24-.14.21-.17-2.58-2.89-4.47-6.27-5.98-9.82-.82-1.91-1.48-3.89-2.12-5.86-.33-1.02-.68-2.03-.98-3.06-.19-.63-.2-1.31-1.23-1.55-.82-.2-2.61.68-2.39,1.19Z"/>
    <path class="cls-1" d="M63.83,109.45c1.24,3.87,2.74,7.69,4.99,11.12.96,1.46,1.85,3.17,3.19,4.49,1.32,1.31,3.09,2.23,5.43,1.9.07,0,.2-.19.16-.22-3.11-2.02-5.5-4.99-7.21-8.26-.92-1.77-1.61-3.64-2.18-5.52-.29-.97-.59-1.94-.81-2.93-.15-.61-.08-1.24-1.08-1.55-.79-.25-2.66.43-2.49.97Z"/>
    <path class="cls-1" d="M67.47,124.63c1.4,2.67,2.68,5.4,4.38,7.91.73,1.07,1.3,2.39,2.26,3.39.96,1,2.3,1.67,4.41,1.32.07-.01.21-.17.18-.2-2.25-1.69-3.9-3.98-5.2-6.45-.7-1.33-1.25-2.74-1.78-4.13-.27-.72-.57-1.43-.82-2.16-.16-.45-.13-.96-1.11-.98-.77-.02-2.52.93-2.33,1.29Z"/>
    <path class="cls-1" d="M69.84,135.87c1.31,2.44,2.53,4.94,4.17,7.2.7.97,1.26,2.17,2.19,3.05.93.87,2.24,1.4,4.25.86.06-.02.2-.19.17-.21-2.16-1.39-3.76-3.42-4.98-5.64-.66-1.2-1.18-2.48-1.66-3.74-.25-.66-.52-1.3-.74-1.96-.14-.41-.1-.87-1.06-.85-.76.01-2.51.95-2.33,1.29Z"/>
  </g>
  <g>
    <path class="cls-1" d="M210.81,200.83c-.68,10.51-1.98,20.99-3.87,31.36-.95,5.18-2.04,10.34-3.28,15.47l-.96,3.84c-.32,1.28-.65,2.52-1.08,3.65-.43,1.13-.98,2.15-1.71,2.95-.72.82-1.68,1.46-2.74,1.99-2.14,1.05-4.74,1.66-7.28,2.44l-7.63,2.23-15.26,4.46c-10.13,2.95-20.37,5.72-30.72,5.78-4.41.01-8.91-.61-12.89-2.46-3.99-1.85-7.39-4.94-10.17-8.59-2.8-3.66-5.04-7.82-7.11-12.12-2.05-4.32-4.03-8.72-5.9-13.12-7.51-17.64-13.44-35.59-18.59-52.08-.17-.52-.32-.2-.2.34,4.34,19.96,10.65,39.41,18.88,58.03,2.08,4.64,4.15,9.3,6.67,13.77,2.52,4.44,5.53,8.74,9.53,12.11,1.99,1.68,4.23,3.08,6.64,4.13,2.42,1.02,4.98,1.65,7.55,2.01,5.17.69,10.37.34,15.47-.34,5.5-.76,10.9-2.04,16.23-3.47,5.33-1.45,10.59-2.99,15.88-4.48l15.87-4.51c1.34-.39,2.71-.83,4.07-1.46,1.35-.62,2.69-1.47,3.78-2.65,1.11-1.17,1.85-2.59,2.39-3.97.54-1.39.9-2.77,1.24-4.1,2.93-11.08,5.16-22.34,6.73-33.7.97-6.98,1.83-13.88,1.32-20.25-.43-5.03-2.5-2.93-2.84,2.74Z"/>
    <path class="cls-1" d="M80.76,193.84c-2.81.84-6.07.3-8.57-1.31-1.26-.82-2.27-1.88-3.04-3.16-.77-1.3-1.32-2.8-1.79-4.37-1.88-6.41-3.1-13.03-3.69-19.69-.26-2.87-.32-5.86-.25-8.88.03-1.51.1-3.03.17-4.54.08-1.45.26-2.86.61-4.13.36-1.26.91-2.32,1.71-2.98.78-.69,1.92-.99,3.26-.96,2.69.1,5.5,1.04,8.05,2.65.16.1.27-.11.14-.25-1.2-1.29-2.63-2.33-4.19-3.09-1.56-.73-3.24-1.27-5.04-1.27-1.8-.04-3.7.84-4.78,2.29-1.11,1.44-1.61,3.14-1.9,4.79-.3,1.67-.32,3.33-.39,4.96-.04,1.64-.07,3.28-.05,4.92.04,3.28.21,6.57.53,9.86.36,3.54.86,7.06,1.56,10.56.35,1.75.74,3.49,1.18,5.22.43,1.72.91,3.5,1.71,5.26.81,1.81,2.11,3.59,3.77,4.86,1.64,1.29,3.57,2.17,5.6,2.62,1.25.27,2.53.42,3.78.29,1.24-.15,2.43-.6,3.33-1.4.7-.67.58-1.35.15-1.8-.44-.45-1.11-.66-1.86-.44Z"/>
    <path class="cls-1" d="M216.3,196.72c1.9.5,3.87.57,5.79.35,1.91-.24,3.8-.77,5.53-1.67,1.72-.9,3.33-2.13,4.55-3.73,1.21-1.58,2-3.35,2.63-5.07,2.37-6.8,3.95-13.81,4.67-20.96.31-3.07.55-6.27.6-9.51.02-1.63,0-3.23-.08-4.92-.12-1.72-.39-3.5-1.14-5.25-.38-.87-.89-1.73-1.58-2.48-.69-.75-1.55-1.37-2.49-1.75-1.91-.81-3.88-.61-5.48-.13-3.23,1-5.81,3.23-7.01,5.82-.08.16.15.24.26.12,2.07-2.33,5.16-3.94,8.28-4.25,1.55-.14,3.09.26,4.21,1.27,1.13,1,1.79,2.51,2.14,4.07.37,1.58.43,3.22.47,4.91.04,1.68.04,3.35-.03,5.03-.13,3.35-.44,6.7-.96,10.02-.57,3.57-1.35,7.11-2.37,10.57-.49,1.74-1.07,3.45-1.66,5.14-.6,1.69-1.26,3.29-2.16,4.66-.91,1.43-2.13,2.49-3.58,3.34-1.46.8-3.09,1.33-4.75,1.53-1.03.13-2.04.06-3.02.03-.99-.03-1.92-.1-2.96.03-.81.06-1.32.58-1.35,1.2-.03.59.47,1.38,1.51,1.63Z"/>
    <path class="cls-1" d="M153.81,187.98c-.49-.1-.9-.1-1.3-.06-.2.02-.4.05-.61.1l-.41.09c-.51.12-1.03.22-1.56.3-1.05.16-2.11.22-3.17.21-2.12-.03-4.24-.41-6.24-1.1-.99-.35-2-.77-2.86-1.25-.86-.49-1.51-1.04-1.9-1.74-.85-1.39-.8-3.51-.54-5.65.49-3.83,1.42-7.92,1.99-11.98.57-4.07.78-8.13-.19-12.11-.03-.13-.26-.11-.28,0-.68,4.33-1.4,8.63-2.12,12.93-.36,2.15-.72,4.3-1.07,6.46l-.53,3.24c-.18,1.08-.35,2.19-.42,3.34-.07,1.23-.03,2.54.37,3.84.38,1.3,1.29,2.55,2.37,3.37,1.08.84,2.21,1.37,3.35,1.88,1.15.5,2.34.9,3.56,1.21,2.53.63,5.18.81,7.8.57.81-.06,1.62-.15,2.37-.36.25-.07.21-.08.32-.12.08-.04.17-.08.25-.13.08-.05.15-.1.2-.16,0-.02.02-.04.03-.05,0-.04.06-.16.1-.23.06-.14.15-.26.21-.33.1-.11.13-.1.09-.09-.02,0-.07.01-.04,0,.06,0,.13,0,.2.01.29.04.59.14.89.04.28-.07.61-.44.44-1.08-.18-.62-.81-1.07-1.31-1.16Z"/>
    <path class="cls-1" d="M174.68,215.75c-.67,1.42-2.03,2.53-3.59,3.34-1.57.82-3.38,1.34-5.21,1.75-3.75.77-7.62,1.29-11.46,1.65-1.67.16-3.37.19-5.15.21-1.78.03-3.7.09-5.63.6-1.93.51-3.71,1.47-5.06,2.79-1.36,1.31-2.29,2.97-2.55,4.71-.02.11.18.21.24.13,2.05-2.89,5.36-4.93,8.94-5.49,1.8-.3,3.66-.33,5.56-.39,1.9-.07,3.8-.17,5.7-.31,2.05-.15,4.1-.34,6.15-.59,2.04-.26,4.09-.5,6.19-1.03,2.15-.56,4.35-1.37,6.32-2.89,1.19-.88,2.44-2.18,2.18-3.81-.11-.63-.7-.96-1.29-1.05-.6-.09-1.15,0-1.33.37Z"/>
    <path class="cls-1" d="M188.39,214.84c-.74-2.53-1.4-5.1-2.55-7.49-.49-1.02-.81-2.26-1.56-3.22-.37-.48-.85-.89-1.5-1.14-.16-.06-.33-.12-.51-.16-.08,0-.2-.07-.33-.11-.12-.03-.25-.05-.39-.05-.13,0-.28.03-.4.1-.12.07-.16.23-.11.29-.06-.03-.03,0,.03-.05.05-.04.1-.15.1-.15,0-.01-.03.07-.03.2,0,.05.03.1.02.09-.02,0-.08.03-.15.08-.11.12-.07.04.08-.05.06-.05.1,0,.07-.05-.02-.05,0-.13,0-.18.02-.12.04-.1-.02-.01-.04.08-.14.14-.13.12.01,0,.04.02.08.06.02.03-.02-.02.05.07h0s-.01-.03-.01-.03c-.01-.04.02.05-.05.2-.03.07-.08.15-.13.22l-.08.1s0,0,0,0c.02.01.02-.02.07.04l.15.17.29.34c.38.46.72.95,1.03,1.45.61,1.02,1.09,2.12,1.46,3.25.4,1.22.63,2.5.83,3.75.1.65.22,1.29.29,1.94.05.4-.09.82.84.98.74.13,2.66-.41,2.55-.76Z"/>
    <path class="cls-1" d="M194.63,212.48c-.25-2.27-.6-4.56-1.59-6.66-.42-.89-.7-1.98-1.43-2.77-.72-.78-1.9-1.23-3.72-.5-.06.02-.2.19-.18.2,1.71.94,2.81,2.69,3.3,4.54.27,1,.35,2.04.35,3.04,0,.52.02,1.02-.03,1.53-.02.32-.25.61.65.86.71.21,2.69.08,2.65-.24Z"/>
    <path class="cls-1" d="M175.47,144.25c.37-.91.94-1.76,1.45-2.05.46-.24.73-.22,1.36.34.28.27.59.67.87,1.08.27.4.51.83.7,1.25.38.86.58,1.74.54,2.57-.03.68-.35,1.36-.8,1.87-.46.52-.97.82-1.46.98-.38.15-1.01.23-1.79.1-.75-.15-1.8-.39-2.64-1.65-.05-.08-.27-.06-.27.02.05,1.57,1.05,2.75,2.15,3.37.56.32,1.18.52,1.83.59.65.07,1.33-.05,1.91-.28,2.38-.98,3.7-3.59,3.48-6.08-.09-1.34-.52-2.63-1.13-3.79-.31-.59-.64-1.13-1.08-1.69-.44-.55-1-1.13-1.87-1.52-.9-.41-2.05-.4-2.99,0-.91.4-1.56,1.01-2.07,1.6-.62.72-1.24,1.43-.73,2.47.41.8,2.36,1.29,2.55.82Z"/>
    <path class="cls-1" d="M114.43,144.31c.47-.62,1.32-1.06,2.21-1.12.89-.08,1.75.2,2.29.73.56.53.9,1.38.91,2.26.02.88-.27,1.74-.78,2.31-.45.5-1.17.83-1.94.9-.77.07-1.55-.04-2.23-.29-.68-.24-1.3-.56-2.01-1.15-.67-.57-1.48-1.33-1.83-2.83-.02-.1-.24-.15-.26-.07-.51,1.52-.08,3.03.64,4.15.73,1.15,1.9,1.99,3.17,2.36,1.26.38,2.63.38,3.9-.03,1.27-.4,2.47-1.29,3.16-2.54.74-1.33.97-2.91.63-4.45-.31-1.52-1.38-3.08-2.97-3.82-1.62-.78-3.47-.77-5.14-.15-.52.19-1.04.43-1.45.8-.4.39-.68.91-.6,1.56.07.52.61.9,1.15,1.15.55.24,1.02.39,1.14.24Z"/>
    <path class="cls-1" d="M131.62,130.42l1.32-1.15.34-.29c.2-.17.4-.35.57-.55.34-.39.59-.85.68-1.36.09-.51,0-1.02-.2-1.5-.1-.24-.23-.48-.36-.69l-.28-.44c-.34-.54-.73-1.06-1.13-1.55-1.61-1.98-3.56-3.53-5.53-4.9-.99-.69-1.99-1.33-2.98-1.96-.99-.63-1.99-1.27-3.07-1.87-1.08-.6-2.24-1.14-3.5-1.52-1.26-.38-2.63-.54-3.92-.5-2.61.09-4.94.75-7.22,1.34-2.3.62-4.57,1.34-6.8,2.15-2.24.81-4.44,1.71-6.6,2.71-1.08.5-2.14,1.02-3.22,1.56-1.08.59-2.4,1.26-3.33,2.8-.36.62-.57,1.4-.59,2.09-.03.69.08,1.3.19,1.83.11.47.22.95.34,1.42.05.14.07.44.08.66l.03.36c-.06.18-.24.46-.36.68l-.4.71-.66,1.15-1.71,2.92c1.31-.69,1.79-.92,2.15-1.1.09-.04.27-.13.29-.13.03,0,0,.02.07-.01.79-.42,1.57-.84,2.36-1.26.8-.43,1.6-.85,2.4-1.24l.93-.45.62-.28c1.65-.75,3.34-1.44,5.05-2.07,3.43-1.28,6.83-2.2,10.28-2.2,3.47-.03,6.95.66,10.35,1.6,3.4.95,6.72,2.15,10.01,3.2.24.07.24-.18.03-.3-3.2-1.81-6.51-3.49-9.98-4.77-3.47-1.28-7.16-2.11-10.91-2.09-3.77-.02-7.41,1.05-10.83,2.35-1.72.65-3.41,1.36-5.08,2.14-.97.46-1.34.64-1.85.89l-.72.37c.15-.22.24-.51.25-.78.01-.25-.02-.51-.07-.75l-.27-1.17c-.19-.79-.29-1.53-.13-2.1.16-.57.61-1.08,1.22-1.51.6-.43,1.32-.78,2.08-1.14,4.32-2.09,8.82-3.78,13.42-5.07,2.29-.62,4.66-1.24,6.91-1.55,1.12-.14,2.23-.18,3.27-.03,1.03.14,2.04.48,3.04.96,1.03.49,2.05,1.11,3.08,1.78,1.04.68,2.09,1.37,3.1,2.06,2.01,1.39,3.91,2.86,5.36,4.61.45.53.84,1.09,1.19,1.66l.2.34h0s0,0,.01,0c0,0,.01,0,.01.02v.02s-.17.17-.17.17c-.26.26-.51.53-.75.8-.48.55-.92,1.12-1.31,1.74-1.21,1.96.81,2.84,2.71,1.18Z"/>
    <path class="cls-1" d="M158.13,139.07c-4.62-1.02-9.29-1.86-14.1-1.84-2.06.03-4.33-.11-6.55.52-.55.14-1.09.4-1.61.64-.51.29-1.01.63-1.43,1.05-.85.83-1.46,2.09-1.18,3.24.01.07.21.17.24.13.36-.76,1.22-1.38,2.12-1.85.47-.22.94-.44,1.46-.58.5-.18,1.02-.3,1.55-.4,2.11-.42,4.31-.44,6.48-.28,2.35.18,4.67.64,6.94,1.18,1.18.29,2.35.57,3.51.92.72.21,1.35.62,2.22-.07.69-.54.99-2.52.35-2.65Z"/>
    <path class="cls-1" d="M155.04,158.36c-.39-4.89-.14-9.81.15-14.71.25-4.26,2.01-8.8-.91-13.29-.05-.07-.27-.07-.27,0-.23,4.82-.82,9.52-1.34,14.31-.28,2.58-.59,5.16-.78,7.77-.1,1.35-.14,2.7-.18,4.05-.03.83-.22,1.66.69,2.36.72.55,2.69.18,2.64-.47Z"/>
    <path class="cls-1" d="M158.87,160.02c11.16-.67,22.33-1.25,33.51-1.81l8.38-.42,4.19-.21,2.78-.14.97-.05.49-.03h.12s.01-.07.03-.11v-.24s.06-1.95.06-1.95l.05-2.5.02-2.11c.01-1.41,0-2.82-.02-4.23-.05-2.82-.14-5.64-.31-8.45-.08-1.25-.16-2.52-.24-3.8-.05-.64-.09-1.28-.14-1.92-.09-1.1-.18-2.2-.27-3.31-2.62-.23-5.27-.45-7.93-.68-2.2-.17-4.43-.31-6.65-.43-4.45-.22-8.94-.31-13.37-.21-8.86.21-17.52,1.21-25.24,3.38-.28.08-.11.28.18.26,8.55-.86,17.13-1.28,25.71-1.29,4.29,0,8.58.1,12.87.31,2.14.11,4.29.23,6.43.38l3.21.25,2.61.24.19,2.56.19,3.17c.11,2.12.18,4.24.23,6.36.05,2.89.05,5.78-.03,8.67l-.07,2.16-.02.4v.23s-.03.22-.03.22c0,.07.02.17-.09.14h-.45s-.85.03-.85.03l-2.17.08-17.39.61-18.03.7c-3.7.14-7.33.1-10.6,1.15-2.59.83-1.34,2.76,1.67,2.57Z"/>
    <path class="cls-1" d="M126.51,130.8c-6.9.49-13.79.98-20.69,1.47l-10.35.69-5.18.34-1.29.08c-.43.03-.85.05-1.38.1-.51.06-1.07.15-1.68.41-.67.27-1.35.84-1.69,1.54-.22.43-.33.92-.35,1.4-.02.42.03.77.08,1.09l.29,1.61.58,3.14,1.16,6.27,2.59,13.96,7.74-.66c6.18-.53,12.63-.98,19.15-1.48,3.26-.25,6.53-.51,9.8-.8,1.63-.16,3.26-.31,4.89-.46,2.12-.22,4.24-.44,6.35-.65v-3.16s-.01-1.7-.01-1.7c-.03-1.13-.06-2.26-.09-3.38-.07-2.24-.18-4.46-.32-6.65-.29-4.38-.72-8.63-1.37-12.69-.05-.31-.27-.15-.27.17-.02,4.31-.04,8.62-.06,12.93-.05,4.12-.1,8.23-.15,12.35l-10.47.93c-3.69.31-7.38.61-11.07.92-7.24.56-14.48,1.12-21.75,1.68l-.36.02-2.03-11.8-1.07-6.29-.54-3.14-.26-1.54c-.03-.22-.04-.41-.03-.55,0-.09.03-.16.07-.23.04-.06.09-.12.15-.16.06-.04.11-.06.27-.12.28-.09.67-.15,1.1-.17l2.92-.15,5.89-.31,19.68-1.09c4.04-.22,8-.26,11.58-1.38,2.83-.89,1.49-2.79-1.81-2.54Z"/>
    <path class="cls-1" d="M227.07,138.28c-3.53-.95-7.06-1.98-10.7-2.5-1.58-.23-3.19-.69-4.72-.81-1.57-.14-2.95.14-5.09,1.1-.07.03-.14.24-.09.25,3.59,1.12,7.04,1.17,10.36,2.02,1.79.43,3.54,1.03,5.25,1.66.89.32,1.78.63,2.66.98.54.21,1.01.6,1.77-.08.61-.54,1.05-2.48.56-2.61Z"/>
    <path class="cls-1" d="M76.17,149.46c1.89-1.49,3.94-2.75,5.81-4.27,1.58-1.29,4.26-1.99,3.18-5.91-.02-.06-.18-.21-.2-.18-1.27,1.92-3.04,3.33-4.96,4.53-1.04.65-2.15,1.19-3.23,1.74-.56.3-1.11.59-1.67.88-.35.18-.78.19-.57,1.11.17.73,1.38,2.3,1.64,2.1Z"/>
    <path class="cls-1" d="M73.65,152c1.54,5.21,2.89,10.48,4.61,15.65,1.47,4.43,2.17,9.96,7.12,12.7.08.04.27-.07.24-.13-2.39-4.62-4.06-9.51-5.41-14.53-.73-2.7-1.32-5.44-1.91-8.17-.31-1.42-.62-2.83-.93-4.24-.18-.87-.18-1.77-1.24-2.32-.83-.43-2.68.34-2.47,1.04Z"/>
    <path class="cls-1" d="M152.14,61.57c-.09-6.62.08-13.25-.15-19.88-.2-5.69.77-12.35-3.53-17.37-.07-.08-.3-.02-.29.07,1.05,6.26,1.3,12.57,1.2,18.91-.05,3.42-.26,6.84-.45,10.25-.09,1.77-.19,3.53-.28,5.3-.07,1.09-.33,2.15.61,3.14.74.78,2.9.48,2.89-.42Z"/>
    <path class="cls-1" d="M160.59,59.2c-.26-6.47-.36-12.97-1.01-19.43-.54-5.53-.05-12.17-4.97-16.59-.08-.07-.31.02-.29.1,1.66,5.95,2.38,12.07,2.63,18.24.14,3.33.09,6.66.02,9.98-.04,1.72-.05,3.44-.11,5.16-.03,1.06-.29,2.09.72,3.03.8.74,3.04.4,3-.48Z"/>
    <path class="cls-1" d="M165.89,55.65c-.12-6.04-.36-12-.67-17.93-.14-2.55.04-5.29-.14-7.96-.18-2.68-.72-5.25-2.28-7.79-.05-.08-.26-.05-.26.02.13,5.81.34,11.47.38,17.23.03,3.09-.02,6.19-.08,9.26-.03,1.59-.04,3.18-.11,4.76-.03.98-.27,1.91.58,2.79.67.7,2.6.44,2.58-.38Z"/>
    <path class="cls-1" d="M171.5,23.35l-.61-1.2-2.89.77c.45,4.88.35,9.79.18,14.68-.08,2.3-.55,4.73-.62,7.16-.04,1.21.03,2.43.28,3.64.06.3.14.61.24.91.1.27.18.69.39,1.02.18.32.54.6.98.49.21-.08.29-.28.35-.41.08-.12.08-.29.08-.22.02.02.2-.04.22-.06.12-.01.07.39-.15.29-.18-.08-.22-.25-.24-.44-.02-.18.02-.59.03-.89l.06-.98c.09-1.3.19-2.59.28-3.89.22-2.59.44-5.18.66-7.8.23-2.81.46-5.64.57-8.48.05-1.47.05-2.94.04-4.42,0-.29,0-.58,0-.87l-3.53.95c.23.55.56,1.03,1.35,1.25.92.26,2.64-.88,2.31-1.52Z"/>
    <path class="cls-1" d="M181.02,21.55c-.13,4.36-1.01,8.67-2.02,12.9-.44,1.83-1.27,3.68-1.75,5.59-.48,1.93-.59,3.93.39,6.27.03.07.24.13.26.07,1.14-4.19,2.5-8.21,3.72-12.38.66-2.24,1.31-4.5,1.82-6.8.26-1.19.47-2.4.66-3.61.13-.74.4-1.47-.42-2.19-.65-.57-2.64-.44-2.66.14Z"/>
    <path class="cls-1" d="M175.41,22.56c-.09,4.31-.81,8.58-1.61,12.81-.35,1.83-1.05,3.7-1.42,5.62-.37,1.92-.41,3.89.55,6.07.03.07.22.1.24.04.87-4.17,1.96-8.19,2.96-12.33.53-2.22,1.07-4.46,1.5-6.72.22-1.17.39-2.36.55-3.54.11-.73.35-1.44-.39-2.13-.59-.55-2.35-.4-2.37.18Z"/>
    <path class="cls-1" d="M188.5,23.67c-.85,3.85-2.19,7.57-3.44,11.3-1.08,3.25-3.57,6.38-1.44,10.67.03.07.25.12.26.07.95-3.75,2.34-7.28,3.8-10.85.79-1.92,1.64-3.83,2.41-5.77.4-1.01.76-2.02,1.13-3.04.23-.62.62-1.2-.08-1.99-.55-.63-2.53-.92-2.64-.4Z"/>
    <path class="cls-1" d="M193.74,28.65c-.32,3.45-1.36,6.79-2.5,10.05-.49,1.41-1.37,2.77-1.9,4.24-.53,1.48-.7,3.09.15,5.24.03.07.23.15.25.11,1.26-3.28,2.72-6.35,4.09-9.57.73-1.73,1.47-3.48,2.08-5.29.31-.94.57-1.89.82-2.85.16-.59.47-1.16-.32-1.81-.63-.51-2.63-.57-2.67-.11Z"/>
    <path class="cls-1" d="M203.49,33.77c-.2-.29-.66-.63-1.18-.68-.06,0-.13-.01-.19-.01h-.11c-.07.01-.14.02-.21.03-.14.03-.28.07-.4.12-.5.23-.7.53-.85.73-.28.45-.29.57-.39.77l-.53,1.12-1.11,2.22c-.75,1.48-1.52,2.95-2.24,4.44-1.24,2.57-3.78,4.97-1.72,8.93.03.06.24.14.25.1.92-3.09,2.38-5.89,4.02-8.65.88-1.48,1.85-2.92,2.77-4.39.47-.77.93-1.53,1.39-2.29l.23-.34s.04-.06.04-.06h0s0,0,0,0l-.07-.04-.14-.08c-.33-.19-.52-.32-.67-.44-.14-.12-.22-.22-.25-.28-.02-.03-.02-.05-.02-.05,0,0,0,0,0,0h0s0,0,0,0h0c0-.07,0,.16,0-.16h0s0,0,0,0c.01-.02-.03.06-.09.08-.06.03-.05,0,.05.01.18.04.11.08.12,0,0-.01,0-.02,0-.03l-.03.17c-.03.15-.06.3-.02.45.03.15.14.31.41.35.27.05.67-.16.86-.41.2-.24.3-.51.32-.76.02-.26-.03-.53-.26-.85Z"/>
    <path class="cls-1" d="M206.93,35.78c-.33.18-1.14.1-.91.13v.02s0,0,0,0l.13.05.08.04.04.02h.01c.06.03-.48-.22-.26-.11h0s0,.01,0,.01l-.03.07-.06.15-.53,1.16-1.11,2.29c-.75,1.52-1.52,3.04-2.25,4.58-1.24,2.65-3.79,5.15-1.72,9.15.03.06.24.13.25.09.92-3.17,2.38-6.06,4.02-8.91.88-1.53,1.85-3.02,2.78-4.53.47-.79.93-1.58,1.4-2.37l.11-.18c.05-.08.05-.06.14-.25.14-.3.21-.56.23-.85.01-.29-.03-.59-.19-.94-.16-.32-.5-.83-1.17-.99-.52-.09-.74.22-.8.49-.07.28,0,.59,0,.89,0,0,0-.11.02-.13,0-.02,0,.05-.2.14Z"/>
    <path class="cls-1" d="M208.31,41c-.99,3.35-2.35,6.57-3.49,9.88-.98,2.84-3.29,5.68-.83,9.52.04.06.25.11.26.06.61-3.33,1.8-6.45,3.16-9.54.73-1.66,1.56-3.29,2.34-4.94.41-.85.77-1.72,1.17-2.58.24-.53.65-.99-.01-1.76-.52-.61-2.46-1.09-2.59-.64Z"/>
    <path class="cls-1" d="M209.14,49.25c-.94,3.56-2.11,7.06-2.92,10.66-.7,3.07-2.62,6.5.48,9.96.05.05.27.06.27.02.02-3.51.78-6.92,1.84-10.25.57-1.8,1.27-3.55,1.96-5.3.35-.91.7-1.81,1.05-2.72.22-.56.62-1.04-.06-1.81-.54-.61-2.49-1.03-2.61-.55Z"/>
    <path class="cls-1" d="M213.67,54.42c-.86,4.08-2.1,8.07-3.12,12.11-.88,3.49-3.09,7.16-.44,11.3.04.07.26.09.27.04.48-4.01,1.55-7.84,2.8-11.67.67-2.06,1.44-4.1,2.16-6.15.37-1.06.71-2.13,1.07-3.2.22-.66.61-1.25-.09-2.07-.55-.64-2.53-.92-2.65-.37Z"/>
    <path class="cls-1" d="M220.48,61.67c.38-.94.41-1.98.04-2.95l-1.75-4.53-1.05,4.72c-.84,3.78-2.11,7.44-3.44,11.06-.66,1.81-1.72,3.61-2.41,5.52-.69,1.92-1.02,3.95-.26,6.41.02.08.23.15.25.09,1.54-4.16,3.34-8.11,5.08-12.18.94-2.19,1.88-4.4,2.71-6.65.43-1.16.79-2.35,1.17-3.53l-3.32.23h0c0,.09-.06.19-.03.29.03.11.17.22.47.59.23.28.68.8,1.18,1.1.49.31,1.13.3,1.33-.18Z"/>
    <path class="cls-1" d="M218.68,67.75c-.85,4.58-2.08,9.08-3.09,13.64-.87,3.92-3.08,8.13-.4,12.58.04.07.26.09.27.03.47-4.48,1.53-8.8,2.77-13.13.67-2.33,1.43-4.63,2.15-6.95.37-1.2.71-2.41,1.07-3.61.22-.74.61-1.43-.1-2.29-.56-.68-2.55-.88-2.67-.26Z"/>
    <path class="cls-1" d="M223.69,79.98c-1.46,3.27-3.18,6.42-4.6,9.72-1.22,2.82-3.72,5.69-1.37,9.64.04.06.25.12.26.07.71-3.36,2.07-6.48,3.69-9.49.87-1.62,1.85-3.19,2.82-4.76.49-.82.98-1.63,1.47-2.45.31-.5.77-.9.22-1.77-.44-.68-2.29-1.41-2.49-.97Z"/>
    <path class="cls-1" d="M227.34,86.47c-1.44,4.1-3.37,8.01-5.21,11.94-1.6,3.41-4.61,6.59-3.14,11.39.02.08.23.15.25.1,1.56-3.96,3.51-7.64,5.54-11.37,1.09-2.01,2.24-3.99,3.32-6.02.56-1.05,1.07-2.12,1.6-3.19.33-.65.81-1.24.23-2.17-.46-.73-2.39-1.24-2.59-.69Z"/>
    <path class="cls-1" d="M227.94,96.56c-1.26,3.77-3.11,7.31-4.97,10.82-.8,1.51-1.97,2.95-2.79,4.56-.82,1.61-1.28,3.4-.73,5.77.02.07.21.18.24.13,1.78-3.52,3.84-6.77,5.9-10.13,1.1-1.81,2.24-3.61,3.27-5.48.54-.97,1.03-1.96,1.52-2.95.31-.61.76-1.15.15-2.03-.48-.69-2.42-1.18-2.59-.68Z"/>
    <path class="cls-1" d="M229.97,106.16c-.87,3.67-2.68,7.06-4.74,10.18-.9,1.36-2.19,2.54-3.2,3.9-1.03,1.37-1.77,2.92-1.82,5.33,0,.08.16.22.2.18,2.58-2.91,5.09-5.71,7.39-8.83,1.23-1.68,2.42-3.43,3.43-5.29.52-.97.98-1.97,1.4-2.99.27-.62.68-1.21,0-2.02-.54-.64-2.52-.93-2.64-.45Z"/>
    <path class="cls-1" d="M226.5,120.9c-1.06,2.65-2.67,5.04-4.27,7.38-.69,1.02-1.72,1.88-2.42,2.97-.7,1.09-1.07,2.41-.57,4.51.02.07.19.2.21.17,1.57-2.45,3.37-4.59,5.19-6.83.98-1.2,1.99-2.41,2.92-3.68.48-.66.92-1.35,1.35-2.04.27-.42.69-.78.08-1.55-.48-.61-2.36-1.28-2.5-.93Z"/>
    <path class="cls-1" d="M224.14,132.12c-.96,2.41-2.49,4.53-4.01,6.6-.66.9-1.64,1.63-2.31,2.59-.67.97-1.02,2.18-.57,4.23.01.07.18.21.2.18,1.53-2.19,3.27-4.07,5.03-6.05.94-1.07,1.92-2.14,2.81-3.29.46-.6.87-1.22,1.29-1.85.26-.38.67-.7.04-1.44-.49-.58-2.36-1.28-2.49-.96Z"/>
    <path class="cls-1" d="M217.62,145.29c-.83,2.38-2.11,4.57-3.28,6.79-1.03,1.95-3.3,3.37-1.38,7.01.03.06.22.16.24.13.9-2.37,2.2-4.44,3.6-6.53.75-1.12,1.57-2.22,2.31-3.37.39-.59.74-1.21,1.1-1.82.22-.37.6-.68-.06-1.37-.52-.55-2.41-1.17-2.52-.86Z"/>
    <path class="cls-1" d="M218.24,154.93c-1.15,2.4-2.58,4.66-3.76,7.06-1,2.05-3.26,3.96-.82,7.35.04.05.25.12.25.09.53-2.51,1.68-4.76,3.05-6.9.74-1.15,1.57-2.25,2.38-3.36.41-.58.82-1.15,1.23-1.73.26-.35.66-.61.08-1.37-.46-.61-2.26-1.45-2.42-1.13Z"/>
    <path class="cls-1" d="M216.3,164.85c-.45,1.73-1.26,3.34-1.86,5.02-.52,1.45-2.29,2.69.6,5.24.05.04.26.1.26.08.1-1.78.76-3.36,1.6-4.88.45-.82,1-1.61,1.5-2.42.26-.42.48-.85.73-1.27.15-.26.47-.45-.27-1-.58-.43-2.49-1-2.55-.77Z"/>
    <path class="cls-1" d="M107.01,118.57c1.99-.88,4.05-1.5,6.04-1.47,1,.02,1.96.17,2.9.51.94.34,1.87.83,2.79,1.41,1.83,1.18,3.66,2.57,5.36,4.01l1.27,1.11c.4.36.74.7,1.04,1.07.29.36.51.73.61,1.04.1.32.09.51.02.71l2.3-.59c-1.11-.94-2-2.3-2.95-3.76-.96-1.45-2.02-3.1-3.68-4.33-1.6-1.26-3.57-1.93-5.49-2.2-1.93-.25-3.83-.1-5.66.23-1.82.36-3.58.92-5.27,1.62-1.65.7-3.24,1.46-4.8,2.19-1.56.72-3.11,1.42-4.67,1.94-.78.27-1.56.48-2.34.66-.39.08-.78.16-1.18.21l-.32.04h-.1c-.13.02-.31.02-.35-.13-.02-.14.1-.26.2-.33.03-.02.06-.04.09-.05l.18-.08,1.14-.51c.77-.32,1.55-.61,2.33-.89,3.16-1.05,6.47-1.66,9.8-1.81,6.65-.27,13.45,1.31,19.11,4.66,1.92,1.17,3.55,2.77,3.77,4.53l1.36-1.83c-.14.01-.25,0-.46-.09-.21-.09-.48-.28-.77-.54-.61-.51-1.25-1.24-2.25-1.94-1.02-.7-2.13-1.06-3.15-1.3-1.03-.24-1.96-.37-2.93-.52-3.84-.58-7.77-.8-11.7-.67-3.93.14-7.87.64-11.73,1.52-1.93.43-3.84.99-5.7,1.58-1.8.61-3.43,1.06-4.73.81l.85,2.99c2.58-2.49,5.91-4.2,9.44-5.19,3.53-.99,7.26-1.23,10.94-1.01,3.68.24,7.37.88,10.87,1.79.86.25,1.7.57,2.48,1.02.78.44,1.51,1,2.23,1.55,1.42,1.09,2.9,2.2,4.44,2.37.41.06.24-.22-.13-.31-1.49-.45-2.79-1.73-4.2-3-.71-.64-1.48-1.28-2.38-1.81-.89-.52-1.82-.88-2.74-1.19-3.65-1.13-7.35-1.97-11.16-2.3-3.79-.33-7.68-.13-11.38.89-3.69,1.01-7.22,2.8-10.04,5.45l-.92.86,1.23.23c2.12.4,4.11-.26,5.9-.83,1.8-.57,3.6-1.1,5.45-1.5,3.67-.84,7.42-1.33,11.18-1.49,3.76-.15,7.54.04,11.27.57,1.85.3,3.79.5,5.18,1.4.69.45,1.32,1.14,2.08,1.81.39.33.81.66,1.34.92.52.25,1.19.39,1.81.3l.74-.11-.1-.74c-.21-1.52-1.01-2.88-1.99-3.92-.99-1.06-2.14-1.89-3.33-2.59-2.39-1.36-4.9-2.45-7.53-3.25-4.7-1.46-9.69-1.91-14.6-1.51-2.46.22-4.89.69-7.26,1.38-1.19.33-2.35.77-3.51,1.21l-1.8.8c-.87.4-1.63,1.03-2.1,1.72-.47.69-.73,1.47-.5,2.27.26.81.93,1.31,1.67,1.51.37.13.88.08,1.34.1.47.02.95.01,1.45-.07.67-.07,1.28-.18,1.91-.31,2.5-.54,4.81-1.51,7.02-2.5,2.21-.99,4.36-2.06,6.5-2.8,2.15-.74,4.39-1.2,6.56-1.17,2.61.03,5.04.89,6.64,2.77.83.94,1.55,2.11,2.35,3.35.81,1.24,1.72,2.57,3.02,3.7l1.72,1.49.85-2.15c.33-.83.34-1.81.11-2.57-.22-.77-.57-1.39-.95-1.92-.38-.53-.8-.98-1.22-1.4-.44-.42-.8-.74-1.22-1.11-1.61-1.43-3.29-2.76-5.05-4.01-1.3-.92-2.72-1.82-4.34-2.46-1.62-.65-3.46-.9-5.15-.76-1.7.12-3.27.59-4.69,1.2-1.42.61-2.68,1.38-3.83,2.22-1.8,1.34-1.98,2.23-1.22,2.47.77.25,2.49-.19,4.65-1.16Z"/>
    <path class="cls-1" d="M102.15,122.04c2.31-.63,4.62-1.08,6.83-1.01,1.1.03,2.16.22,3.15.54.99.33,1.97.85,3,1.43,1.8,1.03,3.61,2.42,5.59,3.4.99.49,2.04.88,3.15,1.07.56.1,1.14.15,1.74.13.29-.01.56-.04.89.03.32.06.65.28.82.5.05.05.28-.06.27-.14-.04-.4-.32-.8-.68-1.08-.17-.14-.34-.24-.52-.33l-.41-.2-1.57-.77c-1.04-.53-2.07-1.08-3.08-1.66-2.04-1.15-3.96-2.4-6.01-3.67-1.11-.68-2.37-1.29-3.71-1.66-1.34-.38-2.72-.53-4.09-.55-1.41,0-2.79.15-4.14.33-.83.11-1.67.07-2.17,1.09-.4.81.31,2.68.94,2.51Z"/>
    <path class="cls-1" d="M108.02,120.85c4.59.97,9.18,2,13.86,2.51.76.08,1.54.2,2.33.32l-.37-3.29c-1.26.28-2.58.1-3.93-.12-1.37-.25-2.81-.42-4.95-1-.09-.02-.25.12-.2.18,1.21,1.48,2.8,2.47,4.49,3.03,1.69.55,3.55.67,5.31.17l-.15-1.35c-1.11-.14-2.22-.31-3.32-.51-2.35-.43-4.66-1.03-6.95-1.67-1.19-.33-2.37-.65-3.55-1.01-.72-.22-1.38-.62-2.25.07-.69.55-.95,2.53-.33,2.66Z"/>
    <g>
      <path class="cls-1" d="M163.31,123.59c-.33-.45-.64-.92-.93-1.39-.28-.45-.62-1.02-.77-1.36-.08-.18-.07-.24-.02-.36.02-.02.03-.04.05-.06.01,0,.04-.04.14-.11.17-.12.38-.24.65-.4,2.05-1.19,4.1-2.36,6.18-3.44,4.15-2.18,8.44-4.07,12.89-5.09,2.22-.51,4.48-.79,6.72-.78,2.24.03,4.47.36,6.59,1.02,2.12.67,4.15,1.65,5.99,2.9.93.62,1.8,1.32,2.61,2.07.42.37.8.77,1.19,1.17l.43.47.07.08s-.05.1-.07.15l-.83,1.21c-.55.8-1.11,1.6-1.67,2.41-.03.04-.07.07-.12.05-.09-.05.11.05-.47-.28-.82-.5-1.63-1.11-2.45-1.76-1.66-1.29-3.39-2.8-5.66-3.88-1.13-.53-2.41-.91-3.72-1.02-1.31-.1-2.58.04-3.76.31-2.37.56-4.36,1.52-6.31,2.4-1.96.91-3.87,1.89-5.7,2.94-3.67,2.1-7.04,4.48-9.96,7.12-.18.17.03.3.25.17,3.91-2.31,7.95-4.41,12.07-6.3,2.06-.95,4.15-1.84,6.26-2.69,2.09-.83,4.22-1.58,6.36-1.55,2.14.01,4.13.99,5.93,2.29,1.82,1.28,3.52,2.85,5.57,4.07l.39.22c.17.1.34.2.52.28.36.16.73.28,1.12.24.8-.05,1.34-.8,1.72-1.39l1.96-2.82,1.2-1.73.35-.51.04-.06-.05-.06-.1-.12-.19-.24-.78-.96-.64-.72c-.2-.22-.41-.43-.61-.64-.41-.43-.85-.83-1.29-1.22-3.83-3.38-8.72-5.63-13.87-6.18-5.15-.59-10.34.41-15.11,2.08-4.98,1.74-9.58,4.22-14.09,6.69l-1.08.59c-.21.13-.42.25-.69.46-.3.24-.58.52-.8.83-.45.62-.65,1.4-.57,2.16.04.38.14.76.27,1.1.11.27.23.5.34.7.83,1.44,1.84,2.66,3.11,3.55,1.01.7,1.72.46,1.97-.13.25-.6.08-1.54-.63-2.51Z"/>
      <path class="cls-1" d="M164.06,118.79l-1.99,1.13,1.6,2.53c3.08-2.2,6.67-3.71,10.41-4.8,3.74-1.1,7.64-1.8,11.58-2.49l-.51-2.87c-4.63.86-8.79,2.86-12.77,4.76l1.67,2.35c3.85-3.83,10-5.26,15.21-3.68,2.6.78,4.96,2.28,6.72,4.39.49.56,1.02,1.2,1.76,1.8.38.3.78.57,1.3.79.54.23,1.1.34,1.66.36.56.02,1.13-.07,1.7-.29.6-.23,1.21-.67,1.59-1.24.39-.57.58-1.26.56-1.95-.03-.73-.27-1.31-.52-1.77-.52-.93-1.17-1.55-1.74-2.09-.55-.52-1.11-1.04-1.7-1.55-1.17-1.03-2.45-2.03-3.92-2.83-1.46-.8-3.21-1.35-4.91-1.45-1.69-.11-3.25.05-4.77.21-6.11.66-12.13,2.19-17.82,4.53-.91.37-1.82.77-2.72,1.18-.89.41-1.89.86-2.86,1.64-.49.4-.94.84-1.34,1.46-.19.3-.35.61-.48.95-.05.14-.15.41-.19.63-.06.22-.09.45-.12.68-.08.91.12,1.8.55,2.51.41.71,1.12,1.27,1.93,1.37.35.04.69.01,1.06-.09l1.1-.55.55-.28.35-.22.6-.38c.79-.52,1.55-1.08,2.28-1.64,1.46-1.12,2.83-2.28,4.23-3.31,1.39-1.03,2.81-1.93,4.3-2.53,1.5-.61,3.11-.96,4.77-1.1,3.34-.26,6.82.28,10.29,1.08,1.75.41,3.51.81,4.98,1.4,1.49.6,2.66,1.43,3.19,2.52l2.88-1.84c-1.47-1.69-3.41-2.9-5.41-3.55-2-.69-4.05-.88-6.03-.89-1.98.02-3.92.25-5.79.65-1.85.37-3.67.88-5.43,1.45-7.07,2.32-13.31,6.19-18.1,10.9-.34.33,0,.35.37.06,5.57-4.38,12.05-7.61,18.91-9.44,3.44-.87,6.96-1.59,10.45-1.44,3.46.09,7.01,1.17,9.21,3.78l1.08-.69c-.44-.92-1.11-1.71-1.89-2.32-.78-.61-1.64-1.06-2.51-1.42-1.76-.72-3.55-1.11-5.32-1.54-3.55-.82-7.24-1.43-10.97-1.15-1.86.15-3.72.55-5.48,1.25-1.77.69-3.35,1.72-4.84,2.81-1.49,1.1-2.88,2.28-4.29,3.38-.71.55-1.43,1.08-2.16,1.57-.18.13-.37.24-.56.36l-.27.17-.18.1c-.24.12-.46.3-.73.34-.26.03-.48-.18-.59-.39-.13-.22-.18-.47-.17-.72.01-.27.05-.45.17-.76.13-.31.31-.58.54-.85.95-1.05,2.57-1.64,4.08-2.33,3.06-1.33,6.23-2.4,9.47-3.22,2.3-.59,4.64-1.04,7-1.36,2.34-.28,4.78-.62,6.95-.37,2.16.26,4.12,1.41,5.89,2.89.89.74,1.75,1.55,2.62,2.38.41.39.76.78,1.01,1.16.12.19.21.37.25.52.04.14.04.23.02.34-.05.22-.2.39-.42.47-.28.12-.69.14-1.04.05-.31-.07-.69-.3-1.06-.62-.37-.32-.73-.73-1.11-1.18-.77-.94-1.74-1.93-2.76-2.7-1.03-.8-2.15-1.47-3.34-2.01-4.79-2.15-10.42-2.06-15.19.11-1.83.83-3.54,1.97-4.99,3.4l1.74,2.46c4-1.87,7.95-3.7,12.04-4.41l-.58-3.24c-3.68.61-7.4,1.25-11.1,2.23-4.35,1.14-8.72,2.78-12.17,5.53l1.78,2.81c1.39-.9,2.72-1.84,3.97-2.83,3.46-2.75.83-3.54-3.54-1.06Z"/>
      <path class="cls-1" d="M196.78,114.04c-.33.05-.67.08-1.01.09l-1.5.08.11,1.38c.02.27.06.54.1.81.08.26.18.52.3.77.13.21.27.43.42.63l.46.49c.62.56,1.22.9,1.76,1.19.6.32,1.04.9,1.43,1.04.05.02.11.03.17.03.04,0,.09,0,.15-.01.15-.01.25-.07.46-.11.22-.04.43-.07.79-.02.32.05.7.18,1.15.42.06.03.28.03.27,0-.12-.56-.34-1.11-.69-1.47-.32-.39-.68-.63-1.02-.88-.67-.46-1.32-.86-1.87-1.32-.59-.47-1.05-1.16-.92-1.42.04-.04.05-.06.07-.09l.08-.05-1.59,1.66.39.07c.26.05.51.27.7-.62.15-.7-.01-2.68-.22-2.65Z"/>
    </g>
    <path class="cls-1" d="M145.18,61.16c-.29-6.57-.01-13.15.19-19.72.17-5.68,1.86-12.01-1.61-17.61-.06-.09-.3-.06-.29.02.09,6.38-.33,12.67-.8,19.03-.25,3.43-.57,6.86-.79,10.29-.11,1.78-.18,3.57-.25,5.35-.05,1.1-.28,2.18.69,3.14.77.76,2.92.37,2.88-.51Z"/>
    <path class="cls-1" d="M138.56,58.47c-.09-6.27.52-12.52,1.16-18.75.54-5.41,2.77-11.2-.22-16.91-.05-.09-.29-.09-.3,0-.53,6.09-1.45,12.05-2.34,18.1-.47,3.26-.98,6.52-1.37,9.81-.2,1.7-.34,3.41-.48,5.12-.09,1.05-.36,2.08.59,3.04.76.75,2.96.44,2.95-.4Z"/>
    <path class="cls-1" d="M132.94,57.41c-.2-5.73.6-11.54.98-17.39.17-2.52.66-5.23.59-7.94-.07-2.69-.72-5.44-2.79-7.63-.06-.07-.29-.01-.28.06.95,5.47.48,11.1-.2,16.67-.42,3.01-.83,6.04-1.25,9.06-.19,1.58-.34,3.16-.46,4.76-.09.98-.33,1.96.61,2.84.74.68,2.82.33,2.8-.44Z"/>
    <path class="cls-1" d="M127.76,27.31l.53-1.24-2.9-.72c-.18,5-.39,10.01-.13,15.02.12,2.35,0,4.89.4,7.36.2,1.23.53,2.44,1.08,3.57.26.56.65,1.15.93,1.53.15.22.18.6.04.71-.06.03.05-.08.21-.2.02-.04.14-.05.08-.12-.07-.07-.02-.11.03-.15.09-.1.24-.1.33,0,.1.08.3.09.25.01-.06-.09-.23.07-.16.23.06.06.2.14.2.18l-.05.11-.09.19c-.05.11-.09.2-.07.22.03.02.11-.05.18-.13.29-.33.35-.91.31-1.34-.06-.47-.13-.69-.19-1.03l-.18-.95c-.22-1.27-.4-2.54-.53-3.83-.26-2.56-.35-5.14-.32-7.73.03-2.79.26-5.57.51-8.33.14-1.43.25-2.86.42-4.29.04-.28.07-.56.11-.84l-3.55-.88c-.27.53-.43,1.09-.1,1.84.39.87,2.36,1.47,2.65.8Z"/>
    <path class="cls-1" d="M112.69,24.2c.44,4.5.89,9.02,1.93,13.44.45,1.9.7,4.01,1.46,5.94.75,1.93,2,3.67,4.31,4.66.07.03.26-.08.24-.13-2.04-3.73-3.21-7.84-3.86-12.02-.35-2.26-.5-4.54-.6-6.81-.05-1.18-.12-2.35-.12-3.52-.01-.72.18-1.43-.74-2.03-.72-.47-2.68-.14-2.62.47Z"/>
    <path class="cls-1" d="M118.63,25.32c.36,4.41.69,8.83,1.51,13.2.35,1.87.52,3.94,1.13,5.87.61,1.93,1.67,3.72,3.71,4.9.06.04.24-.05.22-.1-1.7-3.82-2.62-7.91-3.11-12.06-.26-2.24-.36-4.49-.42-6.73-.03-1.16-.08-2.32-.07-3.48,0-.71.17-1.42-.64-2.02-.64-.48-2.38-.18-2.33.42Z"/>
    <path class="cls-1" d="M105.28,26.91c1.16,3.83,2.07,7.74,3.33,11.55,1.07,3.26,1.28,7.47,5.79,9.14.07.03.26-.08.24-.13-1.87-3.34-3.07-6.95-3.98-10.66-.49-2-.86-4.03-1.23-6.05-.2-1.05-.4-2.09-.6-3.13-.12-.64-.05-1.32-1.05-1.66-.79-.27-2.66.41-2.5.93Z"/>
    <path class="cls-1" d="M99.98,31.53c.65,3.59,1.28,7.21,2.48,10.69.52,1.49.85,3.19,1.66,4.66.81,1.47,2.09,2.7,4.34,3.07.07.01.25-.12.22-.15-2.09-2.68-3.38-5.87-4.16-9.15-.43-1.77-.66-3.59-.85-5.38-.1-.93-.21-1.86-.27-2.79-.04-.57.12-1.15-.83-1.54-.75-.32-2.69.11-2.6.6Z"/>
    <path class="cls-1" d="M94.63,37.29s-.06-.08-.06-.06v.17s0,0,0,0h0s-.01.02-.01.02c-.03.07-.16.25-.48.47-.52.34-.36.19-.33.32l.14.28.55,1.11,1.04,2.26c.68,1.51,1.34,3.03,2.06,4.53,1.23,2.58,1.5,6.06,5.88,6.93.07.01.26-.1.23-.14-1.83-2.65-3.11-5.55-4.23-8.55-.6-1.62-1.12-3.27-1.68-4.91-.31-.85-.61-1.68-.92-2.52-.04-.13-.08-.26-.13-.39-.04-.12-.16-.42-.45-.73-.29-.3-.91-.83-1.94-.61-.34.07-.64.26-.84.47-.18.2-.29.41-.34.59-.09.37-.05.66.09.99.11.26.39.57.72.64.33.07.52-.09.56-.23.06-.15.04-.3,0-.44l-.04-.18v.02c.02.07-.04.08.05.03.05-.02.13-.02.16-.02.03,0-.01,0-.06-.04Z"/>
    <path class="cls-1" d="M87.88,37.43c-.26.72-.17,1.1-.11,1.5.04.2.1.39.18.59l.1.21.07.14.55,1.15,1.04,2.32c.68,1.56,1.35,3.12,2.06,4.66,1.23,2.65,1.5,6.21,5.9,7.19.07.02.26-.1.23-.13-1.84-2.74-3.11-5.72-4.24-8.81-.61-1.66-1.12-3.36-1.68-5.04-.31-.87-.61-1.73-.92-2.59l-.06-.2-.03-.1v-.03s-.01-.01-.01-.01h0s0,0,0,0h0c.12-.06-1.03.48-.54.25h0s0,0,0,0l.11-.05c.29-.12.4-.12.28-.1-.12.02-.44.04-.73-.02-.29-.04-.51-.21-.5-.22,0-.02.03.11.02.12,0-.29.07-.6.02-.89-.04-.28-.2-.58-.61-.64-.42-.06-.97.3-1.12.71Z"/>
    <path class="cls-1" d="M85.54,44.46c1.28,3.25,2.2,6.63,3.33,9.93.98,2.85.9,6.5,5.2,8.01.07.02.27-.07.25-.11-1.57-3.01-2.56-6.19-3.38-9.46-.44-1.76-.8-3.55-1.19-5.33-.21-.92-.45-1.83-.67-2.75-.13-.56-.1-1.18-1.1-1.38-.79-.16-2.61.65-2.44,1.09Z"/>
    <path class="cls-1" d="M84.69,52.62c1.21,3.4,1.92,6.95,2.7,10.47.69,3.06.08,6.68,4.05,9.05.06.04.28-.02.26-.07-1.03-3.41-1.58-6.84-2.1-10.35-.28-1.89-.5-3.8-.81-5.69-.16-.98-.37-1.96-.56-2.93-.12-.6-.07-1.24-1.07-1.51-.79-.21-2.63.57-2.47,1.03Z"/>
    <path class="cls-1" d="M80.12,57.63c1.16,4,1.94,8.11,2.95,12.15.87,3.49.64,7.77,4.93,10.18.07.04.27-.04.25-.09-1.46-3.76-2.33-7.65-3.03-11.61-.38-2.14-.66-4.29-.99-6.44-.17-1.11-.38-2.22-.56-3.33-.11-.68-.05-1.4-1.05-1.78-.79-.31-2.67.38-2.51.92Z"/>
    <path class="cls-1" d="M78.99,62.95c-.12-.2-.14-.5-.07-.7l-2.79-.19c.96,3.86,1.94,7.73,3.3,11.48.68,1.87,1.17,3.97,2.14,5.85.96,1.88,2.38,3.52,4.81,4.34.08.03.26-.1.23-.15-2.41-3.63-4.03-7.68-5.2-11.87-.64-2.26-1.09-4.56-1.51-6.85-.22-1.18-.44-2.36-.63-3.54l-.96-5.99-2.35,5.76v.03c-.28.62-.41,1.28-.3,1.9.11.61.49,1.18,1.13,1.39.52.17,1.08-.24,1.49-.65.41-.42.78-.75.73-.83Z"/>
    <path class="cls-1" d="M75.08,70.88c1.15,4.52,1.93,9.12,2.92,13.67.86,3.93.61,8.67,4.92,11.59.07.05.28-.03.26-.09-1.46-4.26-2.31-8.63-3-13.08-.37-2.39-.65-4.81-.97-7.21-.17-1.25-.37-2.49-.55-3.73-.11-.77-.04-1.55-1.05-2.04-.8-.39-2.68.27-2.53.89Z"/>
    <path class="cls-1" d="M70.31,83.8c1.71,3.09,2.98,6.39,4.37,9.63,1.21,2.81,1.3,6.44,5.64,7.88.07.02.27-.08.24-.12-1.67-3.04-2.84-6.22-3.95-9.49-.58-1.76-1.16-3.54-1.74-5.32-.31-.92-.67-1.82-1.01-2.72-.21-.56-.26-1.18-1.28-1.27-.81-.06-2.5.99-2.27,1.41Z"/>
    <path class="cls-1" d="M66.56,90.05c1.75,4.04,3.27,8.18,5.14,12.19,1.59,3.43,2.45,7.93,7.29,9.36.08.02.25-.11.22-.15-2.43-3.44-4.21-7.23-5.71-11.16-.81-2.12-1.49-4.28-2.18-6.44-.36-1.12-.72-2.23-1.09-3.34-.22-.69-.25-1.42-1.31-1.71-.83-.22-2.6.7-2.37,1.25Z"/>
    <path class="cls-1" d="M65.94,100.1c1.59,3.77,3.06,7.6,4.98,11.24.82,1.56,1.48,3.37,2.56,4.91,1.08,1.53,2.57,2.78,4.96,3.12.08.01.24-.14.21-.17-2.58-2.89-4.47-6.27-5.98-9.82-.82-1.91-1.48-3.89-2.12-5.86-.33-1.02-.68-2.03-.98-3.06-.19-.63-.2-1.31-1.23-1.55-.82-.2-2.61.68-2.39,1.19Z"/>
    <path class="cls-1" d="M63.83,109.45c1.24,3.87,2.74,7.69,4.99,11.12.96,1.46,1.85,3.17,3.19,4.49,1.32,1.31,3.09,2.23,5.43,1.9.07,0,.2-.19.16-.22-3.11-2.02-5.5-4.99-7.21-8.26-.92-1.77-1.61-3.64-2.18-5.52-.29-.97-.59-1.94-.81-2.93-.15-.61-.08-1.24-1.08-1.55-.79-.25-2.66.43-2.49.97Z"/>
    <path class="cls-1" d="M67.47,124.63c1.4,2.67,2.68,5.4,4.38,7.91.73,1.07,1.3,2.39,2.26,3.39.96,1,2.3,1.67,4.41,1.32.07-.01.21-.17.18-.2-2.25-1.69-3.9-3.98-5.2-6.45-.7-1.33-1.25-2.74-1.78-4.13-.27-.72-.57-1.43-.82-2.16-.16-.45-.13-.96-1.11-.98-.77-.02-2.52.93-2.33,1.29Z"/>
    <path class="cls-1" d="M69.84,135.87c1.31,2.44,2.53,4.94,4.17,7.2.7.97,1.26,2.17,2.19,3.05.93.87,2.24,1.4,4.25.86.06-.02.2-.19.17-.21-2.16-1.39-3.76-3.42-4.98-5.64-.66-1.2-1.18-2.48-1.66-3.74-.25-.66-.52-1.3-.74-1.96-.14-.41-.1-.87-1.06-.85-.76.01-2.51.95-2.33,1.29Z"/>
  </g>
</svg>