<?xml version="1.0" encoding="UTF-8"?>
<svg id="Calque_2" data-name="Calque 2" xmlns="http://www.w3.org/2000/svg" viewBox="0 0 300 300">
  <defs>
    <style>
      .cls-1 {
        fill: #1d1d1d;
      }

      .cls-2 {
        fill: #1db4b8;
      }
    </style>
  </defs>
  <path class="cls-2" d="M156.2,270.85c-1.38-4.92-.83-10.07-1.42-15.09-.51-4.32,5.18-10.03-13.18-11.89-.29-.03-1.38.14-1.34.2,3.12,4.5,3.19,9.35,2.36,14.36-.45,2.69-1.37,5.45-2.07,8.17-.36,1.41-.53,2.8-.83,4.21-.18.86-1.25,1.82,3.23,2.03,3.54.16,13.43-1.31,13.25-1.98Z"/>
  <path class="cls-2" d="M110.49,166.05s-.02,0-.03.01h0s-.17.03-.17.03h0s0,0,0,0h.02s0,0-.04-.01c-.06-.02-.19-.1-.32-.24-.27-.27-.6-.82-.8-1.26l-2.11-4.71h-.01s-.03.02-.03.02l-.06.03-.11.06-.22.12-.45.24c-.6.31-1.21.62-1.82.9-1.23.57-2.48,1.09-3.73,1.6-2.51,1.02-5.06,2.02-7.45,3.32-2.05,1.12-5.03,1-6.82,2.86-1.77,1.85-2.34,5.66.9,14.31.1.27.74,1.17.78,1.11,2.65-4.8,7.2-6.93,12.16-7.99,2.68-.58,5.57-.66,8.33-.86,1.44-.1,2.78-.37,4.18-.49.22-.02.45.01.67,0,.11,0,.21-.02.3-.06.05-.02.09-.04.13-.07.11-.06.43-.23.65-.38.51-.34,1.06-.76,1.78-1.57.35-.4.74-.9,1.14-1.59.4-.69.78-1.55,1.02-2.65.23-1.06.25-2.33-.01-3.39-.06-.26-.14-.52-.23-.77l-.03-.1-.06-.19-.13-.37c-.09-.24-.19-.48-.31-.72-.11-.23-.24-.46-.37-.67-.13-.22-.33-.51-.52-.75-.39-.5-.84-.95-1.32-1.3-.47-.36-1-.66-1.54-.89-.5-.2-.91-.31-1.38-.39-.5-.09-.82-.09-1.16-.08-.32.01-.73.05-.95.12-.25.06-.5.14-.74.23-.23.09-.4.19-.59.29-.38.21-.67.45-.95.71-.23.22-.42.44-.59.68-.22.27-.35.52-.51.82-.1.17-.19.34-.26.51l-.09.25c-.02.08-.05.16-.11.29-.09.23-.16.47-.21.69-.05.24-.05.4-.11.76-.04.31-.03.62,0,.91.04.28.1.53.2.83.19.55.54,1.06.84,1.26.57.4,1.25.53,1.53.29.71-.35,1.1-1.02,1.45-1.69l.13-.24h0s0,.01,0,.01c0,.01-.01.03-.03.05-.03.05-.1.09-.09.09,0-.01.12.05.18.15.07.1.05.14.04.02-.04-.11.08-.25,0-.18Z"/>
  <path class="cls-2" d="M216.95,169.34c-2.18-1.94-4.49-3.35-6.63-4.43-2.16-1.1-4.18-1.93-6.06-2.69l-5.35-2.12c-1.79-.69-3.64-1.34-5.55-1.91-3.26-.95-6.61-3.44-10.63-3.4-1.98.02-4.08.68-6.04,2.51-1.95,1.8-3.76,4.82-4.9,9.37-.07.29.03,1.39.12,1.35,1.54-.71,3.18-1.12,4.85-1.3,1.67-.15,3.37-.07,5.04.22,3.35.59,6.59,1.93,9.72,3.63,1.69.92,3.34,1.98,4.98,3.09,1.67,1.12,3.32,2.25,4.65,3.31,1.39,1.1,2.54,2.04,3.13,3.01.18.3.17.74.48.72.33-.01,1-.5,2.84-1.76,1.45-1,4.16-3.03,6.3-5.02,2.16-1.97,3.66-4.03,3.05-4.58Z"/>
  <path class="cls-2" d="M156.2,270.85c-1.38-4.92-.83-10.07-1.42-15.09-.51-4.32,5.18-10.03-13.18-11.89-.29-.03-1.38.14-1.34.2,3.12,4.5,3.19,9.35,2.36,14.36-.45,2.69-1.37,5.45-2.07,8.17-.36,1.41-.53,2.8-.83,4.21-.18.86-1.25,1.82,3.23,2.03,3.54.16,13.43-1.31,13.25-1.98Z"/>
  <path class="cls-2" d="M110.49,166.05s-.02,0-.03.01h0s-.17.03-.17.03h0s0,0,0,0h.02s0,0-.04-.01c-.06-.02-.19-.1-.32-.24-.27-.27-.6-.82-.8-1.26l-2.11-4.71h-.01s-.03.02-.03.02l-.06.03-.11.06-.22.12-.45.24c-.6.31-1.21.62-1.82.9-1.23.57-2.48,1.09-3.73,1.6-2.51,1.02-5.06,2.02-7.45,3.32-2.05,1.12-5.03,1-6.82,2.86-1.77,1.85-2.34,5.66.9,14.31.1.27.74,1.17.78,1.11,2.65-4.8,7.2-6.93,12.16-7.99,2.68-.58,5.57-.66,8.33-.86,1.44-.1,2.78-.37,4.18-.49.22-.02.45.01.67,0,.11,0,.21-.02.3-.06.05-.02.09-.04.13-.07.11-.06.43-.23.65-.38.51-.34,1.06-.76,1.78-1.57.35-.4.74-.9,1.14-1.59.4-.69.78-1.55,1.02-2.65.23-1.06.25-2.33-.01-3.39-.06-.26-.14-.52-.23-.77l-.03-.1-.06-.19-.13-.37c-.09-.24-.19-.48-.31-.72-.11-.23-.24-.46-.37-.67-.13-.22-.33-.51-.52-.75-.39-.5-.84-.95-1.32-1.3-.47-.36-1-.66-1.54-.89-.5-.2-.91-.31-1.38-.39-.5-.09-.82-.09-1.16-.08-.32.01-.73.05-.95.12-.25.06-.5.14-.74.23-.23.09-.4.19-.59.29-.38.21-.67.45-.95.71-.23.22-.42.44-.59.68-.22.27-.35.52-.51.82-.1.17-.19.34-.26.51l-.09.25c-.02.08-.05.16-.11.29-.09.23-.16.47-.21.69-.05.24-.05.4-.11.76-.04.31-.03.62,0,.91.04.28.1.53.2.83.19.55.54,1.06.84,1.26.57.4,1.25.53,1.53.29.71-.35,1.1-1.02,1.45-1.69l.13-.24h0s0,.01,0,.01c0,.01-.01.03-.03.05-.03.05-.1.09-.09.09,0-.01.12.05.18.15.07.1.05.14.04.02-.04-.11.08-.25,0-.18Z"/>
  <path class="cls-2" d="M216.95,169.34c-2.18-1.94-4.49-3.35-6.63-4.43-2.16-1.1-4.18-1.93-6.06-2.69l-5.35-2.12c-1.79-.69-3.64-1.34-5.55-1.91-3.26-.95-6.61-3.44-10.63-3.4-1.98.02-4.08.68-6.04,2.51-1.95,1.8-3.76,4.82-4.9,9.37-.07.29.03,1.39.12,1.35,1.54-.71,3.18-1.12,4.85-1.3,1.67-.15,3.37-.07,5.04.22,3.35.59,6.59,1.93,9.72,3.63,1.69.92,3.34,1.98,4.98,3.09,1.67,1.12,3.32,2.25,4.65,3.31,1.39,1.1,2.54,2.04,3.13,3.01.18.3.17.74.48.72.33-.01,1-.5,2.84-1.76,1.45-1,4.16-3.03,6.3-5.02,2.16-1.97,3.66-4.03,3.05-4.58Z"/>
  <g>
    <g>
      <g>
        <path class="cls-1" d="M211.45,160.34c.31,25.11-5.65,50.45-17.98,72.37-6.14,10.95-14.01,20.93-23.32,29.31-4.66,4.19-9.68,7.97-15,11.26-2.65,1.68-5.24,3.03-7.79,2.53-2.61-.44-5.08-2.27-7.41-4.29-8.29-7.07-16.5-14.84-23.89-23.47-3.69-4.32-7.17-8.85-10.24-13.63-3.07-4.78-5.73-9.81-7.61-15.08-3.68-10.75-6.23-21.94-8.45-32.81-2.21-10.9-4.07-21.59-6.17-31.7-.13-.64-.31-.27-.23.38,1.57,12.1,3.11,24.21,5.35,36.21,1.12,6,2.42,11.97,3.97,17.87.77,2.95,1.63,5.89,2.53,8.8.48,1.46,1.02,2.9,1.54,4.35.62,1.4,1.21,2.83,1.87,4.21,2.67,5.53,6.01,10.71,9.68,15.6,3.68,4.9,7.7,9.52,11.92,13.95,4.22,4.43,8.65,8.66,13.2,12.75,1.14,1.02,2.28,2.05,3.44,3.04,1.16,1,2.29,2.03,3.54,2.99,1.25.95,2.58,1.85,4.09,2.48,1.49.65,3.19,1.01,4.89.85,1.83-.17,3.49-.87,4.99-1.68,1.51-.81,2.87-1.72,4.28-2.61,2.81-1.78,5.5-3.74,8.13-5.77,5.25-4.09,10.08-8.7,14.5-13.67,4.42-4.97,8.42-10.32,11.98-15.95,3.54-5.64,6.64-11.55,9.3-17.65,5.55-12.65,9.13-26.13,10.96-39.82,1.12-8.41,1.7-16.81.55-24.4-.47-2.99-1.17-3.79-1.73-3-.28.4-.51,1.19-.67,2.3-.14,1.11-.22,2.55-.21,4.25Z"/>
        <path class="cls-1" d="M169.25,218.07c-.32,3.36-2.17,6.53-4.71,8.92-2.56,2.42-5.72,4.13-9.13,5.09-2.96.88-6.31.95-9.61,1.11-3.31.17-6.66.49-9.89,1.97-.1.05-.07.27.03.27,3.65.11,7.29.28,10.94.15,3.65-.12,7.35-.55,10.93-1.69,3.86-1.24,7.51-3.38,10.37-6.48,1.47-1.61,2.69-3.51,3.53-5.61.47-1.28,1.06-2.66.24-3.98-.6-1-2.64-.62-2.71.23Z"/>
        <path class="cls-1" d="M175.54,217.74c-1.02-1.34-2.07-2.69-3.52-3.61-.61-.39-1.18-1.03-1.98-1.19-.77-.16-1.76.2-2.59,1.88-.03.05-.05.27-.03.27,1.34-.3,2.66.34,3.55,1.3.49.52.84,1.15,1.13,1.76.15.32.31.61.42.93.08.2-.03.47.82.16.68-.24,2.36-1.3,2.21-1.5Z"/>
        <path class="cls-1" d="M154.2,197.04c-.95.52-2.49.62-4.07.72-1.56.09-3.09.12-4.57-.02-1.47-.15-2.89-.46-4.08-1.08-1.21-.59-2.16-1.53-2.83-2.66-1.31-2.31-1.28-5.4-.87-8.41.43-3.02,1.13-6.25,1.58-9.43.84-5.49,1.78-11.39,2-17.26.23-5.86-.3-11.7-2.24-16.8-.06-.16-.28-.07-.27.1.83,12.21-.11,24.45-2.4,36.5-.59,3.23-1.48,6.47-1.62,9.98-.04,1.75.07,3.58.73,5.37.62,1.79,1.85,3.44,3.43,4.58,1.66,1.18,3.58,1.79,5.43,2.08,1.86.3,3.68.33,5.46.29,1.09-.03,2.14,0,3.32-.23,1.13-.22,2.46-.8,3.18-1.99.27-.46.25-.88.11-1.15-.14-.28-.41-.45-.7-.55-.6-.18-1.12-.28-1.59-.03Z"/>
        <path class="cls-1" d="M180.37,138.41c.1-.76.8-1.58,1.65-1.93.43-.18.85-.24,1.3-.2.46.04.92.2,1.35.44.86.49,1.57,1.35,1.92,2.27.33.91.35,1.98.05,2.97-.25.86-.84,1.61-1.51,2.06-.33.23-.71.37-1.05.46-.33.09-.69.1-1.08.08-.78-.05-1.65-.31-2.55-.74-.88-.44-1.9-1.07-2.66-2.51-.05-.09-.27-.08-.27.01-.07,1.71.81,3.18,1.91,4.14,1.13.95,2.54,1.56,4.04,1.55,1.52,0,2.96-.73,3.95-1.82,1.01-1.07,1.65-2.46,1.86-3.93.55-3.2-1.44-6.88-5.07-7.86-.92-.23-2.01-.24-2.97.06-.96.28-1.84.79-2.58,1.49-.45.43-.89.92-1.13,1.52-.23.6-.25,1.3.14,1.89.33.47,1,.51,1.59.43.59-.09,1.08-.21,1.11-.39Z"/>
        <path class="cls-1" d="M107.52,138.41c.1-.76.8-1.58,1.65-1.93.43-.18.85-.24,1.3-.2.46.04.92.2,1.35.44.86.49,1.57,1.35,1.92,2.27.33.91.35,1.98.05,2.97-.25.86-.84,1.61-1.51,2.06-.33.23-.71.37-1.05.46-.33.09-.69.1-1.08.08-.78-.05-1.65-.31-2.55-.74-.88-.44-1.9-1.07-2.66-2.51-.05-.09-.27-.08-.27.01-.07,1.71.81,3.18,1.91,4.14,1.13.95,2.54,1.56,4.04,1.55,1.52,0,2.96-.73,3.95-1.82,1.01-1.07,1.65-2.46,1.86-3.93.55-3.2-1.44-6.88-5.07-7.86-.92-.23-2.01-.24-2.97.06-.96.28-1.84.79-2.58,1.49-.45.43-.89.92-1.13,1.52-.23.6-.25,1.3.14,1.89.33.47,1,.51,1.59.43.59-.09,1.08-.21,1.11-.39Z"/>
        <path class="cls-1" d="M80.99,130.53c-1.42-1.36-3.23-1.63-4.82-1.45-.81.1-1.6.34-2.35.74-.37.21-.73.44-1.05.73-.32.28-.58.55-.84.86-1.01,1.21-1.6,2.63-1.97,4.01-.36,1.38-.52,2.74-.63,4.07-.43,5.24-.26,10.53.52,15.72.34,2.24.72,4.55,1.23,6.88.51,2.3,1.13,4.71,2.27,6.98,1.11,2.25,2.85,4.43,5.17,5.56,2.3,1.16,4.95,1.06,6.77-.02.12-.07.03-.28-.09-.26-2.19.31-4.54-.33-6.3-1.79-1.79-1.45-3.03-3.55-3.91-5.78-.88-2.23-1.45-4.62-1.96-7.01-.49-2.39-.85-4.81-1.06-7.25-.23-2.62-.29-5.25-.18-7.87.05-1.31.15-2.61.27-3.91.13-1.31.28-2.58.57-3.76.55-2.45,1.85-4.52,3.69-4.65.58-.07,1.14.04,1.6.14.44.09.86.18,1.42.29.47.13,1.19.17,1.68-.18.24-.18.42-.46.46-.84,0-.36-.12-.83-.5-1.19Z"/>
        <path class="cls-1" d="M221.17,132.65c.42-.48,1.39-.76,2.31-.65.46.05.92.18,1.31.39.19.11.37.22.53.36.16.14.35.33.51.52,1.3,1.54,1.7,3.96,1.86,6.41.33,5.01.06,10.05-.7,15.02-.33,2.14-.84,4.33-1.45,6.51-.61,2.2-1.27,4.35-2.12,6.31-.85,1.97-1.86,3.73-3.26,5.18-1.4,1.45-3.27,2.61-5.58,3.32-.15.05-.09.27.05.28,2.73.1,5.43-.89,7.39-2.67,1.98-1.76,3.24-4.08,4.16-6.41.92-2.35,1.55-4.76,2.14-7.17.58-2.42,1.07-4.87,1.43-7.35.39-2.67.66-5.36.77-8.07.06-1.35.07-2.71.05-4.07-.03-1.35-.07-2.74-.3-4.18-.24-1.48-.67-3.04-1.61-4.47-.48-.72-1-1.35-1.82-1.95-.78-.56-1.65-.91-2.54-1.1-1.1-.22-2.26-.25-3.36.15-1.09.37-2.11,1.37-2.27,2.53-.1.93.56,1.24,1.15,1.3.3.03.6.03.82,0,.25-.02.41-.07.53-.19Z"/>
        <path class="cls-1" d="M104.21,48.51c-1.14,2.68-1.6,5.55-1.82,8.34-.22,2.81-.08,5.58.11,8.3.37,5.44,1.1,10.77.68,15.95-.23,2.57-.66,5.12-1.61,7.45-.92,2.35-2.27,4.53-3.92,6.45-1.66,1.9-3.62,3.56-5.81,4.81-.54.33-1.11.59-1.67.88-.58.27-1.23.55-1.9.9-.67.36-1.39.8-2.03,1.45-.66.64-1.16,1.53-1.42,2.32-.44,1.34-.53,2.41-.73,3.53-.19,1.11-.37,2.24-.52,3.37-.17,1.13-.32,2.27-.45,3.42-.15,1.15-.27,2.3-.37,3.47-.43,4.64-.61,9.38-.46,14.09.29,9.41,2,18.7,5.33,26.6l.11.26-.33-.07c-1-.21-1.98-.4-2.97-.58-.28-.05-.22.21.04.31.88.33,1.77.65,2.64.98l1.67.62-.43-1.69c-2.41-9.54-3.63-19.36-3.67-29.2-.01-4.92.27-9.84.83-14.73.27-2.45.65-4.88,1.06-7.31.2-1.22.41-2.39.98-3.19.56-.81,1.56-1.35,2.66-1.84,5.32-2.17,9.98-6.27,12.75-11.44.71-1.29,1.3-2.64,1.75-4.05.25-.7.38-1.42.58-2.13.08-.36.19-.71.26-1.07l.17-1.08c.48-2.89.56-5.79.46-8.64-.17-5.91-1.02-11.68-.63-17.23.07-.85.13-1.7.29-2.5.06-.41.13-.81.19-1.22.06-.4.18-.78.25-1.18.08-.39.16-.78.22-1.17l.28-1.13c.09-.38.16-.76.22-1.15.08-.38.19-.74.26-1.13.23-1.21-.16-1.9-.82-1.91-.63,0-1.63.69-2.26,2.14Z"/>
        <path class="cls-1" d="M187.77,49.73c1.04,2.32,1.46,4.92,1.67,7.54.19,2.63.08,5.32-.13,8.03-.39,5.42-1.15,10.98-.68,16.71.18,1.43.32,2.86.69,4.28.28,1.43.77,2.83,1.33,4.17,1.14,2.7,2.77,5.18,4.74,7.34,1.98,2.15,4.32,3.98,6.93,5.34,1.33.71,2.63,1.17,3.46,1.78.42.31.7.61.9.98.21.38.36.9.48,1.51,1.45,8.31,1.89,17.44,1.67,26.39-.1,4.49-.37,8.95-.69,13.35-.17,2.19-.35,4.37-.52,6.53-.1,1.11-.19,2.21-.29,3.3-.08.67-.14,1.28-.19,1.84l-.06.8-.02.36c0,.05-.02.13,0,.16l.2-.07c1.11-.48,1.98-.72,2.67-1.01.77-.29,1.63-.59,2.24-.95.17-.12,0-.29-.19-.22-.63.2-1.55.37-2.21.51-.39.09-.8.17-1.22.31-.03,0-.09.05-.1.03l.02-.13.05-.25.1-.52.21-1.14c.21-1.21.44-2.41.63-3.62.38-2.42.72-4.84.98-7.27.54-4.86.84-9.74.89-14.63.06-4.89-.14-9.78-.59-14.66-.23-2.44-.5-4.88-.87-7.3-.2-1.21-.27-2.42-.73-3.75-.23-.65-.62-1.33-1.14-1.84-.5-.53-1.08-.92-1.66-1.25-.67-.38-1.34-.68-1.97-.99-.61-.32-1.22-.62-1.8-.99-1.17-.71-2.28-1.52-3.3-2.42-2.03-1.83-3.78-3.98-5.05-6.38-2.67-4.78-3.06-10.39-2.71-15.94.32-5.78,1.37-11.67,1.2-17.85-.06-.95-.04-1.9-.19-2.85-.12-.95-.22-1.89-.5-2.8-.12-.46-.25-.91-.39-1.35-.14-.44-.37-.86-.57-1.28-.21-.41-.42-.82-.65-1.2-.24-.38-.55-.72-.84-1.06-.94-1.06-1.68-1.01-2.03-.42-.37.6-.3,1.65.24,2.89Z"/>
        <path class="cls-1" d="M163.37,39.42c-.63.57-1.35,1.03-2.05,1.52-.74.42-1.46.88-2.26,1.22-1.54.75-3.19,1.29-4.88,1.69-3.38.82-6.91,1-10.42.88-3.02-.13-6.3-.86-9.33-1.45-1.48-.32-2.84-.65-4.12-1.21-1.29-.59-2.64-1.33-3.79-2.88-.07-.1-.28-.02-.26.1.45,2.09,1.86,3.64,3.44,4.67,1.61,1.03,3.39,1.53,5.13,1.91,3.47.71,6.97,1.21,10.55,1.37,3.85.16,7.78-.05,11.63-1.09,1.99-.55,3.94-1.32,5.79-2.33.57-.31,1.13-.63,1.63-1.01.49-.39.86-.93,1.02-1.62.25-1.09-1.4-2.33-2.08-1.76Z"/>
        <path class="cls-1" d="M218.83,134.21c.88-13.03,1.48-26.31-.24-39.46-.85-6.57-2.23-13.1-4.43-19.4-1.08-3.16-2.4-6.23-3.92-9.21-1.5-2.99-3.27-5.85-5.27-8.55-3.94-5.44-8.85-10.08-13.92-14.29-2.54-2.11-5.12-4.14-7.66-6.18-1.27-1.02-2.53-2.05-3.77-3.1-1.27-1.04-2.4-2.11-3.73-3.18l-1.99-1.6c-.65-.55-1.4-.96-2.1-1.45-1.39-.99-2.92-1.74-4.43-2.54-3.08-1.43-6.3-2.62-9.63-3.3-6.65-1.36-13.52-1.44-20.21.17-.36.08-.73.19-1.09.3-.37.12-.72.2-1.11.37-.82.31-1.4.61-2.05.91-1.29.59-2.58,1.18-3.88,1.78-2.61,1.18-5.26,2.36-7.91,3.62-5.29,2.51-10.64,5.38-15.39,9.29-2.37,1.95-4.6,4.14-6.49,6.62-1.91,2.44-3.55,5.06-4.98,7.77-2.88,5.43-4.95,11.18-6.69,16.92-3.52,11.49-5.77,23.28-6.68,34.81-.91,11.53-.51,22.81,1.11,33.27.09.66.29.29.25-.38-1.86-24.93,1.49-50.25,9.92-73.78,2.15-5.84,4.82-11.53,8.52-16.5,3.69-4.97,8.62-8.88,14-12,5.38-3.14,11.16-5.59,16.89-8.2l2.15-.98c.71-.32,1.45-.7,2.11-.93,1.39-.49,2.91-.84,4.43-1.09,3.04-.51,6.15-.66,9.24-.5,3.33.17,6.63.69,9.83,1.58,3.18.95,6.24,2.26,9.11,3.91.7.43,1.38.91,2.07,1.36l1.03.69.96.78,1.92,1.57,1.92,1.7c2.58,2.24,5.24,4.38,7.87,6.52,5.28,4.25,10.47,8.55,14.81,13.61,2.18,2.51,4.12,5.21,5.87,8.02,1.71,2.84,3.19,5.82,4.47,8.89,2.62,6.38,4.33,13.13,5.36,19.98,1.02,6.86,1.43,13.82,1.38,20.79-.01,8.59-.96,16.96-.52,24.84.21,3.13.95,4,1.52,3.21.57-.78,1.13-3.13,1.36-6.66Z"/>
      </g>
      <path class="cls-1" d="M160.84,275.53c-1-1-1.7-2.23-2.58-3.33-.76-.94-.64-2.82-4.15-1.44-.06.02-.22.17-.2.18,1.24.73,2.01,1.84,2.64,3.07.34.66.6,1.39.9,2.08.15.36.34.7.51,1.05.1.22.06.54.88.15.65-.31,2.15-1.62,2.02-1.76Z"/>
      <path class="cls-1" d="M174.17,264.06c-1.03-.69-1.77-1.71-2.62-2.6-.76-.79-.53-2.45-3.96-.98-.05.02-.22.17-.2.18,1.19.65,1.91,1.63,2.59,2.73.36.59.67,1.25,1.04,1.86.19.32.41.61.61.92.13.19.14.51.86-.03.57-.43,1.81-1.99,1.68-2.09Z"/>
      <path class="cls-1" d="M197.14,234.61c-.98-.39-1.76-1.11-2.66-1.64-.77-.45-1.02-2.06-3.56.62-.04.04-.14.24-.13.24,1.12.06,1.93.65,2.65,1.4.39.4.73.89,1.09,1.34.19.23.4.43.59.65.12.14.15.42.73-.26.46-.54,1.41-2.3,1.28-2.35Z"/>
      <path class="cls-1" d="M212.42,202.42c-1.47-.05-2.81-.37-4.02-.6-.53-.1-.96-.54-1.45-.59-.52-.06-1.09.31-2.65,1.41-.05.03-.17.22-.15.22,1.53.48,2.78.92,4.12,1.45.71.28,1.42.61,2.12.89.36.13.7.26,1.05.39.21.08.38.34.7-.5.26-.67.49-2.65.29-2.66Z"/>
      <path class="cls-1" d="M214.33,183.41c-1.24,0-2.45-.33-3.69-.36-1.02-.03-2.42-1.24-3.1,2.42-.01.06.02.28.03.27,1.06-.59,2.2-.52,3.29-.21.59.17,1.17.45,1.73.71.3.12.58.24.87.35.18.08.32.33.6-.52.22-.67.44-2.66.27-2.66Z"/>
      <path class="cls-1" d="M83.91,187.05c1.26-.22,2.54-.09,3.81-.23,1.07-.12,2.56.95,2.96-2.77,0-.06-.04-.27-.05-.26-1.07.7-2.27.76-3.47.61-.65-.08-1.3-.27-1.94-.43-.33-.08-.66-.12-.99-.2-.2-.04-.41-.27-.54.62-.11.7.05,2.7.22,2.67Z"/>
      <path class="cls-1" d="M88.55,207.8c1.42-.36,2.9-.4,4.33-.74,1.19-.28,3.04.5,3-3.27,0-.06-.08-.27-.09-.25-1.1.9-2.44,1.17-3.8,1.2-.74.01-1.49-.09-2.22-.16-.39-.03-.75-.05-1.13-.08-.23-.02-.48-.22-.56.68-.06.71.27,2.68.47,2.63Z"/>
      <path class="cls-1" d="M94.16,225.72c.96-.86,2.21-1.27,3.37-1.74.51-.21,1.16-.1,1.66-.39.51-.29.88-.98,1.1-2.86,0-.06-.05-.27-.06-.26-1.27.77-2.54,1.06-3.94,1.35-.75.16-1.54.27-2.31.48-.4.11-.78.26-1.17.41-.24.08-.58.04-.25.89.26.67,1.49,2.24,1.62,2.13Z"/>
      <path class="cls-1" d="M112.76,249.71c.72-.8,1.69-1.3,2.51-1.98.33-.27.86-.35,1.16-.69l-2.57-2.53c-.26.45-.17,1.19,1.03,2.75.04.05.21.18.21.16.12-.54.35-.99.66-1.38l-.9-.89c-.4.34-.87.6-1.37.83-.52.24-1.11.4-1.66.59-.29.1-.55.23-.83.34-.17.07-.46,0-.01.78.35.62,1.67,2.11,1.77,2.01Z"/>
      <path class="cls-1" d="M126.92,265.95c.76-1.01,1.75-1.82,2.52-2.83.64-.83,2.46-1.25-.07-3.99-.04-.04-.23-.15-.23-.13-.16,1.23-.91,2.12-1.82,2.84-.5.39-1.07.7-1.62,1.01-.28.18-.54.34-.82.51-.17.1-.47.07.05.8.41.58,1.89,1.93,1.99,1.79Z"/>
      <path class="cls-1" d="M187.55,249.8c-1.08-.58-1.89-1.53-2.77-2.36-.38-.36-.56-.97-1.03-1.27-.48-.31-1.25-.3-2.96.46-.05.02-.22.17-.2.18,1.21.63,1.98,1.58,2.73,2.65.4.57.77,1.21,1.19,1.8.22.31.47.58.71.87.14.18.19.5.86-.11.53-.48,1.61-2.16,1.47-2.23Z"/>
      <path class="cls-1" d="M100.98,236.28c1.21-.27,2.46-.36,3.62-.85.49-.21,1.16-.19,1.59-.61.42-.41.59-1.25-.23-2.9-.03-.05-.17-.22-.18-.2-.41,1-1.39,1.45-2.37,1.54-.54.05-1.09-.04-1.61-.13-.27-.05-.52-.07-.77-.13-.16-.03-.31-.26-.37.64-.05.71.15,2.69.32,2.65Z"/>
      <path class="cls-1" d="M205.59,219.81c-1.16-.82-2.11-1.89-3.25-2.75-.95-.71-1.49-2.6-4.34-.15-.04.04-.15.23-.13.23,1.36.25,2.39,1.08,3.26,2.09.47.54.86,1.17,1.26,1.76.22.31.43.59.64.89.13.19.13.5.87-.03.58-.42,1.87-1.95,1.71-2.06Z"/>
      <path class="cls-1" d="M140.65,277.97c.76-1.28,1.82-2.32,2.71-3.51.76-1.02,2.64-1.43.47-4.53-.03-.05-.22-.17-.22-.15-.44,1.44-1.36,2.51-2.44,3.48-.58.52-1.24.99-1.86,1.48-.32.26-.61.53-.92.8-.19.16-.52.21.06.92.46.55,2.11,1.68,2.21,1.51Z"/>
    </g>
    <path class="cls-1" d="M163.48,107.48c7.96.03,15.92,1.07,23.64,3.01,3.87.96,7.66,2.18,11.39,3.58.44.16,1.04.38,1.15.46.06.03.11.09.11.16l.15,2.59v.19c0,.05.04.16-.05.1l-.18-.07-.88-.29c-6.77-2.21-14.43-3.64-22-3.28-1.89.11-3.76.28-5.6.61-.92.15-1.83.34-2.72.56-.45.1-.89.21-1.33.35l-.66.19-.33.1c-.11.03-.23.07-.23.08-.14.07-.34.19-.57.21-.25.04-.43-.15-.47-.35-.14-.27-.33-1.4-.53-2.18-.4-1.7-.85-3.35-1.39-4.96-.07-.2-.28-.08-.26.13.15,1.94.31,3.87.46,5.8l.12,1.72c.04.34.1.65.25.92.14.28.41.51.71.62.6.24,1.27.13,1.95-.02l1.45-.3c3.76-.75,7.59-1.08,11.42-1.08,3.83.02,7.66.42,11.43,1.15,1.88.4,3.75.83,5.58,1.4.92.26,1.83.58,2.74.89.66.22,1.33.49,2,.73l1.02.38.51.19c.08.03.18.08.25.08v-.26s-.21-4.37-.21-4.37l-.06-1.57c-.01-.25-.01-.58-.11-1-.09-.39-.27-.77-.54-1.07-.26-.3-.63-.55-.96-.71-.3-.15-.57-.26-.81-.35l-1.48-.58c-.98-.4-1.98-.74-2.97-1.12-4-1.41-8.07-2.61-12.22-3.55-4.3-.96-8.67-1.65-13.07-2.06-2.7-.27-5.38-.6-7.82.29-1.92.69-1.04,2.69,1.09,2.68Z"/>
    <path class="cls-1" d="M130.38,105.68c-8.42-.39-16.88.13-25.19,1.61-2.07.39-4.14.79-6.19,1.29-1.03.23-2.05.52-3.07.78l-1.52.43-.76.22c-.26.07-.49.14-.81.25-.28.09-.79.31-1.17.6-.39.29-.7.67-.9,1.1-.21.41-.31,1-.34,1.25l-.1.79-.57,4.41-.19,1.45-.09.73v.09s.04,0,.06,0l.18-.05.35-.1,2.81-.8c.48-.13.92-.27,1.43-.39l.76-.19c.49-.12.98-.26,1.48-.35,3.41-.75,7.02-1.16,10.68-1.27,3.66-.09,7.36.11,11.01.52,1.82.23,3.64.46,5.44.78.9.14,1.79.31,2.69.47l1.02.2c.39.06.76.07,1.11,0,.69-.1,1.34-.61,1.53-1.26.12-.31.13-.72.18-1.07l.09-.74c.06-.41.15-.84.24-1.27.2-.87.41-1.74.61-2.6.2-.87.39-1.75.52-2.62.13-.86.21-1.75.1-2.51-.02-.19-.26-.12-.28.06-.11.83-.43,1.77-.76,2.67-.34.92-.71,1.84-1.08,2.78-.36.94-.73,1.89-1.02,2.9-.04.12-.07.26-.1.39l-.07.32-.06.44c-.02.15-.09.3-.22.37-.13.08-.29.08-.43.07-.42-.06-1.6-.39-2.54-.61-.99-.2-1.96-.45-2.96-.61-1.98-.39-3.98-.63-5.98-.85-4.01-.36-8.05-.42-12.07-.09-2.01.16-4.02.42-6.01.75-1,.18-1.99.37-2.98.58l-1.48.34c-.24.05-.51.12-.75.18l-.39.1c-.06,0-.15.05-.17.03l.03-.21.14-.82.43-2.81c.05-.29.18-.48.4-.58.15-.09.79-.25,1.28-.38,1.03-.28,2.06-.55,3.1-.79,4.15-1,8.36-1.7,12.58-2.19,4.38-.48,8.79-.75,13.19-.69,2.71.02,5.33.35,7.82-.37,1.98-.57,1.31-2.62-.98-2.74Z"/>
    <path class="cls-1" d="M104.98,116.66c7.97-1.68,16.09-2.63,24.24-2.87l1.61-.05-.2-1.61c-.04-.33-.2-.7-.41-.96-.21-.27-.46-.44-.66-.54-.41-.21-.73-.26-1.02-.3-.14-.02-.28-.02-.41-.03h-.26s-.52,0-.52,0l-2.1-.02c-1.4,0-2.81,0-4.22.01-2.82.04-5.65.15-8.48.41-5.66.52-11.39,1.69-16.68,4.17l1.06,2.81c8.28-2.33,17.06-2.85,25.55-1.52,1.06.18,2.12.36,3.17.59.53.09.99.25,1.83.34.4.03.9.02,1.42-.15.61-.2,1.1-.58,1.46-1.07.35-.48.64-1.23.43-2.09-.22-.87-.88-1.37-1.27-1.58-.43-.24-.66-.31-.95-.43l-.83-.33c-1.13-.38-2.27-.73-3.43-.93-4.65-.9-9.3-.46-13.71.23-6.44,1.08-12.94,2.43-19.53,4.02l1.68,2.8c1.85-2.04,4.81-2.96,7.95-3.38,1.58-.22,3.2-.32,4.89-.43l5.05-.36c3.36-.26,6.73-.52,10.08-.78,1.68-.14,3.35-.29,5.02-.43l2.52-.23c.47-.06,1.1-.13,1.81-.49.32-.16.76-.48,1.03-.84.28-.36.48-.77.58-1.27.1-.49.06-1.12-.24-1.69-.3-.56-.8-.94-1.22-1.12-.86-.35-1.38-.29-1.81-.33-.92-.03-1.82.02-2.69.12-1.75.2-3.38.52-4.98.87-3.22.7-6.39,1.42-9.52,2.16-6.25,1.49-12.31,3.1-18.05,4.85-.45.14-.16.31.31.22,6.41-1.21,12.82-2.43,19.22-3.64l9.61-1.78c1.61-.27,3.19-.51,4.76-.56.39,0,.78,0,1.17,0,.39.02.78.04.99.13.2.11.19.11.2.26-.02.17-.15.39-.34.49-.42.27-1.29.28-2.1.35l-2.44.19-4.87.37-9.75.72-4.88.36c-1.63.11-3.28.23-4.92.47-1.64.26-3.3.6-4.88,1.26-1.59.63-3.08,1.61-4.27,2.9l-1.56,1.68,2.24-.55c4.57-1.12,9.17-2.12,13.8-3,4.63-.86,9.27-1.72,13.89-1.61,1.8.04,3.59.24,5.31.66.86.22,1.71.47,2.52.8l.61.25c.21.08.4.17.49.23.05.03.07.05.08.06-.03.02.08-.06.09-.07l.03-.02.05-.03s-.02,0-.1,0c-.04,0-.09-.02-.12-.02,0,0,0,0,0,.01.16.53-2.45-.27-4.14-.54-1.85-.35-3.71-.6-5.59-.78-7.49-.71-15.12-.07-22.42,1.92l.94,2.49c3.88-1.75,8.06-2.84,12.33-3.39,3.26-.45,6.58-.62,9.92-.68,1.67-.03,3.34-.02,5.02,0l2.52.04,1.24.02s.08,0,.09.01h0s0,.01,0,0l.03-.11c.03-.14.08-.28.12-.39.17-.51.49-.6.29-.53l.47-1.73c-3.24.07-6.49.24-9.72.52-6.17.53-12.26,1.31-17.49,3.4-2.06.83-2.49,1.63-1.81,2.07.68.44,2.45.51,4.87,0Z"/>
    <path class="cls-1" d="M181.15,110.62l-9.17.02h-2.29c-.75.01-1.55-.03-2.49.1-.47.06-.97.18-1.47.39-.48.19-1.05.55-1.44.97-.41.42-.74.94-.93,1.56-.19.62-.21,1.39.06,2.09l.42,1.06,1.13-.15c3.06-.39,6.13-.64,9.21-.75l1.16-.04,1.97-.03c1.41-.01,2.97.07,4.46.09.35,0,.81.04,1.25.07l1.33.1,1.33.1.66.05.33.02h.17s.3.06.3.06l4.73.69,2.37.35.59.09.35.06.56.1,2.23.41-.15-.65c-.03-.19.02-.26.02-.39l.02-.18.07-.09c.05-.05.09-.13.15-.17.25-.14.59-.12.93-.06.99.9-.89-1.92-1.63-2.44-.47-.41-.89-.67-1.29-.88-.39-.21-.77-.38-1.22-.58-.99-.38-2.12-1-5.93-1.54l-10.94-1.56-6.84-.98-2.94-.42c-.96-.12-2.2-.38-3.67.08-.25.08-.57.21-.87.41-.29.19-.59.44-.85.82-.26.37-.48.97-.42,1.57.03.54.36,1.19.77,1.53.82.67,1.45.69,2,.76.28.02.54.02.8,0l.55-.03c1.46-.1,2.93-.16,4.41-.16,2.96-.02,5.96.16,8.95.51,2.99.35,5.98.88,8.94,1.59,1.48.34,2.94.75,4.4,1.18l2.13.67c.12.04.21.08.31.13.13.05.11.1.72.37.35.15.89.18,1.23.11.32-.06.53-.15.68-.21.32-.14.49-.24.69-.36l2.36-1.3-2.12-1.68c-.5-.39-.84-.76-1.37-1.42-.27-.32-.63-.73-1.08-1.08-.44-.35-.93-.63-1.4-.83-.49-.2-.85-.32-1.26-.45-.4-.13-.8-.24-1.2-.35-.8-.21-1.6-.38-2.4-.52-3.19-.54-6.25-.78-9.32-.96-6.13-.31-12.13,0-17.73.91l-.48.08.02-.6c.03-.72.28-1.43.75-2.03.3-.35-.04-.37-.37,0-.47.56-.78,1.23-.88,1.95l-.17,1.15,1.14-.04c6-.21,12.02,0,18,.6,2.98.32,5.99.67,8.89,1.25,1.43.31,2.92.7,4.18,1.25.61.28,1.04.68,1.5,1.27.46.58,1.02,1.22,1.66,1.72l.09-1.05c-.18.1-.38.21-.51.26-.08.05-.08-.05-.07.16,0-.02,0,.04,0-.03.01-.07.04-.12.03-.1l-.07-.04c-.35-.23-.93-.48-1.34-.6-.86-.27-1.73-.56-2.6-.8-1.74-.51-3.5-.95-5.28-1.33-3.55-.77-7.15-1.28-10.78-1.56-3.63-.26-7.28-.29-10.92-.04-.49.03-.82.06-1.14,0-.15-.03-.27-.09-.31-.12,0,0-.01-.01-.01-.01-.02.02-.06.05-.06.05-.03.01,0,0,.02,0,.02-.01.14-.02,0,0-.05,0,.06.01.06.01,0,0,.02-.03.04-.06.06-.06.17-.14.28-.19.28-.12.64-.19,1.01-.19.75-.02,1.65.17,2.55.29l2.68.41,4.62.71,2.26.38c1.38.25,2.5.43,3.32.63.4.12.74.3.87.66.03.09.05.18.04.29v.04s-.08-.01-.08-.01l-.16-.03-.31-.06-1.17-.2c-1.5-.24-2.71-.38-3.64-.48l-.72-.07-.77-.06h-.16s-.86,0-.86,0l-2.01.06c-2.68.1-5.37.32-8.04.63l1.68,1.08c-.08,0,.16,0,.11-.02,0-.02.03-.09.08-.17.05-.08.13-.16.21-.23.09-.07.14-.1.3-.16.54-.23,1.55-.22,2.73-.19,4.66.06,9.23.31,13.42-.57,3.31-.69,1.87-2.69-1.94-2.68Z"/>
  </g>
  <g>
    <g>
      <g>
        <path class="cls-1" d="M211.45,160.34c.31,25.11-5.65,50.45-17.98,72.37-6.14,10.95-14.01,20.93-23.32,29.31-4.66,4.19-9.68,7.97-15,11.26-2.65,1.68-5.24,3.03-7.79,2.53-2.61-.44-5.08-2.27-7.41-4.29-8.29-7.07-16.5-14.84-23.89-23.47-3.69-4.32-7.17-8.85-10.24-13.63-3.07-4.78-5.73-9.81-7.61-15.08-3.68-10.75-6.23-21.94-8.45-32.81-2.21-10.9-4.07-21.59-6.17-31.7-.13-.64-.31-.27-.23.38,1.57,12.1,3.11,24.21,5.35,36.21,1.12,6,2.42,11.97,3.97,17.87.77,2.95,1.63,5.89,2.53,8.8.48,1.46,1.02,2.9,1.54,4.35.62,1.4,1.21,2.83,1.87,4.21,2.67,5.53,6.01,10.71,9.68,15.6,3.68,4.9,7.7,9.52,11.92,13.95,4.22,4.43,8.65,8.66,13.2,12.75,1.14,1.02,2.28,2.05,3.44,3.04,1.16,1,2.29,2.03,3.54,2.99,1.25.95,2.58,1.85,4.09,2.48,1.49.65,3.19,1.01,4.89.85,1.83-.17,3.49-.87,4.99-1.68,1.51-.81,2.87-1.72,4.28-2.61,2.81-1.78,5.5-3.74,8.13-5.77,5.25-4.09,10.08-8.7,14.5-13.67,4.42-4.97,8.42-10.32,11.98-15.95,3.54-5.64,6.64-11.55,9.3-17.65,5.55-12.65,9.13-26.13,10.96-39.82,1.12-8.41,1.7-16.81.55-24.4-.47-2.99-1.17-3.79-1.73-3-.28.4-.51,1.19-.67,2.3-.14,1.11-.22,2.55-.21,4.25Z"/>
        <path class="cls-1" d="M169.25,218.07c-.32,3.36-2.17,6.53-4.71,8.92-2.56,2.42-5.72,4.13-9.13,5.09-2.96.88-6.31.95-9.61,1.11-3.31.17-6.66.49-9.89,1.97-.1.05-.07.27.03.27,3.65.11,7.29.28,10.94.15,3.65-.12,7.35-.55,10.93-1.69,3.86-1.24,7.51-3.38,10.37-6.48,1.47-1.61,2.69-3.51,3.53-5.61.47-1.28,1.06-2.66.24-3.98-.6-1-2.64-.62-2.71.23Z"/>
        <path class="cls-1" d="M175.54,217.74c-1.02-1.34-2.07-2.69-3.52-3.61-.61-.39-1.18-1.03-1.98-1.19-.77-.16-1.76.2-2.59,1.88-.03.05-.05.27-.03.27,1.34-.3,2.66.34,3.55,1.3.49.52.84,1.15,1.13,1.76.15.32.31.61.42.93.08.2-.03.47.82.16.68-.24,2.36-1.3,2.21-1.5Z"/>
        <path class="cls-1" d="M154.2,197.04c-.95.52-2.49.62-4.07.72-1.56.09-3.09.12-4.57-.02-1.47-.15-2.89-.46-4.08-1.08-1.21-.59-2.16-1.53-2.83-2.66-1.31-2.31-1.28-5.4-.87-8.41.43-3.02,1.13-6.25,1.58-9.43.84-5.49,1.78-11.39,2-17.26.23-5.86-.3-11.7-2.24-16.8-.06-.16-.28-.07-.27.1.83,12.21-.11,24.45-2.4,36.5-.59,3.23-1.48,6.47-1.62,9.98-.04,1.75.07,3.58.73,5.37.62,1.79,1.85,3.44,3.43,4.58,1.66,1.18,3.58,1.79,5.43,2.08,1.86.3,3.68.33,5.46.29,1.09-.03,2.14,0,3.32-.23,1.13-.22,2.46-.8,3.18-1.99.27-.46.25-.88.11-1.15-.14-.28-.41-.45-.7-.55-.6-.18-1.12-.28-1.59-.03Z"/>
        <path class="cls-1" d="M180.37,138.41c.1-.76.8-1.58,1.65-1.93.43-.18.85-.24,1.3-.2.46.04.92.2,1.35.44.86.49,1.57,1.35,1.92,2.27.33.91.35,1.98.05,2.97-.25.86-.84,1.61-1.51,2.06-.33.23-.71.37-1.05.46-.33.09-.69.1-1.08.08-.78-.05-1.65-.31-2.55-.74-.88-.44-1.9-1.07-2.66-2.51-.05-.09-.27-.08-.27.01-.07,1.71.81,3.18,1.91,4.14,1.13.95,2.54,1.56,4.04,1.55,1.52,0,2.96-.73,3.95-1.82,1.01-1.07,1.65-2.46,1.86-3.93.55-3.2-1.44-6.88-5.07-7.86-.92-.23-2.01-.24-2.97.06-.96.28-1.84.79-2.58,1.49-.45.43-.89.92-1.13,1.52-.23.6-.25,1.3.14,1.89.33.47,1,.51,1.59.43.59-.09,1.08-.21,1.11-.39Z"/>
        <path class="cls-1" d="M107.52,138.41c.1-.76.8-1.58,1.65-1.93.43-.18.85-.24,1.3-.2.46.04.92.2,1.35.44.86.49,1.57,1.35,1.92,2.27.33.91.35,1.98.05,2.97-.25.86-.84,1.61-1.51,2.06-.33.23-.71.37-1.05.46-.33.09-.69.1-1.08.08-.78-.05-1.65-.31-2.55-.74-.88-.44-1.9-1.07-2.66-2.51-.05-.09-.27-.08-.27.01-.07,1.71.81,3.18,1.91,4.14,1.13.95,2.54,1.56,4.04,1.55,1.52,0,2.96-.73,3.95-1.82,1.01-1.07,1.65-2.46,1.86-3.93.55-3.2-1.44-6.88-5.07-7.86-.92-.23-2.01-.24-2.97.06-.96.28-1.84.79-2.58,1.49-.45.43-.89.92-1.13,1.52-.23.6-.25,1.3.14,1.89.33.47,1,.51,1.59.43.59-.09,1.08-.21,1.11-.39Z"/>
        <path class="cls-1" d="M80.99,130.53c-1.42-1.36-3.23-1.63-4.82-1.45-.81.1-1.6.34-2.35.74-.37.21-.73.44-1.05.73-.32.28-.58.55-.84.86-1.01,1.21-1.6,2.63-1.97,4.01-.36,1.38-.52,2.74-.63,4.07-.43,5.24-.26,10.53.52,15.72.34,2.24.72,4.55,1.23,6.88.51,2.3,1.13,4.71,2.27,6.98,1.11,2.25,2.85,4.43,5.17,5.56,2.3,1.16,4.95,1.06,6.77-.02.12-.07.03-.28-.09-.26-2.19.31-4.54-.33-6.3-1.79-1.79-1.45-3.03-3.55-3.91-5.78-.88-2.23-1.45-4.62-1.96-7.01-.49-2.39-.85-4.81-1.06-7.25-.23-2.62-.29-5.25-.18-7.87.05-1.31.15-2.61.27-3.91.13-1.31.28-2.58.57-3.76.55-2.45,1.85-4.52,3.69-4.65.58-.07,1.14.04,1.6.14.44.09.86.18,1.42.29.47.13,1.19.17,1.68-.18.24-.18.42-.46.46-.84,0-.36-.12-.83-.5-1.19Z"/>
        <path class="cls-1" d="M221.17,132.65c.42-.48,1.39-.76,2.31-.65.46.05.92.18,1.31.39.19.11.37.22.53.36.16.14.35.33.51.52,1.3,1.54,1.7,3.96,1.86,6.41.33,5.01.06,10.05-.7,15.02-.33,2.14-.84,4.33-1.45,6.51-.61,2.2-1.27,4.35-2.12,6.31-.85,1.97-1.86,3.73-3.26,5.18-1.4,1.45-3.27,2.61-5.58,3.32-.15.05-.09.27.05.28,2.73.1,5.43-.89,7.39-2.67,1.98-1.76,3.24-4.08,4.16-6.41.92-2.35,1.55-4.76,2.14-7.17.58-2.42,1.07-4.87,1.43-7.35.39-2.67.66-5.36.77-8.07.06-1.35.07-2.71.05-4.07-.03-1.35-.07-2.74-.3-4.18-.24-1.48-.67-3.04-1.61-4.47-.48-.72-1-1.35-1.82-1.95-.78-.56-1.65-.91-2.54-1.1-1.1-.22-2.26-.25-3.36.15-1.09.37-2.11,1.37-2.27,2.53-.1.93.56,1.24,1.15,1.3.3.03.6.03.82,0,.25-.02.41-.07.53-.19Z"/>
        <path class="cls-1" d="M104.21,48.51c-1.14,2.68-1.6,5.55-1.82,8.34-.22,2.81-.08,5.58.11,8.3.37,5.44,1.1,10.77.68,15.95-.23,2.57-.66,5.12-1.61,7.45-.92,2.35-2.27,4.53-3.92,6.45-1.66,1.9-3.62,3.56-5.81,4.81-.54.33-1.11.59-1.67.88-.58.27-1.23.55-1.9.9-.67.36-1.39.8-2.03,1.45-.66.64-1.16,1.53-1.42,2.32-.44,1.34-.53,2.41-.73,3.53-.19,1.11-.37,2.24-.52,3.37-.17,1.13-.32,2.27-.45,3.42-.15,1.15-.27,2.3-.37,3.47-.43,4.64-.61,9.38-.46,14.09.29,9.41,2,18.7,5.33,26.6l.11.26-.33-.07c-1-.21-1.98-.4-2.97-.58-.28-.05-.22.21.04.31.88.33,1.77.65,2.64.98l1.67.62-.43-1.69c-2.41-9.54-3.63-19.36-3.67-29.2-.01-4.92.27-9.84.83-14.73.27-2.45.65-4.88,1.06-7.31.2-1.22.41-2.39.98-3.19.56-.81,1.56-1.35,2.66-1.84,5.32-2.17,9.98-6.27,12.75-11.44.71-1.29,1.3-2.64,1.75-4.05.25-.7.38-1.42.58-2.13.08-.36.19-.71.26-1.07l.17-1.08c.48-2.89.56-5.79.46-8.64-.17-5.91-1.02-11.68-.63-17.23.07-.85.13-1.7.29-2.5.06-.41.13-.81.19-1.22.06-.4.18-.78.25-1.18.08-.39.16-.78.22-1.17l.28-1.13c.09-.38.16-.76.22-1.15.08-.38.19-.74.26-1.13.23-1.21-.16-1.9-.82-1.91-.63,0-1.63.69-2.26,2.14Z"/>
        <path class="cls-1" d="M187.77,49.73c1.04,2.32,1.46,4.92,1.67,7.54.19,2.63.08,5.32-.13,8.03-.39,5.42-1.15,10.98-.68,16.71.18,1.43.32,2.86.69,4.28.28,1.43.77,2.83,1.33,4.17,1.14,2.7,2.77,5.18,4.74,7.34,1.98,2.15,4.32,3.98,6.93,5.34,1.33.71,2.63,1.17,3.46,1.78.42.31.7.61.9.98.21.38.36.9.48,1.51,1.45,8.31,1.89,17.44,1.67,26.39-.1,4.49-.37,8.95-.69,13.35-.17,2.19-.35,4.37-.52,6.53-.1,1.11-.19,2.21-.29,3.3-.08.67-.14,1.28-.19,1.84l-.06.8-.02.36c0,.05-.02.13,0,.16l.2-.07c1.11-.48,1.98-.72,2.67-1.01.77-.29,1.63-.59,2.24-.95.17-.12,0-.29-.19-.22-.63.2-1.55.37-2.21.51-.39.09-.8.17-1.22.31-.03,0-.09.05-.1.03l.02-.13.05-.25.1-.52.21-1.14c.21-1.21.44-2.41.63-3.62.38-2.42.72-4.84.98-7.27.54-4.86.84-9.74.89-14.63.06-4.89-.14-9.78-.59-14.66-.23-2.44-.5-4.88-.87-7.3-.2-1.21-.27-2.42-.73-3.75-.23-.65-.62-1.33-1.14-1.84-.5-.53-1.08-.92-1.66-1.25-.67-.38-1.34-.68-1.97-.99-.61-.32-1.22-.62-1.8-.99-1.17-.71-2.28-1.52-3.3-2.42-2.03-1.83-3.78-3.98-5.05-6.38-2.67-4.78-3.06-10.39-2.71-15.94.32-5.78,1.37-11.67,1.2-17.85-.06-.95-.04-1.9-.19-2.85-.12-.95-.22-1.89-.5-2.8-.12-.46-.25-.91-.39-1.35-.14-.44-.37-.86-.57-1.28-.21-.41-.42-.82-.65-1.2-.24-.38-.55-.72-.84-1.06-.94-1.06-1.68-1.01-2.03-.42-.37.6-.3,1.65.24,2.89Z"/>
        <path class="cls-1" d="M163.37,39.42c-.63.57-1.35,1.03-2.05,1.52-.74.42-1.46.88-2.26,1.22-1.54.75-3.19,1.29-4.88,1.69-3.38.82-6.91,1-10.42.88-3.02-.13-6.3-.86-9.33-1.45-1.48-.32-2.84-.65-4.12-1.21-1.29-.59-2.64-1.33-3.79-2.88-.07-.1-.28-.02-.26.1.45,2.09,1.86,3.64,3.44,4.67,1.61,1.03,3.39,1.53,5.13,1.91,3.47.71,6.97,1.21,10.55,1.37,3.85.16,7.78-.05,11.63-1.09,1.99-.55,3.94-1.32,5.79-2.33.57-.31,1.13-.63,1.63-1.01.49-.39.86-.93,1.02-1.62.25-1.09-1.4-2.33-2.08-1.76Z"/>
        <path class="cls-1" d="M218.83,134.21c.88-13.03,1.48-26.31-.24-39.46-.85-6.57-2.23-13.1-4.43-19.4-1.08-3.16-2.4-6.23-3.92-9.21-1.5-2.99-3.27-5.85-5.27-8.55-3.94-5.44-8.85-10.08-13.92-14.29-2.54-2.11-5.12-4.14-7.66-6.18-1.27-1.02-2.53-2.05-3.77-3.1-1.27-1.04-2.4-2.11-3.73-3.18l-1.99-1.6c-.65-.55-1.4-.96-2.1-1.45-1.39-.99-2.92-1.74-4.43-2.54-3.08-1.43-6.3-2.62-9.63-3.3-6.65-1.36-13.52-1.44-20.21.17-.36.08-.73.19-1.09.3-.37.12-.72.2-1.11.37-.82.31-1.4.61-2.05.91-1.29.59-2.58,1.18-3.88,1.78-2.61,1.18-5.26,2.36-7.91,3.62-5.29,2.51-10.64,5.38-15.39,9.29-2.37,1.95-4.6,4.14-6.49,6.62-1.91,2.44-3.55,5.06-4.98,7.77-2.88,5.43-4.95,11.18-6.69,16.92-3.52,11.49-5.77,23.28-6.68,34.81-.91,11.53-.51,22.81,1.11,33.27.09.66.29.29.25-.38-1.86-24.93,1.49-50.25,9.92-73.78,2.15-5.84,4.82-11.53,8.52-16.5,3.69-4.97,8.62-8.88,14-12,5.38-3.14,11.16-5.59,16.89-8.2l2.15-.98c.71-.32,1.45-.7,2.11-.93,1.39-.49,2.91-.84,4.43-1.09,3.04-.51,6.15-.66,9.24-.5,3.33.17,6.63.69,9.83,1.58,3.18.95,6.24,2.26,9.11,3.91.7.43,1.38.91,2.07,1.36l1.03.69.96.78,1.92,1.57,1.92,1.7c2.58,2.24,5.24,4.38,7.87,6.52,5.28,4.25,10.47,8.55,14.81,13.61,2.18,2.51,4.12,5.21,5.87,8.02,1.71,2.84,3.19,5.82,4.47,8.89,2.62,6.38,4.33,13.13,5.36,19.98,1.02,6.86,1.43,13.82,1.38,20.79-.01,8.59-.96,16.96-.52,24.84.21,3.13.95,4,1.52,3.21.57-.78,1.13-3.13,1.36-6.66Z"/>
      </g>
      <path class="cls-1" d="M160.84,275.53c-1-1-1.7-2.23-2.58-3.33-.76-.94-.64-2.82-4.15-1.44-.06.02-.22.17-.2.18,1.24.73,2.01,1.84,2.64,3.07.34.66.6,1.39.9,2.08.15.36.34.7.51,1.05.1.22.06.54.88.15.65-.31,2.15-1.62,2.02-1.76Z"/>
      <path class="cls-1" d="M174.17,264.06c-1.03-.69-1.77-1.71-2.62-2.6-.76-.79-.53-2.45-3.96-.98-.05.02-.22.17-.2.18,1.19.65,1.91,1.63,2.59,2.73.36.59.67,1.25,1.04,1.86.19.32.41.61.61.92.13.19.14.51.86-.03.57-.43,1.81-1.99,1.68-2.09Z"/>
      <path class="cls-1" d="M197.14,234.61c-.98-.39-1.76-1.11-2.66-1.64-.77-.45-1.02-2.06-3.56.62-.04.04-.14.24-.13.24,1.12.06,1.93.65,2.65,1.4.39.4.73.89,1.09,1.34.19.23.4.43.59.65.12.14.15.42.73-.26.46-.54,1.41-2.3,1.28-2.35Z"/>
      <path class="cls-1" d="M212.42,202.42c-1.47-.05-2.81-.37-4.02-.6-.53-.1-.96-.54-1.45-.59-.52-.06-1.09.31-2.65,1.41-.05.03-.17.22-.15.22,1.53.48,2.78.92,4.12,1.45.71.28,1.42.61,2.12.89.36.13.7.26,1.05.39.21.08.38.34.7-.5.26-.67.49-2.65.29-2.66Z"/>
      <path class="cls-1" d="M214.33,183.41c-1.24,0-2.45-.33-3.69-.36-1.02-.03-2.42-1.24-3.1,2.42-.01.06.02.28.03.27,1.06-.59,2.2-.52,3.29-.21.59.17,1.17.45,1.73.71.3.12.58.24.87.35.18.08.32.33.6-.52.22-.67.44-2.66.27-2.66Z"/>
      <path class="cls-1" d="M83.91,187.05c1.26-.22,2.54-.09,3.81-.23,1.07-.12,2.56.95,2.96-2.77,0-.06-.04-.27-.05-.26-1.07.7-2.27.76-3.47.61-.65-.08-1.3-.27-1.94-.43-.33-.08-.66-.12-.99-.2-.2-.04-.41-.27-.54.62-.11.7.05,2.7.22,2.67Z"/>
      <path class="cls-1" d="M88.55,207.8c1.42-.36,2.9-.4,4.33-.74,1.19-.28,3.04.5,3-3.27,0-.06-.08-.27-.09-.25-1.1.9-2.44,1.17-3.8,1.2-.74.01-1.49-.09-2.22-.16-.39-.03-.75-.05-1.13-.08-.23-.02-.48-.22-.56.68-.06.71.27,2.68.47,2.63Z"/>
      <path class="cls-1" d="M94.16,225.72c.96-.86,2.21-1.27,3.37-1.74.51-.21,1.16-.1,1.66-.39.51-.29.88-.98,1.1-2.86,0-.06-.05-.27-.06-.26-1.27.77-2.54,1.06-3.94,1.35-.75.16-1.54.27-2.31.48-.4.11-.78.26-1.17.41-.24.08-.58.04-.25.89.26.67,1.49,2.24,1.62,2.13Z"/>
      <path class="cls-1" d="M112.76,249.71c.72-.8,1.69-1.3,2.51-1.98.33-.27.86-.35,1.16-.69l-2.57-2.53c-.26.45-.17,1.19,1.03,2.75.04.05.21.18.21.16.12-.54.35-.99.66-1.38l-.9-.89c-.4.34-.87.6-1.37.83-.52.24-1.11.4-1.66.59-.29.1-.55.23-.83.34-.17.07-.46,0-.01.78.35.62,1.67,2.11,1.77,2.01Z"/>
      <path class="cls-1" d="M126.92,265.95c.76-1.01,1.75-1.82,2.52-2.83.64-.83,2.46-1.25-.07-3.99-.04-.04-.23-.15-.23-.13-.16,1.23-.91,2.12-1.82,2.84-.5.39-1.07.7-1.62,1.01-.28.18-.54.34-.82.51-.17.1-.47.07.05.8.41.58,1.89,1.93,1.99,1.79Z"/>
      <path class="cls-1" d="M187.55,249.8c-1.08-.58-1.89-1.53-2.77-2.36-.38-.36-.56-.97-1.03-1.27-.48-.31-1.25-.3-2.96.46-.05.02-.22.17-.2.18,1.21.63,1.98,1.58,2.73,2.65.4.57.77,1.21,1.19,1.8.22.31.47.58.71.87.14.18.19.5.86-.11.53-.48,1.61-2.16,1.47-2.23Z"/>
      <path class="cls-1" d="M100.98,236.28c1.21-.27,2.46-.36,3.62-.85.49-.21,1.16-.19,1.59-.61.42-.41.59-1.25-.23-2.9-.03-.05-.17-.22-.18-.2-.41,1-1.39,1.45-2.37,1.54-.54.05-1.09-.04-1.61-.13-.27-.05-.52-.07-.77-.13-.16-.03-.31-.26-.37.64-.05.71.15,2.69.32,2.65Z"/>
      <path class="cls-1" d="M205.59,219.81c-1.16-.82-2.11-1.89-3.25-2.75-.95-.71-1.49-2.6-4.34-.15-.04.04-.15.23-.13.23,1.36.25,2.39,1.08,3.26,2.09.47.54.86,1.17,1.26,1.76.22.31.43.59.64.89.13.19.13.5.87-.03.58-.42,1.87-1.95,1.71-2.06Z"/>
      <path class="cls-1" d="M140.65,277.97c.76-1.28,1.82-2.32,2.71-3.51.76-1.02,2.64-1.43.47-4.53-.03-.05-.22-.17-.22-.15-.44,1.44-1.36,2.51-2.44,3.48-.58.52-1.24.99-1.86,1.48-.32.26-.61.53-.92.8-.19.16-.52.21.06.92.46.55,2.11,1.68,2.21,1.51Z"/>
    </g>
    <path class="cls-1" d="M163.48,107.48c7.96.03,15.92,1.07,23.64,3.01,3.87.96,7.66,2.18,11.39,3.58.44.16,1.04.38,1.15.46.06.03.11.09.11.16l.15,2.59v.19c0,.05.04.16-.05.1l-.18-.07-.88-.29c-6.77-2.21-14.43-3.64-22-3.28-1.89.11-3.76.28-5.6.61-.92.15-1.83.34-2.72.56-.45.1-.89.21-1.33.35l-.66.19-.33.1c-.11.03-.23.07-.23.08-.14.07-.34.19-.57.21-.25.04-.43-.15-.47-.35-.14-.27-.33-1.4-.53-2.18-.4-1.7-.85-3.35-1.39-4.96-.07-.2-.28-.08-.26.13.15,1.94.31,3.87.46,5.8l.12,1.72c.04.34.1.65.25.92.14.28.41.51.71.62.6.24,1.27.13,1.95-.02l1.45-.3c3.76-.75,7.59-1.08,11.42-1.08,3.83.02,7.66.42,11.43,1.15,1.88.4,3.75.83,5.58,1.4.92.26,1.83.58,2.74.89.66.22,1.33.49,2,.73l1.02.38.51.19c.08.03.18.08.25.08v-.26s-.21-4.37-.21-4.37l-.06-1.57c-.01-.25-.01-.58-.11-1-.09-.39-.27-.77-.54-1.07-.26-.3-.63-.55-.96-.71-.3-.15-.57-.26-.81-.35l-1.48-.58c-.98-.4-1.98-.74-2.97-1.12-4-1.41-8.07-2.61-12.22-3.55-4.3-.96-8.67-1.65-13.07-2.06-2.7-.27-5.38-.6-7.82.29-1.92.69-1.04,2.69,1.09,2.68Z"/>
    <path class="cls-1" d="M130.38,105.68c-8.42-.39-16.88.13-25.19,1.61-2.07.39-4.14.79-6.19,1.29-1.03.23-2.05.52-3.07.78l-1.52.43-.76.22c-.26.07-.49.14-.81.25-.28.09-.79.31-1.17.6-.39.29-.7.67-.9,1.1-.21.41-.31,1-.34,1.25l-.1.79-.57,4.41-.19,1.45-.09.73v.09s.04,0,.06,0l.18-.05.35-.1,2.81-.8c.48-.13.92-.27,1.43-.39l.76-.19c.49-.12.98-.26,1.48-.35,3.41-.75,7.02-1.16,10.68-1.27,3.66-.09,7.36.11,11.01.52,1.82.23,3.64.46,5.44.78.9.14,1.79.31,2.69.47l1.02.2c.39.06.76.07,1.11,0,.69-.1,1.34-.61,1.53-1.26.12-.31.13-.72.18-1.07l.09-.74c.06-.41.15-.84.24-1.27.2-.87.41-1.74.61-2.6.2-.87.39-1.75.52-2.62.13-.86.21-1.75.1-2.51-.02-.19-.26-.12-.28.06-.11.83-.43,1.77-.76,2.67-.34.92-.71,1.84-1.08,2.78-.36.94-.73,1.89-1.02,2.9-.04.12-.07.26-.1.39l-.07.32-.06.44c-.02.15-.09.3-.22.37-.13.08-.29.08-.43.07-.42-.06-1.6-.39-2.54-.61-.99-.2-1.96-.45-2.96-.61-1.98-.39-3.98-.63-5.98-.85-4.01-.36-8.05-.42-12.07-.09-2.01.16-4.02.42-6.01.75-1,.18-1.99.37-2.98.58l-1.48.34c-.24.05-.51.12-.75.18l-.39.1c-.06,0-.15.05-.17.03l.03-.21.14-.82.43-2.81c.05-.29.18-.48.4-.58.15-.09.79-.25,1.28-.38,1.03-.28,2.06-.55,3.1-.79,4.15-1,8.36-1.7,12.58-2.19,4.38-.48,8.79-.75,13.19-.69,2.71.02,5.33.35,7.82-.37,1.98-.57,1.31-2.62-.98-2.74Z"/>
    <path class="cls-1" d="M104.98,116.66c7.97-1.68,16.09-2.63,24.24-2.87l1.61-.05-.2-1.61c-.04-.33-.2-.7-.41-.96-.21-.27-.46-.44-.66-.54-.41-.21-.73-.26-1.02-.3-.14-.02-.28-.02-.41-.03h-.26s-.52,0-.52,0l-2.1-.02c-1.4,0-2.81,0-4.22.01-2.82.04-5.65.15-8.48.41-5.66.52-11.39,1.69-16.68,4.17l1.06,2.81c8.28-2.33,17.06-2.85,25.55-1.52,1.06.18,2.12.36,3.17.59.53.09.99.25,1.83.34.4.03.9.02,1.42-.15.61-.2,1.1-.58,1.46-1.07.35-.48.64-1.23.43-2.09-.22-.87-.88-1.37-1.27-1.58-.43-.24-.66-.31-.95-.43l-.83-.33c-1.13-.38-2.27-.73-3.43-.93-4.65-.9-9.3-.46-13.71.23-6.44,1.08-12.94,2.43-19.53,4.02l1.68,2.8c1.85-2.04,4.81-2.96,7.95-3.38,1.58-.22,3.2-.32,4.89-.43l5.05-.36c3.36-.26,6.73-.52,10.08-.78,1.68-.14,3.35-.29,5.02-.43l2.52-.23c.47-.06,1.1-.13,1.81-.49.32-.16.76-.48,1.03-.84.28-.36.48-.77.58-1.27.1-.49.06-1.12-.24-1.69-.3-.56-.8-.94-1.22-1.12-.86-.35-1.38-.29-1.81-.33-.92-.03-1.82.02-2.69.12-1.75.2-3.38.52-4.98.87-3.22.7-6.39,1.42-9.52,2.16-6.25,1.49-12.31,3.1-18.05,4.85-.45.14-.16.31.31.22,6.41-1.21,12.82-2.43,19.22-3.64l9.61-1.78c1.61-.27,3.19-.51,4.76-.56.39,0,.78,0,1.17,0,.39.02.78.04.99.13.2.11.19.11.2.26-.02.17-.15.39-.34.49-.42.27-1.29.28-2.1.35l-2.44.19-4.87.37-9.75.72-4.88.36c-1.63.11-3.28.23-4.92.47-1.64.26-3.3.6-4.88,1.26-1.59.63-3.08,1.61-4.27,2.9l-1.56,1.68,2.24-.55c4.57-1.12,9.17-2.12,13.8-3,4.63-.86,9.27-1.72,13.89-1.61,1.8.04,3.59.24,5.31.66.86.22,1.71.47,2.52.8l.61.25c.21.08.4.17.49.23.05.03.07.05.08.06-.03.02.08-.06.09-.07l.03-.02.05-.03s-.02,0-.1,0c-.04,0-.09-.02-.12-.02,0,0,0,0,0,.01.16.53-2.45-.27-4.14-.54-1.85-.35-3.71-.6-5.59-.78-7.49-.71-15.12-.07-22.42,1.92l.94,2.49c3.88-1.75,8.06-2.84,12.33-3.39,3.26-.45,6.58-.62,9.92-.68,1.67-.03,3.34-.02,5.02,0l2.52.04,1.24.02s.08,0,.09.01h0s0,.01,0,0l.03-.11c.03-.14.08-.28.12-.39.17-.51.49-.6.29-.53l.47-1.73c-3.24.07-6.49.24-9.72.52-6.17.53-12.26,1.31-17.49,3.4-2.06.83-2.49,1.63-1.81,2.07.68.44,2.45.51,4.87,0Z"/>
    <path class="cls-1" d="M181.15,110.62l-9.17.02h-2.29c-.75.01-1.55-.03-2.49.1-.47.06-.97.18-1.47.39-.48.19-1.05.55-1.44.97-.41.42-.74.94-.93,1.56-.19.62-.21,1.39.06,2.09l.42,1.06,1.13-.15c3.06-.39,6.13-.64,9.21-.75l1.16-.04,1.97-.03c1.41-.01,2.97.07,4.46.09.35,0,.81.04,1.25.07l1.33.1,1.33.1.66.05.33.02h.17s.3.06.3.06l4.73.69,2.37.35.59.09.35.06.56.1,2.23.41-.15-.65c-.03-.19.02-.26.02-.39l.02-.18.07-.09c.05-.05.09-.13.15-.17.25-.14.59-.12.93-.06.99.9-.89-1.92-1.63-2.44-.47-.41-.89-.67-1.29-.88-.39-.21-.77-.38-1.22-.58-.99-.38-2.12-1-5.93-1.54l-10.94-1.56-6.84-.98-2.94-.42c-.96-.12-2.2-.38-3.67.08-.25.08-.57.21-.87.41-.29.19-.59.44-.85.82-.26.37-.48.97-.42,1.57.03.54.36,1.19.77,1.53.82.67,1.45.69,2,.76.28.02.54.02.8,0l.55-.03c1.46-.1,2.93-.16,4.41-.16,2.96-.02,5.96.16,8.95.51,2.99.35,5.98.88,8.94,1.59,1.48.34,2.94.75,4.4,1.18l2.13.67c.12.04.21.08.31.13.13.05.11.1.72.37.35.15.89.18,1.23.11.32-.06.53-.15.68-.21.32-.14.49-.24.69-.36l2.36-1.3-2.12-1.68c-.5-.39-.84-.76-1.37-1.42-.27-.32-.63-.73-1.08-1.08-.44-.35-.93-.63-1.4-.83-.49-.2-.85-.32-1.26-.45-.4-.13-.8-.24-1.2-.35-.8-.21-1.6-.38-2.4-.52-3.19-.54-6.25-.78-9.32-.96-6.13-.31-12.13,0-17.73.91l-.48.08.02-.6c.03-.72.28-1.43.75-2.03.3-.35-.04-.37-.37,0-.47.56-.78,1.23-.88,1.95l-.17,1.15,1.14-.04c6-.21,12.02,0,18,.6,2.98.32,5.99.67,8.89,1.25,1.43.31,2.92.7,4.18,1.25.61.28,1.04.68,1.5,1.27.46.58,1.02,1.22,1.66,1.72l.09-1.05c-.18.1-.38.21-.51.26-.08.05-.08-.05-.07.16,0-.02,0,.04,0-.03.01-.07.04-.12.03-.1l-.07-.04c-.35-.23-.93-.48-1.34-.6-.86-.27-1.73-.56-2.6-.8-1.74-.51-3.5-.95-5.28-1.33-3.55-.77-7.15-1.28-10.78-1.56-3.63-.26-7.28-.29-10.92-.04-.49.03-.82.06-1.14,0-.15-.03-.27-.09-.31-.12,0,0-.01-.01-.01-.01-.02.02-.06.05-.06.05-.03.01,0,0,.02,0,.02-.01.14-.02,0,0-.05,0,.06.01.06.01,0,0,.02-.03.04-.06.06-.06.17-.14.28-.19.28-.12.64-.19,1.01-.19.75-.02,1.65.17,2.55.29l2.68.41,4.62.71,2.26.38c1.38.25,2.5.43,3.32.63.4.12.74.3.87.66.03.09.05.18.04.29v.04s-.08-.01-.08-.01l-.16-.03-.31-.06-1.17-.2c-1.5-.24-2.71-.38-3.64-.48l-.72-.07-.77-.06h-.16s-.86,0-.86,0l-2.01.06c-2.68.1-5.37.32-8.04.63l1.68,1.08c-.08,0,.16,0,.11-.02,0-.02.03-.09.08-.17.05-.08.13-.16.21-.23.09-.07.14-.1.3-.16.54-.23,1.55-.22,2.73-.19,4.66.06,9.23.31,13.42-.57,3.31-.69,1.87-2.69-1.94-2.68Z"/>
  </g>
</svg>