<?xml version="1.0" encoding="UTF-8"?>
<svg id="Calque_2" data-name="Calque 2" xmlns="http://www.w3.org/2000/svg" viewBox="0 0 300 300">
  <defs>
    <style>
      .cls-1 {
        fill: #1d1d1d;
      }

      .cls-2 {
        fill: #1db4b8;
      }

      .cls-3 {
        fill: #00abaf;
      }
    </style>
  </defs>
  <g>
    <circle class="cls-3" cx="122.5" cy="95.5" r="5.5"/>
    <path class="cls-2" d="M69.7,146.86c6.15.08,12.02,2.13,18.05,3.02,5.2.77,10.22,8.09,17.73-9.58.12-.28.24-1.41.16-1.39-6.17,1.77-11.86.42-17.47-1.88-3.02-1.23-5.97-2.96-8.95-4.46-1.55-.78-3.12-1.35-4.68-2.06-.96-.44-1.76-1.78-3.31,2.61-1.22,3.47-2.37,13.72-1.54,13.73Z"/>
    <path class="cls-2" d="M203.08,108.62c-4.67,5.09-10.84,8.38-16.46,12.2-2.44,1.66-5.93,2.01-8.19,4.18-2.29,2.18-3.36,6.2-1.6,15.6.06.3.63,1.26.7,1.18,4.95-5.61,10.97-8.74,17.58-11.59,3.55-1.53,7.36-2.79,11.02-4.37,1.9-.82,3.66-1.81,5.5-2.75,1.13-.56,2.84-.48.73-4.56-1.68-3.22-8.65-10.57-9.27-9.9Z"/>
    <circle class="cls-3" cx="107.33" cy="91.5" r="5.5"/>
    <circle class="cls-3" cx="92.5" cy="89.5" r="5.5"/>
    <circle class="cls-3" cx="137" cy="88.5" r="5.5"/>
    <circle class="cls-3" cx="151.83" cy="82.5" r="5.5"/>
    <circle class="cls-3" cx="166.67" cy="79.5" r="5.5"/>
    <circle class="cls-3" cx="181.5" cy="80.5" r="5.5"/>
  </g>
  <g>
    <g>
      <path class="cls-1" d="M85.89,270.04c-2.23-13.67-6.17-27.27-13.18-39.45-3.55-6.04-7.86-11.71-13.17-16.4-2.64-2.36-5.51-4.46-8.61-6.23-1.54-.89-3.14-1.69-4.8-2.37-.83-.35-1.67-.66-2.53-.94-.44-.13-.86-.28-1.31-.39-.22-.06-.44-.12-.67-.17l-.53-.12-1.09-.46c-.41-.16-.8-.37-1.2-.55-.8-.36-1.57-.79-2.34-1.21-1.53-.86-3-1.83-4.4-2.88-2.79-2.12-5.3-4.62-7.31-7.46-1.02-1.41-1.91-2.91-2.66-4.47-.76-1.56-1.37-3.17-1.8-4.85-.9-3.33-1.16-6.85-.78-10.27.21-1.71.55-3.4,1.09-5.02.55-1.62,1.25-3.18,2.11-4.65,1.8-2.88,4.21-5.4,7.03-7.44,5.66-4.13,12.57-6.54,19.35-9.35,2.85-1.17,5.74-2.42,8.56-3.92,2.84-1.5,5.56-3.27,8.12-5.29,5.12-4.02,9.55-9.04,12.97-14.74,1.71-2.84,3.16-5.88,4.32-9,1.14-3.13,2.03-6.33,2.77-9.52,1.49-6.39,2.49-12.76,4.2-18.84,3.38-12.21,9.12-23.64,16.39-33.55,3.66-4.95,7.57-9.64,12.27-13.33,2.35-1.83,4.88-3.41,7.62-4.55,2.74-1.11,5.72-1.7,8.72-1.61.76,0,.4-.26-.38-.32-3.6-.33-7.2.46-10.44,1.81-3.24,1.4-6.19,3.33-8.85,5.55-2.68,2.2-5.09,4.7-7.32,7.3-2.24,2.6-4.35,5.31-6.31,8.11-3.91,5.63-7.25,11.65-9.95,17.94-2.68,6.3-4.71,12.88-6.09,19.57-1.43,6.66-2.55,13.38-4.77,19.74-2.19,6.35-5.68,12.23-10.14,17.26-4.48,5.01-9.9,9.16-15.96,12.09-6.06,2.97-12.58,5.05-18.85,8-2.85,1.35-5.64,2.89-8.21,4.8-2.57,1.9-4.89,4.21-6.73,6.89-.94,1.33-1.66,2.8-2.33,4.27-.59,1.51-1.15,3.04-1.47,4.63-.74,3.16-.85,6.44-.54,9.65.36,3.21,1.19,6.39,2.53,9.35,1.35,2.94,3.11,5.7,5.23,8.13,2.1,2.46,4.53,4.61,7.16,6.46,1.32.93,2.69,1.78,4.1,2.54.7.39,1.42.75,2.15,1.09.36.18.73.35,1.1.5l1.22.53.52.11.38.09.76.21c.51.16,1.02.33,1.53.51,1.01.38,2.02.79,3,1.27,1.97.94,3.87,2.04,5.69,3.27,6.11,4.17,11.24,9.72,15.33,15.94,2.05,3.11,3.9,6.36,5.47,9.76l.61,1.26.55,1.29,1.1,2.58c.64,1.76,1.37,3.49,1.92,5.28,1.52,4.36,2.57,8.83,3.65,13.16.98,4.36,1.95,8.61,2.95,12.7.8,3.23,1.64,4.08,2.14,3.17.48-.91.72-3.63.08-7.46Z"/>
      <path class="cls-1" d="M138.47,35.85c2.1,6.41,5.34,12.35,9.54,17.6,2.11,2.61,4.49,5.04,7.21,7.12l1.02.78,1.08.71c.36.23.71.48,1.09.7l1.14.62c.75.44,1.55.77,2.35,1.11.8.37,1.61.61,2.42.88,5.57,1.8,12,2.65,18.14,1.56,6.11-1.04,11.83-4.12,15.01-8.64.1-.14-.1-.28-.24-.19-9.75,7.34-23.72,8.78-34.84,3.76-2.95-1.37-5.6-3.36-7.94-5.64-2.34-2.29-4.39-4.88-6.18-7.62-1.85-2.85-3.47-5.85-4.73-8.98-.74-1.95-1.24-3.88-2.62-5.42-1.13-1.23-3-.11-2.46,1.67Z"/>
      <path class="cls-1" d="M145.54,24.27c5.25-1.17,10.87-1.16,16.34-.55,5.49.64,10.92,1.97,16.12,3.89,10.4,3.85,19.99,9.92,27.92,17.71l2.94,2.95,2.73,3.15,1.36,1.58,1.26,1.67,2.51,3.33c3.09,4.63,6.02,9.39,8.38,14.46,4.85,10.06,8.24,20.82,10.54,31.79,1.09,4.71,1.69,9.6,2.43,14.53.24,2.48.48,4.98.71,7.49.1,1.26.27,2.51.32,3.77.06,1.26.12,2.53.17,3.8.1,2.54.28,5.08.31,7.64.01,2.56.02,5.12.03,7.68.02,1.3,0,2.53.04,3.88.05,1.34.08,2.69.16,4.03l.53,3.99c.22,1.32.57,2.61.85,3.92,2.67,10.34,8.32,19.68,15.69,26.66,7.27,7.09,16.39,11.73,25.33,13.21.56.11.33-.2-.22-.37-5.15-1.32-10.05-3.62-14.49-6.59-4.45-2.97-8.46-6.58-11.93-10.66-3.47-4.08-6.4-8.63-8.65-13.5-2.21-4.88-3.72-10.09-4.34-15.4-.07-.66-.21-1.32-.22-1.99l-.07-2-.07-2v-2.04s-.06-8.16-.06-8.16c.02-1.36-.06-2.72-.13-4.08l-.2-4.08-.2-4.08c-.07-1.36-.25-2.71-.36-4.07-.87-10.87-2.68-21.7-5.56-32.29-1.52-5.71-3.45-11.32-5.68-16.8-.5-1.4-1.19-2.71-1.8-4.06l-1.88-4.03-2.14-3.91c-.72-1.3-1.4-2.62-2.24-3.85l-2.4-3.76c-.79-1.26-1.74-2.41-2.61-3.62-1.7-2.45-3.72-4.65-5.64-6.93-4.06-4.37-8.48-8.42-13.33-11.94-10.11-7.2-21.86-12.2-34.23-14.06-3.8-.55-7.63-.91-11.38-.67-3.73.22-7.43.9-10.64,2.57-1.28.61-1.94,1.4-2.18,1.84-.24.47-.06.75.39.86.92.22,2.72-.28,5.57-.88Z"/>
      <path class="cls-1" d="M217.19,60.59c-.42,3.17-1.22,6.26-2.36,9.17-1.15,2.9-2.74,5.61-4.92,7.67-2.16,2.07-4.87,3.43-7.81,3.97-2.95.5-6.05.21-9.06-.53-5.23-1.3-10.33-4.36-15.04-7.66-2.37-1.66-4.66-3.39-6.91-5.11-2.24-1.72-4.46-3.43-6.76-5.2-.15-.11-.29.09-.19.23,1.89,2.66,4.07,5.02,6.4,7.21,2.33,2.18,4.81,4.18,7.43,5.99,5.24,3.57,11.04,6.57,17.51,7.68,3.46.61,7.17.44,10.62-.8,3.49-1.19,6.45-3.69,8.61-6.61,2.25-3.05,3.7-6.54,4.78-10.05.29-1.09.62-2.16.82-3.23.14-1.07.13-2.15-.17-3.2-.48-1.65-2.69-1.22-2.94.46Z"/>
      <path class="cls-1" d="M234.44,101.93c-.7,2.87-2.5,5.47-4.98,7.21-1.23.88-2.6,1.58-4.05,2.07-1.45.46-2.97.73-4.49.78-3.01.07-6.15-.75-8.98-2.09-1.43-.66-2.8-1.47-4.11-2.38-1.31-.9-2.57-1.9-3.76-2.99-2.07-1.85-3.96-4.06-5.74-6.4-1.75-2.34-3.38-4.87-5.07-7.39-1.69-2.51-3.45-5.01-5.46-7.25-1.99-2.24-4.26-4.21-6.75-5.56-.16-.09-.27.14-.15.26,4.4,4.52,7.67,10.11,11.2,15.49,3.49,5.42,7.49,10.66,12.65,14.83,2.77,2.23,5.89,4.13,9.36,5.31,1.74.58,3.52,1,5.41,1.16,1.88.12,3.77-.02,5.62-.44,3.84-.85,7.42-3.03,9.96-6.21,1.55-1.92,2.81-4.33,2.27-6.68-.21-.92-.89-1.19-1.53-1.07-.66.12-1.24.59-1.41,1.36Z"/>
      <path class="cls-1" d="M214.97,114.84c3.84,7.89,6.59,16.26,7.72,24.87,1.17,8.61.28,17.39-2.1,25.71-.28.89-.56,1.79-.84,2.7-.29.9-.55,1.83-.97,2.7-.76,1.77-1.53,3.56-2.31,5.36-1.87,3.46-3.62,7.04-5.8,10.36-1.94,3.47-4.26,6.67-6.22,10.03l-.73,1.26-.79,1.21c-.52.81-1.02,1.62-1.51,2.44-.98,1.64-1.88,3.3-2.71,4.99-.1.21.15.28.29.1l4.07-4.99,2.04-2.48,1.88-2.6c1.25-1.74,2.53-3.45,3.76-5.21l3.41-5.45c4.34-7.37,7.94-15.27,9.97-23.71,2.18-9.07,2.54-18.67.84-27.93-.9-4.8-2.28-9.49-3.95-14.07-.53-1.4-1.05-2.78-1.65-4.1-.6-1.31-1.38-2.49-2.36-3.5-1.55-1.59-3.06.18-2.04,2.31Z"/>
      <path class="cls-1" d="M224.01,149.24c-.11,3.4-.13,6.81.02,10.25.16,3.43.53,6.92,1.48,10.35.5,1.71,1.13,3.37,1.87,4.97.75,1.58,1.56,3.1,2.36,4.58l2.38,4.46c.8,1.52,1.67,3.01,2.59,4.47,3.12,5.03,6.95,10.31,11.94,14.34,2.48,2.01,5.28,3.64,8.2,4.65,2.92,1.02,5.95,1.4,8.75,1.04.18-.02.14-.27-.03-.3-6.21-1.04-11.96-4.29-16.65-8.57-4.72-4.3-8.54-9.55-11.58-15.19-.82-1.52-1.58-3.07-2.37-4.66-.8-1.57-1.6-3.12-2.34-4.67-.73-1.55-1.36-3.11-1.85-4.7-.5-1.59-.8-3.23-1.05-4.89-.45-3.46-.51-7.01-.41-10.58.05-1.1.14-2.19.11-3.25,0-1.06-.14-2.11-.56-3.12-.67-1.61-2.81-1.04-2.86.81Z"/>
      <path class="cls-1" d="M223.15,158.73c.22,4.19,0,8.49-.4,12.73-.43,4.24-1.04,8.5-2.15,12.51-.29.99-.61,1.97-1,2.86-.41.93-.92,1.91-1.38,2.86-.45.96-.96,1.9-1.48,2.83-.52.93-.99,1.89-1.56,2.79-2.12,3.7-4.53,7.22-7.07,10.65-2.19,2.95-4.73,5.79-7.38,8.58-2.71,2.73-5.5,5.45-8.42,7.99-5.77,5.18-11.75,9.86-17.04,14.91-.17.16.05.31.24.19,14.53-8.43,27.18-19.71,37.05-33.35,2.63-3.69,5.11-7.49,7.29-11.49.57-.98,1.06-2.01,1.59-3.02l.78-1.53c.23-.55.5-1.11.7-1.67.82-2.23,1.37-4.46,1.83-6.71.95-4.66,1.49-9.35,1.82-14.08.19-2.9.47-5.81-.67-8.42-.46-1.03-1.19-1.22-1.78-.89-.6.34-1.01,1.12-.97,2.26Z"/>
      <path class="cls-1" d="M138.27,20.43c-3.15-3.65-7.53-5.87-12.06-6.84-2.27-.47-4.62-.63-6.93-.45-2.3.17-4.56.61-6.74,1.26-4.38,1.29-8.4,3.38-12.17,5.72-1.9,1.16-3.71,2.43-5.5,3.73-1.82,1.25-3.53,2.65-5.27,4.02-6.89,5.54-13.06,11.95-18.55,18.88-5.47,6.95-10.09,14.56-13.89,22.55-.83,1.72-1.55,3.5-2.34,5.27-.72,1.8-1.42,3.62-2.13,5.45-.61,1.87-1.3,3.72-1.86,5.63-.53,1.91-1.15,3.84-1.61,5.75-1.97,7.66-3.83,15.4-5.91,22.99-2.06,7.6-4.36,15.04-7.13,22.08-2.75,7.05-6.15,13.62-10.88,19.17-.29.36.04.37.37.04l2.29-2.28c.72-.79,1.37-1.65,2.06-2.47.71-.81,1.29-1.7,1.89-2.58.58-.89,1.24-1.73,1.74-2.67l1.6-2.75c.51-.93.96-1.88,1.44-2.82l.71-1.41.64-1.44,1.27-2.89c3.17-7.8,5.62-15.83,7.75-23.92,1.08-4.04,2.08-8.11,3.09-12.16,1-4.06,2-8.12,3.18-12.1,2.4-7.96,5.78-15.62,9.87-22.87.53-.99,1.11-1.95,1.71-2.9l1.77-2.86,1.89-2.78c.62-.93,1.26-1.85,1.95-2.74l2.02-2.69c.69-.88,1.42-1.73,2.12-2.6,1.39-1.76,2.94-3.38,4.42-5.05,6.12-6.53,12.98-12.33,20.4-17.27,3.85-2.53,7.86-4.79,12.09-6.28,4.22-1.47,8.7-2.18,12.94-1.41,2.62.45,5.09,1.44,7.26,2.69,2.15,1.29,4.05,2.81,5.66,4.61.67.69,1.12,1.17,1.55,1.33.42.17.73.07.9-.3.33-.69.14-2.66-1.58-4.66Z"/>
      <path class="cls-1" d="M71.31,128.19c-1.39,3.84-3.65,7.34-6.32,10.5-2.67,3.17-5.82,5.96-9.17,8.49-3.35,2.54-6.91,4.83-10.56,7.01-3.63,2.16-7.47,4.24-11.06,6.83-3.08,2.22-6.22,4.89-8.51,8.48-1.14,1.78-2,3.79-2.53,5.89-.48,2.11-.61,4.29-.41,6.41.43,4.24,2.08,8.12,4.25,11.34,2.17,3.24,4.89,5.88,7.82,7.89.18.13.29-.11.14-.28-2.69-3.01-5.12-6.3-6.9-9.91-1.81-3.58-2.94-7.55-2.82-11.52.13-3.97,1.73-7.79,4.33-10.82,2.58-3.05,5.92-5.42,9.4-7.55,3.76-2.27,7.74-4.31,11.56-6.67,3.84-2.32,7.58-4.86,11.07-7.79,1.83-1.49,3.52-3.16,5.17-4.88,1.58-1.78,3.14-3.62,4.44-5.66,1.63-2.45,3.2-5.08,3.14-7.92-.01-2.2-2.36-1.89-3.05.14Z"/>
      <path class="cls-1" d="M34.54,204.09c4.37,5.23,7.31,11.6,9.35,18.21,2.03,6.62,3.26,13.56,4.14,20.47,1.5,11.98-.47,25.68,2.72,37.31.05.18.29.1.29-.08.16-13.58.9-27.15-.85-40.8-.95-7.3-2.22-14.64-4.64-21.74-1.26-3.68-2.86-7.27-4.85-10.68-1.26-2.06-2.45-4.22-4.61-5.25-1.65-.82-2.72,1.19-1.55,2.55Z"/>
      <path class="cls-1" d="M226.3,172.47c.06,6.5-.89,13.02-2.55,19.34-1.66,6.33-4.04,12.44-6.98,18.31-5,10.22-13.33,20.28-16.18,31.35-.04.17.2.23.29.08,6.66-10.92,13.85-21.46,19.57-33.06,3.07-6.26,5.55-12.84,7.22-19.67.86-3.54,1.47-7.15,1.86-10.8.21-2.24.57-4.47-.41-6.49-.75-1.58-2.85-.81-2.82.93Z"/>
      <path class="cls-1" d="M228.62,178.65c-.69,12.02-2.9,23.93-5.91,35.59-1.3,5.03-3.22,10.25-4.88,15.45-1.66,5.22-3.07,10.43-3.31,15.7,0,.17.24.19.29.04,4.22-10.94,8.04-21.92,11.12-33.27,1.65-6.11,3.12-12.28,4.25-18.53.58-3.24,1.07-6.5,1.46-9.77.27-2.01.65-3.98-.14-5.86-.63-1.48-2.78-.98-2.88.64Z"/>
      <path class="cls-1" d="M231.04,184.26c1.02,14.44-.12,29-2.72,43.23-1.12,6.14-2.98,12.56-4.71,18.9-1.73,6.35-3.33,12.62-3.84,18.83-.01.2.24.19.3.01,4.9-13.23,8.83-26.69,11.41-40.6,1.39-7.49,2.41-15.06,2.91-22.68.12-1.98.25-3.96.27-5.94l.07-2.97v-2.98c.02-2.44.11-4.85-.94-6.98-.83-1.67-2.9-.76-2.77,1.18Z"/>
      <path class="cls-1" d="M234.44,189.27c1.48,5.91,1.86,12.1,1.67,18.27-.18,6.18-.9,12.37-1.64,18.59-.63,5.36-1.72,11.07-2.08,16.83-.37,5.73.03,11.57,2.2,16.5.06.16.29.06.28-.1-.59-5.93-.36-11.93.21-17.89.57-5.97,1.49-11.91,2.32-17.91.9-6.46,1.75-12.96,1.89-19.58-.01-1.72.07-3.44-.08-5.16l-.15-2.59c-.04-.86-.19-1.72-.28-2.58-.15-1.06-.16-2.13-.46-3.12-.27-1-.66-1.95-1.33-2.76-1.05-1.28-2.93-.07-2.56,1.51Z"/>
      <path class="cls-1" d="M237.76,194.59c1.73,5.35,2.71,10.92,3.47,16.57.75,5.68,1.5,11.36,2.25,17.05,1.35,9.79,1.57,21.14,6.6,29.81.08.14.3.03.27-.12-2.04-10.83-3.43-21.69-4.64-32.67-.67-5.92-1.16-11.82-1.85-17.78-.38-3.09-.88-6.18-1.54-9.26-.4-1.89-.68-3.81-2.09-5.18-1.11-1.08-2.94.16-2.47,1.59Z"/>
      <path class="cls-1" d="M47.48,144.34c6.51-3,11.96-7.77,16.28-13.3,4.3-5.54,7.53-11.98,9.32-18.76,1.83-6.75,2.64-13.58,4.02-20.16,1.41-6.56,3.37-13.04,5.86-19.29,4.26-10.8,10.76-21.52,18.34-31.06,3.77-4.73,7.94-9.03,12.95-11.84,4.98-2.77,10.84-4.15,16.58-2.85.36.07.28-.21-.08-.34-3.27-1.23-6.82-1.43-10.17-.9-3.36.53-6.57,1.75-9.45,3.48-5.78,3.47-10.21,8.58-14.15,13.8-7.94,10.48-14.26,22.2-18.65,34.7-2.4,6.7-4.11,13.71-5.35,20.69-1.31,6.94-2.57,13.88-5.43,20.09-2.97,6.46-7.28,12.32-12.65,16.87-1.67,1.38-3.43,2.58-5.16,3.71-1.75,1.1-3.45,2.13-5.1,3.27-1.31.85-1.56,1.68-.98,2.14.56.45,2.03.56,3.8-.24Z"/>
      <path class="cls-1" d="M40.39,148.28c3.17-2.25,6.01-4.98,8.42-8.02,2.41-3.04,4.4-6.36,6.09-9.8,3.38-6.88,5.62-14.13,7.78-21.32,2.14-7.2,4.15-14.39,6.49-21.46,2.32-7.07,4.96-14.02,8.1-20.73,1.36-2.89,2.82-5.79,4.45-8.64.4-.71.81-1.43,1.22-2.15.43-.71.87-1.42,1.3-2.13.86-1.43,1.73-2.87,2.6-4.32,3.48-5.66,7.5-11.07,12.3-15.56,4.78-4.48,10.34-8.06,16.36-10.11,1.5-.52,3.03-.92,4.58-1.24,1.55-.33,3.09-.53,4.65-.53,1.56-.02,3.12.16,4.64.61,1.51.47,2.97,1.26,4.15,2.46.31.3.36-.01.09-.36-1.27-1.6-3.06-2.66-4.88-3.28-1.84-.61-3.73-.85-5.6-.84-3.74.06-7.36.84-10.8,2.09-6.89,2.51-12.94,6.93-17.87,12.23-4.99,5.28-8.88,11.48-12.47,17.69-3.74,6.16-7.04,12.64-9.86,19.31-3.08,7.18-5.64,14.57-7.98,21.99-2.36,7.42-4.47,14.9-6.98,22.18-2.6,7.52-5.66,14.93-10.43,21.02l-1.11,1.38c-.4.43-.79.86-1.19,1.29-.76.89-1.65,1.62-2.42,2.45-1.67,1.53-3.3,3.04-4.89,4.56-1.25,1.2-1.34,2.1-.65,2.4.35.15.89.15,1.58-.03.68-.18,1.53-.52,2.36-1.16Z"/>
      <path class="cls-1" d="M32.67,152.57c4.32-3.55,7.84-8,10.64-12.78,2.76-4.81,4.78-9.95,6.5-15.12,3.37-10.37,5.66-20.91,8.74-31.16,1.31-4.42,2.88-8.92,4.65-13.4,1.79-4.47,3.81-8.89,5.95-13.22,4.25-8.68,9.15-16.8,13.34-24.74.13-.25-.14-.29-.31-.07-3.25,4.08-6.28,8.32-9.09,12.69-2.77,4.4-5.28,8.94-7.55,13.61-4.56,9.33-7.95,19.19-10.87,29.17-3.18,10.73-5.74,21.67-9.89,31.85-1.13,2.61-2.27,5.21-3.69,7.63-.33.62-.69,1.23-1.07,1.81l-1.13,1.77c-.84,1.11-1.6,2.29-2.53,3.32-1.07,1.34-2.31,2.48-3.42,3.69-.59.57-1.15,1.15-1.68,1.77-.51.63-1.07,1.19-1.53,1.87-1.5,2.1.52,3.2,2.94,1.31Z"/>
      <path class="cls-1" d="M72.22,129.61c-1.8,6.35-3.36,12.76-4.66,19.23-1.3,6.47-2.32,13.07-2.4,19.79-.08,6.69.86,13.57,3.52,19.88,2.64,6.31,6.67,11.8,10.83,16.91,3.59,4.42,7.42,8.83,10.79,13.56,3.39,4.7,6.2,9.84,8.52,15.2,4.66,10.72,7.49,22.04,10.77,32.34.11.33.31.12.26-.22-1.92-12.48-4.72-24.95-10.15-36.43-2.66-5.75-6.18-11.11-10.1-16.06-3.91-4.97-8.09-9.7-11.75-14.77-3.95-5.44-7.2-11.39-8.56-17.88-1.43-6.47-1.34-13.2-.55-19.83.85-6.88,2.37-13.73,4.08-20.52,1.07-4.18,2.41-8.16,2.63-12.14.19-3.14-2.24-2.51-3.23.93Z"/>
      <path class="cls-1" d="M73.08,129.45c-1.49,6.72-2.79,13.52-3.54,20.42-.75,6.89-.9,13.91-.08,20.87.84,6.94,2.64,13.84,5.73,20.22,1.55,3.18,3.45,6.21,5.6,9,2.15,2.8,4.52,5.38,6.94,7.85,4.17,4.26,8.6,8.46,12.47,13.11,3.9,4.61,6.97,9.85,9.33,15.44,4.73,11.19,6.97,23.31,10.36,34.05.11.34.31.12.26-.23-1.02-6.51-2.02-13.04-3.5-19.48-1.45-6.44-3.43-12.8-6.28-18.8-1.45-2.99-3.13-5.86-5.05-8.59-1.93-2.71-4.1-5.23-6.36-7.65-4.51-4.84-9.38-9.3-13.61-14.28-2.28-2.67-4.36-5.49-6.05-8.53-1.7-3.03-3.08-6.24-4.15-9.56-2.11-6.64-3.06-13.62-3.09-20.59-.05-7.24.82-14.48,2.18-21.64.83-4.41,2.02-8.66,2.02-12.82.02-3.29-2.37-2.43-3.18,1.21Z"/>
      <path class="cls-1" d="M68.05,134.44c-2.21,6.1-6.92,11.48-9.65,18.13-2.81,6.53-4.25,13.62-4.26,20.73-.04,7.1,1.48,14.25,4.32,20.74,2.82,6.51,6.67,12.41,10.59,18.11,3.38,4.91,6.92,9.92,9.99,15.21.79,1.31,1.48,2.68,2.23,4.02.68,1.38,1.4,2.73,2.02,4.14,1.32,2.78,2.46,5.65,3.53,8.53,4.27,11.56,6.46,23.54,7.92,34.82.05.36.29.18.29-.18.25-13.39-2.2-26.71-7.12-39.07-1.25-3.08-2.61-6.12-4.16-9.07-1.55-2.95-3.24-5.82-5.04-8.62-3.59-5.59-7.5-10.95-11.03-16.53-3.8-5.99-7.12-12.3-8.91-19.05-1.79-6.73-2.06-13.84-.9-20.67.6-3.54,1.58-7.01,2.92-10.33,1.33-3.34,3.07-6.4,5.08-9.51,1.21-1.92,2.5-3.83,3.53-5.88,1.03-2.03,1.8-4.24,1.92-6.46.08-1.76-.58-2.32-1.26-2.03-.7.29-1.41,1.33-2.01,2.96Z"/>
      <path class="cls-1" d="M71.95,229.92c-1.34-4.17-3.4-7.96-5.6-11.57-2.22-3.61-4.63-7.04-6.94-10.48-4.65-6.79-8.38-14.13-10.38-21.99-.88-3.37-1.31-6.96-1.36-10.57.02-3.53.64-7.09,1.77-10.5,1.08-3.43,2.65-6.69,4.34-9.84,1.72-3.14,3.63-6.13,5.61-9.1.12-.19-.11-.29-.27-.14-6.02,5.55-10.6,12.61-12.79,20.46-1.12,3.9-1.43,8.09-1.06,12.12.3,4.05,1.13,8.06,2.33,11.96,1.3,4.2,3.02,8.26,5.08,12.13,2.04,3.9,4.49,7.54,6.82,11.16,2.43,3.75,4.81,7.48,6.69,11.39,1.15,2.43,1.86,4.83,3.37,6.85.6.81,1.37.93,1.9.54.53-.38.86-1.31.5-2.44Z"/>
      <path class="cls-1" d="M63.76,217.05c-5.21-3.29-9.59-8-13.35-13.04-1.87-2.55-3.6-5.19-5.13-7.95-1.57-2.78-3.04-5.59-4.28-8.46-2.14-4.95-3.34-10.62-2.94-16.02.18-2.72.7-5.37,1.51-7.94.42-1.28.91-2.53,1.49-3.78.6-1.23,1.28-2.45,2.07-3.67.1-.16-.11-.29-.25-.17-2.53,2.12-4.39,4.89-5.6,7.85-1.19,2.97-1.81,6.13-1.88,9.29-.16,6.38,1.85,12.53,4.45,18.23,1.43,3.08,2.95,6.06,4.66,9.01,1.7,2.94,3.62,5.77,5.71,8.47,2.18,2.8,4.6,5.43,7.28,7.84,1.63,1.48,3.33,3,5.54,3.23,1.72.17,2.12-2.06.73-2.86Z"/>
      <path class="cls-1" d="M51.9,208.96c-4.2-3.49-8.01-7.45-11.39-11.75-3.37-4.3-6.38-8.88-8.17-13.85-.77-2.14-1.22-4.44-1.31-6.76-.1-2.28.27-4.47,1.11-6.53,1.67-4.14,4.98-7.82,7.41-12.09.08-.14-.12-.28-.24-.18-2.06,1.76-4.1,3.57-5.9,5.65-1.79,2.06-3.36,4.41-4.2,7.08-.89,2.65-.94,5.53-.56,8.23.36,2.73,1.14,5.39,2.19,7.93,2.28,5.48,5.62,10.39,9.25,14.99,1.9,2.38,3.96,4.64,6.1,6.82,1.32,1.33,2.55,2.76,4.44,3.12,1.49.28,2.38-1.73,1.25-2.66Z"/>
      <path class="cls-1" d="M43.13,208.55c4.83,5.2,8.59,11.37,11.41,17.94,2.83,6.57,4.76,13.52,6.1,20.59,2.39,12.23,1.52,26.51,5.71,38.19.07.18.3.08.28-.11-1-13.97-1.35-27.97-4.09-41.89-1.48-7.48-3.65-14.88-6.92-21.88-1.7-3.63-3.72-7.12-6.04-10.42-1.45-2-2.82-4.1-5.05-5.06-1.72-.77-2.7,1.28-1.4,2.66Z"/>
      <path class="cls-1" d="M48.06,209.68c5.11,4.99,9.43,10.8,13.03,17.01,3.6,6.22,6.51,12.84,8.77,19.66,1.96,5.89,3.19,12.42,4.15,18.84.97,6.45,1.71,12.76,2.95,18.89.05.19.29.12.29-.07.48-7.11.07-14.18-.97-21.15-1.05-6.97-2.73-13.84-5.03-20.55-2.49-7.22-5.65-14.25-9.66-20.83-1.07-1.68-2.09-3.41-3.3-5l-1.76-2.44c-.59-.81-1.26-1.56-1.89-2.34-.8-.94-1.48-1.97-2.38-2.77-.87-.82-1.81-1.53-2.92-1.98-1.74-.71-2.64,1.39-1.28,2.74Z"/>
      <path class="cls-1" d="M226.8,114.89c.81,4.52,1.32,9.17,1.81,13.82l1.38,14c.48,4.68,1.01,9.36,1.72,14.04l.58,3.51c.24,1.18.43,2.33.71,3.52.56,2.42,1.37,4.72,2.31,6.94,3.25,7.64,7.73,15.28,13.22,22.01,2.77,3.34,5.79,6.46,9.16,9.01,1.68,1.27,3.44,2.41,5.29,3.29,1.83.87,3.8,1.51,5.62,1.54.23.01.17-.25-.04-.31-1.97-.51-3.89-1.64-5.67-2.9-1.79-1.27-3.48-2.72-5.09-4.24-3.22-3.06-6.14-6.46-8.84-10.01-2.69-3.56-5.16-7.3-7.34-11.19-2.16-3.9-4.11-7.95-5.39-12.18-.69-2.25-1.05-4.62-1.43-7.01-.37-2.38-.67-4.78-.93-7.19-.53-4.81-.91-9.64-1.29-14.49-.4-5.02-.79-10.05-1.29-15.1-.31-3.1-.48-6.22-1.95-8.85-1.17-2.05-3.01-.59-2.54,1.79Z"/>
      <path class="cls-1" d="M231.44,110.66c1.3,4.68,2.3,9.35,2.89,14.13.59,4.78.9,9.63,1.12,14.49.11,2.43.2,4.87.28,7.3l.11,3.66.05,1.83.1,1.9c.35,5.05,1.49,10.01,3.19,14.73,2.92,8.13,7.44,16.36,13.49,23.19,3.01,3.42,6.41,6.47,10.12,8.85,1.86,1.18,3.81,2.19,5.81,2.92,1.99.72,4.08,1.17,5.99,1.06.24,0,.16-.26-.07-.31-2.12-.37-4.24-1.29-6.21-2.42-1.99-1.13-3.87-2.46-5.67-3.91-3.58-2.92-6.83-6.27-9.72-9.9-5.77-7.26-10.27-15.62-12.63-24.58-.63-2.41-1.06-4.87-1.34-7.33-.29-2.46-.26-4.93-.3-7.49-.06-5.08-.15-10.15-.38-15.25-.25-5.28-.7-10.6-1.64-15.89-.58-3.25-1.15-6.44-2.8-9.01-1.31-2.03-3.08-.5-2.39,2.03Z"/>
      <path class="cls-1" d="M221.69,116.14c1.51,4.32,2.42,8.84,2.97,13.44.55,4.6.75,9.28,1,13.99.24,4.71.54,9.48,1.27,14.23.71,4.75,1.95,9.48,3.7,13.99,3.04,7.73,7.29,15.62,12.88,22.38,2.79,3.37,5.93,6.44,9.37,8.92,3.43,2.47,7.17,4.37,10.94,5.23.23.06.23-.21.02-.32-3.96-1.93-7.6-4.57-10.91-7.55-3.31-2.99-6.3-6.35-9-9.92-2.7-3.58-5.1-7.38-7.18-11.34-2.07-3.97-3.84-8.11-5.09-12.4-1.37-4.61-2.11-9.39-2.51-14.2-.4-4.82-.47-9.68-.65-14.58-.19-5.08-.54-10.23-1.5-15.35-.31-1.57-.56-3.15-1.06-4.62-.24-.74-.47-1.47-.82-2.14-.35-.68-.74-1.32-1.2-1.91-1.44-1.87-3.07-.14-2.24,2.16Z"/>
      <path class="cls-1" d="M217.17,59.75c-1.39,3.94-4.69,7.24-8.43,9.47-3.75,2.26-8.12,3.31-12.55,3.5-3.82.16-8-.58-11.81-1.54-1.92-.49-3.77-1.07-5.58-1.76-1.82-.68-3.61-1.51-5.52-2.64-.12-.07-.28.11-.2.21,1.47,1.94,3.36,3.45,5.4,4.55,2.04,1.12,4.23,1.87,6.44,2.43,4.44,1.05,8.98,1.5,13.6,1.18,2.48-.19,4.96-.64,7.37-1.43,2.41-.8,4.72-1.95,6.82-3.41,2.18-1.52,4.17-3.38,5.77-5.63.98-1.35,1.99-2.88,1.56-4.63-.17-.68-.82-1-1.46-1.03-.64-.03-1.25.19-1.42.72Z"/>
      <path class="cls-1" d="M217.74,58.82c-.76,1.22-2,2.22-3.42,3.04-1.41.82-3.03,1.47-4.64,2.06-3.23,1.17-6.6,1.91-10,2.31-2.94.36-6.11.08-9.19-.08-3.11-.16-6.16-.15-9.52.79-.11.03-.13.27-.04.29,6.84,1.56,13.74,2.15,20.72,1.38,3.74-.43,7.49-1.2,11.09-2.52,1.86-.66,3.75-1.52,5.53-2.82.54-.4,1.1-.83,1.52-1.37.42-.54.68-1.22.6-1.98-.08-.61-.67-1.02-1.27-1.21-.61-.19-1.17-.2-1.38.11Z"/>
      <path class="cls-1" d="M232.68,98.8c-1.23,1.95-2.75,3.34-4.8,4.15-1.01.42-2.13.72-3.26.95-1.09.2-2.13.28-3.25.18-2.2-.18-4.42-.86-6.54-1.82-2.13-.95-4.16-2.17-6.11-3.52-3.38-2.33-6.48-5.52-9.52-8.61-3.06-3.13-6.07-6.03-9.63-8.73-.11-.09-.29.08-.22.19,2.53,4.2,5.62,7.82,8.9,11.27,3.3,3.43,6.89,6.6,10.91,9.3,2.18,1.43,4.47,2.74,6.99,3.68,2.5.94,5.25,1.57,8.14,1.27,1.48-.16,2.79-.47,4.2-.92,1.39-.45,2.79-1.14,4.04-2.08,1.52-1.16,2.85-2.55,2.88-4.34,0-1.42-2.09-2.01-2.73-.99Z"/>
      <path class="cls-1" d="M234.92,97.74c-3.53.98-7.36.79-10.81-.48-1.75-.63-3.47-1.49-5.24-2.38l-5.3-2.68c-3.04-1.54-6.09-3.52-9.21-5.2-3.14-1.69-6.31-3.08-10.04-3.56-.12-.01-.22.2-.13.26,6.44,4.32,13.11,7.97,19.84,11.67l5.43,3.01c1.84.99,3.8,1.94,5.95,2.55,2.22.63,4.55.86,6.88.76,1.41-.07,2.92-.09,3.88-1.35.74-.99-.35-2.85-1.25-2.59Z"/>
      <path class="cls-1" d="M144.45,33.31c3.56,4.43,7.3,8.78,11.6,12.64,4.3,3.84,9.18,7.19,14.73,9.27,4.73,1.79,10.23,2.99,15.68,2.32,2.7-.33,5.35-1.15,7.61-2.49,2.26-1.33,4.12-3.18,5.22-5.31.07-.13-.13-.26-.24-.18-3.83,3.5-9.09,5.32-14.34,5.54-5.28.24-10.61-.96-15.35-3.29-5.13-2.54-9.58-6.24-13.51-10.37-2.05-2.14-3.99-4.39-5.83-6.73-1.12-1.45-2.05-3-3.8-3.74-1.39-.59-2.72,1.14-1.76,2.35Z"/>
      <path class="cls-1" d="M147.89,30.75c8.05,3.03,15.71,7.43,24.28,10.09,3.67,1.14,7.71,2.37,11.88,2.51,4.13.17,8.41-.9,11.22-3.69.09-.08-.03-.29-.14-.26-3.82,1.36-8,1.7-12.08,1.3-4.1-.4-8.12-1.49-12-2.97-4.18-1.6-8.18-3.65-12.21-5.69-2.09-1.06-4.21-2.09-6.35-3.12-1.32-.62-2.55-1.41-4.12-1.02-1.23.31-1.56,2.45-.48,2.85Z"/>
      <path class="cls-1" d="M70.06,135.3c-3.33,5.68-6.6,11.53-8.78,17.94-2.22,6.4-2.96,13.33-2.38,20.04.56,6.74,2.3,13.3,4.73,19.53,2.43,6.25,5.61,12.14,9.04,17.8,5.89,9.77,12.81,19.74,18.7,29.94,5.94,10.21,10.72,20.65,13.46,31.23.09.33.31.14.27-.21-.65-6.4-2.42-12.59-4.77-18.48-2.36-5.89-5.31-11.51-8.53-16.94-6.45-10.86-13.93-21.04-19.91-32.1-3.22-5.94-5.95-12.14-7.75-18.6-1.8-6.44-2.7-13.13-2.18-19.7.28-3.4.91-6.75,1.95-9.99,1.04-3.25,2.42-6.4,4-9.47,1.95-3.78,4.31-7.27,5.52-11.09.96-3.01-1.54-2.97-3.36.1Z"/>
      <path class="cls-1" d="M56.49,148.9c-3.5,5.18-5.68,11.13-6.67,17.22-1,6.1-.76,12.36.4,18.38,1.15,6.03,3.19,11.85,5.8,17.36,1.31,2.76,2.79,5.45,4.47,8.02,1.69,2.58,3.57,4.97,5.39,7.33,6.38,7.95,11.16,17.74,14.68,27.82,3.56,10.09,5.99,20.39,8.66,29.91.09.3.31.12.27-.19-1.26-11.48-3.55-22.85-7.61-33.66-2.02-5.4-4.46-10.65-7.37-15.65-.75-1.24-1.51-2.47-2.29-3.69-.82-1.19-1.61-2.41-2.46-3.58-1.7-2.34-3.49-4.6-5.14-6.92-3.59-4.95-6.31-10.48-8.42-16.21-2.09-5.72-3.46-11.7-3.76-17.71-.35-6.22.5-12.49,2.7-18.23,1.35-3.57,3.31-6.6,4.61-9.88.54-1.28.25-2.06-.45-2.17-.69-.11-1.86.46-2.81,1.86Z"/>
      <path class="cls-1" d="M62.72,216.27c-1.59-2.79-3.63-5.12-5.49-7.42-1.9-2.3-3.53-4.57-4.83-7.17-1.33-2.56-2.46-5.32-3.56-8.05-1.09-2.74-2.07-5.51-2.89-8.31-1.4-4.84-1.99-10.18-1.77-15.31.12-2.57.35-5.12.83-7.56.49-2.45,1.2-4.85,2.59-7.23.09-.15-.12-.28-.25-.16-2.35,2.12-3.74,4.94-4.57,7.76-.41,1.42-.72,2.87-.89,4.32-.21,1.45-.31,2.91-.34,4.37-.13,5.85,1.03,11.63,2.71,17.2.91,3,1.97,5.96,3.1,8.88,1.14,2.91,2.36,5.85,4.03,8.64,1.74,2.91,3.92,5.4,5.74,7.92,1.14,1.57,1.91,3.14,3.48,4.18.62.42,1.36.32,1.84-.1.48-.41.71-1.2.27-1.95Z"/>
      <path class="cls-1" d="M53.55,208.55c-3.57-3.32-6.97-6.8-9.9-10.6-2.93-3.79-5.41-7.92-7.02-12.31-1.4-3.8-1.82-8.15-1.7-12.3.12-4.2.68-8.15,1.42-12.61.02-.14-.21-.22-.27-.1-2.59,4.26-3.71,9.14-3.76,13.94-.05,4.82.9,9.62,2.72,14.13,1.96,4.84,4.75,9.32,7.96,13.42,1.66,2.13,3.46,4.13,5.28,6.1,1.12,1.2,2.11,2.51,3.81,2.85,1.35.27,2.43-1.62,1.47-2.51Z"/>
      <path class="cls-1" d="M51.58,201c-4.2-7.93-6.39-16.94-6-25.79.16-3.83,1.21-7.79,2.41-11.58,1.2-3.82,2.49-7.46,3.35-11.62.03-.13-.19-.23-.26-.12-5.2,7.51-7.87,16.33-8.15,25.38-.14,4.87.4,9.78,1.58,14.54.61,2.47,1.42,4.89,2.35,7.26.58,1.45,1.01,2.97,2.5,3.78,1.16.64,2.8-.79,2.23-1.85Z"/>
      <path class="cls-1" d="M52.39,204.81c-5.77-6.84-9.66-15.25-10.98-24-.59-3.78-.33-7.87.09-11.82.42-3.98.94-7.82.89-12.06,0-.14-.24-.18-.28-.07-3.48,8.41-4.39,17.55-2.92,26.47.81,4.8,2.29,9.51,4.4,13.94,1.09,2.3,2.38,4.5,3.78,6.64.87,1.3,1.61,2.7,3.24,3.17,1.26.38,2.56-1.37,1.78-2.28Z"/>
      <path class="cls-1" d="M46.05,204.69c-3.49-1.63-6.38-4.51-8.84-7.73-1.24-1.61-2.4-3.31-3.54-5.05-1.15-1.76-2.32-3.46-3.19-5.17-1.54-2.92-1.7-6.54-1.67-10.11.02-1.78.09-3.51.23-5.25.14-1.74.34-3.52.81-5.51.03-.13-.18-.24-.26-.14-1.34,1.75-2.17,3.77-2.67,5.8-.5,2.04-.68,4.1-.7,6.15-.02,2.05.14,4.12.6,6.16.44,2.04,1.29,4.03,2.31,5.82,1.11,1.94,2.24,3.77,3.39,5.65,1.16,1.87,2.38,3.72,3.79,5.49,1.45,1.84,3.11,3.57,5.04,5.06,1.16.91,2.39,1.92,4.01,1.61,1.25-.24,1.6-2.4.69-2.8Z"/>
      <path class="cls-1" d="M59.42,146.47c-3.04,5.11-5.53,10.61-7.04,16.44-1.51,5.81-2,12.01-.84,18.03,1.16,6.03,3.81,11.46,6.29,16.72,1.25,2.64,2.52,5.29,3.9,7.91,1.38,2.62,2.9,5.19,4.49,7.68,5.5,8.58,11.98,17.13,16.74,26.36,4.87,9.23,8.54,18.82,11.99,27.87.11.29.31.09.25-.21-2.18-11.12-6.02-21.83-11.47-31.68-5.42-9.9-12.66-18.58-18.09-28.31-1.46-2.61-2.77-5.32-4.05-8.05-1.26-2.74-2.55-5.49-3.72-8.24-1.17-2.75-2.2-5.53-2.9-8.37-.71-2.83-1.01-5.72-.97-8.62.09-6.02,1.67-11.98,4.14-17.54,1.51-3.44,3.49-6.51,4.51-9.88.84-2.67-1.57-2.89-3.25-.11Z"/>
      <path class="cls-1" d="M68.5,139c-2.24,5.9-3.97,11.98-5.16,18.18-1.16,6.18-1.95,12.52-1.5,18.95.22,3.21.83,6.39,1.68,9.48.84,3.1,1.99,6.1,3.34,8.98,2.67,5.79,6.11,11.13,9.74,16.24,3.13,4.41,6.49,8.85,9.78,13.37,3.29,4.53,6.55,9.14,9.58,13.83,3.03,4.69,5.89,9.41,8.39,14.19,2.5,4.78,4.7,9.58,6.59,14.41.13.3.32.1.24-.22-1.3-5.93-3.34-11.65-5.95-17.06-2.57-5.43-5.67-10.58-8.97-15.57-3.31-4.99-6.85-9.8-10.42-14.59-3.57-4.78-7.13-9.57-10.34-14.58-3.42-5.4-6.49-11.05-8.4-17.07-.96-3-1.69-6.07-2.02-9.17-.37-3.1-.35-6.24-.13-9.38.52-6.51,1.81-13.03,3.65-19.32,1.15-3.89,2.67-7.51,3.17-11.23.44-2.94-2.01-2.65-3.26.55Z"/>
      <path class="cls-1" d="M220.02,132.68c.61,7.54.17,15.16-1.2,22.62-1.36,7.46-3.61,14.74-6.46,21.8-2.44,6.09-5.85,12.25-9.16,18.33-3.31,6.1-6.5,12.18-8.45,18.41-.06.2.19.24.3.07,7.9-12.55,15.56-25.24,21.04-39.17,2.94-7.49,5.25-15.28,6.51-23.31.16-1.04.35-2.08.47-3.12l.29-3.15c.08-1.05.23-2.1.24-3.15l.09-3.17c.02-.65.05-1.3.07-1.94.02-.64-.04-1.28-.09-1.9-.12-1.25-.36-2.46-.89-3.58-.84-1.77-2.9-.76-2.76,1.27Z"/>
      <path class="cls-1" d="M217.62,139.99c-.94,9.9-2.3,19.7-5.59,28.97-3.18,9.28-7.88,18.01-13.54,26.08-.3.44-.59.88-.89,1.32-.33.42-.66.85-.99,1.28-.66.85-1.33,1.71-2,2.58-.67.86-1.35,1.73-2.03,2.6-.71.85-1.46,1.67-2.19,2.51-1.48,1.67-2.93,3.39-4.44,5.05-1.56,1.63-3.1,3.27-4.62,4.93-.77.82-1.49,1.68-2.28,2.48-.78.81-1.55,1.61-2.32,2.41-1.53,1.62-3.02,3.26-4.45,4.92-2.96,3.22-5.75,6.47-8.17,9.88-.15.21.1.3.29.13,7.07-6.53,14.16-12.97,20.67-20.03,3.37-3.41,6.41-7.14,9.56-10.77l4.43-5.71c.77-.93,1.4-1.96,2.1-2.95l2.06-2.99c.37-.54.75-1.06,1.1-1.62l1.01-1.68,2.03-3.35c.71-1.1,1.27-2.28,1.88-3.44l1.82-3.48c2.18-4.76,4.24-9.61,5.65-14.68.84-2.6,1.38-5.27,2-7.93l.76-4.01c.25-1.34.42-2.68.64-4.02.5-3.3,1.08-6.51.47-9.55-.49-2.41-2.69-1.62-2.96,1.06Z"/>
      <path class="cls-1" d="M72.77,139.38c-.18,11.03.33,21.99,1.78,32.95.18,1.37.38,2.74.63,4.1.21,1.37.5,2.73.79,4.09.27,1.36.66,2.72,1.01,4.08.44,1.35.81,2.71,1.4,4.04,2.21,5.29,5.47,9.94,9.07,14.19,6.18,7.35,13.73,14.16,20.2,21.4,6.5,7.27,12.03,14.95,14.93,23.75.1.28.31.1.26-.19-.78-5.38-2.9-10.41-5.61-14.96-2.75-4.55-6.1-8.66-9.66-12.53-7.13-7.72-15.17-14.58-21.22-23.05-1.62-2.27-3.08-4.65-4.31-7.13-.28-.63-.63-1.24-.86-1.88l-.74-1.9c-.39-1.33-.83-2.62-1.11-3.99-1.29-5.4-1.95-11-2.41-16.59-.47-5.8-.73-11.64-.75-17.46,0-3.59.27-7.07-.53-10.31-.62-2.57-2.79-1.61-2.89,1.4Z"/>
      <path class="cls-1" d="M72.09,138.7c.76,7.68,1.76,15.37,3.42,22.97.82,3.8,1.83,7.56,2.88,11.25.52,1.85,1.03,3.67,1.44,5.48.42,1.84.85,3.81,1.39,5.68,1.83,6.5,4.39,13.37,8.21,19.44,3.8,6.05,8.85,11.24,14.6,14.16.18.09.27-.15.12-.28-10.83-9.76-18.27-23.14-21.29-37.42l-.61-2.93c-.22-.99-.46-1.97-.7-2.94l-1.47-5.79c-.95-3.84-1.74-7.7-2.36-11.59-.65-4.03-1.18-8.09-1.56-12.17-.11-1.26-.16-2.5-.34-3.7-.16-1.21-.43-2.37-1-3.46-.9-1.73-2.93-.79-2.72,1.3Z"/>
    </g>
    <g>
      <path class="cls-1" d="M205.85,167.48c.76,9.75-2.63,19.81-9.27,27.01-1.67,1.8-3.5,3.47-5.44,5.02-1.95,1.54-4.02,2.95-6.14,4.31-4.25,2.71-8.72,5.15-13.15,7.78-2.22,1.3-4.41,2.71-6.55,4.17-2.12,1.47-4.15,2.93-6.27,4.02-2.1,1.1-4.36,1.71-6.8,2.07-2.43.35-4.97.58-7.43.66-2.47.07-4.91-.06-7.27-.51-2.36-.46-4.67-1.25-6.94-2.23-2.27-.98-4.5-2.14-6.74-3.35l-6.75-3.63c-3.86-2.1-7.8-4.24-11.78-6.4-1.95-1.09-3.84-2.22-5.56-3.53-1.73-1.3-3.19-2.79-4.51-4.53-1.32-1.73-2.5-3.64-3.62-5.64-1.14-1.97-2.22-3.99-3.22-6.04-2.02-4.1-3.77-8.34-5.25-12.65-2.98-8.63-4.87-17.55-5.79-26.37-.22-2.21-.42-4.4-.5-6.59-.08-2.2-.16-4.39-.23-6.56-.17-4.34-.43-8.6-.9-12.72-.06-.52-.29-.24-.29.28.06,4.88-.08,9.77-.21,14.67-.05,2.45-.15,4.91-.05,7.4.08,2.47.23,4.93.49,7.38,1,9.81,3.34,19.48,6.99,28.63,1.83,4.58,3.97,9.03,6.42,13.31,1.21,2.15,2.5,4.26,4,6.26,1.5,2,3.31,3.83,5.34,5.31,2.01,1.5,4.18,2.74,6.33,3.93l6.47,3.53c4.31,2.35,8.63,4.71,12.95,7.07,4.67,2.51,9.7,4.87,15.21,5.49,2.72.32,5.45.3,8.14.13,2.68-.2,5.36-.42,8.07-1.07,1.35-.32,2.7-.78,3.98-1.37,1.27-.59,2.48-1.28,3.63-2,2.3-1.48,4.41-3,6.62-4.38,4.44-2.77,9.11-5.25,13.71-7.96,4.78-2.79,9.49-5.92,13.64-9.85,2.05-1.98,3.94-4.17,5.56-6.56,1.61-2.39,2.95-4.96,4-7.64,2.63-6.55,3.48-13.85,1.61-19.96-.78-2.4-1.65-2.86-2.12-2.14-.24.36-.4,1.02-.44,1.91-.09.89-.03,2,.05,3.32Z"/>
      <path class="cls-1" d="M122.11,186.55c10.38,2.47,21.43,1.11,31.08-3.21,4.83-2.17,9.34-5.1,13.23-8.73.51-.43.97-.91,1.42-1.4l1.37-1.45.34-.36.52-.65,1.08-1.36,2.15-2.73.27-.34-.45-.03-.89-.06-1.79-.12-1.78-.12-1.54-.06c-1.32-.04-2.63-.04-3.95,0-4.53.13-9.22.62-13.89,1.62-2.33.5-4.65,1.12-6.94,1.88-1.13.38-2.31.82-3.33,1.19-1.04.36-1.97.59-2.84.57-.91,0-1.94-.26-3.07-.54-1.15-.29-2.39-.52-3.59-.67-2.42-.29-4.84-.21-7.17.15-4.65.72-8.87,2.76-11.95,5.54-.2.17.03.28.25.15,4.07-2.51,8.86-3.92,13.68-4.05,2.41-.09,4.83.18,7.18.74,1.17.27,2.37.67,3.67.85,1.3.21,2.7,0,3.9-.38,1.23-.38,2.36-.85,3.52-1.23,1.16-.4,2.33-.76,3.5-1.09,2.36-.66,4.75-1.2,7.17-1.6,2.42-.4,4.86-.67,7.3-.8,1.22-.07,2.45-.1,3.68-.1.61,0,1.23,0,1.84.03l.92.03.66.04c.34.02.68.05,1,.08l.24.02s.09,0,.11.02l-.09.11-.35.42-.68.8c-.05.08-.37.39-.58.61l-.69.7c-.46.46-.9.94-1.38,1.4l-1.48,1.29c-.96.89-2.04,1.63-3.08,2.41-4.24,3.04-9,5.33-14,6.77-5.17,1.5-10.57,2.18-15.91,1.87-.82-.02-1.63-.17-2.43-.25-.8-.09-1.6-.16-2.38-.31-.78-.12-1.56-.21-2.33-.25-.77-.09-1.53-.16-2.3-.15-2.46.02-2.07,2.04.75,2.77Z"/>
      <path class="cls-1" d="M176.54,171.71c.4-4.14-1.05-8.19-3.59-11.24-1.08-1.3-2.23-2.76-3.72-3.73-1.48-.96-3.25-1.42-5.33-.67-.07.02-.14.21-.1.23,3.21,1.26,6.07,3.42,7.89,6.26.97,1.52,1.56,3.24,1.81,4.92.13.87.19,1.73.11,2.57-.06.53-.29.96.43,1.55.58.49,2.43.7,2.5.11Z"/>
      <path class="cls-1" d="M137.67,154.36c-2.29,1.01-4.61,1.78-6.88,1.77-2.17.01-4.45-.9-5.68-2.46-.63-.77-.94-1.65-1.02-2.71-.08-1.06.07-2.24.25-3.52.36-2.61.61-5.26.71-7.91.17-4.55.26-9.49-.58-14.27-.82-4.76-2.58-9.32-5.69-12.68-.1-.11-.3.03-.25.16,3.57,9.19,4.74,19.24,3.78,29.06-.13,1.32-.29,2.64-.51,3.95-.18,1.3-.49,2.63-.59,4.1-.1,1.45.04,3.12.84,4.61.77,1.47,1.99,2.64,3.35,3.43,1.42.83,3,1.32,4.64,1.46,1.62.14,3.2-.03,4.69-.36,1.84-.4,3.62-.85,4.69-2.33.84-1.18-.54-2.87-1.77-2.32Z"/>
      <path class="cls-1" d="M107.63,107.79c-2.38-1.81-5.28-2.97-8.22-3.27-1.45-.16-2.87-.17-4.24-.13-1.38.03-2.78.12-4.17.31-2.38.31-5.08.57-7.51,1.77-1.2.6-2.3,1.44-3.1,2.51-.79,1.09-1.25,2.41-1.18,3.8,0,.09.21.21.24.16,1.33-2,3.41-3.5,5.73-4.39,2.33-.9,4.84-1.3,7.37-1.39,2.71-.07,5.56.03,7.93.71,1.23.35,2.4.87,3.44,1.57.65.44,1.07,1.04,2.21.78.92-.18,2.18-1.9,1.51-2.42Z"/>
      <path class="cls-1" d="M142.55,103.49c2.93-2.92,6.5-5.18,10.28-6.86,3.82-1.63,7.88-2.67,12.01-3.04,1.77-.19,3.63-.11,5.48.03,1.85.2,3.7.46,5.54.79,3.69.68,7.14,1.39,11.16,1.97.13.02.22-.2.12-.27-3.69-2.34-7.78-3.68-11.92-4.45-4.15-.73-8.41-.93-12.65-.44-2.29.23-4.54.7-6.79,1.27-2.23.6-4.41,1.41-6.54,2.37-2.18,1.04-4.27,2.29-6.27,3.7-.6.45-1.22.87-1.75,1.37-.52.51-.9,1.14-1.06,1.93-.24,1.24,1.61,2.4,2.39,1.63Z"/>
      <path class="cls-1" d="M207.43,154.15c1.58-.04,3-.6,4.19-1.33,1.2-.73,2.21-1.63,3.1-2.61,1.73-1.97,3.11-4.13,4.17-6.48,2.1-4.68,2.83-9.97,2.01-15.07-.18-1.1-.41-2.21-.72-3.32-.13-.56-.34-1.1-.52-1.66-.18-.54-.37-1.12-.78-1.81-.2-.34-.47-.71-.84-1.05-.36-.34-.86-.64-1.35-.81-1-.34-1.86-.25-2.53-.16-1.27.21-2.44.55-3.57,1.04-2.25.99-4.21,2.54-5.52,4.45-1.33,1.89-2.01,4.12-1.85,6.2,0,.13.25.16.29.05,1.43-4.08,5.01-7.45,9.24-8.74,1.03-.3,2.24-.63,3.03-.42.74.16,1.18,1.12,1.53,2.21.76,2.11,1.17,4.33,1.26,6.57.21,4.82-1.2,9.62-3.73,13.55-1.31,2.03-2.91,3.94-4.75,5.01-.57.33-1.15.52-1.66.71-.52.2-.95.42-1.54.82-.46.3-.83.95-.82,1.58,0,.62.49,1.29,1.36,1.27Z"/>
      <path class="cls-1" d="M103.33,121.7c.83.91,1.47,1.87,1.56,2.66.05.4,0,.75-.17,1.1-.17.35-.45.7-.82.99-.75.59-1.7.89-2.66.83-.97-.04-1.88-.44-2.39-1-.1-.12-.2-.27-.27-.4-.03-.08-.1-.27-.14-.48-.09-.42-.14-.9-.11-1.36.04-.92.26-1.72.61-2.28.32-.57.87-1.16,1.7-1.76.08-.08.09-.13.19-.19.12-.06.25-.12.38-.18.27-.11.55-.23.83-.35.59-.24,1.23-.49,1.88-.81.08-.04.1-.28.03-.29-.65-.1-1.33-.2-2.03-.24-.35-.02-.71-.03-1.07,0-.18.01-.46.01-.64.1l-.52.17c-.68.22-1.32.6-1.91,1.04-.55.5-1.05,1.07-1.36,1.74-.65,1.33-.74,2.79-.58,4.17.11.7.21,1.38.63,2.13.39.68.94,1.26,1.58,1.69,1.4.92,3.08,1.26,4.75,1.02,1.68-.27,3.3-1.09,4.43-2.66.57-.81.94-1.9.91-2.96,0-1.07-.34-2.04-.73-2.85-.49-1-.95-1.94-2.2-1.95-.98,0-2.36,1.62-1.91,2.12Z"/>
      <path class="cls-1" d="M165.2,113.97c.83.91,1.47,1.87,1.56,2.66.05.4,0,.75-.17,1.1-.17.35-.45.7-.82.99-.75.59-1.7.89-2.66.83-.97-.04-1.88-.44-2.39-1-.1-.12-.2-.27-.27-.4-.03-.08-.1-.27-.14-.48-.09-.42-.14-.9-.11-1.36.04-.92.26-1.72.61-2.28.32-.57.87-1.16,1.7-1.76.08-.08.09-.13.19-.19.12-.06.25-.12.38-.18.27-.11.54-.23.83-.35.59-.24,1.23-.49,1.88-.81.08-.04.11-.28.03-.29-.65-.1-1.33-.2-2.03-.24-.35-.02-.71-.03-1.07,0-.18.01-.46.01-.64.1l-.52.17c-.68.22-1.32.6-1.91,1.04-.55.5-1.05,1.07-1.36,1.74-.65,1.33-.74,2.79-.58,4.17.11.7.21,1.38.63,2.13.39.68.94,1.26,1.58,1.69,1.4.92,3.08,1.26,4.75,1.02,1.68-.27,3.3-1.09,4.43-2.66.57-.81.94-1.9.91-2.96,0-1.07-.34-2.04-.73-2.85-.49-1-.95-1.94-2.2-1.95-.98,0-2.36,1.62-1.91,2.12Z"/>
    </g>
    <path class="cls-1" d="M211.34,180.07c-.31-5.91,1.08-11.82,2.62-17.64,1.33-5.07,5.21-10.03,1.39-16.68-.06-.11-.41-.18-.43-.1-1.2,5.89-3.28,11.42-5.19,17.17-1.03,3.09-2.06,6.24-2.79,9.5-.37,1.69-.64,3.41-.84,5.16-.15,1.06-.51,2.15.92,3.08,1.13.73,4.36.29,4.32-.49Z"/>
    <path class="cls-1" d="M210.97,177.96c1.93-5.72,4.13-11.35,5.67-17.21.66-2.52,1.8-5.12,2.15-7.87.35-2.74-.09-5.61-2.58-8.42-.08-.09-.44-.1-.44-.03-.07,5.72-1.43,11.26-3.35,16.62-1.04,2.89-2.31,5.69-3.58,8.47-.66,1.44-1.28,2.89-1.97,4.31-.42.88-1.11,1.62-.09,2.95.81,1.05,3.92,1.95,4.18,1.17Z"/>
    <path class="cls-1" d="M212.88,172.33c-1.17-3.64-1.03-7.57-.57-11.31.2-1.64,1.03-3.23,1.3-4.92.27-1.71-.05-3.52-1.96-6.31-.06-.09-.39-.21-.41-.16-1,4.07-2.17,7.83-3.01,11.9-.45,2.18-.84,4.43-.95,6.73-.05,1.19,0,2.39.09,3.59.04.73-.14,1.55,1.4,1.83,1.21.2,4.27-.87,4.12-1.35Z"/>
    <path class="cls-1" d="M212.21,171.35c-1.38-3.99-1.25-8.33-.31-12.22.4-1.71,1.53-3.24,2.21-4.87.71-1.67.89-3.5.28-6.94-.02-.11-.29-.35-.33-.29-2.82,3.86-4.94,7.79-6.29,12.28-.71,2.4-1.21,4.93-1.31,7.51-.05,1.34.04,2.67.17,4.01.09.81-.08,1.72,1.5,2.02,1.24.22,4.25-.97,4.07-1.48Z"/>
  </g>
</svg>