<?xml version="1.0" encoding="UTF-8"?>
<svg id="Calque_2" data-name="Calque 2" xmlns="http://www.w3.org/2000/svg" viewBox="0 0 300 300">
  <defs>
    <style>
      .cls-1 {
        fill: #1d1d1d;
      }

      .cls-2 {
        fill: #1db4b8;
      }
    </style>
  </defs>
  <path class="cls-2" d="M170.8,66.91c1.04,20.25.27,40.55,1.17,60.84.39,8.73-.92,18.18.41,27.36,1.33,9.16,5.3,18.04,16.17,25.34.34.23,1.59,0,1.53-.26-4.42-19.02-5.01-38.3-4.21-57.72.43-10.46,1.51-20.92,2.44-31.35.48-5.41.76-10.81,1.23-16.2.28-3.32,1.59-6.57-3.48-9.52-4.01-2.33-15.4-1.23-15.25,1.51Z"/>
  <path class="cls-2" d="M192.91,69.35c1.01,13.51,0,27.07.45,40.61.2,5.83-1.36,12.15-.31,18.28,1.04,6.12,4.69,12.03,15.25,16.85.33.15,1.58-.01,1.53-.18-3.65-12.69-3.66-25.57-2.47-38.54.64-6.99,1.88-13.97,2.91-20.94.53-3.61.85-7.22,1.34-10.82.3-2.22,1.61-4.39-3.45-6.34-4-1.54-15.39-.75-15.26,1.08Z"/>
  <path class="cls-2" d="M149.28,54.99c1.01,12.82.2,25.71,1.08,38.57.38,5.52-.94,11.61.39,17.38,1.32,5.75,5.27,11.18,16.08,14.98.34.12,1.58-.12,1.52-.28-4.37-11.63-4.93-23.78-4.1-35.97.45-6.57,1.55-13.15,2.49-19.67.49-3.38.78-6.75,1.26-10.12.28-2.08,1.61-4.1-3.46-5.91-4-1.44-15.39-.72-15.26,1.02Z"/>
  <g>
    <g>
      <path class="cls-1" d="M79.46,134c.15,1.12-.08,2.24-.08,3.35,0,.96-1.22,2.06,2.22,2.97.05.01.27,0,.26,0-.49-1.07-.39-2.14-.11-3.22.15-.58.39-1.16.58-1.74.1-.3.17-.6.26-.9.06-.19.28-.37-.57-.53-.67-.13-2.58-.07-2.56.08Z"/>
      <path class="cls-1" d="M215.86,135.55c-1.34,16.28-3.04,32.54-4.53,48.83-.64,7.02-1.63,14.5-2.18,21.91-.57,7.48-.47,14.56-.83,21.45,0,.22.22.18.28-.03,1.06-3.87,1.62-7.81,2.02-11.73.39-3.92.68-7.82,1.04-11.72.71-7.8,1.51-15.6,2.36-23.42l2.89-25.27,1.45-13.11c.3-2.69.76-5.31.14-7.8-.49-1.97-2.47-1.31-2.65.89Z"/>
      <path class="cls-1" d="M78.6,146.2c.16,8.73.71,17.48,1.9,26.16,1.13,8.68,2.94,17.27,5.09,25.74,1.87,7.29,3.82,15.1,6.2,22.64,1.17,3.77,2.5,7.56,4.33,11.01,1.81,3.45,4.17,6.56,6.99,8.72.17.14.27-.08.13-.25-2.6-3.11-4.52-6.78-6.04-10.61-1.53-3.83-2.67-7.83-3.87-11.82-2.37-7.98-4.57-16.01-6.41-24.16-1.97-8.77-3.43-17.64-4.21-26.55-.44-4.62-.7-9.25-.81-13.89-.02-1.43-.01-2.84-.09-4.21-.06-1.38-.23-2.71-.67-3.99-.69-2.03-2.59-1.15-2.54,1.22Z"/>
      <path class="cls-1" d="M88.91,201c-1.97-.8-3.66-2.41-4.89-4.32-1.25-1.91-2.03-4.14-2.61-6.48-.58-2.34-.96-4.79-1.47-7.28-.53-2.49-1.17-4.93-1.85-7.34-1.16-4.16-2.19-8.6-3.03-12.89-.42-2.15-.82-4.27-1.18-6.38-.34-2.08-.68-4.17-1.05-6.44-.03-.14-.25-.12-.27.01-.91,4.91-.46,9.84.45,14.56.94,4.73,2.29,9.34,3.41,13.99.6,2.51,1.1,4.99,1.48,7.54.4,2.55.79,5.17,1.6,7.78.84,2.7,2.22,5.37,4.34,7.53.65.66,1.34,1.3,2.15,1.77.8.45,1.72.71,2.64.58.74-.12,1.04-.7,1.05-1.28,0-.59-.24-1.13-.76-1.35Z"/>
      <path class="cls-1" d="M214.06,191.28c.13-.13.36-.28.59-.41.12-.06.24-.12.35-.17l.56-.25c.85-.41,1.58-1.01,2.13-1.69,1.12-1.36,1.69-2.88,2.13-4.33.79-2.9,1.36-5.63,1.96-8.48,1.12-5.65,1.98-11.36,2.47-17.11.42-4.95.91-10.27.71-15.52-.19-5.24-1.09-10.41-3.31-14.8-.07-.14-.27-.04-.25.11,1.65,10.79,1.61,21.77.24,32.62-.72,5.85-1.9,11.63-3.32,17.32-.81,2.9-1.33,6.13-2.82,7.98-.46.56-.96.87-1.46,1.12-.03.02-.21.1-.34.16-.13.07-.26.14-.39.22-.25.15-.48.33-.69.53-.41.44-.88.85-1.06,1.91-.07.43.13.91.36,1.08.23.19.43.19.58.14.31-.09.44-.37.59-.61.04-.06.08-.12.12-.17.01-.02.06-.07.04-.05l-.04.04c-.09.07-.17.07-.08.06.03,0,.35.05.65.28.14.08.13.08.13.08,0,0,.02,0,.04,0,.03,0,.05-.03.09-.07Z"/>
      <path class="cls-1" d="M174.3,142.22c.52-1.06,1.22-1.95,1.86-2.18.32-.11.62-.13,1.09,0,.44.12,1.04.37,1.41.6.4.25.61.49.79.85.18.34.27.78.27,1.21-.02.9-.37,1.65-1.08,2.2-.6.49-1.48.71-2.32.69-.84-.03-1.66-.3-2.35-.69-.7-.41-1.25-.83-1.75-1.58-.46-.76-.96-1.84-.65-3.39.02-.1-.15-.22-.21-.15-1.09,1.29-1.24,2.97-.8,4.35.46,1.44,1.57,2.49,2.81,3.1,1.24.61,2.68.82,4.06.58,1.37-.23,2.74-.9,3.68-2.08,1.02-1.3,1.4-3.05.94-4.73-.23-.83-.71-1.67-1.42-2.28-.7-.6-1.4-.95-2.13-1.26-.76-.32-1.82-.57-2.91-.32-1.08.24-1.96.87-2.59,1.51-.78.79-1.47,1.57-1.11,2.68.3.88,2.14,1.46,2.43.89Z"/>
      <path class="cls-1" d="M110.37,145.77c.52-1.06,1.22-1.95,1.86-2.18.32-.11.62-.13,1.09,0,.44.12,1.04.37,1.41.6.4.25.61.49.79.85.18.34.27.78.27,1.21-.02.9-.37,1.65-1.08,2.2-.6.49-1.48.71-2.32.69-.84-.03-1.66-.3-2.35-.69-.7-.41-1.25-.83-1.75-1.58-.46-.76-.96-1.84-.65-3.39.02-.1-.15-.22-.21-.15-1.09,1.29-1.24,2.97-.8,4.35.46,1.44,1.57,2.49,2.8,3.1,1.24.61,2.68.82,4.06.58,1.37-.23,2.74-.9,3.68-2.08,1.02-1.3,1.4-3.05.94-4.73-.23-.83-.71-1.67-1.42-2.28-.7-.6-1.4-.95-2.13-1.26-.76-.32-1.82-.57-2.91-.32-1.08.24-1.96.87-2.59,1.51-.78.79-1.47,1.57-1.11,2.68.3.88,2.14,1.46,2.43.89Z"/>
      <g>
        <path class="cls-1" d="M156.75,130.5c-.3-1.98.47-4.01,1.52-5.69.46-.75,1.27-1.26,1.82-1.94.58-.7.88-1.6,1.01-3.59,0-.06-.1-.25-.13-.22-1.94,1.51-3.6,3.05-5.02,5-.75,1.05-1.43,2.2-1.88,3.5-.23.67-.38,1.37-.47,2.09-.08.43-.26.92.61,1.23.69.23,2.57-.13,2.54-.37Z"/>
        <path class="cls-1" d="M159.53,129.43c-.11-.46.26-1.22.81-1.96.56-.79,1.17-1.53,1.77-2.29.52-.65,1.33-1.12,1.83-1.84.51-.72.71-1.7.17-3.53-.02-.06-.17-.2-.18-.18-1.14,1.7-2.52,3.04-3.96,4.46-.78.77-1.57,1.47-2.35,2.36-.4.48-.78,1.05-1.06,1.8-.18.43-.46,1.05.43,1.45.35.15.99.08,1.54-.02.55-.1,1.02-.19,1.01-.24Z"/>
        <path class="cls-1" d="M163.45,127.52c.47-1.96,1.7-3.64,3.01-5.11.58-.65,1.44-1.05,2.06-1.68.64-.65,1.02-1.56,1.07-3.51,0-.06-.11-.24-.13-.22-1.77,1.45-3.47,2.71-5.12,4.25-.88.83-1.76,1.71-2.51,2.72-.39.53-.72,1.09-1.03,1.67-.2.35-.54.68.16,1.26.55.46,2.43.87,2.49.62Z"/>
        <path class="cls-1" d="M168,125.17c-.03-.93.31-1.9.88-2.74.57-.85,1.32-1.57,2.16-2.22,1.5-1.18,3.95-.94,4.44-4.88,0-.06-.09-.25-.12-.23-1.97,1.37-4.16,2.2-6.25,3.62-1.12.77-2.21,1.69-3.06,2.92-.44.64-.77,1.36-1.03,2.14-.14.47-.44,1,.41,1.46.66.34,2.58.13,2.56-.08Z"/>
        <path class="cls-1" d="M171.58,124.62c.96-1.97,2.64-3.5,4.38-4.78.76-.56,1.76-.82,2.57-1.36.83-.54,1.47-1.39,1.96-3.32.02-.06-.06-.26-.09-.24-2.18,1.12-4.25,2.09-6.32,3.36-1.1.69-2.21,1.43-3.21,2.34-.52.47-.99.99-1.45,1.53-.29.32-.7.6-.15,1.34.43.58,2.18,1.37,2.31,1.12Z"/>
        <path class="cls-1" d="M174.83,124.4c1.55-2,3.75-3.4,5.98-4.51.98-.49,2.15-.64,3.19-1.08,1.05-.45,1.97-1.21,2.87-3.06.03-.06-.02-.27-.05-.25-2.63.82-5.12,1.53-7.65,2.58-1.35.56-2.71,1.19-3.99,2-.66.42-1.29.9-1.89,1.4-.38.3-.87.52-.51,1.39.29.68,1.86,1.79,2.06,1.54Z"/>
        <path class="cls-1" d="M180.5,122.8c1.13-1.45,2.81-2.36,4.46-3.09.73-.32,1.6-.31,2.35-.62.77-.32,1.41-.98,2.16-2.75.02-.06,0-.27-.03-.26-2.03.61-3.92,1.02-5.9,1.67-1.06.35-2.14.74-3.17,1.29-.53.29-1.03.63-1.53.99-.31.21-.73.34-.33,1.15.32.63,1.84,1.81,1.99,1.62Z"/>
        <path class="cls-1" d="M183.61,122.96c1.26-1.33,3.03-2.05,4.75-2.57.76-.23,1.62-.1,2.41-.31.8-.21,1.53-.78,2.54-2.41.03-.05.04-.26,0-.26-2.11.3-4.05.46-6.11.86-1.1.22-2.23.48-3.32.92-.56.23-1.11.52-1.64.83-.33.18-.77.28-.45,1.12.26.66,1.66,1.97,1.82,1.81Z"/>
        <path class="cls-1" d="M188.63,122.74c1.34-.63,2.89-.54,4.32-.31.63.1,1.19.55,1.83.66.66.12,1.41-.14,2.96-1.18.05-.03.16-.22.13-.22-1.75-.56-3.26-1.18-4.99-1.66-.92-.25-1.9-.48-2.92-.54-.53-.03-1.06,0-1.59.07-.33.02-.72-.07-.71.82.02.7.81,2.45.97,2.37Z"/>
        <path class="cls-1" d="M191.41,124.14c1.76,0,3.45.54,5.12,1.02.73.21,1.39.74,2.16.9.78.16,1.69-.06,3.11-1.29.05-.04.12-.23.1-.24-1.85-.34-3.45-1.03-5.14-1.77-.91-.39-1.82-.84-2.78-1.19-.49-.18-1-.32-1.51-.47-.31-.09-.61-.34-.97.47-.28.65-.32,2.56-.09,2.56Z"/>
      </g>
      <g>
        <path class="cls-1" d="M130.26,131.66c-.28-2.61-1.1-5.17-2.75-7.23-.7-.87-1.38-1.95-2.46-2.56-1.05-.6-2.5-.68-3.88.67-.04.04-.1.25-.07.25,2.09.18,3.9,1.69,4.88,3.51.54.99.83,2.08.97,3.13.07.54.14,1.08.12,1.6,0,.33-.21.63.65.89.68.22,2.59.1,2.55-.27Z"/>
        <path class="cls-1" d="M127.36,130.8c-.27-1.57-1.12-2.56-1.76-3.41-.66-.82-1.34-1.63-2.1-2.37-.65-.63-1.18-1.51-2-2.03-.82-.51-1.94-.66-3.58.29-.05.03-.16.21-.14.22,1.83.68,3.26,2.01,4.4,3.54.61.82,1.15,1.76,1.59,2.61.21.43.38.82.4,1.12.02.22-.19.28.66.37.34.05.98.1,1.54.06.56-.03,1.03-.19,1-.41Z"/>
        <path class="cls-1" d="M122.97,128.49c-1.14-2.11-2.44-4.17-4.26-5.77-.77-.68-1.51-1.59-2.55-2.05-1.01-.45-2.31-.42-3.7.91-.04.04-.1.25-.07.25,2.04.21,3.85,1.43,5.12,2.99.7.85,1.22,1.81,1.65,2.78.22.5.45.98.62,1.49.12.31.03.68.93.6.71-.06,2.42-.91,2.26-1.21Z"/>
        <path class="cls-1" d="M118.38,127.46c-.68-2.93-2.6-5.25-4.95-6.66-1.96-1.2-4.19-3.1-6.96-.3-.04.04-.08.25-.05.25,2.34.14,4.57.92,6.25,2.36.89.76,1.56,1.73,1.98,2.7.22.5.4.99.47,1.48.04.32-.11.59.76.74.7.14,2.59-.14,2.5-.58Z"/>
        <path class="cls-1" d="M114.21,126.13c-1.67-1.96-3.5-3.82-5.77-5.1-.96-.54-1.94-1.32-3.12-1.59-1.16-.27-2.5,0-3.67,1.57-.04.05-.05.26-.02.26,2.22-.17,4.39.72,6.11,2.08.93.73,1.72,1.63,2.41,2.55.36.48.72.94,1.02,1.44.2.3.21.71,1.09.46.7-.19,2.18-1.39,1.94-1.67Z"/>
        <path class="cls-1" d="M110.57,125.91c-2.25-1.8-4.67-3.45-7.42-4.43-1.17-.41-2.41-1.05-3.75-1.15-1.33-.1-2.75.36-3.8,2.09-.03.05-.01.26.02.26,2.49-.5,5.08.08,7.31,1.24,1.21.62,2.3,1.44,3.29,2.31.52.45,1.03.89,1.5,1.38.3.3.43.72,1.28.34.68-.3,1.88-1.78,1.56-2.03Z"/>
        <path class="cls-1" d="M104.69,125c-1.79-1.31-3.65-2.55-5.8-3.21-.91-.28-1.87-.79-2.92-.78-1.02,0-2.12.56-2.78,2.33-.02.06,0,.26.03.26,1.79-.62,3.76-.26,5.41.59.9.46,1.69,1.08,2.41,1.73.37.34.75.66,1.07,1.02.21.22.27.57,1.03.1.61-.37,1.8-1.86,1.55-2.04Z"/>
        <path class="cls-1" d="M101.41,125.38c-1.92-1.14-3.94-2.18-6.17-2.56-.94-.16-1.98-.55-3.02-.4-1.02.15-2.04.85-2.44,2.7-.01.06.05.26.07.25,1.68-.88,3.69-.78,5.43-.15.95.34,1.81.87,2.59,1.44.4.3.81.57,1.17.9.23.2.33.54,1.04,0,.57-.42,1.62-2.02,1.34-2.18Z"/>
        <path class="cls-1" d="M95.36,125.36c-1.91-.26-3.87-.39-5.76.13-.79.22-1.76.27-2.51.82-.73.52-1.21,1.55-.58,3.28.02.05.17.21.18.19.81-1.34,2.38-2.02,3.9-2.1.83-.05,1.65.1,2.41.3.39.11.78.19,1.14.34.23.08.39.35.79-.43.32-.62.71-2.49.43-2.52Z"/>
        <path class="cls-1" d="M91.56,127.11c-1.84.55-3.74.93-5.53,1.68-.76.32-1.71.44-2.43.96-.72.52-1.21,1.47-.89,3.31,0,.06.13.23.15.21,1.17-1.33,2.79-2.07,4.48-2.46.91-.22,1.86-.29,2.78-.37.48-.04.95-.1,1.42-.12.29-.02.61.15.68-.74.06-.7-.41-2.55-.66-2.47Z"/>
      </g>
      <path class="cls-1" d="M144.93,187.15c-2.66-.2-5.29-.91-7.7-2.06-1.21-.58-2.39-1.24-3.28-2.02-.92-.79-1.49-1.69-1.6-2.63-.13-.98.18-2.24.56-3.63l1.13-4.13,2.24-8.26c2.54-9.51,6.69-19.97,5.45-29.92-.02-.16-.26-.15-.29,0-2.31,10.75-5.22,21.26-8.34,31.82l-2.57,8.52c-.41,1.42-.94,2.77-1.14,4.54-.09.86-.04,1.85.28,2.77.3.92.81,1.73,1.39,2.41,1.22,1.41,2.7,2.33,4.12,3.11,1.44.79,2.97,1.43,4.54,1.94,1.91.62,3.93,1.19,5.78.38,1.44-.68.82-2.76-.57-2.84Z"/>
      <path class="cls-1" d="M184.92,201.61c-9.56,7.35-20.92,12.52-32.82,14.14-5.12.72-10.69.47-16.04-.27-5.39-.73-10.55-1.93-15.69-2.91-.16-.03-.18.17-.03.24,10.86,5.15,23.09,6.48,34.87,4.55,6.35-1.06,12.56-3.03,18.41-5.77,3.04-1.42,5.97-3.06,8.8-4.85,1.73-1.11,3.52-2.12,4.52-3.85.8-1.34-.75-2.28-2.03-1.28Z"/>
    </g>
    <g>
      <path class="cls-1" d="M127.98,19.06c-3.75-.85-7.51-.18-10.88.98-3.39,1.19-6.51,2.93-9.4,4.93-2.89,2.02-5.56,4.32-7.99,6.87-2.42,2.54-4.64,5.33-6.41,8.44-3.03,5.3-5.31,11.71-5.34,18.26-.03,3.25.47,6.5,1.56,9.43,1.09,2.93,2.75,5.53,4.83,7.45.13.12.27-.06.18-.21-3.38-5.41-4.7-12.05-4.16-18.45.53-6.42,2.85-12.7,6.62-17.92,4.12-5.59,9.53-10.28,15.53-13.58,3.11-1.69,6.44-3.02,9.79-3.35.51-.03,1.03-.13,1.52-.08.5.02.98.03,1.47,0,.94.11,1.88.02,2.87-.03.79-.1,1.28-.62,1.3-1.2.02-.58-.5-1.25-1.5-1.55Z"/>
      <path class="cls-1" d="M142.73,18.48c-3.61-.99-7.51-1.14-11.21-.42-1.85.37-3.63.96-5.36,1.66-1.7.74-3.36,1.56-4.92,2.5-1.58.93-3.09,1.92-4.57,2.95-1.49,1.02-2.92,2.06-4.39,3.2-2.86,2.3-5.47,4.92-7.74,7.8-3.89,4.95-7.4,10.95-9,17.5-.84,3.24-1.19,6.61-.9,9.85.28,3.23,1.26,6.32,2.9,8.75.1.15.28,0,.22-.17-1.06-3.11-1.43-6.47-1.27-9.81.14-3.34.83-6.66,1.84-9.87,1-3.21,2.4-6.29,4.11-9.19,1.7-2.9,3.74-5.61,6.05-8.05,1.23-1.33,2.57-2.55,3.95-3.72,1.4-1.16,2.84-2.19,4.37-3.23,3.03-2.04,6.1-4.01,9.36-5.41,1.67-.75,3.4-1.32,5.15-1.69,1.74-.4,3.52-.53,5.29-.44,2.19.11,4.19.7,6.35.53,1.74-.17,1.76-2.16-.22-2.74Z"/>
      <path class="cls-1" d="M149.96,19.05c-3.5-1.1-7.33-1.15-10.88-.35-3.58.77-6.82,2.42-9.83,4.24-3.01,1.85-5.77,3.98-8.49,6.08-2.75,2.12-5.42,4.41-7.86,6.94-4.21,4.31-8.42,9.53-10.72,15.68-1.16,3.04-1.8,6.27-1.82,9.4,0,1.57.16,3.11.48,4.58.34,1.47.83,2.86,1.47,4.12.08.16.27.03.24-.13-.65-3.12-.68-6.37-.24-9.56.47-3.18,1.4-6.31,2.75-9.26,2.69-5.9,6.91-11.03,11.76-15.37,2.6-2.36,5.45-4.44,8.33-6.52,2.87-2.04,5.8-3.96,8.9-5.4,1.61-.73,3.25-1.34,4.92-1.75,1.67-.36,3.37-.63,5.05-.51,2.09.11,3.97.64,6.04.54,1.68-.13,1.83-2.1-.1-2.74Z"/>
      <path class="cls-1" d="M167.51,22.34c-3.25-1.83-6.95-3.09-10.76-3.26-1.9-.16-3.8.05-5.66.34-1.85.36-3.66.86-5.39,1.53-3.48,1.32-6.67,3.1-9.78,4.96-3.19,1.93-6.02,4.34-8.61,6.92-2.23,2.23-4.41,4.62-6.53,7.09-1.06,1.25-2.09,2.45-3.14,3.79-1.04,1.34-2.01,2.73-2.84,4.2-1.69,2.92-2.92,6.1-3.53,9.29-.29,1.6-.43,3.2-.4,4.76.04,1.56.25,3.08.62,4.51.04.18.26.09.26-.09.02-6.68,2.32-13.31,6.07-18.9.94-1.41,1.96-2.73,3.06-4.05,1.08-1.32,2.18-2.63,3.29-3.92,2.24-2.57,4.59-5.04,7.16-7.24,1.38-1.18,2.83-2.29,4.34-3.27,1.5-.97,3.12-1.86,4.74-2.71,3.23-1.69,6.57-3.13,10.01-3.83,1.78-.41,3.58-.5,5.35-.48,1.78.07,3.53.4,5.23.93.53.14,1.02.4,1.52.58l.75.29c.24.12.48.23.73.34.49.21.99.38,1.5.53.5.18,1.01.32,1.56.4,1.75.26,2.23-1.67.45-2.71Z"/>
      <path class="cls-1" d="M185.22,29.26c-1.45-1.24-3.03-2.33-4.72-3.21-1.71-.85-3.5-1.49-5.33-1.95-3.67-.89-7.46-.99-11.15-.54-1.83.21-3.75.64-5.51,1.26-1.77.61-3.47,1.38-5.1,2.2-3.24,1.67-6.38,3.54-9.35,5.65-5.12,3.61-10.37,7.93-14.58,13.08-2.1,2.57-3.96,5.31-5.4,8.17-1.43,2.87-2.46,5.83-2.98,8.77-.04.18.2.19.28.03,2.83-6.16,6.62-11.87,11.15-16.93,4.56-5.03,9.81-9.45,15.61-13.01,1.56-.96,3.15-1.87,4.78-2.69,1.62-.86,3.27-1.62,4.95-2.26,1.68-.63,3.38-1.13,5.11-1.37,1.76-.25,3.54-.36,5.31-.31,3.65.11,7.29.82,10.43,2.48,1.96,1.02,3.47,2.4,5.47,3.2,1.61.65,2.58-1.08,1.05-2.56Z"/>
      <path class="cls-1" d="M194.22,34.71c-2.65-2.33-5.97-3.88-9.38-4.47-3.41-.64-6.85-.53-10.16-.08-3.32.39-6.67,1.34-9.75,2.59-3.1,1.25-6.05,2.74-8.93,4.37-9.93,5.56-20.63,13.23-26.07,22.84-.09.15.12.25.24.13,8.87-8.7,18.46-16.8,29.6-22.34,2.99-1.47,6.06-2.82,9.21-3.72,1.58-.45,3.15-.8,4.77-1,1.63-.22,3.26-.36,4.87-.39,3.34-.05,6.65.43,9.51,1.81,1.78.86,3.11,2.08,4.96,2.74.74.27,1.38,0,1.65-.52.27-.51.17-1.32-.54-1.97Z"/>
      <path class="cls-1" d="M205.66,47.89c-.86-3.67-3.02-7.04-5.91-9.36-1.42-1.19-2.99-2.19-4.65-2.96-1.65-.79-3.38-1.41-5.17-1.82-.9-.2-1.82-.36-2.77-.43-.99-.07-1.87-.05-2.79,0-1.82.1-3.61.4-5.36.8-3.5.82-6.82,2.08-10.03,3.49-5.53,2.41-11.39,5.26-16.6,8.97-5.21,3.68-9.74,8.21-12.49,13.34-.09.16.13.25.25.12,9.04-9.55,20.37-16.84,32.7-21.48,3.32-1.23,6.72-2.2,10.16-2.52.86-.08,1.71-.13,2.57-.12.88-.01,1.62.08,2.46.22,1.64.29,3.26.83,4.8,1.51,1.59.72,3.1,1.59,4.44,2.65,1.33,1.07,2.47,2.32,3.38,3.71,1.13,1.74,1.55,3.59,2.66,5.31.46.69,1.14.86,1.66.6.52-.26.88-1.02.69-2.03Z"/>
      <path class="cls-1" d="M209.35,54.46c-1.41-2.93-3.6-5.47-6.18-7.36-2.58-1.91-5.51-3.24-8.52-4.14-3.02-.91-6.13-1.35-9.25-1.48-3.12-.11-6.26.11-9.36.8-5.25,1.19-10.67,3.27-15.44,6.19-4.78,2.91-8.89,6.53-11.85,10.75-.09.13.09.26.22.16,4.56-3.54,9.21-6.94,14.22-9.7,4.99-2.75,10.42-4.9,16.03-5.56,6.05-.63,12.32.24,17.71,2.68,2.78,1.28,5.31,3.03,7.18,5.3.28.35.55.71.83,1.06.23.38.45.76.7,1.11.55.68.98,1.39,1.72,1.99,1.17.97,2.76-.14,2-1.8Z"/>
      <path class="cls-1" d="M211.17,57.36c-1.95-2.02-4.19-3.48-6.52-4.73-2.33-1.25-4.77-2.24-7.31-3-1.27-.37-2.57-.69-3.91-.88-.66-.11-1.37-.16-2.05-.2-.67-.02-1.33-.03-2-.02-2.66.06-5.28.43-7.83.99-4.39.95-8.98,2.23-13.3,3.75-4.35,1.53-8.35,3.22-12.31,5.35-.13.07-.04.27.1.25,9.89-1.56,18.69-6.14,28.28-7.49,2.55-.36,5.16-.49,7.64-.21,2.45.3,4.91,1.09,7.23,2.07,2.42,1.02,4.76,2.26,6.81,3.79,1.27.96,2.2,2.05,3.69,2.53.6.2,1.24-.03,1.59-.48.35-.44.41-1.17-.12-1.74Z"/>
      <path class="cls-1" d="M219.24,72.43c.14-.73.08-1.51.11-2.26.01-.76-.15-1.53-.22-2.29-.36-1.5-.82-3.02-1.71-4.31-.83-1.31-1.88-2.48-3.08-3.4-1.18-.95-2.49-1.71-3.85-2.3-1.36-.6-2.76-1.07-4.22-1.37-1.48-.31-2.91-.44-4.36-.49-2.89-.1-5.73.19-8.49.56-2.38.32-4.8.62-7.25.83-2.45.19-4.93.38-7.4.56-2.47.19-4.91.41-7.31.76-1.19.18-2.3.36-3.46.38-1.13,0-2.38-.16-3.49-1.04-.14-.11-.27.08-.16.22.5.67,1.18,1.18,1.88,1.5.7.33,1.43.5,2.13.61,1.42.21,2.78.15,4.09.13,2.66-.05,5.31-.16,7.96-.33,2.65-.17,5.29-.4,7.94-.7,2.64-.3,5.27-.67,7.88-.88,2.81-.23,5.62-.25,8.32.21,2.63.47,5.22,1.51,7.3,3.04,1.06.81,2.03,1.72,2.73,2.79.67,1.08,1.21,2.23,1.41,3.49.12.37.07.78.12,1.16l.05.57v.58c0,.39.06.77.13,1.16.04.39.12.79.27,1.2.48,1.32,2.42,1.27,2.65-.39Z"/>
      <path class="cls-1" d="M223.26,82.75c-.62-2.41-1.48-4.78-2.7-7-1.22-2.22-2.83-4.31-4.92-5.9-2.07-1.64-4.58-2.62-7.02-3.19-2.46-.58-4.89-.81-7.28-1.04-4.13-.38-8.47-.9-12.63-1.48-4.19-.58-8.07-1.2-12.33-1.86-.14-.02-.19.19-.08.25,4.17,2.37,8.78,3.45,13.33,4.11,4.56.66,9.15.93,13.67,1.55,2.43.33,4.82.78,6.98,1.65,2.17.85,4,2.21,5.45,3.94,1.51,1.8,2.62,3.94,3.4,6.21.48,1.41.66,2.84,1.77,3.98.88.92,2.67.11,2.35-1.22Z"/>
      <path class="cls-1" d="M229.61,97.12c-1.55-4.56-3.78-8.98-7.03-12.69-.81-.92-1.7-1.79-2.63-2.61-.94-.82-1.96-1.51-2.98-2.21-2.08-1.32-4.29-2.36-6.51-3.25-3.84-1.53-7.9-3.01-11.79-4.4-1.91-.69-3.8-1.37-5.73-2.06-1.89-.68-3.73-1.41-5.75-2.16-.13-.05-.23.15-.13.23,3.53,3.15,7.76,5.06,11.98,6.61,4.22,1.58,8.53,2.87,12.51,4.8,2.14,1.04,4.16,2.27,5.94,3.75,1.77,1.49,3.28,3.26,4.58,5.16,1.33,1.99,2.44,4.13,3.31,6.36.53,1.39.8,2.8,1.99,3.84.95.83,2.66-.12,2.26-1.38Z"/>
      <path class="cls-1" d="M231.42,110.11c.28-4.29-.67-8.56-2.52-12.36-1.85-3.82-4.68-7.13-8.02-9.67-1.43-1.1-2.98-2.17-4.63-3.11-1.63-.95-3.45-1.73-5.17-2.3-1.73-.58-3.39-1.02-5.01-1.49-1.62-.46-3.2-.97-4.92-1.92-.11-.06-.25.11-.18.2,1.31,1.71,3.12,2.82,4.9,3.65,1.8.84,3.63,1.44,5.41,2.12,3.53,1.33,6.81,3.31,9.55,5.86,2.96,2.74,5.18,6.18,6.38,9.89.63,1.92,1.02,3.9,1.1,5.88.04,1.23-.21,2.36.5,3.54.56.96,2.5.89,2.61-.3Z"/>
      <path class="cls-1" d="M230.39,125.14c1.41-4.23,2-8.77,1.33-13.28-.34-2.25-1.06-4.48-2.19-6.51-1.13-2.04-2.71-3.81-4.44-5.26-2.98-2.53-6.45-4.62-9.73-6.48-1.61-.89-3.21-1.77-4.84-2.67-1.58-.88-3.16-1.77-4.85-2.86-.11-.07-.26.09-.19.19,2.51,3.63,6.19,5.85,9.68,7.93,3.51,2.08,7.12,4.07,9.79,6.98,2.94,3.07,4.19,7.28,4.2,11.41,0,2.15-.28,4.3-.82,6.39-.35,1.29-.91,2.43-.55,3.85.29,1.14,2.2,1.49,2.61.32Z"/>
      <path class="cls-1" d="M228.97,129.97c.99-3.71.48-7.58-.77-10.99-1.25-3.43-3.23-6.54-5.58-9.21-2-2.31-4.13-4.74-6.45-6.81-2.34-2.08-4.78-3.75-7.88-4.87-.1-.04-.23.13-.17.2,4.58,4.94,9.83,8.97,13.71,14.22,2.06,2.79,3.57,5.97,4.25,9.21.35,1.68.49,3.37.3,4.99-.16,1.01-.5,1.86,0,2.97.42.92,2.29,1.32,2.59.28Z"/>
      <path class="cls-1" d="M225.27,137.17c1.45-3.07,1.79-6.5,1.35-9.72-.43-3.23-1.62-6.35-3.37-9.05-2.91-4.67-6.98-9.7-12.91-10.14-.09,0-.2.18-.13.23,2.39,1.67,4.66,3.46,6.69,5.5,2.02,2.03,3.79,4.32,5.07,6.85,1.36,2.7,2.04,5.72,1.98,8.62-.03,1.5-.24,2.97-.7,4.33-.33.84-.78,1.5-.44,2.6.28.9,2.04,1.66,2.47.8Z"/>
      <path class="cls-1" d="M222.19,142.12c.95-5.39.9-11-.59-16.3-.64-2.27-1.29-4.77-2.58-6.94-1.28-2.16-3.2-3.96-5.86-4.44-.08-.02-.22.15-.18.19,3.54,3.43,5.76,8.12,6.66,12.97.49,2.62.56,5.29.36,7.89-.06.68-.1,1.35-.21,2.02-.08.67-.18,1.33-.32,1.99-.14.82-.53,1.54.15,2.45.54.73,2.45.92,2.57.17Z"/>
      <path class="cls-1" d="M222.98,150.65c-1.5-3.93-2.4-8.06-3.24-12.17-.74-3.59-.11-7.71-3.84-10.82-.06-.05-.27,0-.25.05.86,4.07,1.37,8.11,1.98,12.22.33,2.21.64,4.44,1.07,6.65.22,1.15.5,2.28.77,3.42.16.7.18,1.44,1.19,1.77.79.26,2.53-.58,2.33-1.11Z"/>
      <path class="cls-1" d="M89.91,46.42c-1.45,1.07-2.85,2.29-4.02,3.76-1.17,1.46-2.08,3.17-2.65,4.96-.56,1.79-.8,3.61-.92,5.37-.07.89-.09,1.76-.11,2.63-.01.87,0,1.8.07,2.7.24,3.09.78,6.48,2.31,9.44,1.49,2.94,3.99,5.39,7.12,6.08.1.02.21-.16.15-.22-4.83-4.13-7.49-10.67-7.29-17.01.13-3.47.5-7.02,2.03-9.8.77-1.45,1.84-2.69,3.12-3.76.78-.67,1.71-1.07,2.03-2.31.26-.99-1.03-2.42-1.84-1.84Z"/>
      <path class="cls-1" d="M83.67,54.78c-4.04,2.4-6.65,6.66-7.15,11.2-.22,1.92-.39,4.06.16,6.04.54,1.96,1.79,3.71,4.04,4.44.07.02.25-.09.22-.14-2.08-3.22-2.87-7.32-1.94-10.98.49-1.96,1.51-3.74,2.8-5.15.67-.73,1.39-1.39,2.19-1.9.52-.3,1.05-.41,1.14-1.39.09-.8-.87-2.46-1.46-2.13Z"/>
      <path class="cls-1" d="M76.66,126.71c-2.4-3.04-3.54-7.01-3.6-10.97-.07-3.98.84-7.95,2.51-11.59,1.41-3.18,3.72-6.16,5.96-9.12,2.24-2.97,4.43-6,5.68-9.62.04-.11-.15-.23-.22-.14-2.74,3.01-5.49,6-7.99,9.23-2.5,3.22-4.75,6.68-6.36,10.53-1.72,4.15-2.61,8.72-2.22,13.35.21,2.39.8,4.78,1.79,7.04.64,1.35,1.25,2.83,2.79,3.33,1.16.4,2.29-1.25,1.66-2.02Z"/>
      <path class="cls-1" d="M80.37,129.67c-1.14-3.13-2.12-6.27-2.48-9.43-.38-3.16.05-6.25,1.03-9.3.83-2.63,2.38-5.24,3.66-7.94,1.29-2.7,2.33-5.46,2.48-8.69,0-.1-.19-.18-.24-.11-1.66,2.82-3.24,5.65-4.72,8.54-1.47,2.88-2.91,5.82-3.88,9.02-.51,1.72-.9,3.5-1.04,5.34-.15,1.83-.05,3.68.19,5.48.26,1.87.7,3.69,1.17,5.47.29,1.1.43,2.21,1.55,2.89.89.53,2.58-.42,2.27-1.26Z"/>
      <path class="cls-1" d="M82.44,130.13c-.87-4.47-.77-9.09-.31-13.6.2-1.95.82-3.97,1.14-6,.32-2.04.33-4.11-.68-6.48-.03-.08-.24-.11-.25-.05-1.02,4.48-2.02,8.84-2.66,13.39-.34,2.44-.62,4.91-.68,7.41-.03,1.29,0,2.59.09,3.89.03.8-.06,1.61.89,2.18.75.44,2.59-.14,2.48-.73Z"/>
      <path class="cls-1" d="M75.77,137.99c-3.29-3.79-5.49-8.52-6.53-13.47-1.04-4.96-.95-10.12.2-15.04.97-4.27,3.12-8.48,5.53-12.39,2.42-3.94,5.06-7.62,7.29-11.7.07-.13-.12-.25-.22-.15-3.83,3.48-7.14,7.44-9.8,11.83-2.65,4.38-4.62,9.21-5.6,14.32-1.04,5.5-.88,11.28.62,16.77.78,2.85,1.94,5.61,3.44,8.19.95,1.55,1.85,3.21,3.6,3.86,1.34.52,2.34-1.23,1.46-2.22Z"/>
      <path class="cls-1" d="M73.02,98.48c-1.51-4.81-1.33-10.04-.16-14.91.51-2.12,1.56-4.2,2.45-6.27.9-2.1,1.6-4.21,1.65-6.99,0-.09-.18-.19-.22-.13-2.93,4.35-5.16,9-6.46,14.07-.69,2.73-1.12,5.55-1.14,8.42,0,.74,0,1.49.09,2.23.05.75.13,1.49.25,2.23.11.91.15,1.86,1.18,2.42.81.43,2.56-.43,2.36-1.06Z"/>
      <path class="cls-1" d="M68.48,112.32c-1.11-2.24-1.71-4.75-1.89-7.28-.18-2.54.05-5.09.55-7.6.43-2.17,1.43-4.34,2.21-6.54.79-2.22,1.36-4.5,1.01-7.27-.01-.09-.21-.16-.24-.1-2.26,4.74-4.42,9.48-5.53,14.7-.59,2.8-.89,5.72-.66,8.66.12,1.52.41,3.04.82,4.54.27.91.41,1.91,1.56,2.3.88.31,2.46-.84,2.16-1.42Z"/>
      <path class="cls-1" d="M72.72,141.52c-3.91-5.68-6.19-12.39-7.22-19.17-.45-2.94-.34-6.12-.35-9.23,0-3.13-.14-6.18-1.16-9.41-.03-.1-.25-.1-.26,0-1.11,6.87-1.31,13.76-.31,20.65.54,3.7,1.4,7.39,2.71,10.95.35.92.69,1.84,1.12,2.73.4.9.82,1.79,1.29,2.66.53,1.09,1.02,2.22,2.31,2.66,1.02.34,2.38-1.07,1.87-1.83Z"/>
      <path class="cls-1" d="M76.83,93.88c-.65-4,.03-8.16,1.8-11.62.76-1.51,2.06-2.78,3.23-4.03,1.2-1.28,2.2-2.6,3.29-4.85.03-.07-.07-.26-.12-.23-3.93,2.02-6.94,5.14-8.95,8.98-1.06,2.07-1.83,4.32-2.22,6.65-.2,1.21-.28,2.43-.3,3.66,0,.75-.16,1.53.77,2.07.73.42,2.59-.09,2.5-.62Z"/>
    </g>
    <g>
      <g>
        <path class="cls-1" d="M116.85,192.53c-3.02,2.1-5.76,4.72-7.53,8.03-.74,1.42-1.69,2.9-1.96,4.69-.13.88-.07,1.85.34,2.71.4.86,1.18,1.6,2.22,1.82.06.01.26-.09.24-.12-.77-1.17-.79-2.84-.38-4.35.41-1.53,1.13-2.99,2.05-4.29.99-1.41,2.24-2.6,3.56-3.61.69-.52,1.38-1.04,2.12-1.47.46-.27.99-.35.94-1.33-.03-.79-1.17-2.38-1.59-2.08Z"/>
        <path class="cls-1" d="M120.2,192.07c-2.11,1.73-4.21,3.54-5.8,5.82-.67.98-1.61,1.86-2.06,3.23-.21.67-.27,1.46.03,2.21.28.74.97,1.42,1.94,1.53.06,0,.26-.08.25-.1-.54-.77-.39-2,.1-3.04.49-1.05,1.25-2.05,2.06-2.92.89-.95,1.92-1.75,2.96-2.48.54-.38,1.07-.76,1.63-1.09.35-.21.78-.25.57-1.16-.16-.72-1.38-2.25-1.68-2.01Z"/>
        <path class="cls-1" d="M126.15,190.45c-2.42,1.87-4.69,4.01-6.27,6.68-.67,1.14-1.57,2.32-1.91,3.71-.34,1.37-.11,2.95,1.49,4.29.05.04.27.05.26.02-.16-2.66.92-5.28,2.57-7.34.89-1.12,1.96-2.07,3.08-2.9.58-.43,1.14-.86,1.76-1.22.37-.24.84-.27.67-1.21-.12-.75-1.31-2.3-1.65-2.03Z"/>
        <path class="cls-1" d="M128.11,192.59c-2,1.67-3.87,3.57-5.05,5.94-.5,1-1.23,2.06-1.41,3.28-.18,1.2.24,2.56,1.97,3.53.05.03.27.02.26,0-.45-2.16.29-4.43,1.57-6.19.69-.96,1.57-1.76,2.47-2.45.47-.36.92-.72,1.42-1.01.3-.2.7-.2.45-1.09-.19-.71-1.4-2.24-1.68-2Z"/>
        <path class="cls-1" d="M132.8,192.67c-1.86,2-3.68,4.07-4.95,6.53-.54,1.04-1.33,2.11-1.62,3.35-.28,1.23-.04,2.64,1.51,3.94.05.04.26.06.26.03-.08-2.43.86-4.77,2.25-6.72.75-1.06,1.66-1.99,2.6-2.85.49-.44.95-.89,1.47-1.29.31-.26.74-.35.4-1.22-.26-.7-1.67-2.04-1.93-1.76Z"/>
        <path class="cls-1" d="M137.85,190.85c-1.81,2.16-3.57,4.41-4.75,7.01-.5,1.11-1.25,2.25-1.47,3.55-.23,1.28.08,2.72,1.7,3.97.05.04.27.05.26.01-.2-2.51.64-4.98,1.96-7.09.71-1.14,1.6-2.16,2.52-3.1.48-.49.93-.98,1.44-1.43.31-.28.74-.41.37-1.28-.29-.69-1.78-1.95-2.03-1.65Z"/>
        <path class="cls-1" d="M140.66,190.9c-1.46,2.29-2.88,4.64-3.7,7.26-.35,1.12-.95,2.29-1.02,3.55-.07,1.25.4,2.59,2.13,3.62.05.03.27.02.26-.01-.46-2.38.07-4.83,1.1-6.99.56-1.17,1.29-2.24,2.06-3.25.4-.52.78-1.05,1.21-1.53.26-.31.67-.47.18-1.27-.38-.64-2.02-1.7-2.22-1.38Z"/>
        <path class="cls-1" d="M142.86,192.14c-.73,1.88-1.6,3.72-2.06,5.71-.19.85-.67,1.73-.65,2.67.01.93.52,1.93,2.25,2.72.05.03.27.02.26,0-.45-1.79-.11-3.61.58-5.27.37-.9.89-1.74,1.4-2.55.27-.42.5-.84.78-1.25.17-.25.5-.41-.17-1.02-.52-.49-2.31-1.27-2.41-1.01Z"/>
        <path class="cls-1" d="M143.55,190.68c.15,2.03-.08,4.07-.08,6.1,0,1.75-1.24,3.75,2.27,5.4.06.03.27.01.26-.01-.5-1.95-.4-3.89-.12-5.85.15-1.05.39-2.11.59-3.16.1-.55.17-1.09.26-1.64.06-.34.29-.67-.58-.97-.68-.24-2.63-.13-2.61.14Z"/>
        <path class="cls-1" d="M144.56,192.12c1,1.75,1.57,3.7,2.24,5.59.6,1.66-.04,3.8,3.78,4.5.06.01.26-.06.25-.08-.99-1.81-1.48-3.71-1.92-5.69-.23-1.07-.41-2.16-.66-3.25-.13-.56-.3-1.11-.45-1.66-.09-.34-.04-.75-.95-.66-.72.07-2.43,1.02-2.29,1.25Z"/>
        <path class="cls-1" d="M146.98,192.29c1.5,1.46,2.53,3.31,3.53,5.12.44.79.58,1.77,1.08,2.57.5.81,1.34,1.44,3.29,1.75.06,0,.26-.07.25-.1-1.15-1.9-1.91-3.83-2.76-5.85-.46-1.08-.9-2.2-1.45-3.27-.28-.56-.61-1.08-.94-1.62-.2-.33-.28-.77-1.15-.45-.68.26-2.05,1.65-1.85,1.85Z"/>
        <path class="cls-1" d="M148.66,192.51c2.36,1.15,4.3,3,6.01,4.93.76.87,1.2,1.91,1.69,2.73.25.41.54.75.94,1.15.39.4.94.94,1.43,1.95.03.06.23.14.25.1.27-.84.29-1.7.13-2.46-.15-.76-.43-1.44-.76-2.08-.65-1.28-1.49-2.38-2.32-3.49-.91-1.18-1.86-2.37-2.96-3.45-.57-.56-1.19-1.06-1.81-1.55-.38-.31-.7-.75-1.49-.21-.62.43-1.41,2.22-1.1,2.37Z"/>
        <path class="cls-1" d="M153.5,194.28c.86.1,1.71.61,2.46,1.31.75.7,1.42,1.58,2.1,2.48.59.77.9,1.79,1.52,2.59.62.81,1.56,1.4,3.56,1.61.06,0,.25-.09.23-.12-1.4-1.97-2.48-3.96-3.74-5.99-.67-1.08-1.36-2.24-2.39-3.26-.53-.53-1.17-.99-1.9-1.38-.43-.23-.93-.61-1.52.17-.44.61-.52,2.58-.33,2.59Z"/>
        <path class="cls-1" d="M153.85,191.31c.81.36,1.57.58,2.22.82.65.24,1.19.5,1.72.86,1.07.68,1.95,1.65,2.77,2.69,1.45,1.87,1.46,4.81,5.64,5.6.07.01.25-.09.23-.12-1.61-2.41-2.7-5.03-4.41-7.51-.94-1.31-2.05-2.64-3.54-3.6-.77-.53-1.62-.85-2.27-1.19-.42-.22-.64-.55-1.35.05-.58.46-1.49,2.19-1.01,2.42Z"/>
        <path class="cls-1" d="M158.39,191.39c2.56.49,4.73,2.35,6.5,4.39,1.6,1.81,1.97,4.81,6.22,5.08.07,0,.24-.12.22-.15-1.9-2.19-3.27-4.68-5.1-7.04-.99-1.27-2.08-2.52-3.43-3.56-.7-.54-1.48-1-2.3-1.39-.5-.24-1-.63-1.68.1-.52.58-.73,2.53-.42,2.58Z"/>
        <path class="cls-1" d="M160.32,191c2.9,1.38,5.56,3.1,7.8,5.08.98.86,1.67,2.06,2.51,3.03.85,1.01,1.88,1.75,3.95,2.58.07.03.27-.05.25-.1-1.43-3.08-3.4-5.56-5.71-7.84-1.25-1.21-2.57-2.37-3.95-3.42-.72-.54-1.46-1.03-2.19-1.53-.45-.31-.81-.76-1.64-.22-.66.42-1.43,2.22-1.04,2.41Z"/>
        <path class="cls-1" d="M165.13,192.31c2.45.67,4.57,2.24,6.36,3.98.79.76,1.3,1.83,2.03,2.68.75.86,1.74,1.5,3.81,1.89.07.01.26-.09.24-.12-1.53-2.37-3.01-4.56-4.88-6.64-1.01-1.1-2.09-2.18-3.34-3.1-.65-.48-1.34-.89-2.05-1.27-.43-.25-.84-.62-1.52.05-.53.54-.96,2.45-.65,2.54Z"/>
        <path class="cls-1" d="M167.39,190.89c1.61,1.29,3.27,1.77,4.49,2.49,1.18.65,2.15,1.67,3.26,2.82,1.88,2.01,3.09,5.1,7.44,4.61.07,0,.21-.17.18-.19-2.48-1.9-4.47-4.2-6.42-6.64-.54-.65-1.11-1.32-1.78-1.95-.66-.64-1.48-1.2-2.22-1.65-.77-.47-1.5-.85-2.06-1.29-.36-.28-.44-.63-1.29-.25-.69.27-2.08,1.65-1.62,2.06Z"/>
        <path class="cls-1" d="M172.93,191.72c2.62,1.08,4.58,3.42,6.53,5.76.85,1.02,1.52,2.35,2.6,3.39,1.05,1.02,2.57,1.76,4.66,1.24.06-.02.19-.19.16-.21-2.53-1.53-4.27-4.04-6.03-6.53-.96-1.35-1.94-2.75-3.16-4.03-.63-.66-1.34-1.26-2.11-1.82-.47-.34-.9-.83-1.73-.26-.64.45-1.23,2.33-.91,2.46Z"/>
        <path class="cls-1" d="M178.17,192.33c1.74,1.2,3.36,2.47,4.65,3.94,1.29,1.45,2.18,3.17,2.99,5.05.69,1.61,1.09,3.6,1.92,5.35.82,1.76,2.04,3.34,4.3,4.31.07.03.26-.07.24-.12-.97-1.82-1.8-3.69-2.54-5.59-.75-1.9-1.35-3.85-2.11-5.83-.42-1.06-.88-2.13-1.47-3.16-.59-1.04-1.3-2.02-2.08-2.91-.81-.92-1.7-1.74-2.58-2.54-.54-.49-.97-1.09-1.99-.78-.81.25-1.79,1.95-1.32,2.27Z"/>
        <path class="cls-1" d="M184.03,192.13c1.25,2.28,3.02,3.84,4.38,5.44.69.8,1.31,1.59,1.73,2.41.44.8.71,1.7.93,2.69.18.85.26,1.83.33,2.79.07.96.13,1.91.22,2.82.18,1.87.61,3.43,1.48,5.87.03.08.24.14.25.07.69-2.25.74-4.49.6-6.65-.07-1.08-.18-2.15-.31-3.22-.12-1.06-.24-2.14-.49-3.25-.25-1.19-.73-2.43-1.38-3.49-.64-1.08-1.38-2.04-2.1-2.95-.74-.94-1.48-1.81-2.02-2.7-.35-.57-.42-1.12-1.42-1.25-.81-.14-2.56.73-2.23,1.41Z"/>
        <path class="cls-1" d="M191.17,196.54c2.23,2.84,2.96,6.65,3.11,10.34.16,3.27-1.5,6.84,1.59,10.44.05.06.27.06.27,0-.04-3.82.51-7.57.5-11.49-.01-2.11-.17-4.27-.71-6.41-.28-1.11-.7-2.19-1.2-3.25-.31-.64-.52-1.4-1.6-1.39-.84.01-2.23,1.4-1.95,1.76Z"/>
        <path class="cls-1" d="M108.54,198.1c-3.15,2.89-4.73,7.03-4.76,11.07-.08,3.41-.23,7.64,4,9.45.07.03.27-.06.25-.1-1.5-3.2-2.28-6.74-1.81-10.14.25-1.81.93-3.52,1.86-4.96.48-.74,1.01-1.43,1.63-2.01.4-.35.86-.51.7-1.47-.12-.78-1.41-2.25-1.87-1.84Z"/>
      </g>
      <g>
        <path class="cls-1" d="M141.33,222.03c-.02,3.38-.75,6.72-1.57,9.98-.35,1.41-1.09,2.81-1.46,4.29-.37,1.49-.38,3.07.66,5.08.03.06.24.13.25.08.9-3.3,2.04-6.41,3.09-9.66.56-1.75,1.13-3.51,1.57-5.32.23-.94.4-1.89.56-2.84.11-.58.36-1.16-.47-1.73-.66-.45-2.62-.34-2.62.11Z"/>
        <path class="cls-1" d="M143.54,223.36c-.3,1.09-.3,2.11-.28,3.01.03.91.05,1.7.04,2.55-.01,1.67-.12,3.34-.23,5-.09,1.44-.55,2.94-.62,4.45-.07,1.52.25,3.06,1.69,4.77.05.05.26.07.26.03.16-3.36.67-6.57,1.12-9.89.24-1.78.51-3.58.66-5.39.08-.95.08-1.87.22-2.59.09-.48.37-.69-.32-1.31-.26-.25-.84-.59-1.38-.76-.54-.18-1.08-.16-1.16.14Z"/>
        <path class="cls-1" d="M145.97,223.88c.02,4.07.48,7.99.75,11.76.13,1.63-.15,3.33-.13,4.98,0,1.66.3,3.31,1.59,5.3.04.06.26.09.26.04.25-1.93.44-3.81.54-5.71.1-1.9.09-3.79.07-5.69-.03-2.04-.04-4.07,0-6.05.02-1.03.02-2.04.09-3.03.05-.62.28-1.19-.56-1.77-.67-.47-2.62-.39-2.62.17Z"/>
        <path class="cls-1" d="M147.68,224.51c1.26,3.01,2.01,6.19,2.81,9.34.71,2.75.12,6.02,4.02,8.07.06.03.27-.02.26-.07-1.01-3.08-1.57-6.18-2.12-9.35-.3-1.71-.55-3.44-.89-5.15-.18-.89-.4-1.77-.61-2.65-.13-.54-.1-1.14-1.08-1.31-.77-.13-2.54.71-2.37,1.11Z"/>
        <path class="cls-1" d="M148.89,225.11c1.85,2.86,3.22,5.99,4.61,9.08.6,1.34.93,2.89,1.61,4.28.34.69.78,1.34,1.39,1.91.31.29.66.55,1.06.79.21.13.41.19.61.39.09.09.19.22.23.41.04.19-.06.49-.26.69-.1.1.03.29.19.2.38-.19.61-.63.64-.9.05-.28.01-.47-.02-.65-.04-.16-.1-.34-.16-.45l-.14-.28c-.18-.38-.35-.76-.53-1.14-.34-.76-.67-1.53-.98-2.3-.62-1.54-1.19-3.11-1.77-4.69-.62-1.7-1.2-3.43-1.88-5.13-.35-.88-.74-1.74-1.13-2.6-.24-.53-.33-1.14-1.33-1.15-.79,0-2.38,1.15-2.13,1.53Z"/>
        <path class="cls-1" d="M142.19,236.39c-2.29,5.13-2.91,10.79-2.3,16.19.49,4.63.73,10.08,5.24,13.2.07.05.27-.04.24-.11-1.82-4.69-3.06-9.58-3.2-14.54-.07-2.66.24-5.31.88-7.8.33-1.29.72-2.56,1.25-3.75.34-.74.83-1.33.39-2.36-.35-.83-2.18-1.53-2.51-.82Z"/>
        <path class="cls-1" d="M144.92,237.66c-.96,5.05-1.24,10.27-.29,15.35.41,2.17.75,4.57,1.72,6.74.95,2.15,2.54,4.04,5.05,4.83.08.03.25-.11.21-.17-2.82-3.72-4.36-8.31-4.8-12.95-.24-2.5-.12-5.02.2-7.47.17-1.27.36-2.53.66-3.77.17-.77.56-1.45-.13-2.33-.55-.71-2.49-.94-2.62-.24Z"/>
        <path class="cls-1" d="M148.65,240.12c.16,4.55.19,9.11.69,13.65.41,3.87-.06,8.62,4.13,11.48.07.04.27-.03.25-.08-1.37-4.1-1.94-8.38-2.1-12.69-.09-2.32-.02-4.65.08-6.96.05-1.2.07-2.4.15-3.59.04-.74.27-1.45-.6-2.11-.68-.53-2.63-.31-2.61.31Z"/>
        <path class="cls-1" d="M149.55,234.52c2.24,5.25,3.5,10.87,4.32,16.5.35,2.43.3,5.07.53,7.64.23,2.58.77,5.1,2.38,7.57.05.08.27.05.27-.02-.15-5.67-.34-11.24-.98-16.88-.35-3.03-.79-6.07-1.46-9.08-.35-1.56-.77-3.1-1.23-4.63-.27-.95-.42-1.93-1.54-2.43-.88-.39-2.58.64-2.28,1.34Z"/>
        <path class="cls-1" d="M152.95,237.36c.65.5,1.1,1.64,1.46,2.93.38,1.31.73,2.62,1.03,3.95.62,2.65,1.11,5.33,1.54,8.01.38,2.32.39,4.84.73,7.28.35,2.45,1.04,4.82,2.83,7.04.06.07.27.03.26-.04-.6-5.34-.99-10.6-1.66-15.93-.35-2.87-.73-5.75-1.28-8.61-.14-.74-.3-1.48-.47-2.21-.16-.72-.34-1.51-.65-2.34-.19-.51-.39-1.07-.78-1.54-.38-.47-.97-.84-1.67-.8-.56.03-.93.59-1.15,1.12-.21.54-.35,1.01-.19,1.14Z"/>
        <path class="cls-1" d="M138.02,247.6c-1.52,5.38-1.52,11.23.48,16.51.83,2.26,1.9,4.72,3.49,6.66,1.59,1.95,3.61,3.38,6.33,3.81.09.01.22-.15.17-.2-1.85-1.73-3.58-3.56-5.01-5.59-1.43-2.03-2.52-4.27-3.12-6.65-.68-2.55-.79-5.22-.53-7.77.13-1.33.36-2.64.72-3.9.22-.79.64-1.46.05-2.42-.47-.78-2.38-1.19-2.6-.44Z"/>
        <path class="cls-1" d="M143.54,252.93c-.18,4.36.17,8.78,1.57,12.95.6,1.78,1.12,3.78,2.2,5.48,1.07,1.69,2.69,3.06,5.1,3.27.07,0,.23-.15.19-.19-2.82-2.74-4.63-6.41-5.49-10.22-.47-2.06-.63-4.17-.61-6.25.01-1.07.02-2.14.15-3.2.06-.66.34-1.26-.48-1.92-.65-.53-2.6-.53-2.62.08Z"/>
        <path class="cls-1" d="M150.8,250.28c1.21,4.13,1.81,8.4,2.37,12.66.5,3.71-.42,7.88,3.18,11.29.06.05.27.02.26-.04-.61-4.2-.87-8.35-1.19-12.58-.17-2.27-.33-4.56-.59-6.84-.14-1.18-.33-2.36-.52-3.53-.11-.72-.07-1.48-1.07-1.9-.79-.33-2.62.39-2.45.94Z"/>
        <path class="cls-1" d="M147.4,256.32c.12,3.99.48,8.01,1.66,11.85.5,1.64.87,3.5,1.76,5.11.88,1.6,2.28,2.95,4.58,3.31.07.01.24-.13.21-.16-2.35-2.79-3.78-6.24-4.49-9.8-.39-1.92-.52-3.88-.55-5.81-.01-1-.03-1.99.04-2.98.03-.61.27-1.19-.6-1.76-.68-.45-2.63-.32-2.61.24Z"/>
        <path class="cls-1" d="M154.08,249.29c1.72,4.35,3.03,8.82,3.92,13.29.39,1.93.37,4.03.58,6.04.21,2.03.68,3.96,2.1,6.16.05.07.26.07.26,0,.27-4.68-.07-9.21-.8-13.76-.39-2.45-.86-4.89-1.43-7.3-.3-1.25-.65-2.48-.99-3.71-.21-.76-.25-1.55-1.3-1.92-.83-.29-2.58.6-2.35,1.19Z"/>
        <path class="cls-1" d="M157.82,249.83c3,3.66,4.83,8.16,5.85,12.74.45,1.99.42,4.17.6,6.28.18,2.13.6,4.19,1.99,6.49.04.07.26.08.26.01.33-4.88.19-9.66-.76-14.45-.52-2.57-1.24-5.13-2.29-7.59-.28-.63-.56-1.27-.89-1.88-.31-.62-.65-1.23-1.01-1.83-.41-.75-.76-1.56-1.9-1.64-.9-.05-2.25,1.39-1.86,1.87Z"/>
        <path class="cls-1" d="M161,246.88c3.13,4.39,5.69,9.14,7.19,14.12.66,2.15.79,4.55.99,6.83.2,2.32.52,4.5,1.54,7.19.03.09.25.11.26.04,1.1-5.41.59-10.8-.88-15.99-.8-2.79-1.85-5.51-3.11-8.13-.65-1.35-1.38-2.66-2.11-3.97-.45-.8-.76-1.68-1.93-1.87-.92-.15-2.38,1.18-1.96,1.77Z"/>
        <path class="cls-1" d="M167.28,244.99c1.51,1.67,2.49,3.91,3.37,6.22.87,2.31,1.56,4.67,2.14,7.06.5,2.06.62,4.36,1,6.52.18,1.07.4,2.08.69,3.11.29,1.04.65,2.11.98,3.49.02.09.23.15.25.08.92-2.62.64-5.21.34-7.64-.32-2.43-.71-4.85-1.21-7.28-.54-2.61-1.18-5.22-2.05-7.78-.45-1.33-1.01-2.66-1.73-3.98-.43-.8-.84-1.72-2.04-1.77-.94-.02-2.13,1.56-1.75,1.97Z"/>
        <path class="cls-1" d="M172.56,244.2c2.23,3.81,4.07,7.78,5.31,11.82.54,1.75.65,3.69.93,5.53.29,1.86.79,3.59,2.14,5.75.04.07.26.08.26.02.38-4.49-.22-8.78-1.35-13.01-.61-2.27-1.35-4.52-2.2-6.7-.44-1.13-.95-2.23-1.43-3.33-.3-.68-.44-1.42-1.51-1.59-.85-.13-2.45,1-2.15,1.51Z"/>
        <path class="cls-1" d="M178.67,245.02c.96.58,1.53,2.3,2.06,4.02.53,1.71.96,3.44,1.38,5.18.36,1.5.38,3.17.76,4.74.38,1.58,1.13,3.07,3,4.42.06.04.27,0,.26-.05-.79-3.51-1.27-6.97-1.87-10.51-.33-1.9-.65-3.82-1.11-5.72-.23-.97-.54-2.05-1.17-3.16-.2-.34-.4-.71-.73-.98-.32-.27-.77-.41-1.3-.25-.43.14-.78.7-1.01,1.22-.23.53-.39.99-.27,1.06Z"/>
        <path class="cls-1" d="M181.96,241.04c1.71,3.21,3.05,6.55,4.25,9.88.51,1.44.69,3.07,1.19,4.57.25.75.54,1.38.93,2.02.37.65.9,1.35,1.22,2.56.02.08.22.16.24.1.45-1.04.47-2.12.36-3.05-.12-.95-.35-1.83-.57-2.68-.43-1.72-.89-3.43-1.39-5.14-.53-1.85-1.07-3.7-1.68-5.52-.32-.94-.68-1.86-1.02-2.79-.21-.57-.26-1.2-1.27-1.32-.8-.09-2.47.93-2.24,1.36Z"/>
        <path class="cls-1" d="M185.53,236.19c1.9,3.01,3.41,6.19,4.64,9.38.53,1.38.71,2.95,1.14,4.39.44,1.46,1.15,2.78,2.89,4.28.06.05.27.03.26-.02-.46-3.59-1.27-6.94-2.35-10.31-.58-1.8-1.2-3.61-1.91-5.36-.37-.91-.78-1.79-1.18-2.68-.24-.55-.34-1.17-1.35-1.2-.8-.02-2.4,1.11-2.14,1.51Z"/>
        <path class="cls-1" d="M188.07,229.73c1.86,3.36,2.98,7.07,3.89,10.78.39,1.61.42,3.39.79,5.08.37,1.7,1.08,3.32,2.89,4.86.06.05.27.01.26-.04-.65-3.83-1.11-7.57-1.82-11.38-.39-2.05-.8-4.11-1.39-6.14-.3-1.05-.67-2.08-1.05-3.11-.22-.63-.32-1.33-1.36-1.48-.82-.11-2.45.97-2.21,1.42Z"/>
        <path class="cls-1" d="M194.52,229.54c.94,3.64,1.49,7.35,1.99,11.01.22,1.58.09,3.29.31,4.94.23,1.65.81,3.23,2.5,4.85.05.05.27.04.26-.02-.34-3.71-.54-7.3-.81-10.97-.14-1.97-.26-3.96-.45-5.93-.1-1.02-.24-2.03-.37-3.05-.07-.62.02-1.27-.94-1.64-.76-.29-2.62.31-2.5.8Z"/>
        <path class="cls-1" d="M198.99,224.72c-.03,3.31.27,6.51.74,9.58.2,1.32.11,2.75.37,4.08.27,1.35.9,2.55,2.62,3.89.06.04.27.03.26-.01-.4-3.1-.8-6.03-.98-9.04-.1-1.61-.09-3.22-.02-4.78.04-.81.06-1.6.15-2.38.05-.49.31-.92-.54-1.4-.66-.39-2.61-.4-2.62.06Z"/>
        <path class="cls-1" d="M202.56,219.58c.38,2.63.32,5.3.42,7.96.09,2.31-1.11,4.88,2.39,7.05.06.03.27.02.26-.02-.49-2.59-.44-5.15-.27-7.75.09-1.4.26-2.81.36-4.22.05-.73.07-1.46.1-2.2.02-.45.21-.91-.68-1.23-.71-.26-2.64.06-2.58.41Z"/>
        <path class="cls-1" d="M206.1,215.22c.33,2.61.12,5.25-.02,7.87-.12,2.3-1.62,4.59,1.5,7.28.05.04.26.06.26.02-.07-2.66.29-5.19.68-7.8.21-1.4.47-2.81.64-4.24.09-.74.13-1.48.18-2.23.04-.46.23-.92-.66-1.27-.7-.27-2.64.02-2.59.37Z"/>
        <path class="cls-1" d="M207.84,207.83c.48,2.09.49,4.24.64,6.36.13,1.86-1.05,3.9,2.45,5.67.06.03.27.01.26-.01-.48-2.12-.46-4.19-.34-6.33.08-1.14.17-2.32.25-3.48.03-.6.02-1.21.02-1.81,0-.37.17-.77-.73-.96-.71-.15-2.62.28-2.56.55Z"/>
        <path class="cls-1" d="M209.72,202.98c.8,1.59,1.12,3.37,1.5,5.09.16.75,0,1.6.25,2.37.24.78.89,1.47,2.69,2.11.06.02.27,0,.26-.03-.63-1.79-.79-3.54-.94-5.4-.08-.99-.11-2.01-.24-3.03-.06-.53-.17-1.04-.28-1.56-.06-.32.03-.7-.87-.65-.71.05-2.48.89-2.37,1.1Z"/>
        <path class="cls-1" d="M210.94,191.47c.41,2.15.55,4.35,1.01,6.5.38,1.82-.24,4.32,3.63,4.98.06,0,.26-.07.25-.09-1.06-1.8-1.48-3.82-1.62-5.88-.08-1.11-.04-2.23-.01-3.34,0-.58,0-1.14.01-1.71,0-.35.2-.71-.7-.92-.71-.17-2.63.17-2.57.46Z"/>
        <path class="cls-1" d="M134.33,247.75c-1.23,5.03-1.66,10.29-.78,15.43.38,2.19.71,4.62,1.69,6.8.96,2.17,2.58,4.06,5.11,4.81.08.02.24-.12.21-.17-2.89-3.67-4.45-8.3-4.81-12.95-.2-2.51-.02-5.03.39-7.47.22-1.26.45-2.52.81-3.74.2-.76.63-1.41-.02-2.33-.51-.73-2.44-1.07-2.6-.37Z"/>
        <path class="cls-1" d="M129.22,250.64c-.42,4.05-.57,8.18.15,12.22.31,1.73.46,3.66,1.17,5.4.7,1.73,1.96,3.27,4.22,3.91.07.02.25-.1.23-.14-2.07-3.09-3.11-6.77-3.39-10.46-.15-1.99-.05-3.99.18-5.95.12-1.01.23-2.02.42-3.02.11-.62.42-1.17-.36-1.86-.61-.55-2.56-.67-2.62-.11Z"/>
        <path class="cls-1" d="M125.5,250.27c-.22,3.75-.45,7.51-.07,11.27.16,1.61.1,3.38.55,5.05.45,1.66,1.41,3.2,3.5,4.13.07.03.27-.05.25-.1-1.42-3.19-1.96-6.68-1.98-10.16,0-1.88.17-3.75.41-5.59.12-.96.23-1.91.39-2.85.09-.58.38-1.12-.43-1.74-.64-.49-2.59-.53-2.62-.01Z"/>
        <path class="cls-1" d="M122.22,247.3c-2.04,3.87-2.4,8.34-1.46,12.4.76,3.44,1.53,7.74,6.11,8.78.07.02.25-.11.22-.15-2.21-2.98-3.76-6.42-4.16-10.02-.21-1.92-.02-3.85.46-5.61.25-.91.56-1.79.99-2.59.28-.5.69-.84.22-1.71-.37-.71-2.09-1.63-2.39-1.09Z"/>
        <path class="cls-1" d="M117,242.54c-.29,3.58-.58,7.18-.26,10.78.14,1.54.06,3.24.49,4.84.43,1.59,1.38,3.07,3.45,3.92.06.03.27-.06.25-.1-1.39-3.03-1.89-6.36-1.85-9.68.02-1.79.23-3.57.49-5.31.14-.91.26-1.81.44-2.7.1-.55.4-1.06-.4-1.67-.63-.49-2.58-.58-2.62-.09Z"/>
        <path class="cls-1" d="M112.58,232.61c-.28,3.88-.63,7.77-.44,11.67.08,1.67-.08,3.5.27,5.26.34,1.75,1.19,3.41,3.2,4.58.06.04.27-.03.25-.08-1.18-3.46-1.5-7.11-1.36-10.75.08-1.96.33-3.91.62-5.84.15-1,.28-2,.46-2.98.11-.61.4-1.18-.39-1.83-.63-.52-2.58-.56-2.62-.03Z"/>
        <path class="cls-1" d="M109.7,226.21c-1.62,4.1-2.6,8.51-2.34,12.95.11,1.89.13,3.99.8,5.93.65,1.92,1.97,3.64,4.29,4.31.07.02.25-.1.22-.15-2.23-3.22-3.14-7.26-2.95-11.17.1-2.11.55-4.18,1.19-6.14.33-1.02.67-2.02,1.13-2.98.26-.6.72-1.07.17-1.96-.44-.72-2.28-1.36-2.5-.79Z"/>
        <path class="cls-1" d="M105.67,215.81c1.01,2.45,1.28,5.14,1.36,7.76.03,1.14-.31,2.33-.31,3.52,0,1.2.37,2.41,1.81,3.94.05.05.26.08.26.04.17-2.81.5-5.46.63-8.25.07-1.5.11-3.02-.02-4.55-.07-.79-.19-1.58-.34-2.37-.08-.48-.03-1.02-.98-1.15-.75-.09-2.53.73-2.4,1.05Z"/>
        <path class="cls-1" d="M188.42,216.83c-.15,3.46.4,6.88,1.54,9.99.97,2.66,1.32,6.13,5.62,6.8.07.01.25-.11.22-.14-1.83-2.48-3.1-5.25-3.81-8.17-.38-1.57-.55-3.17-.55-4.71,0-.8,0-1.58.11-2.35.04-.48.32-.9-.51-1.41-.65-.42-2.6-.5-2.62-.02Z"/>
        <path class="cls-1" d="M187.01,208.74c1,3.55,1.99,7.13,3.5,10.52.65,1.45,1.13,3.13,2.07,4.55.93,1.41,2.3,2.56,4.55,2.8.07,0,.24-.13.21-.17-2.3-2.57-3.86-5.67-4.96-8.92-.59-1.75-1.01-3.56-1.37-5.35-.19-.93-.4-1.85-.55-2.79-.1-.57,0-1.17-.97-1.48-.76-.25-2.62.36-2.48.84Z"/>
        <path class="cls-1" d="M189.79,204.83c.79,2.55,1.21,5.19,1.85,7.78.55,2.22,0,5.11,3.89,6.27.06.02.26-.06.25-.09-1.09-2.33-1.6-4.82-1.95-7.36-.19-1.37-.28-2.75-.41-4.13-.07-.71-.18-1.42-.26-2.12-.05-.44.07-.9-.87-1.09-.74-.15-2.61.4-2.5.74Z"/>
        <path class="cls-1" d="M103.9,214.31c.48,1.86.37,3.8.26,5.69-.05.82-.44,1.65-.45,2.51,0,.87.39,1.78,1.88,3.03.05.04.26.08.26.05.02-2.06.39-3.94.74-5.94.19-1.07.41-2.17.52-3.28.06-.58.06-1.16.07-1.74,0-.36.17-.75-.73-.91-.71-.12-2.61.35-2.55.59Z"/>
        <path class="cls-1" d="M103.83,229.17c-.08,2.88-.52,5.8-.31,8.82.09,1.29-.03,2.75.43,4.11.45,1.34,1.5,2.57,3.57,2.82.06,0,.25-.1.23-.13-1.59-2.14-2.02-4.94-1.86-7.61.08-1.46.35-2.9.62-4.34.14-.76.27-1.5.41-2.25.09-.46.36-.9-.47-1.4-.65-.39-2.61-.41-2.62-.02Z"/>
        <path class="cls-1" d="M96.27,223.25c-.06,2.72-.14,5.47.35,8.17.21,1.15.21,2.47.7,3.63.49,1.16,1.47,2.15,3.49,2.4.06,0,.25-.09.23-.12-1.42-2.03-2.04-4.48-2.15-6.93-.06-1.32.06-2.64.22-3.93.09-.67.15-1.33.27-1.99.07-.41.33-.77-.5-1.21-.66-.35-2.61-.41-2.62-.03Z"/>
        <path class="cls-1" d="M99.62,224.64c-.05,2.79-.28,5.59-.08,8.39.09,1.2-.08,2.53.22,3.78.31,1.24,1.09,2.41,3.03,3.12.06.02.27-.04.25-.07-1.01-2.42-1.26-5.03-1.14-7.62.06-1.4.27-2.79.49-4.16.11-.71.2-1.42.33-2.13.08-.44.34-.84-.5-1.3-.66-.37-2.61-.39-2.62,0Z"/>
        <path class="cls-1" d="M91.45,209.46c.52,3,.61,6.05.84,9.08.21,2.63-.86,5.63,2.74,7.96.06.04.27,0,.26-.03-.61-2.93-.69-5.85-.66-8.83.02-1.6.11-3.21.14-4.82.02-.84-.01-1.67-.02-2.5,0-.51.16-1.04-.75-1.39-.72-.27-2.64.13-2.56.53Z"/>
        <path class="cls-1" d="M86.3,197.24c.8,2.49,1.04,5.12,1.29,7.71.11,1.12-.12,2.34.05,3.51.08.59.26,1.18.64,1.74.34.55,1.01.89,1.33,2.05.02.07.21.18.23.13.47-.96.31-1.78.27-2.41-.06-.65-.09-1.3-.12-1.95-.05-1.3-.05-2.61-.06-3.93,0-1.42.02-2.87-.06-4.31-.04-.75-.13-1.49-.21-2.24-.05-.46.06-.96-.88-1.13-.74-.14-2.59.5-2.48.84Z"/>
      </g>
    </g>
    <g>
      <g>
        <path class="cls-1" d="M128.59,167.7c2.15-1.96,4.1-4.26,5.48-6.9.71-1.31,1.25-2.7,1.7-4.11.42-1.41.74-2.84.97-4.26.22-1.42.38-2.83.52-4.22.06-.72.15-1.32.19-2.15.03-.77.03-1.52-.03-2.25-.22-2.94-.72-5.78-1.98-8.64-.36-.71-.72-1.43-1.34-2.13-.57-.67-1.24-1.18-1.92-1.63-1.38-.87-2.83-1.38-4.19-1.81-2.71-.85-5.46-1.55-8.25-2.08-5.58-1.08-11.34-1.42-17.06-.84-4.91.53-9.99,1.71-14.76,3.93-1.19.53-2.38,1.14-3.57,1.92-1.17.78-2.34,1.77-3.23,3.05-.9,1.27-1.48,2.71-1.79,4.13-.33,1.42-.41,2.82-.41,4.17,0,1.35.11,2.65.23,3.92.12,1.25.26,2.51.43,3.77.34,2.52.83,5.05,1.67,7.45.84,2.4,2.05,4.66,3.64,6.5,1.58,1.84,3.54,3.26,5.6,3.95.26.09.25-.18.03-.32-2.13-1.23-3.87-3.16-5.15-5.35-1.3-2.2-2.13-4.67-2.66-7.22-.54-2.55-.79-5.18-1-7.82-.2-2.65-.44-5.28-.01-7.79.21-1.25.62-2.45,1.25-3.5.64-1.05,1.54-1.92,2.58-2.65,1.04-.73,2.19-1.34,3.38-1.89l1.79-.8,1.84-.69c2.47-.86,5.02-1.5,7.61-1.92,2.59-.38,5.22-.56,7.85-.55,5.67.05,11.3,1.02,16.73,2.6,2.69.85,5.55,1.59,7.09,3.31.68.78,1.21,2.03,1.57,3.29.37,1.28.64,2.62.79,3.98.16,1.39.24,2.84.12,4.11-.16,1.45-.32,2.95-.53,4.37-.42,2.86-1.08,5.58-2.35,8-.77,1.49-1.74,2.84-2.78,4.1-1.02,1.28-2.07,2.5-3.01,3.86-.75,1.06-.63,1.87,0,2.14.61.26,1.82.06,2.98-1.03Z"/>
        <path class="cls-1" d="M79.48,140.53c-.55,3.65-.72,7.36-.47,11.04l2.58-1.28c-.46-.44-.78-1.13-1-2.09-.23-.94-.36-2.06-.71-3.28-.17-.61-.43-1.26-.8-1.88-.36-.63-.89-1.23-1.48-1.68-.59-.46-1.26-.8-1.97-1.02-.65-.23-1.75-.29-1.56-.26-.04,0-.1,0-.12-.04-.02-.09.02-.1.03-.24.03-.6.06-1.2.08-1.81.03-.6.05-1.21.08-1.82.02-.01.03,0,.03,0,0,0,0,0,0-.01.02,0-.04,0,.03,0h.21s.42-.05.42-.05l.83-.08c1.11-.13,2.2-.34,3.26-.63,2.12-.59,4.11-1.55,5.8-3.01.09-.08,0-.29-.1-.27-2.01.51-4.06.89-6.12,1.14-1.03.13-2.06.22-3.1.29l-.78.04-.86.03-2.13.04-.09,4.27-.06,1.82c0,.35-.04.84-.02,1.24.03.41.09.79.36,1.11.47.52,1.14.53,1.87.52.4,0,.53.03.74.07.2.04.39.1.58.18.7.28,1.3.79,1.66,1.4.37.63.58,1.41.72,2.29.15.87.24,1.83.49,2.87.23,1.02.72,2.22,1.67,3.15l2.52,2.48-.04-3.7v-1.03c0-2.06.1-4.11.39-6.14.18-1.25.59-2.41-.11-3.7-.55-1.03-2.67-1.06-2.84.06Z"/>
      </g>
      <g>
        <path class="cls-1" d="M159.87,159.23c-.75-1.09-1.35-2.26-2.03-3.38l-.86-1.76-.43-.88-.36-.91c-1.02-2.39-1.71-4.91-2-7.44-.28-2.53-.18-5.1.53-7.48.33-1.19.81-2.35,1.43-3.36.57-.98,1.35-1.68,2.38-2.35,1-.65,2.22-1.21,3.42-1.75.59-.28,1.2-.54,1.82-.77.61-.24,1.22-.51,1.85-.71,2.47-.91,5.04-1.57,7.62-2.08,5.17-1.02,10.51-1.2,15.74-.66,2.25.28,4.54.64,6.79,1.26,2.23.62,4.6,1.28,6.42,2.32,1.84,1.03,2.98,2.54,3.66,4.61.69,2.05.9,4.4,1.14,6.87.26,2.5.59,4.88.69,7.19.05,1.15.03,2.29-.08,3.39-.05.56-.13,1.1-.24,1.66-.09.57-.22,1.12-.36,1.66-.53,2.2-1.44,4.25-2.74,6.11-1.29,1.86-3.04,3.48-4.42,5.18-.17.21.08.3.29.13,1.93-1.59,4.24-3.18,5.91-5.39,1.72-2.17,2.77-4.76,3.4-7.35.68-2.64.68-5.37.5-7.99-.09-1.32-.22-2.62-.34-3.91-.13-1.29-.21-2.59-.38-3.91-.32-2.6-.89-5.36-2.55-7.66-.83-1.13-1.93-2.07-3.13-2.75-1.2-.69-2.46-1.17-3.72-1.59-2.52-.81-5.09-1.47-7.7-1.93-2.62-.44-5.27-.7-7.93-.79-5.73-.14-11.5.54-17.04,2.15-2.77.8-5.48,1.82-8.11,3.05-1.31.63-2.69,1.36-3.91,2.49-.6.55-1.18,1.27-1.58,1.93-.42.67-.77,1.37-1.09,2.07-1.26,2.95-1.71,6.16-1.57,9.29.14,3.14.88,6.19,1.93,9.07,1.31,3.53,2.92,6.94,5.58,9.13,2.05,1.75,3.09-.45,1.5-2.78Z"/>
        <path class="cls-1" d="M206.13,133.77c1.16,3.23,1.83,6.65,2.06,10.08l.27,3.93,2.48-3.07c.49-.6.83-1.29,1.05-1.96.22-.68.31-1.32.38-1.93.12-1.21.11-2.28.26-3.19.15-.92.4-1.55.88-2.03.24-.25.53-.45.85-.6.37-.16.37-.19,1.65-.35.69-.14,1.23-.44,1.63-1,.28-.42.4-.86.42-1.38.01-.51-.13-1.15-.19-1.62-.08-.59-.15-1.19-.23-1.8-.08-.61-.16-1.21-.24-1.82-.19-1.21-.38-2.42-.56-3.63l-3.26.46-.96.14-.79.13c-1.05.18-2.09.38-3.12.63-2.06.5-4.08,1.2-6.06,2.29-.1.06-.06.29.05.28,2.13-.1,4.25-.23,6.35-.42,1.05-.09,2.11-.2,3.16-.32l2.5-.31.44,2.94.25,1.8.07.57c.02.17.05.36-.05.51-.19.25-.55.16-.82.2-.1,0-.47.08-.75.16-.29.09-.57.2-.84.33-1.01.5-1.89,1.31-2.43,2.35-.54,1.03-.73,2.12-.85,3.1-.12.99-.17,1.92-.33,2.72-.15.82-.44,1.42-.82,1.83l2.64.83-.04-1.1c-.11-2.21-.42-4.41-.88-6.59-.28-1.33-.44-2.72-1.71-3.57-1.01-.66-2.81.46-2.47,1.42Z"/>
      </g>
      <g>
        <path class="cls-1" d="M153.85,131.83c-.21.62-.82,1.23-1.64,1.71-.82.49-1.78.85-2.83,1.19-2.08.69-4.17,1.22-6.21,1.42-1.79.17-3.54-.3-5.18-.77-.83-.24-1.65-.45-2.58-.65-.93-.21-1.98-.38-3.32-.7-.09-.02-.26.13-.22.18,1.59,1.91,3.69,3.08,5.86,3.76,2.18.68,4.51.83,6.77.62,2.46-.22,4.82-.72,7.18-1.39,1.25-.39,2.55-.92,3.8-1.93.38-.32.78-.65,1.03-1.12.25-.45.34-1.03.04-1.6-.24-.46-.91-.67-1.52-.77-.62-.09-1.13-.11-1.19.04Z"/>
        <path class="cls-1" d="M154.29,146.73c-.76-2.02-2.19-3.65-3.88-4.77-1.68-1.12-3.74-1.77-5.77-1.75-1.72,0-3.65.09-5.25.93-1.59.82-2.79,2.35-2.64,4.66,0,.07.17.24.2.2,2.06-2.4,5.41-3.74,8.43-3.19,1.59.28,3.03,1.17,4.03,2.25.52.56.96,1.17,1.23,1.81.15.43.08.8,1.06.92.8.12,2.8-.47,2.59-1.07Z"/>
        <path class="cls-1" d="M150.77,136.37c-3.58-.17-6.48,1.4-9.09,2.33-1.3.48-2.6.84-3.77.89-.14,0-.34-.03-.42-.07-.02,0-.03-.03-.03,0-.09.15-.17.28-.25.38-.17.21-.33.27-.3.26.12,0,0-.03.16.02.07.03.2.09.34.2.07.05.15.12.25.2,0,0,0,0,.01,0,.03-.03.11-.09.22-.16l.43-.29c.5-.33.99-.61,1.46-.79.47-.19.87-.26,1.36-.28.96-.04,2.17.19,3.48.32,1.27.13,2.43.19,3.62.25.59.04,1.2.08,1.86.16.33.04.65.08,1,.23.35.15.7.42.92.8.06.1.29.02.28-.1-.04-.53-.35-1.05-.7-1.4-.35-.36-.71-.57-1.04-.77-.68-.39-1.39-.7-2.1-.92-1.43-.45-2.86-.66-4.26-.86-1.39-.19-2.9-.42-4.47-.02-.77.2-1.48.54-2.12.9l-.94.55c-.29.18-.68.39-1.06.83-.2.23-.39.59-.43,1-.05.38.06.84.29,1.18.48.66,1.05.85,1.54,1.01.25.07.51.11.77.13.28.02.5,0,.7,0,.42-.02.84-.06,1.26-.12,1.66-.23,3.19-.75,4.63-1.22,1.49-.49,2.88-.95,4.22-1.09.85-.09,1.48.13,2.28-.69.33-.32.58-.99.6-1.6.03-.61-.22-1.19-.7-1.22Z"/>
        <path class="cls-1" d="M144.84,142.51c1.29-.24,2.6.14,3.82.47.54.15.98.65,1.55.74.31.05.45-.08.81-.31.35-.25.98-.46,1.92-.41.06,0,.28-.09.27-.12-.22-.48-.63-.84-1.06-1.08-.41-.23-.8-.35-1.13-.49-.68-.28-1.35-.6-2.04-.92-.75-.34-1.52-.73-2.35-1-.43-.14-.87-.22-1.32-.31-.27-.05-.57-.29-.75.65-.13.74.12,2.81.29,2.78Z"/>
        <path class="cls-1" d="M147.08,141.7c.91-.3,1.87-.11,2.79-.1.41,0,.81.36,1.23.26.43-.1.89-.66,1.6-2.44.02-.06.05-.28.04-.28-1.1.36-2.05.18-3.08-.12-.55-.16-1.12-.4-1.71-.57-.3-.09-.61-.13-.92-.19-.19-.04-.41-.25-.44.68-.02.74.36,2.79.48,2.75Z"/>
      </g>
      <path class="cls-1" d="M80.33,143.79l-.03-2.36c0-.16,0-.43-.17-.83-.16-.41-.59-.79-.95-.92-.17-.06-.12-.04-.14-.05h-.03s-.06,0-.06,0c-.08,0-.15,0-.22-.03-.14-.05-.25-.14-.32-.25-.08-.08.06-.06.13-.07.08-.01.15-.03.22-.05.06-.02.1-.04.15-.06l.07-.03s.02-.01.02-.01l.19-.14c.62-.48,1.16-1.08,1.6-1.75l-2.13-2.08c-.38.24-.8.43-1.25.53-.84.22-1.8.06-2.54-.33l-.46,3.22c1.76-.13,3.56-.53,5.1-1.4,1.53-.87,2.79-2.2,3.35-4.02.02-.08-.11-.24-.16-.2-2.44,1.88-5.48,3.02-8.57,3.32l-2.37.23,2.19.99c1.64.74,3.57.77,5.28.05.26-.11.52-.24.76-.39l-1.23-1.2c-.33.42-.71.8-1.16,1.09l-.2.13-.34.2c-.21.14-.52.22-.79.33-.7.16-1.66.25-3.01.38.17.7.06.93-.08,1.03l-.05.03s-.02,0-.02.02l.07.11.28.44c.19.29.36.56.56.83.51.65,1.21,1.23,2.17,1.61.49.19.98.33,1.67.38h.13s.03,0,.04-.02v-.02s.02,0,.02,0h0s.4-1.06.4-1.06h0c.03-.08.04-.1.06-.11,0-.01.03,0-.18.07-.1.02-.23.05-.5.07l-.59.03s0,0,0,.02l-.02.24c-.06.83-.29,1.64.55,2.38.66.59,2.58.35,2.56-.33Z"/>
      <path class="cls-1" d="M211.97,135.99c-.19-.82-.31-1.38-.25-1.48-.05.01.11-.06.21-.12.13-.06.18-.11.37-.18.35-.15.72-.28,1.05-.45.29-.18.67-.37.9-.55.16-.16.4-.36.5-.5.43-.58.47-.77.58-.89.17-.21.31-.22.47-.53.07-.14.15-.36.13-.72,0-.32-.19-.82-.45-1.06-.46-.41-.81-.47-1.22-.56-.43-.04-.81-.16-2.16.21-.67.18-1.63.69-2.42,1.01-.19.07-.4.15-.53.16l-.1.02h0s0-.04-.01.03c-.06.28-.21.55-.3.64-.04.05-.08.07-.06.05,0,0,.03-.01.05-.02-.06.02-.03,0-.03,0,.02,0,.08,0,.18.02l.08.02.51.18h.01s.03,0,.03,0c.04,0,.14-.1.24-.15.36-.24,1.08-.45,1.89-.74.73-.29,1.43-.63,1.69-.9.55-.47.7-.77.86-.96.14-.18.23-.28.31-.36.16-.15.29-.23.4-.43.08-.15.26-.72-.08-1.48-.19-.38-.36-.53-.42-.59-.07-.06-.13-.11-.25-.16-.24-.09-.59-.2-1.42-.14-.25.04-.43.04-.74.12-.34.11-.68.22-1.03.32-.73.31-1.46.62-2.21.93-1.28.54-2.26.87-2.79,1.18-.57.31-1.17.63-1.86.95-.09.04-.08.26,0,.26.74.07,1.54.05,2.2-.03.25-.04.44-.08.64-.12l.63-.16c.86-.23,1.78-.56,2.61-.85.2-.07.45-.14.61.02.18.16.08.44-.05.61-.29.39-.8.52-1.23.68-.45.15-.9.27-1.31.44-.2.09-.39.19-.55.3-.08.06-.16.12-.23.19-.03.03-.06.07-.09.11l-.04.06c-.02.05-.05.11-.07.19-.11.33-.11.77.06,1.14.17.38.5.67.79.81.15.08.29.13.44.17.14.04.3.06.33.07.09.02.17.02.24.02.3-.03.51-.11.67-.15.15-.04.26-.04.31.03.02.03.05.1,0,.23-.06.13-.19.24-.31.31-.54.27-.85.29-.96.38h0s0,0-.03.08c-.03.11-.07.22-.09.33-.05.22-.07.42-.08.62-.01.39.03.71.1.98.15.55.38.84.83,1.09.35.18.99.32,1.55.24.56-.07,1.03-.52.93-.98Z"/>
      <path class="cls-1" d="M213.47,133.38c.11-.25.51-.6,1.04-1.04l.2-.18.31-.29c.19-.2.38-.42.54-.65.32-.46.54-.96.64-1.47.23-1.01-.19-2.11-1.01-2.73-.81-.63-2-.72-3.16-.44-.83.2-1.23.29-1.78.38-.53.09-1.06.18-1.57.36-1.03.36-1.94,1.07-2.8,2.88-.03.06.01.27.04.26,1.22-.37,2.41-.67,3.61-.95.6-.14,1.2-.28,1.8-.42.3-.07.61-.15.87-.2.15-.03.26-.04.33-.04.08,0,.16,0,.24,0,.32.03.59.21.6.5,0,.29-.24.5-.39.56-.04.02-.08.03-.12.03h-.05s-.02,0-.09.05c-.24.16-.53.34-.87.57-.21.15-.46.29-.63.55-.16.25-.24.62,0,1.07.19.36.77.65,1.29.86.52.2.96.38.99.33Z"/>
    </g>
  </g>
</svg>